%TF.GenerationSoftware,tscircuit,circuit-json-to-gerber,0.0.47*%
%TF.CreationDate,2026-03-14T05:51:03.010Z*%
%TF.SameCoordinates,Original*%
%TF.FileFunction,Legend,Bot*%
%TF.FilePolarity,Positive*%
%FSLAX46Y46*%
%MOMM*%
G04 Gerber Fmt 4.6, Leading zero omitted, Abs format (unit mm)*
G04 Created by tscircuit (builder) date 2026-03-14T05:51:03.010Z*
G01*
%LPD*%
G75*
G04 APERTURE MACROS START*
%AMHORZPILL*
0 Horizontal pill (stadium) shape macro*
0 Parameters:*
0 $1 = Total width*
0 $2 = Total height*
0 $3 = Circle diameter (equal to height)*
0 $4 = Circle center offset
0 21 = Center Line(Exposure, Width, Height, Center X, Center Y, Rotation)*
0 1 = Circle(Exposure, Diameter, Center X, Center Y, Rotation)*
21,1,$1,$2,0.0,0.0,0.0*
1,1,$3,0.0-$4,0.0*
1,1,$3,$4,0.0*%
%AMVERTPILL*
0 Vertical pill (stadium) shape macro*
0 Parameters:*
0 $1 = Total width*
0 $2 = Total height*
0 $3 = Circle diameter (equal to width)*
0 $4 = Circle center offset
0 21 = Center Line(Exposure, Width, Height, Center X, Center Y, Rotation)*
21,1,$1,$2,0.0,0.0,0.0*
1,1,$3,0.0,0.0-$4*
1,1,$3,0.0,$4*%
%AMRoundRect*
0 Rectangle with rounded corners*
0 $1 Corner radius*
0 $2 $3 $4 $5 $6 $7 $8 $9 X,Y Position of each corner*
0 Polygon box body*
4,1,4,$2,$3,$4,$5,$6,$7,$8,$9,$2,$3,0*
0 Circles for rounded corners*
1,1,$1+$1,$2,$3*
1,1,$1+$1,$4,$5*
1,1,$1+$1,$6,$7*
1,1,$1+$1,$8,$9*
0 Rectangles between the rounded corners*
20,1,$1+$1,$2,$3,$4,$5,0*
20,1,$1+$1,$4,$5,$6,$7,0*
20,1,$1+$1,$6,$7,$8,$9,0*
20,1,$1+$1,$8,$9,$2,$3,0*%
G04 APERTURE MACROS END*
G04 aperture START LIST*
%ADD10C,2.500000*%
%ADD11C,0.100000*%
%ADD12C,0.125000*%
%ADD13C,0.050000*%
%ADD14C,1.800000*%
%TD*%
G04 aperture END LIST*
D11*
X001680000Y011190000D02*
X001200000Y011590000D01*
X001150000Y012270000D01*
X001570000Y012760000D01*
X002200000Y012830000D01*
X002720000Y012460000D01*
X002820000Y011780000D01*
X002480000Y011280000D01*
X001820000Y011150000D01*
X002390000Y011920000D01*
X002090000Y012450000D01*
X001580000Y012150000D01*
X001780000Y011570000D01*
D11*
X-05000000Y011180000D02*
X-04840000Y011570000D01*
X-04530000Y012350000D01*
X-04350000Y012780000D01*
X-03870000Y012760000D01*
X-03650000Y012240000D01*
X-03390000Y011580000D01*
X-03240000Y011210000D01*
X-03720000Y011320000D01*
X-03960000Y011920000D01*
X-04130000Y012140000D01*
X-04420000Y011450000D01*
X-04710000Y011170000D01*
D11*
X-02940000Y011990000D02*
X-02940000Y012320000D01*
X-02940000Y012660000D01*
X-02770000Y012820000D01*
X-02510000Y012740000D01*
X-02510000Y012410000D01*
X-02510000Y012070000D01*
X-02510000Y011740000D01*
X-02510000Y011410000D01*
X-02600000Y011170000D01*
X-02940000Y011170000D01*
X-02940000Y011490000D01*
X-02940000Y011820000D01*
D11*
X-02150000Y011200000D02*
X-01850000Y011540000D01*
X-01460000Y011620000D01*
X-01920000Y012210000D01*
X-02180000Y012740000D01*
X-01630000Y012810000D01*
X-01010000Y012800000D01*
X-00940000Y012470000D01*
X-01590000Y012430000D01*
X-01250000Y011970000D01*
X-00860000Y011460000D01*
X-01210000Y011170000D01*
X-02020000Y011170000D01*
D11*
X000040000Y011190000D02*
X-00440000Y011480000D01*
X-00620000Y012000000D01*
X-00430000Y012530000D01*
X000030000Y012800000D01*
X000620000Y012740000D01*
X000730000Y012370000D01*
X000240000Y012450000D01*
X-00160000Y012130000D01*
X000010000Y011610000D01*
X000540000Y011650000D01*
X000860000Y011410000D01*
X000320000Y011180000D01*
D11*
X003170000Y011990000D02*
X003170000Y012810000D01*
X003580000Y012390000D01*
X003840000Y012420000D01*
X004280000Y012480000D01*
X004590000Y012370000D01*
X004990000Y012820000D01*
X005000000Y012000000D01*
X004990000Y011180000D01*
X004400000Y011560000D01*
X004020000Y012020000D01*
X003560000Y011220000D01*
X003170000Y011580000D01*
D11*
X006000000Y011000000D02*
X007500000Y011000000D01*
X007500000Y012500000D01*
X006000000Y012500000D01*
X006000000Y011000000D01*
D11*
X006500000Y011500000D02*
X008000000Y011500000D01*
X008000000Y013000000D01*
X006500000Y013000000D01*
X006500000Y011500000D01*
D11*
X007000000Y012000000D02*
X008500000Y012000000D01*
X008500000Y013500000D01*
X007000000Y013500000D01*
X007000000Y012000000D01*
M02*