%TF.GenerationSoftware,tscircuit,circuit-json-to-gerber,0.0.47*%
%TF.CreationDate,2026-03-14T05:51:03.010Z*%
%TF.SameCoordinates,Original*%
%TF.FileFunction,Profile,NP*%
%FSLAX46Y46*%
%MOMM*%
G04 Gerber Fmt 4.6, Leading zero omitted, Abs format (unit mm)*
G04 Created by tscircuit (builder) date 2026-03-14T05:51:03.010Z*
G01*
%LPD*%
G75*
%ADD10C,0.050000*%
D10*
X022500000Y000000000D02*
X022300000Y-01170000D01*
X021700000Y-02280000D01*
X020710000Y-03280000D01*
X019380000Y-04120000D01*
X017760000Y-04750000D01*
X015890000Y-05160000D01*
X013840000Y-05320000D01*
X011670000Y-05200000D01*
X009480000Y-04820000D01*
X007310000Y-04220000D01*
X008920000Y-05790000D01*
X010340000Y-07510000D01*
X011520000Y-09320000D01*
X012420000Y-11180000D01*
X012990000Y-12990000D01*
X013260000Y-14720000D01*
X013190000Y-16300000D01*
X012820000Y-17650000D01*
X012160000Y-18730000D01*
X011250000Y-19490000D01*
X010140000Y-19900000D01*
X008870000Y-19930000D01*
X007510000Y-19570000D01*
X006120000Y-18840000D01*
X004750000Y-17760000D01*
X003470000Y-16340000D01*
X002320000Y-14640000D01*
X001340000Y-12710000D01*
X000560000Y-10620000D01*
X000000000Y-08440000D01*
X-00560000Y-10620000D01*
X-01340000Y-12710000D01*
X-02320000Y-14640000D01*
X-03470000Y-16340000D01*
X-04750000Y-17760000D01*
X-06120000Y-18840000D01*
X-07510000Y-19570000D01*
X-08870000Y-19930000D01*
X-10140000Y-19900000D01*
X-11250000Y-19490000D01*
X-12160000Y-18730000D01*
X-12820000Y-17650000D01*
X-13190000Y-16300000D01*
X-13260000Y-14720000D01*
X-12990000Y-12990000D01*
X-12420000Y-11180000D01*
X-11520000Y-09320000D01*
X-10340000Y-07510000D01*
X-08920000Y-05790000D01*
X-07310000Y-04220000D01*
X-09480000Y-04820000D01*
X-11670000Y-05200000D01*
X-13840000Y-05320000D01*
X-15890000Y-05160000D01*
X-17760000Y-04750000D01*
X-19380000Y-04120000D01*
X-20710000Y-03280000D01*
X-21700000Y-02280000D01*
X-22300000Y-01170000D01*
X-22500000Y000000000D01*
X-22300000Y001170000D01*
X-21700000Y002280000D01*
X-20710000Y003280000D01*
X-19380000Y004120000D01*
X-17760000Y004750000D01*
X-15890000Y005160000D01*
X-13840000Y005320000D01*
X-11670000Y005200000D01*
X-09480000Y004820000D01*
X-07310000Y004220000D01*
X-08920000Y005790000D01*
X-10340000Y007510000D01*
X-11520000Y009320000D01*
X-12420000Y011180000D01*
X-12990000Y012990000D01*
X-13260000Y014720000D01*
X-13190000Y016300000D01*
X-12820000Y017650000D01*
X-12160000Y018730000D01*
X-11250000Y019490000D01*
X-10140000Y019900000D01*
X-08870000Y019930000D01*
X-07510000Y019570000D01*
X-06120000Y018840000D01*
X-04750000Y017760000D01*
X-03470000Y016340000D01*
X-02320000Y014640000D01*
X-01340000Y012710000D01*
X-00560000Y010620000D01*
X000000000Y008440000D01*
X000560000Y010620000D01*
X001340000Y012710000D01*
X002320000Y014640000D01*
X003470000Y016340000D01*
X004750000Y017760000D01*
X006120000Y018840000D01*
X007510000Y019570000D01*
X008870000Y019930000D01*
X010140000Y019900000D01*
X011250000Y019490000D01*
X012160000Y018730000D01*
X012820000Y017650000D01*
X013190000Y016300000D01*
X013260000Y014720000D01*
X012990000Y012990000D01*
X012420000Y011180000D01*
X011520000Y009320000D01*
X010340000Y007510000D01*
X008920000Y005790000D01*
X007310000Y004220000D01*
X009480000Y004820000D01*
X011670000Y005200000D01*
X013840000Y005320000D01*
X015890000Y005160000D01*
X017760000Y004750000D01*
X019380000Y004120000D01*
X020710000Y003280000D01*
X021700000Y002280000D01*
X022300000Y001170000D01*
X022500000Y000000000D01*
M02*