%TF.GenerationSoftware,tscircuit,circuit-json-to-gerber,0.0.47*%
%TF.CreationDate,2026-03-14T05:51:03.010Z*%
%TF.SameCoordinates,Original*%
%TF.FileFunction,Copper,L1,Top*%
%TF.FilePolarity,Positive*%
%FSLAX46Y46*%
%MOMM*%
G04 Gerber Fmt 4.6, Leading zero omitted, Abs format (unit mm)*
G04 Created by tscircuit (builder) date 2026-03-14T05:51:03.010Z*
G01*
%LPD*%
G75*
G04 APERTURE MACROS START*
%AMHORZPILL*
0 Horizontal pill (stadium) shape macro*
0 Parameters:*
0 $1 = Total width*
0 $2 = Total height*
0 $3 = Circle diameter (equal to height)*
0 $4 = Circle center offset
0 21 = Center Line(Exposure, Width, Height, Center X, Center Y, Rotation)*
0 1 = Circle(Exposure, Diameter, Center X, Center Y, Rotation)*
21,1,$1,$2,0.0,0.0,0.0*
1,1,$3,0.0-$4,0.0*
1,1,$3,$4,0.0*%
%AMVERTPILL*
0 Vertical pill (stadium) shape macro*
0 Parameters:*
0 $1 = Total width*
0 $2 = Total height*
0 $3 = Circle diameter (equal to width)*
0 $4 = Circle center offset
0 21 = Center Line(Exposure, Width, Height, Center X, Center Y, Rotation)*
21,1,$1,$2,0.0,0.0,0.0*
1,1,$3,0.0,0.0-$4*
1,1,$3,0.0,$4*%
%AMRoundRect*
0 Rectangle with rounded corners*
0 $1 Corner radius*
0 $2 $3 $4 $5 $6 $7 $8 $9 X,Y Position of each corner*
0 Polygon box body*
4,1,4,$2,$3,$4,$5,$6,$7,$8,$9,$2,$3,0*
0 Circles for rounded corners*
1,1,$1+$1,$2,$3*
1,1,$1+$1,$4,$5*
1,1,$1+$1,$6,$7*
1,1,$1+$1,$8,$9*
0 Rectangles between the rounded corners*
20,1,$1+$1,$2,$3,$4,$5,0*
20,1,$1+$1,$4,$5,$6,$7,0*
20,1,$1+$1,$6,$7,$8,$9,0*
20,1,$1+$1,$8,$9,$2,$3,0*%
G04 APERTURE MACROS END*
G04 aperture START LIST*
%ADD10C,0.150000*%
%ADD11C,2.500000*%
%ADD12R,2.500000X2.500000*%
%ADD13R,1.750000X1.750000*%
%ADD14C,0.100000*%
%ADD15C,0.125000*%
%ADD16R,1.200000X0.900000*%
%ADD17R,0.840000X0.630000*%
%ADD18R,0.800000X0.950000*%
%ADD19R,0.560000X0.665000*%
%ADD20C,0.050000*%
%ADD21C,1.800000*%
%TD*%
G04 aperture END LIST*
D12*
X-05900000Y004000000D03*
D12*
X005900000Y004000000D03*
D16*
X-01500000Y009000000D03*
D16*
X000000000Y009000000D03*
D16*
X001500000Y009000000D03*
D18*
X-00825000Y011000000D03*
D18*
X000825000Y011000000D03*
D21*
X-01270000Y-03000000D03*
D21*
X001270000Y-03000000D03*
D10*
X-01270000Y-03000000D02*
X-01270000Y-02100000D01*
D10*
X-01270000Y-02100000D02*
X-01200000Y-02000000D01*
D10*
X-01200000Y-02000000D02*
X-00400000Y-01200000D01*
D10*
X-00400000Y-01200000D02*
X000400000Y-00400000D01*
D10*
X000400000Y-00400000D02*
X001200000Y000400000D01*
D10*
X001200000Y000400000D02*
X002000000Y001200000D01*
D10*
X002000000Y001200000D02*
X002800000Y002000000D01*
D10*
X002800000Y002000000D02*
X003600000Y002800000D01*
D10*
X003600000Y002800000D02*
X002800000Y003600000D01*
D10*
X002800000Y003600000D02*
X002800000Y004400000D01*
D10*
X002800000Y004400000D02*
X002800000Y005200000D01*
D10*
X002800000Y005200000D02*
X002800000Y006000000D01*
D10*
X002800000Y006000000D02*
X003600000Y006800000D01*
D10*
X003600000Y006800000D02*
X003600000Y007600000D01*
D10*
X003600000Y007600000D02*
X003500000Y008550000D01*
D10*
X003500000Y008550000D02*
X002350000Y011305000D01*
D10*
X002350000Y011305000D02*
X001410000Y010902500D01*
D10*
X001410000Y010902500D02*
X001225000Y010750000D01*
D10*
X001225000Y010750000D02*
X000825000Y011000000D01*
D10*
X-00825000Y011000000D02*
X-01000000Y010525000D01*
D10*
X-01000000Y010525000D02*
X-00535000Y009450000D01*
D10*
X-00535000Y009450000D02*
X000000000Y009000000D01*
D10*
X001270000Y-03000000D02*
X001270000Y-00630000D01*
D10*
X001270000Y-00630000D02*
X005900000Y004000000D01*
D10*
X-01500000Y009000000D02*
X-01500000Y008400000D01*
D10*
X-01500000Y008400000D02*
X-05900000Y004000000D01*
M02*