<svg xmlns="http://www.w3.org/2000/svg" width="800" height="600" data-software-used-string="@tscircuit/core@0.0.1112"><style></style><rect class="boundary" x="0" y="0" fill="#000" width="800" height="600" data-type="pcb_background" data-pcb-layer="global"/><rect class="pcb-boundary" fill="none" stroke="#fff" stroke-width="0.3" x="77.49641662685144" y="14.333492594362156" width="645.0071667462971" height="571.3330148112757" data-type="pcb_boundary" data-pcb-layer="global"/><path class="pcb-board" d="M 722.5035833731486 300 L 719.6368848542761 316.7701863354037 L 711.0367892976589 332.6803631151457 L 696.8466316292404 347.0138557095079 L 677.7830864787386 359.0539894887721 L 654.562828475872 368.08408982322027 L 627.7591973244147 373.96082178690875 L 598.3755375059723 376.25418060200667 L 567.2718585762063 374.53416149068323 L 535.8815097945533 369.0874343048256 L 504.77783086478735 360.4873387482083 L 527.8547539417104 382.9909221213569 L 548.2083134257048 407.6445293836598 L 565.1218346870521 433.58815097945535 L 578.021978021978 460.2484472049689 L 586.1920688007644 486.19206880076445 L 590.0621118012423 510.989010989011 L 589.0587673196369 533.6359292881032 L 583.7553750597228 552.9861442904921 L 574.2952699474439 568.4663162924032 L 561.2517916865743 579.3597706641185 L 545.3416149068323 585.2365026278069 L 527.1380793119923 585.6665074056378 L 507.6445293836598 580.5064500716675 L 487.72097467749643 570.0430004777832 L 468.08408982322027 554.562828475872 L 449.7372193024367 534.2092689918777 L 433.2537028189202 509.842331581462 L 419.2068800764453 482.17869087434303 L 408.0267558528428 452.22169135212613 L 400 420.97467749641663 L 391.9732441471572 452.22169135212613 L 380.7931199235547 482.17869087434303 L 366.7462971810798 509.842331581462 L 350.2627806975633 534.2092689918777 L 331.91591017677973 554.562828475872 L 312.27902532250357 570.0430004777832 L 292.3554706163402 580.5064500716675 L 272.8619206880077 585.6665074056378 L 254.6583850931677 585.2365026278069 L 238.74820831342572 579.3597706641185 L 225.70473005255613 568.4663162924032 L 216.2446249402771 552.9861442904921 L 210.94123268036313 533.6359292881032 L 209.93788819875778 510.989010989011 L 213.80793119923555 486.19206880076445 L 221.97802197802199 460.2484472049689 L 234.87816531294794 433.58815097945535 L 251.79168657429528 407.6445293836598 L 272.14524605828956 382.9909221213569 L 295.22216913521265 360.4873387482083 L 264.11849020544673 369.0874343048256 L 232.7281414237936 374.53416149068323 L 201.6244624940277 376.25418060200667 L 172.2408026755853 373.96082178690875 L 145.43717152412802 368.08408982322027 L 122.21691352126135 359.0539894887721 L 103.15336837075967 347.0138557095079 L 88.96321070234114 332.6803631151457 L 80.36311514572384 316.7701863354037 L 77.49641662685144 300 L 80.36311514572384 283.2298136645963 L 88.96321070234114 267.3196368848543 L 103.15336837075967 252.98614429049212 L 122.21691352126135 240.9460105112279 L 145.43717152412802 231.91591017677973 L 172.2408026755853 226.03917821309125 L 201.6244624940277 223.74581939799333 L 232.7281414237936 225.46583850931677 L 264.11849020544673 230.9125656951744 L 295.22216913521265 239.51266125179168 L 272.14524605828956 217.0090778786431 L 251.79168657429528 192.3554706163402 L 234.87816531294794 166.41184902054468 L 221.97802197802199 139.75155279503107 L 213.80793119923555 113.80793119923555 L 209.93788819875778 89.01098901098902 L 210.94123268036313 66.3640707118968 L 216.2446249402771 47.01385570950791 L 225.70473005255613 31.533683707596765 L 238.74820831342572 20.640229335881543 L 254.6583850931677 14.763497372193058 L 272.8619206880077 14.333492594362156 L 292.3554706163402 19.493549928332527 L 312.27902532250357 29.956999522216904 L 331.91591017677973 45.43717152412802 L 350.2627806975633 65.79073100812232 L 366.7462971810798 90.15766841853798 L 380.7931199235547 117.82130912565694 L 391.9732441471572 147.77830864787387 L 400 179.02532250358337 L 408.0267558528428 147.77830864787387 L 419.2068800764453 117.82130912565694 L 433.2537028189202 90.15766841853798 L 449.7372193024367 65.79073100812232 L 468.08408982322027 45.43717152412802 L 487.72097467749643 29.956999522216904 L 507.6445293836598 19.493549928332527 L 527.1380793119923 14.333492594362156 L 545.3416149068323 14.763497372193058 L 561.2517916865743 20.640229335881543 L 574.2952699474439 31.533683707596765 L 583.7553750597228 47.01385570950791 L 589.0587673196369 66.3640707118968 L 590.0621118012423 89.01098901098902 L 586.1920688007644 113.80793119923555 L 578.021978021978 139.75155279503107 L 565.1218346870521 166.41184902054468 L 548.2083134257048 192.3554706163402 L 527.8547539417104 217.0090778786431 L 504.77783086478735 239.51266125179168 L 535.8815097945533 230.9125656951744 L 567.2718585762063 225.46583850931677 L 598.3755375059723 223.74581939799333 L 627.7591973244147 226.03917821309125 L 654.562828475872 231.91591017677973 L 677.7830864787386 240.9460105112279 L 696.8466316292404 252.98614429049212 L 711.0367892976589 267.3196368848543 L 719.6368848542761 283.2298136645963 Z" fill="none" stroke="rgba(255, 255, 255, 0.5)" stroke-width="1.433349259436216" data-type="pcb_board" data-pcb-layer="board"/><path class="pcb-silkscreen pcb-silkscreen-bottom" d="M 259.96177735308174 313.33014811275683 L 270.9985666507406 286.2398471094123 L 260.3917821309126 286.2398471094123 L 255.08838987099858 301.2900143334926 L 249.78499761108458 286.2398471094123 L 239.60821786908744 286.2398471094123 L 250.6450071667463 313.33014811275683 L 259.96177735308174 313.33014811275683 Z" fill="none" stroke="#5da9e9" stroke-width="1.433349259436216" stroke-linecap="round" stroke-linejoin="round" data-pcb-component-id="null" data-pcb-silkscreen-path-id="pcb_silkscreen_path_6" data-type="pcb_silkscreen_path" data-pcb-layer="bottom"/><path class="pcb-silkscreen pcb-silkscreen-bottom" d="M 227.85475394171047 313.33014811275683 L 237.74486383182037 313.33014811275683 L 237.74486383182037 286.2398471094123 L 227.85475394171047 286.2398471094123 L 227.85475394171047 313.33014811275683 Z" fill="none" stroke="#5da9e9" stroke-width="1.433349259436216" stroke-linecap="round" stroke-linejoin="round" data-pcb-component-id="null" data-pcb-silkscreen-path-id="pcb_silkscreen_path_7" data-type="pcb_silkscreen_path" data-pcb-layer="bottom"/><path class="pcb-silkscreen pcb-silkscreen-bottom" d="M 200.33444816053512 286.2398471094123 L 200.33444816053512 292.4032489249881 L 211.94457716196845 305.44672718585764 L 200.1911132345915 305.44672718585764 L 200.1911132345915 313.33014811275683 L 225.13139034878168 313.33014811275683 L 225.13139034878168 307.02341137123744 L 213.52126134734831 294.1232680363115 L 224.41471571906354 294.1232680363115 L 224.41471571906354 286.2398471094123 L 200.33444816053512 286.2398471094123 Z" fill="none" stroke="#5da9e9" stroke-width="1.433349259436216" stroke-linecap="round" stroke-linejoin="round" data-pcb-component-id="null" data-pcb-silkscreen-path-id="pcb_silkscreen_path_8" data-type="pcb_silkscreen_path" data-pcb-layer="bottom"/><path class="pcb-silkscreen pcb-silkscreen-bottom" d="M 199.33110367892976 299.71333014811273 L 199.04443382704252 296.84663162924033 L 198.3277591973244 293.9799331103679 L 197.03774486383182 291.54323936932633 L 195.17439082656475 289.5365504061156 L 193.02436693741043 287.8165312947922 L 190.58767319636885 286.5265169612996 L 187.72097467749643 285.66650740563784 L 184.56760630673676 285.3798375537506 L 182.13091256569518 285.66650740563784 L 179.69421882465363 286.2398471094123 L 178.26086956521738 286.8131868131868 L 178.26086956521738 295.84328714763495 L 179.98088867654087 294.98327759197326 L 181.84424271380792 294.4099378881988 L 183.1342570473005 294.4099378881988 L 185.5709507883421 294.696607740086 L 187.4343048256092 295.84328714763495 L 188.72431915910178 297.56330625895845 L 189.29765886287626 299.71333014811273 L 188.72431915910178 302.0066889632107 L 187.5776397515528 303.72670807453414 L 185.5709507883421 304.87338748208316 L 183.1342570473005 305.16005733397037 L 181.84424271380792 305.16005733397037 L 179.98088867654087 304.5867176301959 L 178.26086956521738 303.58337314859057 L 178.26086956521738 312.6134734830387 L 180.69756330625896 313.61681796464404 L 183.1342570473005 314.0468227424749 L 184.71094123268037 314.0468227424749 L 187.72097467749643 313.9034878165313 L 190.58767319636885 313.04347826086956 L 193.02436693741043 311.8967988533206 L 195.17439082656475 310.1767797419971 L 196.8944099378882 308.1700907787864 L 198.1844242713808 305.73339703774485 L 199.04443382704252 302.86669851887245 L 199.33110367892976 299.71333014811273 Z" fill="none" stroke="#5da9e9" stroke-width="1.433349259436216" stroke-linecap="round" stroke-linejoin="round" data-pcb-component-id="null" data-pcb-silkscreen-path-id="pcb_silkscreen_path_9" data-type="pcb_silkscreen_path" data-pcb-layer="bottom"/><path class="pcb-silkscreen pcb-silkscreen-bottom" d="M 161.20401337792643 285.3798375537506 L 158.19397993311037 285.66650740563784 L 155.32728141423794 286.5265169612996 L 152.74725274725276 287.8165312947922 L 150.4538939321548 289.5365504061156 L 148.59053989488774 291.68657429526996 L 147.30052556139515 294.1232680363115 L 146.4405160057334 296.84663162924033 L 146.15384615384616 299.71333014811273 L 146.4405160057334 302.7233635929288 L 147.30052556139515 305.44672718585764 L 148.59053989488774 307.8834209268992 L 150.4538939321548 310.03344481605353 L 152.74725274725276 311.75346392737697 L 155.32728141423794 313.04347826086956 L 158.19397993311037 313.9034878165313 L 161.20401337792643 314.0468227424749 L 164.3573817486861 313.9034878165313 L 167.22408026755855 313.04347826086956 L 169.80410893454373 311.75346392737697 L 172.09746774964165 310.03344481605353 L 173.96082178690875 307.8834209268992 L 175.25083612040135 305.44672718585764 L 176.1108456760631 302.7233635929288 L 176.39751552795033 299.71333014811273 L 176.1108456760631 296.84663162924033 L 175.25083612040135 294.1232680363115 L 173.96082178690875 291.68657429526996 L 172.09746774964165 289.5365504061156 L 169.80410893454373 287.8165312947922 L 167.22408026755855 286.5265169612996 L 164.3573817486861 285.66650740563784 L 161.20401337792643 285.3798375537506 Z" fill="none" stroke="#5da9e9" stroke-width="1.433349259436216" stroke-linecap="round" stroke-linejoin="round" data-pcb-component-id="null" data-pcb-silkscreen-path-id="pcb_silkscreen_path_10" data-type="pcb_silkscreen_path" data-pcb-layer="bottom"/><path class="pcb-silkscreen pcb-silkscreen-bottom" d="M 161.20401337792643 294.4099378881988 L 163.35403726708074 294.83994266602963 L 165.0740563784042 295.9866220735786 L 166.2207357859532 297.7066411849021 L 166.65074056378404 299.71333014811273 L 166.2207357859532 301.8633540372671 L 165.0740563784042 303.58337314859057 L 163.35403726708074 304.7300525561395 L 161.20401337792643 305.16005733397037 L 159.19732441471572 304.7300525561395 L 157.47730530339226 303.58337314859057 L 156.3306258958433 301.8633540372671 L 155.90062111801242 299.71333014811273 L 156.3306258958433 297.7066411849021 L 157.47730530339226 295.9866220735786 L 159.19732441471572 294.83994266602963 L 161.20401337792643 294.4099378881988 Z" fill="none" stroke="#5da9e9" stroke-width="1.433349259436216" stroke-linecap="round" stroke-linejoin="round" data-pcb-component-id="null" data-pcb-silkscreen-path-id="pcb_silkscreen_path_11" data-type="pcb_silkscreen_path" data-pcb-layer="bottom"/><path class="pcb-silkscreen pcb-silkscreen-bottom" d="M 134.40038222646916 298.7099856665074 L 134.40038222646916 313.4734830387004 L 144.43382704252272 313.4734830387004 L 144.43382704252272 286.2398471094123 L 134.40038222646916 286.2398471094123 L 134.40038222646916 289.393215480172 L 132.25035833731488 287.2431915910177 L 129.38365981844242 285.8098423315815 L 126.94696607740087 285.5231724796942 L 124.36693741041569 285.8098423315815 L 121.3569039655996 287.2431915910177 L 119.20688007644532 289.8232202580029 L 116.62685140946013 287.09985666507407 L 113.1868131868132 285.66650740563784 L 110.75011944577165 285.5231724796942 L 106.5934065934066 286.2398471094123 L 103.58337314859057 288.38987099856666 L 101.86335403726707 291.54323936932633 L 101.14667940754896 295.9866220735786 L 101.14667940754896 313.4734830387004 L 111.18012422360249 313.4734830387004 L 111.18012422360249 298.5666507405638 L 111.75346392737697 296.27329192546586 L 113.04347826086956 294.83994266602963 L 114.47682752030579 294.55327281414236 L 115.76684185379838 294.83994266602963 L 117.20019111323461 296.27329192546586 L 117.77353081700909 298.7099856665074 L 117.77353081700909 313.4734830387004 L 127.80697563306256 313.4734830387004 L 127.80697563306256 298.5666507405638 L 128.23698041089347 296.27329192546586 L 129.6703296703297 294.83994266602963 L 130.96034400382229 294.55327281414236 L 132.39369326325846 294.83994266602963 L 133.82704252269468 296.27329192546586 L 134.40038222646916 298.7099856665074 Z" fill="none" stroke="#5da9e9" stroke-width="1.433349259436216" stroke-linecap="round" stroke-linejoin="round" data-pcb-component-id="null" data-pcb-silkscreen-path-id="pcb_silkscreen_path_12" data-type="pcb_silkscreen_path" data-pcb-layer="bottom"/><path class="pcb-silkscreen pcb-silkscreen-bottom" d="M 640.0860009555662 325.0836120401338 L 615.0023889154324 325.0836120401338 L 615.0023889154324 300 L 640.0860009555662 300 L 640.0860009555662 325.0836120401338 Z" fill="none" stroke="#5da9e9" stroke-width="1.433349259436216" stroke-linecap="round" stroke-linejoin="round" data-pcb-component-id="null" data-pcb-silkscreen-path-id="pcb_silkscreen_path_13" data-type="pcb_silkscreen_path" data-pcb-layer="bottom"/><path class="pcb-silkscreen pcb-silkscreen-bottom" d="M 627.4725274725274 312.4701385570951 L 602.3889154323937 312.4701385570951 L 602.3889154323937 287.3865265169613 L 627.4725274725274 287.3865265169613 L 627.4725274725274 312.4701385570951 Z" fill="none" stroke="#5da9e9" stroke-width="1.433349259436216" stroke-linecap="round" stroke-linejoin="round" data-pcb-component-id="null" data-pcb-silkscreen-path-id="pcb_silkscreen_path_14" data-type="pcb_silkscreen_path" data-pcb-layer="bottom"/><path class="pcb-silkscreen pcb-silkscreen-bottom" d="M 615.0023889154324 300 L 589.9187768752986 300 L 589.9187768752986 274.9163879598662 L 615.0023889154324 274.9163879598662 L 615.0023889154324 300 Z" fill="none" stroke="#5da9e9" stroke-width="1.433349259436216" stroke-linecap="round" stroke-linejoin="round" data-pcb-component-id="null" data-pcb-silkscreen-path-id="pcb_silkscreen_path_15" data-type="pcb_silkscreen_path" data-pcb-layer="bottom"/><path class="pcb-silkscreen pcb-silkscreen-bottom" d="M 627.4725274725274 312.4701385570951 L 615.0023889154324 300" fill="none" stroke="#5da9e9" stroke-width="1.433349259436216" stroke-linecap="round" stroke-linejoin="round" data-pcb-component-id="null" data-pcb-silkscreen-path-id="pcb_silkscreen_path_16" data-type="pcb_silkscreen_path" data-pcb-layer="bottom"/><path class="pcb-silkscreen pcb-silkscreen-bottom" d="M 615.0023889154324 300 L 602.3889154323937 287.3865265169613" fill="none" stroke="#5da9e9" stroke-width="1.433349259436216" stroke-linecap="round" stroke-linejoin="round" data-pcb-component-id="null" data-pcb-silkscreen-path-id="pcb_silkscreen_path_17" data-type="pcb_silkscreen_path" data-pcb-layer="bottom"/><text x="0" y="0" dx="0" dy="0" fill="#5da9e9" font-family="Arial, sans-serif" font-size="14.33349259436216" text-anchor="middle" dominant-baseline="central" transform="matrix(-1,0,0,1,615.0023889154324,264.1662685140946)" class="pcb-silkscreen-text pcb-silkscreen-bottom" data-pcb-silkscreen-text-id="null" stroke="none" data-type="pcb_silkscreen_text" data-pcb-layer="bottom">Telemetron</text><rect class="pcb-pad" fill="rgb(200, 52, 52)" x="297.5155279503105" y="267.7496416626851" width="35.833731485905396" height="35.833731485905396" data-type="pcb_smtpad" data-pcb-layer="top"/><rect class="pcb-pad" fill="rgb(200, 52, 52)" x="466.65074056378404" y="267.7496416626851" width="35.833731485905396" height="35.833731485905396" data-type="pcb_smtpad" data-pcb-layer="top"/><rect class="pcb-pad" fill="rgb(200, 52, 52)" x="369.89966555183946" y="221.88246536072626" width="17.20019111323459" height="12.900143334925943" data-type="pcb_smtpad" data-pcb-layer="top"/><rect class="pcb-pad" fill="rgb(200, 52, 52)" x="391.3999044433827" y="221.88246536072626" width="17.20019111323459" height="12.900143334925943" data-type="pcb_smtpad" data-pcb-layer="top"/><rect class="pcb-pad" fill="rgb(200, 52, 52)" x="412.90014333492593" y="221.88246536072626" width="17.20019111323459" height="12.900143334925943" data-type="pcb_smtpad" data-pcb-layer="top"/><rect class="pcb-pad" fill="rgb(200, 52, 52)" x="382.4414715719064" y="192.85714285714286" width="11.466794075489728" height="13.616817964644051" data-type="pcb_smtpad" data-pcb-layer="top"/><rect class="pcb-pad" fill="rgb(200, 52, 52)" x="406.0917343526039" y="192.85714285714286" width="11.466794075489728" height="13.616817964644051" data-type="pcb_smtpad" data-pcb-layer="top"/><path class="pcb-trace" stroke="rgb(200, 52, 52)" fill="none" d="M 381.79646440516007 343.00047778308647 L 433.3421588299019 291.4547833583446" stroke-width="2.150023889154324" stroke-linecap="round" stroke-linejoin="round" shape-rendering="crispEdges" data-type="pcb_trace" data-pcb-layer="top"/><path class="pcb-trace" stroke="rgb(200, 52, 52)" fill="none" d="M 433.3421588299019 291.4547833583446 L 433.3421588299019 213.8511493113196" stroke-width="2.150023889154324" stroke-linecap="round" stroke-linejoin="round" shape-rendering="crispEdges" data-type="pcb_trace" data-pcb-layer="top"/><path class="pcb-trace" stroke="rgb(200, 52, 52)" fill="none" d="M 433.3421588299019 213.8511493113196 L 426.0107288622035 213.8511493113196" stroke-width="2.150023889154324" stroke-linecap="round" stroke-linejoin="round" shape-rendering="crispEdges" data-type="pcb_trace" data-pcb-layer="top"/><path class="pcb-trace" stroke="rgb(200, 52, 52)" fill="none" d="M 426.0107288622035 213.8511493113196 L 411.82513139034876 199.66555183946488" stroke-width="2.150023889154324" stroke-linecap="round" stroke-linejoin="round" shape-rendering="crispEdges" data-type="pcb_trace" data-pcb-layer="top"/><path class="pcb-trace" stroke="rgb(200, 52, 52)" fill="none" d="M 388.17486860965124 199.66555183946488 L 388.17486860965124 216.5074056378404" stroke-width="2.150023889154324" stroke-linecap="round" stroke-linejoin="round" shape-rendering="crispEdges" data-type="pcb_trace" data-pcb-layer="top"/><path class="pcb-trace" stroke="rgb(200, 52, 52)" fill="none" d="M 388.17486860965124 216.5074056378404 L 400 228.33253702818922" stroke-width="2.150023889154324" stroke-linecap="round" stroke-linejoin="round" shape-rendering="crispEdges" data-type="pcb_trace" data-pcb-layer="top"/><path class="pcb-trace" stroke="rgb(200, 52, 52)" fill="none" d="M 418.20353559483993 343.00047778308647 L 427.2336359292881 343.00047778308647" stroke-width="2.150023889154324" stroke-linecap="round" stroke-linejoin="round" shape-rendering="crispEdges" data-type="pcb_trace" data-pcb-layer="top"/><path class="pcb-trace" stroke="rgb(200, 52, 52)" fill="none" d="M 427.2336359292881 343.00047778308647 L 484.56760630673676 285.66650740563784" stroke-width="2.150023889154324" stroke-linecap="round" stroke-linejoin="round" shape-rendering="crispEdges" data-type="pcb_trace" data-pcb-layer="top"/><path class="pcb-trace" stroke="rgb(200, 52, 52)" fill="none" d="M 378.49976110845677 228.33253702818922 L 372.7663640707119 228.33253702818922" stroke-width="2.150023889154324" stroke-linecap="round" stroke-linejoin="round" shape-rendering="crispEdges" data-type="pcb_trace" data-pcb-layer="top"/><path class="pcb-trace" stroke="rgb(200, 52, 52)" fill="none" d="M 372.7663640707119 228.33253702818922 L 315.43239369326324 285.66650740563784" stroke-width="2.150023889154324" stroke-linecap="round" stroke-linejoin="round" shape-rendering="crispEdges" data-type="pcb_trace" data-pcb-layer="top"/><path class="pcb-silkscreen pcb-silkscreen-top" d="M 315.43239369326324 314.33349259436216 L 315.43239369326324 256.99952221691353" fill="none" stroke="#f2eda1" stroke-width="1.433349259436216" stroke-linecap="round" stroke-linejoin="round" data-pcb-component-id="pcb_component_0" data-pcb-silkscreen-path-id="pcb_silkscreen_path_0" data-type="pcb_silkscreen_path" data-pcb-layer="top"/><path class="pcb-silkscreen pcb-silkscreen-top" d="M 306.83229813664593 285.66650740563784 L 324.03248924988054 285.66650740563784" fill="none" stroke="#f2eda1" stroke-width="1.433349259436216" stroke-linecap="round" stroke-linejoin="round" data-pcb-component-id="pcb_component_0" data-pcb-silkscreen-path-id="pcb_silkscreen_path_1" data-type="pcb_silkscreen_path" data-pcb-layer="top"/><text x="0" y="0" dx="0" dy="0" fill="#f2eda1" font-family="Arial, sans-serif" font-size="14.33349259436216" text-anchor="middle" dominant-baseline="central" transform="matrix(1,0,0,1,315.43239369326324,328.6669851887243)" class="pcb-silkscreen-text pcb-silkscreen-top" data-pcb-silkscreen-text-id="pcb_component_0" stroke="none" data-type="pcb_silkscreen_text" data-pcb-layer="top">+</text><text x="0" y="0" dx="0" dy="0" fill="#f2eda1" font-family="Arial, sans-serif" font-size="14.33349259436216" text-anchor="middle" dominant-baseline="central" transform="matrix(1,0,0,1,484.56760630673676,328.6669851887243)" class="pcb-silkscreen-text pcb-silkscreen-top" data-pcb-silkscreen-text-id="pcb_component_0" stroke="none" data-type="pcb_silkscreen_text" data-pcb-layer="top">-</text><path class="pcb-silkscreen pcb-silkscreen-top" d="M 364.1662685140946 249.83277591973246 L 435.8337314859054 249.83277591973246 L 435.8337314859054 206.83229813664596 L 364.1662685140946 206.83229813664596 L 364.1662685140946 249.83277591973246 Z" fill="none" stroke="#f2eda1" stroke-width="1.433349259436216" stroke-linecap="round" stroke-linejoin="round" data-pcb-component-id="pcb_component_1" data-pcb-silkscreen-path-id="pcb_silkscreen_path_2" data-type="pcb_silkscreen_path" data-pcb-layer="top"/><path class="pcb-silkscreen pcb-silkscreen-top" d="M 411.82513139034876 187.12374581939798 L 379.57477305303394 187.12374581939798 L 379.57477305303394 212.20735785953178 L 411.82513139034876 212.20735785953178" fill="none" stroke="#f2eda1" stroke-width="1.433349259436216" stroke-linecap="round" stroke-linejoin="round" data-pcb-component-id="pcb_component_2" data-pcb-silkscreen-path-id="pcb_silkscreen_path_3" data-type="pcb_silkscreen_path" data-pcb-layer="top"/><text x="0" y="0" dx="0" dy="0" fill="#f2eda1" font-family="Arial, sans-serif" font-size="5.733397037744864" text-anchor="middle" dominant-baseline="central" transform="matrix(1,0,0,1,400,179.9569995222169)" class="pcb-silkscreen-text pcb-silkscreen-top" data-pcb-silkscreen-text-id="pcb_component_2" stroke="none" data-type="pcb_silkscreen_text" data-pcb-layer="top">R1</text><path class="pcb-silkscreen pcb-silkscreen-top" d="M 450.4538939321548 343.00047778308647 L 443.7171524128046 317.7735308170091 L 425.2269469660774 299.2833253702819 L 400 292.54658385093165 L 374.7730530339226 299.2833253702819 L 356.2828475871954 317.7735308170091 L 349.5461060678452 343.00047778308647 L 356.2828475871954 368.2274247491639 L 374.7730530339226 386.71763019589105 L 400 393.4543717152413 L 425.2269469660774 386.71763019589105 L 443.7171524128046 368.2274247491639 L 450.4538939321548 343.00047778308647 Z" fill="none" stroke="#f2eda1" stroke-width="1.433349259436216" stroke-linecap="round" stroke-linejoin="round" data-pcb-component-id="pcb_component_3" data-pcb-silkscreen-path-id="pcb_silkscreen_path_4" data-type="pcb_silkscreen_path" data-pcb-layer="top"/><path class="pcb-silkscreen pcb-silkscreen-top" d="M 436.2637362637363 377.25752508361205 L 436.2637362637363 308.74343048256094" fill="none" stroke="#f2eda1" stroke-width="1.433349259436216" stroke-linecap="round" stroke-linejoin="round" data-pcb-component-id="pcb_component_3" data-pcb-silkscreen-path-id="pcb_silkscreen_path_5" data-type="pcb_silkscreen_path" data-pcb-layer="top"/><text x="0" y="0" dx="0" dy="0" fill="#f2eda1" font-family="Arial, sans-serif" font-size="11.466794075489728" text-anchor="middle" dominant-baseline="central" transform="matrix(1,0,0,1,381.79646440516007,371.6674629718108)" class="pcb-silkscreen-text pcb-silkscreen-top" data-pcb-silkscreen-text-id="pcb_component_3" stroke="none" data-type="pcb_silkscreen_text" data-pcb-layer="top">+</text><g data-type="pcb_plated_hole" data-pcb-layer="through"><circle class="pcb-hole-outer" fill="rgb(200, 52, 52)" cx="381.79646440516007" cy="343.00047778308647" r="12.900143334925943" data-type="pcb_plated_hole" data-pcb-layer="top"/><circle class="pcb-hole-inner" fill="#FF26E2" cx="381.79646440516007" cy="343.00047778308647" r="7.16674629718108" data-type="pcb_plated_hole_drill" data-pcb-layer="drill"/></g><g data-type="pcb_plated_hole" data-pcb-layer="through"><circle class="pcb-hole-outer" fill="rgb(200, 52, 52)" cx="418.20353559483993" cy="343.00047778308647" r="12.900143334925943" data-type="pcb_plated_hole" data-pcb-layer="top"/><circle class="pcb-hole-inner" fill="#FF26E2" cx="418.20353559483993" cy="343.00047778308647" r="7.16674629718108" data-type="pcb_plated_hole_drill" data-pcb-layer="drill"/></g><circle class="pcb-hole" cx="529.0014333492594" cy="56.3306258958433" r="17.916865742952698" fill="#FF26E2" data-type="pcb_hole" data-pcb-layer="drill"/></svg>