<svg xmlns="http://www.w3.org/2000/svg" width="800" height="600" data-software-used-string="@tscircuit/core@0.0.1112"><style></style><rect class="boundary" x="0" y="0" fill="#000" width="800" height="600" data-type="pcb_background" data-pcb-layer="global"/><rect class="pcb-boundary" fill="none" stroke="#fff" stroke-width="0.3" x="77.49641662685144" y="14.333492594362156" width="645.0071667462971" height="571.3330148112757" data-type="pcb_boundary" data-pcb-layer="global"/><path class="pcb-board" d="M 722.5035833731486 300 L 719.6368848542761 316.7701863354037 L 711.0367892976589 332.6803631151457 L 696.8466316292404 347.0138557095079 L 677.7830864787386 359.0539894887721 L 654.562828475872 368.08408982322027 L 627.7591973244147 373.96082178690875 L 598.3755375059723 376.25418060200667 L 567.2718585762063 374.53416149068323 L 535.8815097945533 369.0874343048256 L 504.77783086478735 360.4873387482083 L 527.8547539417104 382.9909221213569 L 548.2083134257048 407.6445293836598 L 565.1218346870521 433.58815097945535 L 578.021978021978 460.2484472049689 L 586.1920688007644 486.19206880076445 L 590.0621118012423 510.989010989011 L 589.0587673196369 533.6359292881032 L 583.7553750597228 552.9861442904921 L 574.2952699474439 568.4663162924032 L 561.2517916865743 579.3597706641185 L 545.3416149068323 585.2365026278069 L 527.1380793119923 585.6665074056378 L 507.6445293836598 580.5064500716675 L 487.72097467749643 570.0430004777832 L 468.08408982322027 554.562828475872 L 449.7372193024367 534.2092689918777 L 433.2537028189202 509.842331581462 L 419.2068800764453 482.17869087434303 L 408.0267558528428 452.22169135212613 L 400 420.97467749641663 L 391.9732441471572 452.22169135212613 L 380.7931199235547 482.17869087434303 L 366.7462971810798 509.842331581462 L 350.2627806975633 534.2092689918777 L 331.91591017677973 554.562828475872 L 312.27902532250357 570.0430004777832 L 292.3554706163402 580.5064500716675 L 272.8619206880077 585.6665074056378 L 254.6583850931677 585.2365026278069 L 238.74820831342572 579.3597706641185 L 225.70473005255613 568.4663162924032 L 216.2446249402771 552.9861442904921 L 210.94123268036313 533.6359292881032 L 209.93788819875778 510.989010989011 L 213.80793119923555 486.19206880076445 L 221.97802197802199 460.2484472049689 L 234.87816531294794 433.58815097945535 L 251.79168657429528 407.6445293836598 L 272.14524605828956 382.9909221213569 L 295.22216913521265 360.4873387482083 L 264.11849020544673 369.0874343048256 L 232.7281414237936 374.53416149068323 L 201.6244624940277 376.25418060200667 L 172.2408026755853 373.96082178690875 L 145.43717152412802 368.08408982322027 L 122.21691352126135 359.0539894887721 L 103.15336837075967 347.0138557095079 L 88.96321070234114 332.6803631151457 L 80.36311514572384 316.7701863354037 L 77.49641662685144 300 L 80.36311514572384 283.2298136645963 L 88.96321070234114 267.3196368848543 L 103.15336837075967 252.98614429049212 L 122.21691352126135 240.9460105112279 L 145.43717152412802 231.91591017677973 L 172.2408026755853 226.03917821309125 L 201.6244624940277 223.74581939799333 L 232.7281414237936 225.46583850931677 L 264.11849020544673 230.9125656951744 L 295.22216913521265 239.51266125179168 L 272.14524605828956 217.0090778786431 L 251.79168657429528 192.3554706163402 L 234.87816531294794 166.41184902054468 L 221.97802197802199 139.75155279503107 L 213.80793119923555 113.80793119923555 L 209.93788819875778 89.01098901098902 L 210.94123268036313 66.3640707118968 L 216.2446249402771 47.01385570950791 L 225.70473005255613 31.533683707596765 L 238.74820831342572 20.640229335881543 L 254.6583850931677 14.763497372193058 L 272.8619206880077 14.333492594362156 L 292.3554706163402 19.493549928332527 L 312.27902532250357 29.956999522216904 L 331.91591017677973 45.43717152412802 L 350.2627806975633 65.79073100812232 L 366.7462971810798 90.15766841853798 L 380.7931199235547 117.82130912565694 L 391.9732441471572 147.77830864787387 L 400 179.02532250358337 L 408.0267558528428 147.77830864787387 L 419.2068800764453 117.82130912565694 L 433.2537028189202 90.15766841853798 L 449.7372193024367 65.79073100812232 L 468.08408982322027 45.43717152412802 L 487.72097467749643 29.956999522216904 L 507.6445293836598 19.493549928332527 L 527.1380793119923 14.333492594362156 L 545.3416149068323 14.763497372193058 L 561.2517916865743 20.640229335881543 L 574.2952699474439 31.533683707596765 L 583.7553750597228 47.01385570950791 L 589.0587673196369 66.3640707118968 L 590.0621118012423 89.01098901098902 L 586.1920688007644 113.80793119923555 L 578.021978021978 139.75155279503107 L 565.1218346870521 166.41184902054468 L 548.2083134257048 192.3554706163402 L 527.8547539417104 217.0090778786431 L 504.77783086478735 239.51266125179168 L 535.8815097945533 230.9125656951744 L 567.2718585762063 225.46583850931677 L 598.3755375059723 223.74581939799333 L 627.7591973244147 226.03917821309125 L 654.562828475872 231.91591017677973 L 677.7830864787386 240.9460105112279 L 696.8466316292404 252.98614429049212 L 711.0367892976589 267.3196368848543 L 719.6368848542761 283.2298136645963 Z" fill="none" stroke="rgba(255, 255, 255, 0.5)" stroke-width="1.433349259436216" data-type="pcb_board" data-pcb-layer="board"/><path class="pcb-trace" stroke="rgb(77, 127, 196)" fill="none" d="M 418.20353559483993 386.00095556617293 L 418.20353559483993 362.3269747787276" stroke-width="2.150023889154324" stroke-linecap="round" stroke-linejoin="round" shape-rendering="crispEdges" data-type="pcb_trace" data-pcb-layer="bottom"/><path class="pcb-trace" stroke="rgb(77, 127, 196)" fill="none" d="M 418.20353559483993 362.3269747787276 L 434.40038222646916 346.1301281470984" stroke-width="2.150023889154324" stroke-linecap="round" stroke-linejoin="round" shape-rendering="crispEdges" data-type="pcb_trace" data-pcb-layer="bottom"/><path class="pcb-trace" stroke="rgb(77, 127, 196)" fill="none" d="M 434.40038222646916 346.1301281470984 L 434.40038222646916 345.8671763019589" stroke-width="2.150023889154324" stroke-linecap="round" stroke-linejoin="round" shape-rendering="crispEdges" data-type="pcb_trace" data-pcb-layer="bottom"/><path class="pcb-trace" stroke="rgb(77, 127, 196)" fill="none" d="M 434.40038222646916 345.8671763019589 L 434.40038222646916 345.8671763019589" stroke-width="2.150023889154324" stroke-linecap="round" stroke-linejoin="round" shape-rendering="crispEdges" data-type="pcb_trace" data-pcb-layer="bottom"/><path class="pcb-trace" stroke="rgb(77, 127, 196)" fill="none" d="M 445.8671763019589 357.3339703774486 L 445.8671763019589 357.3339703774486" stroke-width="2.150023889154324" stroke-linecap="round" stroke-linejoin="round" shape-rendering="crispEdges" data-type="pcb_trace" data-pcb-layer="bottom"/><path class="pcb-trace" stroke="rgb(77, 127, 196)" fill="none" d="M 445.8671763019589 357.3339703774486 L 445.8671763019589 334.4003822264692" stroke-width="2.150023889154324" stroke-linecap="round" stroke-linejoin="round" shape-rendering="crispEdges" data-type="pcb_trace" data-pcb-layer="bottom"/><path class="pcb-trace" stroke="rgb(77, 127, 196)" fill="none" d="M 445.8671763019589 334.4003822264692 L 355.68511929580654 244.2183252203168" stroke-width="2.150023889154324" stroke-linecap="round" stroke-linejoin="round" shape-rendering="crispEdges" data-type="pcb_trace" data-pcb-layer="bottom"/><path class="pcb-trace" stroke="rgb(77, 127, 196)" fill="none" d="M 355.68511929580654 244.2183252203168 L 354.1328236980411 242.66602962255138" stroke-width="2.150023889154324" stroke-linecap="round" stroke-linejoin="round" shape-rendering="crispEdges" data-type="pcb_trace" data-pcb-layer="bottom"/><path class="pcb-trace" stroke="rgb(77, 127, 196)" fill="none" d="M 354.1328236980411 242.66602962255138 L 354.1328236980411 242.66602962255138" stroke-width="2.150023889154324" stroke-linecap="round" stroke-linejoin="round" shape-rendering="crispEdges" data-type="pcb_trace" data-pcb-layer="bottom"/><path class="pcb-silkscreen pcb-silkscreen-bottom" d="M 259.96177735308174 286.66985188724317 L 270.9985666507406 313.7601528905877 L 260.3917821309126 313.7601528905877 L 255.08838987099858 298.7099856665074 L 249.78499761108458 313.7601528905877 L 239.60821786908744 313.7601528905877 L 250.6450071667463 286.66985188724317 L 259.96177735308174 286.66985188724317 Z" fill="none" stroke="#5da9e9" stroke-width="1.433349259436216" stroke-linecap="round" stroke-linejoin="round" data-pcb-component-id="null" data-pcb-silkscreen-path-id="pcb_silkscreen_path_6" data-type="pcb_silkscreen_path" data-pcb-layer="bottom"/><path class="pcb-silkscreen pcb-silkscreen-bottom" d="M 227.85475394171047 286.66985188724317 L 237.74486383182037 286.66985188724317 L 237.74486383182037 313.7601528905877 L 227.85475394171047 313.7601528905877 L 227.85475394171047 286.66985188724317 Z" fill="none" stroke="#5da9e9" stroke-width="1.433349259436216" stroke-linecap="round" stroke-linejoin="round" data-pcb-component-id="null" data-pcb-silkscreen-path-id="pcb_silkscreen_path_7" data-type="pcb_silkscreen_path" data-pcb-layer="bottom"/><path class="pcb-silkscreen pcb-silkscreen-bottom" d="M 200.33444816053512 313.7601528905877 L 200.33444816053512 307.5967510750119 L 211.94457716196845 294.55327281414236 L 200.1911132345915 294.55327281414236 L 200.1911132345915 286.66985188724317 L 225.13139034878168 286.66985188724317 L 225.13139034878168 292.97658862876256 L 213.52126134734831 305.8767319636885 L 224.41471571906354 305.8767319636885 L 224.41471571906354 313.7601528905877 L 200.33444816053512 313.7601528905877 Z" fill="none" stroke="#5da9e9" stroke-width="1.433349259436216" stroke-linecap="round" stroke-linejoin="round" data-pcb-component-id="null" data-pcb-silkscreen-path-id="pcb_silkscreen_path_8" data-type="pcb_silkscreen_path" data-pcb-layer="bottom"/><path class="pcb-silkscreen pcb-silkscreen-bottom" d="M 199.33110367892976 300.28666985188727 L 199.04443382704252 303.15336837075967 L 198.3277591973244 306.0200668896321 L 197.03774486383182 308.45676063067367 L 195.17439082656475 310.4634495938844 L 193.02436693741043 312.1834687052078 L 190.58767319636885 313.4734830387004 L 187.72097467749643 314.33349259436216 L 184.56760630673676 314.6201624462494 L 182.13091256569518 314.33349259436216 L 179.69421882465363 313.7601528905877 L 178.26086956521738 313.1868131868132 L 178.26086956521738 304.15671285236505 L 179.98088867654087 305.01672240802674 L 181.84424271380792 305.5900621118012 L 183.1342570473005 305.5900621118012 L 185.5709507883421 305.303392259914 L 187.4343048256092 304.15671285236505 L 188.72431915910178 302.43669374104155 L 189.29765886287626 300.28666985188727 L 188.72431915910178 297.9933110367893 L 187.5776397515528 296.27329192546586 L 185.5709507883421 295.12661251791684 L 183.1342570473005 294.83994266602963 L 181.84424271380792 294.83994266602963 L 179.98088867654087 295.4132823698041 L 178.26086956521738 296.41662685140943 L 178.26086956521738 287.3865265169613 L 180.69756330625896 286.38318203535596 L 183.1342570473005 285.9531772575251 L 184.71094123268037 285.9531772575251 L 187.72097467749643 286.0965121834687 L 190.58767319636885 286.95652173913044 L 193.02436693741043 288.1032011466794 L 195.17439082656475 289.8232202580029 L 196.8944099378882 291.8299092212136 L 198.1844242713808 294.26660296225515 L 199.04443382704252 297.13330148112755 L 199.33110367892976 300.28666985188727 Z" fill="none" stroke="#5da9e9" stroke-width="1.433349259436216" stroke-linecap="round" stroke-linejoin="round" data-pcb-component-id="null" data-pcb-silkscreen-path-id="pcb_silkscreen_path_9" data-type="pcb_silkscreen_path" data-pcb-layer="bottom"/><path class="pcb-silkscreen pcb-silkscreen-bottom" d="M 161.20401337792643 314.6201624462494 L 158.19397993311037 314.33349259436216 L 155.32728141423794 313.4734830387004 L 152.74725274725276 312.1834687052078 L 150.4538939321548 310.4634495938844 L 148.59053989488774 308.31342570473004 L 147.30052556139515 305.8767319636885 L 146.4405160057334 303.15336837075967 L 146.15384615384616 300.28666985188727 L 146.4405160057334 297.2766364070712 L 147.30052556139515 294.55327281414236 L 148.59053989488774 292.1165790731008 L 150.4538939321548 289.96655518394647 L 152.74725274725276 288.24653607262303 L 155.32728141423794 286.95652173913044 L 158.19397993311037 286.0965121834687 L 161.20401337792643 285.9531772575251 L 164.3573817486861 286.0965121834687 L 167.22408026755855 286.95652173913044 L 169.80410893454373 288.24653607262303 L 172.09746774964165 289.96655518394647 L 173.96082178690875 292.1165790731008 L 175.25083612040135 294.55327281414236 L 176.1108456760631 297.2766364070712 L 176.39751552795033 300.28666985188727 L 176.1108456760631 303.15336837075967 L 175.25083612040135 305.8767319636885 L 173.96082178690875 308.31342570473004 L 172.09746774964165 310.4634495938844 L 169.80410893454373 312.1834687052078 L 167.22408026755855 313.4734830387004 L 164.3573817486861 314.33349259436216 L 161.20401337792643 314.6201624462494 Z" fill="none" stroke="#5da9e9" stroke-width="1.433349259436216" stroke-linecap="round" stroke-linejoin="round" data-pcb-component-id="null" data-pcb-silkscreen-path-id="pcb_silkscreen_path_10" data-type="pcb_silkscreen_path" data-pcb-layer="bottom"/><path class="pcb-silkscreen pcb-silkscreen-bottom" d="M 161.20401337792643 305.5900621118012 L 163.35403726708074 305.16005733397037 L 165.0740563784042 304.0133779264214 L 166.2207357859532 302.2933588150979 L 166.65074056378404 300.28666985188727 L 166.2207357859532 298.1366459627329 L 165.0740563784042 296.41662685140943 L 163.35403726708074 295.2699474438605 L 161.20401337792643 294.83994266602963 L 159.19732441471572 295.2699474438605 L 157.47730530339226 296.41662685140943 L 156.3306258958433 298.1366459627329 L 155.90062111801242 300.28666985188727 L 156.3306258958433 302.2933588150979 L 157.47730530339226 304.0133779264214 L 159.19732441471572 305.16005733397037 L 161.20401337792643 305.5900621118012 Z" fill="none" stroke="#5da9e9" stroke-width="1.433349259436216" stroke-linecap="round" stroke-linejoin="round" data-pcb-component-id="null" data-pcb-silkscreen-path-id="pcb_silkscreen_path_11" data-type="pcb_silkscreen_path" data-pcb-layer="bottom"/><path class="pcb-silkscreen pcb-silkscreen-bottom" d="M 134.40038222646916 301.2900143334926 L 134.40038222646916 286.5265169612996 L 144.43382704252272 286.5265169612996 L 144.43382704252272 313.7601528905877 L 134.40038222646916 313.7601528905877 L 134.40038222646916 310.606784519828 L 132.25035833731488 312.7568084089823 L 129.38365981844242 314.1901576684185 L 126.94696607740087 314.4768275203058 L 124.36693741041569 314.1901576684185 L 121.3569039655996 312.7568084089823 L 119.20688007644532 310.1767797419971 L 116.62685140946013 312.90014333492593 L 113.1868131868132 314.33349259436216 L 110.75011944577165 314.4768275203058 L 106.5934065934066 313.7601528905877 L 103.58337314859057 311.61012900143334 L 101.86335403726707 308.45676063067367 L 101.14667940754896 304.0133779264214 L 101.14667940754896 286.5265169612996 L 111.18012422360249 286.5265169612996 L 111.18012422360249 301.4333492594362 L 111.75346392737697 303.72670807453414 L 113.04347826086956 305.16005733397037 L 114.47682752030579 305.44672718585764 L 115.76684185379838 305.16005733397037 L 117.20019111323461 303.72670807453414 L 117.77353081700909 301.2900143334926 L 117.77353081700909 286.5265169612996 L 127.80697563306256 286.5265169612996 L 127.80697563306256 301.4333492594362 L 128.23698041089347 303.72670807453414 L 129.6703296703297 305.16005733397037 L 130.96034400382229 305.44672718585764 L 132.39369326325846 305.16005733397037 L 133.82704252269468 303.72670807453414 L 134.40038222646916 301.2900143334926 Z" fill="none" stroke="#5da9e9" stroke-width="1.433349259436216" stroke-linecap="round" stroke-linejoin="round" data-pcb-component-id="null" data-pcb-silkscreen-path-id="pcb_silkscreen_path_12" data-type="pcb_silkscreen_path" data-pcb-layer="bottom"/><rect class="pcb-pad" fill="rgb(200, 52, 52)" x="274.5819397993311" y="221.16579073100814" width="43.00047778308648" height="43.00047778308648" data-type="pcb_smtpad" data-pcb-layer="top"/><rect class="pcb-pad" fill="rgb(200, 52, 52)" x="482.4175824175824" y="221.16579073100814" width="43.00047778308648" height="43.00047778308648" data-type="pcb_smtpad" data-pcb-layer="top"/><rect class="pcb-pad" fill="rgb(200, 52, 52)" x="385.66650740563784" y="301.4333492594362" width="28.66698518872432" height="28.66698518872432" data-type="pcb_smtpad" data-pcb-layer="top"/><rect class="pcb-pad" fill="rgb(200, 52, 52)" x="385.66650740563784" y="155.2317247969422" width="28.66698518872432" height="28.66698518872432" data-type="pcb_smtpad" data-pcb-layer="top"/><rect class="pcb-pad" fill="rgb(200, 52, 52)" x="452.3172479694219" y="346.583850931677" width="10.03344481605351" height="21.50023889154324" data-type="pcb_smtpad" data-pcb-layer="top"/><rect class="pcb-pad" fill="rgb(200, 52, 52)" x="466.65074056378404" y="346.583850931677" width="10.03344481605351" height="21.50023889154324" data-type="pcb_smtpad" data-pcb-layer="top"/><rect class="pcb-pad" fill="rgb(200, 52, 52)" x="480.9842331581462" y="346.583850931677" width="10.03344481605351" height="21.50023889154324" data-type="pcb_smtpad" data-pcb-layer="top"/><rect class="pcb-pad" fill="rgb(200, 52, 52)" x="414.33349259436216" y="344.4338270425227" width="14.33349259436216" height="25.800286669851886" data-type="pcb_smtpad" data-pcb-layer="top"/><rect class="pcb-pad" fill="rgb(200, 52, 52)" x="514.6679407548972" y="344.4338270425227" width="14.33349259436216" height="25.800286669851886" data-type="pcb_smtpad" data-pcb-layer="top"/><rect class="pcb-pad" fill="rgb(200, 52, 52)" x="425.44194935499286" y="379.1925465838509" width="11.466794075489728" height="13.616817964644051" data-type="pcb_smtpad" data-pcb-layer="top"/><rect class="pcb-pad" fill="rgb(200, 52, 52)" x="449.09221213569043" y="379.1925465838509" width="11.466794075489728" height="13.616817964644051" data-type="pcb_smtpad" data-pcb-layer="top"/><path class="pcb-trace" stroke="rgb(200, 52, 52)" fill="none" d="M 381.79646440516007 386.00095556617293 L 388.5332059245103 386.00095556617293" stroke-width="2.150023889154324" stroke-linecap="round" stroke-linejoin="round" shape-rendering="crispEdges" data-type="pcb_trace" data-pcb-layer="top"/><path class="pcb-trace" stroke="rgb(200, 52, 52)" fill="none" d="M 388.5332059245103 386.00095556617293 L 401.69413272159386 399.1618823632565" stroke-width="2.150023889154324" stroke-linecap="round" stroke-linejoin="round" shape-rendering="crispEdges" data-type="pcb_trace" data-pcb-layer="top"/><path class="pcb-trace" stroke="rgb(200, 52, 52)" fill="none" d="M 401.69413272159386 399.1618823632565 L 405.01672240802674 400.3344481605351" stroke-width="2.150023889154324" stroke-linecap="round" stroke-linejoin="round" shape-rendering="crispEdges" data-type="pcb_trace" data-pcb-layer="top"/><path class="pcb-trace" stroke="rgb(200, 52, 52)" fill="none" d="M 405.01672240802674 400.3344481605351 L 408.6000955566173 400.3344481605351" stroke-width="2.150023889154324" stroke-linecap="round" stroke-linejoin="round" shape-rendering="crispEdges" data-type="pcb_trace" data-pcb-layer="top"/><path class="pcb-trace" stroke="rgb(200, 52, 52)" fill="none" d="M 408.6000955566173 400.3344481605351 L 411.4667940754897 400.3344481605351" stroke-width="2.150023889154324" stroke-linecap="round" stroke-linejoin="round" shape-rendering="crispEdges" data-type="pcb_trace" data-pcb-layer="top"/><path class="pcb-trace" stroke="rgb(200, 52, 52)" fill="none" d="M 411.4667940754897 400.3344481605351 L 415.05016722408027 400.3344481605351" stroke-width="2.150023889154324" stroke-linecap="round" stroke-linejoin="round" shape-rendering="crispEdges" data-type="pcb_trace" data-pcb-layer="top"/><path class="pcb-trace" stroke="rgb(200, 52, 52)" fill="none" d="M 415.05016722408027 400.3344481605351 L 418.63354037267084 400.3344481605351" stroke-width="2.150023889154324" stroke-linecap="round" stroke-linejoin="round" shape-rendering="crispEdges" data-type="pcb_trace" data-pcb-layer="top"/><path class="pcb-trace" stroke="rgb(200, 52, 52)" fill="none" d="M 418.63354037267084 400.3344481605351 L 422.21691352126135 400.3344481605351" stroke-width="2.150023889154324" stroke-linecap="round" stroke-linejoin="round" shape-rendering="crispEdges" data-type="pcb_trace" data-pcb-layer="top"/><path class="pcb-trace" stroke="rgb(200, 52, 52)" fill="none" d="M 422.21691352126135 400.3344481605351 L 425.0836120401338 400.3344481605351" stroke-width="2.150023889154324" stroke-linecap="round" stroke-linejoin="round" shape-rendering="crispEdges" data-type="pcb_trace" data-pcb-layer="top"/><path class="pcb-trace" stroke="rgb(200, 52, 52)" fill="none" d="M 425.0836120401338 400.3344481605351 L 428.6669851887243 400.3344481605351" stroke-width="2.150023889154324" stroke-linecap="round" stroke-linejoin="round" shape-rendering="crispEdges" data-type="pcb_trace" data-pcb-layer="top"/><path class="pcb-trace" stroke="rgb(200, 52, 52)" fill="none" d="M 428.6669851887243 400.3344481605351 L 432.2503583373149 400.3344481605351" stroke-width="2.150023889154324" stroke-linecap="round" stroke-linejoin="round" shape-rendering="crispEdges" data-type="pcb_trace" data-pcb-layer="top"/><path class="pcb-trace" stroke="rgb(200, 52, 52)" fill="none" d="M 432.2503583373149 400.3344481605351 L 435.1170568561873 400.3344481605351" stroke-width="2.150023889154324" stroke-linecap="round" stroke-linejoin="round" shape-rendering="crispEdges" data-type="pcb_trace" data-pcb-layer="top"/><path class="pcb-trace" stroke="rgb(200, 52, 52)" fill="none" d="M 435.1170568561873 400.3344481605351 L 435.1545884725893 400.3344481605351" stroke-width="2.150023889154324" stroke-linecap="round" stroke-linejoin="round" shape-rendering="crispEdges" data-type="pcb_trace" data-pcb-layer="top"/><path class="pcb-trace" stroke="rgb(200, 52, 52)" fill="none" d="M 435.1545884725893 400.3344481605351 L 440.4921165790731 400.3344481605351" stroke-width="2.150023889154324" stroke-linecap="round" stroke-linejoin="round" shape-rendering="crispEdges" data-type="pcb_trace" data-pcb-layer="top"/><path class="pcb-trace" stroke="rgb(200, 52, 52)" fill="none" d="M 440.4921165790731 400.3344481605351 L 454.8256091734353 386.00095556617293" stroke-width="2.150023889154324" stroke-linecap="round" stroke-linejoin="round" shape-rendering="crispEdges" data-type="pcb_trace" data-pcb-layer="top"/><path class="pcb-trace" stroke="rgb(200, 52, 52)" fill="none" d="M 431.1753463927377 386.00095556617293 L 434.00621118012424 379.1925465838509" stroke-width="2.150023889154324" stroke-linecap="round" stroke-linejoin="round" shape-rendering="crispEdges" data-type="pcb_trace" data-pcb-layer="top"/><path class="pcb-trace" stroke="rgb(200, 52, 52)" fill="none" d="M 434.00621118012424 379.1925465838509 L 433.92684037031285 379.3834384049163" stroke-width="2.150023889154324" stroke-linecap="round" stroke-linejoin="round" shape-rendering="crispEdges" data-type="pcb_trace" data-pcb-layer="top"/><path class="pcb-trace" stroke="rgb(200, 52, 52)" fill="none" d="M 433.92684037031285 379.3834384049163 L 441.28295969313507 372.02731908209404" stroke-width="2.150023889154324" stroke-linecap="round" stroke-linejoin="round" shape-rendering="crispEdges" data-type="pcb_trace" data-pcb-layer="top"/><path class="pcb-trace" stroke="rgb(200, 52, 52)" fill="none" d="M 441.28295969313507 372.02731908209404 L 462.7030037544428 372.02731908209404" stroke-width="2.150023889154324" stroke-linecap="round" stroke-linejoin="round" shape-rendering="crispEdges" data-type="pcb_trace" data-pcb-layer="top"/><path class="pcb-trace" stroke="rgb(200, 52, 52)" fill="none" d="M 462.7030037544428 372.02731908209404 L 471.6674629718108 363.0628598647261" stroke-width="2.150023889154324" stroke-linecap="round" stroke-linejoin="round" shape-rendering="crispEdges" data-type="pcb_trace" data-pcb-layer="top"/><path class="pcb-trace" stroke="rgb(200, 52, 52)" fill="none" d="M 471.6674629718108 363.0628598647261 L 471.6674629718108 357.3339703774486" stroke-width="2.150023889154324" stroke-linecap="round" stroke-linejoin="round" shape-rendering="crispEdges" data-type="pcb_trace" data-pcb-layer="top"/><path class="pcb-trace" stroke="rgb(200, 52, 52)" fill="none" d="M 434.40038222646916 345.8671763019589 L 434.40038222646916 345.8671763019589" stroke-width="2.150023889154324" stroke-linecap="round" stroke-linejoin="round" shape-rendering="crispEdges" data-type="pcb_trace" data-pcb-layer="top"/><path class="pcb-trace" stroke="rgb(200, 52, 52)" fill="none" d="M 434.40038222646916 345.8671763019589 L 434.40038222646916 312.1834687052078" stroke-width="2.150023889154324" stroke-linecap="round" stroke-linejoin="round" shape-rendering="crispEdges" data-type="pcb_trace" data-pcb-layer="top"/><path class="pcb-trace" stroke="rgb(200, 52, 52)" fill="none" d="M 434.40038222646916 312.1834687052078 L 503.91782130912566 242.66602962255138" stroke-width="2.150023889154324" stroke-linecap="round" stroke-linejoin="round" shape-rendering="crispEdges" data-type="pcb_trace" data-pcb-layer="top"/><path class="pcb-trace" stroke="rgb(200, 52, 52)" fill="none" d="M 457.3339703774486 357.3339703774486 L 447.30085046507725 357.3339703774486" stroke-width="2.150023889154324" stroke-linecap="round" stroke-linejoin="round" shape-rendering="crispEdges" data-type="pcb_trace" data-pcb-layer="top"/><path class="pcb-trace" stroke="rgb(200, 52, 52)" fill="none" d="M 447.30085046507725 357.3339703774486 L 446.8994216994041 357.73539914312175" stroke-width="2.150023889154324" stroke-linecap="round" stroke-linejoin="round" shape-rendering="crispEdges" data-type="pcb_trace" data-pcb-layer="top"/><path class="pcb-trace" stroke="rgb(200, 52, 52)" fill="none" d="M 446.8994216994041 357.73539914312175 L 445.8671763019589 357.3339703774486" stroke-width="2.150023889154324" stroke-linecap="round" stroke-linejoin="round" shape-rendering="crispEdges" data-type="pcb_trace" data-pcb-layer="top"/><path class="pcb-trace" stroke="rgb(200, 52, 52)" fill="none" d="M 445.8671763019589 357.3339703774486 L 445.8671763019589 357.3339703774486" stroke-width="2.150023889154324" stroke-linecap="round" stroke-linejoin="round" shape-rendering="crispEdges" data-type="pcb_trace" data-pcb-layer="top"/><path class="pcb-trace" stroke="rgb(200, 52, 52)" fill="none" d="M 354.1328236980411 242.66602962255138 L 354.1328236980411 242.66602962255138" stroke-width="2.150023889154324" stroke-linecap="round" stroke-linejoin="round" shape-rendering="crispEdges" data-type="pcb_trace" data-pcb-layer="top"/><path class="pcb-trace" stroke="rgb(200, 52, 52)" fill="none" d="M 354.1328236980411 242.66602962255138 L 296.08217869087434 242.66602962255138" stroke-width="2.150023889154324" stroke-linecap="round" stroke-linejoin="round" shape-rendering="crispEdges" data-type="pcb_trace" data-pcb-layer="top"/><path class="pcb-trace" stroke="rgb(200, 52, 52)" fill="none" d="M 296.08217869087434 242.66602962255138 L 296.08217869087434 242.66602962255138" stroke-width="2.150023889154324" stroke-linecap="round" stroke-linejoin="round" shape-rendering="crispEdges" data-type="pcb_trace" data-pcb-layer="top"/><path class="pcb-silkscreen pcb-silkscreen-top" d="M 296.08217869087434 271.3330148112757 L 296.08217869087434 213.99904443382704" fill="none" stroke="#f2eda1" stroke-width="1.433349259436216" stroke-linecap="round" stroke-linejoin="round" data-pcb-component-id="pcb_component_0" data-pcb-silkscreen-path-id="pcb_silkscreen_path_0" data-type="pcb_silkscreen_path" data-pcb-layer="top"/><path class="pcb-silkscreen pcb-silkscreen-top" d="M 287.48208313425704 242.66602962255138 L 304.68227424749165 242.66602962255138" fill="none" stroke="#f2eda1" stroke-width="1.433349259436216" stroke-linecap="round" stroke-linejoin="round" data-pcb-component-id="pcb_component_0" data-pcb-silkscreen-path-id="pcb_silkscreen_path_1" data-type="pcb_silkscreen_path" data-pcb-layer="top"/><text x="0" y="0" dx="0" dy="0" fill="#f2eda1" font-family="Arial, sans-serif" font-size="14.33349259436216" text-anchor="middle" dominant-baseline="central" transform="matrix(1,0,0,1,296.08217869087434,285.66650740563784)" class="pcb-silkscreen-text pcb-silkscreen-top" data-pcb-silkscreen-text-id="pcb_component_0" stroke="none" data-type="pcb_silkscreen_text" data-pcb-layer="top">+</text><text x="0" y="0" dx="0" dy="0" fill="#f2eda1" font-family="Arial, sans-serif" font-size="14.33349259436216" text-anchor="middle" dominant-baseline="central" transform="matrix(1,0,0,1,503.91782130912566,285.66650740563784)" class="pcb-silkscreen-text pcb-silkscreen-top" data-pcb-silkscreen-text-id="pcb_component_0" stroke="none" data-type="pcb_silkscreen_text" data-pcb-layer="top">-</text><path class="pcb-silkscreen pcb-silkscreen-top" d="M 443.00047778308647 371.6674629718108 L 500.3344481605351 371.6674629718108 L 500.3344481605351 343.00047778308647 L 443.00047778308647 343.00047778308647 L 443.00047778308647 371.6674629718108 Z" fill="none" stroke="#f2eda1" stroke-width="1.433349259436216" stroke-linecap="round" stroke-linejoin="round" data-pcb-component-id="pcb_component_1" data-pcb-silkscreen-path-id="pcb_silkscreen_path_2" data-type="pcb_silkscreen_path" data-pcb-layer="top"/><path class="pcb-silkscreen pcb-silkscreen-top" d="M 454.8256091734353 373.45914954610606 L 422.5752508361204 373.45914954610606 L 422.5752508361204 398.54276158623986 L 454.8256091734353 398.54276158623986" fill="none" stroke="#f2eda1" stroke-width="1.433349259436216" stroke-linecap="round" stroke-linejoin="round" data-pcb-component-id="pcb_component_2" data-pcb-silkscreen-path-id="pcb_silkscreen_path_3" data-type="pcb_silkscreen_path" data-pcb-layer="top"/><text x="0" y="0" dx="0" dy="0" fill="#f2eda1" font-family="Arial, sans-serif" font-size="5.733397037744864" text-anchor="middle" dominant-baseline="central" transform="matrix(1,0,0,1,443.00047778308647,405.70950788342094)" class="pcb-silkscreen-text pcb-silkscreen-top" data-pcb-silkscreen-text-id="pcb_component_2" stroke="none" data-type="pcb_silkscreen_text" data-pcb-layer="top">R1</text><path class="pcb-silkscreen pcb-silkscreen-top" d="M 364.1662685140946 407.5011944577162 L 435.8337314859054 407.5011944577162 L 435.8337314859054 364.5007166746297 L 364.1662685140946 364.5007166746297 L 364.1662685140946 407.5011944577162 Z" fill="none" stroke="#f2eda1" stroke-width="1.433349259436216" stroke-linecap="round" stroke-linejoin="round" data-pcb-component-id="pcb_component_3" data-pcb-silkscreen-path-id="pcb_silkscreen_path_4" data-type="pcb_silkscreen_path" data-pcb-layer="top"/><path class="pcb-silkscreen pcb-silkscreen-top" d="M 418.20353559483993 407.5011944577162 L 418.20353559483993 364.5007166746297" fill="none" stroke="#f2eda1" stroke-width="1.433349259436216" stroke-linecap="round" stroke-linejoin="round" data-pcb-component-id="pcb_component_3" data-pcb-silkscreen-path-id="pcb_silkscreen_path_5" data-type="pcb_silkscreen_path" data-pcb-layer="top"/><text x="0" y="0" dx="0" dy="0" fill="#f2eda1" font-family="Arial, sans-serif" font-size="11.466794075489728" text-anchor="middle" dominant-baseline="central" transform="matrix(1,0,0,1,381.79646440516007,417.5346392737697)" class="pcb-silkscreen-text pcb-silkscreen-top" data-pcb-silkscreen-text-id="pcb_component_3" stroke="none" data-type="pcb_silkscreen_text" data-pcb-layer="top">+</text><text x="0" y="0" dx="0" dy="0" fill="#f2eda1" font-family="Arial, sans-serif" font-size="11.466794075489728" text-anchor="middle" dominant-baseline="central" transform="matrix(1,0,0,1,400,354.4672718585762)" class="pcb-silkscreen-text pcb-silkscreen-top" data-pcb-silkscreen-text-id="pcb_component_3" stroke="none" data-type="pcb_silkscreen_text" data-pcb-layer="top">LED</text><g data-type="pcb_plated_hole" data-pcb-layer="through"><circle class="pcb-hole-outer" fill="rgb(200, 52, 52)" cx="381.79646440516007" cy="386.00095556617293" r="12.900143334925943" data-type="pcb_plated_hole" data-pcb-layer="top"/><circle class="pcb-hole-inner" fill="#FF26E2" cx="381.79646440516007" cy="386.00095556617293" r="7.16674629718108" data-type="pcb_plated_hole_drill" data-pcb-layer="drill"/></g><g data-type="pcb_plated_hole" data-pcb-layer="through"><circle class="pcb-hole-outer" fill="rgb(200, 52, 52)" cx="418.20353559483993" cy="386.00095556617293" r="12.900143334925943" data-type="pcb_plated_hole" data-pcb-layer="top"/><circle class="pcb-hole-inner" fill="#FF26E2" cx="418.20353559483993" cy="386.00095556617293" r="7.16674629718108" data-type="pcb_plated_hole_drill" data-pcb-layer="drill"/></g><g data-type="pcb_via" data-pcb-layer="through"><circle class="pcb-hole-outer" fill="rgb(200, 52, 52)" cx="434.40038222646916" cy="345.8671763019589" r="2.150023889154324" data-type="pcb_via" data-pcb-layer="top"/><circle class="pcb-hole-inner" fill="#FF26E2" cx="434.40038222646916" cy="345.8671763019589" r="1.433349259436216" data-type="pcb_via" data-pcb-layer="drill"/></g><g data-type="pcb_via" data-pcb-layer="through"><circle class="pcb-hole-outer" fill="rgb(200, 52, 52)" cx="445.8671763019589" cy="357.3339703774486" r="2.150023889154324" data-type="pcb_via" data-pcb-layer="top"/><circle class="pcb-hole-inner" fill="#FF26E2" cx="445.8671763019589" cy="357.3339703774486" r="1.433349259436216" data-type="pcb_via" data-pcb-layer="drill"/></g><g data-type="pcb_via" data-pcb-layer="through"><circle class="pcb-hole-outer" fill="rgb(200, 52, 52)" cx="354.1328236980411" cy="242.66602962255138" r="2.150023889154324" data-type="pcb_via" data-pcb-layer="top"/><circle class="pcb-hole-inner" fill="#FF26E2" cx="354.1328236980411" cy="242.66602962255138" r="1.433349259436216" data-type="pcb_via" data-pcb-layer="drill"/></g><circle class="pcb-hole" cx="543.3349259436216" cy="56.3306258958433" r="17.916865742952698" fill="#FF26E2" data-type="pcb_hole" data-pcb-layer="drill"/></svg>