<svg xmlns="http://www.w3.org/2000/svg" width="800" height="600" data-software-used-string="@tscircuit/core@0.0.1112"><style></style><rect class="boundary" x="0" y="0" fill="#000" width="800" height="600" data-type="pcb_background" data-pcb-layer="global"/><rect class="pcb-boundary" fill="none" stroke="#fff" stroke-width="0.3" x="77.49641662685144" y="14.333492594362156" width="645.0071667462971" height="571.3330148112757" data-type="pcb_boundary" data-pcb-layer="global"/><path class="pcb-board" d="M 722.5035833731486 300 L 719.6368848542761 316.7701863354037 L 711.0367892976589 332.6803631151457 L 696.8466316292404 347.0138557095079 L 677.7830864787386 359.0539894887721 L 654.562828475872 368.08408982322027 L 627.7591973244147 373.96082178690875 L 598.3755375059723 376.25418060200667 L 567.2718585762063 374.53416149068323 L 535.8815097945533 369.0874343048256 L 504.77783086478735 360.4873387482083 L 527.8547539417104 382.9909221213569 L 548.2083134257048 407.6445293836598 L 565.1218346870521 433.58815097945535 L 578.021978021978 460.2484472049689 L 586.1920688007644 486.19206880076445 L 590.0621118012423 510.989010989011 L 589.0587673196369 533.6359292881032 L 583.7553750597228 552.9861442904921 L 574.2952699474439 568.4663162924032 L 561.2517916865743 579.3597706641185 L 545.3416149068323 585.2365026278069 L 527.1380793119923 585.6665074056378 L 507.6445293836598 580.5064500716675 L 487.72097467749643 570.0430004777832 L 468.08408982322027 554.562828475872 L 449.7372193024367 534.2092689918777 L 433.2537028189202 509.842331581462 L 419.2068800764453 482.17869087434303 L 408.0267558528428 452.22169135212613 L 400 420.97467749641663 L 391.9732441471572 452.22169135212613 L 380.7931199235547 482.17869087434303 L 366.7462971810798 509.842331581462 L 350.2627806975633 534.2092689918777 L 331.91591017677973 554.562828475872 L 312.27902532250357 570.0430004777832 L 292.3554706163402 580.5064500716675 L 272.8619206880077 585.6665074056378 L 254.6583850931677 585.2365026278069 L 238.74820831342572 579.3597706641185 L 225.70473005255613 568.4663162924032 L 216.2446249402771 552.9861442904921 L 210.94123268036313 533.6359292881032 L 209.93788819875778 510.989010989011 L 213.80793119923555 486.19206880076445 L 221.97802197802199 460.2484472049689 L 234.87816531294794 433.58815097945535 L 251.79168657429528 407.6445293836598 L 272.14524605828956 382.9909221213569 L 295.22216913521265 360.4873387482083 L 264.11849020544673 369.0874343048256 L 232.7281414237936 374.53416149068323 L 201.6244624940277 376.25418060200667 L 172.2408026755853 373.96082178690875 L 145.43717152412802 368.08408982322027 L 122.21691352126135 359.0539894887721 L 103.15336837075967 347.0138557095079 L 88.96321070234114 332.6803631151457 L 80.36311514572384 316.7701863354037 L 77.49641662685144 300 L 80.36311514572384 283.2298136645963 L 88.96321070234114 267.3196368848543 L 103.15336837075967 252.98614429049212 L 122.21691352126135 240.9460105112279 L 145.43717152412802 231.91591017677973 L 172.2408026755853 226.03917821309125 L 201.6244624940277 223.74581939799333 L 232.7281414237936 225.46583850931677 L 264.11849020544673 230.9125656951744 L 295.22216913521265 239.51266125179168 L 272.14524605828956 217.0090778786431 L 251.79168657429528 192.3554706163402 L 234.87816531294794 166.41184902054468 L 221.97802197802199 139.75155279503107 L 213.80793119923555 113.80793119923555 L 209.93788819875778 89.01098901098902 L 210.94123268036313 66.3640707118968 L 216.2446249402771 47.01385570950791 L 225.70473005255613 31.533683707596765 L 238.74820831342572 20.640229335881543 L 254.6583850931677 14.763497372193058 L 272.8619206880077 14.333492594362156 L 292.3554706163402 19.493549928332527 L 312.27902532250357 29.956999522216904 L 331.91591017677973 45.43717152412802 L 350.2627806975633 65.79073100812232 L 366.7462971810798 90.15766841853798 L 380.7931199235547 117.82130912565694 L 391.9732441471572 147.77830864787387 L 400 179.02532250358337 L 408.0267558528428 147.77830864787387 L 419.2068800764453 117.82130912565694 L 433.2537028189202 90.15766841853798 L 449.7372193024367 65.79073100812232 L 468.08408982322027 45.43717152412802 L 487.72097467749643 29.956999522216904 L 507.6445293836598 19.493549928332527 L 527.1380793119923 14.333492594362156 L 545.3416149068323 14.763497372193058 L 561.2517916865743 20.640229335881543 L 574.2952699474439 31.533683707596765 L 583.7553750597228 47.01385570950791 L 589.0587673196369 66.3640707118968 L 590.0621118012423 89.01098901098902 L 586.1920688007644 113.80793119923555 L 578.021978021978 139.75155279503107 L 565.1218346870521 166.41184902054468 L 548.2083134257048 192.3554706163402 L 527.8547539417104 217.0090778786431 L 504.77783086478735 239.51266125179168 L 535.8815097945533 230.9125656951744 L 567.2718585762063 225.46583850931677 L 598.3755375059723 223.74581939799333 L 627.7591973244147 226.03917821309125 L 654.562828475872 231.91591017677973 L 677.7830864787386 240.9460105112279 L 696.8466316292404 252.98614429049212 L 711.0367892976589 267.3196368848543 L 719.6368848542761 283.2298136645963 Z" fill="none" stroke="rgba(255, 255, 255, 0.5)" stroke-width="1.433349259436216" data-type="pcb_board" data-pcb-layer="board"/><path class="pcb-silkscreen pcb-silkscreen-bottom" d="M 259.96177735308174 286.66985188724317 L 270.9985666507406 313.7601528905877 L 260.3917821309126 313.7601528905877 L 255.08838987099858 298.7099856665074 L 249.78499761108458 313.7601528905877 L 239.60821786908744 313.7601528905877 L 250.6450071667463 286.66985188724317 L 259.96177735308174 286.66985188724317 Z" fill="none" stroke="#5da9e9" stroke-width="1.433349259436216" stroke-linecap="round" stroke-linejoin="round" data-pcb-component-id="null" data-pcb-silkscreen-path-id="pcb_silkscreen_path_6" data-type="pcb_silkscreen_path" data-pcb-layer="bottom"/><path class="pcb-silkscreen pcb-silkscreen-bottom" d="M 227.85475394171047 286.66985188724317 L 237.74486383182037 286.66985188724317 L 237.74486383182037 313.7601528905877 L 227.85475394171047 313.7601528905877 L 227.85475394171047 286.66985188724317 Z" fill="none" stroke="#5da9e9" stroke-width="1.433349259436216" stroke-linecap="round" stroke-linejoin="round" data-pcb-component-id="null" data-pcb-silkscreen-path-id="pcb_silkscreen_path_7" data-type="pcb_silkscreen_path" data-pcb-layer="bottom"/><path class="pcb-silkscreen pcb-silkscreen-bottom" d="M 200.33444816053512 313.7601528905877 L 200.33444816053512 307.5967510750119 L 211.94457716196845 294.55327281414236 L 200.1911132345915 294.55327281414236 L 200.1911132345915 286.66985188724317 L 225.13139034878168 286.66985188724317 L 225.13139034878168 292.97658862876256 L 213.52126134734831 305.8767319636885 L 224.41471571906354 305.8767319636885 L 224.41471571906354 313.7601528905877 L 200.33444816053512 313.7601528905877 Z" fill="none" stroke="#5da9e9" stroke-width="1.433349259436216" stroke-linecap="round" stroke-linejoin="round" data-pcb-component-id="null" data-pcb-silkscreen-path-id="pcb_silkscreen_path_8" data-type="pcb_silkscreen_path" data-pcb-layer="bottom"/><path class="pcb-silkscreen pcb-silkscreen-bottom" d="M 199.33110367892976 300.28666985188727 L 199.04443382704252 303.15336837075967 L 198.3277591973244 306.0200668896321 L 197.03774486383182 308.45676063067367 L 195.17439082656475 310.4634495938844 L 193.02436693741043 312.1834687052078 L 190.58767319636885 313.4734830387004 L 187.72097467749643 314.33349259436216 L 184.56760630673676 314.6201624462494 L 182.13091256569518 314.33349259436216 L 179.69421882465363 313.7601528905877 L 178.26086956521738 313.1868131868132 L 178.26086956521738 304.15671285236505 L 179.98088867654087 305.01672240802674 L 181.84424271380792 305.5900621118012 L 183.1342570473005 305.5900621118012 L 185.5709507883421 305.303392259914 L 187.4343048256092 304.15671285236505 L 188.72431915910178 302.43669374104155 L 189.29765886287626 300.28666985188727 L 188.72431915910178 297.9933110367893 L 187.5776397515528 296.27329192546586 L 185.5709507883421 295.12661251791684 L 183.1342570473005 294.83994266602963 L 181.84424271380792 294.83994266602963 L 179.98088867654087 295.4132823698041 L 178.26086956521738 296.41662685140943 L 178.26086956521738 287.3865265169613 L 180.69756330625896 286.38318203535596 L 183.1342570473005 285.9531772575251 L 184.71094123268037 285.9531772575251 L 187.72097467749643 286.0965121834687 L 190.58767319636885 286.95652173913044 L 193.02436693741043 288.1032011466794 L 195.17439082656475 289.8232202580029 L 196.8944099378882 291.8299092212136 L 198.1844242713808 294.26660296225515 L 199.04443382704252 297.13330148112755 L 199.33110367892976 300.28666985188727 Z" fill="none" stroke="#5da9e9" stroke-width="1.433349259436216" stroke-linecap="round" stroke-linejoin="round" data-pcb-component-id="null" data-pcb-silkscreen-path-id="pcb_silkscreen_path_9" data-type="pcb_silkscreen_path" data-pcb-layer="bottom"/><path class="pcb-silkscreen pcb-silkscreen-bottom" d="M 161.20401337792643 314.6201624462494 L 158.19397993311037 314.33349259436216 L 155.32728141423794 313.4734830387004 L 152.74725274725276 312.1834687052078 L 150.4538939321548 310.4634495938844 L 148.59053989488774 308.31342570473004 L 147.30052556139515 305.8767319636885 L 146.4405160057334 303.15336837075967 L 146.15384615384616 300.28666985188727 L 146.4405160057334 297.2766364070712 L 147.30052556139515 294.55327281414236 L 148.59053989488774 292.1165790731008 L 150.4538939321548 289.96655518394647 L 152.74725274725276 288.24653607262303 L 155.32728141423794 286.95652173913044 L 158.19397993311037 286.0965121834687 L 161.20401337792643 285.9531772575251 L 164.3573817486861 286.0965121834687 L 167.22408026755855 286.95652173913044 L 169.80410893454373 288.24653607262303 L 172.09746774964165 289.96655518394647 L 173.96082178690875 292.1165790731008 L 175.25083612040135 294.55327281414236 L 176.1108456760631 297.2766364070712 L 176.39751552795033 300.28666985188727 L 176.1108456760631 303.15336837075967 L 175.25083612040135 305.8767319636885 L 173.96082178690875 308.31342570473004 L 172.09746774964165 310.4634495938844 L 169.80410893454373 312.1834687052078 L 167.22408026755855 313.4734830387004 L 164.3573817486861 314.33349259436216 L 161.20401337792643 314.6201624462494 Z" fill="none" stroke="#5da9e9" stroke-width="1.433349259436216" stroke-linecap="round" stroke-linejoin="round" data-pcb-component-id="null" data-pcb-silkscreen-path-id="pcb_silkscreen_path_10" data-type="pcb_silkscreen_path" data-pcb-layer="bottom"/><path class="pcb-silkscreen pcb-silkscreen-bottom" d="M 161.20401337792643 305.5900621118012 L 163.35403726708074 305.16005733397037 L 165.0740563784042 304.0133779264214 L 166.2207357859532 302.2933588150979 L 166.65074056378404 300.28666985188727 L 166.2207357859532 298.1366459627329 L 165.0740563784042 296.41662685140943 L 163.35403726708074 295.2699474438605 L 161.20401337792643 294.83994266602963 L 159.19732441471572 295.2699474438605 L 157.47730530339226 296.41662685140943 L 156.3306258958433 298.1366459627329 L 155.90062111801242 300.28666985188727 L 156.3306258958433 302.2933588150979 L 157.47730530339226 304.0133779264214 L 159.19732441471572 305.16005733397037 L 161.20401337792643 305.5900621118012 Z" fill="none" stroke="#5da9e9" stroke-width="1.433349259436216" stroke-linecap="round" stroke-linejoin="round" data-pcb-component-id="null" data-pcb-silkscreen-path-id="pcb_silkscreen_path_11" data-type="pcb_silkscreen_path" data-pcb-layer="bottom"/><path class="pcb-silkscreen pcb-silkscreen-bottom" d="M 134.40038222646916 301.2900143334926 L 134.40038222646916 286.5265169612996 L 144.43382704252272 286.5265169612996 L 144.43382704252272 313.7601528905877 L 134.40038222646916 313.7601528905877 L 134.40038222646916 310.606784519828 L 132.25035833731488 312.7568084089823 L 129.38365981844242 314.1901576684185 L 126.94696607740087 314.4768275203058 L 124.36693741041569 314.1901576684185 L 121.3569039655996 312.7568084089823 L 119.20688007644532 310.1767797419971 L 116.62685140946013 312.90014333492593 L 113.1868131868132 314.33349259436216 L 110.75011944577165 314.4768275203058 L 106.5934065934066 313.7601528905877 L 103.58337314859057 311.61012900143334 L 101.86335403726707 308.45676063067367 L 101.14667940754896 304.0133779264214 L 101.14667940754896 286.5265169612996 L 111.18012422360249 286.5265169612996 L 111.18012422360249 301.4333492594362 L 111.75346392737697 303.72670807453414 L 113.04347826086956 305.16005733397037 L 114.47682752030579 305.44672718585764 L 115.76684185379838 305.16005733397037 L 117.20019111323461 303.72670807453414 L 117.77353081700909 301.2900143334926 L 117.77353081700909 286.5265169612996 L 127.80697563306256 286.5265169612996 L 127.80697563306256 301.4333492594362 L 128.23698041089347 303.72670807453414 L 129.6703296703297 305.16005733397037 L 130.96034400382229 305.44672718585764 L 132.39369326325846 305.16005733397037 L 133.82704252269468 303.72670807453414 L 134.40038222646916 301.2900143334926 Z" fill="none" stroke="#5da9e9" stroke-width="1.433349259436216" stroke-linecap="round" stroke-linejoin="round" data-pcb-component-id="null" data-pcb-silkscreen-path-id="pcb_silkscreen_path_12" data-type="pcb_silkscreen_path" data-pcb-layer="bottom"/><path class="pcb-silkscreen pcb-silkscreen-bottom" d="M 640.0860009555662 274.9163879598662 L 615.0023889154324 274.9163879598662 L 615.0023889154324 300 L 640.0860009555662 300 L 640.0860009555662 274.9163879598662 Z" fill="none" stroke="#5da9e9" stroke-width="1.433349259436216" stroke-linecap="round" stroke-linejoin="round" data-pcb-component-id="null" data-pcb-silkscreen-path-id="pcb_silkscreen_path_13" data-type="pcb_silkscreen_path" data-pcb-layer="bottom"/><path class="pcb-silkscreen pcb-silkscreen-bottom" d="M 627.4725274725274 287.5298614429049 L 602.3889154323937 287.5298614429049 L 602.3889154323937 312.6134734830387 L 627.4725274725274 312.6134734830387 L 627.4725274725274 287.5298614429049 Z" fill="none" stroke="#5da9e9" stroke-width="1.433349259436216" stroke-linecap="round" stroke-linejoin="round" data-pcb-component-id="null" data-pcb-silkscreen-path-id="pcb_silkscreen_path_14" data-type="pcb_silkscreen_path" data-pcb-layer="bottom"/><path class="pcb-silkscreen pcb-silkscreen-bottom" d="M 615.0023889154324 300 L 589.9187768752986 300 L 589.9187768752986 325.0836120401338 L 615.0023889154324 325.0836120401338 L 615.0023889154324 300 Z" fill="none" stroke="#5da9e9" stroke-width="1.433349259436216" stroke-linecap="round" stroke-linejoin="round" data-pcb-component-id="null" data-pcb-silkscreen-path-id="pcb_silkscreen_path_15" data-type="pcb_silkscreen_path" data-pcb-layer="bottom"/><path class="pcb-silkscreen pcb-silkscreen-bottom" d="M 627.4725274725274 287.5298614429049 L 615.0023889154324 300" fill="none" stroke="#5da9e9" stroke-width="1.433349259436216" stroke-linecap="round" stroke-linejoin="round" data-pcb-component-id="null" data-pcb-silkscreen-path-id="pcb_silkscreen_path_16" data-type="pcb_silkscreen_path" data-pcb-layer="bottom"/><path class="pcb-silkscreen pcb-silkscreen-bottom" d="M 615.0023889154324 300 L 602.3889154323937 312.6134734830387" fill="none" stroke="#5da9e9" stroke-width="1.433349259436216" stroke-linecap="round" stroke-linejoin="round" data-pcb-component-id="null" data-pcb-silkscreen-path-id="pcb_silkscreen_path_17" data-type="pcb_silkscreen_path" data-pcb-layer="bottom"/><path class="pcb-silkscreen pcb-silkscreen-bottom" d="M 652.4128045867176 257.8595317725752 L 653.9894887720975 257.8595317725752 L 653.9894887720975 269.18299092212135 L 658.0028666985188 269.18299092212135 L 658.0028666985188 270.6163401815576 L 648.2560917343526 270.6163401815576 L 648.2560917343526 269.18299092212135 L 652.4128045867176 269.18299092212135 L 652.4128045867176 257.8595317725752 Z" fill="none" stroke="#5da9e9" stroke-width="1.433349259436216" stroke-linecap="round" stroke-linejoin="round" data-pcb-component-id="null" data-pcb-silkscreen-path-id="pcb_silkscreen_path_18" data-type="pcb_silkscreen_path" data-pcb-layer="bottom"/><path class="pcb-silkscreen pcb-silkscreen-bottom" d="M 643.0960344003822 257.71619684663165 L 643.6693741041568 257.71619684663165 L 644.2427138079312 257.8595317725752 L 644.8160535117056 258.00286669851886 L 645.2460582895366 258.2895365504061 L 645.819397993311 258.57620640229334 L 646.1060678451984 259.00621118012424 L 646.5360726230291 259.4362159579551 L 646.8227424749164 259.866220735786 L 646.9660774008601 260.43956043956047 L 647.1094123268036 261.01290014333495 L 647.2527472527472 261.72957477305306 L 647.2527472527472 262.4462494027712 L 647.2527472527472 263.16292403248923 L 647.1094123268036 263.7362637362637 L 646.9660774008601 264.4529383659818 L 646.8227424749164 265.02627806975636 L 646.5360726230291 265.4562828475872 L 646.1060678451984 265.88628762541805 L 645.819397993311 266.3162924032489 L 645.3893932154801 266.60296225513616 L 644.8160535117056 266.88963210702343 L 644.2427138079312 267.17630195891064 L 643.6693741041568 267.17630195891064 L 643.0960344003822 267.3196368848543 L 642.5226946966077 267.17630195891064 L 641.9493549928333 267.17630195891064 L 641.3760152890587 266.88963210702343 L 640.9460105112279 266.7462971810798 L 640.516005733397 266.3162924032489 L 640.0860009555662 266.0296225513617 L 639.7993311036789 265.59961777353084 L 639.5126612517917 265.02627806975636 L 639.3693263258481 264.4529383659818 L 639.2259913999044 263.87959866220734 L 639.0826564739608 263.30625895843286 L 639.0826564739608 262.58958432871475 L 639.0826564739608 262.01624462494027 L 646.5360726230291 262.01624462494027 L 646.5360726230291 263.30625895843286 L 639.7993311036789 263.30625895843286 L 640.6593406593406 262.7329192546584 L 640.6593406593406 263.30625895843286 L 640.8026755852843 264.1662685140946 L 641.0893454371715 264.8829431438127 L 641.5193502150024 265.31294792164357 L 642.0926899187768 265.7429526994744 L 642.809364548495 265.88628762541805 L 643.0960344003822 265.88628762541805 L 643.5260391782131 265.88628762541805 L 644.0993788819876 265.7429526994744 L 644.5293836598184 265.59961777353084 L 644.9593884376493 265.02627806975636 L 645.3893932154801 264.4529383659818 L 645.6760630673674 263.7362637362637 L 645.6760630673674 262.7329192546584 L 645.6760630673674 261.72957477305306 L 645.5327281414238 260.8695652173913 L 645.2460582895366 260.1528905876732 L 644.9593884376493 259.866220735786 L 644.3860487338748 259.4362159579551 L 643.8127090301003 259.1495461060679 L 642.9526994744385 259.00621118012424 L 642.3793597706641 259.00621118012424 L 641.9493549928333 259.1495461060679 L 641.5193502150024 259.4362159579551 L 641.2326803631152 259.72288580984235 L 640.9460105112279 260.00955566172956 L 640.6593406593406 260.43956043956047 L 639.2259913999044 260.43956043956047 L 639.3693263258481 259.866220735786 L 639.6559961777352 259.29288103201145 L 639.9426660296225 258.8628762541806 L 640.516005733397 258.43287147634976 L 640.9460105112279 258.1462016244625 L 641.662685140946 257.8595317725752 L 642.2360248447205 257.71619684663165 L 643.0960344003822 257.71619684663165 Z" fill="none" stroke="#5da9e9" stroke-width="1.433349259436216" stroke-linecap="round" stroke-linejoin="round" data-pcb-component-id="null" data-pcb-silkscreen-path-id="pcb_silkscreen_path_19" data-type="pcb_silkscreen_path" data-pcb-layer="bottom"/><path class="pcb-silkscreen pcb-silkscreen-bottom" d="M 635.9292881032011 257.8595317725752 L 637.3626373626373 257.8595317725752 L 637.3626373626373 270.6163401815576 L 635.9292881032011 270.6163401815576 L 635.9292881032011 257.8595317725752 Z" fill="none" stroke="#5da9e9" stroke-width="1.433349259436216" stroke-linecap="round" stroke-linejoin="round" data-pcb-component-id="null" data-pcb-silkscreen-path-id="pcb_silkscreen_path_20" data-type="pcb_silkscreen_path" data-pcb-layer="bottom"/><path class="pcb-silkscreen pcb-silkscreen-bottom" d="M 629.909221213569 257.71619684663165 L 630.6258958432871 257.71619684663165 L 631.1992355470616 257.8595317725752 L 631.7725752508361 258.00286669851886 L 632.202580028667 258.2895365504061 L 632.6325848064978 258.57620640229334 L 633.0625895843287 259.00621118012424 L 633.4925943621596 259.4362159579551 L 633.7792642140469 259.866220735786 L 633.9225991399904 260.43956043956047 L 634.065934065934 261.01290014333495 L 634.2092689918777 261.72957477305306 L 634.2092689918777 262.4462494027712 L 634.2092689918777 263.16292403248923 L 634.065934065934 263.7362637362637 L 633.9225991399904 264.4529383659818 L 633.7792642140469 265.02627806975636 L 633.4925943621596 265.4562828475872 L 633.0625895843287 265.88628762541805 L 632.7759197324415 266.3162924032489 L 632.202580028667 266.60296225513616 L 631.7725752508361 266.88963210702343 L 631.1992355470616 267.17630195891064 L 630.6258958432871 267.17630195891064 L 630.0525561395127 267.3196368848543 L 629.4792164357382 267.17630195891064 L 628.9058767319636 267.17630195891064 L 628.3325370281892 266.88963210702343 L 627.9025322503584 266.7462971810798 L 627.4725274725274 266.3162924032489 L 627.0425226946966 266.0296225513617 L 626.7558528428094 265.59961777353084 L 626.4691829909221 265.02627806975636 L 626.3258480649785 264.4529383659818 L 626.1825131390349 263.87959866220734 L 626.0391782130912 263.30625895843286 L 626.0391782130912 262.58958432871475 L 626.0391782130912 262.01624462494027 L 633.4925943621596 262.01624462494027 L 633.4925943621596 263.30625895843286 L 626.7558528428094 263.30625895843286 L 627.4725274725274 262.7329192546584 L 627.6158623984711 263.30625895843286 L 627.7591973244147 264.1662685140946 L 628.045867176302 264.8829431438127 L 628.4758719541328 265.31294792164357 L 629.0492116579073 265.7429526994744 L 629.7658862876254 265.88628762541805 L 630.0525561395127 265.88628762541805 L 630.4825609173436 265.88628762541805 L 631.055900621118 265.7429526994744 L 631.6292403248925 265.31294792164357 L 632.202580028667 264.7396082178691 L 632.4892498805542 264.1662685140946 L 632.6325848064978 263.16292403248923 L 632.6325848064978 262.7329192546584 L 632.6325848064978 261.72957477305306 L 632.4892498805542 260.8695652173913 L 632.202580028667 260.1528905876732 L 631.9159101767798 259.866220735786 L 631.3425704730053 259.4362159579551 L 630.7692307692307 259.1495461060679 L 629.909221213569 259.00621118012424 L 629.3358815097945 259.00621118012424 L 628.9058767319636 259.1495461060679 L 628.4758719541328 259.4362159579551 L 628.045867176302 259.72288580984235 L 627.9025322503584 260.00955566172956 L 627.6158623984711 260.43956043956047 L 626.0391782130912 260.43956043956047 L 626.3258480649785 259.866220735786 L 626.6125179168657 259.29288103201145 L 626.899187768753 258.8628762541806 L 627.3291925465838 258.43287147634976 L 627.9025322503584 258.1462016244625 L 628.6192068800765 257.8595317725752 L 629.1925465838509 257.71619684663165 L 629.909221213569 257.71619684663165 Z" fill="none" stroke="#5da9e9" stroke-width="1.433349259436216" stroke-linecap="round" stroke-linejoin="round" data-pcb-component-id="null" data-pcb-silkscreen-path-id="pcb_silkscreen_path_21" data-type="pcb_silkscreen_path" data-pcb-layer="bottom"/><path class="pcb-silkscreen pcb-silkscreen-bottom" d="M 622.8858098423316 257.8595317725752 L 624.4624940277114 257.8595317725752 L 624.4624940277114 267.032967032967 L 622.8858098423316 267.032967032967 L 622.8858098423316 265.7429526994744 L 622.7424749163879 266.0296225513617 L 622.4558050645007 266.3162924032489 L 622.1691352126135 266.60296225513616 L 621.8824653607262 266.88963210702343 L 621.4524605828954 267.032967032967 L 621.1657907310081 267.17630195891064 L 620.7357859531772 267.17630195891064 L 620.3057811753464 267.3196368848543 L 620.0191113234591 267.3196368848543 L 619.7324414715719 267.17630195891064 L 619.1591017677974 267.032967032967 L 618.7290969899666 266.7462971810798 L 618.4424271380793 266.60296225513616 L 618.155757286192 266.3162924032489 L 617.8690874343048 265.7429526994744 L 617.7257525083612 265.4562828475872 L 617.5824175824175 265.7429526994744 L 617.1524128045867 266.1729574773053 L 616.7224080267558 266.60296225513616 L 616.292403248925 266.88963210702343 L 615.7190635451504 267.17630195891064 L 615.145723841376 267.3196368848543 L 614.7157190635452 267.3196368848543 L 614.2857142857142 267.17630195891064 L 613.5690396559962 267.032967032967 L 612.852365026278 266.7462971810798 L 612.2790253225036 266.1729574773053 L 611.9923554706163 265.4562828475872 L 611.7056856187291 264.7396082178691 L 611.7056856187291 264.1662685140946 L 611.7056856187291 257.8595317725752 L 613.282369804109 257.8595317725752 L 613.282369804109 263.87959866220734 L 613.4257047300525 264.4529383659818 L 613.5690396559962 265.02627806975636 L 613.8557095078834 265.31294792164357 L 614.1423793597706 265.59961777353084 L 614.7157190635452 265.88628762541805 L 615.2890587673196 265.88628762541805 L 615.8623984710941 265.88628762541805 L 616.292403248925 265.59961777353084 L 616.7224080267558 265.31294792164357 L 617.0090778786431 264.8829431438127 L 617.2957477305304 264.30960344003825 L 617.2957477305304 263.7362637362637 L 617.2957477305304 257.8595317725752 L 618.8724319159102 257.8595317725752 L 618.8724319159102 264.022933588151 L 619.0157668418537 264.7396082178691 L 619.302436693741 265.16961299569994 L 619.5891065456283 265.59961777353084 L 620.0191113234591 265.7429526994744 L 620.44911610129 265.88628762541805 L 620.7357859531772 265.88628762541805 L 621.3091256569517 265.88628762541805 L 621.8824653607262 265.59961777353084 L 622.312470138557 265.31294792164357 L 622.5991399904443 264.7396082178691 L 622.8858098423316 264.30960344003825 L 622.8858098423316 263.59292881032013 L 622.8858098423316 257.8595317725752 Z" fill="none" stroke="#5da9e9" stroke-width="1.433349259436216" stroke-linecap="round" stroke-linejoin="round" data-pcb-component-id="null" data-pcb-silkscreen-path-id="pcb_silkscreen_path_22" data-type="pcb_silkscreen_path" data-pcb-layer="bottom"/><path class="pcb-silkscreen pcb-silkscreen-bottom" d="M 605.9722885809842 257.71619684663165 L 606.5456282847588 257.71619684663165 L 607.2623029144768 257.8595317725752 L 607.6923076923076 258.00286669851886 L 608.2656473960822 258.2895365504061 L 608.695652173913 258.57620640229334 L 609.1256569517438 259.00621118012424 L 609.4123268036311 259.4362159579551 L 609.6989966555184 259.866220735786 L 609.9856665074057 260.43956043956047 L 610.1290014333492 261.01290014333495 L 610.2723363592929 261.72957477305306 L 610.2723363592929 262.4462494027712 L 610.2723363592929 263.16292403248923 L 610.1290014333492 263.7362637362637 L 609.9856665074057 264.4529383659818 L 609.6989966555184 265.02627806975636 L 609.4123268036311 265.4562828475872 L 609.1256569517438 265.88628762541805 L 608.695652173913 266.3162924032489 L 608.2656473960822 266.60296225513616 L 607.8356426182513 266.88963210702343 L 607.2623029144768 267.17630195891064 L 606.6889632107024 267.17630195891064 L 606.1156235069278 267.3196368848543 L 605.3989488772097 267.17630195891064 L 604.8256091734353 267.17630195891064 L 604.3956043956043 266.88963210702343 L 603.8222646918299 266.7462971810798 L 603.392259913999 266.3162924032489 L 603.1055900621118 266.0296225513617 L 602.8189202102245 265.59961777353084 L 602.5322503583373 265.02627806975636 L 602.2455805064501 264.4529383659818 L 602.1022455805064 263.87959866220734 L 601.9589106545628 263.30625895843286 L 601.9589106545628 262.58958432871475 L 601.9589106545628 262.01624462494027 L 609.4123268036311 262.01624462494027 L 609.4123268036311 263.30625895843286 L 602.8189202102245 263.30625895843286 L 603.5355948399426 262.7329192546584 L 603.5355948399426 263.30625895843286 L 603.6789297658863 264.1662685140946 L 604.1089345437172 264.8829431438127 L 604.538939321548 265.31294792164357 L 605.1122790253226 265.7429526994744 L 605.685618729097 265.88628762541805 L 606.1156235069278 265.88628762541805 L 606.4022933588151 265.88628762541805 L 607.1189679885332 265.7429526994744 L 607.6923076923076 265.31294792164357 L 608.1223124701386 264.7396082178691 L 608.4089823220258 264.1662685140946 L 608.695652173913 263.16292403248923 L 608.695652173913 262.7329192546584 L 608.695652173913 261.72957477305306 L 608.5523172479694 260.8695652173913 L 608.1223124701386 260.1528905876732 L 607.9789775441949 259.866220735786 L 607.4056378404205 259.4362159579551 L 607.1189679885332 259.29288103201145 L 606.4022933588151 259.00621118012424 L 605.9722885809842 259.00621118012424 L 605.3989488772097 259.00621118012424 L 604.8256091734353 259.1495461060679 L 604.3956043956043 259.4362159579551 L 604.1089345437172 259.72288580984235 L 603.8222646918299 260.00955566172956 L 603.6789297658863 260.43956043956047 L 602.1022455805064 260.43956043956047 L 602.2455805064501 259.866220735786 L 602.5322503583373 259.29288103201145 L 602.9622551361682 258.8628762541806 L 603.392259913999 258.43287147634976 L 603.9655996177735 258.1462016244625 L 604.538939321548 257.8595317725752 L 605.2556139512661 257.71619684663165 L 605.9722885809842 257.71619684663165 Z" fill="none" stroke="#5da9e9" stroke-width="1.433349259436216" stroke-linecap="round" stroke-linejoin="round" data-pcb-component-id="null" data-pcb-silkscreen-path-id="pcb_silkscreen_path_23" data-type="pcb_silkscreen_path" data-pcb-layer="bottom"/><path class="pcb-silkscreen pcb-silkscreen-bottom" d="M 597.3721930243669 257.71619684663165 L 598.0888676540851 257.71619684663165 L 598.518872431916 257.8595317725752 L 598.9488772097468 258.00286669851886 L 599.3788819875776 258.2895365504061 L 599.6655518394649 258.57620640229334 L 599.8088867654085 259.00621118012424 L 599.9522216913522 259.5795508838987 L 599.9522216913522 260.1528905876732 L 599.9522216913522 265.7429526994744 L 601.3855709507884 265.7429526994744 L 601.3855709507884 267.032967032967 L 599.9522216913522 267.032967032967 L 599.9522216913522 269.6129956999522 L 598.3755375059723 269.6129956999522 L 598.3755375059723 267.032967032967 L 596.6555183946489 267.032967032967 L 596.6555183946489 265.7429526994744 L 598.3755375059723 265.7429526994744 L 598.3755375059723 260.1528905876732 L 598.2322025800287 259.5795508838987 L 598.0888676540851 259.1495461060679 L 597.6588628762541 259.00621118012424 L 597.3721930243669 259.00621118012424 L 597.0855231724797 258.8628762541806 L 596.6555183946489 259.00621118012424 L 596.6555183946489 257.71619684663165 L 596.7988533205925 257.71619684663165 L 597.0855231724797 257.71619684663165 L 597.3721930243669 257.71619684663165 Z" fill="none" stroke="#5da9e9" stroke-width="1.433349259436216" stroke-linecap="round" stroke-linejoin="round" data-pcb-component-id="null" data-pcb-silkscreen-path-id="pcb_silkscreen_path_24" data-type="pcb_silkscreen_path" data-pcb-layer="bottom"/><path class="pcb-silkscreen pcb-silkscreen-bottom" d="M 593.3588150979456 257.8595317725752 L 594.9354992833254 257.8595317725752 L 594.9354992833254 267.032967032967 L 593.3588150979456 267.032967032967 L 593.3588150979456 265.4562828475872 L 593.2154801720019 265.88628762541805 L 592.785475394171 266.60296225513616 L 592.2121356903965 267.032967032967 L 591.6387959866221 267.17630195891064 L 591.2087912087912 267.3196368848543 L 590.922121356904 267.3196368848543 L 590.6354515050167 267.17630195891064 L 590.6354515050167 265.7429526994744 L 590.922121356904 265.7429526994744 L 591.2087912087912 265.7429526994744 L 591.6387959866221 265.7429526994744 L 592.2121356903965 265.59961777353084 L 592.6421404682274 265.31294792164357 L 593.0721452460583 265.02627806975636 L 593.2154801720019 264.4529383659818 L 593.3588150979456 263.87959866220734 L 593.3588150979456 263.59292881032013 L 593.3588150979456 257.8595317725752 Z" fill="none" stroke="#5da9e9" stroke-width="1.433349259436216" stroke-linecap="round" stroke-linejoin="round" data-pcb-component-id="null" data-pcb-silkscreen-path-id="pcb_silkscreen_path_25" data-type="pcb_silkscreen_path" data-pcb-layer="bottom"/><path class="pcb-silkscreen pcb-silkscreen-bottom" d="M 585.4753941710463 257.71619684663165 L 586.0487338748209 257.71619684663165 L 586.6220735785953 257.8595317725752 L 587.1954132823698 258.00286669851886 L 587.7687529861442 258.2895365504061 L 588.1987577639751 258.57620640229334 L 588.628762541806 259.00621118012424 L 588.9154323936932 259.4362159579551 L 589.2021022455805 259.866220735786 L 589.4887720974677 260.43956043956047 L 589.6321070234114 261.1562350692785 L 589.775441949355 261.72957477305306 L 589.775441949355 262.4462494027712 L 589.775441949355 263.16292403248923 L 589.6321070234114 263.87959866220734 L 589.4887720974677 264.4529383659818 L 589.2021022455805 265.02627806975636 L 588.9154323936932 265.59961777353084 L 588.628762541806 266.0296225513617 L 588.1987577639751 266.3162924032489 L 587.7687529861442 266.7462971810798 L 587.1954132823698 266.88963210702343 L 586.6220735785953 267.17630195891064 L 586.0487338748209 267.17630195891064 L 585.4753941710463 267.3196368848543 L 584.9020544672719 267.17630195891064 L 584.3287147634974 267.17630195891064 L 583.7553750597228 266.88963210702343 L 583.1820353559484 266.7462971810798 L 582.7520305781176 266.3162924032489 L 582.3220258002866 266.0296225513617 L 582.0353559483995 265.59961777353084 L 581.7486860965122 265.02627806975636 L 581.4620162446249 264.4529383659818 L 581.3186813186813 263.87959866220734 L 581.1753463927378 263.16292403248923 L 581.1753463927378 262.4462494027712 L 581.1753463927378 261.72957477305306 L 581.3186813186813 261.01290014333495 L 581.4620162446249 260.43956043956047 L 581.7486860965122 259.866220735786 L 582.0353559483995 259.4362159579551 L 582.3220258002866 259.00621118012424 L 582.7520305781176 258.57620640229334 L 583.1820353559484 258.2895365504061 L 583.7553750597228 258.00286669851886 L 584.3287147634974 257.8595317725752 L 584.9020544672719 257.71619684663165 L 585.4753941710463 257.71619684663165 Z" fill="none" stroke="#5da9e9" stroke-width="1.433349259436216" stroke-linecap="round" stroke-linejoin="round" data-pcb-component-id="null" data-pcb-silkscreen-path-id="pcb_silkscreen_path_26" data-type="pcb_silkscreen_path" data-pcb-layer="bottom"/><path class="pcb-silkscreen pcb-silkscreen-bottom" d="M 585.4753941710463 259.00621118012424 L 585.0453893932155 259.00621118012424 L 584.3287147634974 259.29288103201145 L 583.7553750597228 259.72288580984235 L 583.325370281892 260.29622551361683 L 583.0387004300048 261.01290014333495 L 582.7520305781176 261.87290969899664 L 582.7520305781176 262.4462494027712 L 582.7520305781176 263.01958910654565 L 583.0387004300048 263.87959866220734 L 583.325370281892 264.7396082178691 L 583.7553750597228 265.31294792164357 L 584.3287147634974 265.7429526994744 L 585.0453893932155 265.88628762541805 L 585.4753941710463 265.88628762541805 L 585.9053989488772 265.88628762541805 L 586.6220735785953 265.59961777353084 L 587.1954132823698 265.31294792164357 L 587.6254180602007 264.7396082178691 L 588.0554228380315 263.87959866220734 L 588.1987577639751 263.01958910654565 L 588.1987577639751 262.4462494027712 L 588.1987577639751 261.87290969899664 L 588.0554228380315 261.01290014333495 L 587.6254180602007 260.29622551361683 L 587.1954132823698 259.72288580984235 L 586.6220735785953 259.29288103201145 L 585.9053989488772 259.00621118012424 L 585.4753941710463 259.00621118012424 Z" fill="none" stroke="#5da9e9" stroke-width="1.433349259436216" stroke-linecap="round" stroke-linejoin="round" data-pcb-component-id="null" data-pcb-silkscreen-path-id="pcb_silkscreen_path_27" data-type="pcb_silkscreen_path" data-pcb-layer="bottom"/><path class="pcb-silkscreen pcb-silkscreen-bottom" d="M 578.1653129479216 257.8595317725752 L 579.5986622073578 257.8595317725752 L 579.5986622073578 267.032967032967 L 578.1653129479216 267.032967032967 L 578.1653129479216 265.7429526994744 L 577.8786430960345 266.0296225513617 L 577.3053033922599 266.60296225513616 L 576.5886287625418 267.032967032967 L 575.72861920688 267.17630195891064 L 575.1552795031056 267.3196368848543 L 574.4386048733875 267.17630195891064 L 573.2919254658385 266.7462971810798 L 572.4319159101767 265.88628762541805 L 572.0019111323459 264.59627329192546 L 572.0019111323459 263.87959866220734 L 572.0019111323459 257.8595317725752 L 573.5785953177258 257.8595317725752 L 573.5785953177258 263.59292881032013 L 573.7219302436694 264.59627329192546 L 574.1519350215002 265.31294792164357 L 574.7252747252747 265.7429526994744 L 575.1552795031056 265.88628762541805 L 575.72861920688 265.88628762541805 L 576.3019589106545 265.88628762541805 L 577.0186335403727 265.59961777353084 L 577.4486383182035 265.16961299569994 L 577.7353081700908 264.59627329192546 L 578.021978021978 264.022933588151 L 578.1653129479216 263.30625895843286 L 578.1653129479216 257.8595317725752 Z" fill="none" stroke="#5da9e9" stroke-width="1.433349259436216" stroke-linecap="round" stroke-linejoin="round" data-pcb-component-id="null" data-pcb-silkscreen-path-id="pcb_silkscreen_path_28" data-type="pcb_silkscreen_path" data-pcb-layer="bottom"/><rect class="pcb-pad" fill="rgb(200, 52, 52)" x="297.5155279503105" y="267.7496416626851" width="35.833731485905396" height="35.833731485905396" data-type="pcb_smtpad" data-pcb-layer="top"/><rect class="pcb-pad" fill="rgb(200, 52, 52)" x="466.65074056378404" y="267.7496416626851" width="35.833731485905396" height="35.833731485905396" data-type="pcb_smtpad" data-pcb-layer="top"/><rect class="pcb-pad" fill="rgb(200, 52, 52)" x="369.89966555183946" y="221.88246536072626" width="17.20019111323459" height="12.900143334925943" data-type="pcb_smtpad" data-pcb-layer="top"/><rect class="pcb-pad" fill="rgb(200, 52, 52)" x="391.3999044433827" y="221.88246536072626" width="17.20019111323459" height="12.900143334925943" data-type="pcb_smtpad" data-pcb-layer="top"/><rect class="pcb-pad" fill="rgb(200, 52, 52)" x="412.90014333492593" y="221.88246536072626" width="17.20019111323459" height="12.900143334925943" data-type="pcb_smtpad" data-pcb-layer="top"/><rect class="pcb-pad" fill="rgb(200, 52, 52)" x="382.4414715719064" y="192.85714285714286" width="11.466794075489728" height="13.616817964644051" data-type="pcb_smtpad" data-pcb-layer="top"/><rect class="pcb-pad" fill="rgb(200, 52, 52)" x="406.0917343526039" y="192.85714285714286" width="11.466794075489728" height="13.616817964644051" data-type="pcb_smtpad" data-pcb-layer="top"/><path class="pcb-trace" stroke="rgb(200, 52, 52)" fill="none" d="M 381.79646440516007 343.00047778308647 L 433.3421588299019 291.4547833583446" stroke-width="2.150023889154324" stroke-linecap="round" stroke-linejoin="round" shape-rendering="crispEdges" data-type="pcb_trace" data-pcb-layer="top"/><path class="pcb-trace" stroke="rgb(200, 52, 52)" fill="none" d="M 433.3421588299019 291.4547833583446 L 433.3421588299019 213.8511493113196" stroke-width="2.150023889154324" stroke-linecap="round" stroke-linejoin="round" shape-rendering="crispEdges" data-type="pcb_trace" data-pcb-layer="top"/><path class="pcb-trace" stroke="rgb(200, 52, 52)" fill="none" d="M 433.3421588299019 213.8511493113196 L 426.0107288622035 213.8511493113196" stroke-width="2.150023889154324" stroke-linecap="round" stroke-linejoin="round" shape-rendering="crispEdges" data-type="pcb_trace" data-pcb-layer="top"/><path class="pcb-trace" stroke="rgb(200, 52, 52)" fill="none" d="M 426.0107288622035 213.8511493113196 L 411.82513139034876 199.66555183946488" stroke-width="2.150023889154324" stroke-linecap="round" stroke-linejoin="round" shape-rendering="crispEdges" data-type="pcb_trace" data-pcb-layer="top"/><path class="pcb-trace" stroke="rgb(200, 52, 52)" fill="none" d="M 388.17486860965124 199.66555183946488 L 388.17486860965124 216.5074056378404" stroke-width="2.150023889154324" stroke-linecap="round" stroke-linejoin="round" shape-rendering="crispEdges" data-type="pcb_trace" data-pcb-layer="top"/><path class="pcb-trace" stroke="rgb(200, 52, 52)" fill="none" d="M 388.17486860965124 216.5074056378404 L 400 228.33253702818922" stroke-width="2.150023889154324" stroke-linecap="round" stroke-linejoin="round" shape-rendering="crispEdges" data-type="pcb_trace" data-pcb-layer="top"/><path class="pcb-trace" stroke="rgb(200, 52, 52)" fill="none" d="M 418.20353559483993 343.00047778308647 L 427.2336359292881 343.00047778308647" stroke-width="2.150023889154324" stroke-linecap="round" stroke-linejoin="round" shape-rendering="crispEdges" data-type="pcb_trace" data-pcb-layer="top"/><path class="pcb-trace" stroke="rgb(200, 52, 52)" fill="none" d="M 427.2336359292881 343.00047778308647 L 484.56760630673676 285.66650740563784" stroke-width="2.150023889154324" stroke-linecap="round" stroke-linejoin="round" shape-rendering="crispEdges" data-type="pcb_trace" data-pcb-layer="top"/><path class="pcb-trace" stroke="rgb(200, 52, 52)" fill="none" d="M 378.49976110845677 228.33253702818922 L 372.7663640707119 228.33253702818922" stroke-width="2.150023889154324" stroke-linecap="round" stroke-linejoin="round" shape-rendering="crispEdges" data-type="pcb_trace" data-pcb-layer="top"/><path class="pcb-trace" stroke="rgb(200, 52, 52)" fill="none" d="M 372.7663640707119 228.33253702818922 L 315.43239369326324 285.66650740563784" stroke-width="2.150023889154324" stroke-linecap="round" stroke-linejoin="round" shape-rendering="crispEdges" data-type="pcb_trace" data-pcb-layer="top"/><path class="pcb-silkscreen pcb-silkscreen-top" d="M 315.43239369326324 314.33349259436216 L 315.43239369326324 256.99952221691353" fill="none" stroke="#f2eda1" stroke-width="1.433349259436216" stroke-linecap="round" stroke-linejoin="round" data-pcb-component-id="pcb_component_0" data-pcb-silkscreen-path-id="pcb_silkscreen_path_0" data-type="pcb_silkscreen_path" data-pcb-layer="top"/><path class="pcb-silkscreen pcb-silkscreen-top" d="M 306.83229813664593 285.66650740563784 L 324.03248924988054 285.66650740563784" fill="none" stroke="#f2eda1" stroke-width="1.433349259436216" stroke-linecap="round" stroke-linejoin="round" data-pcb-component-id="pcb_component_0" data-pcb-silkscreen-path-id="pcb_silkscreen_path_1" data-type="pcb_silkscreen_path" data-pcb-layer="top"/><text x="0" y="0" dx="0" dy="0" fill="#f2eda1" font-family="Arial, sans-serif" font-size="14.33349259436216" text-anchor="middle" dominant-baseline="central" transform="matrix(1,0,0,1,315.43239369326324,328.6669851887243)" class="pcb-silkscreen-text pcb-silkscreen-top" data-pcb-silkscreen-text-id="pcb_component_0" stroke="none" data-type="pcb_silkscreen_text" data-pcb-layer="top">+</text><text x="0" y="0" dx="0" dy="0" fill="#f2eda1" font-family="Arial, sans-serif" font-size="14.33349259436216" text-anchor="middle" dominant-baseline="central" transform="matrix(1,0,0,1,484.56760630673676,328.6669851887243)" class="pcb-silkscreen-text pcb-silkscreen-top" data-pcb-silkscreen-text-id="pcb_component_0" stroke="none" data-type="pcb_silkscreen_text" data-pcb-layer="top">-</text><path class="pcb-silkscreen pcb-silkscreen-top" d="M 364.1662685140946 249.83277591973246 L 435.8337314859054 249.83277591973246 L 435.8337314859054 206.83229813664596 L 364.1662685140946 206.83229813664596 L 364.1662685140946 249.83277591973246 Z" fill="none" stroke="#f2eda1" stroke-width="1.433349259436216" stroke-linecap="round" stroke-linejoin="round" data-pcb-component-id="pcb_component_1" data-pcb-silkscreen-path-id="pcb_silkscreen_path_2" data-type="pcb_silkscreen_path" data-pcb-layer="top"/><path class="pcb-silkscreen pcb-silkscreen-top" d="M 411.82513139034876 187.12374581939798 L 379.57477305303394 187.12374581939798 L 379.57477305303394 212.20735785953178 L 411.82513139034876 212.20735785953178" fill="none" stroke="#f2eda1" stroke-width="1.433349259436216" stroke-linecap="round" stroke-linejoin="round" data-pcb-component-id="pcb_component_2" data-pcb-silkscreen-path-id="pcb_silkscreen_path_3" data-type="pcb_silkscreen_path" data-pcb-layer="top"/><text x="0" y="0" dx="0" dy="0" fill="#f2eda1" font-family="Arial, sans-serif" font-size="5.733397037744864" text-anchor="middle" dominant-baseline="central" transform="matrix(1,0,0,1,400,179.9569995222169)" class="pcb-silkscreen-text pcb-silkscreen-top" data-pcb-silkscreen-text-id="pcb_component_2" stroke="none" data-type="pcb_silkscreen_text" data-pcb-layer="top">R1</text><path class="pcb-silkscreen pcb-silkscreen-top" d="M 450.4538939321548 343.00047778308647 L 443.7171524128046 317.7735308170091 L 425.2269469660774 299.2833253702819 L 400 292.54658385093165 L 374.7730530339226 299.2833253702819 L 356.2828475871954 317.7735308170091 L 349.5461060678452 343.00047778308647 L 356.2828475871954 368.2274247491639 L 374.7730530339226 386.71763019589105 L 400 393.4543717152413 L 425.2269469660774 386.71763019589105 L 443.7171524128046 368.2274247491639 L 450.4538939321548 343.00047778308647 Z" fill="none" stroke="#f2eda1" stroke-width="1.433349259436216" stroke-linecap="round" stroke-linejoin="round" data-pcb-component-id="pcb_component_3" data-pcb-silkscreen-path-id="pcb_silkscreen_path_4" data-type="pcb_silkscreen_path" data-pcb-layer="top"/><path class="pcb-silkscreen pcb-silkscreen-top" d="M 436.2637362637363 377.25752508361205 L 436.2637362637363 308.74343048256094" fill="none" stroke="#f2eda1" stroke-width="1.433349259436216" stroke-linecap="round" stroke-linejoin="round" data-pcb-component-id="pcb_component_3" data-pcb-silkscreen-path-id="pcb_silkscreen_path_5" data-type="pcb_silkscreen_path" data-pcb-layer="top"/><text x="0" y="0" dx="0" dy="0" fill="#f2eda1" font-family="Arial, sans-serif" font-size="11.466794075489728" text-anchor="middle" dominant-baseline="central" transform="matrix(1,0,0,1,381.79646440516007,371.6674629718108)" class="pcb-silkscreen-text pcb-silkscreen-top" data-pcb-silkscreen-text-id="pcb_component_3" stroke="none" data-type="pcb_silkscreen_text" data-pcb-layer="top">+</text><g data-type="pcb_plated_hole" data-pcb-layer="through"><circle class="pcb-hole-outer" fill="rgb(200, 52, 52)" cx="381.79646440516007" cy="343.00047778308647" r="12.900143334925943" data-type="pcb_plated_hole" data-pcb-layer="top"/><circle class="pcb-hole-inner" fill="#FF26E2" cx="381.79646440516007" cy="343.00047778308647" r="7.16674629718108" data-type="pcb_plated_hole_drill" data-pcb-layer="drill"/></g><g data-type="pcb_plated_hole" data-pcb-layer="through"><circle class="pcb-hole-outer" fill="rgb(200, 52, 52)" cx="418.20353559483993" cy="343.00047778308647" r="12.900143334925943" data-type="pcb_plated_hole" data-pcb-layer="top"/><circle class="pcb-hole-inner" fill="#FF26E2" cx="418.20353559483993" cy="343.00047778308647" r="7.16674629718108" data-type="pcb_plated_hole_drill" data-pcb-layer="drill"/></g><circle class="pcb-hole" cx="529.0014333492594" cy="56.3306258958433" r="17.916865742952698" fill="#FF26E2" data-type="pcb_hole" data-pcb-layer="drill"/></svg>