<svg xmlns="http://www.w3.org/2000/svg" width="800" height="600" data-software-used-string="@tscircuit/core@0.0.1112"><style></style><rect class="boundary" x="0" y="0" fill="#000" width="800" height="600" data-type="pcb_background" data-pcb-layer="global"/><rect class="pcb-boundary" fill="none" stroke="#fff" stroke-width="0.3" x="77.49641662685144" y="14.333492594362156" width="645.0071667462971" height="571.3330148112757" data-type="pcb_boundary" data-pcb-layer="global"/><path class="pcb-board" d="M 722.5035833731486 300 L 719.6368848542761 316.7701863354037 L 711.0367892976589 332.6803631151457 L 696.8466316292404 347.0138557095079 L 677.7830864787386 359.0539894887721 L 654.562828475872 368.08408982322027 L 627.7591973244147 373.96082178690875 L 598.3755375059723 376.25418060200667 L 567.2718585762063 374.53416149068323 L 535.8815097945533 369.0874343048256 L 504.77783086478735 360.4873387482083 L 527.8547539417104 382.9909221213569 L 548.2083134257048 407.6445293836598 L 565.1218346870521 433.58815097945535 L 578.021978021978 460.2484472049689 L 586.1920688007644 486.19206880076445 L 590.0621118012423 510.989010989011 L 589.0587673196369 533.6359292881032 L 583.7553750597228 552.9861442904921 L 574.2952699474439 568.4663162924032 L 561.2517916865743 579.3597706641185 L 545.3416149068323 585.2365026278069 L 527.1380793119923 585.6665074056378 L 507.6445293836598 580.5064500716675 L 487.72097467749643 570.0430004777832 L 468.08408982322027 554.562828475872 L 449.7372193024367 534.2092689918777 L 433.2537028189202 509.842331581462 L 419.2068800764453 482.17869087434303 L 408.0267558528428 452.22169135212613 L 400 420.97467749641663 L 391.9732441471572 452.22169135212613 L 380.7931199235547 482.17869087434303 L 366.7462971810798 509.842331581462 L 350.2627806975633 534.2092689918777 L 331.91591017677973 554.562828475872 L 312.27902532250357 570.0430004777832 L 292.3554706163402 580.5064500716675 L 272.8619206880077 585.6665074056378 L 254.6583850931677 585.2365026278069 L 238.74820831342572 579.3597706641185 L 225.70473005255613 568.4663162924032 L 216.2446249402771 552.9861442904921 L 210.94123268036313 533.6359292881032 L 209.93788819875778 510.989010989011 L 213.80793119923555 486.19206880076445 L 221.97802197802199 460.2484472049689 L 234.87816531294794 433.58815097945535 L 251.79168657429528 407.6445293836598 L 272.14524605828956 382.9909221213569 L 295.22216913521265 360.4873387482083 L 264.11849020544673 369.0874343048256 L 232.7281414237936 374.53416149068323 L 201.6244624940277 376.25418060200667 L 172.2408026755853 373.96082178690875 L 145.43717152412802 368.08408982322027 L 122.21691352126135 359.0539894887721 L 103.15336837075967 347.0138557095079 L 88.96321070234114 332.6803631151457 L 80.36311514572384 316.7701863354037 L 77.49641662685144 300 L 80.36311514572384 283.2298136645963 L 88.96321070234114 267.3196368848543 L 103.15336837075967 252.98614429049212 L 122.21691352126135 240.9460105112279 L 145.43717152412802 231.91591017677973 L 172.2408026755853 226.03917821309125 L 201.6244624940277 223.74581939799333 L 232.7281414237936 225.46583850931677 L 264.11849020544673 230.9125656951744 L 295.22216913521265 239.51266125179168 L 272.14524605828956 217.0090778786431 L 251.79168657429528 192.3554706163402 L 234.87816531294794 166.41184902054468 L 221.97802197802199 139.75155279503107 L 213.80793119923555 113.80793119923555 L 209.93788819875778 89.01098901098902 L 210.94123268036313 66.3640707118968 L 216.2446249402771 47.01385570950791 L 225.70473005255613 31.533683707596765 L 238.74820831342572 20.640229335881543 L 254.6583850931677 14.763497372193058 L 272.8619206880077 14.333492594362156 L 292.3554706163402 19.493549928332527 L 312.27902532250357 29.956999522216904 L 331.91591017677973 45.43717152412802 L 350.2627806975633 65.79073100812232 L 366.7462971810798 90.15766841853798 L 380.7931199235547 117.82130912565694 L 391.9732441471572 147.77830864787387 L 400 179.02532250358337 L 408.0267558528428 147.77830864787387 L 419.2068800764453 117.82130912565694 L 433.2537028189202 90.15766841853798 L 449.7372193024367 65.79073100812232 L 468.08408982322027 45.43717152412802 L 487.72097467749643 29.956999522216904 L 507.6445293836598 19.493549928332527 L 527.1380793119923 14.333492594362156 L 545.3416149068323 14.763497372193058 L 561.2517916865743 20.640229335881543 L 574.2952699474439 31.533683707596765 L 583.7553750597228 47.01385570950791 L 589.0587673196369 66.3640707118968 L 590.0621118012423 89.01098901098902 L 586.1920688007644 113.80793119923555 L 578.021978021978 139.75155279503107 L 565.1218346870521 166.41184902054468 L 548.2083134257048 192.3554706163402 L 527.8547539417104 217.0090778786431 L 504.77783086478735 239.51266125179168 L 535.8815097945533 230.9125656951744 L 567.2718585762063 225.46583850931677 L 598.3755375059723 223.74581939799333 L 627.7591973244147 226.03917821309125 L 654.562828475872 231.91591017677973 L 677.7830864787386 240.9460105112279 L 696.8466316292404 252.98614429049212 L 711.0367892976589 267.3196368848543 L 719.6368848542761 283.2298136645963 Z" fill="none" stroke="rgba(255, 255, 255, 0.5)" stroke-width="1.433349259436216" data-type="pcb_board" data-pcb-layer="board"/><path class="pcb-silkscreen pcb-silkscreen-bottom" d="M 259.96177735308174 286.66985188724317 L 270.9985666507406 313.7601528905877 L 260.3917821309126 313.7601528905877 L 255.08838987099858 298.7099856665074 L 249.78499761108458 313.7601528905877 L 239.60821786908744 313.7601528905877 L 250.6450071667463 286.66985188724317 L 259.96177735308174 286.66985188724317 Z" fill="none" stroke="#5da9e9" stroke-width="1.433349259436216" stroke-linecap="round" stroke-linejoin="round" data-pcb-component-id="null" data-pcb-silkscreen-path-id="pcb_silkscreen_path_6" data-type="pcb_silkscreen_path" data-pcb-layer="bottom"/><path class="pcb-silkscreen pcb-silkscreen-bottom" d="M 227.85475394171047 286.66985188724317 L 237.74486383182037 286.66985188724317 L 237.74486383182037 313.7601528905877 L 227.85475394171047 313.7601528905877 L 227.85475394171047 286.66985188724317 Z" fill="none" stroke="#5da9e9" stroke-width="1.433349259436216" stroke-linecap="round" stroke-linejoin="round" data-pcb-component-id="null" data-pcb-silkscreen-path-id="pcb_silkscreen_path_7" data-type="pcb_silkscreen_path" data-pcb-layer="bottom"/><path class="pcb-silkscreen pcb-silkscreen-bottom" d="M 200.33444816053512 313.7601528905877 L 200.33444816053512 307.5967510750119 L 211.94457716196845 294.55327281414236 L 200.1911132345915 294.55327281414236 L 200.1911132345915 286.66985188724317 L 225.13139034878168 286.66985188724317 L 225.13139034878168 292.97658862876256 L 213.52126134734831 305.8767319636885 L 224.41471571906354 305.8767319636885 L 224.41471571906354 313.7601528905877 L 200.33444816053512 313.7601528905877 Z" fill="none" stroke="#5da9e9" stroke-width="1.433349259436216" stroke-linecap="round" stroke-linejoin="round" data-pcb-component-id="null" data-pcb-silkscreen-path-id="pcb_silkscreen_path_8" data-type="pcb_silkscreen_path" data-pcb-layer="bottom"/><path class="pcb-silkscreen pcb-silkscreen-bottom" d="M 199.33110367892976 300.28666985188727 L 199.04443382704252 303.15336837075967 L 198.3277591973244 306.0200668896321 L 197.03774486383182 308.45676063067367 L 195.17439082656475 310.4634495938844 L 193.02436693741043 312.1834687052078 L 190.58767319636885 313.4734830387004 L 187.72097467749643 314.33349259436216 L 184.56760630673676 314.6201624462494 L 182.13091256569518 314.33349259436216 L 179.69421882465363 313.7601528905877 L 178.26086956521738 313.1868131868132 L 178.26086956521738 304.15671285236505 L 179.98088867654087 305.01672240802674 L 181.84424271380792 305.5900621118012 L 183.1342570473005 305.5900621118012 L 185.5709507883421 305.303392259914 L 187.4343048256092 304.15671285236505 L 188.72431915910178 302.43669374104155 L 189.29765886287626 300.28666985188727 L 188.72431915910178 297.9933110367893 L 187.5776397515528 296.27329192546586 L 185.5709507883421 295.12661251791684 L 183.1342570473005 294.83994266602963 L 181.84424271380792 294.83994266602963 L 179.98088867654087 295.4132823698041 L 178.26086956521738 296.41662685140943 L 178.26086956521738 287.3865265169613 L 180.69756330625896 286.38318203535596 L 183.1342570473005 285.9531772575251 L 184.71094123268037 285.9531772575251 L 187.72097467749643 286.0965121834687 L 190.58767319636885 286.95652173913044 L 193.02436693741043 288.1032011466794 L 195.17439082656475 289.8232202580029 L 196.8944099378882 291.8299092212136 L 198.1844242713808 294.26660296225515 L 199.04443382704252 297.13330148112755 L 199.33110367892976 300.28666985188727 Z" fill="none" stroke="#5da9e9" stroke-width="1.433349259436216" stroke-linecap="round" stroke-linejoin="round" data-pcb-component-id="null" data-pcb-silkscreen-path-id="pcb_silkscreen_path_9" data-type="pcb_silkscreen_path" data-pcb-layer="bottom"/><path class="pcb-silkscreen pcb-silkscreen-bottom" d="M 161.20401337792643 314.6201624462494 L 158.19397993311037 314.33349259436216 L 155.32728141423794 313.4734830387004 L 152.74725274725276 312.1834687052078 L 150.4538939321548 310.4634495938844 L 148.59053989488774 308.31342570473004 L 147.30052556139515 305.8767319636885 L 146.4405160057334 303.15336837075967 L 146.15384615384616 300.28666985188727 L 146.4405160057334 297.2766364070712 L 147.30052556139515 294.55327281414236 L 148.59053989488774 292.1165790731008 L 150.4538939321548 289.96655518394647 L 152.74725274725276 288.24653607262303 L 155.32728141423794 286.95652173913044 L 158.19397993311037 286.0965121834687 L 161.20401337792643 285.9531772575251 L 164.3573817486861 286.0965121834687 L 167.22408026755855 286.95652173913044 L 169.80410893454373 288.24653607262303 L 172.09746774964165 289.96655518394647 L 173.96082178690875 292.1165790731008 L 175.25083612040135 294.55327281414236 L 176.1108456760631 297.2766364070712 L 176.39751552795033 300.28666985188727 L 176.1108456760631 303.15336837075967 L 175.25083612040135 305.8767319636885 L 173.96082178690875 308.31342570473004 L 172.09746774964165 310.4634495938844 L 169.80410893454373 312.1834687052078 L 167.22408026755855 313.4734830387004 L 164.3573817486861 314.33349259436216 L 161.20401337792643 314.6201624462494 Z" fill="none" stroke="#5da9e9" stroke-width="1.433349259436216" stroke-linecap="round" stroke-linejoin="round" data-pcb-component-id="null" data-pcb-silkscreen-path-id="pcb_silkscreen_path_10" data-type="pcb_silkscreen_path" data-pcb-layer="bottom"/><path class="pcb-silkscreen pcb-silkscreen-bottom" d="M 161.20401337792643 305.5900621118012 L 163.35403726708074 305.16005733397037 L 165.0740563784042 304.0133779264214 L 166.2207357859532 302.2933588150979 L 166.65074056378404 300.28666985188727 L 166.2207357859532 298.1366459627329 L 165.0740563784042 296.41662685140943 L 163.35403726708074 295.2699474438605 L 161.20401337792643 294.83994266602963 L 159.19732441471572 295.2699474438605 L 157.47730530339226 296.41662685140943 L 156.3306258958433 298.1366459627329 L 155.90062111801242 300.28666985188727 L 156.3306258958433 302.2933588150979 L 157.47730530339226 304.0133779264214 L 159.19732441471572 305.16005733397037 L 161.20401337792643 305.5900621118012 Z" fill="none" stroke="#5da9e9" stroke-width="1.433349259436216" stroke-linecap="round" stroke-linejoin="round" data-pcb-component-id="null" data-pcb-silkscreen-path-id="pcb_silkscreen_path_11" data-type="pcb_silkscreen_path" data-pcb-layer="bottom"/><path class="pcb-silkscreen pcb-silkscreen-bottom" d="M 134.40038222646916 301.2900143334926 L 134.40038222646916 286.5265169612996 L 144.43382704252272 286.5265169612996 L 144.43382704252272 313.7601528905877 L 134.40038222646916 313.7601528905877 L 134.40038222646916 310.606784519828 L 132.25035833731488 312.7568084089823 L 129.38365981844242 314.1901576684185 L 126.94696607740087 314.4768275203058 L 124.36693741041569 314.1901576684185 L 121.3569039655996 312.7568084089823 L 119.20688007644532 310.1767797419971 L 116.62685140946013 312.90014333492593 L 113.1868131868132 314.33349259436216 L 110.75011944577165 314.4768275203058 L 106.5934065934066 313.7601528905877 L 103.58337314859057 311.61012900143334 L 101.86335403726707 308.45676063067367 L 101.14667940754896 304.0133779264214 L 101.14667940754896 286.5265169612996 L 111.18012422360249 286.5265169612996 L 111.18012422360249 301.4333492594362 L 111.75346392737697 303.72670807453414 L 113.04347826086956 305.16005733397037 L 114.47682752030579 305.44672718585764 L 115.76684185379838 305.16005733397037 L 117.20019111323461 303.72670807453414 L 117.77353081700909 301.2900143334926 L 117.77353081700909 286.5265169612996 L 127.80697563306256 286.5265169612996 L 127.80697563306256 301.4333492594362 L 128.23698041089347 303.72670807453414 L 129.6703296703297 305.16005733397037 L 130.96034400382229 305.44672718585764 L 132.39369326325846 305.16005733397037 L 133.82704252269468 303.72670807453414 L 134.40038222646916 301.2900143334926 Z" fill="none" stroke="#5da9e9" stroke-width="1.433349259436216" stroke-linecap="round" stroke-linejoin="round" data-pcb-component-id="null" data-pcb-silkscreen-path-id="pcb_silkscreen_path_12" data-type="pcb_silkscreen_path" data-pcb-layer="bottom"/><path class="pcb-silkscreen pcb-silkscreen-bottom" d="M 640.0860009555662 274.9163879598662 L 615.0023889154324 274.9163879598662 L 615.0023889154324 300 L 640.0860009555662 300 L 640.0860009555662 274.9163879598662 Z" fill="none" stroke="#5da9e9" stroke-width="1.433349259436216" stroke-linecap="round" stroke-linejoin="round" data-pcb-component-id="null" data-pcb-silkscreen-path-id="pcb_silkscreen_path_13" data-type="pcb_silkscreen_path" data-pcb-layer="bottom"/><path class="pcb-silkscreen pcb-silkscreen-bottom" d="M 627.4725274725274 287.5298614429049 L 602.3889154323937 287.5298614429049 L 602.3889154323937 312.6134734830387 L 627.4725274725274 312.6134734830387 L 627.4725274725274 287.5298614429049 Z" fill="none" stroke="#5da9e9" stroke-width="1.433349259436216" stroke-linecap="round" stroke-linejoin="round" data-pcb-component-id="null" data-pcb-silkscreen-path-id="pcb_silkscreen_path_14" data-type="pcb_silkscreen_path" data-pcb-layer="bottom"/><path class="pcb-silkscreen pcb-silkscreen-bottom" d="M 615.0023889154324 300 L 589.9187768752986 300 L 589.9187768752986 325.0836120401338 L 615.0023889154324 325.0836120401338 L 615.0023889154324 300 Z" fill="none" stroke="#5da9e9" stroke-width="1.433349259436216" stroke-linecap="round" stroke-linejoin="round" data-pcb-component-id="null" data-pcb-silkscreen-path-id="pcb_silkscreen_path_15" data-type="pcb_silkscreen_path" data-pcb-layer="bottom"/><path class="pcb-silkscreen pcb-silkscreen-bottom" d="M 627.4725274725274 287.5298614429049 L 615.0023889154324 300" fill="none" stroke="#5da9e9" stroke-width="1.433349259436216" stroke-linecap="round" stroke-linejoin="round" data-pcb-component-id="null" data-pcb-silkscreen-path-id="pcb_silkscreen_path_16" data-type="pcb_silkscreen_path" data-pcb-layer="bottom"/><path class="pcb-silkscreen pcb-silkscreen-bottom" d="M 615.0023889154324 300 L 602.3889154323937 312.6134734830387" fill="none" stroke="#5da9e9" stroke-width="1.433349259436216" stroke-linecap="round" stroke-linejoin="round" data-pcb-component-id="null" data-pcb-silkscreen-path-id="pcb_silkscreen_path_17" data-type="pcb_silkscreen_path" data-pcb-layer="bottom"/><path class="pcb-silkscreen pcb-silkscreen-bottom" d="M 654.2761586239848 264.1662685140946 L 645.102723363593 264.1662685140946 L 649.6894409937888 264.1662685140946 L 649.6894409937888 250.40611562350693" fill="none" stroke="#5da9e9" stroke-width="1.433349259436216" stroke-linecap="round" stroke-linejoin="round" data-pcb-component-id="null" data-pcb-silkscreen-path-id="pcb_silkscreen_path_18" data-type="pcb_silkscreen_path" data-pcb-layer="bottom"/><path class="pcb-silkscreen pcb-silkscreen-bottom" d="M 643.9560439560439 259.5795508838987 L 637.0759675107502 259.5795508838987 L 637.0759675107502 256.1395126612518 L 643.9560439560439 256.1395126612518 L 643.9560439560439 250.40611562350693 L 637.0759675107502 250.40611562350693" fill="none" stroke="#5da9e9" stroke-width="1.433349259436216" stroke-linecap="round" stroke-linejoin="round" data-pcb-component-id="null" data-pcb-silkscreen-path-id="pcb_silkscreen_path_19" data-type="pcb_silkscreen_path" data-pcb-layer="bottom"/><path class="pcb-silkscreen pcb-silkscreen-bottom" d="M 635.3559483994267 264.1662685140946 L 635.3559483994267 250.40611562350693" fill="none" stroke="#5da9e9" stroke-width="1.433349259436216" stroke-linecap="round" stroke-linejoin="round" data-pcb-component-id="null" data-pcb-silkscreen-path-id="pcb_silkscreen_path_20" data-type="pcb_silkscreen_path" data-pcb-layer="bottom"/><path class="pcb-silkscreen pcb-silkscreen-bottom" d="M 631.9159101767798 259.5795508838987 L 625.0358337314859 259.5795508838987 L 625.0358337314859 256.1395126612518 L 631.9159101767798 256.1395126612518 L 631.9159101767798 250.40611562350693 L 625.0358337314859 250.40611562350693" fill="none" stroke="#5da9e9" stroke-width="1.433349259436216" stroke-linecap="round" stroke-linejoin="round" data-pcb-component-id="null" data-pcb-silkscreen-path-id="pcb_silkscreen_path_21" data-type="pcb_silkscreen_path" data-pcb-layer="bottom"/><path class="pcb-silkscreen pcb-silkscreen-bottom" d="M 623.3158146201624 250.40611562350693 L 623.3158146201624 259.5795508838987 L 621.0224558050645 260.7262302914477 L 618.7290969899666 259.5795508838987 L 618.7290969899666 250.40611562350693" fill="none" stroke="#5da9e9" stroke-width="1.433349259436216" stroke-linecap="round" stroke-linejoin="round" data-pcb-component-id="null" data-pcb-silkscreen-path-id="pcb_silkscreen_path_22" data-type="pcb_silkscreen_path" data-pcb-layer="bottom"/><path class="pcb-silkscreen pcb-silkscreen-bottom" d="M 618.7290969899666 259.5795508838987 L 616.4357381748686 260.7262302914477 L 614.1423793597706 259.5795508838987 L 614.1423793597706 250.40611562350693" fill="none" stroke="#5da9e9" stroke-width="1.433349259436216" stroke-linecap="round" stroke-linejoin="round" data-pcb-component-id="null" data-pcb-silkscreen-path-id="pcb_silkscreen_path_23" data-type="pcb_silkscreen_path" data-pcb-layer="bottom"/><path class="pcb-silkscreen pcb-silkscreen-bottom" d="M 612.4223602484471 259.5795508838987 L 605.5422838031534 259.5795508838987 L 605.5422838031534 256.1395126612518 L 612.4223602484471 256.1395126612518 L 612.4223602484471 250.40611562350693 L 605.5422838031534 250.40611562350693" fill="none" stroke="#5da9e9" stroke-width="1.433349259436216" stroke-linecap="round" stroke-linejoin="round" data-pcb-component-id="null" data-pcb-silkscreen-path-id="pcb_silkscreen_path_24" data-type="pcb_silkscreen_path" data-pcb-layer="bottom"/><path class="pcb-silkscreen pcb-silkscreen-bottom" d="M 602.1022455805064 264.1662685140946 L 602.1022455805064 250.40611562350693 L 603.8222646918299 259.5795508838987 L 599.235547061634 259.5795508838987" fill="none" stroke="#5da9e9" stroke-width="1.433349259436216" stroke-linecap="round" stroke-linejoin="round" data-pcb-component-id="null" data-pcb-silkscreen-path-id="pcb_silkscreen_path_25" data-type="pcb_silkscreen_path" data-pcb-layer="bottom"/><path class="pcb-silkscreen pcb-silkscreen-bottom" d="M 597.5155279503106 250.40611562350693 L 597.5155279503106 259.5795508838987 L 595.2221691352127 260.7262302914477 L 591.7821309125657 260.1528905876732" fill="none" stroke="#5da9e9" stroke-width="1.433349259436216" stroke-linecap="round" stroke-linejoin="round" data-pcb-component-id="null" data-pcb-silkscreen-path-id="pcb_silkscreen_path_26" data-type="pcb_silkscreen_path" data-pcb-layer="bottom"/><path class="pcb-silkscreen pcb-silkscreen-bottom" d="M 590.6354515050167 259.5795508838987 L 584.9020544672719 259.5795508838987 L 584.9020544672719 250.40611562350693 L 590.6354515050167 250.40611562350693 L 590.6354515050167 259.5795508838987 Z" fill="none" stroke="#5da9e9" stroke-width="1.433349259436216" stroke-linecap="round" stroke-linejoin="round" data-pcb-component-id="null" data-pcb-silkscreen-path-id="pcb_silkscreen_path_27" data-type="pcb_silkscreen_path" data-pcb-layer="bottom"/><path class="pcb-silkscreen pcb-silkscreen-bottom" d="M 583.1820353559484 250.40611562350693 L 583.1820353559484 259.5795508838987 L 580.8886765408505 260.7262302914477 L 577.4486383182035 259.5795508838987 L 577.4486383182035 250.40611562350693" fill="none" stroke="#5da9e9" stroke-width="1.433349259436216" stroke-linecap="round" stroke-linejoin="round" data-pcb-component-id="null" data-pcb-silkscreen-path-id="pcb_silkscreen_path_28" data-type="pcb_silkscreen_path" data-pcb-layer="bottom"/><rect class="pcb-pad" fill="rgb(200, 52, 52)" x="297.5155279503105" y="267.7496416626851" width="35.833731485905396" height="35.833731485905396" data-type="pcb_smtpad" data-pcb-layer="top"/><rect class="pcb-pad" fill="rgb(200, 52, 52)" x="466.65074056378404" y="267.7496416626851" width="35.833731485905396" height="35.833731485905396" data-type="pcb_smtpad" data-pcb-layer="top"/><rect class="pcb-pad" fill="rgb(200, 52, 52)" x="369.89966555183946" y="221.88246536072626" width="17.20019111323459" height="12.900143334925943" data-type="pcb_smtpad" data-pcb-layer="top"/><rect class="pcb-pad" fill="rgb(200, 52, 52)" x="391.3999044433827" y="221.88246536072626" width="17.20019111323459" height="12.900143334925943" data-type="pcb_smtpad" data-pcb-layer="top"/><rect class="pcb-pad" fill="rgb(200, 52, 52)" x="412.90014333492593" y="221.88246536072626" width="17.20019111323459" height="12.900143334925943" data-type="pcb_smtpad" data-pcb-layer="top"/><rect class="pcb-pad" fill="rgb(200, 52, 52)" x="382.4414715719064" y="192.85714285714286" width="11.466794075489728" height="13.616817964644051" data-type="pcb_smtpad" data-pcb-layer="top"/><rect class="pcb-pad" fill="rgb(200, 52, 52)" x="406.0917343526039" y="192.85714285714286" width="11.466794075489728" height="13.616817964644051" data-type="pcb_smtpad" data-pcb-layer="top"/><path class="pcb-trace" stroke="rgb(200, 52, 52)" fill="none" d="M 381.79646440516007 343.00047778308647 L 433.3421588299019 291.4547833583446" stroke-width="2.150023889154324" stroke-linecap="round" stroke-linejoin="round" shape-rendering="crispEdges" data-type="pcb_trace" data-pcb-layer="top"/><path class="pcb-trace" stroke="rgb(200, 52, 52)" fill="none" d="M 433.3421588299019 291.4547833583446 L 433.3421588299019 213.8511493113196" stroke-width="2.150023889154324" stroke-linecap="round" stroke-linejoin="round" shape-rendering="crispEdges" data-type="pcb_trace" data-pcb-layer="top"/><path class="pcb-trace" stroke="rgb(200, 52, 52)" fill="none" d="M 433.3421588299019 213.8511493113196 L 426.0107288622035 213.8511493113196" stroke-width="2.150023889154324" stroke-linecap="round" stroke-linejoin="round" shape-rendering="crispEdges" data-type="pcb_trace" data-pcb-layer="top"/><path class="pcb-trace" stroke="rgb(200, 52, 52)" fill="none" d="M 426.0107288622035 213.8511493113196 L 411.82513139034876 199.66555183946488" stroke-width="2.150023889154324" stroke-linecap="round" stroke-linejoin="round" shape-rendering="crispEdges" data-type="pcb_trace" data-pcb-layer="top"/><path class="pcb-trace" stroke="rgb(200, 52, 52)" fill="none" d="M 388.17486860965124 199.66555183946488 L 388.17486860965124 216.5074056378404" stroke-width="2.150023889154324" stroke-linecap="round" stroke-linejoin="round" shape-rendering="crispEdges" data-type="pcb_trace" data-pcb-layer="top"/><path class="pcb-trace" stroke="rgb(200, 52, 52)" fill="none" d="M 388.17486860965124 216.5074056378404 L 400 228.33253702818922" stroke-width="2.150023889154324" stroke-linecap="round" stroke-linejoin="round" shape-rendering="crispEdges" data-type="pcb_trace" data-pcb-layer="top"/><path class="pcb-trace" stroke="rgb(200, 52, 52)" fill="none" d="M 418.20353559483993 343.00047778308647 L 427.2336359292881 343.00047778308647" stroke-width="2.150023889154324" stroke-linecap="round" stroke-linejoin="round" shape-rendering="crispEdges" data-type="pcb_trace" data-pcb-layer="top"/><path class="pcb-trace" stroke="rgb(200, 52, 52)" fill="none" d="M 427.2336359292881 343.00047778308647 L 484.56760630673676 285.66650740563784" stroke-width="2.150023889154324" stroke-linecap="round" stroke-linejoin="round" shape-rendering="crispEdges" data-type="pcb_trace" data-pcb-layer="top"/><path class="pcb-trace" stroke="rgb(200, 52, 52)" fill="none" d="M 378.49976110845677 228.33253702818922 L 372.7663640707119 228.33253702818922" stroke-width="2.150023889154324" stroke-linecap="round" stroke-linejoin="round" shape-rendering="crispEdges" data-type="pcb_trace" data-pcb-layer="top"/><path class="pcb-trace" stroke="rgb(200, 52, 52)" fill="none" d="M 372.7663640707119 228.33253702818922 L 315.43239369326324 285.66650740563784" stroke-width="2.150023889154324" stroke-linecap="round" stroke-linejoin="round" shape-rendering="crispEdges" data-type="pcb_trace" data-pcb-layer="top"/><path class="pcb-silkscreen pcb-silkscreen-top" d="M 315.43239369326324 314.33349259436216 L 315.43239369326324 256.99952221691353" fill="none" stroke="#f2eda1" stroke-width="1.433349259436216" stroke-linecap="round" stroke-linejoin="round" data-pcb-component-id="pcb_component_0" data-pcb-silkscreen-path-id="pcb_silkscreen_path_0" data-type="pcb_silkscreen_path" data-pcb-layer="top"/><path class="pcb-silkscreen pcb-silkscreen-top" d="M 306.83229813664593 285.66650740563784 L 324.03248924988054 285.66650740563784" fill="none" stroke="#f2eda1" stroke-width="1.433349259436216" stroke-linecap="round" stroke-linejoin="round" data-pcb-component-id="pcb_component_0" data-pcb-silkscreen-path-id="pcb_silkscreen_path_1" data-type="pcb_silkscreen_path" data-pcb-layer="top"/><text x="0" y="0" dx="0" dy="0" fill="#f2eda1" font-family="Arial, sans-serif" font-size="14.33349259436216" text-anchor="middle" dominant-baseline="central" transform="matrix(1,0,0,1,315.43239369326324,328.6669851887243)" class="pcb-silkscreen-text pcb-silkscreen-top" data-pcb-silkscreen-text-id="pcb_component_0" stroke="none" data-type="pcb_silkscreen_text" data-pcb-layer="top">+</text><text x="0" y="0" dx="0" dy="0" fill="#f2eda1" font-family="Arial, sans-serif" font-size="14.33349259436216" text-anchor="middle" dominant-baseline="central" transform="matrix(1,0,0,1,484.56760630673676,328.6669851887243)" class="pcb-silkscreen-text pcb-silkscreen-top" data-pcb-silkscreen-text-id="pcb_component_0" stroke="none" data-type="pcb_silkscreen_text" data-pcb-layer="top">-</text><path class="pcb-silkscreen pcb-silkscreen-top" d="M 364.1662685140946 249.83277591973246 L 435.8337314859054 249.83277591973246 L 435.8337314859054 206.83229813664596 L 364.1662685140946 206.83229813664596 L 364.1662685140946 249.83277591973246 Z" fill="none" stroke="#f2eda1" stroke-width="1.433349259436216" stroke-linecap="round" stroke-linejoin="round" data-pcb-component-id="pcb_component_1" data-pcb-silkscreen-path-id="pcb_silkscreen_path_2" data-type="pcb_silkscreen_path" data-pcb-layer="top"/><path class="pcb-silkscreen pcb-silkscreen-top" d="M 411.82513139034876 187.12374581939798 L 379.57477305303394 187.12374581939798 L 379.57477305303394 212.20735785953178 L 411.82513139034876 212.20735785953178" fill="none" stroke="#f2eda1" stroke-width="1.433349259436216" stroke-linecap="round" stroke-linejoin="round" data-pcb-component-id="pcb_component_2" data-pcb-silkscreen-path-id="pcb_silkscreen_path_3" data-type="pcb_silkscreen_path" data-pcb-layer="top"/><text x="0" y="0" dx="0" dy="0" fill="#f2eda1" font-family="Arial, sans-serif" font-size="5.733397037744864" text-anchor="middle" dominant-baseline="central" transform="matrix(1,0,0,1,400,179.9569995222169)" class="pcb-silkscreen-text pcb-silkscreen-top" data-pcb-silkscreen-text-id="pcb_component_2" stroke="none" data-type="pcb_silkscreen_text" data-pcb-layer="top">R1</text><path class="pcb-silkscreen pcb-silkscreen-top" d="M 450.4538939321548 343.00047778308647 L 443.7171524128046 317.7735308170091 L 425.2269469660774 299.2833253702819 L 400 292.54658385093165 L 374.7730530339226 299.2833253702819 L 356.2828475871954 317.7735308170091 L 349.5461060678452 343.00047778308647 L 356.2828475871954 368.2274247491639 L 374.7730530339226 386.71763019589105 L 400 393.4543717152413 L 425.2269469660774 386.71763019589105 L 443.7171524128046 368.2274247491639 L 450.4538939321548 343.00047778308647 Z" fill="none" stroke="#f2eda1" stroke-width="1.433349259436216" stroke-linecap="round" stroke-linejoin="round" data-pcb-component-id="pcb_component_3" data-pcb-silkscreen-path-id="pcb_silkscreen_path_4" data-type="pcb_silkscreen_path" data-pcb-layer="top"/><path class="pcb-silkscreen pcb-silkscreen-top" d="M 436.2637362637363 377.25752508361205 L 436.2637362637363 308.74343048256094" fill="none" stroke="#f2eda1" stroke-width="1.433349259436216" stroke-linecap="round" stroke-linejoin="round" data-pcb-component-id="pcb_component_3" data-pcb-silkscreen-path-id="pcb_silkscreen_path_5" data-type="pcb_silkscreen_path" data-pcb-layer="top"/><text x="0" y="0" dx="0" dy="0" fill="#f2eda1" font-family="Arial, sans-serif" font-size="11.466794075489728" text-anchor="middle" dominant-baseline="central" transform="matrix(1,0,0,1,381.79646440516007,371.6674629718108)" class="pcb-silkscreen-text pcb-silkscreen-top" data-pcb-silkscreen-text-id="pcb_component_3" stroke="none" data-type="pcb_silkscreen_text" data-pcb-layer="top">+</text><g data-type="pcb_plated_hole" data-pcb-layer="through"><circle class="pcb-hole-outer" fill="rgb(200, 52, 52)" cx="381.79646440516007" cy="343.00047778308647" r="12.900143334925943" data-type="pcb_plated_hole" data-pcb-layer="top"/><circle class="pcb-hole-inner" fill="#FF26E2" cx="381.79646440516007" cy="343.00047778308647" r="7.16674629718108" data-type="pcb_plated_hole_drill" data-pcb-layer="drill"/></g><g data-type="pcb_plated_hole" data-pcb-layer="through"><circle class="pcb-hole-outer" fill="rgb(200, 52, 52)" cx="418.20353559483993" cy="343.00047778308647" r="12.900143334925943" data-type="pcb_plated_hole" data-pcb-layer="top"/><circle class="pcb-hole-inner" fill="#FF26E2" cx="418.20353559483993" cy="343.00047778308647" r="7.16674629718108" data-type="pcb_plated_hole_drill" data-pcb-layer="drill"/></g><circle class="pcb-hole" cx="529.0014333492594" cy="56.3306258958433" r="17.916865742952698" fill="#FF26E2" data-type="pcb_hole" data-pcb-layer="drill"/></svg>