<svg xmlns="http://www.w3.org/2000/svg" width="800" height="600" data-software-used-string="@tscircuit/core@0.0.1112"><style></style><rect class="boundary" x="0" y="0" fill="#000" width="800" height="600" data-type="pcb_background" data-pcb-layer="global"/><rect class="pcb-boundary" fill="none" stroke="#fff" stroke-width="0.3" x="77.49641662685144" y="14.333492594362156" width="645.0071667462971" height="571.3330148112757" data-type="pcb_boundary" data-pcb-layer="global"/><path class="pcb-board" d="M 722.5035833731486 300 L 719.6368848542761 316.7701863354037 L 711.0367892976589 332.6803631151457 L 696.8466316292404 347.0138557095079 L 677.7830864787386 359.0539894887721 L 654.562828475872 368.08408982322027 L 627.7591973244147 373.96082178690875 L 598.3755375059723 376.25418060200667 L 567.2718585762063 374.53416149068323 L 535.8815097945533 369.0874343048256 L 504.77783086478735 360.4873387482083 L 527.8547539417104 382.9909221213569 L 548.2083134257048 407.6445293836598 L 565.1218346870521 433.58815097945535 L 578.021978021978 460.2484472049689 L 586.1920688007644 486.19206880076445 L 590.0621118012423 510.989010989011 L 589.0587673196369 533.6359292881032 L 583.7553750597228 552.9861442904921 L 574.2952699474439 568.4663162924032 L 561.2517916865743 579.3597706641185 L 545.3416149068323 585.2365026278069 L 527.1380793119923 585.6665074056378 L 507.6445293836598 580.5064500716675 L 487.72097467749643 570.0430004777832 L 468.08408982322027 554.562828475872 L 449.7372193024367 534.2092689918777 L 433.2537028189202 509.842331581462 L 419.2068800764453 482.17869087434303 L 408.0267558528428 452.22169135212613 L 400 420.97467749641663 L 391.9732441471572 452.22169135212613 L 380.7931199235547 482.17869087434303 L 366.7462971810798 509.842331581462 L 350.2627806975633 534.2092689918777 L 331.91591017677973 554.562828475872 L 312.27902532250357 570.0430004777832 L 292.3554706163402 580.5064500716675 L 272.8619206880077 585.6665074056378 L 254.6583850931677 585.2365026278069 L 238.74820831342572 579.3597706641185 L 225.70473005255613 568.4663162924032 L 216.2446249402771 552.9861442904921 L 210.94123268036313 533.6359292881032 L 209.93788819875778 510.989010989011 L 213.80793119923555 486.19206880076445 L 221.97802197802199 460.2484472049689 L 234.87816531294794 433.58815097945535 L 251.79168657429528 407.6445293836598 L 272.14524605828956 382.9909221213569 L 295.22216913521265 360.4873387482083 L 264.11849020544673 369.0874343048256 L 232.7281414237936 374.53416149068323 L 201.6244624940277 376.25418060200667 L 172.2408026755853 373.96082178690875 L 145.43717152412802 368.08408982322027 L 122.21691352126135 359.0539894887721 L 103.15336837075967 347.0138557095079 L 88.96321070234114 332.6803631151457 L 80.36311514572384 316.7701863354037 L 77.49641662685144 300 L 80.36311514572384 283.2298136645963 L 88.96321070234114 267.3196368848543 L 103.15336837075967 252.98614429049212 L 122.21691352126135 240.9460105112279 L 145.43717152412802 231.91591017677973 L 172.2408026755853 226.03917821309125 L 201.6244624940277 223.74581939799333 L 232.7281414237936 225.46583850931677 L 264.11849020544673 230.9125656951744 L 295.22216913521265 239.51266125179168 L 272.14524605828956 217.0090778786431 L 251.79168657429528 192.3554706163402 L 234.87816531294794 166.41184902054468 L 221.97802197802199 139.75155279503107 L 213.80793119923555 113.80793119923555 L 209.93788819875778 89.01098901098902 L 210.94123268036313 66.3640707118968 L 216.2446249402771 47.01385570950791 L 225.70473005255613 31.533683707596765 L 238.74820831342572 20.640229335881543 L 254.6583850931677 14.763497372193058 L 272.8619206880077 14.333492594362156 L 292.3554706163402 19.493549928332527 L 312.27902532250357 29.956999522216904 L 331.91591017677973 45.43717152412802 L 350.2627806975633 65.79073100812232 L 366.7462971810798 90.15766841853798 L 380.7931199235547 117.82130912565694 L 391.9732441471572 147.77830864787387 L 400 179.02532250358337 L 408.0267558528428 147.77830864787387 L 419.2068800764453 117.82130912565694 L 433.2537028189202 90.15766841853798 L 449.7372193024367 65.79073100812232 L 468.08408982322027 45.43717152412802 L 487.72097467749643 29.956999522216904 L 507.6445293836598 19.493549928332527 L 527.1380793119923 14.333492594362156 L 545.3416149068323 14.763497372193058 L 561.2517916865743 20.640229335881543 L 574.2952699474439 31.533683707596765 L 583.7553750597228 47.01385570950791 L 589.0587673196369 66.3640707118968 L 590.0621118012423 89.01098901098902 L 586.1920688007644 113.80793119923555 L 578.021978021978 139.75155279503107 L 565.1218346870521 166.41184902054468 L 548.2083134257048 192.3554706163402 L 527.8547539417104 217.0090778786431 L 504.77783086478735 239.51266125179168 L 535.8815097945533 230.9125656951744 L 567.2718585762063 225.46583850931677 L 598.3755375059723 223.74581939799333 L 627.7591973244147 226.03917821309125 L 654.562828475872 231.91591017677973 L 677.7830864787386 240.9460105112279 L 696.8466316292404 252.98614429049212 L 711.0367892976589 267.3196368848543 L 719.6368848542761 283.2298136645963 Z" fill="none" stroke="rgba(255, 255, 255, 0.5)" stroke-width="1.433349259436216" data-type="pcb_board" data-pcb-layer="board"/><path class="pcb-trace" stroke="rgb(77, 127, 196)" fill="none" d="M 413.7064022933588 189.2737697085523 L 413.7064022933588 189.2737697085523" stroke-width="2.150023889154324" stroke-linecap="round" stroke-linejoin="round" shape-rendering="crispEdges" data-type="pcb_trace" data-pcb-layer="bottom"/><path class="pcb-trace" stroke="rgb(77, 127, 196)" fill="none" d="M 413.7064022933588 189.2737697085523 L 413.7064022933588 202.0843287147635" stroke-width="2.150023889154324" stroke-linecap="round" stroke-linejoin="round" shape-rendering="crispEdges" data-type="pcb_trace" data-pcb-layer="bottom"/><path class="pcb-trace" stroke="rgb(77, 127, 196)" fill="none" d="M 413.7064022933588 202.0843287147635 L 418.0960344003822 206.4739608217869" stroke-width="2.150023889154324" stroke-linecap="round" stroke-linejoin="round" shape-rendering="crispEdges" data-type="pcb_trace" data-pcb-layer="bottom"/><path class="pcb-trace" stroke="rgb(77, 127, 196)" fill="none" d="M 394.26660296225515 317.2001911132346 L 394.26660296225515 317.2001911132346" stroke-width="2.150023889154324" stroke-linecap="round" stroke-linejoin="round" shape-rendering="crispEdges" data-type="pcb_trace" data-pcb-layer="bottom"/><path class="pcb-trace" stroke="rgb(77, 127, 196)" fill="none" d="M 394.26660296225515 317.2001911132346 L 394.26660296225515 231.7960911371237" stroke-width="2.150023889154324" stroke-linecap="round" stroke-linejoin="round" shape-rendering="crispEdges" data-type="pcb_trace" data-pcb-layer="bottom"/><path class="pcb-trace" stroke="rgb(77, 127, 196)" fill="none" d="M 394.26660296225515 231.7960911371237 L 419.588733277592 206.47396082178687" stroke-width="2.150023889154324" stroke-linecap="round" stroke-linejoin="round" shape-rendering="crispEdges" data-type="pcb_trace" data-pcb-layer="bottom"/><path class="pcb-silkscreen pcb-silkscreen-bottom" d="M 110.03344481605353 286.66985188724317 L 98.99665551839468 313.7601528905877 L 109.60344003822269 313.7601528905877 L 114.90683229813664 298.7099856665074 L 120.21022455805064 313.7601528905877 L 130.3870043000478 313.7601528905877 L 119.35021500238895 286.66985188724317 L 110.03344481605353 286.66985188724317 Z" fill="none" stroke="#5da9e9" stroke-width="1.433349259436216" stroke-linecap="round" stroke-linejoin="round" data-pcb-component-id="null" data-pcb-silkscreen-path-id="pcb_silkscreen_path_6" data-type="pcb_silkscreen_path" data-pcb-layer="bottom"/><path class="pcb-silkscreen pcb-silkscreen-bottom" d="M 142.14046822742472 286.66985188724317 L 132.25035833731488 286.66985188724317 L 132.25035833731488 313.7601528905877 L 142.14046822742472 313.7601528905877 L 142.14046822742472 286.66985188724317 Z" fill="none" stroke="#5da9e9" stroke-width="1.433349259436216" stroke-linecap="round" stroke-linejoin="round" data-pcb-component-id="null" data-pcb-silkscreen-path-id="pcb_silkscreen_path_7" data-type="pcb_silkscreen_path" data-pcb-layer="bottom"/><path class="pcb-silkscreen pcb-silkscreen-bottom" d="M 169.6607740086001 313.7601528905877 L 169.6607740086001 307.5967510750119 L 158.05064500716676 294.55327281414236 L 169.80410893454373 294.55327281414236 L 169.80410893454373 286.66985188724317 L 144.86383182035357 286.66985188724317 L 144.86383182035357 292.97658862876256 L 156.47396082178693 305.8767319636885 L 145.58050645007168 305.8767319636885 L 145.58050645007168 313.7601528905877 L 169.6607740086001 313.7601528905877 Z" fill="none" stroke="#5da9e9" stroke-width="1.433349259436216" stroke-linecap="round" stroke-linejoin="round" data-pcb-component-id="null" data-pcb-silkscreen-path-id="pcb_silkscreen_path_8" data-type="pcb_silkscreen_path" data-pcb-layer="bottom"/><path class="pcb-silkscreen pcb-silkscreen-bottom" d="M 170.66411849020545 300.28666985188727 L 170.9507883420927 303.15336837075967 L 171.6674629718108 306.0200668896321 L 172.9574773053034 308.45676063067367 L 174.82083134257047 310.4634495938844 L 176.97085523172478 312.1834687052078 L 179.40754897276636 313.4734830387004 L 182.27424749163882 314.33349259436216 L 185.42761586239845 314.6201624462494 L 187.86430960344003 314.33349259436216 L 190.3010033444816 313.7601528905877 L 191.73435260391784 313.1868131868132 L 191.73435260391784 304.15671285236505 L 190.01433349259437 305.01672240802674 L 188.1509794553273 305.5900621118012 L 186.8609651218347 305.5900621118012 L 184.42427138079313 305.303392259914 L 182.56091734352606 304.15671285236505 L 181.27090301003346 302.43669374104155 L 180.69756330625896 300.28666985188727 L 181.27090301003346 297.9933110367893 L 182.41758241758242 296.27329192546586 L 184.42427138079313 295.12661251791684 L 186.8609651218347 294.83994266602963 L 188.1509794553273 294.83994266602963 L 190.01433349259437 295.4132823698041 L 191.73435260391784 296.41662685140943 L 191.73435260391784 287.3865265169613 L 189.29765886287626 286.38318203535596 L 186.8609651218347 285.9531772575251 L 185.28428093645485 285.9531772575251 L 182.27424749163882 286.0965121834687 L 179.40754897276636 286.95652173913044 L 176.97085523172478 288.1032011466794 L 174.82083134257047 289.8232202580029 L 173.10081223124703 291.8299092212136 L 171.81079789775444 294.26660296225515 L 170.9507883420927 297.13330148112755 L 170.66411849020545 300.28666985188727 Z" fill="none" stroke="#5da9e9" stroke-width="1.433349259436216" stroke-linecap="round" stroke-linejoin="round" data-pcb-component-id="null" data-pcb-silkscreen-path-id="pcb_silkscreen_path_9" data-type="pcb_silkscreen_path" data-pcb-layer="bottom"/><path class="pcb-silkscreen pcb-silkscreen-bottom" d="M 208.7912087912088 314.6201624462494 L 211.80124223602488 314.33349259436216 L 214.66794075489727 313.4734830387004 L 217.24796942188246 312.1834687052078 L 219.5413282369804 310.4634495938844 L 221.40468227424748 308.31342570473004 L 222.69469660774007 305.8767319636885 L 223.55470616340182 303.15336837075967 L 223.8413760152891 300.28666985188727 L 223.55470616340182 297.2766364070712 L 222.69469660774007 294.55327281414236 L 221.40468227424748 292.1165790731008 L 219.5413282369804 289.96655518394647 L 217.24796942188246 288.24653607262303 L 214.66794075489727 286.95652173913044 L 211.80124223602488 286.0965121834687 L 208.7912087912088 285.9531772575251 L 205.63784042044912 286.0965121834687 L 202.7711419015767 286.95652173913044 L 200.1911132345915 288.24653607262303 L 197.89775441949357 289.96655518394647 L 196.03440038222647 292.1165790731008 L 194.74438604873387 294.55327281414236 L 193.88437649307215 297.2766364070712 L 193.5977066411849 300.28666985188727 L 193.88437649307215 303.15336837075967 L 194.74438604873387 305.8767319636885 L 196.03440038222647 308.31342570473004 L 197.89775441949357 310.4634495938844 L 200.1911132345915 312.1834687052078 L 202.7711419015767 313.4734830387004 L 205.63784042044912 314.33349259436216 L 208.7912087912088 314.6201624462494 Z" fill="none" stroke="#5da9e9" stroke-width="1.433349259436216" stroke-linecap="round" stroke-linejoin="round" data-pcb-component-id="null" data-pcb-silkscreen-path-id="pcb_silkscreen_path_10" data-type="pcb_silkscreen_path" data-pcb-layer="bottom"/><path class="pcb-silkscreen pcb-silkscreen-bottom" d="M 208.7912087912088 305.5900621118012 L 206.64118490205448 305.16005733397037 L 204.921165790731 304.0133779264214 L 203.77448638318205 302.2933588150979 L 203.34448160535118 300.28666985188727 L 203.77448638318205 298.1366459627329 L 204.921165790731 296.41662685140943 L 206.64118490205448 295.2699474438605 L 208.7912087912088 294.83994266602963 L 210.79789775441952 295.2699474438605 L 212.51791686574296 296.41662685140943 L 213.66459627329192 298.1366459627329 L 214.0946010511228 300.28666985188727 L 213.66459627329192 302.2933588150979 L 212.51791686574296 304.0133779264214 L 210.79789775441952 305.16005733397037 L 208.7912087912088 305.5900621118012 Z" fill="none" stroke="#5da9e9" stroke-width="1.433349259436216" stroke-linecap="round" stroke-linejoin="round" data-pcb-component-id="null" data-pcb-silkscreen-path-id="pcb_silkscreen_path_11" data-type="pcb_silkscreen_path" data-pcb-layer="bottom"/><path class="pcb-silkscreen pcb-silkscreen-bottom" d="M 235.59483994266603 301.2900143334926 L 235.59483994266603 286.5265169612996 L 225.56139512661252 286.5265169612996 L 225.56139512661252 313.7601528905877 L 235.59483994266603 313.7601528905877 L 235.59483994266603 310.606784519828 L 237.74486383182037 312.7568084089823 L 240.61156235069276 314.1901576684185 L 243.04825609173437 314.4768275203058 L 245.62828475871956 314.1901576684185 L 248.63831820353562 312.7568084089823 L 250.78834209268993 310.1767797419971 L 253.36837075967512 312.90014333492593 L 256.808408982322 314.33349259436216 L 259.24510272336363 314.4768275203058 L 263.4018155757286 313.7601528905877 L 266.41184902054465 311.61012900143334 L 268.13186813186815 308.45676063067367 L 268.84854276158626 304.0133779264214 L 268.84854276158626 286.5265169612996 L 258.8150979455327 286.5265169612996 L 258.8150979455327 301.4333492594362 L 258.24175824175825 303.72670807453414 L 256.95174390826566 305.16005733397037 L 255.51839464882943 305.44672718585764 L 254.22838031533684 305.16005733397037 L 252.79503105590064 303.72670807453414 L 252.22169135212616 301.2900143334926 L 252.22169135212616 286.5265169612996 L 242.18824653607263 286.5265169612996 L 242.18824653607263 301.4333492594362 L 241.75824175824178 303.72670807453414 L 240.32489249880553 305.16005733397037 L 239.03487816531296 305.44672718585764 L 237.60152890587673 305.16005733397037 L 236.16817964644054 303.72670807453414 L 235.59483994266603 301.2900143334926 Z" fill="none" stroke="#5da9e9" stroke-width="1.433349259436216" stroke-linecap="round" stroke-linejoin="round" data-pcb-component-id="null" data-pcb-silkscreen-path-id="pcb_silkscreen_path_12" data-type="pcb_silkscreen_path" data-pcb-layer="bottom"/><path class="pcb-silkscreen pcb-silkscreen-bottom" d="M 589.9187768752986 325.0836120401338 L 615.0023889154324 325.0836120401338 L 615.0023889154324 300 L 589.9187768752986 300 L 589.9187768752986 325.0836120401338 Z" fill="none" stroke="#5da9e9" stroke-width="1.433349259436216" stroke-linecap="round" stroke-linejoin="round" data-pcb-component-id="null" data-pcb-silkscreen-path-id="pcb_silkscreen_path_13" data-type="pcb_silkscreen_path" data-pcb-layer="bottom"/><path class="pcb-silkscreen pcb-silkscreen-bottom" d="M 602.5322503583373 312.4701385570951 L 627.6158623984711 312.4701385570951 L 627.6158623984711 287.3865265169613 L 602.5322503583373 287.3865265169613 L 602.5322503583373 312.4701385570951 Z" fill="none" stroke="#5da9e9" stroke-width="1.433349259436216" stroke-linecap="round" stroke-linejoin="round" data-pcb-component-id="null" data-pcb-silkscreen-path-id="pcb_silkscreen_path_14" data-type="pcb_silkscreen_path" data-pcb-layer="bottom"/><path class="pcb-silkscreen pcb-silkscreen-bottom" d="M 615.0023889154324 300 L 640.0860009555662 300 L 640.0860009555662 274.9163879598662 L 615.0023889154324 274.9163879598662 L 615.0023889154324 300 Z" fill="none" stroke="#5da9e9" stroke-width="1.433349259436216" stroke-linecap="round" stroke-linejoin="round" data-pcb-component-id="null" data-pcb-silkscreen-path-id="pcb_silkscreen_path_15" data-type="pcb_silkscreen_path" data-pcb-layer="bottom"/><path class="pcb-silkscreen pcb-silkscreen-bottom" d="M 602.5322503583373 312.4701385570951 L 615.0023889154324 300" fill="none" stroke="#5da9e9" stroke-width="1.433349259436216" stroke-linecap="round" stroke-linejoin="round" data-pcb-component-id="null" data-pcb-silkscreen-path-id="pcb_silkscreen_path_16" data-type="pcb_silkscreen_path" data-pcb-layer="bottom"/><path class="pcb-silkscreen pcb-silkscreen-bottom" d="M 615.0023889154324 300 L 627.6158623984711 287.3865265169613" fill="none" stroke="#5da9e9" stroke-width="1.433349259436216" stroke-linecap="round" stroke-linejoin="round" data-pcb-component-id="null" data-pcb-silkscreen-path-id="pcb_silkscreen_path_17" data-type="pcb_silkscreen_path" data-pcb-layer="bottom"/><text x="0" y="0" dx="0" dy="0" fill="#5da9e9" font-family="Arial, sans-serif" font-size="14.33349259436216" text-anchor="middle" dominant-baseline="central" transform="matrix(-1,0,0,1,615.0023889154324,264.1662685140946)" class="pcb-silkscreen-text pcb-silkscreen-bottom" data-pcb-silkscreen-text-id="null" stroke="none" data-type="pcb_silkscreen_text" data-pcb-layer="bottom">Telemetron</text><rect class="pcb-pad" fill="rgb(200, 52, 52)" x="297.5155279503105" y="267.7496416626851" width="35.833731485905396" height="35.833731485905396" data-type="pcb_smtpad" data-pcb-layer="top"/><rect class="pcb-pad" fill="rgb(200, 52, 52)" x="466.65074056378404" y="267.7496416626851" width="35.833731485905396" height="35.833731485905396" data-type="pcb_smtpad" data-pcb-layer="top"/><rect class="pcb-pad" fill="rgb(200, 52, 52)" x="369.89966555183946" y="221.88246536072626" width="17.20019111323459" height="12.900143334925943" data-type="pcb_smtpad" data-pcb-layer="top"/><rect class="pcb-pad" fill="rgb(200, 52, 52)" x="391.3999044433827" y="221.88246536072626" width="17.20019111323459" height="12.900143334925943" data-type="pcb_smtpad" data-pcb-layer="top"/><rect class="pcb-pad" fill="rgb(200, 52, 52)" x="412.90014333492593" y="221.88246536072626" width="17.20019111323459" height="12.900143334925943" data-type="pcb_smtpad" data-pcb-layer="top"/><rect class="pcb-pad" fill="rgb(200, 52, 52)" x="382.4414715719064" y="192.85714285714286" width="11.466794075489728" height="13.616817964644051" data-type="pcb_smtpad" data-pcb-layer="top"/><rect class="pcb-pad" fill="rgb(200, 52, 52)" x="406.0917343526039" y="192.85714285714286" width="11.466794075489728" height="13.616817964644051" data-type="pcb_smtpad" data-pcb-layer="top"/><path class="pcb-trace" stroke="rgb(200, 52, 52)" fill="none" d="M 411.82513139034876 199.66555183946488 L 411.82513139034876 191.08018411645776" stroke-width="2.150023889154324" stroke-linecap="round" stroke-linejoin="round" shape-rendering="crispEdges" data-type="pcb_trace" data-pcb-layer="top"/><path class="pcb-trace" stroke="rgb(200, 52, 52)" fill="none" d="M 411.82513139034876 191.08018411645776 L 413.2988502644561 189.6064652423504" stroke-width="2.150023889154324" stroke-linecap="round" stroke-linejoin="round" shape-rendering="crispEdges" data-type="pcb_trace" data-pcb-layer="top"/><path class="pcb-trace" stroke="rgb(200, 52, 52)" fill="none" d="M 413.2988502644561 189.6064652423504 L 413.7064022933588 189.2737697085523" stroke-width="2.150023889154324" stroke-linecap="round" stroke-linejoin="round" shape-rendering="crispEdges" data-type="pcb_trace" data-pcb-layer="top"/><path class="pcb-trace" stroke="rgb(200, 52, 52)" fill="none" d="M 413.7064022933588 189.2737697085523 L 413.7064022933588 189.2737697085523" stroke-width="2.150023889154324" stroke-linecap="round" stroke-linejoin="round" shape-rendering="crispEdges" data-type="pcb_trace" data-pcb-layer="top"/><path class="pcb-trace" stroke="rgb(200, 52, 52)" fill="none" d="M 381.79646440516007 343.00047778308647 L 381.79646440516007 329.6703296703297" stroke-width="2.150023889154324" stroke-linecap="round" stroke-linejoin="round" shape-rendering="crispEdges" data-type="pcb_trace" data-pcb-layer="top"/><path class="pcb-trace" stroke="rgb(200, 52, 52)" fill="none" d="M 381.79646440516007 329.6703296703297 L 392.64023873237846 318.82655534311124" stroke-width="2.150023889154324" stroke-linecap="round" stroke-linejoin="round" shape-rendering="crispEdges" data-type="pcb_trace" data-pcb-layer="top"/><path class="pcb-trace" stroke="rgb(200, 52, 52)" fill="none" d="M 392.64023873237846 318.82655534311124 L 394.26660296225515 317.2001911132346" stroke-width="2.150023889154324" stroke-linecap="round" stroke-linejoin="round" shape-rendering="crispEdges" data-type="pcb_trace" data-pcb-layer="top"/><path class="pcb-trace" stroke="rgb(200, 52, 52)" fill="none" d="M 394.26660296225515 317.2001911132346 L 394.26660296225515 317.2001911132346" stroke-width="2.150023889154324" stroke-linecap="round" stroke-linejoin="round" shape-rendering="crispEdges" data-type="pcb_trace" data-pcb-layer="top"/><path class="pcb-trace" stroke="rgb(200, 52, 52)" fill="none" d="M 388.17486860965124 199.66555183946488 L 388.17486860965124 216.5074056378404" stroke-width="2.150023889154324" stroke-linecap="round" stroke-linejoin="round" shape-rendering="crispEdges" data-type="pcb_trace" data-pcb-layer="top"/><path class="pcb-trace" stroke="rgb(200, 52, 52)" fill="none" d="M 388.17486860965124 216.5074056378404 L 400 228.33253702818922" stroke-width="2.150023889154324" stroke-linecap="round" stroke-linejoin="round" shape-rendering="crispEdges" data-type="pcb_trace" data-pcb-layer="top"/><path class="pcb-trace" stroke="rgb(200, 52, 52)" fill="none" d="M 418.20353559483993 343.00047778308647 L 427.2336359292881 343.00047778308647" stroke-width="2.150023889154324" stroke-linecap="round" stroke-linejoin="round" shape-rendering="crispEdges" data-type="pcb_trace" data-pcb-layer="top"/><path class="pcb-trace" stroke="rgb(200, 52, 52)" fill="none" d="M 427.2336359292881 343.00047778308647 L 484.56760630673676 285.66650740563784" stroke-width="2.150023889154324" stroke-linecap="round" stroke-linejoin="round" shape-rendering="crispEdges" data-type="pcb_trace" data-pcb-layer="top"/><path class="pcb-trace" stroke="rgb(200, 52, 52)" fill="none" d="M 378.49976110845677 228.33253702818922 L 372.7663640707119 228.33253702818922" stroke-width="2.150023889154324" stroke-linecap="round" stroke-linejoin="round" shape-rendering="crispEdges" data-type="pcb_trace" data-pcb-layer="top"/><path class="pcb-trace" stroke="rgb(200, 52, 52)" fill="none" d="M 372.7663640707119 228.33253702818922 L 315.43239369326324 285.66650740563784" stroke-width="2.150023889154324" stroke-linecap="round" stroke-linejoin="round" shape-rendering="crispEdges" data-type="pcb_trace" data-pcb-layer="top"/><path class="pcb-silkscreen pcb-silkscreen-top" d="M 315.43239369326324 314.33349259436216 L 315.43239369326324 256.99952221691353" fill="none" stroke="#f2eda1" stroke-width="1.433349259436216" stroke-linecap="round" stroke-linejoin="round" data-pcb-component-id="pcb_component_0" data-pcb-silkscreen-path-id="pcb_silkscreen_path_0" data-type="pcb_silkscreen_path" data-pcb-layer="top"/><path class="pcb-silkscreen pcb-silkscreen-top" d="M 306.83229813664593 285.66650740563784 L 324.03248924988054 285.66650740563784" fill="none" stroke="#f2eda1" stroke-width="1.433349259436216" stroke-linecap="round" stroke-linejoin="round" data-pcb-component-id="pcb_component_0" data-pcb-silkscreen-path-id="pcb_silkscreen_path_1" data-type="pcb_silkscreen_path" data-pcb-layer="top"/><text x="0" y="0" dx="0" dy="0" fill="#f2eda1" font-family="Arial, sans-serif" font-size="14.33349259436216" text-anchor="middle" dominant-baseline="central" transform="matrix(1,0,0,1,315.43239369326324,328.6669851887243)" class="pcb-silkscreen-text pcb-silkscreen-top" data-pcb-silkscreen-text-id="pcb_component_0" stroke="none" data-type="pcb_silkscreen_text" data-pcb-layer="top">+</text><text x="0" y="0" dx="0" dy="0" fill="#f2eda1" font-family="Arial, sans-serif" font-size="14.33349259436216" text-anchor="middle" dominant-baseline="central" transform="matrix(1,0,0,1,484.56760630673676,328.6669851887243)" class="pcb-silkscreen-text pcb-silkscreen-top" data-pcb-silkscreen-text-id="pcb_component_0" stroke="none" data-type="pcb_silkscreen_text" data-pcb-layer="top">-</text><path class="pcb-silkscreen pcb-silkscreen-top" d="M 364.1662685140946 249.83277591973246 L 435.8337314859054 249.83277591973246 L 435.8337314859054 206.83229813664596 L 364.1662685140946 206.83229813664596 L 364.1662685140946 249.83277591973246 Z" fill="none" stroke="#f2eda1" stroke-width="1.433349259436216" stroke-linecap="round" stroke-linejoin="round" data-pcb-component-id="pcb_component_1" data-pcb-silkscreen-path-id="pcb_silkscreen_path_2" data-type="pcb_silkscreen_path" data-pcb-layer="top"/><path class="pcb-silkscreen pcb-silkscreen-top" d="M 411.82513139034876 187.12374581939798 L 379.57477305303394 187.12374581939798 L 379.57477305303394 212.20735785953178 L 411.82513139034876 212.20735785953178" fill="none" stroke="#f2eda1" stroke-width="1.433349259436216" stroke-linecap="round" stroke-linejoin="round" data-pcb-component-id="pcb_component_2" data-pcb-silkscreen-path-id="pcb_silkscreen_path_3" data-type="pcb_silkscreen_path" data-pcb-layer="top"/><text x="0" y="0" dx="0" dy="0" fill="#f2eda1" font-family="Arial, sans-serif" font-size="5.733397037744864" text-anchor="middle" dominant-baseline="central" transform="matrix(1,0,0,1,400,179.9569995222169)" class="pcb-silkscreen-text pcb-silkscreen-top" data-pcb-silkscreen-text-id="pcb_component_2" stroke="none" data-type="pcb_silkscreen_text" data-pcb-layer="top">R1</text><path class="pcb-silkscreen pcb-silkscreen-top" d="M 450.4538939321548 343.00047778308647 L 443.7171524128046 317.7735308170091 L 425.2269469660774 299.2833253702819 L 400 292.54658385093165 L 374.7730530339226 299.2833253702819 L 356.2828475871954 317.7735308170091 L 349.5461060678452 343.00047778308647 L 356.2828475871954 368.2274247491639 L 374.7730530339226 386.71763019589105 L 400 393.4543717152413 L 425.2269469660774 386.71763019589105 L 443.7171524128046 368.2274247491639 L 450.4538939321548 343.00047778308647 Z" fill="none" stroke="#f2eda1" stroke-width="1.433349259436216" stroke-linecap="round" stroke-linejoin="round" data-pcb-component-id="pcb_component_3" data-pcb-silkscreen-path-id="pcb_silkscreen_path_4" data-type="pcb_silkscreen_path" data-pcb-layer="top"/><path class="pcb-silkscreen pcb-silkscreen-top" d="M 436.2637362637363 377.25752508361205 L 436.2637362637363 308.74343048256094" fill="none" stroke="#f2eda1" stroke-width="1.433349259436216" stroke-linecap="round" stroke-linejoin="round" data-pcb-component-id="pcb_component_3" data-pcb-silkscreen-path-id="pcb_silkscreen_path_5" data-type="pcb_silkscreen_path" data-pcb-layer="top"/><text x="0" y="0" dx="0" dy="0" fill="#f2eda1" font-family="Arial, sans-serif" font-size="11.466794075489728" text-anchor="middle" dominant-baseline="central" transform="matrix(1,0,0,1,381.79646440516007,371.6674629718108)" class="pcb-silkscreen-text pcb-silkscreen-top" data-pcb-silkscreen-text-id="pcb_component_3" stroke="none" data-type="pcb_silkscreen_text" data-pcb-layer="top">+</text><g data-type="pcb_plated_hole" data-pcb-layer="through"><circle class="pcb-hole-outer" fill="rgb(200, 52, 52)" cx="381.79646440516007" cy="343.00047778308647" r="12.900143334925943" data-type="pcb_plated_hole" data-pcb-layer="top"/><circle class="pcb-hole-inner" fill="#FF26E2" cx="381.79646440516007" cy="343.00047778308647" r="7.16674629718108" data-type="pcb_plated_hole_drill" data-pcb-layer="drill"/></g><g data-type="pcb_plated_hole" data-pcb-layer="through"><circle class="pcb-hole-outer" fill="rgb(200, 52, 52)" cx="418.20353559483993" cy="343.00047778308647" r="12.900143334925943" data-type="pcb_plated_hole" data-pcb-layer="top"/><circle class="pcb-hole-inner" fill="#FF26E2" cx="418.20353559483993" cy="343.00047778308647" r="7.16674629718108" data-type="pcb_plated_hole_drill" data-pcb-layer="drill"/></g><g data-type="pcb_via" data-pcb-layer="through"><circle class="pcb-hole-outer" fill="rgb(200, 52, 52)" cx="413.7064022933588" cy="189.2737697085523" r="2.150023889154324" data-type="pcb_via" data-pcb-layer="top"/><circle class="pcb-hole-inner" fill="#FF26E2" cx="413.7064022933588" cy="189.2737697085523" r="1.433349259436216" data-type="pcb_via" data-pcb-layer="drill"/></g><g data-type="pcb_via" data-pcb-layer="through"><circle class="pcb-hole-outer" fill="rgb(200, 52, 52)" cx="394.26660296225515" cy="317.2001911132346" r="2.150023889154324" data-type="pcb_via" data-pcb-layer="top"/><circle class="pcb-hole-inner" fill="#FF26E2" cx="394.26660296225515" cy="317.2001911132346" r="1.433349259436216" data-type="pcb_via" data-pcb-layer="drill"/></g><circle class="pcb-hole" cx="514.6679407548972" cy="529.3358815097945" r="17.916865742952698" fill="#FF26E2" data-type="pcb_hole" data-pcb-layer="drill"/></svg>