<svg xmlns="http://www.w3.org/2000/svg" width="800" height="600" data-software-used-string="@tscircuit/core@0.0.1112"><style></style><rect class="boundary" x="0" y="0" fill="#000" width="800" height="600" data-type="pcb_background" data-pcb-layer="global"/><rect class="pcb-boundary" fill="none" stroke="#fff" stroke-width="0.3" x="70.73170731707313" y="14.634146341463406" width="658.5365853658536" height="570.7317073170732" data-type="pcb_boundary" data-pcb-layer="global"/><path class="pcb-board" d="M 400 585.3658536585366 L 421.9512195121951 578.0487804878048 L 433.6585365853658 567.8048780487804 L 440.9756097560976 553.1707317073171 L 443.9024390243902 534.1463414634146 L 443.9024390243902 512.1951219512196 L 441.1219512195122 497.8536585365854 L 466.8780487804878 521.2682926829268 L 498.6341463414634 539.7073170731708 L 535.219512195122 550.5365853658536 L 574.2926829268292 552.1463414634146 L 613.8048780487804 543.9512195121952 L 651.1219512195122 526.2439024390244 L 683.1707317073171 500.1951219512195 L 708.0487804878048 467.4146341463414 L 723.8536585365854 429.8048780487805 L 729.2682926829268 389.5609756097561 L 723.8536585365854 348.4390243902439 L 708.0487804878048 307.7560975609756 L 683.1707317073171 268.2439024390244 L 651.1219512195122 230.34146341463415 L 613.8048780487804 194.1951219512195 L 574.2926829268292 159.3658536585366 L 535.219512195122 125.85365853658536 L 498.6341463414634 93.65853658536585 L 466.8780487804878 63.07317073170728 L 441.1219512195122 34.39024390243901 L 426.3414634146342 21.95121951219511 L 417.5609756097561 17.5609756097561 L 408.780487804878 15.365853658536594 L 400 14.634146341463406 L 391.219512195122 15.365853658536594 L 382.4390243902439 17.5609756097561 L 373.6585365853658 21.95121951219511 L 358.8780487804878 34.39024390243901 L 333.1219512195122 63.07317073170728 L 301.3658536585366 93.65853658536585 L 264.780487804878 125.85365853658536 L 225.7073170731707 159.3658536585366 L 186.1951219512195 194.1951219512195 L 148.8780487804878 230.34146341463415 L 116.82926829268291 268.2439024390244 L 91.95121951219511 307.7560975609756 L 76.14634146341461 348.4390243902439 L 70.73170731707313 389.5609756097561 L 76.14634146341461 429.8048780487805 L 91.95121951219511 467.4146341463414 L 116.82926829268291 500.1951219512195 L 148.8780487804878 526.2439024390244 L 186.1951219512195 543.9512195121952 L 225.7073170731707 552.1463414634146 L 264.780487804878 550.5365853658536 L 301.3658536585366 539.7073170731708 L 333.1219512195122 521.2682926829268 L 358.8780487804878 497.8536585365854 L 356.0975609756098 512.1951219512196 L 356.0975609756098 534.1463414634146 L 359.0243902439024 553.1707317073171 L 366.3414634146342 567.8048780487804 L 378.0487804878049 578.0487804878048 Z" fill="none" stroke="rgba(255, 255, 255, 0.5)" stroke-width="1.4634146341463417" data-type="pcb_board" data-pcb-layer="board"/><path class="pcb-trace" stroke="rgb(77, 127, 196)" fill="none" d="M 546.3414634146341 406.82926829268297 L 546.3414634146341 406.82926829268297" stroke-width="2.1951219512195124" stroke-linecap="round" stroke-linejoin="round" shape-rendering="crispEdges" data-type="pcb_trace" data-pcb-layer="bottom"/><path class="pcb-trace" stroke="rgb(77, 127, 196)" fill="none" d="M 546.3414634146341 406.82926829268297 L 568.2792813220209 406.82926829268297" stroke-width="2.1951219512195124" stroke-linecap="round" stroke-linejoin="round" shape-rendering="crispEdges" data-type="pcb_trace" data-pcb-layer="bottom"/><path class="pcb-trace" stroke="rgb(77, 127, 196)" fill="none" d="M 568.2792813220209 406.82926829268297 L 568.2792813220209 406.82926829268297" stroke-width="2.1951219512195124" stroke-linecap="round" stroke-linejoin="round" shape-rendering="crispEdges" data-type="pcb_trace" data-pcb-layer="bottom"/><path class="pcb-trace" stroke="rgb(77, 127, 196)" fill="none" d="M 568.2792813220209 406.82926829268297 L 569.7560975609756 406.82926829268297" stroke-width="2.1951219512195124" stroke-linecap="round" stroke-linejoin="round" shape-rendering="crispEdges" data-type="pcb_trace" data-pcb-layer="bottom"/><path class="pcb-trace" stroke="rgb(77, 127, 196)" fill="none" d="M 569.7560975609756 406.82926829268297 L 569.7560975609756 406.82926829268297" stroke-width="2.1951219512195124" stroke-linecap="round" stroke-linejoin="round" shape-rendering="crispEdges" data-type="pcb_trace" data-pcb-layer="bottom"/><path class="pcb-trace" stroke="rgb(77, 127, 196)" fill="none" d="M 429.2682926829268 430.2439024390244 L 429.2682926829268 430.2439024390244" stroke-width="2.1951219512195124" stroke-linecap="round" stroke-linejoin="round" shape-rendering="crispEdges" data-type="pcb_trace" data-pcb-layer="bottom"/><path class="pcb-trace" stroke="rgb(77, 127, 196)" fill="none" d="M 429.2682926829268 430.2439024390244 L 460.6383447461239 430.2439024390244" stroke-width="2.1951219512195124" stroke-linecap="round" stroke-linejoin="round" shape-rendering="crispEdges" data-type="pcb_trace" data-pcb-layer="bottom"/><path class="pcb-trace" stroke="rgb(77, 127, 196)" fill="none" d="M 460.6383447461239 430.2439024390244 L 557.4479730724804 333.4342741126678" stroke-width="2.1951219512195124" stroke-linecap="round" stroke-linejoin="round" shape-rendering="crispEdges" data-type="pcb_trace" data-pcb-layer="bottom"/><path class="pcb-trace" stroke="rgb(77, 127, 196)" fill="none" d="M 557.4479730724804 333.4342741126678 L 559.5853658536586 334.9390243902439" stroke-width="2.1951219512195124" stroke-linecap="round" stroke-linejoin="round" shape-rendering="crispEdges" data-type="pcb_trace" data-pcb-layer="bottom"/><path class="pcb-trace" stroke="rgb(77, 127, 196)" fill="none" d="M 559.5853658536586 334.9390243902439 L 559.5853658536586 334.9390243902439" stroke-width="2.1951219512195124" stroke-linecap="round" stroke-linejoin="round" shape-rendering="crispEdges" data-type="pcb_trace" data-pcb-layer="bottom"/><path class="pcb-silkscreen pcb-silkscreen-bottom" d="M 464.0975609756098 272.4878048780488 L 400 272.4878048780488 L 400 336.5853658536585 L 464.0975609756098 336.5853658536585 L 464.0975609756098 272.4878048780488 Z" fill="none" stroke="#5da9e9" stroke-width="1.4634146341463417" stroke-linecap="round" stroke-linejoin="round" data-pcb-component-id="null" data-pcb-silkscreen-path-id="pcb_silkscreen_path_21" data-type="pcb_silkscreen_path" data-pcb-layer="bottom"/><path class="pcb-silkscreen pcb-silkscreen-bottom" d="M 431.7560975609756 304.8292682926829 L 367.8048780487805 304.8292682926829 L 367.8048780487805 368.780487804878 L 431.7560975609756 368.780487804878 L 431.7560975609756 304.8292682926829 Z" fill="none" stroke="#5da9e9" stroke-width="1.4634146341463417" stroke-linecap="round" stroke-linejoin="round" data-pcb-component-id="null" data-pcb-silkscreen-path-id="pcb_silkscreen_path_22" data-type="pcb_silkscreen_path" data-pcb-layer="bottom"/><path class="pcb-silkscreen pcb-silkscreen-bottom" d="M 400 336.5853658536585 L 336.0487804878049 336.5853658536585 L 336.0487804878049 400.5365853658536 L 400 400.5365853658536 L 400 336.5853658536585 Z" fill="none" stroke="#5da9e9" stroke-width="1.4634146341463417" stroke-linecap="round" stroke-linejoin="round" data-pcb-component-id="null" data-pcb-silkscreen-path-id="pcb_silkscreen_path_23" data-type="pcb_silkscreen_path" data-pcb-layer="bottom"/><path class="pcb-silkscreen pcb-silkscreen-bottom" d="M 431.7560975609756 304.8292682926829 L 400 336.5853658536585" fill="none" stroke="#5da9e9" stroke-width="1.4634146341463417" stroke-linecap="round" stroke-linejoin="round" data-pcb-component-id="null" data-pcb-silkscreen-path-id="pcb_silkscreen_path_24" data-type="pcb_silkscreen_path" data-pcb-layer="bottom"/><path class="pcb-silkscreen pcb-silkscreen-bottom" d="M 400 336.5853658536585 L 367.8048780487805 368.780487804878" fill="none" stroke="#5da9e9" stroke-width="1.4634146341463417" stroke-linecap="round" stroke-linejoin="round" data-pcb-component-id="null" data-pcb-silkscreen-path-id="pcb_silkscreen_path_25" data-type="pcb_silkscreen_path" data-pcb-layer="bottom"/><path class="pcb-silkscreen pcb-silkscreen-bottom" d="M 495.5609756097561 203.41463414634146 L 499.5121951219512 203.41463414634146 L 499.5121951219512 232.2439024390244 L 509.7560975609756 232.2439024390244 L 509.7560975609756 235.90243902439022 L 484.8780487804878 235.90243902439022 L 484.8780487804878 232.2439024390244 L 495.5609756097561 232.2439024390244 L 495.5609756097561 203.41463414634146 Z" fill="none" stroke="#5da9e9" stroke-width="1.4634146341463417" stroke-linecap="round" stroke-linejoin="round" data-pcb-component-id="null" data-pcb-silkscreen-path-id="pcb_silkscreen_path_26" data-type="pcb_silkscreen_path" data-pcb-layer="bottom"/><path class="pcb-silkscreen pcb-silkscreen-bottom" d="M 471.70731707317077 202.97560975609755 L 473.1707317073171 202.97560975609755 L 474.6341463414634 203.41463414634146 L 476.0975609756098 203.7073170731707 L 477.2682926829268 204.58536585365852 L 478.7317073170732 205.17073170731706 L 479.4634146341464 206.34146341463412 L 480.4878048780488 207.3658536585366 L 481.219512195122 208.53658536585365 L 481.6585365853658 210 L 481.9512195121951 211.46341463414632 L 482.390243902439 213.21951219512195 L 482.390243902439 215.1219512195122 L 482.390243902439 216.8780487804878 L 481.9512195121951 218.34146341463412 L 481.6585365853658 220.2439024390244 L 481.219512195122 221.7073170731707 L 480.4878048780488 222.73170731707316 L 479.4634146341464 223.90243902439022 L 478.7317073170732 224.9268292682927 L 477.5609756097561 225.8048780487805 L 476.0975609756098 226.390243902439 L 474.6341463414634 227.1219512195122 L 473.1707317073171 227.1219512195122 L 471.70731707317077 227.5609756097561 L 470.2439024390244 227.1219512195122 L 468.780487804878 227.1219512195122 L 467.3170731707317 226.390243902439 L 466.2926829268293 226.09756097560975 L 465.1219512195122 224.9268292682927 L 464.0975609756098 224.1951219512195 L 463.3658536585366 223.17073170731706 L 462.6341463414634 221.7073170731707 L 462.1951219512195 220.2439024390244 L 461.7560975609756 218.78048780487805 L 461.4634146341464 217.3170731707317 L 461.4634146341464 215.41463414634146 L 461.4634146341464 213.9512195121951 L 480.4878048780488 213.9512195121951 L 480.4878048780488 217.3170731707317 L 463.3658536585366 217.3170731707317 L 465.4146341463414 215.85365853658536 L 465.4146341463414 217.3170731707317 L 465.8536585365854 219.5121951219512 L 466.5853658536585 221.2682926829268 L 467.7560975609756 222.4390243902439 L 469.0731707317073 223.609756097561 L 470.9756097560976 223.90243902439022 L 471.70731707317077 223.90243902439022 L 472.7317073170732 223.90243902439022 L 474.1951219512195 223.609756097561 L 475.3658536585366 223.17073170731706 L 476.5365853658537 221.7073170731707 L 477.5609756097561 220.2439024390244 L 478.2926829268293 218.34146341463412 L 478.2926829268293 215.85365853658536 L 478.2926829268293 213.21951219512195 L 477.8536585365854 211.02439024390242 L 477.2682926829268 209.2682926829268 L 476.5365853658537 208.53658536585365 L 475.0731707317073 207.3658536585366 L 473.4634146341463 206.6341463414634 L 471.4146341463415 206.34146341463412 L 469.8048780487805 206.34146341463412 L 468.780487804878 206.6341463414634 L 467.7560975609756 207.3658536585366 L 467.0243902439024 208.09756097560972 L 466.2926829268293 208.8292682926829 L 465.4146341463414 210 L 461.7560975609756 210 L 462.1951219512195 208.53658536585365 L 462.9268292682927 207.0731707317073 L 463.6585365853658 205.90243902439022 L 465.1219512195122 204.8780487804878 L 466.2926829268293 204.14634146341461 L 468.0487804878049 203.41463414634146 L 469.5121951219512 202.97560975609755 L 471.70731707317077 202.97560975609755 Z" fill="none" stroke="#5da9e9" stroke-width="1.4634146341463417" stroke-linecap="round" stroke-linejoin="round" data-pcb-component-id="null" data-pcb-silkscreen-path-id="pcb_silkscreen_path_27" data-type="pcb_silkscreen_path" data-pcb-layer="bottom"/><path class="pcb-silkscreen pcb-silkscreen-bottom" d="M 453.4146341463415 203.41463414634146 L 457.0731707317073 203.41463414634146 L 457.0731707317073 235.90243902439022 L 453.4146341463415 235.90243902439022 L 453.4146341463415 203.41463414634146 Z" fill="none" stroke="#5da9e9" stroke-width="1.4634146341463417" stroke-linecap="round" stroke-linejoin="round" data-pcb-component-id="null" data-pcb-silkscreen-path-id="pcb_silkscreen_path_28" data-type="pcb_silkscreen_path" data-pcb-layer="bottom"/><path class="pcb-silkscreen pcb-silkscreen-bottom" d="M 438.0487804878049 202.97560975609755 L 439.9512195121951 202.97560975609755 L 441.4146341463415 203.41463414634146 L 442.8780487804878 203.7073170731707 L 443.9024390243902 204.58536585365852 L 445.0731707317073 205.17073170731706 L 446.0975609756098 206.34146341463412 L 447.2682926829268 207.3658536585366 L 448 208.53658536585365 L 448.2926829268293 210 L 448.7317073170732 211.46341463414632 L 449.0243902439024 213.21951219512195 L 449.0243902439024 215.1219512195122 L 449.0243902439024 216.8780487804878 L 448.7317073170732 218.34146341463412 L 448.2926829268293 220.2439024390244 L 448 221.7073170731707 L 447.2682926829268 222.73170731707316 L 446.0975609756098 223.90243902439022 L 445.3658536585366 224.9268292682927 L 443.9024390243902 225.8048780487805 L 442.8780487804878 226.390243902439 L 441.4146341463415 227.1219512195122 L 439.9512195121951 227.1219512195122 L 438.4878048780488 227.5609756097561 L 437.0243902439024 227.1219512195122 L 435.4146341463415 227.1219512195122 L 434.0975609756098 226.390243902439 L 432.9268292682927 226.09756097560975 L 431.7560975609756 224.9268292682927 L 430.7317073170732 224.1951219512195 L 430 223.17073170731706 L 429.2682926829268 221.7073170731707 L 428.9756097560976 220.2439024390244 L 428.5365853658537 218.78048780487805 L 428.2439024390244 217.3170731707317 L 428.2439024390244 215.41463414634146 L 428.2439024390244 213.9512195121951 L 447.2682926829268 213.9512195121951 L 447.2682926829268 217.3170731707317 L 430 217.3170731707317 L 431.7560975609756 215.85365853658536 L 432.1951219512195 217.3170731707317 L 432.6341463414634 219.5121951219512 L 433.3658536585366 221.2682926829268 L 434.390243902439 222.4390243902439 L 435.8536585365854 223.609756097561 L 437.7560975609756 223.90243902439022 L 438.4878048780488 223.90243902439022 L 439.5121951219512 223.90243902439022 L 440.9756097560976 223.609756097561 L 442.4390243902439 222.4390243902439 L 443.9024390243902 220.97560975609755 L 444.6341463414634 219.5121951219512 L 445.0731707317073 216.8780487804878 L 445.0731707317073 215.85365853658536 L 445.0731707317073 213.21951219512195 L 444.6341463414634 211.02439024390242 L 443.9024390243902 209.2682926829268 L 443.1707317073171 208.53658536585365 L 441.7073170731707 207.3658536585366 L 440.2439024390244 206.6341463414634 L 438.0487804878049 206.34146341463412 L 436.5853658536585 206.34146341463412 L 435.4146341463415 206.6341463414634 L 434.390243902439 207.3658536585366 L 433.3658536585366 208.09756097560972 L 432.9268292682927 208.8292682926829 L 432.1951219512195 210 L 428.2439024390244 210 L 428.9756097560976 208.53658536585365 L 429.7073170731707 207.0731707317073 L 430.2926829268293 205.90243902439022 L 431.4634146341463 204.8780487804878 L 432.9268292682927 204.14634146341461 L 434.8292682926829 203.41463414634146 L 436.2926829268293 202.97560975609755 L 438.0487804878049 202.97560975609755 Z" fill="none" stroke="#5da9e9" stroke-width="1.4634146341463417" stroke-linecap="round" stroke-linejoin="round" data-pcb-component-id="null" data-pcb-silkscreen-path-id="pcb_silkscreen_path_29" data-type="pcb_silkscreen_path" data-pcb-layer="bottom"/><path class="pcb-silkscreen pcb-silkscreen-bottom" d="M 420.1951219512195 203.41463414634146 L 424.1463414634146 203.41463414634146 L 424.1463414634146 226.8292682926829 L 420.1951219512195 226.8292682926829 L 420.1951219512195 223.609756097561 L 419.7560975609756 224.1951219512195 L 419.0243902439024 224.9268292682927 L 418.2926829268293 225.8048780487805 L 417.5609756097561 226.390243902439 L 416.5365853658537 226.8292682926829 L 415.8048780487805 227.1219512195122 L 414.6341463414634 227.1219512195122 L 413.609756097561 227.5609756097561 L 412.8780487804878 227.5609756097561 L 412.1463414634146 227.1219512195122 L 410.6829268292683 226.8292682926829 L 409.5121951219512 226.09756097560975 L 408.780487804878 225.8048780487805 L 408.0487804878049 224.9268292682927 L 407.3170731707317 223.609756097561 L 407.0243902439024 222.73170731707316 L 406.5853658536585 223.609756097561 L 405.5609756097561 224.6341463414634 L 404.390243902439 225.8048780487805 L 403.219512195122 226.390243902439 L 401.9024390243902 227.1219512195122 L 400.4390243902439 227.5609756097561 L 399.2682926829268 227.5609756097561 L 398.2439024390244 227.1219512195122 L 396.3414634146341 226.8292682926829 L 394.5853658536585 226.09756097560975 L 393.1219512195122 224.6341463414634 L 392.390243902439 222.73170731707316 L 391.5121951219512 220.97560975609755 L 391.5121951219512 219.5121951219512 L 391.5121951219512 203.41463414634146 L 395.609756097561 203.41463414634146 L 395.609756097561 218.78048780487805 L 395.9024390243902 220.2439024390244 L 396.3414634146341 221.7073170731707 L 397.0731707317073 222.4390243902439 L 397.8048780487805 223.17073170731706 L 399.2682926829268 223.90243902439022 L 400.7317073170732 223.90243902439022 L 402.1951219512195 223.90243902439022 L 403.219512195122 223.17073170731706 L 404.390243902439 222.4390243902439 L 405.1219512195122 221.2682926829268 L 405.8536585365854 219.8048780487805 L 405.8536585365854 218.34146341463412 L 405.8536585365854 203.41463414634146 L 409.9512195121951 203.41463414634146 L 409.9512195121951 219.0731707317073 L 410.2439024390244 220.97560975609755 L 410.9756097560976 222 L 411.7073170731707 223.17073170731706 L 412.8780487804878 223.609756097561 L 413.9024390243902 223.90243902439022 L 414.6341463414634 223.90243902439022 L 416.0975609756098 223.90243902439022 L 417.5609756097561 223.17073170731706 L 418.5853658536585 222.4390243902439 L 419.4634146341463 220.97560975609755 L 420.1951219512195 219.8048780487805 L 420.1951219512195 218.0487804878049 L 420.1951219512195 203.41463414634146 Z" fill="none" stroke="#5da9e9" stroke-width="1.4634146341463417" stroke-linecap="round" stroke-linejoin="round" data-pcb-component-id="null" data-pcb-silkscreen-path-id="pcb_silkscreen_path_30" data-type="pcb_silkscreen_path" data-pcb-layer="bottom"/><path class="pcb-silkscreen pcb-silkscreen-bottom" d="M 377.0243902439024 202.97560975609755 L 378.4878048780488 202.97560975609755 L 380.2439024390244 203.41463414634146 L 381.4146341463415 203.7073170731707 L 382.8780487804878 204.58536585365852 L 383.9024390243902 205.17073170731706 L 385.0731707317073 206.34146341463412 L 385.6585365853659 207.3658536585366 L 386.5365853658537 208.53658536585365 L 387.2682926829268 210 L 387.5609756097561 211.46341463414632 L 388 213.21951219512195 L 388 215.1219512195122 L 388 216.8780487804878 L 387.5609756097561 218.34146341463412 L 387.2682926829268 220.2439024390244 L 386.5365853658537 221.7073170731707 L 385.6585365853659 222.73170731707316 L 385.0731707317073 223.90243902439022 L 383.9024390243902 224.9268292682927 L 382.8780487804878 225.8048780487805 L 381.7073170731707 226.390243902439 L 380.2439024390244 227.1219512195122 L 378.780487804878 227.1219512195122 L 377.3170731707317 227.5609756097561 L 375.5609756097561 227.1219512195122 L 374.0975609756098 227.1219512195122 L 372.9268292682927 226.390243902439 L 371.4634146341463 226.09756097560975 L 370.2926829268293 224.9268292682927 L 369.7073170731707 224.1951219512195 L 368.9756097560976 223.17073170731706 L 368.2439024390244 221.7073170731707 L 367.5121951219512 220.2439024390244 L 367.0731707317073 218.78048780487805 L 366.780487804878 217.3170731707317 L 366.780487804878 215.41463414634146 L 366.780487804878 213.9512195121951 L 385.6585365853659 213.9512195121951 L 385.6585365853659 217.3170731707317 L 368.9756097560976 217.3170731707317 L 370.7317073170732 215.85365853658536 L 370.7317073170732 217.3170731707317 L 371.1707317073171 219.5121951219512 L 372.1951219512195 221.2682926829268 L 373.3658536585366 222.4390243902439 L 374.8292682926829 223.609756097561 L 376.2926829268293 223.90243902439022 L 377.3170731707317 223.90243902439022 L 378.0487804878049 223.90243902439022 L 379.9512195121951 223.609756097561 L 381.4146341463415 222.4390243902439 L 382.4390243902439 220.97560975609755 L 383.1707317073171 219.5121951219512 L 383.9024390243902 216.8780487804878 L 383.9024390243902 215.85365853658536 L 383.9024390243902 213.21951219512195 L 383.609756097561 211.02439024390242 L 382.4390243902439 209.2682926829268 L 382 208.53658536585365 L 380.5365853658537 207.3658536585366 L 379.9512195121951 207.0731707317073 L 378.0487804878049 206.34146341463412 L 377.0243902439024 206.34146341463412 L 375.5609756097561 206.34146341463412 L 374.0975609756098 206.6341463414634 L 372.9268292682927 207.3658536585366 L 372.1951219512195 208.09756097560972 L 371.4634146341463 208.8292682926829 L 371.1707317073171 210 L 367.0731707317073 210 L 367.5121951219512 208.53658536585365 L 368.2439024390244 207.0731707317073 L 369.2682926829268 205.90243902439022 L 370.2926829268293 204.8780487804878 L 371.9024390243902 204.14634146341461 L 373.3658536585366 203.41463414634146 L 375.1219512195122 202.97560975609755 L 377.0243902439024 202.97560975609755 Z" fill="none" stroke="#5da9e9" stroke-width="1.4634146341463417" stroke-linecap="round" stroke-linejoin="round" data-pcb-component-id="null" data-pcb-silkscreen-path-id="pcb_silkscreen_path_31" data-type="pcb_silkscreen_path" data-pcb-layer="bottom"/><path class="pcb-silkscreen pcb-silkscreen-bottom" d="M 355.0731707317073 202.97560975609755 L 356.8292682926829 202.97560975609755 L 358 203.41463414634146 L 359.0243902439024 203.7073170731707 L 360.1951219512195 204.58536585365852 L 360.9268292682927 205.17073170731706 L 361.219512195122 206.34146341463412 L 361.6585365853658 207.8048780487805 L 361.6585365853658 209.2682926829268 L 361.6585365853658 223.609756097561 L 365.3170731707317 223.609756097561 L 365.3170731707317 226.8292682926829 L 361.6585365853658 226.8292682926829 L 361.6585365853658 233.41463414634146 L 357.5609756097561 233.41463414634146 L 357.5609756097561 226.8292682926829 L 353.1707317073171 226.8292682926829 L 353.1707317073171 223.609756097561 L 357.5609756097561 223.609756097561 L 357.5609756097561 209.2682926829268 L 357.2682926829268 207.8048780487805 L 356.8292682926829 206.6341463414634 L 355.8048780487805 206.34146341463412 L 355.0731707317073 206.34146341463412 L 354.3414634146341 205.90243902439022 L 353.1707317073171 206.34146341463412 L 353.1707317073171 202.97560975609755 L 353.609756097561 202.97560975609755 L 354.3414634146341 202.97560975609755 L 355.0731707317073 202.97560975609755 Z" fill="none" stroke="#5da9e9" stroke-width="1.4634146341463417" stroke-linecap="round" stroke-linejoin="round" data-pcb-component-id="null" data-pcb-silkscreen-path-id="pcb_silkscreen_path_32" data-type="pcb_silkscreen_path" data-pcb-layer="bottom"/><path class="pcb-silkscreen pcb-silkscreen-bottom" d="M 344.8292682926829 203.41463414634146 L 348.780487804878 203.41463414634146 L 348.780487804878 226.8292682926829 L 344.8292682926829 226.8292682926829 L 344.8292682926829 222.73170731707316 L 344.390243902439 223.90243902439022 L 343.3658536585366 225.8048780487805 L 341.9024390243902 226.8292682926829 L 340.4390243902439 227.1219512195122 L 339.2682926829268 227.5609756097561 L 338.5365853658536 227.5609756097561 L 337.8048780487805 227.1219512195122 L 337.8048780487805 223.609756097561 L 338.5365853658536 223.609756097561 L 339.2682926829268 223.609756097561 L 340.4390243902439 223.609756097561 L 341.9024390243902 223.17073170731706 L 342.9268292682927 222.4390243902439 L 344.0975609756098 221.7073170731707 L 344.390243902439 220.2439024390244 L 344.8292682926829 218.78048780487805 L 344.8292682926829 218.0487804878049 L 344.8292682926829 203.41463414634146 Z" fill="none" stroke="#5da9e9" stroke-width="1.4634146341463417" stroke-linecap="round" stroke-linejoin="round" data-pcb-component-id="null" data-pcb-silkscreen-path-id="pcb_silkscreen_path_33" data-type="pcb_silkscreen_path" data-pcb-layer="bottom"/><path class="pcb-silkscreen pcb-silkscreen-bottom" d="M 324.6341463414634 202.97560975609755 L 326.0975609756098 202.97560975609755 L 327.5609756097561 203.41463414634146 L 329.0243902439024 203.7073170731707 L 330.4878048780488 204.58536585365852 L 331.5121951219512 205.17073170731706 L 332.6829268292683 206.34146341463412 L 333.4146341463415 207.3658536585366 L 334.1463414634146 208.53658536585365 L 334.8780487804878 210 L 335.3170731707317 211.7560975609756 L 335.609756097561 213.21951219512195 L 335.609756097561 215.1219512195122 L 335.609756097561 216.8780487804878 L 335.3170731707317 218.78048780487805 L 334.8780487804878 220.2439024390244 L 334.1463414634146 221.7073170731707 L 333.4146341463415 223.17073170731706 L 332.6829268292683 224.1951219512195 L 331.5121951219512 224.9268292682927 L 330.4878048780488 226.09756097560975 L 329.0243902439024 226.390243902439 L 327.5609756097561 227.1219512195122 L 326.0975609756098 227.1219512195122 L 324.6341463414634 227.5609756097561 L 323.1707317073171 227.1219512195122 L 321.7073170731707 227.1219512195122 L 320.2439024390244 226.390243902439 L 318.780487804878 226.09756097560975 L 317.7560975609756 224.9268292682927 L 316.5853658536585 224.1951219512195 L 315.8536585365854 223.17073170731706 L 315.1219512195122 221.7073170731707 L 314.390243902439 220.2439024390244 L 314.0975609756098 218.78048780487805 L 313.6585365853658 216.8780487804878 L 313.6585365853658 215.1219512195122 L 313.6585365853658 213.21951219512195 L 314.0975609756098 211.46341463414632 L 314.390243902439 210 L 315.1219512195122 208.53658536585365 L 315.8536585365854 207.3658536585366 L 316.5853658536585 206.34146341463412 L 317.7560975609756 205.17073170731706 L 318.780487804878 204.58536585365852 L 320.2439024390244 203.7073170731707 L 321.7073170731707 203.41463414634146 L 323.1707317073171 202.97560975609755 L 324.6341463414634 202.97560975609755 Z" fill="none" stroke="#5da9e9" stroke-width="1.4634146341463417" stroke-linecap="round" stroke-linejoin="round" data-pcb-component-id="null" data-pcb-silkscreen-path-id="pcb_silkscreen_path_34" data-type="pcb_silkscreen_path" data-pcb-layer="bottom"/><path class="pcb-silkscreen pcb-silkscreen-bottom" d="M 324.6341463414634 206.34146341463412 L 323.609756097561 206.34146341463412 L 321.7073170731707 207.0731707317073 L 320.2439024390244 208.09756097560972 L 319.219512195122 209.5609756097561 L 318.4878048780488 211.46341463414632 L 317.7560975609756 213.65853658536582 L 317.7560975609756 215.1219512195122 L 317.7560975609756 216.58536585365852 L 318.4878048780488 218.78048780487805 L 319.219512195122 220.97560975609755 L 320.2439024390244 222.4390243902439 L 321.7073170731707 223.609756097561 L 323.609756097561 223.90243902439022 L 324.6341463414634 223.90243902439022 L 325.8048780487805 223.90243902439022 L 327.5609756097561 223.17073170731706 L 329.0243902439024 222.4390243902439 L 330.1951219512195 220.97560975609755 L 331.219512195122 218.78048780487805 L 331.5121951219512 216.58536585365852 L 331.5121951219512 215.1219512195122 L 331.5121951219512 213.65853658536582 L 331.219512195122 211.46341463414632 L 330.1951219512195 209.5609756097561 L 329.0243902439024 208.09756097560972 L 327.5609756097561 207.0731707317073 L 325.8048780487805 206.34146341463412 L 324.6341463414634 206.34146341463412 Z" fill="none" stroke="#5da9e9" stroke-width="1.4634146341463417" stroke-linecap="round" stroke-linejoin="round" data-pcb-component-id="null" data-pcb-silkscreen-path-id="pcb_silkscreen_path_35" data-type="pcb_silkscreen_path" data-pcb-layer="bottom"/><path class="pcb-silkscreen pcb-silkscreen-bottom" d="M 306.0487804878049 203.41463414634146 L 309.5609756097561 203.41463414634146 L 309.5609756097561 226.8292682926829 L 306.0487804878049 226.8292682926829 L 306.0487804878049 223.609756097561 L 305.3170731707317 224.1951219512195 L 303.8536585365854 225.8048780487805 L 301.9512195121951 226.8292682926829 L 299.7560975609756 227.1219512195122 L 298.29268292682923 227.5609756097561 L 296.5365853658536 227.1219512195122 L 293.609756097561 226.09756097560975 L 291.2682926829268 223.90243902439022 L 290.2439024390244 220.53658536585365 L 290.2439024390244 218.78048780487805 L 290.2439024390244 203.41463414634146 L 294.3414634146342 203.41463414634146 L 294.3414634146342 218.0487804878049 L 294.6341463414634 220.53658536585365 L 295.8048780487805 222.4390243902439 L 297.2682926829268 223.609756097561 L 298.29268292682923 223.90243902439022 L 299.7560975609756 223.90243902439022 L 301.219512195122 223.90243902439022 L 303.1219512195122 223.17073170731706 L 304.1463414634146 222 L 304.8780487804878 220.53658536585365 L 305.609756097561 219.0731707317073 L 306.0487804878049 217.3170731707317 L 306.0487804878049 203.41463414634146 Z" fill="none" stroke="#5da9e9" stroke-width="1.4634146341463417" stroke-linecap="round" stroke-linejoin="round" data-pcb-component-id="null" data-pcb-silkscreen-path-id="pcb_silkscreen_path_36" data-type="pcb_silkscreen_path" data-pcb-layer="bottom"/><rect class="pcb-pad" fill="rgb(200, 52, 52)" x="295.36585365853654" y="215.85365853658536" width="36.58536585365854" height="36.58536585365854" data-type="pcb_smtpad" data-pcb-layer="top"/><rect class="pcb-pad" fill="rgb(200, 52, 52)" x="468.0487804878049" y="215.85365853658536" width="36.58536585365854" height="36.58536585365854" data-type="pcb_smtpad" data-pcb-layer="top"/><rect class="pcb-pad" fill="rgb(200, 52, 52)" x="544.8780487804878" y="417.8048780487805" width="17.5609756097561" height="13.170731707317074" data-type="pcb_smtpad" data-pcb-layer="top"/><rect class="pcb-pad" fill="rgb(200, 52, 52)" x="566.829268292683" y="417.8048780487805" width="17.5609756097561" height="13.170731707317074" data-type="pcb_smtpad" data-pcb-layer="top"/><rect class="pcb-pad" fill="rgb(200, 52, 52)" x="588.780487804878" y="417.8048780487805" width="17.5609756097561" height="13.170731707317074" data-type="pcb_smtpad" data-pcb-layer="top"/><rect class="pcb-pad" fill="rgb(200, 52, 52)" x="469.8780487804878" y="417.4390243902439" width="11.707317073170733" height="13.902439024390244" data-type="pcb_smtpad" data-pcb-layer="top"/><rect class="pcb-pad" fill="rgb(200, 52, 52)" x="494.0243902439024" y="417.4390243902439" width="11.707317073170733" height="13.902439024390244" data-type="pcb_smtpad" data-pcb-layer="top"/><path class="pcb-trace" stroke="rgb(200, 52, 52)" fill="none" d="M 381.4146341463415 453.6585365853658 L 409.6897802667362 425.3833904649711" stroke-width="2.1951219512195124" stroke-linecap="round" stroke-linejoin="round" shape-rendering="crispEdges" data-type="pcb_trace" data-pcb-layer="top"/><path class="pcb-trace" stroke="rgb(200, 52, 52)" fill="none" d="M 409.6897802667362 425.3833904649711 L 450.1891426180542 425.3833904649711" stroke-width="2.1951219512195124" stroke-linecap="round" stroke-linejoin="round" shape-rendering="crispEdges" data-type="pcb_trace" data-pcb-layer="top"/><path class="pcb-trace" stroke="rgb(200, 52, 52)" fill="none" d="M 450.1891426180542 425.3833904649711 L 458.74772935446015 433.94197720137703" stroke-width="2.1951219512195124" stroke-linecap="round" stroke-linejoin="round" shape-rendering="crispEdges" data-type="pcb_trace" data-pcb-layer="top"/><path class="pcb-trace" stroke="rgb(200, 52, 52)" fill="none" d="M 458.74772935446015 433.94197720137703 L 490.3263154815498 433.94197720137703" stroke-width="2.1951219512195124" stroke-linecap="round" stroke-linejoin="round" shape-rendering="crispEdges" data-type="pcb_trace" data-pcb-layer="top"/><path class="pcb-trace" stroke="rgb(200, 52, 52)" fill="none" d="M 490.3263154815498 433.94197720137703 L 490.3263154815498 433.94197720137703" stroke-width="2.1951219512195124" stroke-linecap="round" stroke-linejoin="round" shape-rendering="crispEdges" data-type="pcb_trace" data-pcb-layer="top"/><path class="pcb-trace" stroke="rgb(200, 52, 52)" fill="none" d="M 490.3263154815498 433.94197720137703 L 499.8780487804878 424.390243902439" stroke-width="2.1951219512195124" stroke-linecap="round" stroke-linejoin="round" shape-rendering="crispEdges" data-type="pcb_trace" data-pcb-layer="top"/><path class="pcb-trace" stroke="rgb(200, 52, 52)" fill="none" d="M 475.7317073170732 424.390243902439 L 493.29268292682923 406.82926829268297" stroke-width="2.1951219512195124" stroke-linecap="round" stroke-linejoin="round" shape-rendering="crispEdges" data-type="pcb_trace" data-pcb-layer="top"/><path class="pcb-trace" stroke="rgb(200, 52, 52)" fill="none" d="M 493.29268292682923 406.82926829268297 L 545.285000573695 406.82926829268297" stroke-width="2.1951219512195124" stroke-linecap="round" stroke-linejoin="round" shape-rendering="crispEdges" data-type="pcb_trace" data-pcb-layer="top"/><path class="pcb-trace" stroke="rgb(200, 52, 52)" fill="none" d="M 545.285000573695 406.82926829268297 L 546.3414634146341 406.82926829268297" stroke-width="2.1951219512195124" stroke-linecap="round" stroke-linejoin="round" shape-rendering="crispEdges" data-type="pcb_trace" data-pcb-layer="top"/><path class="pcb-trace" stroke="rgb(200, 52, 52)" fill="none" d="M 546.3414634146341 406.82926829268297 L 546.3414634146341 406.82926829268297" stroke-width="2.1951219512195124" stroke-linecap="round" stroke-linejoin="round" shape-rendering="crispEdges" data-type="pcb_trace" data-pcb-layer="top"/><path class="pcb-trace" stroke="rgb(200, 52, 52)" fill="none" d="M 569.7560975609756 406.82926829268297 L 569.7560975609756 406.82926829268297" stroke-width="2.1951219512195124" stroke-linecap="round" stroke-linejoin="round" shape-rendering="crispEdges" data-type="pcb_trace" data-pcb-layer="top"/><path class="pcb-trace" stroke="rgb(200, 52, 52)" fill="none" d="M 569.7560975609756 406.82926829268297 L 569.7560975609756 418.5365853658536" stroke-width="2.1951219512195124" stroke-linecap="round" stroke-linejoin="round" shape-rendering="crispEdges" data-type="pcb_trace" data-pcb-layer="top"/><path class="pcb-trace" stroke="rgb(200, 52, 52)" fill="none" d="M 569.7560975609756 418.5365853658536 L 575.609756097561 424.390243902439" stroke-width="2.1951219512195124" stroke-linecap="round" stroke-linejoin="round" shape-rendering="crispEdges" data-type="pcb_trace" data-pcb-layer="top"/><path class="pcb-trace" stroke="rgb(200, 52, 52)" fill="none" d="M 418.5853658536585 453.6585365853658 L 418.5853658536585 440.9268292682927" stroke-width="2.1951219512195124" stroke-linecap="round" stroke-linejoin="round" shape-rendering="crispEdges" data-type="pcb_trace" data-pcb-layer="top"/><path class="pcb-trace" stroke="rgb(200, 52, 52)" fill="none" d="M 418.5853658536585 440.9268292682927 L 427.6904701000417 431.8217250219095" stroke-width="2.1951219512195124" stroke-linecap="round" stroke-linejoin="round" shape-rendering="crispEdges" data-type="pcb_trace" data-pcb-layer="top"/><path class="pcb-trace" stroke="rgb(200, 52, 52)" fill="none" d="M 427.6904701000417 431.8217250219095 L 429.2682926829268 430.2439024390244" stroke-width="2.1951219512195124" stroke-linecap="round" stroke-linejoin="round" shape-rendering="crispEdges" data-type="pcb_trace" data-pcb-layer="top"/><path class="pcb-trace" stroke="rgb(200, 52, 52)" fill="none" d="M 429.2682926829268 430.2439024390244 L 429.2682926829268 430.2439024390244" stroke-width="2.1951219512195124" stroke-linecap="round" stroke-linejoin="round" shape-rendering="crispEdges" data-type="pcb_trace" data-pcb-layer="top"/><path class="pcb-trace" stroke="rgb(200, 52, 52)" fill="none" d="M 559.5853658536586 334.9390243902439 L 559.5853658536586 334.9390243902439" stroke-width="2.1951219512195124" stroke-linecap="round" stroke-linejoin="round" shape-rendering="crispEdges" data-type="pcb_trace" data-pcb-layer="top"/><path class="pcb-trace" stroke="rgb(200, 52, 52)" fill="none" d="M 559.5853658536586 334.9390243902439 L 559.5853658536586 307.390243902439" stroke-width="2.1951219512195124" stroke-linecap="round" stroke-linejoin="round" shape-rendering="crispEdges" data-type="pcb_trace" data-pcb-layer="top"/><path class="pcb-trace" stroke="rgb(200, 52, 52)" fill="none" d="M 559.5853658536586 307.390243902439 L 486.3414634146342 234.14634146341461" stroke-width="2.1951219512195124" stroke-linecap="round" stroke-linejoin="round" shape-rendering="crispEdges" data-type="pcb_trace" data-pcb-layer="top"/><path class="pcb-trace" stroke="rgb(200, 52, 52)" fill="none" d="M 553.6585365853658 424.390243902439 L 553.6585365853658 407.24031360976676" stroke-width="2.1951219512195124" stroke-linecap="round" stroke-linejoin="round" shape-rendering="crispEdges" data-type="pcb_trace" data-pcb-layer="top"/><path class="pcb-trace" stroke="rgb(200, 52, 52)" fill="none" d="M 553.6585365853658 407.24031360976676 L 483.00358882925764 336.5853658536585" stroke-width="2.1951219512195124" stroke-linecap="round" stroke-linejoin="round" shape-rendering="crispEdges" data-type="pcb_trace" data-pcb-layer="top"/><path class="pcb-trace" stroke="rgb(200, 52, 52)" fill="none" d="M 483.00358882925764 336.5853658536585 L 416.0975609756098 336.5853658536585" stroke-width="2.1951219512195124" stroke-linecap="round" stroke-linejoin="round" shape-rendering="crispEdges" data-type="pcb_trace" data-pcb-layer="top"/><path class="pcb-trace" stroke="rgb(200, 52, 52)" fill="none" d="M 416.0975609756098 336.5853658536585 L 313.6585365853658 234.14634146341461" stroke-width="2.1951219512195124" stroke-linecap="round" stroke-linejoin="round" shape-rendering="crispEdges" data-type="pcb_trace" data-pcb-layer="top"/><path class="pcb-silkscreen pcb-silkscreen-top" d="M 313.6585365853658 263.4146341463414 L 313.6585365853658 204.8780487804878" fill="none" stroke="#f2eda1" stroke-width="1.4634146341463417" stroke-linecap="round" stroke-linejoin="round" data-pcb-component-id="pcb_component_0" data-pcb-silkscreen-path-id="pcb_silkscreen_path_0" data-type="pcb_silkscreen_path" data-pcb-layer="top"/><path class="pcb-silkscreen pcb-silkscreen-top" d="M 304.8780487804878 234.14634146341461 L 322.4390243902439 234.14634146341461" fill="none" stroke="#f2eda1" stroke-width="1.4634146341463417" stroke-linecap="round" stroke-linejoin="round" data-pcb-component-id="pcb_component_0" data-pcb-silkscreen-path-id="pcb_silkscreen_path_1" data-type="pcb_silkscreen_path" data-pcb-layer="top"/><text x="0" y="0" dx="0" dy="0" fill="#f2eda1" font-family="Arial, sans-serif" font-size="14.634146341463415" text-anchor="middle" dominant-baseline="central" transform="matrix(1,0,0,1,313.6585365853658,278.0487804878049)" class="pcb-silkscreen-text pcb-silkscreen-top" data-pcb-silkscreen-text-id="pcb_component_0" stroke="none" data-type="pcb_silkscreen_text" data-pcb-layer="top">+</text><text x="0" y="0" dx="0" dy="0" fill="#f2eda1" font-family="Arial, sans-serif" font-size="14.634146341463415" text-anchor="middle" dominant-baseline="central" transform="matrix(1,0,0,1,486.3414634146342,278.0487804878049)" class="pcb-silkscreen-text pcb-silkscreen-top" data-pcb-silkscreen-text-id="pcb_component_0" stroke="none" data-type="pcb_silkscreen_text" data-pcb-layer="top">-</text><path class="pcb-silkscreen pcb-silkscreen-top" d="M 539.0243902439024 446.3414634146342 L 612.1951219512196 446.3414634146342 L 612.1951219512196 402.4390243902439 L 539.0243902439024 402.4390243902439 L 539.0243902439024 446.3414634146342 Z" fill="none" stroke="#f2eda1" stroke-width="1.4634146341463417" stroke-linecap="round" stroke-linejoin="round" data-pcb-component-id="pcb_component_1" data-pcb-silkscreen-path-id="pcb_silkscreen_path_2" data-type="pcb_silkscreen_path" data-pcb-layer="top"/><path class="pcb-silkscreen pcb-silkscreen-top" d="M 499.8780487804878 411.5853658536585 L 466.9512195121951 411.5853658536585 L 466.9512195121951 437.1951219512195 L 499.8780487804878 437.1951219512195" fill="none" stroke="#f2eda1" stroke-width="1.4634146341463417" stroke-linecap="round" stroke-linejoin="round" data-pcb-component-id="pcb_component_2" data-pcb-silkscreen-path-id="pcb_silkscreen_path_3" data-type="pcb_silkscreen_path" data-pcb-layer="top"/><text x="0" y="0" dx="0" dy="0" fill="#f2eda1" font-family="Arial, sans-serif" font-size="5.853658536585367" text-anchor="middle" dominant-baseline="central" transform="matrix(1,0,0,1,487.8048780487805,404.2682926829268)" class="pcb-silkscreen-text pcb-silkscreen-top" data-pcb-silkscreen-text-id="pcb_component_2" stroke="none" data-type="pcb_silkscreen_text" data-pcb-layer="top">R1</text><path class="pcb-silkscreen pcb-silkscreen-top" d="M 363.4146341463415 475.609756097561 L 436.5853658536585 475.609756097561 L 436.5853658536585 431.7073170731707 L 363.4146341463415 431.7073170731707 L 363.4146341463415 475.609756097561 Z" fill="none" stroke="#f2eda1" stroke-width="1.4634146341463417" stroke-linecap="round" stroke-linejoin="round" data-pcb-component-id="pcb_component_3" data-pcb-silkscreen-path-id="pcb_silkscreen_path_4" data-type="pcb_silkscreen_path" data-pcb-layer="top"/><text x="0" y="0" dx="0" dy="0" fill="#f2eda1" font-family="Arial, sans-serif" font-size="11.707317073170733" text-anchor="middle" dominant-baseline="central" transform="matrix(1,0,0,1,381.4146341463415,485.8536585365854)" class="pcb-silkscreen-text pcb-silkscreen-top" data-pcb-silkscreen-text-id="pcb_component_3" stroke="none" data-type="pcb_silkscreen_text" data-pcb-layer="top">+</text><text x="0" y="0" dx="0" dy="0" fill="#f2eda1" font-family="Arial, sans-serif" font-size="11.707317073170733" text-anchor="middle" dominant-baseline="central" transform="matrix(1,0,0,1,400,421.4634146341463)" class="pcb-silkscreen-text pcb-silkscreen-top" data-pcb-silkscreen-text-id="pcb_component_3" stroke="none" data-type="pcb_silkscreen_text" data-pcb-layer="top">LED</text><path class="pcb-silkscreen pcb-silkscreen-top" d="M 250 413.4146341463415 L 224.390243902439 413.4146341463415 L 224.390243902439 439.0243902439024 L 250 439.0243902439024 L 250 413.4146341463415 Z" fill="none" stroke="#f2eda1" stroke-width="1.4634146341463417" stroke-linecap="round" stroke-linejoin="round" data-pcb-component-id="null" data-pcb-silkscreen-path-id="pcb_silkscreen_path_5" data-type="pcb_silkscreen_path" data-pcb-layer="top"/><path class="pcb-silkscreen pcb-silkscreen-top" d="M 237.12195121951217 426.2926829268293 L 211.5121951219512 426.2926829268293 L 211.5121951219512 451.9024390243902 L 237.12195121951217 451.9024390243902 L 237.12195121951217 426.2926829268293 Z" fill="none" stroke="#f2eda1" stroke-width="1.4634146341463417" stroke-linecap="round" stroke-linejoin="round" data-pcb-component-id="null" data-pcb-silkscreen-path-id="pcb_silkscreen_path_6" data-type="pcb_silkscreen_path" data-pcb-layer="top"/><path class="pcb-silkscreen pcb-silkscreen-top" d="M 224.390243902439 439.0243902439024 L 198.78048780487805 439.0243902439024 L 198.78048780487805 464.6341463414634 L 224.390243902439 464.6341463414634 L 224.390243902439 439.0243902439024 Z" fill="none" stroke="#f2eda1" stroke-width="1.4634146341463417" stroke-linecap="round" stroke-linejoin="round" data-pcb-component-id="null" data-pcb-silkscreen-path-id="pcb_silkscreen_path_7" data-type="pcb_silkscreen_path" data-pcb-layer="top"/><path class="pcb-silkscreen pcb-silkscreen-top" d="M 237.12195121951217 426.2926829268293 L 224.390243902439 439.0243902439024" fill="none" stroke="#f2eda1" stroke-width="1.4634146341463417" stroke-linecap="round" stroke-linejoin="round" data-pcb-component-id="null" data-pcb-silkscreen-path-id="pcb_silkscreen_path_8" data-type="pcb_silkscreen_path" data-pcb-layer="top"/><path class="pcb-silkscreen pcb-silkscreen-top" d="M 224.390243902439 439.0243902439024 L 211.5121951219512 451.9024390243902" fill="none" stroke="#f2eda1" stroke-width="1.4634146341463417" stroke-linecap="round" stroke-linejoin="round" data-pcb-component-id="null" data-pcb-silkscreen-path-id="pcb_silkscreen_path_9" data-type="pcb_silkscreen_path" data-pcb-layer="top"/><path class="pcb-silkscreen pcb-silkscreen-top" d="M 262.5853658536585 388.6829268292683 L 264.1951219512195 388.6829268292683 L 264.1951219512195 400.2439024390244 L 268.29268292682923 400.2439024390244 L 268.29268292682923 401.7073170731707 L 258.3414634146342 401.7073170731707 L 258.3414634146342 400.2439024390244 L 262.5853658536585 400.2439024390244 L 262.5853658536585 388.6829268292683 Z" fill="none" stroke="#f2eda1" stroke-width="1.4634146341463417" stroke-linecap="round" stroke-linejoin="round" data-pcb-component-id="null" data-pcb-silkscreen-path-id="pcb_silkscreen_path_10" data-type="pcb_silkscreen_path" data-pcb-layer="top"/><path class="pcb-silkscreen pcb-silkscreen-top" d="M 253.07317073170734 388.5365853658536 L 253.65853658536585 388.5365853658536 L 254.24390243902437 388.6829268292683 L 254.8292682926829 388.8292682926829 L 255.2682926829268 389.1219512195122 L 255.85365853658536 389.4146341463415 L 256.1463414634146 389.8536585365854 L 256.5853658536585 390.2926829268293 L 256.8780487804878 390.7317073170732 L 257.0243902439024 391.3170731707317 L 257.17073170731703 391.9024390243902 L 257.3170731707317 392.6341463414634 L 257.3170731707317 393.3658536585366 L 257.3170731707317 394.0975609756098 L 257.17073170731703 394.6829268292683 L 257.0243902439024 395.4146341463414 L 256.8780487804878 396 L 256.5853658536585 396.4390243902439 L 256.1463414634146 396.8780487804878 L 255.85365853658536 397.3170731707317 L 255.41463414634148 397.609756097561 L 254.8292682926829 397.9024390243902 L 254.24390243902437 398.1951219512195 L 253.65853658536585 398.1951219512195 L 253.07317073170734 398.3414634146342 L 252.48780487804876 398.1951219512195 L 251.90243902439022 398.1951219512195 L 251.3170731707317 397.9024390243902 L 250.8780487804878 397.7560975609756 L 250.4390243902439 397.3170731707317 L 250 397.0243902439024 L 249.70731707317074 396.5853658536585 L 249.41463414634148 396 L 249.2682926829268 395.4146341463414 L 249.12195121951217 394.8292682926829 L 248.97560975609755 394.2439024390244 L 248.97560975609755 393.5121951219512 L 248.97560975609755 392.9268292682927 L 256.5853658536585 392.9268292682927 L 256.5853658536585 394.2439024390244 L 249.70731707317074 394.2439024390244 L 250.58536585365852 393.6585365853658 L 250.58536585365852 394.2439024390244 L 250.7317073170732 395.1219512195122 L 251.02439024390245 395.8536585365854 L 251.46341463414632 396.2926829268293 L 252.0487804878049 396.7317073170732 L 252.78048780487805 396.8780487804878 L 253.07317073170734 396.8780487804878 L 253.5121951219512 396.8780487804878 L 254.09756097560975 396.7317073170732 L 254.53658536585365 396.5853658536585 L 254.97560975609755 396 L 255.41463414634148 395.4146341463414 L 255.70731707317074 394.6829268292683 L 255.70731707317074 393.6585365853658 L 255.70731707317074 392.6341463414634 L 255.56097560975607 391.7560975609756 L 255.2682926829268 391.0243902439024 L 254.97560975609755 390.7317073170732 L 254.39024390243904 390.2926829268293 L 253.80487804878047 390 L 252.92682926829266 389.8536585365854 L 252.34146341463415 389.8536585365854 L 251.90243902439022 390 L 251.46341463414632 390.2926829268293 L 251.17073170731706 390.5853658536586 L 250.8780487804878 390.8780487804878 L 250.58536585365852 391.3170731707317 L 249.12195121951217 391.3170731707317 L 249.2682926829268 390.7317073170732 L 249.5609756097561 390.1463414634146 L 249.85365853658536 389.7073170731707 L 250.4390243902439 389.2682926829268 L 250.8780487804878 388.9756097560976 L 251.60975609756096 388.6829268292683 L 252.1951219512195 388.5365853658536 L 253.07317073170734 388.5365853658536 Z" fill="none" stroke="#f2eda1" stroke-width="1.4634146341463417" stroke-linecap="round" stroke-linejoin="round" data-pcb-component-id="null" data-pcb-silkscreen-path-id="pcb_silkscreen_path_11" data-type="pcb_silkscreen_path" data-pcb-layer="top"/><path class="pcb-silkscreen pcb-silkscreen-top" d="M 245.7560975609756 388.6829268292683 L 247.21951219512195 388.6829268292683 L 247.21951219512195 401.7073170731707 L 245.7560975609756 401.7073170731707 L 245.7560975609756 388.6829268292683 Z" fill="none" stroke="#f2eda1" stroke-width="1.4634146341463417" stroke-linecap="round" stroke-linejoin="round" data-pcb-component-id="null" data-pcb-silkscreen-path-id="pcb_silkscreen_path_12" data-type="pcb_silkscreen_path" data-pcb-layer="top"/><path class="pcb-silkscreen pcb-silkscreen-top" d="M 239.60975609756096 388.5365853658536 L 240.34146341463415 388.5365853658536 L 240.92682926829266 388.6829268292683 L 241.5121951219512 388.8292682926829 L 241.9512195121951 389.1219512195122 L 242.390243902439 389.4146341463415 L 242.8292682926829 389.8536585365854 L 243.2682926829268 390.2926829268293 L 243.5609756097561 390.7317073170732 L 243.70731707317074 391.3170731707317 L 243.85365853658536 391.9024390243902 L 244 392.6341463414634 L 244 393.3658536585366 L 244 394.0975609756098 L 243.85365853658536 394.6829268292683 L 243.70731707317074 395.4146341463414 L 243.5609756097561 396 L 243.2682926829268 396.4390243902439 L 242.8292682926829 396.8780487804878 L 242.53658536585365 397.3170731707317 L 241.9512195121951 397.609756097561 L 241.5121951219512 397.9024390243902 L 240.92682926829266 398.1951219512195 L 240.34146341463415 398.1951219512195 L 239.7560975609756 398.3414634146342 L 239.17073170731706 398.1951219512195 L 238.58536585365854 398.1951219512195 L 238 397.9024390243902 L 237.5609756097561 397.7560975609756 L 237.12195121951217 397.3170731707317 L 236.6829268292683 397.0243902439024 L 236.390243902439 396.5853658536585 L 236.09756097560975 396 L 235.9512195121951 395.4146341463414 L 235.80487804878047 394.8292682926829 L 235.65853658536585 394.2439024390244 L 235.65853658536585 393.5121951219512 L 235.65853658536585 392.9268292682927 L 243.2682926829268 392.9268292682927 L 243.2682926829268 394.2439024390244 L 236.390243902439 394.2439024390244 L 237.12195121951217 393.6585365853658 L 237.26829268292684 394.2439024390244 L 237.41463414634146 395.1219512195122 L 237.7073170731707 395.8536585365854 L 238.14634146341461 396.2926829268293 L 238.73170731707316 396.7317073170732 L 239.46341463414632 396.8780487804878 L 239.7560975609756 396.8780487804878 L 240.1951219512195 396.8780487804878 L 240.78048780487805 396.7317073170732 L 241.3658536585366 396.2926829268293 L 241.9512195121951 395.7073170731707 L 242.2439024390244 395.1219512195122 L 242.390243902439 394.0975609756098 L 242.390243902439 393.6585365853658 L 242.390243902439 392.6341463414634 L 242.2439024390244 391.7560975609756 L 241.9512195121951 391.0243902439024 L 241.65853658536585 390.7317073170732 L 241.0731707317073 390.2926829268293 L 240.48780487804876 390 L 239.60975609756096 389.8536585365854 L 239.02439024390245 389.8536585365854 L 238.58536585365854 390 L 238.14634146341461 390.2926829268293 L 237.7073170731707 390.5853658536586 L 237.5609756097561 390.8780487804878 L 237.26829268292684 391.3170731707317 L 235.65853658536585 391.3170731707317 L 235.9512195121951 390.7317073170732 L 236.2439024390244 390.1463414634146 L 236.53658536585365 389.7073170731707 L 236.97560975609755 389.2682926829268 L 237.5609756097561 388.9756097560976 L 238.29268292682926 388.6829268292683 L 238.8780487804878 388.5365853658536 L 239.60975609756096 388.5365853658536 Z" fill="none" stroke="#f2eda1" stroke-width="1.4634146341463417" stroke-linecap="round" stroke-linejoin="round" data-pcb-component-id="null" data-pcb-silkscreen-path-id="pcb_silkscreen_path_13" data-type="pcb_silkscreen_path" data-pcb-layer="top"/><path class="pcb-silkscreen pcb-silkscreen-top" d="M 232.4390243902439 388.6829268292683 L 234.04878048780486 388.6829268292683 L 234.04878048780486 398.0487804878049 L 232.4390243902439 398.0487804878049 L 232.4390243902439 396.7317073170732 L 232.29268292682926 397.0243902439024 L 232 397.3170731707317 L 231.7073170731707 397.609756097561 L 231.41463414634146 397.9024390243902 L 230.97560975609755 398.0487804878049 L 230.68292682926827 398.1951219512195 L 230.2439024390244 398.1951219512195 L 229.80487804878047 398.3414634146342 L 229.5121951219512 398.3414634146342 L 229.21951219512195 398.1951219512195 L 228.6341463414634 398.0487804878049 L 228.1951219512195 397.7560975609756 L 227.90243902439025 397.609756097561 L 227.609756097561 397.3170731707317 L 227.3170731707317 396.7317073170732 L 227.17073170731706 396.4390243902439 L 227.02439024390242 396.7317073170732 L 226.58536585365854 397.1707317073171 L 226.14634146341461 397.609756097561 L 225.7073170731707 397.9024390243902 L 225.1219512195122 398.1951219512195 L 224.53658536585365 398.3414634146342 L 224.09756097560975 398.3414634146342 L 223.65853658536582 398.1951219512195 L 222.9268292682927 398.0487804878049 L 222.1951219512195 397.7560975609756 L 221.609756097561 397.1707317073171 L 221.31707317073167 396.4390243902439 L 221.02439024390242 395.7073170731707 L 221.02439024390242 395.1219512195122 L 221.02439024390242 388.6829268292683 L 222.6341463414634 388.6829268292683 L 222.6341463414634 394.8292682926829 L 222.78048780487805 395.4146341463414 L 222.9268292682927 396 L 223.21951219512195 396.2926829268293 L 223.5121951219512 396.5853658536585 L 224.09756097560975 396.8780487804878 L 224.68292682926827 396.8780487804878 L 225.26829268292684 396.8780487804878 L 225.7073170731707 396.5853658536585 L 226.14634146341461 396.2926829268293 L 226.4390243902439 395.8536585365854 L 226.73170731707316 395.2682926829268 L 226.73170731707316 394.6829268292683 L 226.73170731707316 388.6829268292683 L 228.34146341463412 388.6829268292683 L 228.34146341463412 394.9756097560976 L 228.48780487804876 395.7073170731707 L 228.78048780487805 396.1463414634146 L 229.0731707317073 396.5853658536585 L 229.5121951219512 396.7317073170732 L 229.95121951219514 396.8780487804878 L 230.2439024390244 396.8780487804878 L 230.8292682926829 396.8780487804878 L 231.41463414634146 396.5853658536585 L 231.85365853658536 396.2926829268293 L 232.14634146341461 395.7073170731707 L 232.4390243902439 395.2682926829268 L 232.4390243902439 394.5365853658536 L 232.4390243902439 388.6829268292683 Z" fill="none" stroke="#f2eda1" stroke-width="1.4634146341463417" stroke-linecap="round" stroke-linejoin="round" data-pcb-component-id="null" data-pcb-silkscreen-path-id="pcb_silkscreen_path_14" data-type="pcb_silkscreen_path" data-pcb-layer="top"/><path class="pcb-silkscreen pcb-silkscreen-top" d="M 215.17073170731706 388.5365853658536 L 215.7560975609756 388.5365853658536 L 216.4878048780488 388.6829268292683 L 216.9268292682927 388.8292682926829 L 217.5121951219512 389.1219512195122 L 217.9512195121951 389.4146341463415 L 218.390243902439 389.8536585365854 L 218.68292682926827 390.2926829268293 L 218.97560975609755 390.7317073170732 L 219.26829268292684 391.3170731707317 L 219.41463414634146 391.9024390243902 L 219.5609756097561 392.6341463414634 L 219.5609756097561 393.3658536585366 L 219.5609756097561 394.0975609756098 L 219.41463414634146 394.6829268292683 L 219.26829268292684 395.4146341463414 L 218.97560975609755 396 L 218.68292682926827 396.4390243902439 L 218.390243902439 396.8780487804878 L 217.9512195121951 397.3170731707317 L 217.5121951219512 397.609756097561 L 217.0731707317073 397.9024390243902 L 216.4878048780488 398.1951219512195 L 215.90243902439025 398.1951219512195 L 215.3170731707317 398.3414634146342 L 214.58536585365854 398.1951219512195 L 213.99999999999997 398.1951219512195 L 213.5609756097561 397.9024390243902 L 212.97560975609755 397.7560975609756 L 212.53658536585365 397.3170731707317 L 212.2439024390244 397.0243902439024 L 211.9512195121951 396.5853658536585 L 211.65853658536585 396 L 211.36585365853657 395.4146341463414 L 211.21951219512195 394.8292682926829 L 211.0731707317073 394.2439024390244 L 211.0731707317073 393.5121951219512 L 211.0731707317073 392.9268292682927 L 218.68292682926827 392.9268292682927 L 218.68292682926827 394.2439024390244 L 211.9512195121951 394.2439024390244 L 212.68292682926827 393.6585365853658 L 212.68292682926827 394.2439024390244 L 212.82926829268294 395.1219512195122 L 213.2682926829268 395.8536585365854 L 213.7073170731707 396.2926829268293 L 214.29268292682926 396.7317073170732 L 214.8780487804878 396.8780487804878 L 215.3170731707317 396.8780487804878 L 215.60975609756096 396.8780487804878 L 216.34146341463412 396.7317073170732 L 216.9268292682927 396.2926829268293 L 217.36585365853657 395.7073170731707 L 217.65853658536582 395.1219512195122 L 217.9512195121951 394.0975609756098 L 217.9512195121951 393.6585365853658 L 217.9512195121951 392.6341463414634 L 217.8048780487805 391.7560975609756 L 217.36585365853657 391.0243902439024 L 217.21951219512195 390.7317073170732 L 216.6341463414634 390.2926829268293 L 216.34146341463412 390.1463414634146 L 215.60975609756096 389.8536585365854 L 215.17073170731706 389.8536585365854 L 214.58536585365854 389.8536585365854 L 213.99999999999997 390 L 213.5609756097561 390.2926829268293 L 213.2682926829268 390.5853658536586 L 212.97560975609755 390.8780487804878 L 212.82926829268294 391.3170731707317 L 211.21951219512195 391.3170731707317 L 211.36585365853657 390.7317073170732 L 211.65853658536585 390.1463414634146 L 212.09756097560975 389.7073170731707 L 212.53658536585365 389.2682926829268 L 213.1219512195122 388.9756097560976 L 213.7073170731707 388.6829268292683 L 214.4390243902439 388.5365853658536 L 215.17073170731706 388.5365853658536 Z" fill="none" stroke="#f2eda1" stroke-width="1.4634146341463417" stroke-linecap="round" stroke-linejoin="round" data-pcb-component-id="null" data-pcb-silkscreen-path-id="pcb_silkscreen_path_15" data-type="pcb_silkscreen_path" data-pcb-layer="top"/><path class="pcb-silkscreen pcb-silkscreen-top" d="M 206.390243902439 388.5365853658536 L 207.1219512195122 388.5365853658536 L 207.5609756097561 388.6829268292683 L 207.99999999999997 388.8292682926829 L 208.4390243902439 389.1219512195122 L 208.73170731707316 389.4146341463415 L 208.8780487804878 389.8536585365854 L 209.02439024390242 390.4390243902439 L 209.02439024390242 391.0243902439024 L 209.02439024390242 396.7317073170732 L 210.4878048780488 396.7317073170732 L 210.4878048780488 398.0487804878049 L 209.02439024390242 398.0487804878049 L 209.02439024390242 400.6829268292683 L 207.41463414634146 400.6829268292683 L 207.41463414634146 398.0487804878049 L 205.65853658536585 398.0487804878049 L 205.65853658536585 396.7317073170732 L 207.41463414634146 396.7317073170732 L 207.41463414634146 391.0243902439024 L 207.2682926829268 390.4390243902439 L 207.1219512195122 390 L 206.68292682926827 389.8536585365854 L 206.390243902439 389.8536585365854 L 206.09756097560975 389.7073170731707 L 205.65853658536585 389.8536585365854 L 205.65853658536585 388.5365853658536 L 205.8048780487805 388.5365853658536 L 206.09756097560975 388.5365853658536 L 206.390243902439 388.5365853658536 Z" fill="none" stroke="#f2eda1" stroke-width="1.4634146341463417" stroke-linecap="round" stroke-linejoin="round" data-pcb-component-id="null" data-pcb-silkscreen-path-id="pcb_silkscreen_path_16" data-type="pcb_silkscreen_path" data-pcb-layer="top"/><path class="pcb-silkscreen pcb-silkscreen-top" d="M 202.29268292682926 388.6829268292683 L 203.90243902439022 388.6829268292683 L 203.90243902439022 398.0487804878049 L 202.29268292682926 398.0487804878049 L 202.29268292682926 396.4390243902439 L 202.14634146341464 396.8780487804878 L 201.7073170731707 397.609756097561 L 201.1219512195122 398.0487804878049 L 200.53658536585365 398.1951219512195 L 200.09756097560975 398.3414634146342 L 199.8048780487805 398.3414634146342 L 199.5121951219512 398.1951219512195 L 199.5121951219512 396.7317073170732 L 199.8048780487805 396.7317073170732 L 200.09756097560975 396.7317073170732 L 200.53658536585365 396.7317073170732 L 201.1219512195122 396.5853658536585 L 201.56097560975607 396.2926829268293 L 202 396 L 202.14634146341464 395.4146341463414 L 202.29268292682926 394.8292682926829 L 202.29268292682926 394.5365853658536 L 202.29268292682926 388.6829268292683 Z" fill="none" stroke="#f2eda1" stroke-width="1.4634146341463417" stroke-linecap="round" stroke-linejoin="round" data-pcb-component-id="null" data-pcb-silkscreen-path-id="pcb_silkscreen_path_17" data-type="pcb_silkscreen_path" data-pcb-layer="top"/><path class="pcb-silkscreen pcb-silkscreen-top" d="M 194.24390243902437 388.5365853658536 L 194.8292682926829 388.5365853658536 L 195.41463414634146 388.6829268292683 L 196 388.8292682926829 L 196.58536585365852 389.1219512195122 L 197.02439024390242 389.4146341463415 L 197.46341463414635 389.8536585365854 L 197.7560975609756 390.2926829268293 L 198.04878048780486 390.7317073170732 L 198.34146341463415 391.3170731707317 L 198.4878048780488 392.0487804878049 L 198.6341463414634 392.6341463414634 L 198.6341463414634 393.3658536585366 L 198.6341463414634 394.0975609756098 L 198.4878048780488 394.8292682926829 L 198.34146341463415 395.4146341463414 L 198.04878048780486 396 L 197.7560975609756 396.5853658536585 L 197.46341463414635 397.0243902439024 L 197.02439024390242 397.3170731707317 L 196.58536585365852 397.7560975609756 L 196 397.9024390243902 L 195.41463414634146 398.1951219512195 L 194.8292682926829 398.1951219512195 L 194.24390243902437 398.3414634146342 L 193.65853658536585 398.1951219512195 L 193.0731707317073 398.1951219512195 L 192.48780487804876 397.9024390243902 L 191.90243902439022 397.7560975609756 L 191.46341463414635 397.3170731707317 L 191.02439024390245 397.0243902439024 L 190.73170731707316 396.5853658536585 L 190.4390243902439 396 L 190.14634146341461 395.4146341463414 L 190 394.8292682926829 L 189.85365853658536 394.0975609756098 L 189.85365853658536 393.3658536585366 L 189.85365853658536 392.6341463414634 L 190 391.9024390243902 L 190.14634146341461 391.3170731707317 L 190.4390243902439 390.7317073170732 L 190.73170731707316 390.2926829268293 L 191.02439024390245 389.8536585365854 L 191.46341463414635 389.4146341463415 L 191.90243902439022 389.1219512195122 L 192.48780487804876 388.8292682926829 L 193.0731707317073 388.6829268292683 L 193.65853658536585 388.5365853658536 L 194.24390243902437 388.5365853658536 Z" fill="none" stroke="#f2eda1" stroke-width="1.4634146341463417" stroke-linecap="round" stroke-linejoin="round" data-pcb-component-id="null" data-pcb-silkscreen-path-id="pcb_silkscreen_path_18" data-type="pcb_silkscreen_path" data-pcb-layer="top"/><path class="pcb-silkscreen pcb-silkscreen-top" d="M 194.24390243902437 389.8536585365854 L 193.8048780487805 389.8536585365854 L 193.0731707317073 390.1463414634146 L 192.48780487804876 390.5853658536586 L 192.04878048780486 391.1707317073171 L 191.7560975609756 391.9024390243902 L 191.46341463414635 392.780487804878 L 191.46341463414635 393.3658536585366 L 191.46341463414635 393.9512195121951 L 191.7560975609756 394.8292682926829 L 192.04878048780486 395.7073170731707 L 192.48780487804876 396.2926829268293 L 193.0731707317073 396.7317073170732 L 193.8048780487805 396.8780487804878 L 194.24390243902437 396.8780487804878 L 194.6829268292683 396.8780487804878 L 195.41463414634146 396.5853658536585 L 196 396.2926829268293 L 196.4390243902439 395.7073170731707 L 196.8780487804878 394.8292682926829 L 197.02439024390242 393.9512195121951 L 197.02439024390242 393.3658536585366 L 197.02439024390242 392.780487804878 L 196.8780487804878 391.9024390243902 L 196.4390243902439 391.1707317073171 L 196 390.5853658536586 L 195.41463414634146 390.1463414634146 L 194.6829268292683 389.8536585365854 L 194.24390243902437 389.8536585365854 Z" fill="none" stroke="#f2eda1" stroke-width="1.4634146341463417" stroke-linecap="round" stroke-linejoin="round" data-pcb-component-id="null" data-pcb-silkscreen-path-id="pcb_silkscreen_path_19" data-type="pcb_silkscreen_path" data-pcb-layer="top"/><path class="pcb-silkscreen pcb-silkscreen-top" d="M 186.78048780487805 388.6829268292683 L 188.24390243902437 388.6829268292683 L 188.24390243902437 398.0487804878049 L 186.78048780487805 398.0487804878049 L 186.78048780487805 396.7317073170732 L 186.48780487804876 397.0243902439024 L 185.90243902439025 397.609756097561 L 185.17073170731706 398.0487804878049 L 184.29268292682926 398.1951219512195 L 183.70731707317074 398.3414634146342 L 182.97560975609755 398.1951219512195 L 181.80487804878047 397.7560975609756 L 180.92682926829266 396.8780487804878 L 180.48780487804876 395.5609756097561 L 180.48780487804876 394.8292682926829 L 180.48780487804876 388.6829268292683 L 182.09756097560975 388.6829268292683 L 182.09756097560975 394.5365853658536 L 182.2439024390244 395.5609756097561 L 182.6829268292683 396.2926829268293 L 183.2682926829268 396.7317073170732 L 183.70731707317074 396.8780487804878 L 184.29268292682926 396.8780487804878 L 184.8780487804878 396.8780487804878 L 185.60975609756096 396.5853658536585 L 186.04878048780486 396.1463414634146 L 186.34146341463415 395.5609756097561 L 186.6341463414634 394.9756097560976 L 186.78048780487805 394.2439024390244 L 186.78048780487805 388.6829268292683 Z" fill="none" stroke="#f2eda1" stroke-width="1.4634146341463417" stroke-linecap="round" stroke-linejoin="round" data-pcb-component-id="null" data-pcb-silkscreen-path-id="pcb_silkscreen_path_20" data-type="pcb_silkscreen_path" data-pcb-layer="top"/><g data-type="pcb_plated_hole" data-pcb-layer="through"><circle class="pcb-hole-outer" fill="rgb(200, 52, 52)" cx="381.4146341463415" cy="453.6585365853658" r="13.170731707317074" data-type="pcb_plated_hole" data-pcb-layer="top"/><circle class="pcb-hole-inner" fill="#FF26E2" cx="381.4146341463415" cy="453.6585365853658" r="7.317073170731708" data-type="pcb_plated_hole_drill" data-pcb-layer="drill"/></g><g data-type="pcb_plated_hole" data-pcb-layer="through"><circle class="pcb-hole-outer" fill="rgb(200, 52, 52)" cx="418.5853658536585" cy="453.6585365853658" r="13.170731707317074" data-type="pcb_plated_hole" data-pcb-layer="top"/><circle class="pcb-hole-inner" fill="#FF26E2" cx="418.5853658536585" cy="453.6585365853658" r="7.317073170731708" data-type="pcb_plated_hole_drill" data-pcb-layer="drill"/></g><g data-type="pcb_via" data-pcb-layer="through"><circle class="pcb-hole-outer" fill="rgb(200, 52, 52)" cx="546.3414634146341" cy="406.82926829268297" r="2.1951219512195124" data-type="pcb_via" data-pcb-layer="top"/><circle class="pcb-hole-inner" fill="#FF26E2" cx="546.3414634146341" cy="406.82926829268297" r="1.4634146341463417" data-type="pcb_via" data-pcb-layer="drill"/></g><g data-type="pcb_via" data-pcb-layer="through"><circle class="pcb-hole-outer" fill="rgb(200, 52, 52)" cx="569.7560975609756" cy="406.82926829268297" r="2.1951219512195124" data-type="pcb_via" data-pcb-layer="top"/><circle class="pcb-hole-inner" fill="#FF26E2" cx="569.7560975609756" cy="406.82926829268297" r="1.4634146341463417" data-type="pcb_via" data-pcb-layer="drill"/></g><g data-type="pcb_via" data-pcb-layer="through"><circle class="pcb-hole-outer" fill="rgb(200, 52, 52)" cx="429.2682926829268" cy="430.2439024390244" r="2.1951219512195124" data-type="pcb_via" data-pcb-layer="top"/><circle class="pcb-hole-inner" fill="#FF26E2" cx="429.2682926829268" cy="430.2439024390244" r="1.4634146341463417" data-type="pcb_via" data-pcb-layer="drill"/></g><g data-type="pcb_via" data-pcb-layer="through"><circle class="pcb-hole-outer" fill="rgb(200, 52, 52)" cx="559.5853658536586" cy="334.9390243902439" r="2.1951219512195124" data-type="pcb_via" data-pcb-layer="top"/><circle class="pcb-hole-inner" fill="#FF26E2" cx="559.5853658536586" cy="334.9390243902439" r="1.4634146341463417" data-type="pcb_via" data-pcb-layer="drill"/></g><circle class="pcb-hole" cx="400" cy="541.4634146341464" r="18.29268292682927" fill="#FF26E2" data-type="pcb_hole" data-pcb-layer="drill"/></svg>