<svg xmlns="http://www.w3.org/2000/svg" width="800" height="600" data-software-used-string="@tscircuit/core@0.0.1112"><style></style><rect class="boundary" x="0" y="0" fill="#000" width="800" height="600" data-type="pcb_background" data-pcb-layer="global"/><rect class="pcb-boundary" fill="none" stroke="#fff" stroke-width="0.3" x="81.85483870967738" y="13.44086021505376" width="636.2903225806454" height="573.1182795698924" data-type="pcb_boundary" data-pcb-layer="global"/><path class="pcb-board" d="M 346.63978494623655 547.3118279569892 L 349.19354838709677 553.8978494623656 L 352.5537634408602 560.0806451612904 L 356.7204301075269 565.8602150537635 L 361.4247311827957 571.1021505376344 L 366.93548387096774 575.6720430107528 L 372.8494623655914 579.4354838709678 L 379.3010752688172 582.5268817204301 L 386.02150537634407 584.6774193548388 L 392.8763440860215 586.0215053763441 L 400 586.5591397849462 L 407.1236559139785 586.0215053763441 L 413.97849462365593 584.6774193548388 L 420.6989247311828 582.5268817204301 L 427.1505376344086 579.4354838709678 L 433.06451612903226 575.6720430107528 L 438.5752688172043 571.1021505376344 L 443.2795698924731 565.8602150537635 L 447.4462365591398 560.0806451612904 L 450.80645161290323 553.8978494623656 L 453.36021505376345 547.3118279569892 L 454.0322580645161 545.2956989247311 L 454.8387096774194 543.4139784946236 L 455.9139784946237 541.5322580645161 L 456.98924731182797 539.7849462365591 L 458.3333333333333 538.0376344086021 L 459.81182795698925 536.4247311827958 L 461.2903225806452 535.0806451612902 L 462.9032258064516 533.736559139785 L 464.6505376344086 532.5268817204301 L 466.5322580645161 531.4516129032259 L 468.4139784946237 530.510752688172 L 470.4301075268817 529.8387096774194 L 472.4462365591398 529.1666666666667 L 474.5967741935484 528.763440860215 L 476.61290322580646 528.494623655914 L 478.76344086021504 528.3602150537635 L 480.9139784946236 528.494623655914 L 483.06451612903226 528.763440860215 L 485.0806451612903 529.1666666666667 L 487.0967741935484 529.7043010752689 L 502.1505376344086 533.736559139785 L 517.4731182795699 536.5591397849463 L 533.0645161290322 537.9032258064516 L 548.6559139784946 537.9032258064516 L 564.1129032258065 536.5591397849463 L 579.5698924731182 534.005376344086 L 594.6236559139785 529.9731182795699 L 609.2741935483871 524.5967741935484 L 623.3870967741935 518.010752688172 L 636.8279569892474 510.2150537634409 L 649.5967741935484 501.3440860215054 L 661.5591397849462 491.39784946236557 L 672.5806451612904 480.3763440860215 L 682.6612903225807 468.4139784946236 L 691.6666666666667 455.64516129032256 L 699.4623655913979 442.06989247311833 L 706.0483870967741 427.9569892473118 L 711.2903225806451 413.30645161290323 L 715.3225806451613 398.252688172043 L 718.010752688172 382.9301075268817 L 718.010752688172 382.9301075268817 L 718.1451612903227 377.9569892473118 L 717.8763440860215 368.01075268817203 L 717.4731182795699 363.0376344086022 L 716.9354838709678 358.06451612903226 L 716.1290322580645 352.9569892473118 L 715.1881720430108 347.98387096774195 L 714.247311827957 342.8763440860215 L 712.9032258064517 337.9032258064516 L 711.5591397849462 332.9301075268817 L 709.9462365591398 327.9569892473118 L 708.1989247311828 322.98387096774195 L 706.4516129032259 318.01075268817203 L 704.4354838709678 313.1720430107527 L 702.2849462365591 308.1989247311828 L 700 303.2258064516129 L 697.5806451612904 298.38709677419354 L 695.0268817204301 293.5483870967742 L 692.3387096774194 288.7096774193548 L 689.516129032258 283.8709677419355 L 686.4247311827958 279.0322580645161 L 683.3333333333333 274.19354838709677 L 680.1075268817204 269.48924731182797 L 676.8817204301076 264.6505376344086 L 673.3870967741935 259.9462365591398 L 666.263440860215 250.6720430107527 L 662.5 246.1021505376344 L 658.6021505376343 241.39784946236557 L 654.5698924731183 236.8279569892473 L 650.5376344086021 232.25806451612902 L 646.3709677419355 227.68817204301075 L 642.2043010752689 223.11827956989248 L 638.0376344086021 218.68279569892474 L 633.6021505376344 214.247311827957 L 629.1666666666667 209.81182795698925 L 624.5967741935484 205.3763440860215 L 619.8924731182796 200.94086021505376 L 615.3225806451612 196.7741935483871 L 573.6559139784946 159.4086021505376 L 572.4462365591398 158.33333333333334 L 562.7688172043011 150 L 558.0645161290322 145.96774193548384 L 553.2258064516129 141.80107526881721 L 548.3870967741935 137.63440860215053 L 543.6827956989248 133.73655913978496 L 538.8440860215054 129.56989247311827 L 534.2741935483871 125.53763440860214 L 529.5698924731183 121.63978494623655 L 525 117.60752688172042 L 520.4301075268818 113.57526881720432 L 515.994623655914 109.67741935483869 L 511.4247311827957 105.77956989247312 L 506.98924731182797 101.88172043010752 L 502.5537634408602 97.98387096774195 L 498.252688172043 94.08602150537632 L 494.0860215053764 90.32258064516128 L 489.9193548387097 86.42473118279568 L 485.752688172043 82.79569892473117 L 481.85483870967744 78.8978494623656 L 474.05913978494624 71.50537634408602 L 470.4301075268817 67.8763440860215 L 466.6666666666667 64.11290322580643 L 463.1720430107527 60.61827956989248 L 459.6774193548387 56.85483870967741 L 456.18279569892474 53.09139784946234 L 452.9569892473118 49.327956989247326 L 451.0752688172043 47.17741935483872 L 433.73655913978496 28.494623655913983 L 431.7204301075269 26.74731182795699 L 429.8387096774194 25.13440860215053 L 428.36021505376345 23.92473118279571 L 426.747311827957 22.715053763440835 L 425.13440860215053 21.639784946236546 L 423.7903225806452 20.564516129032256 L 422.4462365591398 19.758064516129025 L 421.23655913978496 18.951612903225794 L 420.0268817204301 18.27956989247309 L 419.0860215053763 17.876344086021504 L 418.14516129032256 17.47311827956986 L 417.2043010752688 17.069892473118273 L 416.26344086021504 16.801075268817215 L 415.18817204301075 16.39784946236557 L 414.11290322580646 15.860215053763397 L 413.0376344086022 15.59139784946234 L 411.9623655913978 15.322580645161281 L 410.88709677419354 15.053763440860223 L 409.81182795698925 14.784946236559165 L 408.8709677419355 14.650537634408579 L 407.66129032258067 14.38172043010752 L 406.7204301075269 14.247311827956935 L 405.64516129032256 14.112903225806463 L 403.36021505376345 13.844086021505404 L 402.4193548387097 13.57526881720429 L 401.3440860215054 13.57526881720429 L 400.26881720430106 13.44086021505376 L 400.26881720430106 13.44086021505376 L 400.26881720430106 13.44086021505376 L 400.26881720430106 13.44086021505376 L 400.13440860215053 13.44086021505376 L 400.13440860215053 13.44086021505376 L 400.13440860215053 13.44086021505376 L 400.13440860215053 13.44086021505376 L 400 13.44086021505376 L 400 13.44086021505376 L 400 13.44086021505376 L 400 13.44086021505376 L 400 13.44086021505376 L 399.86559139784947 13.44086021505376 L 399.86559139784947 13.44086021505376 L 399.86559139784947 13.44086021505376 L 399.86559139784947 13.44086021505376 L 399.73118279569894 13.44086021505376 L 399.73118279569894 13.44086021505376 L 399.73118279569894 13.44086021505376 L 399.73118279569894 13.44086021505376 L 398.6559139784946 13.57526881720429 L 397.5806451612903 13.57526881720429 L 396.63978494623655 13.844086021505404 L 394.35483870967744 14.112903225806463 L 393.2795698924731 14.247311827956935 L 392.33870967741933 14.38172043010752 L 391.1290322580645 14.650537634408579 L 390.18817204301075 14.784946236559165 L 389.11290322580646 15.053763440860223 L 388.0376344086022 15.322580645161281 L 386.9623655913978 15.59139784946234 L 385.88709677419354 15.860215053763397 L 384.81182795698925 16.39784946236557 L 383.73655913978496 16.801075268817215 L 382.7956989247312 17.069892473118273 L 381.85483870967744 17.47311827956986 L 380.9139784946237 17.876344086021504 L 379.9731182795699 18.27956989247309 L 378.76344086021504 18.951612903225794 L 377.5537634408602 19.758064516129025 L 376.2096774193548 20.564516129032256 L 374.86559139784947 21.639784946236546 L 373.252688172043 22.715053763440835 L 371.63978494623655 23.92473118279571 L 370.1612903225806 25.13440860215053 L 368.2795698924731 26.74731182795699 L 366.26344086021504 28.494623655913983 L 348.9247311827957 47.17741935483872 L 347.0430107526882 49.327956989247326 L 343.81720430107526 53.09139784946234 L 340.3225806451613 56.85483870967741 L 336.8279569892473 60.61827956989248 L 333.3333333333333 64.11290322580643 L 329.5698924731183 67.8763440860215 L 325.94086021505376 71.50537634408602 L 318.14516129032256 78.8978494623656 L 314.247311827957 82.79569892473117 L 310.0806451612903 86.42473118279568 L 305.9139784946236 90.32258064516128 L 301.747311827957 94.08602150537632 L 297.4462365591398 97.98387096774195 L 293.01075268817203 101.88172043010752 L 288.5752688172043 105.77956989247312 L 284.005376344086 109.67741935483869 L 279.5698924731183 113.57526881720432 L 275 117.60752688172042 L 270.43010752688167 121.63978494623655 L 265.7258064516129 125.53763440860214 L 261.1559139784946 129.56989247311827 L 256.31720430107526 133.73655913978496 L 251.61290322580646 137.63440860215053 L 246.77419354838707 141.80107526881721 L 241.93548387096774 145.96774193548384 L 237.2311827956989 150 L 227.5537634408602 158.33333333333334 L 226.34408602150538 159.4086021505376 L 184.67741935483872 196.7741935483871 L 180.10752688172042 200.94086021505376 L 175.4032258064516 205.3763440860215 L 170.83333333333331 209.81182795698925 L 166.3978494623656 214.247311827957 L 161.96236559139783 218.68279569892474 L 157.79569892473117 223.11827956989248 L 153.62903225806454 227.68817204301075 L 149.46236559139783 232.25806451612902 L 145.4301075268817 236.8279569892473 L 141.39784946236563 241.39784946236557 L 137.5 246.1021505376344 L 133.73655913978496 250.6720430107527 L 126.61290322580646 259.9462365591398 L 123.11827956989242 264.6505376344086 L 119.89247311827955 269.48924731182797 L 116.66666666666669 274.19354838709677 L 113.57526881720429 279.0322580645161 L 110.48387096774195 283.8709677419355 L 107.66129032258061 288.7096774193548 L 104.97311827956992 293.5483870967742 L 102.41935483870964 298.38709677419354 L 100 303.2258064516129 L 97.71505376344089 308.1989247311828 L 95.56451612903226 313.1720430107527 L 93.54838709677415 318.01075268817203 L 91.80107526881721 322.98387096774195 L 90.05376344086022 327.9569892473118 L 88.44086021505376 332.9301075268817 L 87.09677419354836 337.9032258064516 L 85.75268817204301 342.8763440860215 L 84.81182795698925 347.98387096774195 L 83.87096774193549 352.9569892473118 L 83.06451612903226 358.06451612903226 L 82.52688172043008 363.0376344086022 L 82.1236559139785 368.01075268817203 L 81.85483870967738 377.9569892473118 L 81.98924731182797 382.9301075268817 L 81.98924731182797 382.9301075268817 L 84.67741935483866 398.252688172043 L 88.70967741935482 413.30645161290323 L 93.9516129032258 427.9569892473118 L 100.53763440860212 442.06989247311833 L 108.33333333333331 455.64516129032256 L 117.33870967741933 468.4139784946236 L 127.41935483870964 480.3763440860215 L 138.44086021505376 491.39784946236557 L 150.4032258064516 501.3440860215054 L 163.17204301075267 510.2150537634409 L 176.61290322580643 518.010752688172 L 190.7258064516129 524.5967741935484 L 205.3763440860215 529.9731182795699 L 220.43010752688173 534.005376344086 L 235.88709677419354 536.5591397849463 L 251.34408602150538 537.9032258064516 L 266.93548387096774 537.9032258064516 L 282.5268817204301 536.5591397849463 L 297.8494623655914 533.736559139785 L 312.9032258064516 529.7043010752689 L 314.9193548387097 529.1666666666667 L 316.93548387096774 528.763440860215 L 319.0860215053764 528.494623655914 L 321.23655913978496 528.3602150537635 L 323.38709677419354 528.494623655914 L 325.4032258064516 528.763440860215 L 327.5537634408602 529.1666666666667 L 329.5698924731183 529.8387096774194 L 331.5860215053763 530.510752688172 L 333.4677419354839 531.4516129032259 L 335.3494623655914 532.5268817204301 L 337.0967741935484 533.736559139785 L 338.7096774193548 535.0806451612902 L 340.18817204301075 536.4247311827958 L 341.6666666666667 538.0376344086021 L 343.01075268817203 539.7849462365591 L 344.0860215053763 541.5322580645161 L 345.1612903225806 543.4139784946236 L 345.9677419354839 545.2956989247311 Z" fill="none" stroke="rgba(255, 255, 255, 0.5)" stroke-width="1.3440860215053765" data-type="pcb_board" data-pcb-layer="board"/><path class="pcb-trace" stroke="rgb(77, 127, 196)" fill="none" d="M 382.9301075268817 434.4086021505376 L 398.45617992541816 418.88252975200123" stroke-width="2.0161290322580645" stroke-linecap="round" stroke-linejoin="round" shape-rendering="crispEdges" data-type="pcb_trace" data-pcb-layer="bottom"/><path class="pcb-trace" stroke="rgb(77, 127, 196)" fill="none" d="M 398.45617992541816 418.88252975200123 L 523.8175175649502 418.88252975200123" stroke-width="2.0161290322580645" stroke-linecap="round" stroke-linejoin="round" shape-rendering="crispEdges" data-type="pcb_trace" data-pcb-layer="bottom"/><path class="pcb-trace" stroke="rgb(77, 127, 196)" fill="none" d="M 523.8175175649502 418.88252975200123 L 523.8175175649502 418.88252975200123" stroke-width="2.0161290322580645" stroke-linecap="round" stroke-linejoin="round" shape-rendering="crispEdges" data-type="pcb_trace" data-pcb-layer="bottom"/><path class="pcb-trace" stroke="rgb(77, 127, 196)" fill="none" d="M 523.8175175649502 418.88252975200123 L 526.1915922474448 421.2566044344958" stroke-width="2.0161290322580645" stroke-linecap="round" stroke-linejoin="round" shape-rendering="crispEdges" data-type="pcb_trace" data-pcb-layer="bottom"/><path class="pcb-trace" stroke="rgb(77, 127, 196)" fill="none" d="M 526.1915922474448 421.2566044344958 L 528.7802419354839 422.98387096774195" stroke-width="2.0161290322580645" stroke-linecap="round" stroke-linejoin="round" shape-rendering="crispEdges" data-type="pcb_trace" data-pcb-layer="bottom"/><path class="pcb-trace" stroke="rgb(77, 127, 196)" fill="none" d="M 528.7802419354839 422.98387096774195 L 528.7802419354839 422.98387096774195" stroke-width="2.0161290322580645" stroke-linecap="round" stroke-linejoin="round" shape-rendering="crispEdges" data-type="pcb_trace" data-pcb-layer="bottom"/><path class="pcb-trace" stroke="rgb(77, 127, 196)" fill="none" d="M 413.44086021505376 303.4663271080928 L 434.0442840973401 303.4663271080928" stroke-width="2.0161290322580645" stroke-linecap="round" stroke-linejoin="round" shape-rendering="crispEdges" data-type="pcb_trace" data-pcb-layer="bottom"/><path class="pcb-trace" stroke="rgb(77, 127, 196)" fill="none" d="M 434.0442840973401 303.4663271080928 L 445.36290322580646 314.7849462365591" stroke-width="2.0161290322580645" stroke-linecap="round" stroke-linejoin="round" shape-rendering="crispEdges" data-type="pcb_trace" data-pcb-layer="bottom"/><path class="pcb-trace" stroke="rgb(77, 127, 196)" fill="none" d="M 360.31586021505376 260.3494623655914 L 360.31586021505376 260.3494623655914" stroke-width="2.0161290322580645" stroke-linecap="round" stroke-linejoin="round" shape-rendering="crispEdges" data-type="pcb_trace" data-pcb-layer="bottom"/><path class="pcb-trace" stroke="rgb(77, 127, 196)" fill="none" d="M 360.31586021505376 260.3494623655914 L 370.36290322580646 260.3494623655914" stroke-width="2.0161290322580645" stroke-linecap="round" stroke-linejoin="round" shape-rendering="crispEdges" data-type="pcb_trace" data-pcb-layer="bottom"/><path class="pcb-trace" stroke="rgb(77, 127, 196)" fill="none" d="M 370.36290322580646 260.3494623655914 L 413.44086021505376 303.4274193548387" stroke-width="2.0161290322580645" stroke-linecap="round" stroke-linejoin="round" shape-rendering="crispEdges" data-type="pcb_trace" data-pcb-layer="bottom"/><path class="pcb-trace" stroke="rgb(77, 127, 196)" fill="none" d="M 561.2903225806451 375.26881720430106 L 561.2903225806451 375.26881720430106" stroke-width="2.0161290322580645" stroke-linecap="round" stroke-linejoin="round" shape-rendering="crispEdges" data-type="pcb_trace" data-pcb-layer="bottom"/><path class="pcb-trace" stroke="rgb(77, 127, 196)" fill="none" d="M 561.2903225806451 375.26881720430106 L 505.8467741935484 375.26881720430106" stroke-width="2.0161290322580645" stroke-linecap="round" stroke-linejoin="round" shape-rendering="crispEdges" data-type="pcb_trace" data-pcb-layer="bottom"/><path class="pcb-trace" stroke="rgb(77, 127, 196)" fill="none" d="M 505.8467741935484 375.26881720430106 L 445.36290322580646 314.7849462365591" stroke-width="2.0161290322580645" stroke-linecap="round" stroke-linejoin="round" shape-rendering="crispEdges" data-type="pcb_trace" data-pcb-layer="bottom"/><path class="pcb-silkscreen pcb-silkscreen-bottom" d="M 273.38709677419354 196.7741935483871 L 254.83870967741933 242.60752688172045 L 272.71505376344084 242.60752688172045 L 281.5860215053763 217.2043010752688 L 290.59139784946234 242.60752688172045 L 307.79569892473114 242.60752688172045 L 289.247311827957 196.7741935483871 L 273.38709677419354 196.7741935483871 Z" fill="none" stroke="#5da9e9" stroke-width="1.3440860215053765" stroke-linecap="round" stroke-linejoin="round" data-pcb-component-id="null" data-pcb-silkscreen-path-id="pcb_silkscreen_path_13" data-type="pcb_silkscreen_path" data-pcb-layer="bottom"/><path class="pcb-silkscreen pcb-silkscreen-bottom" d="M 327.5537634408602 196.7741935483871 L 311.02150537634407 196.7741935483871 L 311.02150537634407 242.60752688172045 L 327.5537634408602 242.60752688172045 L 327.5537634408602 196.7741935483871 Z" fill="none" stroke="#5da9e9" stroke-width="1.3440860215053765" stroke-linecap="round" stroke-linejoin="round" data-pcb-component-id="null" data-pcb-silkscreen-path-id="pcb_silkscreen_path_14" data-type="pcb_silkscreen_path" data-pcb-layer="bottom"/><path class="pcb-silkscreen pcb-silkscreen-bottom" d="M 374.05913978494624 242.60752688172045 L 374.05913978494624 232.25806451612902 L 354.5698924731183 210.21505376344086 L 374.3279569892473 210.21505376344086 L 374.3279569892473 196.7741935483871 L 332.258064516129 196.7741935483871 L 332.258064516129 207.39247311827955 L 351.8817204301075 229.16666666666669 L 333.4677419354839 229.16666666666669 L 333.4677419354839 242.60752688172045 L 374.05913978494624 242.60752688172045 Z" fill="none" stroke="#5da9e9" stroke-width="1.3440860215053765" stroke-linecap="round" stroke-linejoin="round" data-pcb-component-id="null" data-pcb-silkscreen-path-id="pcb_silkscreen_path_15" data-type="pcb_silkscreen_path" data-pcb-layer="bottom"/><path class="pcb-silkscreen pcb-silkscreen-bottom" d="M 375.80645161290323 219.89247311827955 L 376.3440860215054 224.73118279569894 L 377.4193548387097 229.56989247311827 L 379.7043010752688 233.60215053763443 L 382.7956989247312 236.96236559139786 L 386.4247311827957 239.9193548387097 L 390.4569892473118 242.06989247311827 L 395.2956989247312 243.5483870967742 L 400.6720430107527 244.08602150537632 L 404.83870967741933 243.5483870967742 L 408.8709677419355 242.60752688172045 L 411.2903225806452 241.66666666666666 L 411.2903225806452 226.34408602150535 L 408.4677419354839 227.82258064516128 L 405.3763440860215 228.89784946236557 L 403.09139784946234 228.89784946236557 L 399.05913978494624 228.2258064516129 L 395.8333333333333 226.34408602150535 L 393.68279569892474 223.52150537634407 L 392.741935483871 219.89247311827955 L 393.68279569892474 215.99462365591398 L 395.6989247311828 213.03763440860214 L 399.05913978494624 211.1559139784946 L 403.09139784946234 210.61827956989248 L 405.3763440860215 210.61827956989248 L 408.4677419354839 211.55913978494624 L 411.2903225806452 213.30645161290323 L 411.2903225806452 198.11827956989248 L 407.258064516129 196.3709677419355 L 403.09139784946234 195.69892473118279 L 400.5376344086022 195.69892473118279 L 395.2956989247312 195.96774193548384 L 390.4569892473118 197.31182795698925 L 386.4247311827957 199.3279569892473 L 382.7956989247312 202.15053763440858 L 379.9731182795699 205.64516129032256 L 377.68817204301075 209.67741935483872 L 376.3440860215054 214.51612903225805 L 375.80645161290323 219.89247311827955 Z" fill="none" stroke="#5da9e9" stroke-width="1.3440860215053765" stroke-linecap="round" stroke-linejoin="round" data-pcb-component-id="null" data-pcb-silkscreen-path-id="pcb_silkscreen_path_16" data-type="pcb_silkscreen_path" data-pcb-layer="bottom"/><path class="pcb-silkscreen pcb-silkscreen-bottom" d="M 440.18817204301075 244.08602150537632 L 445.2956989247312 243.5483870967742 L 450 242.06989247311827 L 454.43548387096774 239.9193548387097 L 458.1989247311828 236.96236559139786 L 461.4247311827957 233.33333333333331 L 463.5752688172043 229.16666666666669 L 465.0537634408602 224.73118279569894 L 465.45698924731187 219.89247311827955 L 465.0537634408602 214.6505376344086 L 463.5752688172043 210.21505376344086 L 461.4247311827957 206.0483870967742 L 458.1989247311828 202.4193548387097 L 454.43548387096774 199.46236559139783 L 450 197.31182795698925 L 445.2956989247312 195.96774193548384 L 440.18817204301075 195.69892473118279 L 434.81182795698925 195.96774193548384 L 429.9731182795699 197.31182795698925 L 425.6720430107527 199.46236559139783 L 421.7741935483871 202.4193548387097 L 418.5483870967742 206.0483870967742 L 416.39784946236557 210.21505376344086 L 415.0537634408602 214.6505376344086 L 414.51612903225805 219.89247311827955 L 415.0537634408602 224.73118279569894 L 416.39784946236557 229.16666666666669 L 418.5483870967742 233.33333333333331 L 421.7741935483871 236.96236559139786 L 425.6720430107527 239.9193548387097 L 429.9731182795699 242.06989247311827 L 434.81182795698925 243.5483870967742 L 440.18817204301075 244.08602150537632 Z" fill="none" stroke="#5da9e9" stroke-width="1.3440860215053765" stroke-linecap="round" stroke-linejoin="round" data-pcb-component-id="null" data-pcb-silkscreen-path-id="pcb_silkscreen_path_17" data-type="pcb_silkscreen_path" data-pcb-layer="bottom"/><path class="pcb-silkscreen pcb-silkscreen-bottom" d="M 440.18817204301075 228.89784946236557 L 436.4247311827957 228.09139784946237 L 433.60215053763443 226.0752688172043 L 431.7204301075269 223.252688172043 L 430.9139784946237 219.89247311827955 L 431.7204301075269 216.1290322580645 L 433.60215053763443 213.30645161290323 L 436.4247311827957 211.29032258064518 L 440.18817204301075 210.61827956989248 L 443.5483870967742 211.29032258064518 L 446.505376344086 213.30645161290323 L 448.38709677419354 216.1290322580645 L 449.05913978494624 219.89247311827955 L 448.38709677419354 223.252688172043 L 446.505376344086 226.0752688172043 L 443.5483870967742 228.09139784946237 L 440.18817204301075 228.89784946236557 Z" fill="none" stroke="#5da9e9" stroke-width="1.3440860215053765" stroke-linecap="round" stroke-linejoin="round" data-pcb-component-id="null" data-pcb-silkscreen-path-id="pcb_silkscreen_path_18" data-type="pcb_silkscreen_path" data-pcb-layer="bottom"/><path class="pcb-silkscreen pcb-silkscreen-bottom" d="M 485.3494623655914 221.50537634408602 L 485.3494623655914 196.63978494623655 L 468.4139784946237 196.63978494623655 L 468.4139784946237 242.60752688172045 L 485.3494623655914 242.60752688172045 L 485.3494623655914 237.2311827956989 L 488.97849462365593 240.86021505376343 L 493.81720430107526 243.27956989247312 L 497.98387096774195 243.68279569892474 L 502.28494623655916 243.27956989247312 L 507.39247311827955 240.86021505376343 L 511.02150537634407 236.42473118279568 L 515.3225806451613 241.1290322580645 L 521.1021505376344 243.5483870967742 L 525.2688172043011 243.68279569892474 L 532.258064516129 242.60752688172045 L 537.3655913978495 238.9784946236559 L 540.3225806451612 233.60215053763443 L 541.5322580645161 226.0752688172043 L 541.5322580645161 196.63978494623655 L 524.5967741935484 196.63978494623655 L 524.5967741935484 221.77419354838707 L 523.5215053763441 225.6720430107527 L 521.505376344086 228.09139784946237 L 519.0860215053764 228.49462365591398 L 516.8010752688172 228.09139784946237 L 514.3817204301075 225.6720430107527 L 513.5752688172042 221.50537634408602 L 513.5752688172042 196.63978494623655 L 496.63978494623655 196.63978494623655 L 496.63978494623655 221.77419354838707 L 495.8333333333333 225.6720430107527 L 493.4139784946237 228.09139784946237 L 491.26344086021504 228.49462365591398 L 488.8440860215054 228.09139784946237 L 486.2903225806452 225.6720430107527 L 485.3494623655914 221.50537634408602 Z" fill="none" stroke="#5da9e9" stroke-width="1.3440860215053765" stroke-linecap="round" stroke-linejoin="round" data-pcb-component-id="null" data-pcb-silkscreen-path-id="pcb_silkscreen_path_19" data-type="pcb_silkscreen_path" data-pcb-layer="bottom"/><rect class="pcb-pad" fill="rgb(200, 52, 52)" x="282.39247311827955" y="212.63440860215056" width="40.322580645161295" height="40.322580645161295" data-type="pcb_smtpad" data-pcb-layer="top"/><rect class="pcb-pad" fill="rgb(200, 52, 52)" x="477.2849462365591" y="212.63440860215056" width="40.322580645161295" height="40.322580645161295" data-type="pcb_smtpad" data-pcb-layer="top"/><rect class="pcb-pad" fill="rgb(200, 52, 52)" x="386.55913978494624" y="287.9032258064516" width="26.881720430107528" height="26.881720430107528" data-type="pcb_smtpad" data-pcb-layer="top"/><rect class="pcb-pad" fill="rgb(200, 52, 52)" x="386.55913978494624" y="150.80645161290323" width="26.881720430107528" height="26.881720430107528" data-type="pcb_smtpad" data-pcb-layer="top"/><rect class="pcb-pad" fill="rgb(200, 52, 52)" x="583.4677419354839" y="397.4462365591398" width="9.408602150537634" height="20.161290322580648" data-type="pcb_smtpad" data-pcb-layer="top"/><rect class="pcb-pad" fill="rgb(200, 52, 52)" x="596.9086021505376" y="397.4462365591398" width="9.408602150537634" height="20.161290322580648" data-type="pcb_smtpad" data-pcb-layer="top"/><rect class="pcb-pad" fill="rgb(200, 52, 52)" x="610.3494623655913" y="397.4462365591398" width="9.408602150537634" height="20.161290322580648" data-type="pcb_smtpad" data-pcb-layer="top"/><rect class="pcb-pad" fill="rgb(200, 52, 52)" x="547.8494623655913" y="395.43010752688167" width="13.440860215053764" height="24.193548387096776" data-type="pcb_smtpad" data-pcb-layer="top"/><rect class="pcb-pad" fill="rgb(200, 52, 52)" x="641.9354838709677" y="395.43010752688167" width="13.440860215053764" height="24.193548387096776" data-type="pcb_smtpad" data-pcb-layer="top"/><rect class="pcb-pad" fill="rgb(200, 52, 52)" x="517.9435483870968" y="401.14247311827955" width="10.752688172043012" height="12.768817204301076" data-type="pcb_smtpad" data-pcb-layer="top"/><rect class="pcb-pad" fill="rgb(200, 52, 52)" x="540.1209677419355" y="401.14247311827955" width="10.752688172043012" height="12.768817204301076" data-type="pcb_smtpad" data-pcb-layer="top"/><path class="pcb-trace" stroke="rgb(200, 52, 52)" fill="none" d="M 528.7802419354839 422.98387096774195 L 528.7802419354839 422.98387096774195" stroke-width="2.0161290322580645" stroke-linecap="round" stroke-linejoin="round" shape-rendering="crispEdges" data-type="pcb_trace" data-pcb-layer="top"/><path class="pcb-trace" stroke="rgb(200, 52, 52)" fill="none" d="M 528.7802419354839 422.98387096774195 L 530.0403225806451 422.98387096774195" stroke-width="2.0161290322580645" stroke-linecap="round" stroke-linejoin="round" shape-rendering="crispEdges" data-type="pcb_trace" data-pcb-layer="top"/><path class="pcb-trace" stroke="rgb(200, 52, 52)" fill="none" d="M 530.0403225806451 422.98387096774195 L 545.497311827957 407.5268817204301" stroke-width="2.0161290322580645" stroke-linecap="round" stroke-linejoin="round" shape-rendering="crispEdges" data-type="pcb_trace" data-pcb-layer="top"/><path class="pcb-trace" stroke="rgb(200, 52, 52)" fill="none" d="M 523.3198924731183 407.5268817204301 L 523.3198924731183 405.371473529477" stroke-width="2.0161290322580645" stroke-linecap="round" stroke-linejoin="round" shape-rendering="crispEdges" data-type="pcb_trace" data-pcb-layer="top"/><path class="pcb-trace" stroke="rgb(200, 52, 52)" fill="none" d="M 523.3198924731183 405.371473529477 L 566.9394492972923 361.75191670530296" stroke-width="2.0161290322580645" stroke-linecap="round" stroke-linejoin="round" shape-rendering="crispEdges" data-type="pcb_trace" data-pcb-layer="top"/><path class="pcb-trace" stroke="rgb(200, 52, 52)" fill="none" d="M 566.9394492972923 361.75191670530296 L 601.6129032258065 396.42537063381707" stroke-width="2.0161290322580645" stroke-linecap="round" stroke-linejoin="round" shape-rendering="crispEdges" data-type="pcb_trace" data-pcb-layer="top"/><path class="pcb-trace" stroke="rgb(200, 52, 52)" fill="none" d="M 601.6129032258065 396.42537063381707 L 601.6129032258065 407.5268817204301" stroke-width="2.0161290322580645" stroke-linecap="round" stroke-linejoin="round" shape-rendering="crispEdges" data-type="pcb_trace" data-pcb-layer="top"/><path class="pcb-trace" stroke="rgb(200, 52, 52)" fill="none" d="M 477.2849462365591 300.63667232597624 L 459.51117713638934 300.63667232597624" stroke-width="2.0161290322580645" stroke-linecap="round" stroke-linejoin="round" shape-rendering="crispEdges" data-type="pcb_trace" data-pcb-layer="top"/><path class="pcb-trace" stroke="rgb(200, 52, 52)" fill="none" d="M 459.51117713638934 300.63667232597624 L 445.36290322580646 314.7849462365591" stroke-width="2.0161290322580645" stroke-linecap="round" stroke-linejoin="round" shape-rendering="crispEdges" data-type="pcb_trace" data-pcb-layer="top"/><path class="pcb-trace" stroke="rgb(200, 52, 52)" fill="none" d="M 497.4462365591398 232.7956989247312 L 497.4462365591398 281.18279569892474" stroke-width="2.0161290322580645" stroke-linecap="round" stroke-linejoin="round" shape-rendering="crispEdges" data-type="pcb_trace" data-pcb-layer="top"/><path class="pcb-trace" stroke="rgb(200, 52, 52)" fill="none" d="M 497.4462365591398 281.18279569892474 L 477.2849462365591 301.34408602150535" stroke-width="2.0161290322580645" stroke-linecap="round" stroke-linejoin="round" shape-rendering="crispEdges" data-type="pcb_trace" data-pcb-layer="top"/><path class="pcb-trace" stroke="rgb(200, 52, 52)" fill="none" d="M 417.0698924731183 434.4086021505376 L 417.0698924731183 343.0779569892473" stroke-width="2.0161290322580645" stroke-linecap="round" stroke-linejoin="round" shape-rendering="crispEdges" data-type="pcb_trace" data-pcb-layer="top"/><path class="pcb-trace" stroke="rgb(200, 52, 52)" fill="none" d="M 417.0698924731183 343.0779569892473 L 445.36290322580646 314.7849462365591" stroke-width="2.0161290322580645" stroke-linecap="round" stroke-linejoin="round" shape-rendering="crispEdges" data-type="pcb_trace" data-pcb-layer="top"/><path class="pcb-trace" stroke="rgb(200, 52, 52)" fill="none" d="M 302.5537634408602 232.7956989247312 L 332.36932838431346 232.7956989247312" stroke-width="2.0161290322580645" stroke-linecap="round" stroke-linejoin="round" shape-rendering="crispEdges" data-type="pcb_trace" data-pcb-layer="top"/><path class="pcb-trace" stroke="rgb(200, 52, 52)" fill="none" d="M 332.36932838431346 232.7956989247312 L 358.8459343679776 259.27230490839526" stroke-width="2.0161290322580645" stroke-linecap="round" stroke-linejoin="round" shape-rendering="crispEdges" data-type="pcb_trace" data-pcb-layer="top"/><path class="pcb-trace" stroke="rgb(200, 52, 52)" fill="none" d="M 358.8459343679776 259.27230490839526 L 360.31586021505376 260.3494623655914" stroke-width="2.0161290322580645" stroke-linecap="round" stroke-linejoin="round" shape-rendering="crispEdges" data-type="pcb_trace" data-pcb-layer="top"/><path class="pcb-trace" stroke="rgb(200, 52, 52)" fill="none" d="M 360.31586021505376 260.3494623655914 L 360.31586021505376 260.3494623655914" stroke-width="2.0161290322580645" stroke-linecap="round" stroke-linejoin="round" shape-rendering="crispEdges" data-type="pcb_trace" data-pcb-layer="top"/><path class="pcb-trace" stroke="rgb(200, 52, 52)" fill="none" d="M 588.1720430107528 407.5268817204301 L 588.1720430107528 403.21995889302855" stroke-width="2.0161290322580645" stroke-linecap="round" stroke-linejoin="round" shape-rendering="crispEdges" data-type="pcb_trace" data-pcb-layer="top"/><path class="pcb-trace" stroke="rgb(200, 52, 52)" fill="none" d="M 588.1720430107528 403.21995889302855 L 562.7060735124453 377.75398939472115" stroke-width="2.0161290322580645" stroke-linecap="round" stroke-linejoin="round" shape-rendering="crispEdges" data-type="pcb_trace" data-pcb-layer="top"/><path class="pcb-trace" stroke="rgb(200, 52, 52)" fill="none" d="M 562.7060735124453 377.75398939472115 L 561.2903225806451 375.26881720430106" stroke-width="2.0161290322580645" stroke-linecap="round" stroke-linejoin="round" shape-rendering="crispEdges" data-type="pcb_trace" data-pcb-layer="top"/><path class="pcb-trace" stroke="rgb(200, 52, 52)" fill="none" d="M 561.2903225806451 375.26881720430106 L 561.2903225806451 375.26881720430106" stroke-width="2.0161290322580645" stroke-linecap="round" stroke-linejoin="round" shape-rendering="crispEdges" data-type="pcb_trace" data-pcb-layer="top"/><path class="pcb-silkscreen pcb-silkscreen-top" d="M 302.5537634408602 259.6774193548387 L 302.5537634408602 205.91397849462365" fill="none" stroke="#f2eda1" stroke-width="1.3440860215053765" stroke-linecap="round" stroke-linejoin="round" data-pcb-component-id="pcb_component_0" data-pcb-silkscreen-path-id="pcb_silkscreen_path_0" data-type="pcb_silkscreen_path" data-pcb-layer="top"/><path class="pcb-silkscreen pcb-silkscreen-top" d="M 294.48924731182797 232.7956989247312 L 310.6182795698925 232.7956989247312" fill="none" stroke="#f2eda1" stroke-width="1.3440860215053765" stroke-linecap="round" stroke-linejoin="round" data-pcb-component-id="pcb_component_0" data-pcb-silkscreen-path-id="pcb_silkscreen_path_1" data-type="pcb_silkscreen_path" data-pcb-layer="top"/><text x="0" y="0" dx="0" dy="0" fill="#f2eda1" font-family="Arial, sans-serif" font-size="13.440860215053764" text-anchor="middle" dominant-baseline="central" transform="matrix(1,0,0,1,302.5537634408602,273.1182795698925)" class="pcb-silkscreen-text pcb-silkscreen-top" data-pcb-silkscreen-text-id="pcb_component_0" stroke="none" data-type="pcb_silkscreen_text" data-pcb-layer="top">+</text><text x="0" y="0" dx="0" dy="0" fill="#f2eda1" font-family="Arial, sans-serif" font-size="13.440860215053764" text-anchor="middle" dominant-baseline="central" transform="matrix(1,0,0,1,497.4462365591398,273.1182795698925)" class="pcb-silkscreen-text pcb-silkscreen-top" data-pcb-silkscreen-text-id="pcb_component_0" stroke="none" data-type="pcb_silkscreen_text" data-pcb-layer="top">-</text><path class="pcb-silkscreen pcb-silkscreen-top" d="M 574.7311827956989 420.9677419354839 L 628.494623655914 420.9677419354839 L 628.494623655914 394.0860215053764 L 574.7311827956989 394.0860215053764 L 574.7311827956989 420.9677419354839 Z" fill="none" stroke="#f2eda1" stroke-width="1.3440860215053765" stroke-linecap="round" stroke-linejoin="round" data-pcb-component-id="pcb_component_1" data-pcb-silkscreen-path-id="pcb_silkscreen_path_2" data-type="pcb_silkscreen_path" data-pcb-layer="top"/><path class="pcb-silkscreen pcb-silkscreen-top" d="M 545.497311827957 395.76612903225805 L 515.255376344086 395.76612903225805 L 515.255376344086 419.2876344086022 L 545.497311827957 419.2876344086022" fill="none" stroke="#f2eda1" stroke-width="1.3440860215053765" stroke-linecap="round" stroke-linejoin="round" data-pcb-component-id="pcb_component_2" data-pcb-silkscreen-path-id="pcb_silkscreen_path_3" data-type="pcb_silkscreen_path" data-pcb-layer="top"/><text x="0" y="0" dx="0" dy="0" fill="#f2eda1" font-family="Arial, sans-serif" font-size="5.376344086021506" text-anchor="middle" dominant-baseline="central" transform="matrix(1,0,0,1,534.4086021505376,389.0456989247312)" class="pcb-silkscreen-text pcb-silkscreen-top" data-pcb-silkscreen-text-id="pcb_component_2" stroke="none" data-type="pcb_silkscreen_text" data-pcb-layer="top">R1</text><path class="pcb-silkscreen pcb-silkscreen-top" d="M 366.39784946236557 454.5698924731183 L 433.60215053763443 454.5698924731183 L 433.60215053763443 414.247311827957 L 366.39784946236557 414.247311827957 L 366.39784946236557 454.5698924731183 Z" fill="none" stroke="#f2eda1" stroke-width="1.3440860215053765" stroke-linecap="round" stroke-linejoin="round" data-pcb-component-id="pcb_component_3" data-pcb-silkscreen-path-id="pcb_silkscreen_path_4" data-type="pcb_silkscreen_path" data-pcb-layer="top"/><path class="pcb-silkscreen pcb-silkscreen-top" d="M 417.0698924731183 454.5698924731183 L 417.0698924731183 414.247311827957" fill="none" stroke="#f2eda1" stroke-width="1.3440860215053765" stroke-linecap="round" stroke-linejoin="round" data-pcb-component-id="pcb_component_3" data-pcb-silkscreen-path-id="pcb_silkscreen_path_5" data-type="pcb_silkscreen_path" data-pcb-layer="top"/><text x="0" y="0" dx="0" dy="0" fill="#f2eda1" font-family="Arial, sans-serif" font-size="10.752688172043012" text-anchor="middle" dominant-baseline="central" transform="matrix(1,0,0,1,382.9301075268817,463.97849462365593)" class="pcb-silkscreen-text pcb-silkscreen-top" data-pcb-silkscreen-text-id="pcb_component_3" stroke="none" data-type="pcb_silkscreen_text" data-pcb-layer="top">+</text><text x="0" y="0" dx="0" dy="0" fill="#f2eda1" font-family="Arial, sans-serif" font-size="10.752688172043012" text-anchor="middle" dominant-baseline="central" transform="matrix(1,0,0,1,400,404.8387096774194)" class="pcb-silkscreen-text pcb-silkscreen-top" data-pcb-silkscreen-text-id="pcb_component_3" stroke="none" data-type="pcb_silkscreen_text" data-pcb-layer="top">LED</text><path class="pcb-silkscreen pcb-silkscreen-top" d="M 335.88709677419354 368.14516129032256 L 346.23655913978496 393.5483870967742 L 336.2903225806451 393.5483870967742 L 331.31720430107526 379.43548387096774 L 326.34408602150535 393.5483870967742 L 316.8010752688172 393.5483870967742 L 327.1505376344086 368.14516129032256 L 335.88709677419354 368.14516129032256 Z" fill="none" stroke="#f2eda1" stroke-width="1.3440860215053765" stroke-linecap="round" stroke-linejoin="round" data-pcb-component-id="null" data-pcb-silkscreen-path-id="pcb_silkscreen_path_6" data-type="pcb_silkscreen_path" data-pcb-layer="top"/><path class="pcb-silkscreen pcb-silkscreen-top" d="M 305.7795698924731 368.14516129032256 L 315.0537634408602 368.14516129032256 L 315.0537634408602 393.5483870967742 L 305.7795698924731 393.5483870967742 L 305.7795698924731 368.14516129032256 Z" fill="none" stroke="#f2eda1" stroke-width="1.3440860215053765" stroke-linecap="round" stroke-linejoin="round" data-pcb-component-id="null" data-pcb-silkscreen-path-id="pcb_silkscreen_path_7" data-type="pcb_silkscreen_path" data-pcb-layer="top"/><path class="pcb-silkscreen pcb-silkscreen-top" d="M 279.9731182795699 393.5483870967742 L 279.9731182795699 387.76881720430106 L 290.86021505376345 375.5376344086022 L 279.8387096774194 375.5376344086022 L 279.8387096774194 368.14516129032256 L 303.2258064516129 368.14516129032256 L 303.2258064516129 374.05913978494624 L 292.3387096774194 386.1559139784946 L 302.5537634408602 386.1559139784946 L 302.5537634408602 393.5483870967742 L 279.9731182795699 393.5483870967742 Z" fill="none" stroke="#f2eda1" stroke-width="1.3440860215053765" stroke-linecap="round" stroke-linejoin="round" data-pcb-component-id="null" data-pcb-silkscreen-path-id="pcb_silkscreen_path_8" data-type="pcb_silkscreen_path" data-pcb-layer="top"/><path class="pcb-silkscreen pcb-silkscreen-top" d="M 279.0322580645161 380.9139784946236 L 278.76344086021504 383.60215053763443 L 278.09139784946234 386.2903225806452 L 276.8817204301075 388.5752688172043 L 275.13440860215053 390.45698924731187 L 273.1182795698925 392.0698924731183 L 270.83333333333337 393.2795698924731 L 268.14516129032256 394.0860215053764 L 265.18817204301075 394.35483870967744 L 262.9032258064516 394.0860215053764 L 260.6182795698925 393.5483870967742 L 259.2741935483871 393.01075268817203 L 259.2741935483871 384.5430107526882 L 260.88709677419354 385.3494623655914 L 262.63440860215053 385.88709677419354 L 263.84408602150535 385.88709677419354 L 266.1290322580645 385.6182795698925 L 267.8763440860215 384.5430107526882 L 269.0860215053763 382.9301075268817 L 269.6236559139785 380.9139784946236 L 269.0860215053763 378.76344086021504 L 268.01075268817203 377.1505376344086 L 266.1290322580645 376.0752688172043 L 263.84408602150535 375.80645161290323 L 262.63440860215053 375.80645161290323 L 260.88709677419354 376.3440860215054 L 259.2741935483871 377.2849462365591 L 259.2741935483871 368.81720430107526 L 261.5591397849462 367.8763440860215 L 263.84408602150535 367.4731182795699 L 265.3225806451613 367.4731182795699 L 268.14516129032256 367.60752688172045 L 270.83333333333337 368.4139784946237 L 273.1182795698925 369.48924731182797 L 275.13440860215053 371.10215053763443 L 276.747311827957 372.98387096774195 L 277.9569892473118 375.26881720430106 L 278.76344086021504 377.9569892473118 L 279.0322580645161 380.9139784946236 Z" fill="none" stroke="#f2eda1" stroke-width="1.3440860215053765" stroke-linecap="round" stroke-linejoin="round" data-pcb-component-id="null" data-pcb-silkscreen-path-id="pcb_silkscreen_path_9" data-type="pcb_silkscreen_path" data-pcb-layer="top"/><path class="pcb-silkscreen pcb-silkscreen-top" d="M 243.27956989247312 394.35483870967744 L 240.4569892473118 394.0860215053764 L 237.76881720430106 393.2795698924731 L 235.3494623655914 392.0698924731183 L 233.19892473118279 390.45698924731187 L 231.45161290322582 388.44086021505376 L 230.24193548387098 386.1559139784946 L 229.43548387096774 383.60215053763443 L 229.16666666666666 380.9139784946236 L 229.43548387096774 378.0913978494624 L 230.24193548387098 375.5376344086022 L 231.45161290322582 373.252688172043 L 233.19892473118279 371.23655913978496 L 235.3494623655914 369.6236559139785 L 237.76881720430106 368.4139784946237 L 240.4569892473118 367.60752688172045 L 243.27956989247312 367.4731182795699 L 246.23655913978496 367.60752688172045 L 248.92473118279568 368.4139784946237 L 251.34408602150538 369.6236559139785 L 253.49462365591395 371.23655913978496 L 255.24193548387098 373.252688172043 L 256.4516129032258 375.5376344086022 L 257.258064516129 378.0913978494624 L 257.5268817204301 380.9139784946236 L 257.258064516129 383.60215053763443 L 256.4516129032258 386.1559139784946 L 255.24193548387098 388.44086021505376 L 253.49462365591395 390.45698924731187 L 251.34408602150538 392.0698924731183 L 248.92473118279568 393.2795698924731 L 246.23655913978496 394.0860215053764 L 243.27956989247312 394.35483870967744 Z" fill="none" stroke="#f2eda1" stroke-width="1.3440860215053765" stroke-linecap="round" stroke-linejoin="round" data-pcb-component-id="null" data-pcb-silkscreen-path-id="pcb_silkscreen_path_10" data-type="pcb_silkscreen_path" data-pcb-layer="top"/><path class="pcb-silkscreen pcb-silkscreen-top" d="M 243.27956989247312 385.88709677419354 L 245.29569892473117 385.48387096774195 L 246.90860215053763 384.40860215053766 L 247.98387096774192 382.7956989247312 L 248.38709677419354 380.9139784946236 L 247.98387096774192 378.89784946236557 L 246.90860215053763 377.2849462365591 L 245.29569892473117 376.2096774193549 L 243.27956989247312 375.80645161290323 L 241.39784946236557 376.2096774193549 L 239.78494623655914 377.2849462365591 L 238.70967741935482 378.89784946236557 L 238.30645161290323 380.9139784946236 L 238.70967741935482 382.7956989247312 L 239.78494623655914 384.40860215053766 L 241.39784946236557 385.48387096774195 L 243.27956989247312 385.88709677419354 Z" fill="none" stroke="#f2eda1" stroke-width="1.3440860215053765" stroke-linecap="round" stroke-linejoin="round" data-pcb-component-id="null" data-pcb-silkscreen-path-id="pcb_silkscreen_path_11" data-type="pcb_silkscreen_path" data-pcb-layer="top"/><path class="pcb-silkscreen pcb-silkscreen-top" d="M 218.1451612903226 381.85483870967744 L 218.1451612903226 368.01075268817203 L 227.5537634408602 368.01075268817203 L 227.5537634408602 393.5483870967742 L 218.1451612903226 393.5483870967742 L 218.1451612903226 390.5913978494624 L 216.1290322580645 392.60752688172045 L 213.44086021505376 393.9516129032258 L 211.1559139784946 394.2204301075269 L 208.73655913978493 393.9516129032258 L 205.91397849462362 392.60752688172045 L 203.8978494623656 390.18817204301075 L 201.4784946236559 392.741935483871 L 198.252688172043 394.0860215053764 L 195.96774193548387 394.2204301075269 L 192.0698924731183 393.5483870967742 L 189.247311827957 391.53225806451616 L 187.63440860215053 388.5752688172043 L 186.96236559139786 384.40860215053766 L 186.96236559139786 368.01075268817203 L 196.37096774193546 368.01075268817203 L 196.37096774193546 381.98924731182797 L 196.90860215053763 384.13978494623655 L 198.11827956989248 385.48387096774195 L 199.46236559139786 385.752688172043 L 200.67204301075267 385.48387096774195 L 202.01612903225805 384.13978494623655 L 202.5537634408602 381.85483870967744 L 202.5537634408602 368.01075268817203 L 211.96236559139783 368.01075268817203 L 211.96236559139783 381.98924731182797 L 212.36559139784944 384.13978494623655 L 213.70967741935485 385.48387096774195 L 214.91935483870967 385.752688172043 L 216.26344086021504 385.48387096774195 L 217.60752688172042 384.13978494623655 L 218.1451612903226 381.85483870967744 Z" fill="none" stroke="#f2eda1" stroke-width="1.3440860215053765" stroke-linecap="round" stroke-linejoin="round" data-pcb-component-id="null" data-pcb-silkscreen-path-id="pcb_silkscreen_path_12" data-type="pcb_silkscreen_path" data-pcb-layer="top"/><g data-type="pcb_plated_hole" data-pcb-layer="through"><circle class="pcb-hole-outer" fill="rgb(200, 52, 52)" cx="382.9301075268817" cy="434.4086021505376" r="12.096774193548388" data-type="pcb_plated_hole" data-pcb-layer="top"/><circle class="pcb-hole-inner" fill="#FF26E2" cx="382.9301075268817" cy="434.4086021505376" r="6.720430107526882" data-type="pcb_plated_hole_drill" data-pcb-layer="drill"/></g><g data-type="pcb_plated_hole" data-pcb-layer="through"><circle class="pcb-hole-outer" fill="rgb(200, 52, 52)" cx="417.0698924731183" cy="434.4086021505376" r="12.096774193548388" data-type="pcb_plated_hole" data-pcb-layer="top"/><circle class="pcb-hole-inner" fill="#FF26E2" cx="417.0698924731183" cy="434.4086021505376" r="6.720430107526882" data-type="pcb_plated_hole_drill" data-pcb-layer="drill"/></g><g data-type="pcb_via" data-pcb-layer="through"><circle class="pcb-hole-outer" fill="rgb(200, 52, 52)" cx="528.7802419354839" cy="422.98387096774195" r="2.0161290322580645" data-type="pcb_via" data-pcb-layer="top"/><circle class="pcb-hole-inner" fill="#FF26E2" cx="528.7802419354839" cy="422.98387096774195" r="1.3440860215053765" data-type="pcb_via" data-pcb-layer="drill"/></g><g data-type="pcb_via" data-pcb-layer="through"><circle class="pcb-hole-outer" fill="rgb(200, 52, 52)" cx="360.31586021505376" cy="260.3494623655914" r="2.0161290322580645" data-type="pcb_via" data-pcb-layer="top"/><circle class="pcb-hole-inner" fill="#FF26E2" cx="360.31586021505376" cy="260.3494623655914" r="1.3440860215053765" data-type="pcb_via" data-pcb-layer="drill"/></g><g data-type="pcb_via" data-pcb-layer="through"><circle class="pcb-hole-outer" fill="rgb(200, 52, 52)" cx="561.2903225806451" cy="375.26881720430106" r="2.0161290322580645" data-type="pcb_via" data-pcb-layer="top"/><circle class="pcb-hole-inner" fill="#FF26E2" cx="561.2903225806451" cy="375.26881720430106" r="1.3440860215053765" data-type="pcb_via" data-pcb-layer="drill"/></g><circle class="pcb-hole" cx="400" cy="515.0537634408602" r="16.801075268817204" fill="#FF26E2" data-type="pcb_hole" data-pcb-layer="drill"/></svg>