<svg xmlns="http://www.w3.org/2000/svg" width="800" height="600" data-software-used-string="@tscircuit/core@0.0.1112"><style></style><rect class="boundary" x="0" y="0" fill="#000" width="800" height="600" data-type="pcb_background" data-pcb-layer="global"/><rect class="pcb-boundary" fill="none" stroke="#fff" stroke-width="0.3" x="64.17910447761199" y="14.925373134328424" width="671.641791044776" height="570.1492537313433" data-type="pcb_boundary" data-pcb-layer="global"/><path class="pcb-board" d="M 400 585.0746268656717 L 422.3880597014925 577.6119402985075 L 434.3283582089552 567.1641791044776 L 441.7910447761194 552.2388059701493 L 444.77611940298505 532.8358208955224 L 444.77611940298505 510.4477611940299 L 441.94029850746267 495.82089552238807 L 468.2089552238806 519.7014925373135 L 500.5970149253731 538.5074626865672 L 537.9104477611941 549.5522388059702 L 577.7611940298507 551.1940298507463 L 618.0597014925372 542.8358208955224 L 656.1194029850747 524.7761194029852 L 688.8059701492537 498.2089552238806 L 714.1791044776119 464.7761194029851 L 730.2985074626865 426.4179104477612 L 735.820895522388 385.3731343283582 L 730.2985074626865 343.43283582089555 L 714.1791044776119 301.9402985074627 L 688.8059701492537 261.64179104477614 L 656.1194029850747 222.98507462686572 L 618.0597014925372 186.11940298507466 L 577.7611940298507 150.5970149253732 L 537.9104477611941 116.41791044776124 L 500.5970149253731 83.58208955223887 L 468.2089552238806 52.38805970149258 L 447.76119402985074 35.82089552238813 L 429.85074626865674 23.8805970149254 L 414.92537313432837 17.91044776119412 L 400 14.925373134328424 L 385.07462686567163 17.91044776119412 L 370.14925373134326 23.8805970149254 L 352.23880597014926 35.82089552238813 L 331.7910447761194 52.38805970149258 L 299.4029850746269 83.58208955223887 L 262.089552238806 116.41791044776124 L 222.23880597014926 150.5970149253732 L 181.94029850746273 186.11940298507466 L 143.8805970149254 222.98507462686572 L 111.19402985074629 261.64179104477614 L 85.82089552238807 301.9402985074627 L 69.70149253731347 343.43283582089555 L 64.17910447761199 385.3731343283582 L 69.70149253731347 426.4179104477612 L 85.82089552238807 464.7761194029851 L 111.19402985074629 498.2089552238806 L 143.8805970149254 524.7761194029852 L 181.94029850746273 542.8358208955224 L 222.23880597014926 551.1940298507463 L 262.089552238806 549.5522388059702 L 299.4029850746269 538.5074626865672 L 331.7910447761194 519.7014925373135 L 358.05970149253733 495.82089552238807 L 355.22388059701495 510.4477611940299 L 355.22388059701495 532.8358208955224 L 358.2089552238806 552.2388059701493 L 365.6716417910448 567.1641791044776 L 377.6119402985075 577.6119402985075 Z" fill="none" stroke="rgba(255, 255, 255, 0.5)" stroke-width="1.4925373134328357" data-type="pcb_board" data-pcb-layer="board"/><path class="pcb-trace" stroke="rgb(77, 127, 196)" fill="none" d="M 549.2537313432836 402.9850746268657 L 549.2537313432836 402.9850746268657" stroke-width="2.2388059701492535" stroke-linecap="round" stroke-linejoin="round" shape-rendering="crispEdges" data-type="pcb_trace" data-pcb-layer="bottom"/><path class="pcb-trace" stroke="rgb(77, 127, 196)" fill="none" d="M 549.2537313432836 402.9850746268657 L 571.6281227413647 402.9850746268657" stroke-width="2.2388059701492535" stroke-linecap="round" stroke-linejoin="round" shape-rendering="crispEdges" data-type="pcb_trace" data-pcb-layer="bottom"/><path class="pcb-trace" stroke="rgb(77, 127, 196)" fill="none" d="M 571.6281227413647 402.9850746268657 L 571.6281227413647 402.9850746268657" stroke-width="2.2388059701492535" stroke-linecap="round" stroke-linejoin="round" shape-rendering="crispEdges" data-type="pcb_trace" data-pcb-layer="bottom"/><path class="pcb-trace" stroke="rgb(77, 127, 196)" fill="none" d="M 571.6281227413647 402.9850746268657 L 573.1343283582089 402.9850746268657" stroke-width="2.2388059701492535" stroke-linecap="round" stroke-linejoin="round" shape-rendering="crispEdges" data-type="pcb_trace" data-pcb-layer="bottom"/><path class="pcb-trace" stroke="rgb(77, 127, 196)" fill="none" d="M 573.1343283582089 402.9850746268657 L 573.1343283582089 402.9850746268657" stroke-width="2.2388059701492535" stroke-linecap="round" stroke-linejoin="round" shape-rendering="crispEdges" data-type="pcb_trace" data-pcb-layer="bottom"/><path class="pcb-trace" stroke="rgb(77, 127, 196)" fill="none" d="M 429.85074626865674 426.8656716417911 L 429.85074626865674 426.8656716417911" stroke-width="2.2388059701492535" stroke-linecap="round" stroke-linejoin="round" shape-rendering="crispEdges" data-type="pcb_trace" data-pcb-layer="bottom"/><path class="pcb-trace" stroke="rgb(77, 127, 196)" fill="none" d="M 429.85074626865674 426.8656716417911 L 461.84507797490244 426.8656716417911" stroke-width="2.2388059701492535" stroke-linecap="round" stroke-linejoin="round" shape-rendering="crispEdges" data-type="pcb_trace" data-pcb-layer="bottom"/><path class="pcb-trace" stroke="rgb(77, 127, 196)" fill="none" d="M 461.84507797490244 426.8656716417911 L 560.5812660689477 328.12948354774585" stroke-width="2.2388059701492535" stroke-linecap="round" stroke-linejoin="round" shape-rendering="crispEdges" data-type="pcb_trace" data-pcb-layer="bottom"/><path class="pcb-trace" stroke="rgb(77, 127, 196)" fill="none" d="M 560.5812660689477 328.12948354774585 L 562.7611940298507 329.6641791044776" stroke-width="2.2388059701492535" stroke-linecap="round" stroke-linejoin="round" shape-rendering="crispEdges" data-type="pcb_trace" data-pcb-layer="bottom"/><path class="pcb-trace" stroke="rgb(77, 127, 196)" fill="none" d="M 562.7611940298507 329.6641791044776 L 562.7611940298507 329.6641791044776" stroke-width="2.2388059701492535" stroke-linecap="round" stroke-linejoin="round" shape-rendering="crispEdges" data-type="pcb_trace" data-pcb-layer="bottom"/><path class="pcb-silkscreen pcb-silkscreen-bottom" d="M 426.1194029850746 126.11940298507469 L 400 126.11940298507469 L 400 152.23880597014931 L 426.1194029850746 152.23880597014931 L 426.1194029850746 126.11940298507469 Z" fill="none" stroke="#5da9e9" stroke-width="1.4925373134328357" stroke-linecap="round" stroke-linejoin="round" data-pcb-component-id="null" data-pcb-silkscreen-path-id="pcb_silkscreen_path_5" data-type="pcb_silkscreen_path" data-pcb-layer="bottom"/><path class="pcb-silkscreen pcb-silkscreen-bottom" d="M 412.9850746268657 139.25373134328365 L 386.86567164179104 139.25373134328365 L 386.86567164179104 165.37313432835828 L 412.9850746268657 165.37313432835828 L 412.9850746268657 139.25373134328365 Z" fill="none" stroke="#5da9e9" stroke-width="1.4925373134328357" stroke-linecap="round" stroke-linejoin="round" data-pcb-component-id="null" data-pcb-silkscreen-path-id="pcb_silkscreen_path_6" data-type="pcb_silkscreen_path" data-pcb-layer="bottom"/><path class="pcb-silkscreen pcb-silkscreen-bottom" d="M 400 152.23880597014931 L 373.8805970149254 152.23880597014931 L 373.8805970149254 178.35820895522392 L 400 178.35820895522392 L 400 152.23880597014931 Z" fill="none" stroke="#5da9e9" stroke-width="1.4925373134328357" stroke-linecap="round" stroke-linejoin="round" data-pcb-component-id="null" data-pcb-silkscreen-path-id="pcb_silkscreen_path_7" data-type="pcb_silkscreen_path" data-pcb-layer="bottom"/><path class="pcb-silkscreen pcb-silkscreen-bottom" d="M 412.9850746268657 139.25373134328365 L 400 152.23880597014931" fill="none" stroke="#5da9e9" stroke-width="1.4925373134328357" stroke-linecap="round" stroke-linejoin="round" data-pcb-component-id="null" data-pcb-silkscreen-path-id="pcb_silkscreen_path_8" data-type="pcb_silkscreen_path" data-pcb-layer="bottom"/><path class="pcb-silkscreen pcb-silkscreen-bottom" d="M 400 152.23880597014931 L 386.86567164179104 165.37313432835828" fill="none" stroke="#5da9e9" stroke-width="1.4925373134328357" stroke-linecap="round" stroke-linejoin="round" data-pcb-component-id="null" data-pcb-silkscreen-path-id="pcb_silkscreen_path_9" data-type="pcb_silkscreen_path" data-pcb-layer="bottom"/><path class="pcb-silkscreen pcb-silkscreen-bottom" d="M 438.95522388059703 100.89552238805976 L 440.5970149253731 100.89552238805976 L 440.5970149253731 112.68656716417917 L 444.77611940298505 112.68656716417917 L 444.77611940298505 114.17910447761199 L 434.6268656716418 114.17910447761199 L 434.6268656716418 112.68656716417917 L 438.95522388059703 112.68656716417917 L 438.95522388059703 100.89552238805976 Z" fill="none" stroke="#5da9e9" stroke-width="1.4925373134328357" stroke-linecap="round" stroke-linejoin="round" data-pcb-component-id="null" data-pcb-silkscreen-path-id="pcb_silkscreen_path_10" data-type="pcb_silkscreen_path" data-pcb-layer="bottom"/><path class="pcb-silkscreen pcb-silkscreen-bottom" d="M 429.25373134328356 100.7462686567165 L 429.85074626865674 100.7462686567165 L 430.44776119402985 100.89552238805976 L 431.04477611940297 101.04477611940305 L 431.4925373134328 101.34328358208961 L 432.08955223880594 101.64179104477617 L 432.3880597014925 102.08955223880605 L 432.8358208955224 102.53731343283587 L 433.13432835820896 102.98507462686572 L 433.2835820895522 103.58208955223887 L 433.43283582089555 104.17910447761199 L 433.5820895522388 104.92537313432842 L 433.5820895522388 105.67164179104483 L 433.5820895522388 106.41791044776124 L 433.43283582089555 107.01492537313439 L 433.2835820895522 107.7611940298508 L 433.13432835820896 108.35820895522394 L 432.8358208955224 108.8059701492538 L 432.3880597014925 109.25373134328362 L 432.08955223880594 109.7014925373135 L 431.64179104477614 110.00000000000006 L 431.04477611940297 110.29850746268662 L 430.44776119402985 110.5970149253732 L 429.85074626865674 110.5970149253732 L 429.25373134328356 110.7462686567165 L 428.65671641791045 110.5970149253732 L 428.05970149253733 110.5970149253732 L 427.46268656716416 110.29850746268662 L 427.0149253731343 110.14925373134335 L 426.56716417910445 109.7014925373135 L 426.1194029850746 109.40298507462694 L 425.82089552238807 108.95522388059706 L 425.5223880597015 108.35820895522394 L 425.3731343283582 107.7611940298508 L 425.2238805970149 107.16417910447768 L 425.07462686567163 106.56716417910454 L 425.07462686567163 105.82089552238813 L 425.07462686567163 105.22388059701498 L 432.8358208955224 105.22388059701498 L 432.8358208955224 106.56716417910454 L 425.82089552238807 106.56716417910454 L 426.7164179104478 105.97014925373139 L 426.7164179104478 106.56716417910454 L 426.86567164179104 107.46268656716424 L 427.1641791044776 108.20895522388068 L 427.6119402985075 108.6567164179105 L 428.2089552238806 109.10447761194035 L 428.95522388059703 109.25373134328362 L 429.25373134328356 109.25373134328362 L 429.7014925373134 109.25373134328362 L 430.2985074626866 109.10447761194035 L 430.74626865671644 108.95522388059706 L 431.1940298507463 108.35820895522394 L 431.64179104477614 107.7611940298508 L 431.94029850746267 107.01492537313439 L 431.94029850746267 105.97014925373139 L 431.94029850746267 104.92537313432842 L 431.7910447761194 104.02985074626872 L 431.4925373134328 103.28358208955231 L 431.1940298507463 102.98507462686572 L 430.5970149253731 102.53731343283587 L 430 102.23880597014931 L 429.1044776119403 102.08955223880605 L 428.5074626865672 102.08955223880605 L 428.05970149253733 102.23880597014931 L 427.6119402985075 102.53731343283587 L 427.3134328358209 102.83582089552243 L 427.0149253731343 103.13432835820902 L 426.7164179104478 103.58208955223887 L 425.2238805970149 103.58208955223887 L 425.3731343283582 102.98507462686572 L 425.67164179104475 102.38805970149261 L 425.97014925373134 101.94029850746276 L 426.56716417910445 101.49253731343288 L 427.0149253731343 101.19402985074632 L 427.76119402985074 100.89552238805976 L 428.35820895522386 100.7462686567165 L 429.25373134328356 100.7462686567165 Z" fill="none" stroke="#5da9e9" stroke-width="1.4925373134328357" stroke-linecap="round" stroke-linejoin="round" data-pcb-component-id="null" data-pcb-silkscreen-path-id="pcb_silkscreen_path_11" data-type="pcb_silkscreen_path" data-pcb-layer="bottom"/><path class="pcb-silkscreen pcb-silkscreen-bottom" d="M 421.7910447761194 100.89552238805976 L 423.2835820895522 100.89552238805976 L 423.2835820895522 114.17910447761199 L 421.7910447761194 114.17910447761199 L 421.7910447761194 100.89552238805976 Z" fill="none" stroke="#5da9e9" stroke-width="1.4925373134328357" stroke-linecap="round" stroke-linejoin="round" data-pcb-component-id="null" data-pcb-silkscreen-path-id="pcb_silkscreen_path_12" data-type="pcb_silkscreen_path" data-pcb-layer="bottom"/><path class="pcb-silkscreen pcb-silkscreen-bottom" d="M 415.5223880597015 100.7462686567165 L 416.2686567164179 100.7462686567165 L 416.86567164179104 100.89552238805976 L 417.46268656716416 101.04477611940305 L 417.910447761194 101.34328358208961 L 418.35820895522386 101.64179104477617 L 418.8059701492537 102.08955223880605 L 419.25373134328356 102.53731343283587 L 419.55223880597015 102.98507462686572 L 419.7014925373134 103.58208955223887 L 419.85074626865674 104.17910447761199 L 420 104.92537313432842 L 420 105.67164179104483 L 420 106.41791044776124 L 419.85074626865674 107.01492537313439 L 419.7014925373134 107.7611940298508 L 419.55223880597015 108.35820895522394 L 419.25373134328356 108.8059701492538 L 418.8059701492537 109.25373134328362 L 418.5074626865672 109.7014925373135 L 417.910447761194 110.00000000000006 L 417.46268656716416 110.29850746268662 L 416.86567164179104 110.5970149253732 L 416.2686567164179 110.5970149253732 L 415.67164179104475 110.7462686567165 L 415.07462686567163 110.5970149253732 L 414.4776119402985 110.5970149253732 L 413.8805970149254 110.29850746268662 L 413.43283582089555 110.14925373134335 L 412.9850746268657 109.7014925373135 L 412.53731343283584 109.40298507462694 L 412.23880597014926 108.95522388059706 L 411.94029850746267 108.35820895522394 L 411.7910447761194 107.7611940298508 L 411.64179104477614 107.16417910447768 L 411.4925373134328 106.56716417910454 L 411.4925373134328 105.82089552238813 L 411.4925373134328 105.22388059701498 L 419.25373134328356 105.22388059701498 L 419.25373134328356 106.56716417910454 L 412.23880597014926 106.56716417910454 L 412.9850746268657 105.97014925373139 L 413.13432835820896 106.56716417910454 L 413.2835820895522 107.46268656716424 L 413.5820895522388 108.20895522388068 L 414.02985074626866 108.6567164179105 L 414.6268656716418 109.10447761194035 L 415.3731343283582 109.25373134328362 L 415.67164179104475 109.25373134328362 L 416.1194029850746 109.25373134328362 L 416.7164179104478 109.10447761194035 L 417.3134328358209 108.6567164179105 L 417.910447761194 108.05970149253736 L 418.2089552238806 107.46268656716424 L 418.35820895522386 106.41791044776124 L 418.35820895522386 105.97014925373139 L 418.35820895522386 104.92537313432842 L 418.2089552238806 104.02985074626872 L 417.910447761194 103.28358208955231 L 417.6119402985075 102.98507462686572 L 417.0149253731343 102.53731343283587 L 416.4179104477612 102.23880597014931 L 415.5223880597015 102.08955223880605 L 414.92537313432837 102.08955223880605 L 414.4776119402985 102.23880597014931 L 414.02985074626866 102.53731343283587 L 413.5820895522388 102.83582089552243 L 413.43283582089555 103.13432835820902 L 413.13432835820896 103.58208955223887 L 411.4925373134328 103.58208955223887 L 411.7910447761194 102.98507462686572 L 412.089552238806 102.38805970149261 L 412.3880597014925 101.94029850746276 L 412.8358208955224 101.49253731343288 L 413.43283582089555 101.19402985074632 L 414.17910447761193 100.89552238805976 L 414.77611940298505 100.7462686567165 L 415.5223880597015 100.7462686567165 Z" fill="none" stroke="#5da9e9" stroke-width="1.4925373134328357" stroke-linecap="round" stroke-linejoin="round" data-pcb-component-id="null" data-pcb-silkscreen-path-id="pcb_silkscreen_path_13" data-type="pcb_silkscreen_path" data-pcb-layer="bottom"/><path class="pcb-silkscreen pcb-silkscreen-bottom" d="M 408.2089552238806 100.89552238805976 L 409.85074626865674 100.89552238805976 L 409.85074626865674 110.44776119402991 L 408.2089552238806 110.44776119402991 L 408.2089552238806 109.10447761194035 L 408.05970149253733 109.40298507462694 L 407.76119402985074 109.7014925373135 L 407.46268656716416 110.00000000000006 L 407.1641791044776 110.29850746268662 L 406.7164179104478 110.44776119402991 L 406.4179104477612 110.5970149253732 L 405.97014925373134 110.5970149253732 L 405.5223880597015 110.7462686567165 L 405.2238805970149 110.7462686567165 L 404.92537313432837 110.5970149253732 L 404.32835820895525 110.44776119402991 L 403.8805970149254 110.14925373134335 L 403.5820895522388 110.00000000000006 L 403.2835820895522 109.7014925373135 L 402.9850746268657 109.10447761194035 L 402.8358208955224 108.8059701492538 L 402.6865671641791 109.10447761194035 L 402.23880597014926 109.5522388059702 L 401.7910447761194 110.00000000000006 L 401.34328358208955 110.29850746268662 L 400.74626865671644 110.5970149253732 L 400.14925373134326 110.7462686567165 L 399.7014925373134 110.7462686567165 L 399.25373134328356 110.5970149253732 L 398.5074626865672 110.44776119402991 L 397.76119402985074 110.14925373134335 L 397.1641791044776 109.5522388059702 L 396.86567164179104 108.8059701492538 L 396.56716417910445 108.05970149253736 L 396.56716417910445 107.46268656716424 L 396.56716417910445 100.89552238805976 L 398.2089552238806 100.89552238805976 L 398.2089552238806 107.16417910447768 L 398.35820895522386 107.7611940298508 L 398.5074626865672 108.35820895522394 L 398.8059701492537 108.6567164179105 L 399.1044776119403 108.95522388059706 L 399.7014925373134 109.25373134328362 L 400.2985074626866 109.25373134328362 L 400.8955223880597 109.25373134328362 L 401.34328358208955 108.95522388059706 L 401.7910447761194 108.6567164179105 L 402.089552238806 108.20895522388068 L 402.3880597014925 107.6119402985075 L 402.3880597014925 107.01492537313439 L 402.3880597014925 100.89552238805976 L 404.02985074626866 100.89552238805976 L 404.02985074626866 107.31343283582095 L 404.17910447761193 108.05970149253736 L 404.4776119402985 108.50746268656724 L 404.77611940298505 108.95522388059706 L 405.2238805970149 109.10447761194035 L 405.67164179104475 109.25373134328362 L 405.97014925373134 109.25373134328362 L 406.56716417910445 109.25373134328362 L 407.1641791044776 108.95522388059706 L 407.6119402985075 108.6567164179105 L 407.910447761194 108.05970149253736 L 408.2089552238806 107.6119402985075 L 408.2089552238806 106.86567164179112 L 408.2089552238806 100.89552238805976 Z" fill="none" stroke="#5da9e9" stroke-width="1.4925373134328357" stroke-linecap="round" stroke-linejoin="round" data-pcb-component-id="null" data-pcb-silkscreen-path-id="pcb_silkscreen_path_14" data-type="pcb_silkscreen_path" data-pcb-layer="bottom"/><path class="pcb-silkscreen pcb-silkscreen-bottom" d="M 390.5970149253731 100.7462686567165 L 391.1940298507463 100.7462686567165 L 391.94029850746267 100.89552238805976 L 392.3880597014925 101.04477611940305 L 392.9850746268657 101.34328358208961 L 393.43283582089555 101.64179104477617 L 393.8805970149254 102.08955223880605 L 394.17910447761193 102.53731343283587 L 394.4776119402985 102.98507462686572 L 394.7761194029851 103.58208955223887 L 394.92537313432837 104.17910447761199 L 395.07462686567163 104.92537313432842 L 395.07462686567163 105.67164179104483 L 395.07462686567163 106.41791044776124 L 394.92537313432837 107.01492537313439 L 394.7761194029851 107.7611940298508 L 394.4776119402985 108.35820895522394 L 394.17910447761193 108.8059701492538 L 393.8805970149254 109.25373134328362 L 393.43283582089555 109.7014925373135 L 392.9850746268657 110.00000000000006 L 392.53731343283584 110.29850746268662 L 391.94029850746267 110.5970149253732 L 391.34328358208955 110.5970149253732 L 390.74626865671644 110.7462686567165 L 390 110.5970149253732 L 389.4029850746269 110.5970149253732 L 388.95522388059703 110.29850746268662 L 388.35820895522386 110.14925373134335 L 387.910447761194 109.7014925373135 L 387.6119402985075 109.40298507462694 L 387.3134328358209 108.95522388059706 L 387.0149253731343 108.35820895522394 L 386.7164179104478 107.7611940298508 L 386.56716417910445 107.16417910447768 L 386.4179104477612 106.56716417910454 L 386.4179104477612 105.82089552238813 L 386.4179104477612 105.22388059701498 L 394.17910447761193 105.22388059701498 L 394.17910447761193 106.56716417910454 L 387.3134328358209 106.56716417910454 L 388.05970149253733 105.97014925373139 L 388.05970149253733 106.56716417910454 L 388.2089552238806 107.46268656716424 L 388.65671641791045 108.20895522388068 L 389.1044776119403 108.6567164179105 L 389.7014925373134 109.10447761194035 L 390.2985074626866 109.25373134328362 L 390.74626865671644 109.25373134328362 L 391.04477611940297 109.25373134328362 L 391.7910447761194 109.10447761194035 L 392.3880597014925 108.6567164179105 L 392.8358208955224 108.05970149253736 L 393.13432835820896 107.46268656716424 L 393.43283582089555 106.41791044776124 L 393.43283582089555 105.97014925373139 L 393.43283582089555 104.92537313432842 L 393.2835820895522 104.02985074626872 L 392.8358208955224 103.28358208955231 L 392.6865671641791 102.98507462686572 L 392.089552238806 102.53731343283587 L 391.7910447761194 102.38805970149261 L 391.04477611940297 102.08955223880605 L 390.5970149253731 102.08955223880605 L 390 102.08955223880605 L 389.4029850746269 102.23880597014931 L 388.95522388059703 102.53731343283587 L 388.65671641791045 102.83582089552243 L 388.35820895522386 103.13432835820902 L 388.2089552238806 103.58208955223887 L 386.56716417910445 103.58208955223887 L 386.7164179104478 102.98507462686572 L 387.0149253731343 102.38805970149261 L 387.46268656716416 101.94029850746276 L 387.910447761194 101.49253731343288 L 388.5074626865672 101.19402985074632 L 389.1044776119403 100.89552238805976 L 389.85074626865674 100.7462686567165 L 390.5970149253731 100.7462686567165 Z" fill="none" stroke="#5da9e9" stroke-width="1.4925373134328357" stroke-linecap="round" stroke-linejoin="round" data-pcb-component-id="null" data-pcb-silkscreen-path-id="pcb_silkscreen_path_15" data-type="pcb_silkscreen_path" data-pcb-layer="bottom"/><path class="pcb-silkscreen pcb-silkscreen-bottom" d="M 381.64179104477614 100.7462686567165 L 382.3880597014925 100.7462686567165 L 382.8358208955224 100.89552238805976 L 383.2835820895522 101.04477611940305 L 383.7313432835821 101.34328358208961 L 384.02985074626866 101.64179104477617 L 384.17910447761193 102.08955223880605 L 384.32835820895525 102.68656716417917 L 384.32835820895525 103.28358208955231 L 384.32835820895525 109.10447761194035 L 385.82089552238807 109.10447761194035 L 385.82089552238807 110.44776119402991 L 384.32835820895525 110.44776119402991 L 384.32835820895525 113.13432835820902 L 382.6865671641791 113.13432835820902 L 382.6865671641791 110.44776119402991 L 380.8955223880597 110.44776119402991 L 380.8955223880597 109.10447761194035 L 382.6865671641791 109.10447761194035 L 382.6865671641791 103.28358208955231 L 382.53731343283584 102.68656716417917 L 382.3880597014925 102.23880597014931 L 381.94029850746267 102.08955223880605 L 381.64179104477614 102.08955223880605 L 381.34328358208955 101.94029850746276 L 380.8955223880597 102.08955223880605 L 380.8955223880597 100.7462686567165 L 381.04477611940297 100.7462686567165 L 381.34328358208955 100.7462686567165 L 381.64179104477614 100.7462686567165 Z" fill="none" stroke="#5da9e9" stroke-width="1.4925373134328357" stroke-linecap="round" stroke-linejoin="round" data-pcb-component-id="null" data-pcb-silkscreen-path-id="pcb_silkscreen_path_16" data-type="pcb_silkscreen_path" data-pcb-layer="bottom"/><path class="pcb-silkscreen pcb-silkscreen-bottom" d="M 377.46268656716416 100.89552238805976 L 379.1044776119403 100.89552238805976 L 379.1044776119403 110.44776119402991 L 377.46268656716416 110.44776119402991 L 377.46268656716416 108.8059701492538 L 377.3134328358209 109.25373134328362 L 376.86567164179104 110.00000000000006 L 376.2686567164179 110.44776119402991 L 375.6716417910448 110.5970149253732 L 375.22388059701495 110.7462686567165 L 374.92537313432837 110.7462686567165 L 374.6268656716418 110.5970149253732 L 374.6268656716418 109.10447761194035 L 374.92537313432837 109.10447761194035 L 375.22388059701495 109.10447761194035 L 375.6716417910448 109.10447761194035 L 376.2686567164179 108.95522388059706 L 376.7164179104478 108.6567164179105 L 377.1641791044776 108.35820895522394 L 377.3134328358209 107.7611940298508 L 377.46268656716416 107.16417910447768 L 377.46268656716416 106.86567164179112 L 377.46268656716416 100.89552238805976 Z" fill="none" stroke="#5da9e9" stroke-width="1.4925373134328357" stroke-linecap="round" stroke-linejoin="round" data-pcb-component-id="null" data-pcb-silkscreen-path-id="pcb_silkscreen_path_17" data-type="pcb_silkscreen_path" data-pcb-layer="bottom"/><path class="pcb-silkscreen pcb-silkscreen-bottom" d="M 369.25373134328356 100.7462686567165 L 369.85074626865674 100.7462686567165 L 370.44776119402985 100.89552238805976 L 371.04477611940297 101.04477611940305 L 371.64179104477614 101.34328358208961 L 372.089552238806 101.64179104477617 L 372.53731343283584 102.08955223880605 L 372.8358208955224 102.53731343283587 L 373.13432835820896 102.98507462686572 L 373.43283582089555 103.58208955223887 L 373.5820895522388 104.32835820895528 L 373.7313432835821 104.92537313432842 L 373.7313432835821 105.67164179104483 L 373.7313432835821 106.41791044776124 L 373.5820895522388 107.16417910447768 L 373.43283582089555 107.7611940298508 L 373.13432835820896 108.35820895522394 L 372.8358208955224 108.95522388059706 L 372.53731343283584 109.40298507462694 L 372.089552238806 109.7014925373135 L 371.64179104477614 110.14925373134335 L 371.04477611940297 110.29850746268662 L 370.44776119402985 110.5970149253732 L 369.85074626865674 110.5970149253732 L 369.25373134328356 110.7462686567165 L 368.65671641791045 110.5970149253732 L 368.05970149253733 110.5970149253732 L 367.46268656716416 110.29850746268662 L 366.86567164179104 110.14925373134335 L 366.4179104477612 109.7014925373135 L 365.97014925373134 109.40298507462694 L 365.6716417910448 108.95522388059706 L 365.3731343283582 108.35820895522394 L 365.07462686567163 107.7611940298508 L 364.92537313432837 107.16417910447768 L 364.7761194029851 106.41791044776124 L 364.7761194029851 105.67164179104483 L 364.7761194029851 104.92537313432842 L 364.92537313432837 104.17910447761199 L 365.07462686567163 103.58208955223887 L 365.3731343283582 102.98507462686572 L 365.6716417910448 102.53731343283587 L 365.97014925373134 102.08955223880605 L 366.4179104477612 101.64179104477617 L 366.86567164179104 101.34328358208961 L 367.46268656716416 101.04477611940305 L 368.05970149253733 100.89552238805976 L 368.65671641791045 100.7462686567165 L 369.25373134328356 100.7462686567165 Z" fill="none" stroke="#5da9e9" stroke-width="1.4925373134328357" stroke-linecap="round" stroke-linejoin="round" data-pcb-component-id="null" data-pcb-silkscreen-path-id="pcb_silkscreen_path_18" data-type="pcb_silkscreen_path" data-pcb-layer="bottom"/><path class="pcb-silkscreen pcb-silkscreen-bottom" d="M 369.25373134328356 102.08955223880605 L 368.8059701492537 102.08955223880605 L 368.05970149253733 102.38805970149261 L 367.46268656716416 102.83582089552243 L 367.01492537313436 103.43283582089558 L 366.7164179104478 104.17910447761199 L 366.4179104477612 105.07462686567169 L 366.4179104477612 105.67164179104483 L 366.4179104477612 106.26865671641798 L 366.7164179104478 107.16417910447768 L 367.01492537313436 108.05970149253736 L 367.46268656716416 108.6567164179105 L 368.05970149253733 109.10447761194035 L 368.8059701492537 109.25373134328362 L 369.25373134328356 109.25373134328362 L 369.7014925373134 109.25373134328362 L 370.44776119402985 108.95522388059706 L 371.04477611940297 108.6567164179105 L 371.4925373134328 108.05970149253736 L 371.94029850746267 107.16417910447768 L 372.089552238806 106.26865671641798 L 372.089552238806 105.67164179104483 L 372.089552238806 105.07462686567169 L 371.94029850746267 104.17910447761199 L 371.4925373134328 103.43283582089558 L 371.04477611940297 102.83582089552243 L 370.44776119402985 102.38805970149261 L 369.7014925373134 102.08955223880605 L 369.25373134328356 102.08955223880605 Z" fill="none" stroke="#5da9e9" stroke-width="1.4925373134328357" stroke-linecap="round" stroke-linejoin="round" data-pcb-component-id="null" data-pcb-silkscreen-path-id="pcb_silkscreen_path_19" data-type="pcb_silkscreen_path" data-pcb-layer="bottom"/><path class="pcb-silkscreen pcb-silkscreen-bottom" d="M 361.64179104477614 100.89552238805976 L 363.13432835820896 100.89552238805976 L 363.13432835820896 110.44776119402991 L 361.64179104477614 110.44776119402991 L 361.64179104477614 109.10447761194035 L 361.34328358208955 109.40298507462694 L 360.74626865671644 110.00000000000006 L 360 110.44776119402991 L 359.1044776119403 110.5970149253732 L 358.5074626865672 110.7462686567165 L 357.76119402985074 110.5970149253732 L 356.56716417910445 110.14925373134335 L 355.67164179104475 109.25373134328362 L 355.22388059701495 107.91044776119409 L 355.22388059701495 107.16417910447768 L 355.22388059701495 100.89552238805976 L 356.86567164179104 100.89552238805976 L 356.86567164179104 106.86567164179112 L 357.01492537313436 107.91044776119409 L 357.46268656716416 108.6567164179105 L 358.05970149253733 109.10447761194035 L 358.5074626865672 109.25373134328362 L 359.1044776119403 109.25373134328362 L 359.7014925373134 109.25373134328362 L 360.44776119402985 108.95522388059706 L 360.8955223880597 108.50746268656724 L 361.1940298507463 107.91044776119409 L 361.4925373134328 107.31343283582095 L 361.64179104477614 106.56716417910454 L 361.64179104477614 100.89552238805976 Z" fill="none" stroke="#5da9e9" stroke-width="1.4925373134328357" stroke-linecap="round" stroke-linejoin="round" data-pcb-component-id="null" data-pcb-silkscreen-path-id="pcb_silkscreen_path_20" data-type="pcb_silkscreen_path" data-pcb-layer="bottom"/><rect class="pcb-pad" fill="rgb(200, 52, 52)" x="293.2835820895522" y="208.20895522388065" width="37.31343283582089" height="37.31343283582089" data-type="pcb_smtpad" data-pcb-layer="top"/><rect class="pcb-pad" fill="rgb(200, 52, 52)" x="469.4029850746269" y="208.20895522388065" width="37.31343283582089" height="37.31343283582089" data-type="pcb_smtpad" data-pcb-layer="top"/><rect class="pcb-pad" fill="rgb(200, 52, 52)" x="547.7611940298507" y="414.17910447761193" width="17.91044776119403" height="13.432835820895521" data-type="pcb_smtpad" data-pcb-layer="top"/><rect class="pcb-pad" fill="rgb(200, 52, 52)" x="570.1492537313433" y="414.17910447761193" width="17.91044776119403" height="13.432835820895521" data-type="pcb_smtpad" data-pcb-layer="top"/><rect class="pcb-pad" fill="rgb(200, 52, 52)" x="592.5373134328358" y="414.17910447761193" width="17.91044776119403" height="13.432835820895521" data-type="pcb_smtpad" data-pcb-layer="top"/><rect class="pcb-pad" fill="rgb(200, 52, 52)" x="471.2686567164179" y="413.8059701492537" width="11.940298507462686" height="14.179104477611938" data-type="pcb_smtpad" data-pcb-layer="top"/><rect class="pcb-pad" fill="rgb(200, 52, 52)" x="495.8955223880597" y="413.8059701492537" width="11.940298507462686" height="14.179104477611938" data-type="pcb_smtpad" data-pcb-layer="top"/><path class="pcb-trace" stroke="rgb(200, 52, 52)" fill="none" d="M 381.04477611940297 450.74626865671644 L 409.8826117148305 421.908433061289" stroke-width="2.2388059701492535" stroke-linecap="round" stroke-linejoin="round" shape-rendering="crispEdges" data-type="pcb_trace" data-pcb-layer="top"/><path class="pcb-trace" stroke="rgb(200, 52, 52)" fill="none" d="M 409.8826117148305 421.908433061289 L 451.18793152587614 421.908433061289" stroke-width="2.2388059701492535" stroke-linecap="round" stroke-linejoin="round" shape-rendering="crispEdges" data-type="pcb_trace" data-pcb-layer="top"/><path class="pcb-trace" stroke="rgb(200, 52, 52)" fill="none" d="M 451.18793152587614 421.908433061289 L 459.9168383963399 430.63733993175276" stroke-width="2.2388059701492535" stroke-linecap="round" stroke-linejoin="round" shape-rendering="crispEdges" data-type="pcb_trace" data-pcb-layer="top"/><path class="pcb-trace" stroke="rgb(200, 52, 52)" fill="none" d="M 459.9168383963399 430.63733993175276 L 492.12385409809804 430.63733993175276" stroke-width="2.2388059701492535" stroke-linecap="round" stroke-linejoin="round" shape-rendering="crispEdges" data-type="pcb_trace" data-pcb-layer="top"/><path class="pcb-trace" stroke="rgb(200, 52, 52)" fill="none" d="M 492.12385409809804 430.63733993175276 L 492.12385409809804 430.63733993175276" stroke-width="2.2388059701492535" stroke-linecap="round" stroke-linejoin="round" shape-rendering="crispEdges" data-type="pcb_trace" data-pcb-layer="top"/><path class="pcb-trace" stroke="rgb(200, 52, 52)" fill="none" d="M 492.12385409809804 430.63733993175276 L 501.86567164179104 420.8955223880597" stroke-width="2.2388059701492535" stroke-linecap="round" stroke-linejoin="round" shape-rendering="crispEdges" data-type="pcb_trace" data-pcb-layer="top"/><path class="pcb-trace" stroke="rgb(200, 52, 52)" fill="none" d="M 477.23880597014926 420.8955223880597 L 495.14925373134326 402.9850746268657" stroke-width="2.2388059701492535" stroke-linecap="round" stroke-linejoin="round" shape-rendering="crispEdges" data-type="pcb_trace" data-pcb-layer="top"/><path class="pcb-trace" stroke="rgb(200, 52, 52)" fill="none" d="M 495.14925373134326 402.9850746268657 L 548.1762443662064 402.9850746268657" stroke-width="2.2388059701492535" stroke-linecap="round" stroke-linejoin="round" shape-rendering="crispEdges" data-type="pcb_trace" data-pcb-layer="top"/><path class="pcb-trace" stroke="rgb(200, 52, 52)" fill="none" d="M 548.1762443662064 402.9850746268657 L 549.2537313432836 402.9850746268657" stroke-width="2.2388059701492535" stroke-linecap="round" stroke-linejoin="round" shape-rendering="crispEdges" data-type="pcb_trace" data-pcb-layer="top"/><path class="pcb-trace" stroke="rgb(200, 52, 52)" fill="none" d="M 549.2537313432836 402.9850746268657 L 549.2537313432836 402.9850746268657" stroke-width="2.2388059701492535" stroke-linecap="round" stroke-linejoin="round" shape-rendering="crispEdges" data-type="pcb_trace" data-pcb-layer="top"/><path class="pcb-trace" stroke="rgb(200, 52, 52)" fill="none" d="M 573.1343283582089 402.9850746268657 L 573.1343283582089 402.9850746268657" stroke-width="2.2388059701492535" stroke-linecap="round" stroke-linejoin="round" shape-rendering="crispEdges" data-type="pcb_trace" data-pcb-layer="top"/><path class="pcb-trace" stroke="rgb(200, 52, 52)" fill="none" d="M 573.1343283582089 402.9850746268657 L 573.1343283582089 414.92537313432837" stroke-width="2.2388059701492535" stroke-linecap="round" stroke-linejoin="round" shape-rendering="crispEdges" data-type="pcb_trace" data-pcb-layer="top"/><path class="pcb-trace" stroke="rgb(200, 52, 52)" fill="none" d="M 573.1343283582089 414.92537313432837 L 579.1044776119403 420.8955223880597" stroke-width="2.2388059701492535" stroke-linecap="round" stroke-linejoin="round" shape-rendering="crispEdges" data-type="pcb_trace" data-pcb-layer="top"/><path class="pcb-trace" stroke="rgb(200, 52, 52)" fill="none" d="M 418.95522388059703 450.74626865671644 L 418.95522388059703 437.7611940298508" stroke-width="2.2388059701492535" stroke-linecap="round" stroke-linejoin="round" shape-rendering="crispEdges" data-type="pcb_trace" data-pcb-layer="top"/><path class="pcb-trace" stroke="rgb(200, 52, 52)" fill="none" d="M 418.95522388059703 437.7611940298508 L 428.2415242313858 428.47489367906195" stroke-width="2.2388059701492535" stroke-linecap="round" stroke-linejoin="round" shape-rendering="crispEdges" data-type="pcb_trace" data-pcb-layer="top"/><path class="pcb-trace" stroke="rgb(200, 52, 52)" fill="none" d="M 428.2415242313858 428.47489367906195 L 429.85074626865674 426.8656716417911" stroke-width="2.2388059701492535" stroke-linecap="round" stroke-linejoin="round" shape-rendering="crispEdges" data-type="pcb_trace" data-pcb-layer="top"/><path class="pcb-trace" stroke="rgb(200, 52, 52)" fill="none" d="M 429.85074626865674 426.8656716417911 L 429.85074626865674 426.8656716417911" stroke-width="2.2388059701492535" stroke-linecap="round" stroke-linejoin="round" shape-rendering="crispEdges" data-type="pcb_trace" data-pcb-layer="top"/><path class="pcb-trace" stroke="rgb(200, 52, 52)" fill="none" d="M 562.7611940298507 329.6641791044776 L 562.7611940298507 329.6641791044776" stroke-width="2.2388059701492535" stroke-linecap="round" stroke-linejoin="round" shape-rendering="crispEdges" data-type="pcb_trace" data-pcb-layer="top"/><path class="pcb-trace" stroke="rgb(200, 52, 52)" fill="none" d="M 562.7611940298507 329.6641791044776 L 562.7611940298507 301.5671641791045" stroke-width="2.2388059701492535" stroke-linecap="round" stroke-linejoin="round" shape-rendering="crispEdges" data-type="pcb_trace" data-pcb-layer="top"/><path class="pcb-trace" stroke="rgb(200, 52, 52)" fill="none" d="M 562.7611940298507 301.5671641791045 L 488.05970149253733 226.8656716417911" stroke-width="2.2388059701492535" stroke-linecap="round" stroke-linejoin="round" shape-rendering="crispEdges" data-type="pcb_trace" data-pcb-layer="top"/><path class="pcb-trace" stroke="rgb(200, 52, 52)" fill="none" d="M 556.7164179104477 420.8955223880597 L 556.7164179104477 403.40429995025966" stroke-width="2.2388059701492535" stroke-linecap="round" stroke-linejoin="round" shape-rendering="crispEdges" data-type="pcb_trace" data-pcb-layer="top"/><path class="pcb-trace" stroke="rgb(200, 52, 52)" fill="none" d="M 556.7164179104477 403.40429995025966 L 484.6554015422777 331.3432835820896" stroke-width="2.2388059701492535" stroke-linecap="round" stroke-linejoin="round" shape-rendering="crispEdges" data-type="pcb_trace" data-pcb-layer="top"/><path class="pcb-trace" stroke="rgb(200, 52, 52)" fill="none" d="M 484.6554015422777 331.3432835820896 L 416.4179104477612 331.3432835820896" stroke-width="2.2388059701492535" stroke-linecap="round" stroke-linejoin="round" shape-rendering="crispEdges" data-type="pcb_trace" data-pcb-layer="top"/><path class="pcb-trace" stroke="rgb(200, 52, 52)" fill="none" d="M 416.4179104477612 331.3432835820896 L 311.94029850746267 226.8656716417911" stroke-width="2.2388059701492535" stroke-linecap="round" stroke-linejoin="round" shape-rendering="crispEdges" data-type="pcb_trace" data-pcb-layer="top"/><path class="pcb-silkscreen pcb-silkscreen-top" d="M 311.94029850746267 256.71641791044783 L 311.94029850746267 197.01492537313436" fill="none" stroke="#f2eda1" stroke-width="1.4925373134328357" stroke-linecap="round" stroke-linejoin="round" data-pcb-component-id="pcb_component_0" data-pcb-silkscreen-path-id="pcb_silkscreen_path_0" data-type="pcb_silkscreen_path" data-pcb-layer="top"/><path class="pcb-silkscreen pcb-silkscreen-top" d="M 302.9850746268657 226.8656716417911 L 320.8955223880597 226.8656716417911" fill="none" stroke="#f2eda1" stroke-width="1.4925373134328357" stroke-linecap="round" stroke-linejoin="round" data-pcb-component-id="pcb_component_0" data-pcb-silkscreen-path-id="pcb_silkscreen_path_1" data-type="pcb_silkscreen_path" data-pcb-layer="top"/><text x="0" y="0" dx="0" dy="0" fill="#f2eda1" font-family="Arial, sans-serif" font-size="14.925373134328357" text-anchor="middle" dominant-baseline="central" transform="matrix(1,0,0,1,311.94029850746267,271.64179104477614)" class="pcb-silkscreen-text pcb-silkscreen-top" data-pcb-silkscreen-text-id="pcb_component_0" stroke="none" data-type="pcb_silkscreen_text" data-pcb-layer="top">+</text><text x="0" y="0" dx="0" dy="0" fill="#f2eda1" font-family="Arial, sans-serif" font-size="14.925373134328357" text-anchor="middle" dominant-baseline="central" transform="matrix(1,0,0,1,488.05970149253733,271.64179104477614)" class="pcb-silkscreen-text pcb-silkscreen-top" data-pcb-silkscreen-text-id="pcb_component_0" stroke="none" data-type="pcb_silkscreen_text" data-pcb-layer="top">-</text><path class="pcb-silkscreen pcb-silkscreen-top" d="M 541.7910447761194 443.2835820895523 L 616.4179104477612 443.2835820895523 L 616.4179104477612 398.5074626865672 L 541.7910447761194 398.5074626865672 L 541.7910447761194 443.2835820895523 Z" fill="none" stroke="#f2eda1" stroke-width="1.4925373134328357" stroke-linecap="round" stroke-linejoin="round" data-pcb-component-id="pcb_component_1" data-pcb-silkscreen-path-id="pcb_silkscreen_path_2" data-type="pcb_silkscreen_path" data-pcb-layer="top"/><path class="pcb-silkscreen pcb-silkscreen-top" d="M 501.86567164179104 407.83582089552243 L 468.2835820895522 407.83582089552243 L 468.2835820895522 433.95522388059703 L 501.86567164179104 433.95522388059703" fill="none" stroke="#f2eda1" stroke-width="1.4925373134328357" stroke-linecap="round" stroke-linejoin="round" data-pcb-component-id="pcb_component_2" data-pcb-silkscreen-path-id="pcb_silkscreen_path_3" data-type="pcb_silkscreen_path" data-pcb-layer="top"/><text x="0" y="0" dx="0" dy="0" fill="#f2eda1" font-family="Arial, sans-serif" font-size="5.970149253731343" text-anchor="middle" dominant-baseline="central" transform="matrix(1,0,0,1,489.55223880597015,400.3731343283582)" class="pcb-silkscreen-text pcb-silkscreen-top" data-pcb-silkscreen-text-id="pcb_component_2" stroke="none" data-type="pcb_silkscreen_text" data-pcb-layer="top">R1</text><path class="pcb-silkscreen pcb-silkscreen-top" d="M 362.6865671641791 473.134328358209 L 437.3134328358209 473.134328358209 L 437.3134328358209 428.3582089552239 L 362.6865671641791 428.3582089552239 L 362.6865671641791 473.134328358209 Z" fill="none" stroke="#f2eda1" stroke-width="1.4925373134328357" stroke-linecap="round" stroke-linejoin="round" data-pcb-component-id="pcb_component_3" data-pcb-silkscreen-path-id="pcb_silkscreen_path_4" data-type="pcb_silkscreen_path" data-pcb-layer="top"/><text x="0" y="0" dx="0" dy="0" fill="#f2eda1" font-family="Arial, sans-serif" font-size="11.940298507462686" text-anchor="middle" dominant-baseline="central" transform="matrix(1,0,0,1,381.04477611940297,483.5820895522388)" class="pcb-silkscreen-text pcb-silkscreen-top" data-pcb-silkscreen-text-id="pcb_component_3" stroke="none" data-type="pcb_silkscreen_text" data-pcb-layer="top">+</text><text x="0" y="0" dx="0" dy="0" fill="#f2eda1" font-family="Arial, sans-serif" font-size="11.940298507462686" text-anchor="middle" dominant-baseline="central" transform="matrix(1,0,0,1,400,417.91044776119406)" class="pcb-silkscreen-text pcb-silkscreen-top" data-pcb-silkscreen-text-id="pcb_component_3" stroke="none" data-type="pcb_silkscreen_text" data-pcb-layer="top">LED</text><g data-type="pcb_plated_hole" data-pcb-layer="through"><circle class="pcb-hole-outer" fill="rgb(200, 52, 52)" cx="381.04477611940297" cy="450.74626865671644" r="13.432835820895521" data-type="pcb_plated_hole" data-pcb-layer="top"/><circle class="pcb-hole-inner" fill="#FF26E2" cx="381.04477611940297" cy="450.74626865671644" r="7.462686567164178" data-type="pcb_plated_hole_drill" data-pcb-layer="drill"/></g><g data-type="pcb_plated_hole" data-pcb-layer="through"><circle class="pcb-hole-outer" fill="rgb(200, 52, 52)" cx="418.95522388059703" cy="450.74626865671644" r="13.432835820895521" data-type="pcb_plated_hole" data-pcb-layer="top"/><circle class="pcb-hole-inner" fill="#FF26E2" cx="418.95522388059703" cy="450.74626865671644" r="7.462686567164178" data-type="pcb_plated_hole_drill" data-pcb-layer="drill"/></g><g data-type="pcb_via" data-pcb-layer="through"><circle class="pcb-hole-outer" fill="rgb(200, 52, 52)" cx="549.2537313432836" cy="402.9850746268657" r="2.2388059701492535" data-type="pcb_via" data-pcb-layer="top"/><circle class="pcb-hole-inner" fill="#FF26E2" cx="549.2537313432836" cy="402.9850746268657" r="1.4925373134328357" data-type="pcb_via" data-pcb-layer="drill"/></g><g data-type="pcb_via" data-pcb-layer="through"><circle class="pcb-hole-outer" fill="rgb(200, 52, 52)" cx="573.1343283582089" cy="402.9850746268657" r="2.2388059701492535" data-type="pcb_via" data-pcb-layer="top"/><circle class="pcb-hole-inner" fill="#FF26E2" cx="573.1343283582089" cy="402.9850746268657" r="1.4925373134328357" data-type="pcb_via" data-pcb-layer="drill"/></g><g data-type="pcb_via" data-pcb-layer="through"><circle class="pcb-hole-outer" fill="rgb(200, 52, 52)" cx="429.85074626865674" cy="426.8656716417911" r="2.2388059701492535" data-type="pcb_via" data-pcb-layer="top"/><circle class="pcb-hole-inner" fill="#FF26E2" cx="429.85074626865674" cy="426.8656716417911" r="1.4925373134328357" data-type="pcb_via" data-pcb-layer="drill"/></g><g data-type="pcb_via" data-pcb-layer="through"><circle class="pcb-hole-outer" fill="rgb(200, 52, 52)" cx="562.7611940298507" cy="329.6641791044776" r="2.2388059701492535" data-type="pcb_via" data-pcb-layer="top"/><circle class="pcb-hole-inner" fill="#FF26E2" cx="562.7611940298507" cy="329.6641791044776" r="1.4925373134328357" data-type="pcb_via" data-pcb-layer="drill"/></g><circle class="pcb-hole" cx="400" cy="540.2985074626865" r="18.656716417910445" fill="#FF26E2" data-type="pcb_hole" data-pcb-layer="drill"/></svg>