<svg xmlns="http://www.w3.org/2000/svg" width="800" height="600" data-software-used-string="@tscircuit/core@0.0.1112"><style></style><rect class="boundary" x="0" y="0" fill="#000" width="800" height="600" data-type="pcb_background" data-pcb-layer="global"/><rect class="pcb-boundary" fill="none" stroke="#fff" stroke-width="0.3" x="78.57142857142856" y="14.285714285714278" width="642.8571428571429" height="571.4285714285716" data-type="pcb_boundary" data-pcb-layer="global"/><path class="pcb-board" d="M 400 585.7142857142858 L 428.57142857142856 578.5714285714287 L 445.7142857142857 564.2857142857142 L 454.2857142857143 540 L 457.14285714285717 521.4285714285714 L 457.14285714285717 511.42857142857144 L 457.8571428571429 508.57142857142856 L 459.2857142857143 507.14285714285717 L 461.42857142857144 506.8571428571429 L 463.57142857142856 507.42857142857144 L 465.2857142857143 508.8571428571429 L 496.2857142857143 526.8571428571429 L 532 537.4285714285714 L 570.1428571428571 539 L 608.7142857142858 531 L 645.1428571428571 513.7142857142858 L 676.4285714285714 488.2857142857143 L 700.7142857142858 456.2857142857143 L 716.1428571428571 419.57142857142856 L 721.4285714285714 380.2857142857143 L 716.1428571428571 340.14285714285717 L 700.7142857142858 300.42857142857144 L 676.4285714285714 261.85714285714283 L 645.1428571428571 224.85714285714286 L 608.7142857142858 189.57142857142856 L 570.1428571428571 155.57142857142858 L 532 122.85714285714283 L 496.2857142857143 91.42857142857142 L 465.2857142857143 61.57142857142853 L 440.14285714285717 33.571428571428555 L 425.7142857142857 21.428571428571388 L 417.14285714285717 17.14285714285711 L 408.57142857142856 15 L 400 14.285714285714278 L 391.42857142857144 15 L 382.85714285714283 17.14285714285711 L 374.2857142857143 21.428571428571388 L 359.85714285714283 33.571428571428555 L 334.7142857142857 61.57142857142853 L 303.7142857142857 91.42857142857142 L 268 122.85714285714283 L 229.85714285714283 155.57142857142858 L 191.28571428571428 189.57142857142856 L 154.85714285714283 224.85714285714286 L 123.57142857142856 261.85714285714283 L 99.28571428571428 300.42857142857144 L 83.85714285714283 340.14285714285717 L 78.57142857142856 380.2857142857143 L 83.85714285714283 419.57142857142856 L 99.28571428571428 456.2857142857143 L 123.57142857142856 488.2857142857143 L 154.85714285714283 513.7142857142858 L 191.28571428571428 531 L 229.85714285714283 539 L 268 537.4285714285714 L 303.7142857142857 526.8571428571429 L 334.7142857142857 508.8571428571429 L 336.42857142857144 507.42857142857144 L 338.57142857142856 506.8571428571429 L 340.7142857142857 507.14285714285717 L 342.1428571428571 508.57142857142856 L 342.85714285714283 511.42857142857144 L 342.85714285714283 521.4285714285714 L 345.7142857142857 540 L 354.2857142857143 564.2857142857142 L 371.42857142857144 578.5714285714287 Z" fill="none" stroke="rgba(255, 255, 255, 0.5)" stroke-width="1.4285714285714288" data-type="pcb_board" data-pcb-layer="board"/><path class="pcb-trace" stroke="rgb(77, 127, 196)" fill="none" d="M 457.14285714285717 420 L 457.14285714285717 420" stroke-width="2.142857142857143" stroke-linecap="round" stroke-linejoin="round" shape-rendering="crispEdges" data-type="pcb_trace" data-pcb-layer="bottom"/><path class="pcb-trace" stroke="rgb(77, 127, 196)" fill="none" d="M 457.14285714285717 420 L 526.028293350158 420" stroke-width="2.142857142857143" stroke-linecap="round" stroke-linejoin="round" shape-rendering="crispEdges" data-type="pcb_trace" data-pcb-layer="bottom"/><path class="pcb-trace" stroke="rgb(77, 127, 196)" fill="none" d="M 526.028293350158 420 L 536.5463999006568 430.51810655049866" stroke-width="2.142857142857143" stroke-linecap="round" stroke-linejoin="round" shape-rendering="crispEdges" data-type="pcb_trace" data-pcb-layer="bottom"/><path class="pcb-trace" stroke="rgb(77, 127, 196)" fill="none" d="M 536.5463999006568 430.51810655049866 L 536.875 430.71428571428567" stroke-width="2.142857142857143" stroke-linecap="round" stroke-linejoin="round" shape-rendering="crispEdges" data-type="pcb_trace" data-pcb-layer="bottom"/><path class="pcb-trace" stroke="rgb(77, 127, 196)" fill="none" d="M 536.875 430.71428571428567 L 536.875 430.71428571428567" stroke-width="2.142857142857143" stroke-linecap="round" stroke-linejoin="round" shape-rendering="crispEdges" data-type="pcb_trace" data-pcb-layer="bottom"/><path class="pcb-trace" stroke="rgb(77, 127, 196)" fill="none" d="M 428.57142857142856 420 L 428.57142857142856 420" stroke-width="2.142857142857143" stroke-linecap="round" stroke-linejoin="round" shape-rendering="crispEdges" data-type="pcb_trace" data-pcb-layer="bottom"/><path class="pcb-trace" stroke="rgb(77, 127, 196)" fill="none" d="M 428.57142857142856 420 L 428.57142857142856 343.31832719050425" stroke-width="2.142857142857143" stroke-linecap="round" stroke-linejoin="round" shape-rendering="crispEdges" data-type="pcb_trace" data-pcb-layer="bottom"/><path class="pcb-trace" stroke="rgb(77, 127, 196)" fill="none" d="M 428.57142857142856 343.31832719050425 L 417.14285714285717 331.88975576193286" stroke-width="2.142857142857143" stroke-linecap="round" stroke-linejoin="round" shape-rendering="crispEdges" data-type="pcb_trace" data-pcb-layer="bottom"/><path class="pcb-trace" stroke="rgb(77, 127, 196)" fill="none" d="M 417.14285714285717 331.88975576193286 L 417.14285714285717 328.5714285714286" stroke-width="2.142857142857143" stroke-linecap="round" stroke-linejoin="round" shape-rendering="crispEdges" data-type="pcb_trace" data-pcb-layer="bottom"/><path class="pcb-trace" stroke="rgb(77, 127, 196)" fill="none" d="M 417.14285714285717 328.5714285714286 L 417.14285714285717 328.5714285714286" stroke-width="2.142857142857143" stroke-linecap="round" stroke-linejoin="round" shape-rendering="crispEdges" data-type="pcb_trace" data-pcb-layer="bottom"/><path class="pcb-trace" stroke="rgb(77, 127, 196)" fill="none" d="M 414.2857142857143 303.6842105263158 L 436.1842105263158 303.6842105263158" stroke-width="2.142857142857143" stroke-linecap="round" stroke-linejoin="round" shape-rendering="crispEdges" data-type="pcb_trace" data-pcb-layer="bottom"/><path class="pcb-trace" stroke="rgb(77, 127, 196)" fill="none" d="M 436.1842105263158 303.6842105263158 L 448.2142857142857 315.7142857142857" stroke-width="2.142857142857143" stroke-linecap="round" stroke-linejoin="round" shape-rendering="crispEdges" data-type="pcb_trace" data-pcb-layer="bottom"/><path class="pcb-trace" stroke="rgb(77, 127, 196)" fill="none" d="M 357.82142857142856 257.85714285714283 L 357.82142857142856 257.85714285714283" stroke-width="2.142857142857143" stroke-linecap="round" stroke-linejoin="round" shape-rendering="crispEdges" data-type="pcb_trace" data-pcb-layer="bottom"/><path class="pcb-trace" stroke="rgb(77, 127, 196)" fill="none" d="M 357.82142857142856 257.85714285714283 L 368.5 257.85714285714283" stroke-width="2.142857142857143" stroke-linecap="round" stroke-linejoin="round" shape-rendering="crispEdges" data-type="pcb_trace" data-pcb-layer="bottom"/><path class="pcb-trace" stroke="rgb(77, 127, 196)" fill="none" d="M 368.5 257.85714285714283 L 414.2857142857143 303.6428571428571" stroke-width="2.142857142857143" stroke-linecap="round" stroke-linejoin="round" shape-rendering="crispEdges" data-type="pcb_trace" data-pcb-layer="bottom"/><path class="pcb-trace" stroke="rgb(77, 127, 196)" fill="none" d="M 571.4285714285714 380 L 571.4285714285714 380" stroke-width="2.142857142857143" stroke-linecap="round" stroke-linejoin="round" shape-rendering="crispEdges" data-type="pcb_trace" data-pcb-layer="bottom"/><path class="pcb-trace" stroke="rgb(77, 127, 196)" fill="none" d="M 571.4285714285714 380 L 512.5 380" stroke-width="2.142857142857143" stroke-linecap="round" stroke-linejoin="round" shape-rendering="crispEdges" data-type="pcb_trace" data-pcb-layer="bottom"/><path class="pcb-trace" stroke="rgb(77, 127, 196)" fill="none" d="M 512.5 380 L 448.2142857142857 315.7142857142857" stroke-width="2.142857142857143" stroke-linecap="round" stroke-linejoin="round" shape-rendering="crispEdges" data-type="pcb_trace" data-pcb-layer="bottom"/><path class="pcb-silkscreen pcb-silkscreen-bottom" d="M 265.42857142857144 190.28571428571428 L 245.7142857142857 239 L 264.71428571428567 239 L 274.1428571428571 212 L 283.71428571428567 239 L 302 239 L 282.2857142857143 190.28571428571428 L 265.42857142857144 190.28571428571428 Z" fill="none" stroke="#5da9e9" stroke-width="1.4285714285714288" stroke-linecap="round" stroke-linejoin="round" data-pcb-component-id="null" data-pcb-silkscreen-path-id="pcb_silkscreen_path_13" data-type="pcb_silkscreen_path" data-pcb-layer="bottom"/><path class="pcb-silkscreen pcb-silkscreen-bottom" d="M 323 190.28571428571428 L 305.42857142857144 190.28571428571428 L 305.42857142857144 239 L 323 239 L 323 190.28571428571428 Z" fill="none" stroke="#5da9e9" stroke-width="1.4285714285714288" stroke-linecap="round" stroke-linejoin="round" data-pcb-component-id="null" data-pcb-silkscreen-path-id="pcb_silkscreen_path_14" data-type="pcb_silkscreen_path" data-pcb-layer="bottom"/><path class="pcb-silkscreen pcb-silkscreen-bottom" d="M 372.42857142857144 239 L 372.42857142857144 228 L 351.7142857142857 204.57142857142856 L 372.7142857142857 204.57142857142856 L 372.7142857142857 190.28571428571428 L 328 190.28571428571428 L 328 201.57142857142856 L 348.85714285714283 224.71428571428572 L 329.2857142857143 224.71428571428572 L 329.2857142857143 239 L 372.42857142857144 239 Z" fill="none" stroke="#5da9e9" stroke-width="1.4285714285714288" stroke-linecap="round" stroke-linejoin="round" data-pcb-component-id="null" data-pcb-silkscreen-path-id="pcb_silkscreen_path_15" data-type="pcb_silkscreen_path" data-pcb-layer="bottom"/><path class="pcb-silkscreen pcb-silkscreen-bottom" d="M 374.2857142857143 214.85714285714283 L 374.85714285714283 220 L 376 225.14285714285714 L 378.42857142857144 229.42857142857144 L 381.7142857142857 233 L 385.57142857142856 236.14285714285714 L 389.85714285714283 238.42857142857142 L 395 240 L 400.7142857142857 240.57142857142856 L 405.14285714285717 240 L 409.42857142857144 239 L 412 238 L 412 221.71428571428572 L 409 223.28571428571428 L 405.7142857142857 224.42857142857144 L 403.2857142857143 224.42857142857144 L 399 223.71428571428572 L 395.57142857142856 221.71428571428572 L 393.2857142857143 218.71428571428572 L 392.2857142857143 214.85714285714283 L 393.2857142857143 210.71428571428572 L 395.42857142857144 207.57142857142856 L 399 205.57142857142856 L 403.2857142857143 205 L 405.7142857142857 205 L 409 206 L 412 207.85714285714283 L 412 191.71428571428572 L 407.7142857142857 189.85714285714283 L 403.2857142857143 189.14285714285714 L 400.57142857142856 189.14285714285714 L 395 189.42857142857142 L 389.85714285714283 190.85714285714286 L 385.57142857142856 193 L 381.7142857142857 196 L 378.7142857142857 199.71428571428572 L 376.2857142857143 204 L 374.85714285714283 209.14285714285714 L 374.2857142857143 214.85714285714283 Z" fill="none" stroke="#5da9e9" stroke-width="1.4285714285714288" stroke-linecap="round" stroke-linejoin="round" data-pcb-component-id="null" data-pcb-silkscreen-path-id="pcb_silkscreen_path_16" data-type="pcb_silkscreen_path" data-pcb-layer="bottom"/><path class="pcb-silkscreen pcb-silkscreen-bottom" d="M 442.7142857142857 240.57142857142856 L 448.14285714285717 240 L 453.14285714285717 238.42857142857142 L 457.8571428571429 236.14285714285714 L 461.8571428571429 233 L 465.2857142857143 229.14285714285714 L 467.57142857142856 224.71428571428572 L 469.1428571428571 220 L 469.57142857142856 214.85714285714283 L 469.1428571428571 209.28571428571428 L 467.57142857142856 204.57142857142856 L 465.2857142857143 200.14285714285714 L 461.8571428571429 196.28571428571428 L 457.8571428571429 193.1428571428571 L 453.14285714285717 190.85714285714286 L 448.14285714285717 189.42857142857142 L 442.7142857142857 189.14285714285714 L 437 189.42857142857142 L 431.85714285714283 190.85714285714286 L 427.2857142857143 193.1428571428571 L 423.14285714285717 196.28571428571428 L 419.7142857142857 200.14285714285714 L 417.42857142857144 204.57142857142856 L 416 209.28571428571428 L 415.42857142857144 214.85714285714283 L 416 220 L 417.42857142857144 224.71428571428572 L 419.7142857142857 229.14285714285714 L 423.14285714285717 233 L 427.2857142857143 236.14285714285714 L 431.85714285714283 238.42857142857142 L 437 240 L 442.7142857142857 240.57142857142856 Z" fill="none" stroke="#5da9e9" stroke-width="1.4285714285714288" stroke-linecap="round" stroke-linejoin="round" data-pcb-component-id="null" data-pcb-silkscreen-path-id="pcb_silkscreen_path_17" data-type="pcb_silkscreen_path" data-pcb-layer="bottom"/><path class="pcb-silkscreen pcb-silkscreen-bottom" d="M 442.7142857142857 224.42857142857144 L 438.7142857142857 223.57142857142856 L 435.7142857142857 221.42857142857144 L 433.7142857142857 218.42857142857144 L 432.85714285714283 214.85714285714283 L 433.7142857142857 210.85714285714283 L 435.7142857142857 207.85714285714283 L 438.7142857142857 205.71428571428572 L 442.7142857142857 205 L 446.2857142857143 205.71428571428572 L 449.42857142857144 207.85714285714283 L 451.42857142857144 210.85714285714283 L 452.14285714285717 214.85714285714283 L 451.42857142857144 218.42857142857144 L 449.42857142857144 221.42857142857144 L 446.2857142857143 223.57142857142856 L 442.7142857142857 224.42857142857144 Z" fill="none" stroke="#5da9e9" stroke-width="1.4285714285714288" stroke-linecap="round" stroke-linejoin="round" data-pcb-component-id="null" data-pcb-silkscreen-path-id="pcb_silkscreen_path_18" data-type="pcb_silkscreen_path" data-pcb-layer="bottom"/><path class="pcb-silkscreen pcb-silkscreen-bottom" d="M 490.7142857142857 216.57142857142856 L 490.7142857142857 190.14285714285714 L 472.7142857142857 190.14285714285714 L 472.7142857142857 239 L 490.7142857142857 239 L 490.7142857142857 233.28571428571428 L 494.57142857142856 237.14285714285714 L 499.7142857142857 239.71428571428572 L 504.14285714285717 240.14285714285714 L 508.7142857142857 239.71428571428572 L 514.1428571428571 237.14285714285714 L 518 232.42857142857142 L 522.5714285714286 237.42857142857142 L 528.7142857142858 240 L 533.1428571428571 240.14285714285714 L 540.5714285714286 239 L 546 235.14285714285714 L 549.1428571428571 229.42857142857144 L 550.4285714285714 221.42857142857144 L 550.4285714285714 190.14285714285714 L 532.4285714285714 190.14285714285714 L 532.4285714285714 216.85714285714283 L 531.2857142857142 221 L 529.1428571428571 223.57142857142856 L 526.5714285714286 224 L 524.1428571428571 223.57142857142856 L 521.5714285714286 221 L 520.7142857142857 216.57142857142856 L 520.7142857142857 190.14285714285714 L 502.7142857142857 190.14285714285714 L 502.7142857142857 216.85714285714283 L 501.8571428571429 221 L 499.2857142857143 223.57142857142856 L 497 224 L 494.42857142857144 223.57142857142856 L 491.7142857142857 221 L 490.7142857142857 216.57142857142856 Z" fill="none" stroke="#5da9e9" stroke-width="1.4285714285714288" stroke-linecap="round" stroke-linejoin="round" data-pcb-component-id="null" data-pcb-silkscreen-path-id="pcb_silkscreen_path_19" data-type="pcb_silkscreen_path" data-pcb-layer="bottom"/><rect class="pcb-pad" fill="rgb(200, 52, 52)" x="275" y="207.1428571428571" width="42.85714285714286" height="42.85714285714286" data-type="pcb_smtpad" data-pcb-layer="top"/><rect class="pcb-pad" fill="rgb(200, 52, 52)" x="482.1428571428571" y="207.1428571428571" width="42.85714285714286" height="42.85714285714286" data-type="pcb_smtpad" data-pcb-layer="top"/><rect class="pcb-pad" fill="rgb(200, 52, 52)" x="385.7142857142857" y="287.14285714285717" width="28.571428571428573" height="28.571428571428573" data-type="pcb_smtpad" data-pcb-layer="top"/><rect class="pcb-pad" fill="rgb(200, 52, 52)" x="385.7142857142857" y="141.42857142857144" width="28.571428571428573" height="28.571428571428573" data-type="pcb_smtpad" data-pcb-layer="top"/><rect class="pcb-pad" fill="rgb(200, 52, 52)" x="595" y="403.57142857142856" width="10" height="21.42857142857143" data-type="pcb_smtpad" data-pcb-layer="top"/><rect class="pcb-pad" fill="rgb(200, 52, 52)" x="609.2857142857143" y="403.57142857142856" width="10" height="21.42857142857143" data-type="pcb_smtpad" data-pcb-layer="top"/><rect class="pcb-pad" fill="rgb(200, 52, 52)" x="623.5714285714286" y="403.57142857142856" width="10" height="21.42857142857143" data-type="pcb_smtpad" data-pcb-layer="top"/><rect class="pcb-pad" fill="rgb(200, 52, 52)" x="557.1428571428572" y="401.42857142857144" width="14.285714285714286" height="25.714285714285715" data-type="pcb_smtpad" data-pcb-layer="top"/><rect class="pcb-pad" fill="rgb(200, 52, 52)" x="657.1428571428571" y="401.42857142857144" width="14.285714285714286" height="25.714285714285715" data-type="pcb_smtpad" data-pcb-layer="top"/><rect class="pcb-pad" fill="rgb(200, 52, 52)" x="525.3571428571429" y="407.5" width="11.42857142857143" height="13.571428571428571" data-type="pcb_smtpad" data-pcb-layer="top"/><rect class="pcb-pad" fill="rgb(200, 52, 52)" x="548.9285714285714" y="407.5" width="11.42857142857143" height="13.571428571428571" data-type="pcb_smtpad" data-pcb-layer="top"/><path class="pcb-trace" stroke="rgb(200, 52, 52)" fill="none" d="M 381.85714285714283 442.8571428571429 L 409.7662921810944 414.9479935331913" stroke-width="2.142857142857143" stroke-linecap="round" stroke-linejoin="round" shape-rendering="crispEdges" data-type="pcb_trace" data-pcb-layer="top"/><path class="pcb-trace" stroke="rgb(200, 52, 52)" fill="none" d="M 409.7662921810944 414.9479935331913 L 448.8646047607117 414.9479935331913" stroke-width="2.142857142857143" stroke-linecap="round" stroke-linejoin="round" shape-rendering="crispEdges" data-type="pcb_trace" data-pcb-layer="top"/><path class="pcb-trace" stroke="rgb(200, 52, 52)" fill="none" d="M 448.8646047607117 414.9479935331913 L 457.14285714285717 420" stroke-width="2.142857142857143" stroke-linecap="round" stroke-linejoin="round" shape-rendering="crispEdges" data-type="pcb_trace" data-pcb-layer="top"/><path class="pcb-trace" stroke="rgb(200, 52, 52)" fill="none" d="M 457.14285714285717 420 L 457.14285714285717 420" stroke-width="2.142857142857143" stroke-linecap="round" stroke-linejoin="round" shape-rendering="crispEdges" data-type="pcb_trace" data-pcb-layer="top"/><path class="pcb-trace" stroke="rgb(200, 52, 52)" fill="none" d="M 536.875 430.71428571428567 L 536.875 430.71428571428567" stroke-width="2.142857142857143" stroke-linecap="round" stroke-linejoin="round" shape-rendering="crispEdges" data-type="pcb_trace" data-pcb-layer="top"/><path class="pcb-trace" stroke="rgb(200, 52, 52)" fill="none" d="M 536.875 430.71428571428567 L 538.2142857142858 430.71428571428567" stroke-width="2.142857142857143" stroke-linecap="round" stroke-linejoin="round" shape-rendering="crispEdges" data-type="pcb_trace" data-pcb-layer="top"/><path class="pcb-trace" stroke="rgb(200, 52, 52)" fill="none" d="M 538.2142857142858 430.71428571428567 L 554.6428571428571 414.2857142857143" stroke-width="2.142857142857143" stroke-linecap="round" stroke-linejoin="round" shape-rendering="crispEdges" data-type="pcb_trace" data-pcb-layer="top"/><path class="pcb-trace" stroke="rgb(200, 52, 52)" fill="none" d="M 531.0714285714286 414.2857142857143 L 531.0714285714286 411.994823294187" stroke-width="2.142857142857143" stroke-linecap="round" stroke-linejoin="round" shape-rendering="crispEdges" data-type="pcb_trace" data-pcb-layer="top"/><path class="pcb-trace" stroke="rgb(200, 52, 52)" fill="none" d="M 531.0714285714286 411.994823294187 L 577.4327861102649 365.6334657553505" stroke-width="2.142857142857143" stroke-linecap="round" stroke-linejoin="round" shape-rendering="crispEdges" data-type="pcb_trace" data-pcb-layer="top"/><path class="pcb-trace" stroke="rgb(200, 52, 52)" fill="none" d="M 577.4327861102649 365.6334657553505 L 614.2857142857143 402.48639393079986" stroke-width="2.142857142857143" stroke-linecap="round" stroke-linejoin="round" shape-rendering="crispEdges" data-type="pcb_trace" data-pcb-layer="top"/><path class="pcb-trace" stroke="rgb(200, 52, 52)" fill="none" d="M 614.2857142857143 402.48639393079986 L 614.2857142857143 414.2857142857143" stroke-width="2.142857142857143" stroke-linecap="round" stroke-linejoin="round" shape-rendering="crispEdges" data-type="pcb_trace" data-pcb-layer="top"/><path class="pcb-trace" stroke="rgb(200, 52, 52)" fill="none" d="M 482.14285714285717 300.6766917293233 L 463.2518796992481 300.6766917293233" stroke-width="2.142857142857143" stroke-linecap="round" stroke-linejoin="round" shape-rendering="crispEdges" data-type="pcb_trace" data-pcb-layer="top"/><path class="pcb-trace" stroke="rgb(200, 52, 52)" fill="none" d="M 463.2518796992481 300.6766917293233 L 448.2142857142857 315.7142857142857" stroke-width="2.142857142857143" stroke-linecap="round" stroke-linejoin="round" shape-rendering="crispEdges" data-type="pcb_trace" data-pcb-layer="top"/><path class="pcb-trace" stroke="rgb(200, 52, 52)" fill="none" d="M 503.57142857142856 228.57142857142856 L 503.57142857142856 280" stroke-width="2.142857142857143" stroke-linecap="round" stroke-linejoin="round" shape-rendering="crispEdges" data-type="pcb_trace" data-pcb-layer="top"/><path class="pcb-trace" stroke="rgb(200, 52, 52)" fill="none" d="M 503.57142857142856 280 L 482.14285714285717 301.42857142857144" stroke-width="2.142857142857143" stroke-linecap="round" stroke-linejoin="round" shape-rendering="crispEdges" data-type="pcb_trace" data-pcb-layer="top"/><path class="pcb-trace" stroke="rgb(200, 52, 52)" fill="none" d="M 418.14285714285717 442.8571428571429 L 418.14285714285717 430.42857142857144" stroke-width="2.142857142857143" stroke-linecap="round" stroke-linejoin="round" shape-rendering="crispEdges" data-type="pcb_trace" data-pcb-layer="top"/><path class="pcb-trace" stroke="rgb(200, 52, 52)" fill="none" d="M 418.14285714285717 430.42857142857144 L 427.0311731928979 421.54025537853073" stroke-width="2.142857142857143" stroke-linecap="round" stroke-linejoin="round" shape-rendering="crispEdges" data-type="pcb_trace" data-pcb-layer="top"/><path class="pcb-trace" stroke="rgb(200, 52, 52)" fill="none" d="M 427.0311731928979 421.54025537853073 L 428.57142857142856 420" stroke-width="2.142857142857143" stroke-linecap="round" stroke-linejoin="round" shape-rendering="crispEdges" data-type="pcb_trace" data-pcb-layer="top"/><path class="pcb-trace" stroke="rgb(200, 52, 52)" fill="none" d="M 428.57142857142856 420 L 428.57142857142856 420" stroke-width="2.142857142857143" stroke-linecap="round" stroke-linejoin="round" shape-rendering="crispEdges" data-type="pcb_trace" data-pcb-layer="top"/><path class="pcb-trace" stroke="rgb(200, 52, 52)" fill="none" d="M 417.14285714285717 328.5714285714286 L 417.14285714285717 328.5714285714286" stroke-width="2.142857142857143" stroke-linecap="round" stroke-linejoin="round" shape-rendering="crispEdges" data-type="pcb_trace" data-pcb-layer="top"/><path class="pcb-trace" stroke="rgb(200, 52, 52)" fill="none" d="M 417.14285714285717 328.5714285714286 L 435.35714285714283 328.5714285714286" stroke-width="2.142857142857143" stroke-linecap="round" stroke-linejoin="round" shape-rendering="crispEdges" data-type="pcb_trace" data-pcb-layer="top"/><path class="pcb-trace" stroke="rgb(200, 52, 52)" fill="none" d="M 435.35714285714283 328.5714285714286 L 448.2142857142857 315.7142857142857" stroke-width="2.142857142857143" stroke-linecap="round" stroke-linejoin="round" shape-rendering="crispEdges" data-type="pcb_trace" data-pcb-layer="top"/><path class="pcb-trace" stroke="rgb(200, 52, 52)" fill="none" d="M 296.42857142857144 228.57142857142856 L 328.11825759704175 228.57142857142856" stroke-width="2.142857142857143" stroke-linecap="round" stroke-linejoin="round" shape-rendering="crispEdges" data-type="pcb_trace" data-pcb-layer="top"/><path class="pcb-trace" stroke="rgb(200, 52, 52)" fill="none" d="M 328.11825759704175 228.57142857142856 L 356.2591073853933 256.7122783597801" stroke-width="2.142857142857143" stroke-linecap="round" stroke-linejoin="round" shape-rendering="crispEdges" data-type="pcb_trace" data-pcb-layer="top"/><path class="pcb-trace" stroke="rgb(200, 52, 52)" fill="none" d="M 356.2591073853933 256.7122783597801 L 357.82142857142856 257.85714285714283" stroke-width="2.142857142857143" stroke-linecap="round" stroke-linejoin="round" shape-rendering="crispEdges" data-type="pcb_trace" data-pcb-layer="top"/><path class="pcb-trace" stroke="rgb(200, 52, 52)" fill="none" d="M 357.82142857142856 257.85714285714283 L 357.82142857142856 257.85714285714283" stroke-width="2.142857142857143" stroke-linecap="round" stroke-linejoin="round" shape-rendering="crispEdges" data-type="pcb_trace" data-pcb-layer="top"/><path class="pcb-trace" stroke="rgb(200, 52, 52)" fill="none" d="M 600 414.2857142857143 L 600 409.70807059487606" stroke-width="2.142857142857143" stroke-linecap="round" stroke-linejoin="round" shape-rendering="crispEdges" data-type="pcb_trace" data-pcb-layer="top"/><path class="pcb-trace" stroke="rgb(200, 52, 52)" fill="none" d="M 600 409.70807059487606 L 572.9333124189418 382.6413830138179" stroke-width="2.142857142857143" stroke-linecap="round" stroke-linejoin="round" shape-rendering="crispEdges" data-type="pcb_trace" data-pcb-layer="top"/><path class="pcb-trace" stroke="rgb(200, 52, 52)" fill="none" d="M 572.9333124189418 382.6413830138179 L 571.4285714285714 380" stroke-width="2.142857142857143" stroke-linecap="round" stroke-linejoin="round" shape-rendering="crispEdges" data-type="pcb_trace" data-pcb-layer="top"/><path class="pcb-trace" stroke="rgb(200, 52, 52)" fill="none" d="M 571.4285714285714 380 L 571.4285714285714 380" stroke-width="2.142857142857143" stroke-linecap="round" stroke-linejoin="round" shape-rendering="crispEdges" data-type="pcb_trace" data-pcb-layer="top"/><path class="pcb-silkscreen pcb-silkscreen-top" d="M 296.42857142857144 257.1428571428571 L 296.42857142857144 200" fill="none" stroke="#f2eda1" stroke-width="1.4285714285714288" stroke-linecap="round" stroke-linejoin="round" data-pcb-component-id="pcb_component_0" data-pcb-silkscreen-path-id="pcb_silkscreen_path_0" data-type="pcb_silkscreen_path" data-pcb-layer="top"/><path class="pcb-silkscreen pcb-silkscreen-top" d="M 287.8571428571429 228.57142857142856 L 305 228.57142857142856" fill="none" stroke="#f2eda1" stroke-width="1.4285714285714288" stroke-linecap="round" stroke-linejoin="round" data-pcb-component-id="pcb_component_0" data-pcb-silkscreen-path-id="pcb_silkscreen_path_1" data-type="pcb_silkscreen_path" data-pcb-layer="top"/><text x="0" y="0" dx="0" dy="0" fill="#f2eda1" font-family="Arial, sans-serif" font-size="14.285714285714286" text-anchor="middle" dominant-baseline="central" transform="matrix(1,0,0,1,296.42857142857144,271.42857142857144)" class="pcb-silkscreen-text pcb-silkscreen-top" data-pcb-silkscreen-text-id="pcb_component_0" stroke="none" data-type="pcb_silkscreen_text" data-pcb-layer="top">+</text><text x="0" y="0" dx="0" dy="0" fill="#f2eda1" font-family="Arial, sans-serif" font-size="14.285714285714286" text-anchor="middle" dominant-baseline="central" transform="matrix(1,0,0,1,503.57142857142856,271.42857142857144)" class="pcb-silkscreen-text pcb-silkscreen-top" data-pcb-silkscreen-text-id="pcb_component_0" stroke="none" data-type="pcb_silkscreen_text" data-pcb-layer="top">-</text><path class="pcb-silkscreen pcb-silkscreen-top" d="M 585.7142857142858 428.57142857142856 L 642.8571428571429 428.57142857142856 L 642.8571428571429 400 L 585.7142857142858 400 L 585.7142857142858 428.57142857142856 Z" fill="none" stroke="#f2eda1" stroke-width="1.4285714285714288" stroke-linecap="round" stroke-linejoin="round" data-pcb-component-id="pcb_component_1" data-pcb-silkscreen-path-id="pcb_silkscreen_path_2" data-type="pcb_silkscreen_path" data-pcb-layer="top"/><path class="pcb-silkscreen pcb-silkscreen-top" d="M 554.6428571428571 401.7857142857143 L 522.5 401.7857142857143 L 522.5 426.7857142857143 L 554.6428571428571 426.7857142857143" fill="none" stroke="#f2eda1" stroke-width="1.4285714285714288" stroke-linecap="round" stroke-linejoin="round" data-pcb-component-id="pcb_component_2" data-pcb-silkscreen-path-id="pcb_silkscreen_path_3" data-type="pcb_silkscreen_path" data-pcb-layer="top"/><text x="0" y="0" dx="0" dy="0" fill="#f2eda1" font-family="Arial, sans-serif" font-size="5.714285714285715" text-anchor="middle" dominant-baseline="central" transform="matrix(1,0,0,1,542.8571428571429,394.64285714285717)" class="pcb-silkscreen-text pcb-silkscreen-top" data-pcb-silkscreen-text-id="pcb_component_2" stroke="none" data-type="pcb_silkscreen_text" data-pcb-layer="top">R1</text><path class="pcb-silkscreen pcb-silkscreen-top" d="M 364.2857142857143 464.28571428571433 L 435.7142857142857 464.28571428571433 L 435.7142857142857 421.42857142857144 L 364.2857142857143 421.42857142857144 L 364.2857142857143 464.28571428571433 Z" fill="none" stroke="#f2eda1" stroke-width="1.4285714285714288" stroke-linecap="round" stroke-linejoin="round" data-pcb-component-id="pcb_component_3" data-pcb-silkscreen-path-id="pcb_silkscreen_path_4" data-type="pcb_silkscreen_path" data-pcb-layer="top"/><path class="pcb-silkscreen pcb-silkscreen-top" d="M 418.14285714285717 464.28571428571433 L 418.14285714285717 421.42857142857144" fill="none" stroke="#f2eda1" stroke-width="1.4285714285714288" stroke-linecap="round" stroke-linejoin="round" data-pcb-component-id="pcb_component_3" data-pcb-silkscreen-path-id="pcb_silkscreen_path_5" data-type="pcb_silkscreen_path" data-pcb-layer="top"/><text x="0" y="0" dx="0" dy="0" fill="#f2eda1" font-family="Arial, sans-serif" font-size="11.42857142857143" text-anchor="middle" dominant-baseline="central" transform="matrix(1,0,0,1,381.85714285714283,474.2857142857143)" class="pcb-silkscreen-text pcb-silkscreen-top" data-pcb-silkscreen-text-id="pcb_component_3" stroke="none" data-type="pcb_silkscreen_text" data-pcb-layer="top">+</text><text x="0" y="0" dx="0" dy="0" fill="#f2eda1" font-family="Arial, sans-serif" font-size="11.42857142857143" text-anchor="middle" dominant-baseline="central" transform="matrix(1,0,0,1,400,411.42857142857144)" class="pcb-silkscreen-text pcb-silkscreen-top" data-pcb-silkscreen-text-id="pcb_component_3" stroke="none" data-type="pcb_silkscreen_text" data-pcb-layer="top">LED</text><path class="pcb-silkscreen pcb-silkscreen-top" d="M 331.8571428571429 372.42857142857144 L 342.85714285714283 399.42857142857144 L 332.2857142857143 399.42857142857144 L 327 384.42857142857144 L 321.7142857142857 399.42857142857144 L 311.57142857142856 399.42857142857144 L 322.57142857142856 372.42857142857144 L 331.8571428571429 372.42857142857144 Z" fill="none" stroke="#f2eda1" stroke-width="1.4285714285714288" stroke-linecap="round" stroke-linejoin="round" data-pcb-component-id="null" data-pcb-silkscreen-path-id="pcb_silkscreen_path_6" data-type="pcb_silkscreen_path" data-pcb-layer="top"/><path class="pcb-silkscreen pcb-silkscreen-top" d="M 299.8571428571429 372.42857142857144 L 309.7142857142857 372.42857142857144 L 309.7142857142857 399.42857142857144 L 299.8571428571429 399.42857142857144 L 299.8571428571429 372.42857142857144 Z" fill="none" stroke="#f2eda1" stroke-width="1.4285714285714288" stroke-linecap="round" stroke-linejoin="round" data-pcb-component-id="null" data-pcb-silkscreen-path-id="pcb_silkscreen_path_7" data-type="pcb_silkscreen_path" data-pcb-layer="top"/><path class="pcb-silkscreen pcb-silkscreen-top" d="M 272.42857142857144 399.42857142857144 L 272.42857142857144 393.2857142857143 L 284 380.2857142857143 L 272.2857142857143 380.2857142857143 L 272.2857142857143 372.42857142857144 L 297.1428571428571 372.42857142857144 L 297.1428571428571 378.7142857142857 L 285.57142857142856 391.57142857142856 L 296.42857142857144 391.57142857142856 L 296.42857142857144 399.42857142857144 L 272.42857142857144 399.42857142857144 Z" fill="none" stroke="#f2eda1" stroke-width="1.4285714285714288" stroke-linecap="round" stroke-linejoin="round" data-pcb-component-id="null" data-pcb-silkscreen-path-id="pcb_silkscreen_path_8" data-type="pcb_silkscreen_path" data-pcb-layer="top"/><path class="pcb-silkscreen pcb-silkscreen-top" d="M 271.42857142857144 386 L 271.1428571428571 388.8571428571429 L 270.42857142857144 391.7142857142857 L 269.1428571428571 394.1428571428571 L 267.2857142857143 396.14285714285717 L 265.1428571428571 397.8571428571429 L 262.7142857142857 399.1428571428571 L 259.85714285714283 400 L 256.7142857142857 400.2857142857143 L 254.28571428571428 400 L 251.85714285714286 399.42857142857144 L 250.42857142857142 398.8571428571429 L 250.42857142857142 389.8571428571429 L 252.14285714285714 390.7142857142857 L 253.99999999999997 391.2857142857143 L 255.28571428571428 391.2857142857143 L 257.71428571428567 391 L 259.57142857142856 389.8571428571429 L 260.85714285714283 388.14285714285717 L 261.42857142857144 386 L 260.85714285714283 383.7142857142857 L 259.71428571428567 382 L 257.71428571428567 380.8571428571429 L 255.28571428571428 380.57142857142856 L 253.99999999999997 380.57142857142856 L 252.14285714285714 381.1428571428571 L 250.42857142857142 382.14285714285717 L 250.42857142857142 373.14285714285717 L 252.85714285714283 372.1428571428571 L 255.28571428571428 371.7142857142857 L 256.8571428571429 371.7142857142857 L 259.85714285714283 371.8571428571429 L 262.7142857142857 372.7142857142857 L 265.1428571428571 373.8571428571429 L 267.2857142857143 375.57142857142856 L 269 377.57142857142856 L 270.2857142857143 380 L 271.1428571428571 382.8571428571429 L 271.42857142857144 386 Z" fill="none" stroke="#f2eda1" stroke-width="1.4285714285714288" stroke-linecap="round" stroke-linejoin="round" data-pcb-component-id="null" data-pcb-silkscreen-path-id="pcb_silkscreen_path_9" data-type="pcb_silkscreen_path" data-pcb-layer="top"/><path class="pcb-silkscreen pcb-silkscreen-top" d="M 233.42857142857142 400.2857142857143 L 230.42857142857142 400 L 227.57142857142856 399.1428571428571 L 225 397.8571428571429 L 222.7142857142857 396.14285714285717 L 220.85714285714286 394 L 219.57142857142858 391.57142857142856 L 218.71428571428572 388.8571428571429 L 218.42857142857142 386 L 218.71428571428572 383 L 219.57142857142858 380.2857142857143 L 220.85714285714286 377.8571428571429 L 222.7142857142857 375.7142857142857 L 225 374 L 227.57142857142856 372.7142857142857 L 230.42857142857142 371.8571428571429 L 233.42857142857142 371.7142857142857 L 236.57142857142858 371.8571428571429 L 239.42857142857142 372.7142857142857 L 241.99999999999997 374 L 244.28571428571428 375.7142857142857 L 246.14285714285714 377.8571428571429 L 247.42857142857142 380.2857142857143 L 248.28571428571428 383 L 248.57142857142856 386 L 248.28571428571428 388.8571428571429 L 247.42857142857142 391.57142857142856 L 246.14285714285714 394 L 244.28571428571428 396.14285714285717 L 241.99999999999997 397.8571428571429 L 239.42857142857142 399.1428571428571 L 236.57142857142858 400 L 233.42857142857142 400.2857142857143 Z" fill="none" stroke="#f2eda1" stroke-width="1.4285714285714288" stroke-linecap="round" stroke-linejoin="round" data-pcb-component-id="null" data-pcb-silkscreen-path-id="pcb_silkscreen_path_10" data-type="pcb_silkscreen_path" data-pcb-layer="top"/><path class="pcb-silkscreen pcb-silkscreen-top" d="M 233.42857142857142 391.2857142857143 L 235.57142857142856 390.8571428571429 L 237.28571428571428 389.7142857142857 L 238.42857142857142 388 L 238.85714285714286 386 L 238.42857142857142 383.8571428571429 L 237.28571428571428 382.14285714285717 L 235.57142857142856 381 L 233.42857142857142 380.57142857142856 L 231.42857142857142 381 L 229.7142857142857 382.14285714285717 L 228.57142857142856 383.8571428571429 L 228.14285714285714 386 L 228.57142857142856 388 L 229.7142857142857 389.7142857142857 L 231.42857142857142 390.8571428571429 L 233.42857142857142 391.2857142857143 Z" fill="none" stroke="#f2eda1" stroke-width="1.4285714285714288" stroke-linecap="round" stroke-linejoin="round" data-pcb-component-id="null" data-pcb-silkscreen-path-id="pcb_silkscreen_path_11" data-type="pcb_silkscreen_path" data-pcb-layer="top"/><path class="pcb-silkscreen pcb-silkscreen-top" d="M 206.71428571428572 387 L 206.71428571428572 372.2857142857143 L 216.7142857142857 372.2857142857143 L 216.7142857142857 399.42857142857144 L 206.71428571428572 399.42857142857144 L 206.71428571428572 396.2857142857143 L 204.57142857142856 398.42857142857144 L 201.71428571428572 399.8571428571429 L 199.28571428571428 400.1428571428571 L 196.7142857142857 399.8571428571429 L 193.7142857142857 398.42857142857144 L 191.57142857142856 395.8571428571429 L 189 398.57142857142856 L 185.57142857142856 400 L 183.14285714285714 400.1428571428571 L 179 399.42857142857144 L 176 397.2857142857143 L 174.28571428571428 394.1428571428571 L 173.57142857142856 389.7142857142857 L 173.57142857142856 372.2857142857143 L 183.57142857142856 372.2857142857143 L 183.57142857142856 387.1428571428571 L 184.14285714285714 389.42857142857144 L 185.42857142857142 390.8571428571429 L 186.85714285714283 391.14285714285717 L 188.14285714285714 390.8571428571429 L 189.57142857142856 389.42857142857144 L 190.1428571428571 387 L 190.1428571428571 372.2857142857143 L 200.14285714285714 372.2857142857143 L 200.14285714285714 387.1428571428571 L 200.57142857142856 389.42857142857144 L 202 390.8571428571429 L 203.28571428571428 391.14285714285717 L 204.7142857142857 390.8571428571429 L 206.14285714285714 389.42857142857144 L 206.71428571428572 387 Z" fill="none" stroke="#f2eda1" stroke-width="1.4285714285714288" stroke-linecap="round" stroke-linejoin="round" data-pcb-component-id="null" data-pcb-silkscreen-path-id="pcb_silkscreen_path_12" data-type="pcb_silkscreen_path" data-pcb-layer="top"/><g data-type="pcb_plated_hole" data-pcb-layer="through"><circle class="pcb-hole-outer" fill="rgb(200, 52, 52)" cx="381.85714285714283" cy="442.8571428571429" r="12.857142857142858" data-type="pcb_plated_hole" data-pcb-layer="top"/><circle class="pcb-hole-inner" fill="#FF26E2" cx="381.85714285714283" cy="442.8571428571429" r="7.142857142857143" data-type="pcb_plated_hole_drill" data-pcb-layer="drill"/></g><g data-type="pcb_plated_hole" data-pcb-layer="through"><circle class="pcb-hole-outer" fill="rgb(200, 52, 52)" cx="418.14285714285717" cy="442.8571428571429" r="12.857142857142858" data-type="pcb_plated_hole" data-pcb-layer="top"/><circle class="pcb-hole-inner" fill="#FF26E2" cx="418.14285714285717" cy="442.8571428571429" r="7.142857142857143" data-type="pcb_plated_hole_drill" data-pcb-layer="drill"/></g><g data-type="pcb_via" data-pcb-layer="through"><circle class="pcb-hole-outer" fill="rgb(200, 52, 52)" cx="457.14285714285717" cy="420" r="2.142857142857143" data-type="pcb_via" data-pcb-layer="top"/><circle class="pcb-hole-inner" fill="#FF26E2" cx="457.14285714285717" cy="420" r="1.4285714285714288" data-type="pcb_via" data-pcb-layer="drill"/></g><g data-type="pcb_via" data-pcb-layer="through"><circle class="pcb-hole-outer" fill="rgb(200, 52, 52)" cx="536.875" cy="430.71428571428567" r="2.142857142857143" data-type="pcb_via" data-pcb-layer="top"/><circle class="pcb-hole-inner" fill="#FF26E2" cx="536.875" cy="430.71428571428567" r="1.4285714285714288" data-type="pcb_via" data-pcb-layer="drill"/></g><g data-type="pcb_via" data-pcb-layer="through"><circle class="pcb-hole-outer" fill="rgb(200, 52, 52)" cx="428.57142857142856" cy="420" r="2.142857142857143" data-type="pcb_via" data-pcb-layer="top"/><circle class="pcb-hole-inner" fill="#FF26E2" cx="428.57142857142856" cy="420" r="1.4285714285714288" data-type="pcb_via" data-pcb-layer="drill"/></g><g data-type="pcb_via" data-pcb-layer="through"><circle class="pcb-hole-outer" fill="rgb(200, 52, 52)" cx="417.14285714285717" cy="328.5714285714286" r="2.142857142857143" data-type="pcb_via" data-pcb-layer="top"/><circle class="pcb-hole-inner" fill="#FF26E2" cx="417.14285714285717" cy="328.5714285714286" r="1.4285714285714288" data-type="pcb_via" data-pcb-layer="drill"/></g><g data-type="pcb_via" data-pcb-layer="through"><circle class="pcb-hole-outer" fill="rgb(200, 52, 52)" cx="357.82142857142856" cy="257.85714285714283" r="2.142857142857143" data-type="pcb_via" data-pcb-layer="top"/><circle class="pcb-hole-inner" fill="#FF26E2" cx="357.82142857142856" cy="257.85714285714283" r="1.4285714285714288" data-type="pcb_via" data-pcb-layer="drill"/></g><g data-type="pcb_via" data-pcb-layer="through"><circle class="pcb-hole-outer" fill="rgb(200, 52, 52)" cx="571.4285714285714" cy="380" r="2.142857142857143" data-type="pcb_via" data-pcb-layer="top"/><circle class="pcb-hole-inner" fill="#FF26E2" cx="571.4285714285714" cy="380" r="1.4285714285714288" data-type="pcb_via" data-pcb-layer="drill"/></g><circle class="pcb-hole" cx="400" cy="528.5714285714286" r="17.857142857142858" fill="#FF26E2" data-type="pcb_hole" data-pcb-layer="drill"/></svg>