<svg xmlns="http://www.w3.org/2000/svg" width="800" height="600" data-software-used-string="@tscircuit/core@0.0.1112"><style></style><rect class="boundary" x="0" y="0" fill="#000" width="800" height="600" data-type="pcb_background" data-pcb-layer="global"/><rect class="pcb-boundary" fill="none" stroke="#fff" stroke-width="0.3" x="99.39879759519039" y="13.360053440213733" width="601.2024048096191" height="573.2798931195725" data-type="pcb_boundary" data-pcb-layer="global"/><path class="pcb-board" d="M 400 586.6399465597863 L 420.04008016032066 579.9599198396793 L 430.72812291249164 570.6078824315298 L 437.4081496325985 557.2478289913159 L 440.0801603206413 539.8797595190381 L 440.0801603206413 519.8396793587174 L 437.54175016700066 506.74682698730794 L 461.0554442217769 528.1229124916499 L 490.0467601870407 544.9565798263193 L 523.4468937875752 554.8430193720775 L 559.1182364729459 556.312625250501 L 595.1903807615231 548.8309953239814 L 629.2585170340682 532.6653306613226 L 658.5170340681364 508.88443553774215 L 681.2291249164997 478.9579158316633 L 695.6579826319305 444.6225784903139 L 700.6012024048096 407.8824315297261 L 695.6579826319305 370.34068136272543 L 681.2291249164997 333.19973279893117 L 658.5170340681364 297.12758851035403 L 629.2585170340682 262.52505010020036 L 595.1903807615231 229.52571810287242 L 559.1182364729459 197.72879091516367 L 523.4468937875752 167.13426853707412 L 490.0467601870407 137.74215096860388 L 461.0554442217769 109.81963927855708 L 437.54175016700066 83.63393453573815 L 420.3072812291249 60.38744154976615 L 408.8176352705411 40.88176352705409 L 402.67201068804275 26.052104208416836 L 400.4008016032064 16.566466265865017 L 400 13.360053440213733 L 399.5991983967936 16.566466265865017 L 397.32798931195725 26.052104208416836 L 391.1823647294589 40.88176352705409 L 379.6927187708751 60.38744154976615 L 362.45824983299934 83.63393453573815 L 338.9445557782231 109.81963927855708 L 309.9532398129593 137.74215096860388 L 276.55310621242484 167.13426853707412 L 240.8817635270541 197.72879091516367 L 204.80961923847696 229.52571810287242 L 170.74148296593185 262.52505010020036 L 141.4829659318637 297.12758851035403 L 118.7708750835003 333.19973279893117 L 104.34201736806949 370.34068136272543 L 99.39879759519039 407.8824315297261 L 104.34201736806949 444.6225784903139 L 118.7708750835003 478.9579158316633 L 141.4829659318637 508.88443553774215 L 170.74148296593185 532.6653306613226 L 204.80961923847696 548.8309953239814 L 240.8817635270541 556.312625250501 L 276.55310621242484 554.8430193720775 L 309.9532398129593 544.9565798263193 L 338.9445557782231 528.1229124916499 L 362.45824983299934 506.74682698730794 L 359.9198396793587 519.8396793587174 L 359.9198396793587 539.8797595190381 L 362.5918503674015 557.2478289913159 L 369.27187708750836 570.6078824315298 L 379.95991983967934 579.9599198396793 Z" fill="none" stroke="rgba(255, 255, 255, 0.5)" stroke-width="1.3360053440213762" data-type="pcb_board" data-pcb-layer="board"/><path class="pcb-trace" stroke="rgb(77, 127, 196)" fill="none" d="M 394.6559786239145 348.8309953239813 L 394.6559786239145 348.8309953239813" stroke-width="2.004008016032064" stroke-linecap="round" stroke-linejoin="round" shape-rendering="crispEdges" data-type="pcb_trace" data-pcb-layer="bottom"/><path class="pcb-trace" stroke="rgb(77, 127, 196)" fill="none" d="M 394.6559786239145 348.8309953239813 L 394.6559786239145 179.5741665121084" stroke-width="2.004008016032064" stroke-linecap="round" stroke-linejoin="round" shape-rendering="crispEdges" data-type="pcb_trace" data-pcb-layer="bottom"/><path class="pcb-trace" stroke="rgb(77, 127, 196)" fill="none" d="M 394.6559786239145 179.5741665121084 L 399.7720808934246 174.45806424259834" stroke-width="2.004008016032064" stroke-linecap="round" stroke-linejoin="round" shape-rendering="crispEdges" data-type="pcb_trace" data-pcb-layer="bottom"/><path class="pcb-trace" stroke="rgb(77, 127, 196)" fill="none" d="M 399.7720808934246 174.45806424259834 L 400 172.4782899131596" stroke-width="2.004008016032064" stroke-linecap="round" stroke-linejoin="round" shape-rendering="crispEdges" data-type="pcb_trace" data-pcb-layer="bottom"/><path class="pcb-trace" stroke="rgb(77, 127, 196)" fill="none" d="M 400 172.4782899131596 L 400 172.4782899131596" stroke-width="2.004008016032064" stroke-linecap="round" stroke-linejoin="round" shape-rendering="crispEdges" data-type="pcb_trace" data-pcb-layer="bottom"/><path class="pcb-silkscreen pcb-silkscreen-bottom" d="M 169.8062792251169 492.184368737475 L 159.5190380761523 466.9338677354709 L 169.4054776219105 466.9338677354709 L 174.34869739478955 480.9619238476954 L 179.29191716766866 466.9338677354709 L 188.77755511022042 466.9338677354709 L 178.49031396125585 492.184368737475 L 169.8062792251169 492.184368737475 Z" fill="none" stroke="#5da9e9" stroke-width="1.3360053440213762" stroke-linecap="round" stroke-linejoin="round" data-pcb-component-id="null" data-pcb-silkscreen-path-id="pcb_silkscreen_path_6" data-type="pcb_silkscreen_path" data-pcb-layer="bottom"/><path class="pcb-silkscreen pcb-silkscreen-bottom" d="M 199.73279893119573 492.184368737475 L 190.51436205744824 492.184368737475 L 190.51436205744824 466.9338677354709 L 199.73279893119573 466.9338677354709 L 199.73279893119573 492.184368737475 Z" fill="none" stroke="#5da9e9" stroke-width="1.3360053440213762" stroke-linecap="round" stroke-linejoin="round" data-pcb-component-id="null" data-pcb-silkscreen-path-id="pcb_silkscreen_path_7" data-type="pcb_silkscreen_path" data-pcb-layer="bottom"/><path class="pcb-silkscreen pcb-silkscreen-bottom" d="M 225.38410153640615 466.9338677354709 L 225.38410153640615 472.67869071476287 L 214.562458249833 484.8363393453574 L 225.51770207080827 484.8363393453574 L 225.51770207080827 492.184368737475 L 202.27120908483633 492.184368737475 L 202.27120908483633 486.3059452237809 L 213.0928523714095 474.28189712758854 L 202.93921175684702 474.28189712758854 L 202.93921175684702 466.9338677354709 L 225.38410153640615 466.9338677354709 Z" fill="none" stroke="#5da9e9" stroke-width="1.3360053440213762" stroke-linecap="round" stroke-linejoin="round" data-pcb-component-id="null" data-pcb-silkscreen-path-id="pcb_silkscreen_path_8" data-type="pcb_silkscreen_path" data-pcb-layer="bottom"/><path class="pcb-silkscreen pcb-silkscreen-bottom" d="M 226.3193052772211 479.4923179692719 L 226.58650634602537 476.82030728122913 L 227.25450901803606 474.1482965931864 L 228.4569138276553 471.87708750835003 L 230.19372077488308 470.0066800267201 L 232.19772879091516 468.40347361389445 L 234.4689378757515 467.2010688042752 L 237.14094856379427 466.3994655978624 L 240.08016032064128 466.13226452905815 L 242.3513694054776 466.3994655978624 L 244.62257849031394 466.9338677354709 L 245.95858383433534 467.4682698730795 L 245.95858383433534 475.8851035404142 L 244.35537742150967 475.0835003340013 L 242.6185704742819 474.5490981963928 L 241.41616566466266 474.5490981963928 L 239.14495657982633 474.8162992651971 L 237.40814963259854 475.8851035404142 L 236.20574482297928 477.4883099532398 L 235.67134268537072 479.4923179692719 L 236.20574482297928 481.6299265197061 L 237.2745490981964 483.2331329325317 L 239.14495657982633 484.30193720774884 L 241.41616566466266 484.5691382765531 L 242.6185704742819 484.5691382765531 L 244.35537742150967 484.0347361389446 L 245.95858383433534 483.09953239812955 L 245.95858383433534 491.51636606546424 L 243.687374749499 492.4515698062792 L 241.41616566466266 492.8523714094856 L 239.94655978623913 492.8523714094856 L 237.14094856379427 492.71877087508346 L 234.4689378757515 491.9171676686707 L 232.19772879091516 490.8483633934536 L 230.19372077488308 489.24515698062794 L 228.59051436205743 487.37474949899797 L 227.3881095524382 485.10354041416167 L 226.58650634602537 482.4315297261189 L 226.3193052772211 479.4923179692719 Z" fill="none" stroke="#5da9e9" stroke-width="1.3360053440213762" stroke-linecap="round" stroke-linejoin="round" data-pcb-component-id="null" data-pcb-silkscreen-path-id="pcb_silkscreen_path_9" data-type="pcb_silkscreen_path" data-pcb-layer="bottom"/><path class="pcb-silkscreen pcb-silkscreen-bottom" d="M 261.85704742818973 466.13226452905815 L 264.6626586506346 466.3994655978624 L 267.3346693386774 467.2010688042752 L 269.7394789579158 468.40347361389445 L 271.87708750835003 470.0066800267201 L 273.6138944555778 472.0106880427522 L 274.816299265197 474.28189712758854 L 275.6179024716099 476.82030728122913 L 275.88510354041415 479.4923179692719 L 275.6179024716099 482.2979291917168 L 274.816299265197 484.8363393453574 L 273.6138944555778 487.10754843019373 L 271.87708750835003 489.1115564462258 L 269.7394789579158 490.71476285905146 L 267.3346693386774 491.9171676686707 L 264.6626586506346 492.71877087508346 L 261.85704742818973 492.8523714094856 L 258.9178356713427 492.71877087508346 L 256.24582498329994 491.9171676686707 L 253.84101536406146 490.71476285905146 L 251.70340681362725 489.1115564462258 L 249.96659986639946 487.10754843019373 L 248.7641950567802 484.8363393453574 L 247.96259185036737 482.2979291917168 L 247.6953907815631 479.4923179692719 L 247.96259185036737 476.82030728122913 L 248.7641950567802 474.28189712758854 L 249.96659986639946 472.0106880427522 L 251.70340681362725 470.0066800267201 L 253.84101536406146 468.40347361389445 L 256.24582498329994 467.2010688042752 L 258.9178356713427 466.3994655978624 L 261.85704742818973 466.13226452905815 Z" fill="none" stroke="#5da9e9" stroke-width="1.3360053440213762" stroke-linecap="round" stroke-linejoin="round" data-pcb-component-id="null" data-pcb-silkscreen-path-id="pcb_silkscreen_path_10" data-type="pcb_silkscreen_path" data-pcb-layer="bottom"/><path class="pcb-silkscreen pcb-silkscreen-bottom" d="M 261.85704742818973 474.5490981963928 L 259.8530394121576 474.94989979959917 L 258.249832999332 476.0187040748163 L 257.18102872411487 477.6219104876419 L 256.7802271209085 479.4923179692719 L 257.18102872411487 481.49632598530394 L 258.249832999332 483.09953239812955 L 259.8530394121576 484.1683366733467 L 261.85704742818973 484.5691382765531 L 263.72745490981964 484.1683366733467 L 265.33066132264526 483.09953239812955 L 266.3994655978624 481.49632598530394 L 266.8002672010688 479.4923179692719 L 266.3994655978624 477.6219104876419 L 265.33066132264526 476.0187040748163 L 263.72745490981964 474.94989979959917 L 261.85704742818973 474.5490981963928 Z" fill="none" stroke="#5da9e9" stroke-width="1.3360053440213762" stroke-linecap="round" stroke-linejoin="round" data-pcb-component-id="null" data-pcb-silkscreen-path-id="pcb_silkscreen_path_11" data-type="pcb_silkscreen_path" data-pcb-layer="bottom"/><path class="pcb-silkscreen pcb-silkscreen-bottom" d="M 286.84034736138943 478.55711422845695 L 286.84034736138943 492.3179692718771 L 277.4883099532398 492.3179692718771 L 277.4883099532398 466.9338677354709 L 286.84034736138943 466.9338677354709 L 286.84034736138943 469.87307949231797 L 288.8443553774215 467.86907147628585 L 291.51636606546424 466.53306613226454 L 293.7875751503006 466.26586506346024 L 296.1923847695391 466.53306613226454 L 298.997995991984 467.86907147628585 L 301.002004008016 470.27388109552436 L 303.4068136272545 467.73547094188376 L 306.6132264529058 466.3994655978624 L 308.88443553774215 466.26586506346024 L 312.7588510354041 466.9338677354709 L 315.564462257849 468.937875751503 L 317.1676686706747 471.87708750835003 L 317.8356713426854 476.0187040748163 L 317.8356713426854 492.3179692718771 L 308.48363393453576 492.3179692718771 L 308.48363393453576 478.4235136940548 L 307.94923179692717 476.28590514362054 L 306.74682698730794 474.94989979959917 L 305.41082164328657 474.68269873079487 L 304.20841683366734 474.94989979959917 L 302.87241148964597 476.28590514362054 L 302.33800935203743 478.55711422845695 L 302.33800935203743 492.3179692718771 L 292.98597194388776 492.3179692718771 L 292.98597194388776 478.4235136940548 L 292.5851703406814 476.28590514362054 L 291.24916499665994 474.94989979959917 L 290.0467601870407 474.68269873079487 L 288.71075484301934 474.94989979959917 L 287.37474949899797 476.28590514362054 L 286.84034736138943 478.55711422845695 Z" fill="none" stroke="#5da9e9" stroke-width="1.3360053440213762" stroke-linecap="round" stroke-linejoin="round" data-pcb-component-id="null" data-pcb-silkscreen-path-id="pcb_silkscreen_path_12" data-type="pcb_silkscreen_path" data-pcb-layer="bottom"/><path class="pcb-silkscreen pcb-silkscreen-bottom" d="M 563.6606546426185 503.13961255845027 L 587.0407481629927 503.13961255845027 L 587.0407481629927 479.7595190380762 L 563.6606546426185 479.7595190380762 L 563.6606546426185 503.13961255845027 Z" fill="none" stroke="#5da9e9" stroke-width="1.3360053440213762" stroke-linecap="round" stroke-linejoin="round" data-pcb-component-id="null" data-pcb-silkscreen-path-id="pcb_silkscreen_path_13" data-type="pcb_silkscreen_path" data-pcb-layer="bottom"/><path class="pcb-silkscreen pcb-silkscreen-bottom" d="M 575.4175016700067 491.3827655310621 L 598.7975951903808 491.3827655310621 L 598.7975951903808 468.002672010688 L 575.4175016700067 468.002672010688 L 575.4175016700067 491.3827655310621 Z" fill="none" stroke="#5da9e9" stroke-width="1.3360053440213762" stroke-linecap="round" stroke-linejoin="round" data-pcb-component-id="null" data-pcb-silkscreen-path-id="pcb_silkscreen_path_14" data-type="pcb_silkscreen_path" data-pcb-layer="bottom"/><path class="pcb-silkscreen pcb-silkscreen-bottom" d="M 587.0407481629927 479.7595190380762 L 610.4208416833667 479.7595190380762 L 610.4208416833667 456.3794255177021 L 587.0407481629927 456.3794255177021 L 587.0407481629927 479.7595190380762 Z" fill="none" stroke="#5da9e9" stroke-width="1.3360053440213762" stroke-linecap="round" stroke-linejoin="round" data-pcb-component-id="null" data-pcb-silkscreen-path-id="pcb_silkscreen_path_15" data-type="pcb_silkscreen_path" data-pcb-layer="bottom"/><path class="pcb-silkscreen pcb-silkscreen-bottom" d="M 575.4175016700067 491.3827655310621 L 587.0407481629927 479.7595190380762" fill="none" stroke="#5da9e9" stroke-width="1.3360053440213762" stroke-linecap="round" stroke-linejoin="round" data-pcb-component-id="null" data-pcb-silkscreen-path-id="pcb_silkscreen_path_16" data-type="pcb_silkscreen_path" data-pcb-layer="bottom"/><path class="pcb-silkscreen pcb-silkscreen-bottom" d="M 587.0407481629927 479.7595190380762 L 598.7975951903808 468.002672010688" fill="none" stroke="#5da9e9" stroke-width="1.3360053440213762" stroke-linecap="round" stroke-linejoin="round" data-pcb-component-id="null" data-pcb-silkscreen-path-id="pcb_silkscreen_path_17" data-type="pcb_silkscreen_path" data-pcb-layer="bottom"/><text x="0" y="0" dx="0" dy="0" fill="#5da9e9" font-family="Arial, sans-serif" font-size="13.360053440213761" text-anchor="middle" dominant-baseline="central" transform="matrix(-1,0,0,1,587.0407481629927,446.35938543754173)" class="pcb-silkscreen-text pcb-silkscreen-bottom" data-pcb-silkscreen-text-id="null" stroke="none" data-type="pcb_silkscreen_text" data-pcb-layer="bottom">Telemetron</text><rect class="pcb-pad" fill="rgb(200, 52, 52)" x="304.4756179024716" y="249.2985971943888" width="33.4001336005344" height="33.4001336005344" data-type="pcb_smtpad" data-pcb-layer="top"/><rect class="pcb-pad" fill="rgb(200, 52, 52)" x="462.12424849699397" y="249.2985971943888" width="33.4001336005344" height="33.4001336005344" data-type="pcb_smtpad" data-pcb-layer="top"/><rect class="pcb-pad" fill="rgb(200, 52, 52)" x="371.9438877755511" y="193.18637274549098" width="16.03206412825651" height="12.024048096192386" data-type="pcb_smtpad" data-pcb-layer="top"/><rect class="pcb-pad" fill="rgb(200, 52, 52)" x="391.98396793587176" y="193.18637274549098" width="16.03206412825651" height="12.024048096192386" data-type="pcb_smtpad" data-pcb-layer="top"/><rect class="pcb-pad" fill="rgb(200, 52, 52)" x="412.0240480961924" y="193.18637274549098" width="16.03206412825651" height="12.024048096192386" data-type="pcb_smtpad" data-pcb-layer="top"/><rect class="pcb-pad" fill="rgb(200, 52, 52)" x="383.63393453573815" y="152.77221108884436" width="10.68804275217101" height="12.692050768203073" data-type="pcb_smtpad" data-pcb-layer="top"/><rect class="pcb-pad" fill="rgb(200, 52, 52)" x="405.67802271209086" y="152.77221108884436" width="10.68804275217101" height="12.692050768203073" data-type="pcb_smtpad" data-pcb-layer="top"/><path class="pcb-trace" stroke="rgb(200, 52, 52)" fill="none" d="M 383.03273213092854 372.8790915163661 L 383.03273213092854 360.4542418169673" stroke-width="2.004008016032064" stroke-linecap="round" stroke-linejoin="round" shape-rendering="crispEdges" data-type="pcb_trace" data-pcb-layer="top"/><path class="pcb-trace" stroke="rgb(200, 52, 52)" fill="none" d="M 383.03273213092854 360.4542418169673 L 393.1400666519119 350.3469072959839" stroke-width="2.004008016032064" stroke-linecap="round" stroke-linejoin="round" shape-rendering="crispEdges" data-type="pcb_trace" data-pcb-layer="top"/><path class="pcb-trace" stroke="rgb(200, 52, 52)" fill="none" d="M 393.1400666519119 350.3469072959839 L 394.6559786239145 348.8309953239813" stroke-width="2.004008016032064" stroke-linecap="round" stroke-linejoin="round" shape-rendering="crispEdges" data-type="pcb_trace" data-pcb-layer="top"/><path class="pcb-trace" stroke="rgb(200, 52, 52)" fill="none" d="M 394.6559786239145 348.8309953239813 L 394.6559786239145 348.8309953239813" stroke-width="2.004008016032064" stroke-linecap="round" stroke-linejoin="round" shape-rendering="crispEdges" data-type="pcb_trace" data-pcb-layer="top"/><path class="pcb-trace" stroke="rgb(200, 52, 52)" fill="none" d="M 400 172.4782899131596 L 400 172.4782899131596" stroke-width="2.004008016032064" stroke-linecap="round" stroke-linejoin="round" shape-rendering="crispEdges" data-type="pcb_trace" data-pcb-layer="top"/><path class="pcb-trace" stroke="rgb(200, 52, 52)" fill="none" d="M 400 172.4782899131596 L 400 170.1402805611222" stroke-width="2.004008016032064" stroke-linecap="round" stroke-linejoin="round" shape-rendering="crispEdges" data-type="pcb_trace" data-pcb-layer="top"/><path class="pcb-trace" stroke="rgb(200, 52, 52)" fill="none" d="M 400 170.1402805611222 L 411.02204408817636 159.11823647294588" stroke-width="2.004008016032064" stroke-linecap="round" stroke-linejoin="round" shape-rendering="crispEdges" data-type="pcb_trace" data-pcb-layer="top"/><path class="pcb-trace" stroke="rgb(200, 52, 52)" fill="none" d="M 388.97795591182364 159.11823647294588 L 388.97795591182364 188.17635270541084" stroke-width="2.004008016032064" stroke-linecap="round" stroke-linejoin="round" shape-rendering="crispEdges" data-type="pcb_trace" data-pcb-layer="top"/><path class="pcb-trace" stroke="rgb(200, 52, 52)" fill="none" d="M 388.97795591182364 188.17635270541084 L 400 199.19839679358716" stroke-width="2.004008016032064" stroke-linecap="round" stroke-linejoin="round" shape-rendering="crispEdges" data-type="pcb_trace" data-pcb-layer="top"/><path class="pcb-trace" stroke="rgb(200, 52, 52)" fill="none" d="M 416.96726786907146 372.8790915163661 L 416.96726786907146 327.8557114228457" stroke-width="2.004008016032064" stroke-linecap="round" stroke-linejoin="round" shape-rendering="crispEdges" data-type="pcb_trace" data-pcb-layer="top"/><path class="pcb-trace" stroke="rgb(200, 52, 52)" fill="none" d="M 416.96726786907146 327.8557114228457 L 478.8243152972612 265.998663994656" stroke-width="2.004008016032064" stroke-linecap="round" stroke-linejoin="round" shape-rendering="crispEdges" data-type="pcb_trace" data-pcb-layer="top"/><path class="pcb-trace" stroke="rgb(200, 52, 52)" fill="none" d="M 379.95991983967934 199.19839679358716 L 379.95991983967934 207.2144288577154" stroke-width="2.004008016032064" stroke-linecap="round" stroke-linejoin="round" shape-rendering="crispEdges" data-type="pcb_trace" data-pcb-layer="top"/><path class="pcb-trace" stroke="rgb(200, 52, 52)" fill="none" d="M 379.95991983967934 207.2144288577154 L 321.1756847027388 265.998663994656" stroke-width="2.004008016032064" stroke-linecap="round" stroke-linejoin="round" shape-rendering="crispEdges" data-type="pcb_trace" data-pcb-layer="top"/><path class="pcb-silkscreen pcb-silkscreen-top" d="M 321.1756847027388 292.71877087508346 L 321.1756847027388 239.27855711422845" fill="none" stroke="#f2eda1" stroke-width="1.3360053440213762" stroke-linecap="round" stroke-linejoin="round" data-pcb-component-id="pcb_component_0" data-pcb-silkscreen-path-id="pcb_silkscreen_path_0" data-type="pcb_silkscreen_path" data-pcb-layer="top"/><path class="pcb-silkscreen pcb-silkscreen-top" d="M 313.15965263861057 265.998663994656 L 329.1917167668671 265.998663994656" fill="none" stroke="#f2eda1" stroke-width="1.3360053440213762" stroke-linecap="round" stroke-linejoin="round" data-pcb-component-id="pcb_component_0" data-pcb-silkscreen-path-id="pcb_silkscreen_path_1" data-type="pcb_silkscreen_path" data-pcb-layer="top"/><text x="0" y="0" dx="0" dy="0" fill="#f2eda1" font-family="Arial, sans-serif" font-size="13.360053440213761" text-anchor="middle" dominant-baseline="central" transform="matrix(1,0,0,1,321.1756847027388,306.07882431529725)" class="pcb-silkscreen-text pcb-silkscreen-top" data-pcb-silkscreen-text-id="pcb_component_0" stroke="none" data-type="pcb_silkscreen_text" data-pcb-layer="top">+</text><text x="0" y="0" dx="0" dy="0" fill="#f2eda1" font-family="Arial, sans-serif" font-size="13.360053440213761" text-anchor="middle" dominant-baseline="central" transform="matrix(1,0,0,1,478.8243152972612,306.07882431529725)" class="pcb-silkscreen-text pcb-silkscreen-top" data-pcb-silkscreen-text-id="pcb_component_0" stroke="none" data-type="pcb_silkscreen_text" data-pcb-layer="top">-</text><path class="pcb-silkscreen pcb-silkscreen-top" d="M 366.5998663994656 219.23847695390782 L 433.4001336005344 219.23847695390782 L 433.4001336005344 179.1583166332665 L 366.5998663994656 179.1583166332665 L 366.5998663994656 219.23847695390782 Z" fill="none" stroke="#f2eda1" stroke-width="1.3360053440213762" stroke-linecap="round" stroke-linejoin="round" data-pcb-component-id="pcb_component_1" data-pcb-silkscreen-path-id="pcb_silkscreen_path_2" data-type="pcb_silkscreen_path" data-pcb-layer="top"/><path class="pcb-silkscreen pcb-silkscreen-top" d="M 411.02204408817636 147.42818971275884 L 380.9619238476954 147.42818971275884 L 380.9619238476954 170.80828323313293 L 411.02204408817636 170.80828323313293" fill="none" stroke="#f2eda1" stroke-width="1.3360053440213762" stroke-linecap="round" stroke-linejoin="round" data-pcb-component-id="pcb_component_2" data-pcb-silkscreen-path-id="pcb_silkscreen_path_3" data-type="pcb_silkscreen_path" data-pcb-layer="top"/><text x="0" y="0" dx="0" dy="0" fill="#f2eda1" font-family="Arial, sans-serif" font-size="5.344021376085505" text-anchor="middle" dominant-baseline="central" transform="matrix(1,0,0,1,400,140.74816299265197)" class="pcb-silkscreen-text pcb-silkscreen-top" data-pcb-silkscreen-text-id="pcb_component_2" stroke="none" data-type="pcb_silkscreen_text" data-pcb-layer="top">R1</text><path class="pcb-silkscreen pcb-silkscreen-top" d="M 447.0273881095524 372.8790915163661 L 440.74816299265194 349.36539746158985 L 423.51369405477624 332.1309285237141 L 400 325.8517034068136 L 376.48630594522376 332.1309285237141 L 359.25183700734806 349.36539746158985 L 352.9726118904476 372.8790915163661 L 359.25183700734806 396.39278557114227 L 376.48630594522376 413.62725450901803 L 400 419.9064796259185 L 423.51369405477624 413.62725450901803 L 440.74816299265194 396.39278557114227 L 447.0273881095524 372.8790915163661 Z" fill="none" stroke="#f2eda1" stroke-width="1.3360053440213762" stroke-linecap="round" stroke-linejoin="round" data-pcb-component-id="pcb_component_3" data-pcb-silkscreen-path-id="pcb_silkscreen_path_4" data-type="pcb_silkscreen_path" data-pcb-layer="top"/><path class="pcb-silkscreen pcb-silkscreen-top" d="M 433.80093520374083 404.80961923847696 L 433.80093520374083 340.94856379425516" fill="none" stroke="#f2eda1" stroke-width="1.3360053440213762" stroke-linecap="round" stroke-linejoin="round" data-pcb-component-id="pcb_component_3" data-pcb-silkscreen-path-id="pcb_silkscreen_path_5" data-type="pcb_silkscreen_path" data-pcb-layer="top"/><text x="0" y="0" dx="0" dy="0" fill="#f2eda1" font-family="Arial, sans-serif" font-size="10.68804275217101" text-anchor="middle" dominant-baseline="central" transform="matrix(1,0,0,1,383.03273213092854,399.59919839679355)" class="pcb-silkscreen-text pcb-silkscreen-top" data-pcb-silkscreen-text-id="pcb_component_3" stroke="none" data-type="pcb_silkscreen_text" data-pcb-layer="top">+</text><g data-type="pcb_plated_hole" data-pcb-layer="through"><circle class="pcb-hole-outer" fill="rgb(200, 52, 52)" cx="383.03273213092854" cy="372.8790915163661" r="12.024048096192386" data-type="pcb_plated_hole" data-pcb-layer="top"/><circle class="pcb-hole-inner" fill="#FF26E2" cx="383.03273213092854" cy="372.8790915163661" r="6.680026720106881" data-type="pcb_plated_hole_drill" data-pcb-layer="drill"/></g><g data-type="pcb_plated_hole" data-pcb-layer="through"><circle class="pcb-hole-outer" fill="rgb(200, 52, 52)" cx="416.96726786907146" cy="372.8790915163661" r="12.024048096192386" data-type="pcb_plated_hole" data-pcb-layer="top"/><circle class="pcb-hole-inner" fill="#FF26E2" cx="416.96726786907146" cy="372.8790915163661" r="6.680026720106881" data-type="pcb_plated_hole_drill" data-pcb-layer="drill"/></g><g data-type="pcb_via" data-pcb-layer="through"><circle class="pcb-hole-outer" fill="rgb(200, 52, 52)" cx="394.6559786239145" cy="348.8309953239813" r="2.004008016032064" data-type="pcb_via" data-pcb-layer="top"/><circle class="pcb-hole-inner" fill="#FF26E2" cx="394.6559786239145" cy="348.8309953239813" r="1.3360053440213762" data-type="pcb_via" data-pcb-layer="drill"/></g><g data-type="pcb_via" data-pcb-layer="through"><circle class="pcb-hole-outer" fill="rgb(200, 52, 52)" cx="400" cy="172.4782899131596" r="2.004008016032064" data-type="pcb_via" data-pcb-layer="top"/><circle class="pcb-hole-inner" fill="#FF26E2" cx="400" cy="172.4782899131596" r="1.3360053440213762" data-type="pcb_via" data-pcb-layer="drill"/></g><circle class="pcb-hole" cx="400" cy="546.559786239145" r="16.7000668002672" fill="#FF26E2" data-type="pcb_hole" data-pcb-layer="drill"/></svg>