<svg xmlns="http://www.w3.org/2000/svg" width="800" height="600" data-software-used-string="@tscircuit/core@0.0.1112"><style></style><rect class="boundary" x="0" y="0" fill="#000" width="800" height="600" data-type="pcb_background" data-pcb-layer="global"/><rect class="pcb-boundary" fill="none" stroke="#fff" stroke-width="0.3" x="81.85483870967738" y="13.44086021505376" width="636.2903225806454" height="573.1182795698924" data-type="pcb_boundary" data-pcb-layer="global"/><path class="pcb-board" d="M 346.63978494623655 547.3118279569892 L 349.19354838709677 553.8978494623656 L 352.5537634408602 560.0806451612904 L 356.7204301075269 565.8602150537635 L 361.4247311827957 571.1021505376344 L 366.93548387096774 575.6720430107528 L 372.8494623655914 579.4354838709678 L 379.3010752688172 582.5268817204301 L 386.02150537634407 584.6774193548388 L 392.8763440860215 586.0215053763441 L 400 586.5591397849462 L 407.1236559139785 586.0215053763441 L 413.97849462365593 584.6774193548388 L 420.6989247311828 582.5268817204301 L 427.1505376344086 579.4354838709678 L 433.06451612903226 575.6720430107528 L 438.5752688172043 571.1021505376344 L 443.2795698924731 565.8602150537635 L 447.4462365591398 560.0806451612904 L 450.80645161290323 553.8978494623656 L 453.36021505376345 547.3118279569892 L 454.0322580645161 545.2956989247311 L 454.8387096774194 543.4139784946236 L 455.9139784946237 541.5322580645161 L 456.98924731182797 539.7849462365591 L 458.3333333333333 538.0376344086021 L 459.81182795698925 536.4247311827958 L 461.2903225806452 535.0806451612902 L 462.9032258064516 533.736559139785 L 464.6505376344086 532.5268817204301 L 466.5322580645161 531.4516129032259 L 468.4139784946237 530.510752688172 L 470.4301075268817 529.8387096774194 L 472.4462365591398 529.1666666666667 L 474.5967741935484 528.763440860215 L 476.61290322580646 528.494623655914 L 478.76344086021504 528.3602150537635 L 480.9139784946236 528.494623655914 L 483.06451612903226 528.763440860215 L 485.0806451612903 529.1666666666667 L 487.0967741935484 529.7043010752689 L 502.1505376344086 533.736559139785 L 517.4731182795699 536.5591397849463 L 533.0645161290322 537.9032258064516 L 548.6559139784946 537.9032258064516 L 564.1129032258065 536.5591397849463 L 579.5698924731182 534.005376344086 L 594.6236559139785 529.9731182795699 L 609.2741935483871 524.5967741935484 L 623.3870967741935 518.010752688172 L 636.8279569892474 510.2150537634409 L 649.5967741935484 501.3440860215054 L 661.5591397849462 491.39784946236557 L 672.5806451612904 480.3763440860215 L 682.6612903225807 468.4139784946236 L 691.6666666666667 455.64516129032256 L 699.4623655913979 442.06989247311833 L 706.0483870967741 427.9569892473118 L 711.2903225806451 413.30645161290323 L 715.3225806451613 398.252688172043 L 718.010752688172 382.9301075268817 L 718.010752688172 382.9301075268817 L 718.1451612903227 377.9569892473118 L 717.8763440860215 368.01075268817203 L 717.4731182795699 363.0376344086022 L 716.9354838709678 358.06451612903226 L 716.1290322580645 352.9569892473118 L 715.1881720430108 347.98387096774195 L 714.247311827957 342.8763440860215 L 712.9032258064517 337.9032258064516 L 711.5591397849462 332.9301075268817 L 709.9462365591398 327.9569892473118 L 708.1989247311828 322.98387096774195 L 706.4516129032259 318.01075268817203 L 704.4354838709678 313.1720430107527 L 702.2849462365591 308.1989247311828 L 700 303.2258064516129 L 697.5806451612904 298.38709677419354 L 695.0268817204301 293.5483870967742 L 692.3387096774194 288.7096774193548 L 689.516129032258 283.8709677419355 L 686.4247311827958 279.0322580645161 L 683.3333333333333 274.19354838709677 L 680.1075268817204 269.48924731182797 L 676.8817204301076 264.6505376344086 L 673.3870967741935 259.9462365591398 L 666.263440860215 250.6720430107527 L 662.5 246.1021505376344 L 658.6021505376343 241.39784946236557 L 654.5698924731183 236.8279569892473 L 650.5376344086021 232.25806451612902 L 646.3709677419355 227.68817204301075 L 642.2043010752689 223.11827956989248 L 638.0376344086021 218.68279569892474 L 633.6021505376344 214.247311827957 L 629.1666666666667 209.81182795698925 L 624.5967741935484 205.3763440860215 L 619.8924731182796 200.94086021505376 L 615.3225806451612 196.7741935483871 L 573.6559139784946 159.4086021505376 L 572.4462365591398 158.33333333333334 L 562.7688172043011 150 L 558.0645161290322 145.96774193548384 L 553.2258064516129 141.80107526881721 L 548.3870967741935 137.63440860215053 L 543.6827956989248 133.73655913978496 L 538.8440860215054 129.56989247311827 L 534.2741935483871 125.53763440860214 L 529.5698924731183 121.63978494623655 L 525 117.60752688172042 L 520.4301075268818 113.57526881720432 L 515.994623655914 109.67741935483869 L 511.4247311827957 105.77956989247312 L 506.98924731182797 101.88172043010752 L 502.5537634408602 97.98387096774195 L 498.252688172043 94.08602150537632 L 494.0860215053764 90.32258064516128 L 489.9193548387097 86.42473118279568 L 485.752688172043 82.79569892473117 L 481.85483870967744 78.8978494623656 L 474.05913978494624 71.50537634408602 L 470.4301075268817 67.8763440860215 L 466.6666666666667 64.11290322580643 L 463.1720430107527 60.61827956989248 L 459.6774193548387 56.85483870967741 L 456.18279569892474 53.09139784946234 L 452.9569892473118 49.327956989247326 L 451.0752688172043 47.17741935483872 L 433.73655913978496 28.494623655913983 L 431.7204301075269 26.74731182795699 L 429.8387096774194 25.13440860215053 L 428.36021505376345 23.92473118279571 L 426.747311827957 22.715053763440835 L 425.13440860215053 21.639784946236546 L 423.7903225806452 20.564516129032256 L 422.4462365591398 19.758064516129025 L 421.23655913978496 18.951612903225794 L 420.0268817204301 18.27956989247309 L 419.0860215053763 17.876344086021504 L 418.14516129032256 17.47311827956986 L 417.2043010752688 17.069892473118273 L 416.26344086021504 16.801075268817215 L 415.18817204301075 16.39784946236557 L 414.11290322580646 15.860215053763397 L 413.0376344086022 15.59139784946234 L 411.9623655913978 15.322580645161281 L 410.88709677419354 15.053763440860223 L 409.81182795698925 14.784946236559165 L 408.8709677419355 14.650537634408579 L 407.66129032258067 14.38172043010752 L 406.7204301075269 14.247311827956935 L 405.64516129032256 14.112903225806463 L 403.36021505376345 13.844086021505404 L 402.4193548387097 13.57526881720429 L 401.3440860215054 13.57526881720429 L 400.26881720430106 13.44086021505376 L 400.26881720430106 13.44086021505376 L 400.26881720430106 13.44086021505376 L 400.26881720430106 13.44086021505376 L 400.13440860215053 13.44086021505376 L 400.13440860215053 13.44086021505376 L 400.13440860215053 13.44086021505376 L 400.13440860215053 13.44086021505376 L 400 13.44086021505376 L 400 13.44086021505376 L 400 13.44086021505376 L 400 13.44086021505376 L 400 13.44086021505376 L 399.86559139784947 13.44086021505376 L 399.86559139784947 13.44086021505376 L 399.86559139784947 13.44086021505376 L 399.86559139784947 13.44086021505376 L 399.73118279569894 13.44086021505376 L 399.73118279569894 13.44086021505376 L 399.73118279569894 13.44086021505376 L 399.73118279569894 13.44086021505376 L 398.6559139784946 13.57526881720429 L 397.5806451612903 13.57526881720429 L 396.63978494623655 13.844086021505404 L 394.35483870967744 14.112903225806463 L 393.2795698924731 14.247311827956935 L 392.33870967741933 14.38172043010752 L 391.1290322580645 14.650537634408579 L 390.18817204301075 14.784946236559165 L 389.11290322580646 15.053763440860223 L 388.0376344086022 15.322580645161281 L 386.9623655913978 15.59139784946234 L 385.88709677419354 15.860215053763397 L 384.81182795698925 16.39784946236557 L 383.73655913978496 16.801075268817215 L 382.7956989247312 17.069892473118273 L 381.85483870967744 17.47311827956986 L 380.9139784946237 17.876344086021504 L 379.9731182795699 18.27956989247309 L 378.76344086021504 18.951612903225794 L 377.5537634408602 19.758064516129025 L 376.2096774193548 20.564516129032256 L 374.86559139784947 21.639784946236546 L 373.252688172043 22.715053763440835 L 371.63978494623655 23.92473118279571 L 370.1612903225806 25.13440860215053 L 368.2795698924731 26.74731182795699 L 366.26344086021504 28.494623655913983 L 348.9247311827957 47.17741935483872 L 347.0430107526882 49.327956989247326 L 343.81720430107526 53.09139784946234 L 340.3225806451613 56.85483870967741 L 336.8279569892473 60.61827956989248 L 333.3333333333333 64.11290322580643 L 329.5698924731183 67.8763440860215 L 325.94086021505376 71.50537634408602 L 318.14516129032256 78.8978494623656 L 314.247311827957 82.79569892473117 L 310.0806451612903 86.42473118279568 L 305.9139784946236 90.32258064516128 L 301.747311827957 94.08602150537632 L 297.4462365591398 97.98387096774195 L 293.01075268817203 101.88172043010752 L 288.5752688172043 105.77956989247312 L 284.005376344086 109.67741935483869 L 279.5698924731183 113.57526881720432 L 275 117.60752688172042 L 270.43010752688167 121.63978494623655 L 265.7258064516129 125.53763440860214 L 261.1559139784946 129.56989247311827 L 256.31720430107526 133.73655913978496 L 251.61290322580646 137.63440860215053 L 246.77419354838707 141.80107526881721 L 241.93548387096774 145.96774193548384 L 237.2311827956989 150 L 227.5537634408602 158.33333333333334 L 226.34408602150538 159.4086021505376 L 184.67741935483872 196.7741935483871 L 180.10752688172042 200.94086021505376 L 175.4032258064516 205.3763440860215 L 170.83333333333331 209.81182795698925 L 166.3978494623656 214.247311827957 L 161.96236559139783 218.68279569892474 L 157.79569892473117 223.11827956989248 L 153.62903225806454 227.68817204301075 L 149.46236559139783 232.25806451612902 L 145.4301075268817 236.8279569892473 L 141.39784946236563 241.39784946236557 L 137.5 246.1021505376344 L 133.73655913978496 250.6720430107527 L 126.61290322580646 259.9462365591398 L 123.11827956989242 264.6505376344086 L 119.89247311827955 269.48924731182797 L 116.66666666666669 274.19354838709677 L 113.57526881720429 279.0322580645161 L 110.48387096774195 283.8709677419355 L 107.66129032258061 288.7096774193548 L 104.97311827956992 293.5483870967742 L 102.41935483870964 298.38709677419354 L 100 303.2258064516129 L 97.71505376344089 308.1989247311828 L 95.56451612903226 313.1720430107527 L 93.54838709677415 318.01075268817203 L 91.80107526881721 322.98387096774195 L 90.05376344086022 327.9569892473118 L 88.44086021505376 332.9301075268817 L 87.09677419354836 337.9032258064516 L 85.75268817204301 342.8763440860215 L 84.81182795698925 347.98387096774195 L 83.87096774193549 352.9569892473118 L 83.06451612903226 358.06451612903226 L 82.52688172043008 363.0376344086022 L 82.1236559139785 368.01075268817203 L 81.85483870967738 377.9569892473118 L 81.98924731182797 382.9301075268817 L 81.98924731182797 382.9301075268817 L 84.67741935483866 398.252688172043 L 88.70967741935482 413.30645161290323 L 93.9516129032258 427.9569892473118 L 100.53763440860212 442.06989247311833 L 108.33333333333331 455.64516129032256 L 117.33870967741933 468.4139784946236 L 127.41935483870964 480.3763440860215 L 138.44086021505376 491.39784946236557 L 150.4032258064516 501.3440860215054 L 163.17204301075267 510.2150537634409 L 176.61290322580643 518.010752688172 L 190.7258064516129 524.5967741935484 L 205.3763440860215 529.9731182795699 L 220.43010752688173 534.005376344086 L 235.88709677419354 536.5591397849463 L 251.34408602150538 537.9032258064516 L 266.93548387096774 537.9032258064516 L 282.5268817204301 536.5591397849463 L 297.8494623655914 533.736559139785 L 312.9032258064516 529.7043010752689 L 314.9193548387097 529.1666666666667 L 316.93548387096774 528.763440860215 L 319.0860215053764 528.494623655914 L 321.23655913978496 528.3602150537635 L 323.38709677419354 528.494623655914 L 325.4032258064516 528.763440860215 L 327.5537634408602 529.1666666666667 L 329.5698924731183 529.8387096774194 L 331.5860215053763 530.510752688172 L 333.4677419354839 531.4516129032259 L 335.3494623655914 532.5268817204301 L 337.0967741935484 533.736559139785 L 338.7096774193548 535.0806451612902 L 340.18817204301075 536.4247311827958 L 341.6666666666667 538.0376344086021 L 343.01075268817203 539.7849462365591 L 344.0860215053763 541.5322580645161 L 345.1612903225806 543.4139784946236 L 345.9677419354839 545.2956989247311 Z" fill="none" stroke="rgba(255, 255, 255, 0.5)" stroke-width="1.3440860215053765" data-type="pcb_board" data-pcb-layer="board"/><path class="pcb-trace" stroke="rgb(77, 127, 196)" fill="none" d="M 382.9301075268817 434.4086021505376 L 398.45617992541816 418.88252975200123" stroke-width="2.0161290322580645" stroke-linecap="round" stroke-linejoin="round" shape-rendering="crispEdges" data-type="pcb_trace" data-pcb-layer="bottom"/><path class="pcb-trace" stroke="rgb(77, 127, 196)" fill="none" d="M 398.45617992541816 418.88252975200123 L 523.8175175649502 418.88252975200123" stroke-width="2.0161290322580645" stroke-linecap="round" stroke-linejoin="round" shape-rendering="crispEdges" data-type="pcb_trace" data-pcb-layer="bottom"/><path class="pcb-trace" stroke="rgb(77, 127, 196)" fill="none" d="M 523.8175175649502 418.88252975200123 L 523.8175175649502 418.88252975200123" stroke-width="2.0161290322580645" stroke-linecap="round" stroke-linejoin="round" shape-rendering="crispEdges" data-type="pcb_trace" data-pcb-layer="bottom"/><path class="pcb-trace" stroke="rgb(77, 127, 196)" fill="none" d="M 523.8175175649502 418.88252975200123 L 526.1915922474448 421.2566044344958" stroke-width="2.0161290322580645" stroke-linecap="round" stroke-linejoin="round" shape-rendering="crispEdges" data-type="pcb_trace" data-pcb-layer="bottom"/><path class="pcb-trace" stroke="rgb(77, 127, 196)" fill="none" d="M 526.1915922474448 421.2566044344958 L 528.7802419354839 422.98387096774195" stroke-width="2.0161290322580645" stroke-linecap="round" stroke-linejoin="round" shape-rendering="crispEdges" data-type="pcb_trace" data-pcb-layer="bottom"/><path class="pcb-trace" stroke="rgb(77, 127, 196)" fill="none" d="M 528.7802419354839 422.98387096774195 L 528.7802419354839 422.98387096774195" stroke-width="2.0161290322580645" stroke-linecap="round" stroke-linejoin="round" shape-rendering="crispEdges" data-type="pcb_trace" data-pcb-layer="bottom"/><path class="pcb-trace" stroke="rgb(77, 127, 196)" fill="none" d="M 413.44086021505376 303.4663271080928 L 434.0442840973401 303.4663271080928" stroke-width="2.0161290322580645" stroke-linecap="round" stroke-linejoin="round" shape-rendering="crispEdges" data-type="pcb_trace" data-pcb-layer="bottom"/><path class="pcb-trace" stroke="rgb(77, 127, 196)" fill="none" d="M 434.0442840973401 303.4663271080928 L 445.36290322580646 314.7849462365591" stroke-width="2.0161290322580645" stroke-linecap="round" stroke-linejoin="round" shape-rendering="crispEdges" data-type="pcb_trace" data-pcb-layer="bottom"/><path class="pcb-trace" stroke="rgb(77, 127, 196)" fill="none" d="M 360.31586021505376 260.3494623655914 L 360.31586021505376 260.3494623655914" stroke-width="2.0161290322580645" stroke-linecap="round" stroke-linejoin="round" shape-rendering="crispEdges" data-type="pcb_trace" data-pcb-layer="bottom"/><path class="pcb-trace" stroke="rgb(77, 127, 196)" fill="none" d="M 360.31586021505376 260.3494623655914 L 370.36290322580646 260.3494623655914" stroke-width="2.0161290322580645" stroke-linecap="round" stroke-linejoin="round" shape-rendering="crispEdges" data-type="pcb_trace" data-pcb-layer="bottom"/><path class="pcb-trace" stroke="rgb(77, 127, 196)" fill="none" d="M 370.36290322580646 260.3494623655914 L 413.44086021505376 303.4274193548387" stroke-width="2.0161290322580645" stroke-linecap="round" stroke-linejoin="round" shape-rendering="crispEdges" data-type="pcb_trace" data-pcb-layer="bottom"/><path class="pcb-trace" stroke="rgb(77, 127, 196)" fill="none" d="M 561.2903225806451 375.26881720430106 L 561.2903225806451 375.26881720430106" stroke-width="2.0161290322580645" stroke-linecap="round" stroke-linejoin="round" shape-rendering="crispEdges" data-type="pcb_trace" data-pcb-layer="bottom"/><path class="pcb-trace" stroke="rgb(77, 127, 196)" fill="none" d="M 561.2903225806451 375.26881720430106 L 505.8467741935484 375.26881720430106" stroke-width="2.0161290322580645" stroke-linecap="round" stroke-linejoin="round" shape-rendering="crispEdges" data-type="pcb_trace" data-pcb-layer="bottom"/><path class="pcb-trace" stroke="rgb(77, 127, 196)" fill="none" d="M 505.8467741935484 375.26881720430106 L 445.36290322580646 314.7849462365591" stroke-width="2.0161290322580645" stroke-linecap="round" stroke-linejoin="round" shape-rendering="crispEdges" data-type="pcb_trace" data-pcb-layer="bottom"/><path class="pcb-silkscreen pcb-silkscreen-bottom" d="M 357.66129032258067 284.5430107526882 L 400 284.5430107526882 L 400 326.8817204301075 L 357.66129032258067 326.8817204301075 L 357.66129032258067 284.5430107526882 Z" fill="none" stroke="#5da9e9" stroke-width="1.3440860215053765" stroke-linecap="round" stroke-linejoin="round" data-pcb-component-id="null" data-pcb-silkscreen-path-id="pcb_silkscreen_path_22" data-type="pcb_silkscreen_path" data-pcb-layer="bottom"/><path class="pcb-silkscreen pcb-silkscreen-bottom" d="M 379.0322580645161 305.9139784946237 L 421.23655913978496 305.9139784946237 L 421.23655913978496 348.1182795698925 L 379.0322580645161 348.1182795698925 L 379.0322580645161 305.9139784946237 Z" fill="none" stroke="#5da9e9" stroke-width="1.3440860215053765" stroke-linecap="round" stroke-linejoin="round" data-pcb-component-id="null" data-pcb-silkscreen-path-id="pcb_silkscreen_path_23" data-type="pcb_silkscreen_path" data-pcb-layer="bottom"/><path class="pcb-silkscreen pcb-silkscreen-bottom" d="M 400 326.8817204301075 L 442.33870967741933 326.8817204301075 L 442.33870967741933 369.2204301075269 L 400 369.2204301075269 L 400 326.8817204301075 Z" fill="none" stroke="#5da9e9" stroke-width="1.3440860215053765" stroke-linecap="round" stroke-linejoin="round" data-pcb-component-id="null" data-pcb-silkscreen-path-id="pcb_silkscreen_path_24" data-type="pcb_silkscreen_path" data-pcb-layer="bottom"/><path class="pcb-silkscreen pcb-silkscreen-bottom" d="M 379.0322580645161 305.9139784946237 L 400 326.8817204301075" fill="none" stroke="#5da9e9" stroke-width="1.3440860215053765" stroke-linecap="round" stroke-linejoin="round" data-pcb-component-id="null" data-pcb-silkscreen-path-id="pcb_silkscreen_path_25" data-type="pcb_silkscreen_path" data-pcb-layer="bottom"/><path class="pcb-silkscreen pcb-silkscreen-bottom" d="M 400 326.8817204301075 L 421.23655913978496 348.1182795698925" fill="none" stroke="#5da9e9" stroke-width="1.3440860215053765" stroke-linecap="round" stroke-linejoin="round" data-pcb-component-id="null" data-pcb-silkscreen-path-id="pcb_silkscreen_path_26" data-type="pcb_silkscreen_path" data-pcb-layer="bottom"/><path class="pcb-silkscreen pcb-silkscreen-bottom" d="M 336.8279569892473 208.73655913978496 L 334.13978494623655 208.73655913978496 L 334.13978494623655 227.82258064516128 L 327.41935483870964 227.82258064516128 L 327.41935483870964 230.24193548387098 L 343.81720430107526 230.24193548387098 L 343.81720430107526 227.82258064516128 L 336.8279569892473 227.82258064516128 L 336.8279569892473 208.73655913978496 Z" fill="none" stroke="#5da9e9" stroke-width="1.3440860215053765" stroke-linecap="round" stroke-linejoin="round" data-pcb-component-id="null" data-pcb-silkscreen-path-id="pcb_silkscreen_path_27" data-type="pcb_silkscreen_path" data-pcb-layer="bottom"/><path class="pcb-silkscreen pcb-silkscreen-bottom" d="M 352.5537634408602 208.46774193548384 L 351.61290322580646 208.46774193548384 L 350.6720430107527 208.73655913978496 L 349.73118279569894 208.8709677419355 L 348.9247311827957 209.54301075268816 L 347.98387096774195 209.81182795698925 L 347.4462365591398 210.61827956989248 L 346.7741935483871 211.29032258064518 L 346.23655913978496 212.09677419354838 L 345.9677419354839 213.03763440860214 L 345.8333333333333 213.9784946236559 L 345.56451612903226 215.18817204301075 L 345.56451612903226 216.39784946236557 L 345.56451612903226 217.60752688172045 L 345.8333333333333 218.5483870967742 L 345.9677419354839 219.89247311827955 L 346.23655913978496 220.83333333333331 L 346.7741935483871 221.50537634408602 L 347.4462365591398 222.31182795698925 L 347.98387096774195 222.98387096774192 L 348.6559139784946 223.52150537634407 L 349.73118279569894 223.9247311827957 L 350.6720430107527 224.3279569892473 L 351.61290322580646 224.3279569892473 L 352.5537634408602 224.73118279569894 L 353.494623655914 224.3279569892473 L 354.5698924731183 224.3279569892473 L 355.51075268817203 223.9247311827957 L 356.18279569892474 223.65591397849462 L 356.98924731182797 222.98387096774192 L 357.66129032258067 222.44623655913978 L 358.06451612903226 221.77419354838707 L 358.60215053763443 220.83333333333331 L 358.8709677419355 219.89247311827955 L 359.13978494623655 218.81720430107526 L 359.4086021505376 217.8763440860215 L 359.4086021505376 216.66666666666666 L 359.4086021505376 215.72580645161293 L 346.7741935483871 215.72580645161293 L 346.7741935483871 217.8763440860215 L 358.06451612903226 217.8763440860215 L 356.7204301075269 216.93548387096774 L 356.7204301075269 217.8763440860215 L 356.4516129032258 219.3548387096774 L 355.9139784946237 220.56451612903226 L 355.241935483871 221.23655913978496 L 354.3010752688172 222.0430107526882 L 353.09139784946234 222.31182795698925 L 352.5537634408602 222.31182795698925 L 351.8817204301075 222.31182795698925 L 350.94086021505376 222.0430107526882 L 350.13440860215053 221.77419354838707 L 349.3279569892473 220.83333333333331 L 348.6559139784946 219.89247311827955 L 348.252688172043 218.5483870967742 L 348.252688172043 216.93548387096774 L 348.252688172043 215.18817204301075 L 348.52150537634407 213.70967741935482 L 348.9247311827957 212.63440860215053 L 349.3279569892473 212.09677419354838 L 350.4032258064516 211.29032258064518 L 351.47849462365593 210.88709677419354 L 352.8225806451613 210.61827956989248 L 353.89784946236557 210.61827956989248 L 354.5698924731183 210.88709677419354 L 355.241935483871 211.29032258064518 L 355.64516129032256 211.8279569892473 L 356.18279569892474 212.2311827956989 L 356.7204301075269 213.03763440860214 L 359.13978494623655 213.03763440860214 L 358.8709677419355 212.09677419354838 L 358.3333333333333 211.1559139784946 L 357.9301075268817 210.3494623655914 L 356.98924731182797 209.67741935483872 L 356.18279569892474 209.13978494623655 L 354.9731182795699 208.73655913978496 L 354.0322580645161 208.46774193548384 L 352.5537634408602 208.46774193548384 Z" fill="none" stroke="#5da9e9" stroke-width="1.3440860215053765" stroke-linecap="round" stroke-linejoin="round" data-pcb-component-id="null" data-pcb-silkscreen-path-id="pcb_silkscreen_path_28" data-type="pcb_silkscreen_path" data-pcb-layer="bottom"/><path class="pcb-silkscreen pcb-silkscreen-bottom" d="M 364.6505376344086 208.73655913978496 L 362.23118279569894 208.73655913978496 L 362.23118279569894 230.24193548387098 L 364.6505376344086 230.24193548387098 L 364.6505376344086 208.73655913978496 Z" fill="none" stroke="#5da9e9" stroke-width="1.3440860215053765" stroke-linecap="round" stroke-linejoin="round" data-pcb-component-id="null" data-pcb-silkscreen-path-id="pcb_silkscreen_path_29" data-type="pcb_silkscreen_path" data-pcb-layer="bottom"/><path class="pcb-silkscreen pcb-silkscreen-bottom" d="M 374.86559139784947 208.46774193548384 L 373.52150537634407 208.46774193548384 L 372.5806451612903 208.73655913978496 L 371.63978494623655 208.8709677419355 L 370.96774193548384 209.54301075268816 L 370.1612903225806 209.81182795698925 L 369.48924731182797 210.61827956989248 L 368.68279569892474 211.29032258064518 L 368.2795698924731 212.09677419354838 L 368.01075268817203 213.03763440860214 L 367.741935483871 213.9784946236559 L 367.60752688172045 215.18817204301075 L 367.60752688172045 216.39784946236557 L 367.60752688172045 217.60752688172045 L 367.741935483871 218.5483870967742 L 368.01075268817203 219.89247311827955 L 368.2795698924731 220.83333333333331 L 368.68279569892474 221.50537634408602 L 369.48924731182797 222.31182795698925 L 370.0268817204301 222.98387096774192 L 370.96774193548384 223.52150537634407 L 371.63978494623655 223.9247311827957 L 372.5806451612903 224.3279569892473 L 373.52150537634407 224.3279569892473 L 374.5967741935484 224.73118279569894 L 375.5376344086022 224.3279569892473 L 376.61290322580646 224.3279569892473 L 377.4193548387097 223.9247311827957 L 378.2258064516129 223.65591397849462 L 379.0322580645161 222.98387096774192 L 379.7043010752688 222.44623655913978 L 380.10752688172045 221.77419354838707 L 380.64516129032256 220.83333333333331 L 380.7795698924731 219.89247311827955 L 381.18279569892474 218.81720430107526 L 381.31720430107526 217.8763440860215 L 381.31720430107526 216.66666666666666 L 381.31720430107526 215.72580645161293 L 368.68279569892474 215.72580645161293 L 368.68279569892474 217.8763440860215 L 380.10752688172045 217.8763440860215 L 379.0322580645161 216.93548387096774 L 378.76344086021504 217.8763440860215 L 378.36021505376345 219.3548387096774 L 377.9569892473118 220.56451612903226 L 377.28494623655916 221.23655913978496 L 376.3440860215054 222.0430107526882 L 375 222.31182795698925 L 374.5967741935484 222.31182795698925 L 373.9247311827957 222.31182795698925 L 372.8494623655914 222.0430107526882 L 371.90860215053766 221.23655913978496 L 370.96774193548384 220.2956989247312 L 370.4301075268817 219.3548387096774 L 370.1612903225806 217.60752688172045 L 370.1612903225806 216.93548387096774 L 370.1612903225806 215.18817204301075 L 370.4301075268817 213.70967741935482 L 370.96774193548384 212.63440860215053 L 371.505376344086 212.09677419354838 L 372.4462365591398 211.29032258064518 L 373.38709677419354 210.88709677419354 L 374.86559139784947 210.61827956989248 L 375.80645161290323 210.61827956989248 L 376.61290322580646 210.88709677419354 L 377.28494623655916 211.29032258064518 L 377.9569892473118 211.8279569892473 L 378.2258064516129 212.2311827956989 L 378.76344086021504 213.03763440860214 L 381.31720430107526 213.03763440860214 L 380.7795698924731 212.09677419354838 L 380.3763440860215 211.1559139784946 L 379.9731182795699 210.3494623655914 L 379.1666666666667 209.67741935483872 L 378.2258064516129 209.13978494623655 L 377.01612903225805 208.73655913978496 L 375.94086021505376 208.46774193548384 L 374.86559139784947 208.46774193548384 Z" fill="none" stroke="#5da9e9" stroke-width="1.3440860215053765" stroke-linecap="round" stroke-linejoin="round" data-pcb-component-id="null" data-pcb-silkscreen-path-id="pcb_silkscreen_path_30" data-type="pcb_silkscreen_path" data-pcb-layer="bottom"/><path class="pcb-silkscreen pcb-silkscreen-bottom" d="M 386.69354838709677 208.73655913978496 L 384.005376344086 208.73655913978496 L 384.005376344086 224.19354838709677 L 386.69354838709677 224.19354838709677 L 386.69354838709677 222.0430107526882 L 386.9623655913978 222.44623655913978 L 387.36559139784947 222.98387096774192 L 387.9032258064516 223.52150537634407 L 388.44086021505376 223.9247311827957 L 389.11290322580646 224.19354838709677 L 389.51612903225805 224.3279569892473 L 390.3225806451613 224.3279569892473 L 390.994623655914 224.73118279569894 L 391.5322580645161 224.73118279569894 L 391.93548387096774 224.3279569892473 L 392.8763440860215 224.19354838709677 L 393.68279569892474 223.65591397849462 L 394.2204301075269 223.52150537634407 L 394.6236559139785 222.98387096774192 L 395.16129032258067 222.0430107526882 L 395.2956989247312 221.50537634408602 L 395.6989247311828 222.0430107526882 L 396.3709677419355 222.71505376344086 L 397.0430107526882 223.52150537634407 L 397.8494623655914 223.9247311827957 L 398.7903225806452 224.3279569892473 L 399.73118279569894 224.73118279569894 L 400.5376344086022 224.73118279569894 L 401.2096774193548 224.3279569892473 L 402.4193548387097 224.19354838709677 L 403.6290322580645 223.65591397849462 L 404.5698924731183 222.71505376344086 L 404.9731182795699 221.50537634408602 L 405.64516129032256 220.2956989247312 L 405.64516129032256 219.3548387096774 L 405.64516129032256 208.73655913978496 L 402.9569892473118 208.73655913978496 L 402.9569892473118 218.81720430107526 L 402.68817204301075 219.89247311827955 L 402.4193548387097 220.83333333333331 L 401.8817204301075 221.23655913978496 L 401.47849462365593 221.77419354838707 L 400.5376344086022 222.31182795698925 L 399.4623655913978 222.31182795698925 L 398.52150537634407 222.31182795698925 L 397.8494623655914 221.77419354838707 L 397.0430107526882 221.23655913978496 L 396.63978494623655 220.56451612903226 L 396.10215053763443 219.48924731182797 L 396.10215053763443 218.5483870967742 L 396.10215053763443 208.73655913978496 L 393.4139784946237 208.73655913978496 L 393.4139784946237 219.08602150537635 L 393.2795698924731 220.2956989247312 L 392.741935483871 220.96774193548387 L 392.2043010752688 221.77419354838707 L 391.5322580645161 222.0430107526882 L 390.86021505376345 222.31182795698925 L 390.3225806451613 222.31182795698925 L 389.3817204301075 222.31182795698925 L 388.44086021505376 221.77419354838707 L 387.76881720430106 221.23655913978496 L 387.0967741935484 220.2956989247312 L 386.69354838709677 219.48924731182797 L 386.69354838709677 218.41397849462365 L 386.69354838709677 208.73655913978496 Z" fill="none" stroke="#5da9e9" stroke-width="1.3440860215053765" stroke-linecap="round" stroke-linejoin="round" data-pcb-component-id="null" data-pcb-silkscreen-path-id="pcb_silkscreen_path_31" data-type="pcb_silkscreen_path" data-pcb-layer="bottom"/><path class="pcb-silkscreen pcb-silkscreen-bottom" d="M 415.18817204301075 208.46774193548384 L 414.247311827957 208.46774193548384 L 413.0376344086022 208.73655913978496 L 412.23118279569894 208.8709677419355 L 411.2903225806452 209.54301075268816 L 410.6182795698925 209.81182795698925 L 409.81182795698925 210.61827956989248 L 409.5430107526882 211.29032258064518 L 408.8709677419355 212.09677419354838 L 408.4677419354839 213.03763440860214 L 408.1989247311828 213.9784946236559 L 407.9301075268817 215.18817204301075 L 407.9301075268817 216.39784946236557 L 407.9301075268817 217.60752688172045 L 408.1989247311828 218.5483870967742 L 408.4677419354839 219.89247311827955 L 408.8709677419355 220.83333333333331 L 409.5430107526882 221.50537634408602 L 409.81182795698925 222.31182795698925 L 410.6182795698925 222.98387096774192 L 411.2903225806452 223.52150537634407 L 412.0967741935484 223.9247311827957 L 413.0376344086022 224.3279569892473 L 413.97849462365593 224.3279569892473 L 415.0537634408602 224.73118279569894 L 416.1290322580645 224.3279569892473 L 417.0698924731183 224.3279569892473 L 417.8763440860215 223.9247311827957 L 418.81720430107526 223.65591397849462 L 419.6236559139785 222.98387096774192 L 420.0268817204301 222.44623655913978 L 420.56451612903226 221.77419354838707 L 420.9677419354839 220.83333333333331 L 421.505376344086 219.89247311827955 L 421.7741935483871 218.81720430107526 L 421.9086021505376 217.8763440860215 L 421.9086021505376 216.66666666666666 L 421.9086021505376 215.72580645161293 L 409.5430107526882 215.72580645161293 L 409.5430107526882 217.8763440860215 L 420.56451612903226 217.8763440860215 L 419.35483870967744 216.93548387096774 L 419.35483870967744 217.8763440860215 L 419.0860215053763 219.3548387096774 L 418.4139784946237 220.56451612903226 L 417.60752688172045 221.23655913978496 L 416.6666666666667 222.0430107526882 L 415.7258064516129 222.31182795698925 L 415.0537634408602 222.31182795698925 L 414.51612903225805 222.31182795698925 L 413.30645161290323 222.0430107526882 L 412.23118279569894 221.23655913978496 L 411.55913978494624 220.2956989247312 L 411.1559139784946 219.3548387096774 L 410.6182795698925 217.60752688172045 L 410.6182795698925 216.93548387096774 L 410.6182795698925 215.18817204301075 L 410.88709677419354 213.70967741935482 L 411.55913978494624 212.63440860215053 L 411.9623655913978 212.09677419354838 L 412.9032258064516 211.29032258064518 L 413.30645161290323 211.1559139784946 L 414.51612903225805 210.61827956989248 L 415.18817204301075 210.61827956989248 L 416.1290322580645 210.61827956989248 L 417.0698924731183 210.88709677419354 L 417.8763440860215 211.29032258064518 L 418.4139784946237 211.8279569892473 L 418.81720430107526 212.2311827956989 L 419.0860215053763 213.03763440860214 L 421.7741935483871 213.03763440860214 L 421.505376344086 212.09677419354838 L 420.9677419354839 211.1559139784946 L 420.2956989247312 210.3494623655914 L 419.6236559139785 209.67741935483872 L 418.5483870967742 209.13978494623655 L 417.60752688172045 208.73655913978496 L 416.39784946236557 208.46774193548384 L 415.18817204301075 208.46774193548384 Z" fill="none" stroke="#5da9e9" stroke-width="1.3440860215053765" stroke-linecap="round" stroke-linejoin="round" data-pcb-component-id="null" data-pcb-silkscreen-path-id="pcb_silkscreen_path_32" data-type="pcb_silkscreen_path" data-pcb-layer="bottom"/><path class="pcb-silkscreen pcb-silkscreen-bottom" d="M 429.7043010752688 208.46774193548384 L 428.494623655914 208.46774193548384 L 427.8225806451613 208.73655913978496 L 427.1505376344086 208.8709677419355 L 426.3440860215054 209.54301075268816 L 425.80645161290323 209.81182795698925 L 425.6720430107527 210.61827956989248 L 425.4032258064516 211.55913978494624 L 425.4032258064516 212.63440860215053 L 425.4032258064516 222.0430107526882 L 422.98387096774195 222.0430107526882 L 422.98387096774195 224.19354838709677 L 425.4032258064516 224.19354838709677 L 425.4032258064516 228.49462365591398 L 428.09139784946234 228.49462365591398 L 428.09139784946234 224.19354838709677 L 430.9139784946237 224.19354838709677 L 430.9139784946237 222.0430107526882 L 428.09139784946234 222.0430107526882 L 428.09139784946234 212.63440860215053 L 428.2258064516129 211.55913978494624 L 428.494623655914 210.88709677419354 L 429.1666666666667 210.61827956989248 L 429.7043010752688 210.61827956989248 L 430.241935483871 210.3494623655914 L 430.9139784946237 210.61827956989248 L 430.9139784946237 208.46774193548384 L 430.64516129032256 208.46774193548384 L 430.241935483871 208.46774193548384 L 429.7043010752688 208.46774193548384 Z" fill="none" stroke="#5da9e9" stroke-width="1.3440860215053765" stroke-linecap="round" stroke-linejoin="round" data-pcb-component-id="null" data-pcb-silkscreen-path-id="pcb_silkscreen_path_33" data-type="pcb_silkscreen_path" data-pcb-layer="bottom"/><path class="pcb-silkscreen pcb-silkscreen-bottom" d="M 436.4247311827957 208.73655913978496 L 433.8709677419355 208.73655913978496 L 433.8709677419355 224.19354838709677 L 436.4247311827957 224.19354838709677 L 436.4247311827957 221.50537634408602 L 436.8279569892473 222.31182795698925 L 437.5 223.52150537634407 L 438.44086021505376 224.19354838709677 L 439.3817204301075 224.3279569892473 L 440.18817204301075 224.73118279569894 L 440.5913978494624 224.73118279569894 L 441.1290322580645 224.3279569892473 L 441.1290322580645 222.0430107526882 L 440.5913978494624 222.0430107526882 L 440.18817204301075 222.0430107526882 L 439.3817204301075 222.0430107526882 L 438.44086021505376 221.77419354838707 L 437.76881720430106 221.23655913978496 L 436.9623655913978 220.83333333333331 L 436.8279569892473 219.89247311827955 L 436.4247311827957 218.81720430107526 L 436.4247311827957 218.41397849462365 L 436.4247311827957 208.73655913978496 Z" fill="none" stroke="#5da9e9" stroke-width="1.3440860215053765" stroke-linecap="round" stroke-linejoin="round" data-pcb-component-id="null" data-pcb-silkscreen-path-id="pcb_silkscreen_path_34" data-type="pcb_silkscreen_path" data-pcb-layer="bottom"/><path class="pcb-silkscreen pcb-silkscreen-bottom" d="M 449.86559139784947 208.46774193548384 L 448.9247311827957 208.46774193548384 L 447.8494623655914 208.73655913978496 L 446.90860215053766 208.8709677419355 L 445.9677419354839 209.54301075268816 L 445.2956989247312 209.81182795698925 L 444.48924731182797 210.61827956989248 L 444.0860215053763 211.29032258064518 L 443.5483870967742 212.09677419354838 L 443.01075268817203 213.03763440860214 L 442.741935483871 214.247311827957 L 442.60752688172045 215.18817204301075 L 442.60752688172045 216.39784946236557 L 442.60752688172045 217.60752688172045 L 442.741935483871 218.81720430107526 L 443.01075268817203 219.89247311827955 L 443.5483870967742 220.83333333333331 L 444.0860215053763 221.77419354838707 L 444.48924731182797 222.44623655913978 L 445.2956989247312 222.98387096774192 L 445.9677419354839 223.65591397849462 L 446.90860215053766 223.9247311827957 L 447.8494623655914 224.3279569892473 L 448.9247311827957 224.3279569892473 L 449.86559139784947 224.73118279569894 L 450.80645161290323 224.3279569892473 L 451.747311827957 224.3279569892473 L 452.68817204301075 223.9247311827957 L 453.76344086021504 223.65591397849462 L 454.43548387096774 222.98387096774192 L 455.10752688172045 222.44623655913978 L 455.64516129032256 221.77419354838707 L 456.18279569892474 220.83333333333331 L 456.5860215053763 219.89247311827955 L 456.85483870967744 218.81720430107526 L 457.1236559139785 217.60752688172045 L 457.1236559139785 216.39784946236557 L 457.1236559139785 215.18817204301075 L 456.85483870967744 213.9784946236559 L 456.5860215053763 213.03763440860214 L 456.18279569892474 212.09677419354838 L 455.64516129032256 211.29032258064518 L 455.10752688172045 210.61827956989248 L 454.43548387096774 209.81182795698925 L 453.76344086021504 209.54301075268816 L 452.68817204301075 208.8709677419355 L 451.747311827957 208.73655913978496 L 450.80645161290323 208.46774193548384 L 449.86559139784947 208.46774193548384 Z" fill="none" stroke="#5da9e9" stroke-width="1.3440860215053765" stroke-linecap="round" stroke-linejoin="round" data-pcb-component-id="null" data-pcb-silkscreen-path-id="pcb_silkscreen_path_35" data-type="pcb_silkscreen_path" data-pcb-layer="bottom"/><path class="pcb-silkscreen pcb-silkscreen-bottom" d="M 449.86559139784947 210.61827956989248 L 450.5376344086022 210.61827956989248 L 451.747311827957 211.1559139784946 L 452.68817204301075 211.8279569892473 L 453.36021505376345 212.76881720430106 L 453.89784946236557 213.9784946236559 L 454.43548387096774 215.4569892473118 L 454.43548387096774 216.39784946236557 L 454.43548387096774 217.4731182795699 L 453.89784946236557 218.81720430107526 L 453.36021505376345 220.2956989247312 L 452.68817204301075 221.23655913978496 L 451.747311827957 222.0430107526882 L 450.5376344086022 222.31182795698925 L 449.86559139784947 222.31182795698925 L 449.05913978494624 222.31182795698925 L 447.8494623655914 221.77419354838707 L 446.90860215053766 221.23655913978496 L 446.10215053763443 220.2956989247312 L 445.4301075268817 218.81720430107526 L 445.2956989247312 217.4731182795699 L 445.2956989247312 216.39784946236557 L 445.2956989247312 215.4569892473118 L 445.4301075268817 213.9784946236559 L 446.10215053763443 212.76881720430106 L 446.90860215053766 211.8279569892473 L 447.8494623655914 211.1559139784946 L 449.05913978494624 210.61827956989248 L 449.86559139784947 210.61827956989248 Z" fill="none" stroke="#5da9e9" stroke-width="1.3440860215053765" stroke-linecap="round" stroke-linejoin="round" data-pcb-component-id="null" data-pcb-silkscreen-path-id="pcb_silkscreen_path_36" data-type="pcb_silkscreen_path" data-pcb-layer="bottom"/><path class="pcb-silkscreen pcb-silkscreen-bottom" d="M 462.0967741935484 208.73655913978496 L 459.81182795698925 208.73655913978496 L 459.81182795698925 224.19354838709677 L 462.0967741935484 224.19354838709677 L 462.0967741935484 222.0430107526882 L 462.63440860215053 222.44623655913978 L 463.5752688172043 223.52150537634407 L 464.78494623655916 224.19354838709677 L 466.26344086021504 224.3279569892473 L 467.2043010752688 224.73118279569894 L 468.4139784946237 224.3279569892473 L 470.2956989247312 223.65591397849462 L 471.9086021505376 222.31182795698925 L 472.58064516129036 220.02688172043008 L 472.58064516129036 218.81720430107526 L 472.58064516129036 208.73655913978496 L 469.89247311827955 208.73655913978496 L 469.89247311827955 218.41397849462365 L 469.6236559139785 220.02688172043008 L 468.9516129032258 221.23655913978496 L 467.8763440860215 222.0430107526882 L 467.2043010752688 222.31182795698925 L 466.26344086021504 222.31182795698925 L 465.3225806451613 222.31182795698925 L 464.11290322580646 221.77419354838707 L 463.44086021505376 220.96774193548387 L 462.9032258064516 220.02688172043008 L 462.36559139784947 219.08602150537635 L 462.0967741935484 217.8763440860215 L 462.0967741935484 208.73655913978496 Z" fill="none" stroke="#5da9e9" stroke-width="1.3440860215053765" stroke-linecap="round" stroke-linejoin="round" data-pcb-component-id="null" data-pcb-silkscreen-path-id="pcb_silkscreen_path_37" data-type="pcb_silkscreen_path" data-pcb-layer="bottom"/><rect class="pcb-pad" fill="rgb(200, 52, 52)" x="282.39247311827955" y="212.63440860215056" width="40.322580645161295" height="40.322580645161295" data-type="pcb_smtpad" data-pcb-layer="top"/><rect class="pcb-pad" fill="rgb(200, 52, 52)" x="477.2849462365591" y="212.63440860215056" width="40.322580645161295" height="40.322580645161295" data-type="pcb_smtpad" data-pcb-layer="top"/><rect class="pcb-pad" fill="rgb(200, 52, 52)" x="386.55913978494624" y="287.9032258064516" width="26.881720430107528" height="26.881720430107528" data-type="pcb_smtpad" data-pcb-layer="top"/><rect class="pcb-pad" fill="rgb(200, 52, 52)" x="386.55913978494624" y="150.80645161290323" width="26.881720430107528" height="26.881720430107528" data-type="pcb_smtpad" data-pcb-layer="top"/><rect class="pcb-pad" fill="rgb(200, 52, 52)" x="583.4677419354839" y="397.4462365591398" width="9.408602150537634" height="20.161290322580648" data-type="pcb_smtpad" data-pcb-layer="top"/><rect class="pcb-pad" fill="rgb(200, 52, 52)" x="596.9086021505376" y="397.4462365591398" width="9.408602150537634" height="20.161290322580648" data-type="pcb_smtpad" data-pcb-layer="top"/><rect class="pcb-pad" fill="rgb(200, 52, 52)" x="610.3494623655913" y="397.4462365591398" width="9.408602150537634" height="20.161290322580648" data-type="pcb_smtpad" data-pcb-layer="top"/><rect class="pcb-pad" fill="rgb(200, 52, 52)" x="547.8494623655913" y="395.43010752688167" width="13.440860215053764" height="24.193548387096776" data-type="pcb_smtpad" data-pcb-layer="top"/><rect class="pcb-pad" fill="rgb(200, 52, 52)" x="641.9354838709677" y="395.43010752688167" width="13.440860215053764" height="24.193548387096776" data-type="pcb_smtpad" data-pcb-layer="top"/><rect class="pcb-pad" fill="rgb(200, 52, 52)" x="517.9435483870968" y="401.14247311827955" width="10.752688172043012" height="12.768817204301076" data-type="pcb_smtpad" data-pcb-layer="top"/><rect class="pcb-pad" fill="rgb(200, 52, 52)" x="540.1209677419355" y="401.14247311827955" width="10.752688172043012" height="12.768817204301076" data-type="pcb_smtpad" data-pcb-layer="top"/><path class="pcb-trace" stroke="rgb(200, 52, 52)" fill="none" d="M 528.7802419354839 422.98387096774195 L 528.7802419354839 422.98387096774195" stroke-width="2.0161290322580645" stroke-linecap="round" stroke-linejoin="round" shape-rendering="crispEdges" data-type="pcb_trace" data-pcb-layer="top"/><path class="pcb-trace" stroke="rgb(200, 52, 52)" fill="none" d="M 528.7802419354839 422.98387096774195 L 530.0403225806451 422.98387096774195" stroke-width="2.0161290322580645" stroke-linecap="round" stroke-linejoin="round" shape-rendering="crispEdges" data-type="pcb_trace" data-pcb-layer="top"/><path class="pcb-trace" stroke="rgb(200, 52, 52)" fill="none" d="M 530.0403225806451 422.98387096774195 L 545.497311827957 407.5268817204301" stroke-width="2.0161290322580645" stroke-linecap="round" stroke-linejoin="round" shape-rendering="crispEdges" data-type="pcb_trace" data-pcb-layer="top"/><path class="pcb-trace" stroke="rgb(200, 52, 52)" fill="none" d="M 523.3198924731183 407.5268817204301 L 523.3198924731183 405.371473529477" stroke-width="2.0161290322580645" stroke-linecap="round" stroke-linejoin="round" shape-rendering="crispEdges" data-type="pcb_trace" data-pcb-layer="top"/><path class="pcb-trace" stroke="rgb(200, 52, 52)" fill="none" d="M 523.3198924731183 405.371473529477 L 566.9394492972923 361.75191670530296" stroke-width="2.0161290322580645" stroke-linecap="round" stroke-linejoin="round" shape-rendering="crispEdges" data-type="pcb_trace" data-pcb-layer="top"/><path class="pcb-trace" stroke="rgb(200, 52, 52)" fill="none" d="M 566.9394492972923 361.75191670530296 L 601.6129032258065 396.42537063381707" stroke-width="2.0161290322580645" stroke-linecap="round" stroke-linejoin="round" shape-rendering="crispEdges" data-type="pcb_trace" data-pcb-layer="top"/><path class="pcb-trace" stroke="rgb(200, 52, 52)" fill="none" d="M 601.6129032258065 396.42537063381707 L 601.6129032258065 407.5268817204301" stroke-width="2.0161290322580645" stroke-linecap="round" stroke-linejoin="round" shape-rendering="crispEdges" data-type="pcb_trace" data-pcb-layer="top"/><path class="pcb-trace" stroke="rgb(200, 52, 52)" fill="none" d="M 477.2849462365591 300.63667232597624 L 459.51117713638934 300.63667232597624" stroke-width="2.0161290322580645" stroke-linecap="round" stroke-linejoin="round" shape-rendering="crispEdges" data-type="pcb_trace" data-pcb-layer="top"/><path class="pcb-trace" stroke="rgb(200, 52, 52)" fill="none" d="M 459.51117713638934 300.63667232597624 L 445.36290322580646 314.7849462365591" stroke-width="2.0161290322580645" stroke-linecap="round" stroke-linejoin="round" shape-rendering="crispEdges" data-type="pcb_trace" data-pcb-layer="top"/><path class="pcb-trace" stroke="rgb(200, 52, 52)" fill="none" d="M 497.4462365591398 232.7956989247312 L 497.4462365591398 281.18279569892474" stroke-width="2.0161290322580645" stroke-linecap="round" stroke-linejoin="round" shape-rendering="crispEdges" data-type="pcb_trace" data-pcb-layer="top"/><path class="pcb-trace" stroke="rgb(200, 52, 52)" fill="none" d="M 497.4462365591398 281.18279569892474 L 477.2849462365591 301.34408602150535" stroke-width="2.0161290322580645" stroke-linecap="round" stroke-linejoin="round" shape-rendering="crispEdges" data-type="pcb_trace" data-pcb-layer="top"/><path class="pcb-trace" stroke="rgb(200, 52, 52)" fill="none" d="M 417.0698924731183 434.4086021505376 L 417.0698924731183 343.0779569892473" stroke-width="2.0161290322580645" stroke-linecap="round" stroke-linejoin="round" shape-rendering="crispEdges" data-type="pcb_trace" data-pcb-layer="top"/><path class="pcb-trace" stroke="rgb(200, 52, 52)" fill="none" d="M 417.0698924731183 343.0779569892473 L 445.36290322580646 314.7849462365591" stroke-width="2.0161290322580645" stroke-linecap="round" stroke-linejoin="round" shape-rendering="crispEdges" data-type="pcb_trace" data-pcb-layer="top"/><path class="pcb-trace" stroke="rgb(200, 52, 52)" fill="none" d="M 302.5537634408602 232.7956989247312 L 332.36932838431346 232.7956989247312" stroke-width="2.0161290322580645" stroke-linecap="round" stroke-linejoin="round" shape-rendering="crispEdges" data-type="pcb_trace" data-pcb-layer="top"/><path class="pcb-trace" stroke="rgb(200, 52, 52)" fill="none" d="M 332.36932838431346 232.7956989247312 L 358.8459343679776 259.27230490839526" stroke-width="2.0161290322580645" stroke-linecap="round" stroke-linejoin="round" shape-rendering="crispEdges" data-type="pcb_trace" data-pcb-layer="top"/><path class="pcb-trace" stroke="rgb(200, 52, 52)" fill="none" d="M 358.8459343679776 259.27230490839526 L 360.31586021505376 260.3494623655914" stroke-width="2.0161290322580645" stroke-linecap="round" stroke-linejoin="round" shape-rendering="crispEdges" data-type="pcb_trace" data-pcb-layer="top"/><path class="pcb-trace" stroke="rgb(200, 52, 52)" fill="none" d="M 360.31586021505376 260.3494623655914 L 360.31586021505376 260.3494623655914" stroke-width="2.0161290322580645" stroke-linecap="round" stroke-linejoin="round" shape-rendering="crispEdges" data-type="pcb_trace" data-pcb-layer="top"/><path class="pcb-trace" stroke="rgb(200, 52, 52)" fill="none" d="M 588.1720430107528 407.5268817204301 L 588.1720430107528 403.21995889302855" stroke-width="2.0161290322580645" stroke-linecap="round" stroke-linejoin="round" shape-rendering="crispEdges" data-type="pcb_trace" data-pcb-layer="top"/><path class="pcb-trace" stroke="rgb(200, 52, 52)" fill="none" d="M 588.1720430107528 403.21995889302855 L 562.7060735124453 377.75398939472115" stroke-width="2.0161290322580645" stroke-linecap="round" stroke-linejoin="round" shape-rendering="crispEdges" data-type="pcb_trace" data-pcb-layer="top"/><path class="pcb-trace" stroke="rgb(200, 52, 52)" fill="none" d="M 562.7060735124453 377.75398939472115 L 561.2903225806451 375.26881720430106" stroke-width="2.0161290322580645" stroke-linecap="round" stroke-linejoin="round" shape-rendering="crispEdges" data-type="pcb_trace" data-pcb-layer="top"/><path class="pcb-trace" stroke="rgb(200, 52, 52)" fill="none" d="M 561.2903225806451 375.26881720430106 L 561.2903225806451 375.26881720430106" stroke-width="2.0161290322580645" stroke-linecap="round" stroke-linejoin="round" shape-rendering="crispEdges" data-type="pcb_trace" data-pcb-layer="top"/><path class="pcb-silkscreen pcb-silkscreen-top" d="M 302.5537634408602 259.6774193548387 L 302.5537634408602 205.91397849462365" fill="none" stroke="#f2eda1" stroke-width="1.3440860215053765" stroke-linecap="round" stroke-linejoin="round" data-pcb-component-id="pcb_component_0" data-pcb-silkscreen-path-id="pcb_silkscreen_path_0" data-type="pcb_silkscreen_path" data-pcb-layer="top"/><path class="pcb-silkscreen pcb-silkscreen-top" d="M 294.48924731182797 232.7956989247312 L 310.6182795698925 232.7956989247312" fill="none" stroke="#f2eda1" stroke-width="1.3440860215053765" stroke-linecap="round" stroke-linejoin="round" data-pcb-component-id="pcb_component_0" data-pcb-silkscreen-path-id="pcb_silkscreen_path_1" data-type="pcb_silkscreen_path" data-pcb-layer="top"/><text x="0" y="0" dx="0" dy="0" fill="#f2eda1" font-family="Arial, sans-serif" font-size="13.440860215053764" text-anchor="middle" dominant-baseline="central" transform="matrix(1,0,0,1,302.5537634408602,273.1182795698925)" class="pcb-silkscreen-text pcb-silkscreen-top" data-pcb-silkscreen-text-id="pcb_component_0" stroke="none" data-type="pcb_silkscreen_text" data-pcb-layer="top">+</text><text x="0" y="0" dx="0" dy="0" fill="#f2eda1" font-family="Arial, sans-serif" font-size="13.440860215053764" text-anchor="middle" dominant-baseline="central" transform="matrix(1,0,0,1,497.4462365591398,273.1182795698925)" class="pcb-silkscreen-text pcb-silkscreen-top" data-pcb-silkscreen-text-id="pcb_component_0" stroke="none" data-type="pcb_silkscreen_text" data-pcb-layer="top">-</text><path class="pcb-silkscreen pcb-silkscreen-top" d="M 574.7311827956989 420.9677419354839 L 628.494623655914 420.9677419354839 L 628.494623655914 394.0860215053764 L 574.7311827956989 394.0860215053764 L 574.7311827956989 420.9677419354839 Z" fill="none" stroke="#f2eda1" stroke-width="1.3440860215053765" stroke-linecap="round" stroke-linejoin="round" data-pcb-component-id="pcb_component_1" data-pcb-silkscreen-path-id="pcb_silkscreen_path_2" data-type="pcb_silkscreen_path" data-pcb-layer="top"/><path class="pcb-silkscreen pcb-silkscreen-top" d="M 545.497311827957 395.76612903225805 L 515.255376344086 395.76612903225805 L 515.255376344086 419.2876344086022 L 545.497311827957 419.2876344086022" fill="none" stroke="#f2eda1" stroke-width="1.3440860215053765" stroke-linecap="round" stroke-linejoin="round" data-pcb-component-id="pcb_component_2" data-pcb-silkscreen-path-id="pcb_silkscreen_path_3" data-type="pcb_silkscreen_path" data-pcb-layer="top"/><text x="0" y="0" dx="0" dy="0" fill="#f2eda1" font-family="Arial, sans-serif" font-size="5.376344086021506" text-anchor="middle" dominant-baseline="central" transform="matrix(1,0,0,1,534.4086021505376,389.0456989247312)" class="pcb-silkscreen-text pcb-silkscreen-top" data-pcb-silkscreen-text-id="pcb_component_2" stroke="none" data-type="pcb_silkscreen_text" data-pcb-layer="top">R1</text><path class="pcb-silkscreen pcb-silkscreen-top" d="M 366.39784946236557 454.5698924731183 L 433.60215053763443 454.5698924731183 L 433.60215053763443 414.247311827957 L 366.39784946236557 414.247311827957 L 366.39784946236557 454.5698924731183 Z" fill="none" stroke="#f2eda1" stroke-width="1.3440860215053765" stroke-linecap="round" stroke-linejoin="round" data-pcb-component-id="pcb_component_3" data-pcb-silkscreen-path-id="pcb_silkscreen_path_4" data-type="pcb_silkscreen_path" data-pcb-layer="top"/><path class="pcb-silkscreen pcb-silkscreen-top" d="M 417.0698924731183 454.5698924731183 L 417.0698924731183 414.247311827957" fill="none" stroke="#f2eda1" stroke-width="1.3440860215053765" stroke-linecap="round" stroke-linejoin="round" data-pcb-component-id="pcb_component_3" data-pcb-silkscreen-path-id="pcb_silkscreen_path_5" data-type="pcb_silkscreen_path" data-pcb-layer="top"/><text x="0" y="0" dx="0" dy="0" fill="#f2eda1" font-family="Arial, sans-serif" font-size="10.752688172043012" text-anchor="middle" dominant-baseline="central" transform="matrix(1,0,0,1,382.9301075268817,463.97849462365593)" class="pcb-silkscreen-text pcb-silkscreen-top" data-pcb-silkscreen-text-id="pcb_component_3" stroke="none" data-type="pcb_silkscreen_text" data-pcb-layer="top">+</text><text x="0" y="0" dx="0" dy="0" fill="#f2eda1" font-family="Arial, sans-serif" font-size="10.752688172043012" text-anchor="middle" dominant-baseline="central" transform="matrix(1,0,0,1,400,404.8387096774194)" class="pcb-silkscreen-text pcb-silkscreen-top" data-pcb-silkscreen-text-id="pcb_component_3" stroke="none" data-type="pcb_silkscreen_text" data-pcb-layer="top">LED</text><path class="pcb-silkscreen pcb-silkscreen-top" d="M 289.11290322580646 370.56451612903226 L 265.5913978494624 370.56451612903226 L 265.5913978494624 394.0860215053764 L 289.11290322580646 394.0860215053764 L 289.11290322580646 370.56451612903226 Z" fill="none" stroke="#f2eda1" stroke-width="1.3440860215053765" stroke-linecap="round" stroke-linejoin="round" data-pcb-component-id="null" data-pcb-silkscreen-path-id="pcb_silkscreen_path_6" data-type="pcb_silkscreen_path" data-pcb-layer="top"/><path class="pcb-silkscreen pcb-silkscreen-top" d="M 277.2849462365591 382.39247311827955 L 253.76344086021504 382.39247311827955 L 253.76344086021504 405.9139784946237 L 277.2849462365591 405.9139784946237 L 277.2849462365591 382.39247311827955 Z" fill="none" stroke="#f2eda1" stroke-width="1.3440860215053765" stroke-linecap="round" stroke-linejoin="round" data-pcb-component-id="null" data-pcb-silkscreen-path-id="pcb_silkscreen_path_7" data-type="pcb_silkscreen_path" data-pcb-layer="top"/><path class="pcb-silkscreen pcb-silkscreen-top" d="M 265.5913978494624 394.0860215053764 L 242.06989247311827 394.0860215053764 L 242.06989247311827 417.60752688172045 L 265.5913978494624 417.60752688172045 L 265.5913978494624 394.0860215053764 Z" fill="none" stroke="#f2eda1" stroke-width="1.3440860215053765" stroke-linecap="round" stroke-linejoin="round" data-pcb-component-id="null" data-pcb-silkscreen-path-id="pcb_silkscreen_path_8" data-type="pcb_silkscreen_path" data-pcb-layer="top"/><path class="pcb-silkscreen pcb-silkscreen-top" d="M 277.2849462365591 382.39247311827955 L 265.5913978494624 394.0860215053764" fill="none" stroke="#f2eda1" stroke-width="1.3440860215053765" stroke-linecap="round" stroke-linejoin="round" data-pcb-component-id="null" data-pcb-silkscreen-path-id="pcb_silkscreen_path_9" data-type="pcb_silkscreen_path" data-pcb-layer="top"/><path class="pcb-silkscreen pcb-silkscreen-top" d="M 265.5913978494624 394.0860215053764 L 253.76344086021504 405.9139784946237" fill="none" stroke="#f2eda1" stroke-width="1.3440860215053765" stroke-linecap="round" stroke-linejoin="round" data-pcb-component-id="null" data-pcb-silkscreen-path-id="pcb_silkscreen_path_10" data-type="pcb_silkscreen_path" data-pcb-layer="top"/><path class="pcb-silkscreen pcb-silkscreen-top" d="M 300.67204301075265 347.8494623655914 L 302.1505376344086 347.8494623655914 L 302.1505376344086 358.4677419354839 L 305.9139784946236 358.4677419354839 L 305.9139784946236 359.81182795698925 L 296.7741935483871 359.81182795698925 L 296.7741935483871 358.4677419354839 L 300.67204301075265 358.4677419354839 L 300.67204301075265 347.8494623655914 Z" fill="none" stroke="#f2eda1" stroke-width="1.3440860215053765" stroke-linecap="round" stroke-linejoin="round" data-pcb-component-id="null" data-pcb-silkscreen-path-id="pcb_silkscreen_path_11" data-type="pcb_silkscreen_path" data-pcb-layer="top"/><path class="pcb-silkscreen pcb-silkscreen-top" d="M 291.93548387096774 347.71505376344084 L 292.4731182795699 347.71505376344084 L 293.01075268817203 347.8494623655914 L 293.5483870967742 347.98387096774195 L 293.9516129032258 348.252688172043 L 294.48924731182797 348.52150537634407 L 294.758064516129 348.9247311827957 L 295.1612903225806 349.3279569892473 L 295.4301075268817 349.73118279569894 L 295.56451612903226 350.26881720430106 L 295.6989247311828 350.80645161290323 L 295.8333333333333 351.47849462365593 L 295.8333333333333 352.1505376344086 L 295.8333333333333 352.8225806451613 L 295.6989247311828 353.36021505376345 L 295.56451612903226 354.0322580645161 L 295.4301075268817 354.5698924731183 L 295.1612903225806 354.9731182795699 L 294.758064516129 355.3763440860215 L 294.48924731182797 355.77956989247315 L 294.0860215053763 356.0483870967742 L 293.5483870967742 356.31720430107526 L 293.01075268817203 356.5860215053763 L 292.4731182795699 356.5860215053763 L 291.93548387096774 356.7204301075269 L 291.39784946236557 356.5860215053763 L 290.86021505376345 356.5860215053763 L 290.3225806451613 356.31720430107526 L 289.9193548387097 356.18279569892474 L 289.51612903225805 355.77956989247315 L 289.11290322580646 355.51075268817203 L 288.8440860215054 355.10752688172045 L 288.5752688172043 354.5698924731183 L 288.44086021505376 354.0322580645161 L 288.30645161290323 353.494623655914 L 288.17204301075265 352.9569892473118 L 288.17204301075265 352.28494623655916 L 288.17204301075265 351.747311827957 L 295.1612903225806 351.747311827957 L 295.1612903225806 352.9569892473118 L 288.8440860215054 352.9569892473118 L 289.6505376344086 352.4193548387097 L 289.6505376344086 352.9569892473118 L 289.78494623655916 353.76344086021504 L 290.0537634408602 354.43548387096774 L 290.4569892473118 354.8387096774194 L 290.994623655914 355.241935483871 L 291.66666666666663 355.3763440860215 L 291.93548387096774 355.3763440860215 L 292.3387096774194 355.3763440860215 L 292.8763440860215 355.241935483871 L 293.2795698924731 355.10752688172045 L 293.68279569892474 354.5698924731183 L 294.0860215053763 354.0322580645161 L 294.35483870967744 353.36021505376345 L 294.35483870967744 352.4193548387097 L 294.35483870967744 351.47849462365593 L 294.2204301075269 350.6720430107527 L 293.9516129032258 350 L 293.68279569892474 349.73118279569894 L 293.14516129032256 349.3279569892473 L 292.60752688172045 349.05913978494624 L 291.80107526881716 348.9247311827957 L 291.26344086021504 348.9247311827957 L 290.86021505376345 349.05913978494624 L 290.4569892473118 349.3279569892473 L 290.18817204301075 349.5967741935484 L 289.9193548387097 349.86559139784947 L 289.6505376344086 350.26881720430106 L 288.30645161290323 350.26881720430106 L 288.44086021505376 349.73118279569894 L 288.7096774193549 349.19354838709677 L 288.97849462365593 348.7903225806452 L 289.51612903225805 348.38709677419354 L 289.9193548387097 348.1182795698925 L 290.59139784946234 347.8494623655914 L 291.1290322580645 347.71505376344084 L 291.93548387096774 347.71505376344084 Z" fill="none" stroke="#f2eda1" stroke-width="1.3440860215053765" stroke-linecap="round" stroke-linejoin="round" data-pcb-component-id="null" data-pcb-silkscreen-path-id="pcb_silkscreen_path_12" data-type="pcb_silkscreen_path" data-pcb-layer="top"/><path class="pcb-silkscreen pcb-silkscreen-top" d="M 285.2150537634409 347.8494623655914 L 286.55913978494624 347.8494623655914 L 286.55913978494624 359.81182795698925 L 285.2150537634409 359.81182795698925 L 285.2150537634409 347.8494623655914 Z" fill="none" stroke="#f2eda1" stroke-width="1.3440860215053765" stroke-linecap="round" stroke-linejoin="round" data-pcb-component-id="null" data-pcb-silkscreen-path-id="pcb_silkscreen_path_13" data-type="pcb_silkscreen_path" data-pcb-layer="top"/><path class="pcb-silkscreen pcb-silkscreen-top" d="M 279.5698924731183 347.71505376344084 L 280.241935483871 347.71505376344084 L 280.7795698924731 347.8494623655914 L 281.31720430107526 347.98387096774195 L 281.72043010752685 348.252688172043 L 282.1236559139785 348.52150537634407 L 282.5268817204301 348.9247311827957 L 282.93010752688167 349.3279569892473 L 283.1989247311828 349.73118279569894 L 283.3333333333333 350.26881720430106 L 283.4677419354839 350.80645161290323 L 283.60215053763443 351.47849462365593 L 283.60215053763443 352.1505376344086 L 283.60215053763443 352.8225806451613 L 283.4677419354839 353.36021505376345 L 283.3333333333333 354.0322580645161 L 283.1989247311828 354.5698924731183 L 282.93010752688167 354.9731182795699 L 282.5268817204301 355.3763440860215 L 282.258064516129 355.77956989247315 L 281.72043010752685 356.0483870967742 L 281.31720430107526 356.31720430107526 L 280.7795698924731 356.5860215053763 L 280.241935483871 356.5860215053763 L 279.7043010752688 356.7204301075269 L 279.16666666666663 356.5860215053763 L 278.6290322580645 356.5860215053763 L 278.09139784946234 356.31720430107526 L 277.68817204301075 356.18279569892474 L 277.2849462365591 355.77956989247315 L 276.8817204301075 355.51075268817203 L 276.61290322580646 355.10752688172045 L 276.3440860215054 354.5698924731183 L 276.2096774193548 354.0322580645161 L 276.0752688172043 353.494623655914 L 275.94086021505376 352.9569892473118 L 275.94086021505376 352.28494623655916 L 275.94086021505376 351.747311827957 L 282.93010752688167 351.747311827957 L 282.93010752688167 352.9569892473118 L 276.61290322580646 352.9569892473118 L 277.2849462365591 352.4193548387097 L 277.4193548387097 352.9569892473118 L 277.5537634408602 353.76344086021504 L 277.8225806451613 354.43548387096774 L 278.2258064516129 354.8387096774194 L 278.76344086021504 355.241935483871 L 279.43548387096774 355.3763440860215 L 279.7043010752688 355.3763440860215 L 280.10752688172045 355.3763440860215 L 280.64516129032256 355.241935483871 L 281.18279569892474 354.8387096774194 L 281.72043010752685 354.3010752688172 L 281.98924731182797 353.76344086021504 L 282.1236559139785 352.8225806451613 L 282.1236559139785 352.4193548387097 L 282.1236559139785 351.47849462365593 L 281.98924731182797 350.6720430107527 L 281.72043010752685 350 L 281.4516129032258 349.73118279569894 L 280.9139784946237 349.3279569892473 L 280.3763440860215 349.05913978494624 L 279.5698924731183 348.9247311827957 L 279.0322580645161 348.9247311827957 L 278.6290322580645 349.05913978494624 L 278.2258064516129 349.3279569892473 L 277.8225806451613 349.5967741935484 L 277.68817204301075 349.86559139784947 L 277.4193548387097 350.26881720430106 L 275.94086021505376 350.26881720430106 L 276.2096774193548 349.73118279569894 L 276.47849462365593 349.19354838709677 L 276.747311827957 348.7903225806452 L 277.1505376344086 348.38709677419354 L 277.68817204301075 348.1182795698925 L 278.36021505376345 347.8494623655914 L 278.89784946236557 347.71505376344084 L 279.5698924731183 347.71505376344084 Z" fill="none" stroke="#f2eda1" stroke-width="1.3440860215053765" stroke-linecap="round" stroke-linejoin="round" data-pcb-component-id="null" data-pcb-silkscreen-path-id="pcb_silkscreen_path_14" data-type="pcb_silkscreen_path" data-pcb-layer="top"/><path class="pcb-silkscreen pcb-silkscreen-top" d="M 272.98387096774195 347.8494623655914 L 274.4623655913978 347.8494623655914 L 274.4623655913978 356.4516129032258 L 272.98387096774195 356.4516129032258 L 272.98387096774195 355.241935483871 L 272.84946236559136 355.51075268817203 L 272.5806451612903 355.77956989247315 L 272.31182795698925 356.0483870967742 L 272.0430107526882 356.31720430107526 L 271.63978494623655 356.4516129032258 L 271.3709677419355 356.5860215053763 L 270.9677419354839 356.5860215053763 L 270.56451612903226 356.7204301075269 L 270.29569892473114 356.7204301075269 L 270.0268817204301 356.5860215053763 L 269.48924731182797 356.4516129032258 L 269.0860215053763 356.18279569892474 L 268.81720430107526 356.0483870967742 L 268.5483870967742 355.77956989247315 L 268.2795698924731 355.241935483871 L 268.14516129032256 354.9731182795699 L 268.01075268817203 355.241935483871 L 267.60752688172045 355.64516129032256 L 267.2043010752688 356.0483870967742 L 266.80107526881716 356.31720430107526 L 266.26344086021504 356.5860215053763 L 265.7258064516129 356.7204301075269 L 265.3225806451613 356.7204301075269 L 264.91935483870964 356.5860215053763 L 264.247311827957 356.4516129032258 L 263.5752688172043 356.18279569892474 L 263.0376344086021 355.64516129032256 L 262.76881720430106 354.9731182795699 L 262.5 354.3010752688172 L 262.5 353.76344086021504 L 262.5 347.8494623655914 L 263.97849462365593 347.8494623655914 L 263.97849462365593 353.494623655914 L 264.11290322580646 354.0322580645161 L 264.247311827957 354.5698924731183 L 264.51612903225805 354.8387096774194 L 264.7849462365591 355.10752688172045 L 265.3225806451613 355.3763440860215 L 265.86021505376345 355.3763440860215 L 266.39784946236557 355.3763440860215 L 266.80107526881716 355.10752688172045 L 267.2043010752688 354.8387096774194 L 267.4731182795699 354.43548387096774 L 267.741935483871 353.89784946236557 L 267.741935483871 353.36021505376345 L 267.741935483871 347.8494623655914 L 269.2204301075269 347.8494623655914 L 269.2204301075269 353.6290322580645 L 269.35483870967744 354.3010752688172 L 269.6236559139785 354.7043010752688 L 269.89247311827955 355.10752688172045 L 270.29569892473114 355.241935483871 L 270.69892473118284 355.3763440860215 L 270.9677419354839 355.3763440860215 L 271.505376344086 355.3763440860215 L 272.0430107526882 355.10752688172045 L 272.4462365591398 354.8387096774194 L 272.71505376344084 354.3010752688172 L 272.98387096774195 353.89784946236557 L 272.98387096774195 353.2258064516129 L 272.98387096774195 347.8494623655914 Z" fill="none" stroke="#f2eda1" stroke-width="1.3440860215053765" stroke-linecap="round" stroke-linejoin="round" data-pcb-component-id="null" data-pcb-silkscreen-path-id="pcb_silkscreen_path_15" data-type="pcb_silkscreen_path" data-pcb-layer="top"/><path class="pcb-silkscreen pcb-silkscreen-top" d="M 257.1236559139785 347.71505376344084 L 257.6612903225806 347.71505376344084 L 258.33333333333337 347.8494623655914 L 258.73655913978496 347.98387096774195 L 259.2741935483871 348.252688172043 L 259.6774193548387 348.52150537634407 L 260.0806451612903 348.9247311827957 L 260.3494623655914 349.3279569892473 L 260.6182795698925 349.73118279569894 L 260.88709677419354 350.26881720430106 L 261.02150537634407 350.80645161290323 L 261.1559139784946 351.47849462365593 L 261.1559139784946 352.1505376344086 L 261.1559139784946 352.8225806451613 L 261.02150537634407 353.36021505376345 L 260.88709677419354 354.0322580645161 L 260.6182795698925 354.5698924731183 L 260.3494623655914 354.9731182795699 L 260.0806451612903 355.3763440860215 L 259.6774193548387 355.77956989247315 L 259.2741935483871 356.0483870967742 L 258.8709677419355 356.31720430107526 L 258.33333333333337 356.5860215053763 L 257.79569892473114 356.5860215053763 L 257.258064516129 356.7204301075269 L 256.5860215053764 356.5860215053763 L 256.04838709677415 356.5860215053763 L 255.64516129032256 356.31720430107526 L 255.10752688172045 356.18279569892474 L 254.7043010752688 355.77956989247315 L 254.43548387096774 355.51075268817203 L 254.16666666666666 355.10752688172045 L 253.8978494623656 354.5698924731183 L 253.6290322580645 354.0322580645161 L 253.49462365591395 353.494623655914 L 253.36021505376343 352.9569892473118 L 253.36021505376343 352.28494623655916 L 253.36021505376343 351.747311827957 L 260.3494623655914 351.747311827957 L 260.3494623655914 352.9569892473118 L 254.16666666666666 352.9569892473118 L 254.83870967741933 352.4193548387097 L 254.83870967741933 352.9569892473118 L 254.9731182795699 353.76344086021504 L 255.3763440860215 354.43548387096774 L 255.77956989247312 354.8387096774194 L 256.31720430107526 355.241935483871 L 256.85483870967744 355.3763440860215 L 257.258064516129 355.3763440860215 L 257.5268817204301 355.3763440860215 L 258.1989247311828 355.241935483871 L 258.73655913978496 354.8387096774194 L 259.13978494623655 354.3010752688172 L 259.4086021505376 353.76344086021504 L 259.6774193548387 352.8225806451613 L 259.6774193548387 352.4193548387097 L 259.6774193548387 351.47849462365593 L 259.5430107526882 350.6720430107527 L 259.13978494623655 350 L 259.005376344086 349.73118279569894 L 258.4677419354839 349.3279569892473 L 258.1989247311828 349.19354838709677 L 257.5268817204301 348.9247311827957 L 257.1236559139785 348.9247311827957 L 256.5860215053764 348.9247311827957 L 256.04838709677415 349.05913978494624 L 255.64516129032256 349.3279569892473 L 255.3763440860215 349.5967741935484 L 255.10752688172045 349.86559139784947 L 254.9731182795699 350.26881720430106 L 253.49462365591395 350.26881720430106 L 253.6290322580645 349.73118279569894 L 253.8978494623656 349.19354838709677 L 254.30107526881721 348.7903225806452 L 254.7043010752688 348.38709677419354 L 255.24193548387098 348.1182795698925 L 255.77956989247312 347.8494623655914 L 256.4516129032258 347.71505376344084 L 257.1236559139785 347.71505376344084 Z" fill="none" stroke="#f2eda1" stroke-width="1.3440860215053765" stroke-linecap="round" stroke-linejoin="round" data-pcb-component-id="null" data-pcb-silkscreen-path-id="pcb_silkscreen_path_16" data-type="pcb_silkscreen_path" data-pcb-layer="top"/><path class="pcb-silkscreen pcb-silkscreen-top" d="M 249.0591397849462 347.71505376344084 L 249.7311827956989 347.71505376344084 L 250.13440860215053 347.8494623655914 L 250.53763440860214 347.98387096774195 L 250.94086021505376 348.252688172043 L 251.20967741935482 348.52150537634407 L 251.34408602150538 348.9247311827957 L 251.4784946236559 349.4623655913979 L 251.4784946236559 350 L 251.4784946236559 355.241935483871 L 252.82258064516128 355.241935483871 L 252.82258064516128 356.4516129032258 L 251.4784946236559 356.4516129032258 L 251.4784946236559 358.8709677419355 L 250 358.8709677419355 L 250 356.4516129032258 L 248.38709677419354 356.4516129032258 L 248.38709677419354 355.241935483871 L 250 355.241935483871 L 250 350 L 249.86559139784947 349.4623655913979 L 249.7311827956989 349.05913978494624 L 249.3279569892473 348.9247311827957 L 249.0591397849462 348.9247311827957 L 248.79032258064515 348.7903225806452 L 248.38709677419354 348.9247311827957 L 248.38709677419354 347.71505376344084 L 248.5215053763441 347.71505376344084 L 248.79032258064515 347.71505376344084 L 249.0591397849462 347.71505376344084 Z" fill="none" stroke="#f2eda1" stroke-width="1.3440860215053765" stroke-linecap="round" stroke-linejoin="round" data-pcb-component-id="null" data-pcb-silkscreen-path-id="pcb_silkscreen_path_17" data-type="pcb_silkscreen_path" data-pcb-layer="top"/><path class="pcb-silkscreen pcb-silkscreen-top" d="M 245.29569892473117 347.8494623655914 L 246.77419354838707 347.8494623655914 L 246.77419354838707 356.4516129032258 L 245.29569892473117 356.4516129032258 L 245.29569892473117 354.9731182795699 L 245.16129032258064 355.3763440860215 L 244.75806451612902 356.0483870967742 L 244.22043010752688 356.4516129032258 L 243.68279569892474 356.5860215053763 L 243.27956989247312 356.7204301075269 L 243.01075268817203 356.7204301075269 L 242.74193548387098 356.5860215053763 L 242.74193548387098 355.241935483871 L 243.01075268817203 355.241935483871 L 243.27956989247312 355.241935483871 L 243.68279569892474 355.241935483871 L 244.22043010752688 355.10752688172045 L 244.6236559139785 354.8387096774194 L 245.0268817204301 354.5698924731183 L 245.16129032258064 354.0322580645161 L 245.29569892473117 353.494623655914 L 245.29569892473117 353.2258064516129 L 245.29569892473117 347.8494623655914 Z" fill="none" stroke="#f2eda1" stroke-width="1.3440860215053765" stroke-linecap="round" stroke-linejoin="round" data-pcb-component-id="null" data-pcb-silkscreen-path-id="pcb_silkscreen_path_18" data-type="pcb_silkscreen_path" data-pcb-layer="top"/><path class="pcb-silkscreen pcb-silkscreen-top" d="M 237.9032258064516 347.71505376344084 L 238.44086021505376 347.71505376344084 L 238.9784946236559 347.8494623655914 L 239.51612903225808 347.98387096774195 L 240.0537634408602 348.252688172043 L 240.4569892473118 348.52150537634407 L 240.86021505376343 348.9247311827957 L 241.1290322580645 349.3279569892473 L 241.39784946236557 349.73118279569894 L 241.66666666666666 350.26881720430106 L 241.80107526881721 350.94086021505376 L 241.93548387096774 351.47849462365593 L 241.93548387096774 352.1505376344086 L 241.93548387096774 352.8225806451613 L 241.80107526881721 353.494623655914 L 241.66666666666666 354.0322580645161 L 241.39784946236557 354.5698924731183 L 241.1290322580645 355.10752688172045 L 240.86021505376343 355.51075268817203 L 240.4569892473118 355.77956989247315 L 240.0537634408602 356.18279569892474 L 239.51612903225808 356.31720430107526 L 238.9784946236559 356.5860215053763 L 238.44086021505376 356.5860215053763 L 237.9032258064516 356.7204301075269 L 237.36559139784947 356.5860215053763 L 236.8279569892473 356.5860215053763 L 236.29032258064515 356.31720430107526 L 235.752688172043 356.18279569892474 L 235.3494623655914 355.77956989247315 L 234.94623655913978 355.51075268817203 L 234.6774193548387 355.10752688172045 L 234.40860215053763 354.5698924731183 L 234.13978494623655 354.0322580645161 L 234.00537634408602 353.494623655914 L 233.8709677419355 352.8225806451613 L 233.8709677419355 352.1505376344086 L 233.8709677419355 351.47849462365593 L 234.00537634408602 350.80645161290323 L 234.13978494623655 350.26881720430106 L 234.40860215053763 349.73118279569894 L 234.6774193548387 349.3279569892473 L 234.94623655913978 348.9247311827957 L 235.3494623655914 348.52150537634407 L 235.752688172043 348.252688172043 L 236.29032258064515 347.98387096774195 L 236.8279569892473 347.8494623655914 L 237.36559139784947 347.71505376344084 L 237.9032258064516 347.71505376344084 Z" fill="none" stroke="#f2eda1" stroke-width="1.3440860215053765" stroke-linecap="round" stroke-linejoin="round" data-pcb-component-id="null" data-pcb-silkscreen-path-id="pcb_silkscreen_path_19" data-type="pcb_silkscreen_path" data-pcb-layer="top"/><path class="pcb-silkscreen pcb-silkscreen-top" d="M 237.9032258064516 348.9247311827957 L 237.5 348.9247311827957 L 236.8279569892473 349.19354838709677 L 236.29032258064515 349.5967741935484 L 235.88709677419354 350.13440860215053 L 235.61827956989245 350.80645161290323 L 235.3494623655914 351.61290322580646 L 235.3494623655914 352.1505376344086 L 235.3494623655914 352.68817204301075 L 235.61827956989245 353.494623655914 L 235.88709677419354 354.3010752688172 L 236.29032258064515 354.8387096774194 L 236.8279569892473 355.241935483871 L 237.5 355.3763440860215 L 237.9032258064516 355.3763440860215 L 238.30645161290323 355.3763440860215 L 238.9784946236559 355.10752688172045 L 239.51612903225808 354.8387096774194 L 239.91935483870967 354.3010752688172 L 240.3225806451613 353.494623655914 L 240.4569892473118 352.68817204301075 L 240.4569892473118 352.1505376344086 L 240.4569892473118 351.61290322580646 L 240.3225806451613 350.80645161290323 L 239.91935483870967 350.13440860215053 L 239.51612903225808 349.5967741935484 L 238.9784946236559 349.19354838709677 L 238.30645161290323 348.9247311827957 L 237.9032258064516 348.9247311827957 Z" fill="none" stroke="#f2eda1" stroke-width="1.3440860215053765" stroke-linecap="round" stroke-linejoin="round" data-pcb-component-id="null" data-pcb-silkscreen-path-id="pcb_silkscreen_path_20" data-type="pcb_silkscreen_path" data-pcb-layer="top"/><path class="pcb-silkscreen pcb-silkscreen-top" d="M 231.04838709677418 347.8494623655914 L 232.39247311827955 347.8494623655914 L 232.39247311827955 356.4516129032258 L 231.04838709677418 356.4516129032258 L 231.04838709677418 355.241935483871 L 230.77956989247312 355.51075268817203 L 230.24193548387098 356.0483870967742 L 229.56989247311827 356.4516129032258 L 228.76344086021504 356.5860215053763 L 228.2258064516129 356.7204301075269 L 227.5537634408602 356.5860215053763 L 226.4784946236559 356.18279569892474 L 225.67204301075267 355.3763440860215 L 225.26881720430106 354.1666666666667 L 225.26881720430106 353.494623655914 L 225.26881720430106 347.8494623655914 L 226.74731182795696 347.8494623655914 L 226.74731182795696 353.2258064516129 L 226.88172043010752 354.1666666666667 L 227.28494623655914 354.8387096774194 L 227.82258064516128 355.241935483871 L 228.2258064516129 355.3763440860215 L 228.76344086021504 355.3763440860215 L 229.30107526881721 355.3763440860215 L 229.9731182795699 355.10752688172045 L 230.37634408602148 354.7043010752688 L 230.6451612903226 354.1666666666667 L 230.91397849462365 353.6290322580645 L 231.04838709677418 352.9569892473118 L 231.04838709677418 347.8494623655914 Z" fill="none" stroke="#f2eda1" stroke-width="1.3440860215053765" stroke-linecap="round" stroke-linejoin="round" data-pcb-component-id="null" data-pcb-silkscreen-path-id="pcb_silkscreen_path_21" data-type="pcb_silkscreen_path" data-pcb-layer="top"/><g data-type="pcb_plated_hole" data-pcb-layer="through"><circle class="pcb-hole-outer" fill="rgb(200, 52, 52)" cx="382.9301075268817" cy="434.4086021505376" r="12.096774193548388" data-type="pcb_plated_hole" data-pcb-layer="top"/><circle class="pcb-hole-inner" fill="#FF26E2" cx="382.9301075268817" cy="434.4086021505376" r="6.720430107526882" data-type="pcb_plated_hole_drill" data-pcb-layer="drill"/></g><g data-type="pcb_plated_hole" data-pcb-layer="through"><circle class="pcb-hole-outer" fill="rgb(200, 52, 52)" cx="417.0698924731183" cy="434.4086021505376" r="12.096774193548388" data-type="pcb_plated_hole" data-pcb-layer="top"/><circle class="pcb-hole-inner" fill="#FF26E2" cx="417.0698924731183" cy="434.4086021505376" r="6.720430107526882" data-type="pcb_plated_hole_drill" data-pcb-layer="drill"/></g><g data-type="pcb_via" data-pcb-layer="through"><circle class="pcb-hole-outer" fill="rgb(200, 52, 52)" cx="528.7802419354839" cy="422.98387096774195" r="2.0161290322580645" data-type="pcb_via" data-pcb-layer="top"/><circle class="pcb-hole-inner" fill="#FF26E2" cx="528.7802419354839" cy="422.98387096774195" r="1.3440860215053765" data-type="pcb_via" data-pcb-layer="drill"/></g><g data-type="pcb_via" data-pcb-layer="through"><circle class="pcb-hole-outer" fill="rgb(200, 52, 52)" cx="360.31586021505376" cy="260.3494623655914" r="2.0161290322580645" data-type="pcb_via" data-pcb-layer="top"/><circle class="pcb-hole-inner" fill="#FF26E2" cx="360.31586021505376" cy="260.3494623655914" r="1.3440860215053765" data-type="pcb_via" data-pcb-layer="drill"/></g><g data-type="pcb_via" data-pcb-layer="through"><circle class="pcb-hole-outer" fill="rgb(200, 52, 52)" cx="561.2903225806451" cy="375.26881720430106" r="2.0161290322580645" data-type="pcb_via" data-pcb-layer="top"/><circle class="pcb-hole-inner" fill="#FF26E2" cx="561.2903225806451" cy="375.26881720430106" r="1.3440860215053765" data-type="pcb_via" data-pcb-layer="drill"/></g><circle class="pcb-hole" cx="400" cy="515.0537634408602" r="16.801075268817204" fill="#FF26E2" data-type="pcb_hole" data-pcb-layer="drill"/></svg>