<svg xmlns="http://www.w3.org/2000/svg" width="600" height="539" viewBox="-24.5 -22 49 44"><rect fill="#111" x="-24.5" y="-22" width="49" height="44"/><path d="M0 -20 L0.26 -19.99 L0.52 -19.96 L0.79 -19.91 L1.05 -19.84 L1.31 -19.77 L1.56 -19.68 L1.79 -19.59 L2 -19.5 L2.19 -19.4 L2.37 -19.3 L2.53 -19.19 L2.69 -19.07 L2.83 -18.95 L2.96 -18.81 L3.08 -18.66 L3.2 -18.5 L3.31 -18.32 L3.4 -18.11 L3.49 -17.9 L3.56 -17.67 L3.63 -17.44 L3.69 -17.21 L3.75 -17 L3.8 -16.8 L3.85 -16.61 L3.88 -16.42 L3.91 -16.24 L3.93 -16.06 L3.95 -15.9 L3.97 -15.75 L3.98 -15.61 L4 -15.5 L4.01 -15.41 L4.02 -15.35 L4.03 -15.31 L4.03 -15.28 L4.03 -15.26 L4.04 -15.24 L4.04 -15.23 L4.05 -15.2 L4.06 -15.17 L4.07 -15.14 L4.08 -15.12 L4.09 -15.09 L4.11 -15.07 L4.12 -15.04 L4.13 -15.02 L4.15 -15 L4.17 -14.98 L4.18 -14.96 L4.2 -14.94 L4.21 -14.93 L4.23 -14.91 L4.25 -14.89 L4.28 -14.87 L4.3 -14.85 L4.32 -14.81 L4.31 -14.76 L4.31 -14.7 L4.31 -14.65 L4.32 -14.6 L4.37 -14.57 L4.44 -14.58 L4.57 -14.62 L4.75 -14.71 L4.97 -14.84 L5.23 -15.01 L5.52 -15.19 L5.82 -15.38 L6.13 -15.57 L6.44 -15.74 L6.74 -15.88 L7.04 -16 L7.34 -16.12 L7.65 -16.22 L7.96 -16.32 L8.28 -16.41 L8.6 -16.49 L8.92 -16.56 L9.24 -16.62 L9.57 -16.67 L9.89 -16.71 L10.23 -16.74 L10.56 -16.76 L10.9 -16.77 L11.24 -16.76 L11.57 -16.75 L11.91 -16.73 L12.25 -16.7 L12.59 -16.65 L12.93 -16.6 L13.27 -16.53 L13.61 -16.46 L13.94 -16.37 L14.28 -16.28 L14.61 -16.17 L14.94 -16.05 L15.27 -15.93 L15.59 -15.79 L15.92 -15.64 L16.24 -15.48 L16.55 -15.32 L16.86 -15.14 L17.16 -14.96 L17.45 -14.77 L17.74 -14.57 L18.03 -14.35 L18.31 -14.13 L18.58 -13.91 L18.85 -13.67 L19.1 -13.43 L19.35 -13.18 L19.59 -12.92 L19.82 -12.66 L20.05 -12.39 L20.27 -12.11 L20.48 -11.82 L20.68 -11.53 L20.87 -11.24 L21.05 -10.94 L21.22 -10.64 L21.38 -10.32 L21.53 -10.01 L21.67 -9.69 L21.8 -9.36 L21.92 -9.03 L22.03 -8.7 L22.13 -8.37 L22.22 -8.04 L22.29 -7.7 L22.35 -7.35 L22.41 -7.01 L22.45 -6.66 L22.48 -6.32 L22.49 -5.97 L22.5 -5.62 L22.49 -5.27 L22.48 -4.92 L22.45 -4.57 L22.41 -4.22 L22.35 -3.86 L22.29 -3.51 L22.22 -3.16 L22.13 -2.81 L22.03 -2.46 L21.92 -2.11 L21.8 -1.76 L21.67 -1.41 L21.53 -1.07 L21.38 -0.72 L21.22 -0.37 L21.05 -0.03 L20.87 0.31 L20.68 0.65 L20.48 0.99 L20.27 1.33 L20.05 1.67 L19.82 2 L19.59 2.34 L19.35 2.67 L19.1 3 L18.85 3.33 L18.58 3.65 L18.31 3.98 L18.03 4.3 L17.74 4.62 L17.45 4.94 L17.16 5.26 L16.86 5.58 L16.55 5.89 L16.24 6.2 L15.92 6.51 L15.59 6.82 L15.27 7.12 L14.94 7.43 L14.61 7.73 L14.28 8.03 L13.94 8.33 L13.61 8.63 L13.27 8.93 L12.93 9.23 L12.59 9.52 L12.25 9.82 L11.91 10.11 L11.57 10.4 L11.24 10.69 L10.9 10.98 L10.56 11.27 L10.23 11.55 L9.89 11.84 L9.57 12.12 L9.24 12.4 L8.92 12.68 L8.6 12.96 L8.28 13.24 L7.96 13.51 L7.65 13.79 L7.34 14.06 L7.04 14.33 L6.74 14.6 L6.45 14.87 L6.16 15.13 L5.88 15.4 L5.61 15.66 L5.34 15.92 L5.08 16.18 L4.82 16.44 L4.57 16.69 L4.33 16.95 L4.08 17.22 L3.85 17.48 L3.62 17.75 L3.4 18 L3.19 18.24 L2.99 18.46 L2.81 18.65 L2.65 18.81 L2.5 18.95 L2.36 19.07 L2.23 19.18 L2.12 19.27 L2.01 19.35 L1.9 19.43 L1.8 19.5 L1.71 19.56 L1.62 19.62 L1.54 19.66 L1.47 19.69 L1.41 19.72 L1.34 19.75 L1.27 19.77 L1.2 19.8 L1.13 19.83 L1.05 19.85 L0.97 19.87 L0.9 19.89 L0.83 19.91 L0.75 19.92 L0.67 19.94 L0.6 19.95 L0.53 19.96 L0.45 19.97 L0.38 19.98 L0.3 19.99 L0.22 19.99 L0.15 20 L0.07 20 L0 20 L-0.07 20 L-0.15 20 L-0.22 19.99 L-0.3 19.99 L-0.37 19.98 L-0.45 19.97 L-0.53 19.96 L-0.6 19.95 L-0.67 19.94 L-0.75 19.92 L-0.82 19.91 L-0.9 19.89 L-0.97 19.87 L-1.05 19.85 L-1.12 19.83 L-1.2 19.8 L-1.27 19.77 L-1.34 19.75 L-1.41 19.72 L-1.47 19.69 L-1.54 19.66 L-1.62 19.62 L-1.71 19.56 L-1.8 19.5 L-1.9 19.43 L-2.01 19.35 L-2.12 19.27 L-2.23 19.18 L-2.36 19.07 L-2.5 18.95 L-2.65 18.81 L-2.81 18.65 L-2.99 18.46 L-3.19 18.24 L-3.4 18 L-3.62 17.75 L-3.85 17.48 L-4.08 17.22 L-4.33 16.95 L-4.57 16.69 L-4.82 16.44 L-5.08 16.18 L-5.34 15.92 L-5.61 15.66 L-5.88 15.4 L-6.16 15.13 L-6.45 14.87 L-6.74 14.6 L-7.04 14.33 L-7.34 14.06 L-7.65 13.79 L-7.96 13.51 L-8.28 13.24 L-8.6 12.96 L-8.92 12.68 L-9.24 12.4 L-9.57 12.12 L-9.89 11.84 L-10.23 11.55 L-10.56 11.27 L-10.9 10.98 L-11.24 10.69 L-11.57 10.4 L-11.91 10.11 L-12.25 9.82 L-12.59 9.52 L-12.93 9.23 L-13.27 8.93 L-13.61 8.63 L-13.94 8.33 L-14.28 8.03 L-14.61 7.73 L-14.94 7.43 L-15.27 7.12 L-15.59 6.82 L-15.92 6.51 L-16.24 6.2 L-16.55 5.89 L-16.86 5.58 L-17.16 5.26 L-17.45 4.94 L-17.74 4.62 L-18.03 4.3 L-18.31 3.98 L-18.58 3.65 L-18.85 3.33 L-19.1 3 L-19.35 2.67 L-19.59 2.34 L-19.82 2 L-20.05 1.67 L-20.27 1.33 L-20.48 0.99 L-20.68 0.65 L-20.87 0.31 L-21.05 -0.03 L-21.22 -0.37 L-21.38 -0.72 L-21.53 -1.07 L-21.67 -1.41 L-21.8 -1.76 L-21.92 -2.11 L-22.03 -2.46 L-22.13 -2.81 L-22.22 -3.16 L-22.29 -3.51 L-22.35 -3.86 L-22.41 -4.22 L-22.45 -4.57 L-22.48 -4.92 L-22.49 -5.27 L-22.5 -5.62 L-22.49 -5.97 L-22.48 -6.32 L-22.45 -6.66 L-22.41 -7.01 L-22.35 -7.35 L-22.29 -7.7 L-22.22 -8.04 L-22.13 -8.37 L-22.03 -8.7 L-21.92 -9.03 L-21.8 -9.36 L-21.67 -9.69 L-21.53 -10.01 L-21.38 -10.32 L-21.22 -10.64 L-21.05 -10.94 L-20.87 -11.24 L-20.68 -11.53 L-20.48 -11.82 L-20.27 -12.11 L-20.05 -12.39 L-19.82 -12.66 L-19.59 -12.92 L-19.35 -13.18 L-19.1 -13.43 L-18.85 -13.67 L-18.58 -13.91 L-18.31 -14.13 L-18.03 -14.35 L-17.74 -14.57 L-17.45 -14.77 L-17.16 -14.96 L-16.86 -15.14 L-16.55 -15.32 L-16.24 -15.48 L-15.92 -15.64 L-15.59 -15.79 L-15.27 -15.93 L-14.94 -16.05 L-14.61 -16.17 L-14.28 -16.28 L-13.94 -16.37 L-13.61 -16.46 L-13.27 -16.53 L-12.93 -16.6 L-12.59 -16.65 L-12.25 -16.7 L-11.91 -16.73 L-11.57 -16.75 L-11.24 -16.76 L-10.9 -16.77 L-10.56 -16.76 L-10.23 -16.74 L-9.89 -16.71 L-9.57 -16.67 L-9.24 -16.62 L-8.92 -16.56 L-8.6 -16.49 L-8.28 -16.41 L-7.96 -16.32 L-7.65 -16.22 L-7.34 -16.12 L-7.04 -16 L-6.74 -15.88 L-6.44 -15.74 L-6.13 -15.57 L-5.82 -15.38 L-5.52 -15.19 L-5.23 -15.01 L-4.97 -14.84 L-4.75 -14.71 L-4.57 -14.62 L-4.44 -14.58 L-4.37 -14.57 L-4.32 -14.6 L-4.31 -14.65 L-4.31 -14.7 L-4.31 -14.76 L-4.32 -14.81 L-4.3 -14.85 L-4.28 -14.87 L-4.25 -14.89 L-4.23 -14.91 L-4.21 -14.93 L-4.2 -14.94 L-4.18 -14.96 L-4.17 -14.98 L-4.15 -15 L-4.13 -15.02 L-4.12 -15.04 L-4.11 -15.07 L-4.09 -15.09 L-4.08 -15.12 L-4.07 -15.14 L-4.06 -15.17 L-4.05 -15.2 L-4.04 -15.23 L-4.04 -15.24 L-4.03 -15.26 L-4.03 -15.28 L-4.03 -15.31 L-4.02 -15.35 L-4.01 -15.41 L-4 -15.5 L-3.98 -15.61 L-3.97 -15.75 L-3.95 -15.9 L-3.93 -16.06 L-3.91 -16.24 L-3.88 -16.42 L-3.85 -16.61 L-3.8 -16.8 L-3.75 -17 L-3.69 -17.21 L-3.63 -17.44 L-3.56 -17.67 L-3.49 -17.9 L-3.4 -18.11 L-3.31 -18.32 L-3.2 -18.5 L-3.08 -18.66 L-2.96 -18.81 L-2.83 -18.95 L-2.69 -19.07 L-2.53 -19.19 L-2.37 -19.3 L-2.19 -19.4 L-2 -19.5 L-1.79 -19.59 L-1.56 -19.68 L-1.31 -19.77 L-1.05 -19.84 L-0.79 -19.91 L-0.52 -19.96 L-0.26 -19.99Z" fill="none" stroke="white" stroke-width="0.3"/></svg>