<svg xmlns="http://www.w3.org/2000/svg" width="800" height="600" data-software-used-string="@tscircuit/core@0.0.1112"><style></style><rect class="boundary" x="0" y="0" fill="#000" width="800" height="600" data-type="pcb_background" data-pcb-layer="global"/><rect class="pcb-boundary" fill="none" stroke="#fff" stroke-width="0.3" x="78.57142857142856" y="14.285714285714278" width="642.8571428571429" height="571.4285714285716" data-type="pcb_boundary" data-pcb-layer="global"/><path class="pcb-board" d="M 400 585.7142857142858 L 428.57142857142856 578.5714285714287 L 445.7142857142857 564.2857142857142 L 454.2857142857143 540 L 457.14285714285717 521.4285714285714 L 457.14285714285717 500 L 450 486 L 465.2857142857143 508.8571428571429 L 496.2857142857143 526.8571428571429 L 532 537.4285714285714 L 570.1428571428571 539 L 608.7142857142858 531 L 645.1428571428571 513.7142857142858 L 676.4285714285714 488.2857142857143 L 700.7142857142858 456.2857142857143 L 716.1428571428571 419.57142857142856 L 721.4285714285714 380.2857142857143 L 716.1428571428571 340.14285714285717 L 700.7142857142858 300.42857142857144 L 676.4285714285714 261.85714285714283 L 645.1428571428571 224.85714285714286 L 608.7142857142858 189.57142857142856 L 570.1428571428571 155.57142857142858 L 532 122.85714285714283 L 496.2857142857143 91.42857142857142 L 465.2857142857143 61.57142857142853 L 440.14285714285717 33.571428571428555 L 425.7142857142857 21.428571428571388 L 417.14285714285717 17.14285714285711 L 408.57142857142856 15 L 400 14.285714285714278 L 391.42857142857144 15 L 382.85714285714283 17.14285714285711 L 374.2857142857143 21.428571428571388 L 359.85714285714283 33.571428571428555 L 334.7142857142857 61.57142857142853 L 303.7142857142857 91.42857142857142 L 268 122.85714285714283 L 229.85714285714283 155.57142857142858 L 191.28571428571428 189.57142857142856 L 154.85714285714283 224.85714285714286 L 123.57142857142856 261.85714285714283 L 99.28571428571428 300.42857142857144 L 83.85714285714283 340.14285714285717 L 78.57142857142856 380.2857142857143 L 83.85714285714283 419.57142857142856 L 99.28571428571428 456.2857142857143 L 123.57142857142856 488.2857142857143 L 154.85714285714283 513.7142857142858 L 191.28571428571428 531 L 229.85714285714283 539 L 268 537.4285714285714 L 303.7142857142857 526.8571428571429 L 334.7142857142857 508.8571428571429 L 350 486 L 342.85714285714283 500 L 342.85714285714283 521.4285714285714 L 345.7142857142857 540 L 354.2857142857143 564.2857142857142 L 371.42857142857144 578.5714285714287 Z" fill="none" stroke="rgba(255, 255, 255, 0.5)" stroke-width="1.4285714285714288" data-type="pcb_board" data-pcb-layer="board"/><path class="pcb-trace" stroke="rgb(77, 127, 196)" fill="none" d="M 457.14285714285717 420 L 457.14285714285717 420" stroke-width="2.142857142857143" stroke-linecap="round" stroke-linejoin="round" shape-rendering="crispEdges" data-type="pcb_trace" data-pcb-layer="bottom"/><path class="pcb-trace" stroke="rgb(77, 127, 196)" fill="none" d="M 457.14285714285717 420 L 526.028293350158 420" stroke-width="2.142857142857143" stroke-linecap="round" stroke-linejoin="round" shape-rendering="crispEdges" data-type="pcb_trace" data-pcb-layer="bottom"/><path class="pcb-trace" stroke="rgb(77, 127, 196)" fill="none" d="M 526.028293350158 420 L 536.5463999006568 430.51810655049866" stroke-width="2.142857142857143" stroke-linecap="round" stroke-linejoin="round" shape-rendering="crispEdges" data-type="pcb_trace" data-pcb-layer="bottom"/><path class="pcb-trace" stroke="rgb(77, 127, 196)" fill="none" d="M 536.5463999006568 430.51810655049866 L 536.875 430.71428571428567" stroke-width="2.142857142857143" stroke-linecap="round" stroke-linejoin="round" shape-rendering="crispEdges" data-type="pcb_trace" data-pcb-layer="bottom"/><path class="pcb-trace" stroke="rgb(77, 127, 196)" fill="none" d="M 536.875 430.71428571428567 L 536.875 430.71428571428567" stroke-width="2.142857142857143" stroke-linecap="round" stroke-linejoin="round" shape-rendering="crispEdges" data-type="pcb_trace" data-pcb-layer="bottom"/><path class="pcb-trace" stroke="rgb(77, 127, 196)" fill="none" d="M 428.57142857142856 420 L 428.57142857142856 420" stroke-width="2.142857142857143" stroke-linecap="round" stroke-linejoin="round" shape-rendering="crispEdges" data-type="pcb_trace" data-pcb-layer="bottom"/><path class="pcb-trace" stroke="rgb(77, 127, 196)" fill="none" d="M 428.57142857142856 420 L 428.57142857142856 343.31832719050425" stroke-width="2.142857142857143" stroke-linecap="round" stroke-linejoin="round" shape-rendering="crispEdges" data-type="pcb_trace" data-pcb-layer="bottom"/><path class="pcb-trace" stroke="rgb(77, 127, 196)" fill="none" d="M 428.57142857142856 343.31832719050425 L 417.14285714285717 331.88975576193286" stroke-width="2.142857142857143" stroke-linecap="round" stroke-linejoin="round" shape-rendering="crispEdges" data-type="pcb_trace" data-pcb-layer="bottom"/><path class="pcb-trace" stroke="rgb(77, 127, 196)" fill="none" d="M 417.14285714285717 331.88975576193286 L 417.14285714285717 328.5714285714286" stroke-width="2.142857142857143" stroke-linecap="round" stroke-linejoin="round" shape-rendering="crispEdges" data-type="pcb_trace" data-pcb-layer="bottom"/><path class="pcb-trace" stroke="rgb(77, 127, 196)" fill="none" d="M 417.14285714285717 328.5714285714286 L 417.14285714285717 328.5714285714286" stroke-width="2.142857142857143" stroke-linecap="round" stroke-linejoin="round" shape-rendering="crispEdges" data-type="pcb_trace" data-pcb-layer="bottom"/><path class="pcb-trace" stroke="rgb(77, 127, 196)" fill="none" d="M 414.2857142857143 303.6842105263158 L 436.1842105263158 303.6842105263158" stroke-width="2.142857142857143" stroke-linecap="round" stroke-linejoin="round" shape-rendering="crispEdges" data-type="pcb_trace" data-pcb-layer="bottom"/><path class="pcb-trace" stroke="rgb(77, 127, 196)" fill="none" d="M 436.1842105263158 303.6842105263158 L 448.2142857142857 315.7142857142857" stroke-width="2.142857142857143" stroke-linecap="round" stroke-linejoin="round" shape-rendering="crispEdges" data-type="pcb_trace" data-pcb-layer="bottom"/><path class="pcb-trace" stroke="rgb(77, 127, 196)" fill="none" d="M 357.82142857142856 257.85714285714283 L 357.82142857142856 257.85714285714283" stroke-width="2.142857142857143" stroke-linecap="round" stroke-linejoin="round" shape-rendering="crispEdges" data-type="pcb_trace" data-pcb-layer="bottom"/><path class="pcb-trace" stroke="rgb(77, 127, 196)" fill="none" d="M 357.82142857142856 257.85714285714283 L 368.5 257.85714285714283" stroke-width="2.142857142857143" stroke-linecap="round" stroke-linejoin="round" shape-rendering="crispEdges" data-type="pcb_trace" data-pcb-layer="bottom"/><path class="pcb-trace" stroke="rgb(77, 127, 196)" fill="none" d="M 368.5 257.85714285714283 L 414.2857142857143 303.6428571428571" stroke-width="2.142857142857143" stroke-linecap="round" stroke-linejoin="round" shape-rendering="crispEdges" data-type="pcb_trace" data-pcb-layer="bottom"/><path class="pcb-trace" stroke="rgb(77, 127, 196)" fill="none" d="M 571.4285714285714 380 L 571.4285714285714 380" stroke-width="2.142857142857143" stroke-linecap="round" stroke-linejoin="round" shape-rendering="crispEdges" data-type="pcb_trace" data-pcb-layer="bottom"/><path class="pcb-trace" stroke="rgb(77, 127, 196)" fill="none" d="M 571.4285714285714 380 L 512.5 380" stroke-width="2.142857142857143" stroke-linecap="round" stroke-linejoin="round" shape-rendering="crispEdges" data-type="pcb_trace" data-pcb-layer="bottom"/><path class="pcb-trace" stroke="rgb(77, 127, 196)" fill="none" d="M 512.5 380 L 448.2142857142857 315.7142857142857" stroke-width="2.142857142857143" stroke-linecap="round" stroke-linejoin="round" shape-rendering="crispEdges" data-type="pcb_trace" data-pcb-layer="bottom"/><path class="pcb-silkscreen pcb-silkscreen-bottom" d="M 355 283.57142857142856 L 400 283.57142857142856 L 400 328.57142857142856 L 355 328.57142857142856 L 355 283.57142857142856 Z" fill="none" stroke="#5da9e9" stroke-width="1.4285714285714288" stroke-linecap="round" stroke-linejoin="round" data-pcb-component-id="null" data-pcb-silkscreen-path-id="pcb_silkscreen_path_22" data-type="pcb_silkscreen_path" data-pcb-layer="bottom"/><path class="pcb-silkscreen pcb-silkscreen-bottom" d="M 377.7142857142857 306.2857142857143 L 422.57142857142856 306.2857142857143 L 422.57142857142856 351.14285714285717 L 377.7142857142857 351.14285714285717 L 377.7142857142857 306.2857142857143 Z" fill="none" stroke="#5da9e9" stroke-width="1.4285714285714288" stroke-linecap="round" stroke-linejoin="round" data-pcb-component-id="null" data-pcb-silkscreen-path-id="pcb_silkscreen_path_23" data-type="pcb_silkscreen_path" data-pcb-layer="bottom"/><path class="pcb-silkscreen pcb-silkscreen-bottom" d="M 400 328.57142857142856 L 445 328.57142857142856 L 445 373.57142857142856 L 400 373.57142857142856 L 400 328.57142857142856 Z" fill="none" stroke="#5da9e9" stroke-width="1.4285714285714288" stroke-linecap="round" stroke-linejoin="round" data-pcb-component-id="null" data-pcb-silkscreen-path-id="pcb_silkscreen_path_24" data-type="pcb_silkscreen_path" data-pcb-layer="bottom"/><path class="pcb-silkscreen pcb-silkscreen-bottom" d="M 377.7142857142857 306.2857142857143 L 400 328.57142857142856" fill="none" stroke="#5da9e9" stroke-width="1.4285714285714288" stroke-linecap="round" stroke-linejoin="round" data-pcb-component-id="null" data-pcb-silkscreen-path-id="pcb_silkscreen_path_25" data-type="pcb_silkscreen_path" data-pcb-layer="bottom"/><path class="pcb-silkscreen pcb-silkscreen-bottom" d="M 400 328.57142857142856 L 422.57142857142856 351.14285714285717" fill="none" stroke="#5da9e9" stroke-width="1.4285714285714288" stroke-linecap="round" stroke-linejoin="round" data-pcb-component-id="null" data-pcb-silkscreen-path-id="pcb_silkscreen_path_26" data-type="pcb_silkscreen_path" data-pcb-layer="bottom"/><path class="pcb-silkscreen pcb-silkscreen-bottom" d="M 332.85714285714283 203 L 330 203 L 330 223.28571428571428 L 322.85714285714283 223.28571428571428 L 322.85714285714283 225.85714285714286 L 340.2857142857143 225.85714285714286 L 340.2857142857143 223.28571428571428 L 332.85714285714283 223.28571428571428 L 332.85714285714283 203 Z" fill="none" stroke="#5da9e9" stroke-width="1.4285714285714288" stroke-linecap="round" stroke-linejoin="round" data-pcb-component-id="null" data-pcb-silkscreen-path-id="pcb_silkscreen_path_27" data-type="pcb_silkscreen_path" data-pcb-layer="bottom"/><path class="pcb-silkscreen pcb-silkscreen-bottom" d="M 349.57142857142856 202.71428571428572 L 348.57142857142856 202.71428571428572 L 347.57142857142856 203 L 346.57142857142856 203.14285714285714 L 345.7142857142857 203.85714285714283 L 344.7142857142857 204.14285714285714 L 344.1428571428571 205 L 343.42857142857144 205.71428571428572 L 342.85714285714283 206.57142857142856 L 342.57142857142856 207.57142857142856 L 342.42857142857144 208.57142857142856 L 342.1428571428571 209.85714285714286 L 342.1428571428571 211.14285714285714 L 342.1428571428571 212.42857142857144 L 342.42857142857144 213.42857142857144 L 342.57142857142856 214.85714285714283 L 342.85714285714283 215.85714285714286 L 343.42857142857144 216.57142857142856 L 344.1428571428571 217.42857142857142 L 344.7142857142857 218.14285714285714 L 345.42857142857144 218.71428571428572 L 346.57142857142856 219.14285714285714 L 347.57142857142856 219.57142857142856 L 348.57142857142856 219.57142857142856 L 349.57142857142856 220 L 350.57142857142856 219.57142857142856 L 351.7142857142857 219.57142857142856 L 352.7142857142857 219.14285714285714 L 353.42857142857144 218.85714285714286 L 354.2857142857143 218.14285714285714 L 355 217.57142857142856 L 355.42857142857144 216.85714285714283 L 356 215.85714285714286 L 356.2857142857143 214.85714285714283 L 356.57142857142856 213.71428571428572 L 356.85714285714283 212.71428571428572 L 356.85714285714283 211.42857142857142 L 356.85714285714283 210.42857142857144 L 343.42857142857144 210.42857142857144 L 343.42857142857144 212.71428571428572 L 355.42857142857144 212.71428571428572 L 354 211.71428571428572 L 354 212.71428571428572 L 353.7142857142857 214.28571428571428 L 353.14285714285717 215.57142857142856 L 352.42857142857144 216.28571428571428 L 351.42857142857144 217.14285714285714 L 350.1428571428571 217.42857142857142 L 349.57142857142856 217.42857142857142 L 348.85714285714283 217.42857142857142 L 347.85714285714283 217.14285714285714 L 347 216.85714285714283 L 346.1428571428571 215.85714285714286 L 345.42857142857144 214.85714285714283 L 345 213.42857142857144 L 345 211.71428571428572 L 345 209.85714285714286 L 345.2857142857143 208.28571428571428 L 345.7142857142857 207.14285714285714 L 346.1428571428571 206.57142857142856 L 347.2857142857143 205.71428571428572 L 348.42857142857144 205.28571428571428 L 349.85714285714283 205 L 351 205 L 351.7142857142857 205.28571428571428 L 352.42857142857144 205.71428571428572 L 352.85714285714283 206.28571428571428 L 353.42857142857144 206.71428571428572 L 354 207.57142857142856 L 356.57142857142856 207.57142857142856 L 356.2857142857143 206.57142857142856 L 355.7142857142857 205.57142857142856 L 355.2857142857143 204.71428571428572 L 354.2857142857143 204 L 353.42857142857144 203.42857142857144 L 352.1428571428571 203 L 351.1428571428571 202.71428571428572 L 349.57142857142856 202.71428571428572 Z" fill="none" stroke="#5da9e9" stroke-width="1.4285714285714288" stroke-linecap="round" stroke-linejoin="round" data-pcb-component-id="null" data-pcb-silkscreen-path-id="pcb_silkscreen_path_28" data-type="pcb_silkscreen_path" data-pcb-layer="bottom"/><path class="pcb-silkscreen pcb-silkscreen-bottom" d="M 362.42857142857144 203 L 359.85714285714283 203 L 359.85714285714283 225.85714285714286 L 362.42857142857144 225.85714285714286 L 362.42857142857144 203 Z" fill="none" stroke="#5da9e9" stroke-width="1.4285714285714288" stroke-linecap="round" stroke-linejoin="round" data-pcb-component-id="null" data-pcb-silkscreen-path-id="pcb_silkscreen_path_29" data-type="pcb_silkscreen_path" data-pcb-layer="bottom"/><path class="pcb-silkscreen pcb-silkscreen-bottom" d="M 373.2857142857143 202.71428571428572 L 371.85714285714283 202.71428571428572 L 370.85714285714283 203 L 369.85714285714283 203.14285714285714 L 369.1428571428571 203.85714285714283 L 368.2857142857143 204.14285714285714 L 367.57142857142856 205 L 366.7142857142857 205.71428571428572 L 366.2857142857143 206.57142857142856 L 366 207.57142857142856 L 365.7142857142857 208.57142857142856 L 365.57142857142856 209.85714285714286 L 365.57142857142856 211.14285714285714 L 365.57142857142856 212.42857142857144 L 365.7142857142857 213.42857142857144 L 366 214.85714285714283 L 366.2857142857143 215.85714285714286 L 366.7142857142857 216.57142857142856 L 367.57142857142856 217.42857142857142 L 368.14285714285717 218.14285714285714 L 369.1428571428571 218.71428571428572 L 369.85714285714283 219.14285714285714 L 370.85714285714283 219.57142857142856 L 371.85714285714283 219.57142857142856 L 373 220 L 374 219.57142857142856 L 375.14285714285717 219.57142857142856 L 376 219.14285714285714 L 376.85714285714283 218.85714285714286 L 377.7142857142857 218.14285714285714 L 378.42857142857144 217.57142857142856 L 378.85714285714283 216.85714285714283 L 379.42857142857144 215.85714285714286 L 379.57142857142856 214.85714285714283 L 380 213.71428571428572 L 380.14285714285717 212.71428571428572 L 380.14285714285717 211.42857142857142 L 380.14285714285717 210.42857142857144 L 366.7142857142857 210.42857142857144 L 366.7142857142857 212.71428571428572 L 378.85714285714283 212.71428571428572 L 377.7142857142857 211.71428571428572 L 377.42857142857144 212.71428571428572 L 377 214.28571428571428 L 376.57142857142856 215.57142857142856 L 375.85714285714283 216.28571428571428 L 374.85714285714283 217.14285714285714 L 373.42857142857144 217.42857142857142 L 373 217.42857142857142 L 372.2857142857143 217.42857142857142 L 371.14285714285717 217.14285714285714 L 370.14285714285717 216.28571428571428 L 369.1428571428571 215.28571428571428 L 368.57142857142856 214.28571428571428 L 368.2857142857143 212.42857142857144 L 368.2857142857143 211.71428571428572 L 368.2857142857143 209.85714285714286 L 368.57142857142856 208.28571428571428 L 369.1428571428571 207.14285714285714 L 369.7142857142857 206.57142857142856 L 370.7142857142857 205.71428571428572 L 371.7142857142857 205.28571428571428 L 373.2857142857143 205 L 374.2857142857143 205 L 375.14285714285717 205.28571428571428 L 375.85714285714283 205.71428571428572 L 376.57142857142856 206.28571428571428 L 376.85714285714283 206.71428571428572 L 377.42857142857144 207.57142857142856 L 380.14285714285717 207.57142857142856 L 379.57142857142856 206.57142857142856 L 379.14285714285717 205.57142857142856 L 378.7142857142857 204.71428571428572 L 377.85714285714283 204 L 376.85714285714283 203.42857142857144 L 375.57142857142856 203 L 374.42857142857144 202.71428571428572 L 373.2857142857143 202.71428571428572 Z" fill="none" stroke="#5da9e9" stroke-width="1.4285714285714288" stroke-linecap="round" stroke-linejoin="round" data-pcb-component-id="null" data-pcb-silkscreen-path-id="pcb_silkscreen_path_30" data-type="pcb_silkscreen_path" data-pcb-layer="bottom"/><path class="pcb-silkscreen pcb-silkscreen-bottom" d="M 385.85714285714283 203 L 383 203 L 383 219.42857142857144 L 385.85714285714283 219.42857142857144 L 385.85714285714283 217.14285714285714 L 386.14285714285717 217.57142857142856 L 386.57142857142856 218.14285714285714 L 387.14285714285717 218.71428571428572 L 387.7142857142857 219.14285714285714 L 388.42857142857144 219.42857142857144 L 388.85714285714283 219.57142857142856 L 389.7142857142857 219.57142857142856 L 390.42857142857144 220 L 391 220 L 391.42857142857144 219.57142857142856 L 392.42857142857144 219.42857142857144 L 393.2857142857143 218.85714285714286 L 393.85714285714283 218.71428571428572 L 394.2857142857143 218.14285714285714 L 394.85714285714283 217.14285714285714 L 395 216.57142857142856 L 395.42857142857144 217.14285714285714 L 396.14285714285717 217.85714285714283 L 396.85714285714283 218.71428571428572 L 397.7142857142857 219.14285714285714 L 398.7142857142857 219.57142857142856 L 399.7142857142857 220 L 400.57142857142856 220 L 401.2857142857143 219.57142857142856 L 402.57142857142856 219.42857142857144 L 403.85714285714283 218.85714285714286 L 404.85714285714283 217.85714285714283 L 405.2857142857143 216.57142857142856 L 406 215.28571428571428 L 406 214.28571428571428 L 406 203 L 403.14285714285717 203 L 403.14285714285717 213.71428571428572 L 402.85714285714283 214.85714285714283 L 402.57142857142856 215.85714285714286 L 402 216.28571428571428 L 401.57142857142856 216.85714285714283 L 400.57142857142856 217.42857142857142 L 399.42857142857144 217.42857142857142 L 398.42857142857144 217.42857142857142 L 397.7142857142857 216.85714285714283 L 396.85714285714283 216.28571428571428 L 396.42857142857144 215.57142857142856 L 395.85714285714283 214.42857142857142 L 395.85714285714283 213.42857142857144 L 395.85714285714283 203 L 393 203 L 393 214 L 392.85714285714283 215.28571428571428 L 392.2857142857143 216 L 391.7142857142857 216.85714285714283 L 391 217.14285714285714 L 390.2857142857143 217.42857142857142 L 389.7142857142857 217.42857142857142 L 388.7142857142857 217.42857142857142 L 387.7142857142857 216.85714285714283 L 387 216.28571428571428 L 386.2857142857143 215.28571428571428 L 385.85714285714283 214.42857142857142 L 385.85714285714283 213.28571428571428 L 385.85714285714283 203 Z" fill="none" stroke="#5da9e9" stroke-width="1.4285714285714288" stroke-linecap="round" stroke-linejoin="round" data-pcb-component-id="null" data-pcb-silkscreen-path-id="pcb_silkscreen_path_31" data-type="pcb_silkscreen_path" data-pcb-layer="bottom"/><path class="pcb-silkscreen pcb-silkscreen-bottom" d="M 416.14285714285717 202.71428571428572 L 415.14285714285717 202.71428571428572 L 413.85714285714283 203 L 413 203.14285714285714 L 412 203.85714285714283 L 411.2857142857143 204.14285714285714 L 410.42857142857144 205 L 410.14285714285717 205.71428571428572 L 409.42857142857144 206.57142857142856 L 409 207.57142857142856 L 408.7142857142857 208.57142857142856 L 408.42857142857144 209.85714285714286 L 408.42857142857144 211.14285714285714 L 408.42857142857144 212.42857142857144 L 408.7142857142857 213.42857142857144 L 409 214.85714285714283 L 409.42857142857144 215.85714285714286 L 410.14285714285717 216.57142857142856 L 410.42857142857144 217.42857142857142 L 411.2857142857143 218.14285714285714 L 412 218.71428571428572 L 412.85714285714283 219.14285714285714 L 413.85714285714283 219.57142857142856 L 414.85714285714283 219.57142857142856 L 416 220 L 417.14285714285717 219.57142857142856 L 418.14285714285717 219.57142857142856 L 419 219.14285714285714 L 420 218.85714285714286 L 420.85714285714283 218.14285714285714 L 421.2857142857143 217.57142857142856 L 421.85714285714283 216.85714285714283 L 422.2857142857143 215.85714285714286 L 422.8571428571429 214.85714285714283 L 423.14285714285717 213.71428571428572 L 423.2857142857143 212.71428571428572 L 423.2857142857143 211.42857142857142 L 423.2857142857143 210.42857142857144 L 410.14285714285717 210.42857142857144 L 410.14285714285717 212.71428571428572 L 421.85714285714283 212.71428571428572 L 420.57142857142856 211.71428571428572 L 420.57142857142856 212.71428571428572 L 420.2857142857143 214.28571428571428 L 419.57142857142856 215.57142857142856 L 418.7142857142857 216.28571428571428 L 417.7142857142857 217.14285714285714 L 416.7142857142857 217.42857142857142 L 416 217.42857142857142 L 415.42857142857144 217.42857142857142 L 414.14285714285717 217.14285714285714 L 413 216.28571428571428 L 412.2857142857143 215.28571428571428 L 411.85714285714283 214.28571428571428 L 411.2857142857143 212.42857142857144 L 411.2857142857143 211.71428571428572 L 411.2857142857143 209.85714285714286 L 411.57142857142856 208.28571428571428 L 412.2857142857143 207.14285714285714 L 412.7142857142857 206.57142857142856 L 413.7142857142857 205.71428571428572 L 414.14285714285717 205.57142857142856 L 415.42857142857144 205 L 416.14285714285717 205 L 417.14285714285717 205 L 418.14285714285717 205.28571428571428 L 419 205.71428571428572 L 419.57142857142856 206.28571428571428 L 420 206.71428571428572 L 420.2857142857143 207.57142857142856 L 423.14285714285717 207.57142857142856 L 422.8571428571429 206.57142857142856 L 422.2857142857143 205.57142857142856 L 421.57142857142856 204.71428571428572 L 420.85714285714283 204 L 419.7142857142857 203.42857142857144 L 418.7142857142857 203 L 417.42857142857144 202.71428571428572 L 416.14285714285717 202.71428571428572 Z" fill="none" stroke="#5da9e9" stroke-width="1.4285714285714288" stroke-linecap="round" stroke-linejoin="round" data-pcb-component-id="null" data-pcb-silkscreen-path-id="pcb_silkscreen_path_32" data-type="pcb_silkscreen_path" data-pcb-layer="bottom"/><path class="pcb-silkscreen pcb-silkscreen-bottom" d="M 431.57142857142856 202.71428571428572 L 430.2857142857143 202.71428571428572 L 429.57142857142856 203 L 428.85714285714283 203.14285714285714 L 428 203.85714285714283 L 427.42857142857144 204.14285714285714 L 427.2857142857143 205 L 427 206 L 427 207.14285714285714 L 427 217.14285714285714 L 424.42857142857144 217.14285714285714 L 424.42857142857144 219.42857142857144 L 427 219.42857142857144 L 427 224 L 429.85714285714283 224 L 429.85714285714283 219.42857142857144 L 432.85714285714283 219.42857142857144 L 432.85714285714283 217.14285714285714 L 429.85714285714283 217.14285714285714 L 429.85714285714283 207.14285714285714 L 430 206 L 430.2857142857143 205.28571428571428 L 431 205 L 431.57142857142856 205 L 432.14285714285717 204.71428571428572 L 432.85714285714283 205 L 432.85714285714283 202.71428571428572 L 432.57142857142856 202.71428571428572 L 432.14285714285717 202.71428571428572 L 431.57142857142856 202.71428571428572 Z" fill="none" stroke="#5da9e9" stroke-width="1.4285714285714288" stroke-linecap="round" stroke-linejoin="round" data-pcb-component-id="null" data-pcb-silkscreen-path-id="pcb_silkscreen_path_33" data-type="pcb_silkscreen_path" data-pcb-layer="bottom"/><path class="pcb-silkscreen pcb-silkscreen-bottom" d="M 438.7142857142857 203 L 436 203 L 436 219.42857142857144 L 438.7142857142857 219.42857142857144 L 438.7142857142857 216.57142857142856 L 439.14285714285717 217.42857142857142 L 439.8571428571429 218.71428571428572 L 440.85714285714283 219.42857142857144 L 441.8571428571429 219.57142857142856 L 442.7142857142857 220 L 443.14285714285717 220 L 443.7142857142857 219.57142857142856 L 443.7142857142857 217.14285714285714 L 443.14285714285717 217.14285714285714 L 442.7142857142857 217.14285714285714 L 441.8571428571429 217.14285714285714 L 440.85714285714283 216.85714285714283 L 440.14285714285717 216.28571428571428 L 439.2857142857143 215.85714285714286 L 439.14285714285717 214.85714285714283 L 438.7142857142857 213.71428571428572 L 438.7142857142857 213.28571428571428 L 438.7142857142857 203 Z" fill="none" stroke="#5da9e9" stroke-width="1.4285714285714288" stroke-linecap="round" stroke-linejoin="round" data-pcb-component-id="null" data-pcb-silkscreen-path-id="pcb_silkscreen_path_34" data-type="pcb_silkscreen_path" data-pcb-layer="bottom"/><path class="pcb-silkscreen pcb-silkscreen-bottom" d="M 453 202.71428571428572 L 452 202.71428571428572 L 450.8571428571429 203 L 449.8571428571429 203.14285714285714 L 448.8571428571429 203.85714285714283 L 448.14285714285717 204.14285714285714 L 447.2857142857143 205 L 446.85714285714283 205.71428571428572 L 446.2857142857143 206.57142857142856 L 445.7142857142857 207.57142857142856 L 445.42857142857144 208.85714285714283 L 445.2857142857143 209.85714285714286 L 445.2857142857143 211.14285714285714 L 445.2857142857143 212.42857142857144 L 445.42857142857144 213.71428571428572 L 445.7142857142857 214.85714285714283 L 446.2857142857143 215.85714285714286 L 446.85714285714283 216.85714285714283 L 447.2857142857143 217.57142857142856 L 448.14285714285717 218.14285714285714 L 448.8571428571429 218.85714285714286 L 449.8571428571429 219.14285714285714 L 450.8571428571429 219.57142857142856 L 452 219.57142857142856 L 453 220 L 454 219.57142857142856 L 455 219.57142857142856 L 456 219.14285714285714 L 457.14285714285717 218.85714285714286 L 457.8571428571429 218.14285714285714 L 458.57142857142856 217.57142857142856 L 459.1428571428571 216.85714285714283 L 459.7142857142857 215.85714285714286 L 460.14285714285717 214.85714285714283 L 460.42857142857144 213.71428571428572 L 460.7142857142857 212.42857142857144 L 460.7142857142857 211.14285714285714 L 460.7142857142857 209.85714285714286 L 460.42857142857144 208.57142857142856 L 460.14285714285717 207.57142857142856 L 459.7142857142857 206.57142857142856 L 459.1428571428571 205.71428571428572 L 458.57142857142856 205 L 457.8571428571429 204.14285714285714 L 457.14285714285717 203.85714285714283 L 456 203.14285714285714 L 455 203 L 454 202.71428571428572 L 453 202.71428571428572 Z" fill="none" stroke="#5da9e9" stroke-width="1.4285714285714288" stroke-linecap="round" stroke-linejoin="round" data-pcb-component-id="null" data-pcb-silkscreen-path-id="pcb_silkscreen_path_35" data-type="pcb_silkscreen_path" data-pcb-layer="bottom"/><path class="pcb-silkscreen pcb-silkscreen-bottom" d="M 453 205 L 453.7142857142857 205 L 455 205.57142857142856 L 456 206.28571428571428 L 456.7142857142857 207.28571428571428 L 457.2857142857143 208.57142857142856 L 457.8571428571429 210.14285714285714 L 457.8571428571429 211.14285714285714 L 457.8571428571429 212.28571428571428 L 457.2857142857143 213.71428571428572 L 456.7142857142857 215.28571428571428 L 456 216.28571428571428 L 455 217.14285714285714 L 453.7142857142857 217.42857142857142 L 453 217.42857142857142 L 452.14285714285717 217.42857142857142 L 450.8571428571429 216.85714285714283 L 449.8571428571429 216.28571428571428 L 449 215.28571428571428 L 448.2857142857143 213.71428571428572 L 448.14285714285717 212.28571428571428 L 448.14285714285717 211.14285714285714 L 448.14285714285717 210.14285714285714 L 448.2857142857143 208.57142857142856 L 449 207.28571428571428 L 449.8571428571429 206.28571428571428 L 450.8571428571429 205.57142857142856 L 452.14285714285717 205 L 453 205 Z" fill="none" stroke="#5da9e9" stroke-width="1.4285714285714288" stroke-linecap="round" stroke-linejoin="round" data-pcb-component-id="null" data-pcb-silkscreen-path-id="pcb_silkscreen_path_36" data-type="pcb_silkscreen_path" data-pcb-layer="bottom"/><path class="pcb-silkscreen pcb-silkscreen-bottom" d="M 466 203 L 463.57142857142856 203 L 463.57142857142856 219.42857142857144 L 466 219.42857142857144 L 466 217.14285714285714 L 466.57142857142856 217.57142857142856 L 467.57142857142856 218.71428571428572 L 468.8571428571429 219.42857142857144 L 470.42857142857144 219.57142857142856 L 471.42857142857144 220 L 472.7142857142857 219.57142857142856 L 474.7142857142857 218.85714285714286 L 476.42857142857144 217.42857142857142 L 477.14285714285717 215 L 477.14285714285717 213.71428571428572 L 477.14285714285717 203 L 474.2857142857143 203 L 474.2857142857143 213.28571428571428 L 474 215 L 473.2857142857143 216.28571428571428 L 472.1428571428571 217.14285714285714 L 471.42857142857144 217.42857142857142 L 470.42857142857144 217.42857142857142 L 469.42857142857144 217.42857142857142 L 468.1428571428571 216.85714285714283 L 467.42857142857144 216 L 466.8571428571429 215 L 466.2857142857143 214 L 466 212.71428571428572 L 466 203 Z" fill="none" stroke="#5da9e9" stroke-width="1.4285714285714288" stroke-linecap="round" stroke-linejoin="round" data-pcb-component-id="null" data-pcb-silkscreen-path-id="pcb_silkscreen_path_37" data-type="pcb_silkscreen_path" data-pcb-layer="bottom"/><rect class="pcb-pad" fill="rgb(200, 52, 52)" x="275" y="207.1428571428571" width="42.85714285714286" height="42.85714285714286" data-type="pcb_smtpad" data-pcb-layer="top"/><rect class="pcb-pad" fill="rgb(200, 52, 52)" x="482.1428571428571" y="207.1428571428571" width="42.85714285714286" height="42.85714285714286" data-type="pcb_smtpad" data-pcb-layer="top"/><rect class="pcb-pad" fill="rgb(200, 52, 52)" x="385.7142857142857" y="287.14285714285717" width="28.571428571428573" height="28.571428571428573" data-type="pcb_smtpad" data-pcb-layer="top"/><rect class="pcb-pad" fill="rgb(200, 52, 52)" x="385.7142857142857" y="141.42857142857144" width="28.571428571428573" height="28.571428571428573" data-type="pcb_smtpad" data-pcb-layer="top"/><rect class="pcb-pad" fill="rgb(200, 52, 52)" x="595" y="403.57142857142856" width="10" height="21.42857142857143" data-type="pcb_smtpad" data-pcb-layer="top"/><rect class="pcb-pad" fill="rgb(200, 52, 52)" x="609.2857142857143" y="403.57142857142856" width="10" height="21.42857142857143" data-type="pcb_smtpad" data-pcb-layer="top"/><rect class="pcb-pad" fill="rgb(200, 52, 52)" x="623.5714285714286" y="403.57142857142856" width="10" height="21.42857142857143" data-type="pcb_smtpad" data-pcb-layer="top"/><rect class="pcb-pad" fill="rgb(200, 52, 52)" x="557.1428571428572" y="401.42857142857144" width="14.285714285714286" height="25.714285714285715" data-type="pcb_smtpad" data-pcb-layer="top"/><rect class="pcb-pad" fill="rgb(200, 52, 52)" x="657.1428571428571" y="401.42857142857144" width="14.285714285714286" height="25.714285714285715" data-type="pcb_smtpad" data-pcb-layer="top"/><rect class="pcb-pad" fill="rgb(200, 52, 52)" x="525.3571428571429" y="407.5" width="11.42857142857143" height="13.571428571428571" data-type="pcb_smtpad" data-pcb-layer="top"/><rect class="pcb-pad" fill="rgb(200, 52, 52)" x="548.9285714285714" y="407.5" width="11.42857142857143" height="13.571428571428571" data-type="pcb_smtpad" data-pcb-layer="top"/><path class="pcb-trace" stroke="rgb(200, 52, 52)" fill="none" d="M 381.85714285714283 442.8571428571429 L 409.7662921810944 414.9479935331913" stroke-width="2.142857142857143" stroke-linecap="round" stroke-linejoin="round" shape-rendering="crispEdges" data-type="pcb_trace" data-pcb-layer="top"/><path class="pcb-trace" stroke="rgb(200, 52, 52)" fill="none" d="M 409.7662921810944 414.9479935331913 L 448.8646047607117 414.9479935331913" stroke-width="2.142857142857143" stroke-linecap="round" stroke-linejoin="round" shape-rendering="crispEdges" data-type="pcb_trace" data-pcb-layer="top"/><path class="pcb-trace" stroke="rgb(200, 52, 52)" fill="none" d="M 448.8646047607117 414.9479935331913 L 457.14285714285717 420" stroke-width="2.142857142857143" stroke-linecap="round" stroke-linejoin="round" shape-rendering="crispEdges" data-type="pcb_trace" data-pcb-layer="top"/><path class="pcb-trace" stroke="rgb(200, 52, 52)" fill="none" d="M 457.14285714285717 420 L 457.14285714285717 420" stroke-width="2.142857142857143" stroke-linecap="round" stroke-linejoin="round" shape-rendering="crispEdges" data-type="pcb_trace" data-pcb-layer="top"/><path class="pcb-trace" stroke="rgb(200, 52, 52)" fill="none" d="M 536.875 430.71428571428567 L 536.875 430.71428571428567" stroke-width="2.142857142857143" stroke-linecap="round" stroke-linejoin="round" shape-rendering="crispEdges" data-type="pcb_trace" data-pcb-layer="top"/><path class="pcb-trace" stroke="rgb(200, 52, 52)" fill="none" d="M 536.875 430.71428571428567 L 538.2142857142858 430.71428571428567" stroke-width="2.142857142857143" stroke-linecap="round" stroke-linejoin="round" shape-rendering="crispEdges" data-type="pcb_trace" data-pcb-layer="top"/><path class="pcb-trace" stroke="rgb(200, 52, 52)" fill="none" d="M 538.2142857142858 430.71428571428567 L 554.6428571428571 414.2857142857143" stroke-width="2.142857142857143" stroke-linecap="round" stroke-linejoin="round" shape-rendering="crispEdges" data-type="pcb_trace" data-pcb-layer="top"/><path class="pcb-trace" stroke="rgb(200, 52, 52)" fill="none" d="M 531.0714285714286 414.2857142857143 L 531.0714285714286 411.994823294187" stroke-width="2.142857142857143" stroke-linecap="round" stroke-linejoin="round" shape-rendering="crispEdges" data-type="pcb_trace" data-pcb-layer="top"/><path class="pcb-trace" stroke="rgb(200, 52, 52)" fill="none" d="M 531.0714285714286 411.994823294187 L 577.4327861102649 365.6334657553505" stroke-width="2.142857142857143" stroke-linecap="round" stroke-linejoin="round" shape-rendering="crispEdges" data-type="pcb_trace" data-pcb-layer="top"/><path class="pcb-trace" stroke="rgb(200, 52, 52)" fill="none" d="M 577.4327861102649 365.6334657553505 L 614.2857142857143 402.48639393079986" stroke-width="2.142857142857143" stroke-linecap="round" stroke-linejoin="round" shape-rendering="crispEdges" data-type="pcb_trace" data-pcb-layer="top"/><path class="pcb-trace" stroke="rgb(200, 52, 52)" fill="none" d="M 614.2857142857143 402.48639393079986 L 614.2857142857143 414.2857142857143" stroke-width="2.142857142857143" stroke-linecap="round" stroke-linejoin="round" shape-rendering="crispEdges" data-type="pcb_trace" data-pcb-layer="top"/><path class="pcb-trace" stroke="rgb(200, 52, 52)" fill="none" d="M 482.14285714285717 300.6766917293233 L 463.2518796992481 300.6766917293233" stroke-width="2.142857142857143" stroke-linecap="round" stroke-linejoin="round" shape-rendering="crispEdges" data-type="pcb_trace" data-pcb-layer="top"/><path class="pcb-trace" stroke="rgb(200, 52, 52)" fill="none" d="M 463.2518796992481 300.6766917293233 L 448.2142857142857 315.7142857142857" stroke-width="2.142857142857143" stroke-linecap="round" stroke-linejoin="round" shape-rendering="crispEdges" data-type="pcb_trace" data-pcb-layer="top"/><path class="pcb-trace" stroke="rgb(200, 52, 52)" fill="none" d="M 503.57142857142856 228.57142857142856 L 503.57142857142856 280" stroke-width="2.142857142857143" stroke-linecap="round" stroke-linejoin="round" shape-rendering="crispEdges" data-type="pcb_trace" data-pcb-layer="top"/><path class="pcb-trace" stroke="rgb(200, 52, 52)" fill="none" d="M 503.57142857142856 280 L 482.14285714285717 301.42857142857144" stroke-width="2.142857142857143" stroke-linecap="round" stroke-linejoin="round" shape-rendering="crispEdges" data-type="pcb_trace" data-pcb-layer="top"/><path class="pcb-trace" stroke="rgb(200, 52, 52)" fill="none" d="M 418.14285714285717 442.8571428571429 L 418.14285714285717 430.42857142857144" stroke-width="2.142857142857143" stroke-linecap="round" stroke-linejoin="round" shape-rendering="crispEdges" data-type="pcb_trace" data-pcb-layer="top"/><path class="pcb-trace" stroke="rgb(200, 52, 52)" fill="none" d="M 418.14285714285717 430.42857142857144 L 427.0311731928979 421.54025537853073" stroke-width="2.142857142857143" stroke-linecap="round" stroke-linejoin="round" shape-rendering="crispEdges" data-type="pcb_trace" data-pcb-layer="top"/><path class="pcb-trace" stroke="rgb(200, 52, 52)" fill="none" d="M 427.0311731928979 421.54025537853073 L 428.57142857142856 420" stroke-width="2.142857142857143" stroke-linecap="round" stroke-linejoin="round" shape-rendering="crispEdges" data-type="pcb_trace" data-pcb-layer="top"/><path class="pcb-trace" stroke="rgb(200, 52, 52)" fill="none" d="M 428.57142857142856 420 L 428.57142857142856 420" stroke-width="2.142857142857143" stroke-linecap="round" stroke-linejoin="round" shape-rendering="crispEdges" data-type="pcb_trace" data-pcb-layer="top"/><path class="pcb-trace" stroke="rgb(200, 52, 52)" fill="none" d="M 417.14285714285717 328.5714285714286 L 417.14285714285717 328.5714285714286" stroke-width="2.142857142857143" stroke-linecap="round" stroke-linejoin="round" shape-rendering="crispEdges" data-type="pcb_trace" data-pcb-layer="top"/><path class="pcb-trace" stroke="rgb(200, 52, 52)" fill="none" d="M 417.14285714285717 328.5714285714286 L 435.35714285714283 328.5714285714286" stroke-width="2.142857142857143" stroke-linecap="round" stroke-linejoin="round" shape-rendering="crispEdges" data-type="pcb_trace" data-pcb-layer="top"/><path class="pcb-trace" stroke="rgb(200, 52, 52)" fill="none" d="M 435.35714285714283 328.5714285714286 L 448.2142857142857 315.7142857142857" stroke-width="2.142857142857143" stroke-linecap="round" stroke-linejoin="round" shape-rendering="crispEdges" data-type="pcb_trace" data-pcb-layer="top"/><path class="pcb-trace" stroke="rgb(200, 52, 52)" fill="none" d="M 296.42857142857144 228.57142857142856 L 328.11825759704175 228.57142857142856" stroke-width="2.142857142857143" stroke-linecap="round" stroke-linejoin="round" shape-rendering="crispEdges" data-type="pcb_trace" data-pcb-layer="top"/><path class="pcb-trace" stroke="rgb(200, 52, 52)" fill="none" d="M 328.11825759704175 228.57142857142856 L 356.2591073853933 256.7122783597801" stroke-width="2.142857142857143" stroke-linecap="round" stroke-linejoin="round" shape-rendering="crispEdges" data-type="pcb_trace" data-pcb-layer="top"/><path class="pcb-trace" stroke="rgb(200, 52, 52)" fill="none" d="M 356.2591073853933 256.7122783597801 L 357.82142857142856 257.85714285714283" stroke-width="2.142857142857143" stroke-linecap="round" stroke-linejoin="round" shape-rendering="crispEdges" data-type="pcb_trace" data-pcb-layer="top"/><path class="pcb-trace" stroke="rgb(200, 52, 52)" fill="none" d="M 357.82142857142856 257.85714285714283 L 357.82142857142856 257.85714285714283" stroke-width="2.142857142857143" stroke-linecap="round" stroke-linejoin="round" shape-rendering="crispEdges" data-type="pcb_trace" data-pcb-layer="top"/><path class="pcb-trace" stroke="rgb(200, 52, 52)" fill="none" d="M 600 414.2857142857143 L 600 409.70807059487606" stroke-width="2.142857142857143" stroke-linecap="round" stroke-linejoin="round" shape-rendering="crispEdges" data-type="pcb_trace" data-pcb-layer="top"/><path class="pcb-trace" stroke="rgb(200, 52, 52)" fill="none" d="M 600 409.70807059487606 L 572.9333124189418 382.6413830138179" stroke-width="2.142857142857143" stroke-linecap="round" stroke-linejoin="round" shape-rendering="crispEdges" data-type="pcb_trace" data-pcb-layer="top"/><path class="pcb-trace" stroke="rgb(200, 52, 52)" fill="none" d="M 572.9333124189418 382.6413830138179 L 571.4285714285714 380" stroke-width="2.142857142857143" stroke-linecap="round" stroke-linejoin="round" shape-rendering="crispEdges" data-type="pcb_trace" data-pcb-layer="top"/><path class="pcb-trace" stroke="rgb(200, 52, 52)" fill="none" d="M 571.4285714285714 380 L 571.4285714285714 380" stroke-width="2.142857142857143" stroke-linecap="round" stroke-linejoin="round" shape-rendering="crispEdges" data-type="pcb_trace" data-pcb-layer="top"/><path class="pcb-silkscreen pcb-silkscreen-top" d="M 296.42857142857144 257.1428571428571 L 296.42857142857144 200" fill="none" stroke="#f2eda1" stroke-width="1.4285714285714288" stroke-linecap="round" stroke-linejoin="round" data-pcb-component-id="pcb_component_0" data-pcb-silkscreen-path-id="pcb_silkscreen_path_0" data-type="pcb_silkscreen_path" data-pcb-layer="top"/><path class="pcb-silkscreen pcb-silkscreen-top" d="M 287.8571428571429 228.57142857142856 L 305 228.57142857142856" fill="none" stroke="#f2eda1" stroke-width="1.4285714285714288" stroke-linecap="round" stroke-linejoin="round" data-pcb-component-id="pcb_component_0" data-pcb-silkscreen-path-id="pcb_silkscreen_path_1" data-type="pcb_silkscreen_path" data-pcb-layer="top"/><text x="0" y="0" dx="0" dy="0" fill="#f2eda1" font-family="Arial, sans-serif" font-size="14.285714285714286" text-anchor="middle" dominant-baseline="central" transform="matrix(1,0,0,1,296.42857142857144,271.42857142857144)" class="pcb-silkscreen-text pcb-silkscreen-top" data-pcb-silkscreen-text-id="pcb_component_0" stroke="none" data-type="pcb_silkscreen_text" data-pcb-layer="top">+</text><text x="0" y="0" dx="0" dy="0" fill="#f2eda1" font-family="Arial, sans-serif" font-size="14.285714285714286" text-anchor="middle" dominant-baseline="central" transform="matrix(1,0,0,1,503.57142857142856,271.42857142857144)" class="pcb-silkscreen-text pcb-silkscreen-top" data-pcb-silkscreen-text-id="pcb_component_0" stroke="none" data-type="pcb_silkscreen_text" data-pcb-layer="top">-</text><path class="pcb-silkscreen pcb-silkscreen-top" d="M 585.7142857142858 428.57142857142856 L 642.8571428571429 428.57142857142856 L 642.8571428571429 400 L 585.7142857142858 400 L 585.7142857142858 428.57142857142856 Z" fill="none" stroke="#f2eda1" stroke-width="1.4285714285714288" stroke-linecap="round" stroke-linejoin="round" data-pcb-component-id="pcb_component_1" data-pcb-silkscreen-path-id="pcb_silkscreen_path_2" data-type="pcb_silkscreen_path" data-pcb-layer="top"/><path class="pcb-silkscreen pcb-silkscreen-top" d="M 554.6428571428571 401.7857142857143 L 522.5 401.7857142857143 L 522.5 426.7857142857143 L 554.6428571428571 426.7857142857143" fill="none" stroke="#f2eda1" stroke-width="1.4285714285714288" stroke-linecap="round" stroke-linejoin="round" data-pcb-component-id="pcb_component_2" data-pcb-silkscreen-path-id="pcb_silkscreen_path_3" data-type="pcb_silkscreen_path" data-pcb-layer="top"/><text x="0" y="0" dx="0" dy="0" fill="#f2eda1" font-family="Arial, sans-serif" font-size="5.714285714285715" text-anchor="middle" dominant-baseline="central" transform="matrix(1,0,0,1,542.8571428571429,394.64285714285717)" class="pcb-silkscreen-text pcb-silkscreen-top" data-pcb-silkscreen-text-id="pcb_component_2" stroke="none" data-type="pcb_silkscreen_text" data-pcb-layer="top">R1</text><path class="pcb-silkscreen pcb-silkscreen-top" d="M 364.2857142857143 464.28571428571433 L 435.7142857142857 464.28571428571433 L 435.7142857142857 421.42857142857144 L 364.2857142857143 421.42857142857144 L 364.2857142857143 464.28571428571433 Z" fill="none" stroke="#f2eda1" stroke-width="1.4285714285714288" stroke-linecap="round" stroke-linejoin="round" data-pcb-component-id="pcb_component_3" data-pcb-silkscreen-path-id="pcb_silkscreen_path_4" data-type="pcb_silkscreen_path" data-pcb-layer="top"/><path class="pcb-silkscreen pcb-silkscreen-top" d="M 418.14285714285717 464.28571428571433 L 418.14285714285717 421.42857142857144" fill="none" stroke="#f2eda1" stroke-width="1.4285714285714288" stroke-linecap="round" stroke-linejoin="round" data-pcb-component-id="pcb_component_3" data-pcb-silkscreen-path-id="pcb_silkscreen_path_5" data-type="pcb_silkscreen_path" data-pcb-layer="top"/><text x="0" y="0" dx="0" dy="0" fill="#f2eda1" font-family="Arial, sans-serif" font-size="11.42857142857143" text-anchor="middle" dominant-baseline="central" transform="matrix(1,0,0,1,381.85714285714283,474.2857142857143)" class="pcb-silkscreen-text pcb-silkscreen-top" data-pcb-silkscreen-text-id="pcb_component_3" stroke="none" data-type="pcb_silkscreen_text" data-pcb-layer="top">+</text><text x="0" y="0" dx="0" dy="0" fill="#f2eda1" font-family="Arial, sans-serif" font-size="11.42857142857143" text-anchor="middle" dominant-baseline="central" transform="matrix(1,0,0,1,400,411.42857142857144)" class="pcb-silkscreen-text pcb-silkscreen-top" data-pcb-silkscreen-text-id="pcb_component_3" stroke="none" data-type="pcb_silkscreen_text" data-pcb-layer="top">LED</text><path class="pcb-silkscreen pcb-silkscreen-top" d="M 232.14285714285714 375 L 257.1428571428571 375 L 257.1428571428571 400 L 232.14285714285714 400 L 232.14285714285714 375 Z" fill="none" stroke="#f2eda1" stroke-width="1.4285714285714288" stroke-linecap="round" stroke-linejoin="round" data-pcb-component-id="null" data-pcb-silkscreen-path-id="pcb_silkscreen_path_6" data-type="pcb_silkscreen_path" data-pcb-layer="top"/><path class="pcb-silkscreen pcb-silkscreen-top" d="M 244.71428571428572 387.57142857142856 L 269.7142857142857 387.57142857142856 L 269.7142857142857 412.57142857142856 L 244.71428571428572 412.57142857142856 L 244.71428571428572 387.57142857142856 Z" fill="none" stroke="#f2eda1" stroke-width="1.4285714285714288" stroke-linecap="round" stroke-linejoin="round" data-pcb-component-id="null" data-pcb-silkscreen-path-id="pcb_silkscreen_path_7" data-type="pcb_silkscreen_path" data-pcb-layer="top"/><path class="pcb-silkscreen pcb-silkscreen-top" d="M 257.1428571428571 400 L 282.1428571428571 400 L 282.1428571428571 425 L 257.1428571428571 425 L 257.1428571428571 400 Z" fill="none" stroke="#f2eda1" stroke-width="1.4285714285714288" stroke-linecap="round" stroke-linejoin="round" data-pcb-component-id="null" data-pcb-silkscreen-path-id="pcb_silkscreen_path_8" data-type="pcb_silkscreen_path" data-pcb-layer="top"/><path class="pcb-silkscreen pcb-silkscreen-top" d="M 244.71428571428572 387.57142857142856 L 257.1428571428571 400" fill="none" stroke="#f2eda1" stroke-width="1.4285714285714288" stroke-linecap="round" stroke-linejoin="round" data-pcb-component-id="null" data-pcb-silkscreen-path-id="pcb_silkscreen_path_9" data-type="pcb_silkscreen_path" data-pcb-layer="top"/><path class="pcb-silkscreen pcb-silkscreen-top" d="M 257.1428571428571 400 L 269.7142857142857 412.57142857142856" fill="none" stroke="#f2eda1" stroke-width="1.4285714285714288" stroke-linecap="round" stroke-linejoin="round" data-pcb-component-id="null" data-pcb-silkscreen-path-id="pcb_silkscreen_path_10" data-type="pcb_silkscreen_path" data-pcb-layer="top"/><path class="pcb-silkscreen pcb-silkscreen-top" d="M 219.85714285714286 350.8571428571429 L 218.28571428571428 350.8571428571429 L 218.28571428571428 362.1428571428571 L 214.28571428571428 362.1428571428571 L 214.28571428571428 363.57142857142856 L 224 363.57142857142856 L 224 362.1428571428571 L 219.85714285714286 362.1428571428571 L 219.85714285714286 350.8571428571429 Z" fill="none" stroke="#f2eda1" stroke-width="1.4285714285714288" stroke-linecap="round" stroke-linejoin="round" data-pcb-component-id="null" data-pcb-silkscreen-path-id="pcb_silkscreen_path_11" data-type="pcb_silkscreen_path" data-pcb-layer="top"/><path class="pcb-silkscreen pcb-silkscreen-top" d="M 229.1428571428571 350.7142857142857 L 228.57142857142856 350.7142857142857 L 228 350.8571428571429 L 227.42857142857142 351 L 227 351.2857142857143 L 226.42857142857142 351.57142857142856 L 226.14285714285714 352 L 225.71428571428572 352.42857142857144 L 225.42857142857142 352.8571428571429 L 225.28571428571428 353.42857142857144 L 225.14285714285714 354 L 225 354.7142857142857 L 225 355.42857142857144 L 225 356.14285714285717 L 225.14285714285714 356.7142857142857 L 225.28571428571428 357.42857142857144 L 225.42857142857142 358 L 225.71428571428572 358.42857142857144 L 226.14285714285714 358.8571428571429 L 226.42857142857142 359.2857142857143 L 226.85714285714283 359.57142857142856 L 227.42857142857142 359.8571428571429 L 228 360.14285714285717 L 228.57142857142856 360.14285714285717 L 229.1428571428571 360.2857142857143 L 229.7142857142857 360.14285714285717 L 230.28571428571428 360.14285714285717 L 230.85714285714286 359.8571428571429 L 231.28571428571428 359.7142857142857 L 231.71428571428572 359.2857142857143 L 232.14285714285714 359 L 232.42857142857142 358.57142857142856 L 232.7142857142857 358 L 232.85714285714286 357.42857142857144 L 233 356.8571428571429 L 233.14285714285714 356.2857142857143 L 233.14285714285714 355.57142857142856 L 233.14285714285714 355 L 225.71428571428572 355 L 225.71428571428572 356.2857142857143 L 232.42857142857142 356.2857142857143 L 231.57142857142858 355.7142857142857 L 231.57142857142858 356.2857142857143 L 231.42857142857142 357.14285714285717 L 231.14285714285714 357.8571428571429 L 230.71428571428572 358.2857142857143 L 230.14285714285714 358.7142857142857 L 229.42857142857142 358.8571428571429 L 229.1428571428571 358.8571428571429 L 228.7142857142857 358.8571428571429 L 228.14285714285714 358.7142857142857 L 227.7142857142857 358.57142857142856 L 227.28571428571428 358 L 226.85714285714283 357.42857142857144 L 226.57142857142856 356.7142857142857 L 226.57142857142856 355.7142857142857 L 226.57142857142856 354.7142857142857 L 226.71428571428572 353.8571428571429 L 227 353.1428571428571 L 227.28571428571428 352.8571428571429 L 227.85714285714283 352.42857142857144 L 228.42857142857142 352.14285714285717 L 229.28571428571428 352 L 229.85714285714283 352 L 230.28571428571428 352.14285714285717 L 230.71428571428572 352.42857142857144 L 231 352.7142857142857 L 231.28571428571428 353 L 231.57142857142858 353.42857142857144 L 233 353.42857142857144 L 232.85714285714286 352.8571428571429 L 232.57142857142856 352.2857142857143 L 232.28571428571428 351.8571428571429 L 231.71428571428572 351.42857142857144 L 231.28571428571428 351.14285714285717 L 230.57142857142858 350.8571428571429 L 230 350.7142857142857 L 229.1428571428571 350.7142857142857 Z" fill="none" stroke="#f2eda1" stroke-width="1.4285714285714288" stroke-linecap="round" stroke-linejoin="round" data-pcb-component-id="null" data-pcb-silkscreen-path-id="pcb_silkscreen_path_12" data-type="pcb_silkscreen_path" data-pcb-layer="top"/><path class="pcb-silkscreen pcb-silkscreen-top" d="M 236.28571428571428 350.8571428571429 L 234.85714285714283 350.8571428571429 L 234.85714285714283 363.57142857142856 L 236.28571428571428 363.57142857142856 L 236.28571428571428 350.8571428571429 Z" fill="none" stroke="#f2eda1" stroke-width="1.4285714285714288" stroke-linecap="round" stroke-linejoin="round" data-pcb-component-id="null" data-pcb-silkscreen-path-id="pcb_silkscreen_path_13" data-type="pcb_silkscreen_path" data-pcb-layer="top"/><path class="pcb-silkscreen pcb-silkscreen-top" d="M 242.28571428571428 350.7142857142857 L 241.57142857142856 350.7142857142857 L 241 350.8571428571429 L 240.42857142857142 351 L 240 351.2857142857143 L 239.57142857142856 351.57142857142856 L 239.14285714285714 352 L 238.71428571428572 352.42857142857144 L 238.42857142857142 352.8571428571429 L 238.28571428571428 353.42857142857144 L 238.14285714285714 354 L 238 354.7142857142857 L 238 355.42857142857144 L 238 356.14285714285717 L 238.14285714285714 356.7142857142857 L 238.28571428571428 357.42857142857144 L 238.42857142857142 358 L 238.71428571428572 358.42857142857144 L 239.14285714285714 358.8571428571429 L 239.42857142857142 359.2857142857143 L 240 359.57142857142856 L 240.42857142857142 359.8571428571429 L 241 360.14285714285717 L 241.57142857142856 360.14285714285717 L 242.1428571428571 360.2857142857143 L 242.71428571428572 360.14285714285717 L 243.28571428571428 360.14285714285717 L 243.85714285714286 359.8571428571429 L 244.28571428571428 359.7142857142857 L 244.71428571428572 359.2857142857143 L 245.14285714285714 359 L 245.42857142857142 358.57142857142856 L 245.7142857142857 358 L 245.85714285714286 357.42857142857144 L 246 356.8571428571429 L 246.14285714285714 356.2857142857143 L 246.14285714285714 355.57142857142856 L 246.14285714285714 355 L 238.71428571428572 355 L 238.71428571428572 356.2857142857143 L 245.42857142857142 356.2857142857143 L 244.71428571428572 355.7142857142857 L 244.57142857142856 356.2857142857143 L 244.42857142857142 357.14285714285717 L 244.14285714285714 357.8571428571429 L 243.71428571428572 358.2857142857143 L 243.14285714285714 358.7142857142857 L 242.42857142857142 358.8571428571429 L 242.1428571428571 358.8571428571429 L 241.7142857142857 358.8571428571429 L 241.1428571428571 358.7142857142857 L 240.57142857142856 358.2857142857143 L 240 357.7142857142857 L 239.7142857142857 357.14285714285717 L 239.57142857142856 356.14285714285717 L 239.57142857142856 355.7142857142857 L 239.57142857142856 354.7142857142857 L 239.7142857142857 353.8571428571429 L 240 353.1428571428571 L 240.28571428571428 352.8571428571429 L 240.85714285714283 352.42857142857144 L 241.42857142857142 352.14285714285717 L 242.28571428571428 352 L 242.85714285714286 352 L 243.28571428571428 352.14285714285717 L 243.71428571428572 352.42857142857144 L 244.14285714285714 352.7142857142857 L 244.28571428571428 353 L 244.57142857142856 353.42857142857144 L 246.14285714285714 353.42857142857144 L 245.85714285714286 352.8571428571429 L 245.57142857142856 352.2857142857143 L 245.28571428571428 351.8571428571429 L 244.85714285714286 351.42857142857144 L 244.28571428571428 351.14285714285717 L 243.57142857142858 350.8571428571429 L 243 350.7142857142857 L 242.28571428571428 350.7142857142857 Z" fill="none" stroke="#f2eda1" stroke-width="1.4285714285714288" stroke-linecap="round" stroke-linejoin="round" data-pcb-component-id="null" data-pcb-silkscreen-path-id="pcb_silkscreen_path_14" data-type="pcb_silkscreen_path" data-pcb-layer="top"/><path class="pcb-silkscreen pcb-silkscreen-top" d="M 249.28571428571428 350.8571428571429 L 247.7142857142857 350.8571428571429 L 247.7142857142857 360 L 249.28571428571428 360 L 249.28571428571428 358.7142857142857 L 249.42857142857144 359 L 249.71428571428572 359.2857142857143 L 250 359.57142857142856 L 250.28571428571428 359.8571428571429 L 250.71428571428572 360 L 251 360.14285714285717 L 251.42857142857142 360.14285714285717 L 251.85714285714286 360.2857142857143 L 252.14285714285714 360.2857142857143 L 252.42857142857142 360.14285714285717 L 253 360 L 253.42857142857142 359.7142857142857 L 253.7142857142857 359.57142857142856 L 253.99999999999997 359.2857142857143 L 254.28571428571428 358.7142857142857 L 254.42857142857142 358.42857142857144 L 254.57142857142856 358.7142857142857 L 255 359.1428571428571 L 255.42857142857144 359.57142857142856 L 255.85714285714286 359.8571428571429 L 256.42857142857144 360.14285714285717 L 257 360.2857142857143 L 257.42857142857144 360.2857142857143 L 257.8571428571429 360.14285714285717 L 258.57142857142856 360 L 259.2857142857143 359.7142857142857 L 259.85714285714283 359.1428571428571 L 260.1428571428571 358.42857142857144 L 260.42857142857144 357.7142857142857 L 260.42857142857144 357.14285714285717 L 260.42857142857144 350.8571428571429 L 258.85714285714283 350.8571428571429 L 258.85714285714283 356.8571428571429 L 258.71428571428567 357.42857142857144 L 258.57142857142856 358 L 258.2857142857143 358.2857142857143 L 258 358.57142857142856 L 257.42857142857144 358.8571428571429 L 256.8571428571429 358.8571428571429 L 256.2857142857143 358.8571428571429 L 255.85714285714286 358.57142857142856 L 255.42857142857144 358.2857142857143 L 255.14285714285714 357.8571428571429 L 254.85714285714286 357.2857142857143 L 254.85714285714286 356.7142857142857 L 254.85714285714286 350.8571428571429 L 253.28571428571428 350.8571428571429 L 253.28571428571428 357 L 253.14285714285714 357.7142857142857 L 252.85714285714283 358.14285714285717 L 252.57142857142856 358.57142857142856 L 252.14285714285714 358.7142857142857 L 251.7142857142857 358.8571428571429 L 251.42857142857142 358.8571428571429 L 250.85714285714286 358.8571428571429 L 250.28571428571428 358.57142857142856 L 249.85714285714286 358.2857142857143 L 249.57142857142858 357.7142857142857 L 249.28571428571428 357.2857142857143 L 249.28571428571428 356.57142857142856 L 249.28571428571428 350.8571428571429 Z" fill="none" stroke="#f2eda1" stroke-width="1.4285714285714288" stroke-linecap="round" stroke-linejoin="round" data-pcb-component-id="null" data-pcb-silkscreen-path-id="pcb_silkscreen_path_15" data-type="pcb_silkscreen_path" data-pcb-layer="top"/><path class="pcb-silkscreen pcb-silkscreen-top" d="M 266.1428571428571 350.7142857142857 L 265.57142857142856 350.7142857142857 L 264.85714285714283 350.8571428571429 L 264.42857142857144 351 L 263.8571428571429 351.2857142857143 L 263.42857142857144 351.57142857142856 L 263 352 L 262.7142857142857 352.42857142857144 L 262.42857142857144 352.8571428571429 L 262.1428571428571 353.42857142857144 L 262 354 L 261.8571428571429 354.7142857142857 L 261.8571428571429 355.42857142857144 L 261.8571428571429 356.14285714285717 L 262 356.7142857142857 L 262.1428571428571 357.42857142857144 L 262.42857142857144 358 L 262.7142857142857 358.42857142857144 L 263 358.8571428571429 L 263.42857142857144 359.2857142857143 L 263.8571428571429 359.57142857142856 L 264.2857142857143 359.8571428571429 L 264.85714285714283 360.14285714285717 L 265.42857142857144 360.14285714285717 L 266 360.2857142857143 L 266.71428571428567 360.14285714285717 L 267.2857142857143 360.14285714285717 L 267.7142857142857 359.8571428571429 L 268.2857142857143 359.7142857142857 L 268.7142857142857 359.2857142857143 L 269 359 L 269.2857142857143 358.57142857142856 L 269.57142857142856 358 L 269.8571428571429 357.42857142857144 L 270 356.8571428571429 L 270.1428571428571 356.2857142857143 L 270.1428571428571 355.57142857142856 L 270.1428571428571 355 L 262.7142857142857 355 L 262.7142857142857 356.2857142857143 L 269.2857142857143 356.2857142857143 L 268.57142857142856 355.7142857142857 L 268.57142857142856 356.2857142857143 L 268.42857142857144 357.14285714285717 L 268 357.8571428571429 L 267.57142857142856 358.2857142857143 L 267 358.7142857142857 L 266.42857142857144 358.8571428571429 L 266 358.8571428571429 L 265.71428571428567 358.8571428571429 L 265 358.7142857142857 L 264.42857142857144 358.2857142857143 L 264 357.7142857142857 L 263.7142857142857 357.14285714285717 L 263.42857142857144 356.14285714285717 L 263.42857142857144 355.7142857142857 L 263.42857142857144 354.7142857142857 L 263.57142857142856 353.8571428571429 L 264 353.1428571428571 L 264.1428571428571 352.8571428571429 L 264.71428571428567 352.42857142857144 L 265 352.2857142857143 L 265.71428571428567 352 L 266.1428571428571 352 L 266.71428571428567 352 L 267.2857142857143 352.14285714285717 L 267.7142857142857 352.42857142857144 L 268 352.7142857142857 L 268.2857142857143 353 L 268.42857142857144 353.42857142857144 L 270 353.42857142857144 L 269.8571428571429 352.8571428571429 L 269.57142857142856 352.2857142857143 L 269.1428571428571 351.8571428571429 L 268.7142857142857 351.42857142857144 L 268.1428571428571 351.14285714285717 L 267.57142857142856 350.8571428571429 L 266.85714285714283 350.7142857142857 L 266.1428571428571 350.7142857142857 Z" fill="none" stroke="#f2eda1" stroke-width="1.4285714285714288" stroke-linecap="round" stroke-linejoin="round" data-pcb-component-id="null" data-pcb-silkscreen-path-id="pcb_silkscreen_path_16" data-type="pcb_silkscreen_path" data-pcb-layer="top"/><path class="pcb-silkscreen pcb-silkscreen-top" d="M 274.7142857142857 350.7142857142857 L 274 350.7142857142857 L 273.57142857142856 350.8571428571429 L 273.14285714285717 351 L 272.7142857142857 351.2857142857143 L 272.42857142857144 351.57142857142856 L 272.2857142857143 352 L 272.14285714285717 352.57142857142856 L 272.14285714285717 353.1428571428571 L 272.14285714285717 358.7142857142857 L 270.71428571428567 358.7142857142857 L 270.71428571428567 360 L 272.14285714285717 360 L 272.14285714285717 362.57142857142856 L 273.7142857142857 362.57142857142856 L 273.7142857142857 360 L 275.42857142857144 360 L 275.42857142857144 358.7142857142857 L 273.7142857142857 358.7142857142857 L 273.7142857142857 353.1428571428571 L 273.85714285714283 352.57142857142856 L 274 352.14285714285717 L 274.42857142857144 352 L 274.7142857142857 352 L 275 351.8571428571429 L 275.42857142857144 352 L 275.42857142857144 350.7142857142857 L 275.2857142857143 350.7142857142857 L 275 350.7142857142857 L 274.7142857142857 350.7142857142857 Z" fill="none" stroke="#f2eda1" stroke-width="1.4285714285714288" stroke-linecap="round" stroke-linejoin="round" data-pcb-component-id="null" data-pcb-silkscreen-path-id="pcb_silkscreen_path_17" data-type="pcb_silkscreen_path" data-pcb-layer="top"/><path class="pcb-silkscreen pcb-silkscreen-top" d="M 278.7142857142857 350.8571428571429 L 277.1428571428571 350.8571428571429 L 277.1428571428571 360 L 278.7142857142857 360 L 278.7142857142857 358.42857142857144 L 278.85714285714283 358.8571428571429 L 279.2857142857143 359.57142857142856 L 279.85714285714283 360 L 280.4285714285714 360.14285714285717 L 280.85714285714283 360.2857142857143 L 281.1428571428571 360.2857142857143 L 281.42857142857144 360.14285714285717 L 281.42857142857144 358.7142857142857 L 281.1428571428571 358.7142857142857 L 280.85714285714283 358.7142857142857 L 280.4285714285714 358.7142857142857 L 279.85714285714283 358.57142857142856 L 279.42857142857144 358.2857142857143 L 279 358 L 278.85714285714283 357.42857142857144 L 278.7142857142857 356.8571428571429 L 278.7142857142857 356.57142857142856 L 278.7142857142857 350.8571428571429 Z" fill="none" stroke="#f2eda1" stroke-width="1.4285714285714288" stroke-linecap="round" stroke-linejoin="round" data-pcb-component-id="null" data-pcb-silkscreen-path-id="pcb_silkscreen_path_18" data-type="pcb_silkscreen_path" data-pcb-layer="top"/><path class="pcb-silkscreen pcb-silkscreen-top" d="M 286.57142857142856 350.7142857142857 L 286 350.7142857142857 L 285.42857142857144 350.8571428571429 L 284.85714285714283 351 L 284.2857142857143 351.2857142857143 L 283.8571428571429 351.57142857142856 L 283.42857142857144 352 L 283.1428571428571 352.42857142857144 L 282.8571428571429 352.8571428571429 L 282.57142857142856 353.42857142857144 L 282.42857142857144 354.14285714285717 L 282.2857142857143 354.7142857142857 L 282.2857142857143 355.42857142857144 L 282.2857142857143 356.14285714285717 L 282.42857142857144 356.8571428571429 L 282.57142857142856 357.42857142857144 L 282.8571428571429 358 L 283.1428571428571 358.57142857142856 L 283.42857142857144 359 L 283.8571428571429 359.2857142857143 L 284.2857142857143 359.7142857142857 L 284.85714285714283 359.8571428571429 L 285.42857142857144 360.14285714285717 L 286 360.14285714285717 L 286.57142857142856 360.2857142857143 L 287.1428571428571 360.14285714285717 L 287.7142857142857 360.14285714285717 L 288.2857142857143 359.8571428571429 L 288.8571428571429 359.7142857142857 L 289.2857142857143 359.2857142857143 L 289.71428571428567 359 L 290 358.57142857142856 L 290.2857142857143 358 L 290.57142857142856 357.42857142857144 L 290.7142857142857 356.8571428571429 L 290.85714285714283 356.14285714285717 L 290.85714285714283 355.42857142857144 L 290.85714285714283 354.7142857142857 L 290.7142857142857 354 L 290.57142857142856 353.42857142857144 L 290.2857142857143 352.8571428571429 L 290 352.42857142857144 L 289.71428571428567 352 L 289.2857142857143 351.57142857142856 L 288.8571428571429 351.2857142857143 L 288.2857142857143 351 L 287.7142857142857 350.8571428571429 L 287.1428571428571 350.7142857142857 L 286.57142857142856 350.7142857142857 Z" fill="none" stroke="#f2eda1" stroke-width="1.4285714285714288" stroke-linecap="round" stroke-linejoin="round" data-pcb-component-id="null" data-pcb-silkscreen-path-id="pcb_silkscreen_path_19" data-type="pcb_silkscreen_path" data-pcb-layer="top"/><path class="pcb-silkscreen pcb-silkscreen-top" d="M 286.57142857142856 352 L 287 352 L 287.7142857142857 352.2857142857143 L 288.2857142857143 352.7142857142857 L 288.7142857142857 353.2857142857143 L 289 354 L 289.2857142857143 354.8571428571429 L 289.2857142857143 355.42857142857144 L 289.2857142857143 356 L 289 356.8571428571429 L 288.7142857142857 357.7142857142857 L 288.2857142857143 358.2857142857143 L 287.7142857142857 358.7142857142857 L 287 358.8571428571429 L 286.57142857142856 358.8571428571429 L 286.1428571428571 358.8571428571429 L 285.42857142857144 358.57142857142856 L 284.85714285714283 358.2857142857143 L 284.42857142857144 357.7142857142857 L 284 356.8571428571429 L 283.8571428571429 356 L 283.8571428571429 355.42857142857144 L 283.8571428571429 354.8571428571429 L 284 354 L 284.42857142857144 353.2857142857143 L 284.85714285714283 352.7142857142857 L 285.42857142857144 352.2857142857143 L 286.1428571428571 352 L 286.57142857142856 352 Z" fill="none" stroke="#f2eda1" stroke-width="1.4285714285714288" stroke-linecap="round" stroke-linejoin="round" data-pcb-component-id="null" data-pcb-silkscreen-path-id="pcb_silkscreen_path_20" data-type="pcb_silkscreen_path" data-pcb-layer="top"/><path class="pcb-silkscreen pcb-silkscreen-top" d="M 293.8571428571429 350.8571428571429 L 292.42857142857144 350.8571428571429 L 292.42857142857144 360 L 293.8571428571429 360 L 293.8571428571429 358.7142857142857 L 294.1428571428571 359 L 294.7142857142857 359.57142857142856 L 295.42857142857144 360 L 296.2857142857143 360.14285714285717 L 296.85714285714283 360.2857142857143 L 297.57142857142856 360.14285714285717 L 298.7142857142857 359.7142857142857 L 299.57142857142856 358.8571428571429 L 300 357.57142857142856 L 300 356.8571428571429 L 300 350.8571428571429 L 298.42857142857144 350.8571428571429 L 298.42857142857144 356.57142857142856 L 298.2857142857143 357.57142857142856 L 297.85714285714283 358.2857142857143 L 297.2857142857143 358.7142857142857 L 296.85714285714283 358.8571428571429 L 296.2857142857143 358.8571428571429 L 295.7142857142857 358.8571428571429 L 295 358.57142857142856 L 294.57142857142856 358.14285714285717 L 294.2857142857143 357.57142857142856 L 294 357 L 293.8571428571429 356.2857142857143 L 293.8571428571429 350.8571428571429 Z" fill="none" stroke="#f2eda1" stroke-width="1.4285714285714288" stroke-linecap="round" stroke-linejoin="round" data-pcb-component-id="null" data-pcb-silkscreen-path-id="pcb_silkscreen_path_21" data-type="pcb_silkscreen_path" data-pcb-layer="top"/><g data-type="pcb_plated_hole" data-pcb-layer="through"><circle class="pcb-hole-outer" fill="rgb(200, 52, 52)" cx="381.85714285714283" cy="442.8571428571429" r="12.857142857142858" data-type="pcb_plated_hole" data-pcb-layer="top"/><circle class="pcb-hole-inner" fill="#FF26E2" cx="381.85714285714283" cy="442.8571428571429" r="7.142857142857143" data-type="pcb_plated_hole_drill" data-pcb-layer="drill"/></g><g data-type="pcb_plated_hole" data-pcb-layer="through"><circle class="pcb-hole-outer" fill="rgb(200, 52, 52)" cx="418.14285714285717" cy="442.8571428571429" r="12.857142857142858" data-type="pcb_plated_hole" data-pcb-layer="top"/><circle class="pcb-hole-inner" fill="#FF26E2" cx="418.14285714285717" cy="442.8571428571429" r="7.142857142857143" data-type="pcb_plated_hole_drill" data-pcb-layer="drill"/></g><g data-type="pcb_via" data-pcb-layer="through"><circle class="pcb-hole-outer" fill="rgb(200, 52, 52)" cx="457.14285714285717" cy="420" r="2.142857142857143" data-type="pcb_via" data-pcb-layer="top"/><circle class="pcb-hole-inner" fill="#FF26E2" cx="457.14285714285717" cy="420" r="1.4285714285714288" data-type="pcb_via" data-pcb-layer="drill"/></g><g data-type="pcb_via" data-pcb-layer="through"><circle class="pcb-hole-outer" fill="rgb(200, 52, 52)" cx="536.875" cy="430.71428571428567" r="2.142857142857143" data-type="pcb_via" data-pcb-layer="top"/><circle class="pcb-hole-inner" fill="#FF26E2" cx="536.875" cy="430.71428571428567" r="1.4285714285714288" data-type="pcb_via" data-pcb-layer="drill"/></g><g data-type="pcb_via" data-pcb-layer="through"><circle class="pcb-hole-outer" fill="rgb(200, 52, 52)" cx="428.57142857142856" cy="420" r="2.142857142857143" data-type="pcb_via" data-pcb-layer="top"/><circle class="pcb-hole-inner" fill="#FF26E2" cx="428.57142857142856" cy="420" r="1.4285714285714288" data-type="pcb_via" data-pcb-layer="drill"/></g><g data-type="pcb_via" data-pcb-layer="through"><circle class="pcb-hole-outer" fill="rgb(200, 52, 52)" cx="417.14285714285717" cy="328.5714285714286" r="2.142857142857143" data-type="pcb_via" data-pcb-layer="top"/><circle class="pcb-hole-inner" fill="#FF26E2" cx="417.14285714285717" cy="328.5714285714286" r="1.4285714285714288" data-type="pcb_via" data-pcb-layer="drill"/></g><g data-type="pcb_via" data-pcb-layer="through"><circle class="pcb-hole-outer" fill="rgb(200, 52, 52)" cx="357.82142857142856" cy="257.85714285714283" r="2.142857142857143" data-type="pcb_via" data-pcb-layer="top"/><circle class="pcb-hole-inner" fill="#FF26E2" cx="357.82142857142856" cy="257.85714285714283" r="1.4285714285714288" data-type="pcb_via" data-pcb-layer="drill"/></g><g data-type="pcb_via" data-pcb-layer="through"><circle class="pcb-hole-outer" fill="rgb(200, 52, 52)" cx="571.4285714285714" cy="380" r="2.142857142857143" data-type="pcb_via" data-pcb-layer="top"/><circle class="pcb-hole-inner" fill="#FF26E2" cx="571.4285714285714" cy="380" r="1.4285714285714288" data-type="pcb_via" data-pcb-layer="drill"/></g><circle class="pcb-hole" cx="400" cy="528.5714285714286" r="17.857142857142858" fill="#FF26E2" data-type="pcb_hole" data-pcb-layer="drill"/></svg>