<svg xmlns="http://www.w3.org/2000/svg" width="800" height="600" data-software-used-string="@tscircuit/core@0.0.1112"><style></style><rect class="boundary" x="0" y="0" fill="#000" width="800" height="600" data-type="pcb_background" data-pcb-layer="global"/><rect class="pcb-boundary" fill="none" stroke="#fff" stroke-width="0.3" x="99.39879759519039" y="13.360053440213733" width="601.2024048096191" height="573.2798931195725" data-type="pcb_boundary" data-pcb-layer="global"/><path class="pcb-board" d="M 400 586.6399465597863 L 420.04008016032066 579.9599198396793 L 430.72812291249164 570.6078824315298 L 437.4081496325985 557.2478289913159 L 440.0801603206413 539.8797595190381 L 440.0801603206413 519.8396793587174 L 437.54175016700066 506.74682698730794 L 461.0554442217769 528.1229124916499 L 490.0467601870407 544.9565798263193 L 523.4468937875752 554.8430193720775 L 559.1182364729459 556.312625250501 L 595.1903807615231 548.8309953239814 L 629.2585170340682 532.6653306613226 L 658.5170340681364 508.88443553774215 L 681.2291249164997 478.9579158316633 L 695.6579826319305 444.6225784903139 L 700.6012024048096 407.8824315297261 L 695.6579826319305 370.34068136272543 L 681.2291249164997 333.19973279893117 L 658.5170340681364 297.12758851035403 L 629.2585170340682 262.52505010020036 L 595.1903807615231 229.52571810287242 L 559.1182364729459 197.72879091516367 L 523.4468937875752 167.13426853707412 L 490.0467601870407 137.74215096860388 L 461.0554442217769 109.81963927855708 L 437.54175016700066 83.63393453573815 L 420.3072812291249 60.38744154976615 L 408.8176352705411 40.88176352705409 L 402.67201068804275 26.052104208416836 L 400.4008016032064 16.566466265865017 L 400 13.360053440213733 L 399.5991983967936 16.566466265865017 L 397.32798931195725 26.052104208416836 L 391.1823647294589 40.88176352705409 L 379.6927187708751 60.38744154976615 L 362.45824983299934 83.63393453573815 L 338.9445557782231 109.81963927855708 L 309.9532398129593 137.74215096860388 L 276.55310621242484 167.13426853707412 L 240.8817635270541 197.72879091516367 L 204.80961923847696 229.52571810287242 L 170.74148296593185 262.52505010020036 L 141.4829659318637 297.12758851035403 L 118.7708750835003 333.19973279893117 L 104.34201736806949 370.34068136272543 L 99.39879759519039 407.8824315297261 L 104.34201736806949 444.6225784903139 L 118.7708750835003 478.9579158316633 L 141.4829659318637 508.88443553774215 L 170.74148296593185 532.6653306613226 L 204.80961923847696 548.8309953239814 L 240.8817635270541 556.312625250501 L 276.55310621242484 554.8430193720775 L 309.9532398129593 544.9565798263193 L 338.9445557782231 528.1229124916499 L 362.45824983299934 506.74682698730794 L 359.9198396793587 519.8396793587174 L 359.9198396793587 539.8797595190381 L 362.5918503674015 557.2478289913159 L 369.27187708750836 570.6078824315298 L 379.95991983967934 579.9599198396793 Z" fill="none" stroke="rgba(255, 255, 255, 0.5)" stroke-width="1.3360053440213762" data-type="pcb_board" data-pcb-layer="board"/><path class="pcb-trace" stroke="rgb(77, 127, 196)" fill="none" d="M 394.6559786239145 348.8309953239813 L 394.6559786239145 348.8309953239813" stroke-width="2.004008016032064" stroke-linecap="round" stroke-linejoin="round" shape-rendering="crispEdges" data-type="pcb_trace" data-pcb-layer="bottom"/><path class="pcb-trace" stroke="rgb(77, 127, 196)" fill="none" d="M 394.6559786239145 348.8309953239813 L 394.6559786239145 179.5741665121084" stroke-width="2.004008016032064" stroke-linecap="round" stroke-linejoin="round" shape-rendering="crispEdges" data-type="pcb_trace" data-pcb-layer="bottom"/><path class="pcb-trace" stroke="rgb(77, 127, 196)" fill="none" d="M 394.6559786239145 179.5741665121084 L 399.7720808934246 174.45806424259834" stroke-width="2.004008016032064" stroke-linecap="round" stroke-linejoin="round" shape-rendering="crispEdges" data-type="pcb_trace" data-pcb-layer="bottom"/><path class="pcb-trace" stroke="rgb(77, 127, 196)" fill="none" d="M 399.7720808934246 174.45806424259834 L 400 172.4782899131596" stroke-width="2.004008016032064" stroke-linecap="round" stroke-linejoin="round" shape-rendering="crispEdges" data-type="pcb_trace" data-pcb-layer="bottom"/><path class="pcb-trace" stroke="rgb(77, 127, 196)" fill="none" d="M 400 172.4782899131596 L 400 172.4782899131596" stroke-width="2.004008016032064" stroke-linecap="round" stroke-linejoin="round" shape-rendering="crispEdges" data-type="pcb_trace" data-pcb-layer="bottom"/><path class="pcb-silkscreen pcb-silkscreen-bottom" d="M 309.55243820975284 467.3346693386774 L 319.83967935871743 492.5851703406814 L 309.9532398129593 492.5851703406814 L 305.0100200400801 478.55711422845695 L 300.0668002672011 492.5851703406814 L 290.5811623246493 492.5851703406814 L 300.8684034736139 467.3346693386774 L 309.55243820975284 467.3346693386774 Z" fill="none" stroke="#5da9e9" stroke-width="1.3360053440213762" stroke-linecap="round" stroke-linejoin="round" data-pcb-component-id="null" data-pcb-silkscreen-path-id="pcb_silkscreen_path_6" data-type="pcb_silkscreen_path" data-pcb-layer="bottom"/><path class="pcb-silkscreen pcb-silkscreen-bottom" d="M 279.62591850367403 467.3346693386774 L 288.8443553774215 467.3346693386774 L 288.8443553774215 492.5851703406814 L 279.62591850367403 492.5851703406814 L 279.62591850367403 467.3346693386774 Z" fill="none" stroke="#5da9e9" stroke-width="1.3360053440213762" stroke-linecap="round" stroke-linejoin="round" data-pcb-component-id="null" data-pcb-silkscreen-path-id="pcb_silkscreen_path_7" data-type="pcb_silkscreen_path" data-pcb-layer="bottom"/><path class="pcb-silkscreen pcb-silkscreen-bottom" d="M 253.97461589846358 492.5851703406814 L 253.97461589846358 486.84034736138943 L 264.7962591850367 474.68269873079487 L 253.84101536406146 474.68269873079487 L 253.84101536406146 467.3346693386774 L 277.08750835003343 467.3346693386774 L 277.08750835003343 473.2130928523714 L 266.26586506346024 485.2371409485638 L 276.4195056780227 485.2371409485638 L 276.4195056780227 492.5851703406814 L 253.97461589846358 492.5851703406814 Z" fill="none" stroke="#5da9e9" stroke-width="1.3360053440213762" stroke-linecap="round" stroke-linejoin="round" data-pcb-component-id="null" data-pcb-silkscreen-path-id="pcb_silkscreen_path_8" data-type="pcb_silkscreen_path" data-pcb-layer="bottom"/><path class="pcb-silkscreen pcb-silkscreen-bottom" d="M 253.03941215764863 480.0267201068804 L 252.77221108884436 482.6987307949232 L 252.10420841683367 485.37074148296597 L 250.90180360721442 487.64195056780227 L 249.16499665998666 489.51235804943224 L 247.16098864395457 491.11556446225785 L 244.88977955911824 492.3179692718771 L 242.21776887107546 493.1195724782899 L 239.27855711422845 493.3867735470942 L 237.00734802939212 493.1195724782899 L 234.7361389445558 492.5851703406814 L 233.4001336005344 492.05076820307283 L 233.4001336005344 483.63393453573815 L 235.00334001336006 484.4355377421509 L 236.74014696058782 484.9699398797595 L 237.94255177020707 484.9699398797595 L 240.2137608550434 484.7027388109552 L 241.9505678022712 483.63393453573815 L 243.15297261189045 482.0307281229125 L 243.687374749499 480.0267201068804 L 243.15297261189045 477.8891115564462 L 242.08416833667334 476.28590514362054 L 240.2137608550434 475.21710086840346 L 237.94255177020707 474.94989979959917 L 236.74014696058782 474.94989979959917 L 235.00334001336006 475.48430193720776 L 233.4001336005344 476.4195056780227 L 233.4001336005344 468.002672010688 L 235.67134268537072 467.0674682698731 L 237.94255177020707 466.66666666666663 L 239.4121576486306 466.66666666666663 L 242.21776887107546 466.8002672010688 L 244.88977955911824 467.6018704074816 L 247.16098864395457 468.67067468269875 L 249.16499665998666 470.27388109552436 L 250.7682030728123 472.14428857715427 L 251.97060788243152 474.4154976619906 L 252.77221108884436 477.08750835003343 L 253.03941215764863 480.0267201068804 Z" fill="none" stroke="#5da9e9" stroke-width="1.3360053440213762" stroke-linecap="round" stroke-linejoin="round" data-pcb-component-id="null" data-pcb-silkscreen-path-id="pcb_silkscreen_path_9" data-type="pcb_silkscreen_path" data-pcb-layer="bottom"/><path class="pcb-silkscreen pcb-silkscreen-bottom" d="M 217.50167000668003 493.3867735470942 L 214.6960587842351 493.1195724782899 L 212.0240480961924 492.3179692718771 L 209.6192384769539 491.11556446225785 L 207.4816299265197 489.51235804943224 L 205.7448229792919 487.5083500334001 L 204.5424181696727 485.2371409485638 L 203.74081496325985 482.6987307949232 L 203.47361389445555 480.0267201068804 L 203.74081496325985 477.2211088844356 L 204.5424181696727 474.68269873079487 L 205.7448229792919 472.41148964595857 L 207.4816299265197 470.40748162992656 L 209.6192384769539 468.8042752171009 L 212.0240480961924 467.6018704074816 L 214.6960587842351 466.8002672010688 L 217.50167000668003 466.66666666666663 L 220.44088176352705 466.8002672010688 L 223.1128924515698 467.6018704074816 L 225.51770207080827 468.8042752171009 L 227.65531062124248 470.40748162992656 L 229.39211756847027 472.41148964595857 L 230.59452237808952 474.68269873079487 L 231.39612558450236 477.2211088844356 L 231.66332665330663 480.0267201068804 L 231.39612558450236 482.6987307949232 L 230.59452237808952 485.2371409485638 L 229.39211756847027 487.5083500334001 L 227.65531062124248 489.51235804943224 L 225.51770207080827 491.11556446225785 L 223.1128924515698 492.3179692718771 L 220.44088176352705 493.1195724782899 L 217.50167000668003 493.3867735470942 Z" fill="none" stroke="#5da9e9" stroke-width="1.3360053440213762" stroke-linecap="round" stroke-linejoin="round" data-pcb-component-id="null" data-pcb-silkscreen-path-id="pcb_silkscreen_path_10" data-type="pcb_silkscreen_path" data-pcb-layer="bottom"/><path class="pcb-silkscreen pcb-silkscreen-bottom" d="M 217.50167000668003 484.9699398797595 L 219.5056780227121 484.5691382765531 L 221.10888443553773 483.500334001336 L 222.17768871075484 481.89712758851033 L 222.57849031396125 480.0267201068804 L 222.17768871075484 478.02271209084836 L 221.10888443553773 476.4195056780227 L 219.5056780227121 475.3507014028056 L 217.50167000668003 474.94989979959917 L 215.6312625250501 475.3507014028056 L 214.02805611222445 476.4195056780227 L 212.95925183700734 478.02271209084836 L 212.55845023380093 480.0267201068804 L 212.95925183700734 481.89712758851033 L 214.02805611222445 483.500334001336 L 215.6312625250501 484.5691382765531 L 217.50167000668003 484.9699398797595 Z" fill="none" stroke="#5da9e9" stroke-width="1.3360053440213762" stroke-linecap="round" stroke-linejoin="round" data-pcb-component-id="null" data-pcb-silkscreen-path-id="pcb_silkscreen_path_11" data-type="pcb_silkscreen_path" data-pcb-layer="bottom"/><path class="pcb-silkscreen pcb-silkscreen-bottom" d="M 192.5183700734803 480.9619238476954 L 192.5183700734803 467.2010688042752 L 201.8704074816299 467.2010688042752 L 201.8704074816299 492.5851703406814 L 192.5183700734803 492.5851703406814 L 192.5183700734803 489.64595858383433 L 190.51436205744824 491.6499665998664 L 187.8423513694055 492.98597194388776 L 185.57114228456913 493.25317301269206 L 183.16633266533066 492.98597194388776 L 180.36072144288576 491.6499665998664 L 178.3567134268537 489.24515698062794 L 175.95190380761522 491.78356713426854 L 172.74549098196394 493.1195724782899 L 170.47428189712758 493.25317301269206 L 166.5998663994656 492.5851703406814 L 163.79425517702072 490.5811623246493 L 162.19104876419505 487.64195056780227 L 161.52304609218433 483.500334001336 L 161.52304609218433 467.2010688042752 L 170.87508350033403 467.2010688042752 L 170.87508350033403 481.09552438209755 L 171.40948563794257 483.2331329325317 L 172.6118904475618 484.5691382765531 L 173.94789579158314 484.8363393453574 L 175.15030060120242 484.5691382765531 L 176.48630594522376 483.2331329325317 L 177.0207080828323 480.9619238476954 L 177.0207080828323 467.2010688042752 L 186.37274549098197 467.2010688042752 L 186.37274549098197 481.09552438209755 L 186.77354709418836 483.2331329325317 L 188.10955243820976 484.5691382765531 L 189.31195724782899 484.8363393453574 L 190.64796259185036 484.5691382765531 L 191.98396793587173 483.2331329325317 L 192.5183700734803 480.9619238476954 Z" fill="none" stroke="#5da9e9" stroke-width="1.3360053440213762" stroke-linecap="round" stroke-linejoin="round" data-pcb-component-id="null" data-pcb-silkscreen-path-id="pcb_silkscreen_path_12" data-type="pcb_silkscreen_path" data-pcb-layer="bottom"/><path class="pcb-silkscreen pcb-silkscreen-bottom" d="M 610.4208416833667 456.3794255177021 L 587.0407481629927 456.3794255177021 L 587.0407481629927 479.7595190380762 L 610.4208416833667 479.7595190380762 L 610.4208416833667 456.3794255177021 Z" fill="none" stroke="#5da9e9" stroke-width="1.3360053440213762" stroke-linecap="round" stroke-linejoin="round" data-pcb-component-id="null" data-pcb-silkscreen-path-id="pcb_silkscreen_path_13" data-type="pcb_silkscreen_path" data-pcb-layer="bottom"/><path class="pcb-silkscreen pcb-silkscreen-bottom" d="M 598.6639946559786 468.13627254509015 L 575.2839011356045 468.13627254509015 L 575.2839011356045 491.51636606546424 L 598.6639946559786 491.51636606546424 L 598.6639946559786 468.13627254509015 Z" fill="none" stroke="#5da9e9" stroke-width="1.3360053440213762" stroke-linecap="round" stroke-linejoin="round" data-pcb-component-id="null" data-pcb-silkscreen-path-id="pcb_silkscreen_path_14" data-type="pcb_silkscreen_path" data-pcb-layer="bottom"/><path class="pcb-silkscreen pcb-silkscreen-bottom" d="M 587.0407481629927 479.7595190380762 L 563.6606546426185 479.7595190380762 L 563.6606546426185 503.13961255845027 L 587.0407481629927 503.13961255845027 L 587.0407481629927 479.7595190380762 Z" fill="none" stroke="#5da9e9" stroke-width="1.3360053440213762" stroke-linecap="round" stroke-linejoin="round" data-pcb-component-id="null" data-pcb-silkscreen-path-id="pcb_silkscreen_path_15" data-type="pcb_silkscreen_path" data-pcb-layer="bottom"/><path class="pcb-silkscreen pcb-silkscreen-bottom" d="M 598.6639946559786 468.13627254509015 L 587.0407481629927 479.7595190380762" fill="none" stroke="#5da9e9" stroke-width="1.3360053440213762" stroke-linecap="round" stroke-linejoin="round" data-pcb-component-id="null" data-pcb-silkscreen-path-id="pcb_silkscreen_path_16" data-type="pcb_silkscreen_path" data-pcb-layer="bottom"/><path class="pcb-silkscreen pcb-silkscreen-bottom" d="M 587.0407481629927 479.7595190380762 L 575.2839011356045 491.51636606546424" fill="none" stroke="#5da9e9" stroke-width="1.3360053440213762" stroke-linecap="round" stroke-linejoin="round" data-pcb-component-id="null" data-pcb-silkscreen-path-id="pcb_silkscreen_path_17" data-type="pcb_silkscreen_path" data-pcb-layer="bottom"/><path class="pcb-silkscreen pcb-silkscreen-bottom" d="M 621.9104876419506 440.4809619238477 L 623.3800935203741 440.4809619238477 L 623.3800935203741 451.03540414161654 L 627.1209084836339 451.03540414161654 L 627.1209084836339 452.3714094856379 L 618.0360721442886 452.3714094856379 L 618.0360721442886 451.03540414161654 L 621.9104876419506 451.03540414161654 L 621.9104876419506 440.4809619238477 Z" fill="none" stroke="#5da9e9" stroke-width="1.3360053440213762" stroke-linecap="round" stroke-linejoin="round" data-pcb-component-id="null" data-pcb-silkscreen-path-id="pcb_silkscreen_path_18" data-type="pcb_silkscreen_path" data-pcb-layer="bottom"/><path class="pcb-silkscreen pcb-silkscreen-bottom" d="M 613.2264529058116 440.34736138944555 L 613.7608550434202 440.34736138944555 L 614.2952571810288 440.4809619238477 L 614.8296593186373 440.61456245824985 L 615.2304609218437 440.8817635270541 L 615.7648630594522 441.1489645958584 L 616.0320641282565 441.54976619906483 L 616.4328657314629 441.9505678022712 L 616.7000668002672 442.3513694054776 L 616.8336673346694 442.88577154308615 L 616.9672678690715 443.4201736806947 L 617.1008684034737 444.08817635270543 L 617.1008684034737 444.7561790247161 L 617.1008684034737 445.4241816967268 L 616.9672678690715 445.95858383433534 L 616.8336673346694 446.62658650634603 L 616.7000668002672 447.16098864395457 L 616.4328657314629 447.56179024716096 L 616.0320641282565 447.9625918503674 L 615.7648630594522 448.36339345357385 L 615.3640614562458 448.6305945223781 L 614.8296593186373 448.89779559118233 L 614.2952571810288 449.1649966599866 L 613.7608550434202 449.1649966599866 L 613.2264529058116 449.2985971943888 L 612.6920507682031 449.1649966599866 L 612.1576486305945 449.1649966599866 L 611.623246492986 448.89779559118233 L 611.2224448897796 448.76419505678024 L 610.8216432865731 448.36339345357385 L 610.4208416833667 448.09619238476955 L 610.1536406145625 447.6953907815631 L 609.8864395457582 447.16098864395457 L 609.7528390113561 446.62658650634603 L 609.6192384769539 446.0921843687375 L 609.4856379425518 445.5577822311289 L 609.4856379425518 444.8897795591182 L 609.4856379425518 444.3553774215097 L 616.4328657314629 444.3553774215097 L 616.4328657314629 445.5577822311289 L 610.1536406145625 445.5577822311289 L 610.9552438209753 445.02338009352036 L 610.9552438209753 445.5577822311289 L 611.0888443553774 446.35938543754173 L 611.3560454241817 447.0273881095525 L 611.7568470273882 447.42818971275886 L 612.2912491649967 447.82899131596525 L 612.9592518370073 447.9625918503674 L 613.2264529058116 447.9625918503674 L 613.627254509018 447.9625918503674 L 614.1616566466266 447.82899131596525 L 614.562458249833 447.6953907815631 L 614.9632598530394 447.16098864395457 L 615.3640614562458 446.62658650634603 L 615.6312625250501 445.95858383433534 L 615.6312625250501 445.02338009352036 L 615.6312625250501 444.08817635270543 L 615.4976619906479 443.2865731462926 L 615.2304609218437 442.6185704742819 L 614.9632598530394 442.3513694054776 L 614.4288577154309 441.9505678022712 L 613.8944555778223 441.6833667334669 L 613.0928523714094 441.54976619906483 L 612.558450233801 441.54976619906483 L 612.1576486305945 441.6833667334669 L 611.7568470273882 441.9505678022712 L 611.4896459585839 442.21776887107546 L 611.2224448897796 442.48496993987976 L 610.9552438209753 442.88577154308615 L 609.6192384769539 442.88577154308615 L 609.7528390113561 442.3513694054776 L 610.0200400801604 441.8169672678691 L 610.2872411489645 441.4161656646627 L 610.8216432865731 441.01536406145624 L 611.2224448897796 440.74816299265194 L 611.8904475617902 440.4809619238477 L 612.4248496993988 440.34736138944555 L 613.2264529058116 440.34736138944555 Z" fill="none" stroke="#5da9e9" stroke-width="1.3360053440213762" stroke-linecap="round" stroke-linejoin="round" data-pcb-component-id="null" data-pcb-silkscreen-path-id="pcb_silkscreen_path_19" data-type="pcb_silkscreen_path" data-pcb-layer="bottom"/><path class="pcb-silkscreen pcb-silkscreen-bottom" d="M 606.5464261857047 440.4809619238477 L 607.8824315297261 440.4809619238477 L 607.8824315297261 452.3714094856379 L 606.5464261857047 452.3714094856379 L 606.5464261857047 440.4809619238477 Z" fill="none" stroke="#5da9e9" stroke-width="1.3360053440213762" stroke-linecap="round" stroke-linejoin="round" data-pcb-component-id="null" data-pcb-silkscreen-path-id="pcb_silkscreen_path_20" data-type="pcb_silkscreen_path" data-pcb-layer="bottom"/><path class="pcb-silkscreen pcb-silkscreen-bottom" d="M 600.9352037408149 440.34736138944555 L 601.6032064128257 440.34736138944555 L 602.1376085504342 440.4809619238477 L 602.6720106880427 440.61456245824985 L 603.0728122912492 440.8817635270541 L 603.4736138944556 441.1489645958584 L 603.874415497662 441.54976619906483 L 604.2752171008684 441.9505678022712 L 604.5424181696727 442.3513694054776 L 604.6760187040749 442.88577154308615 L 604.8096192384769 443.4201736806947 L 604.943219772879 444.08817635270543 L 604.943219772879 444.7561790247161 L 604.943219772879 445.4241816967268 L 604.8096192384769 445.95858383433534 L 604.6760187040749 446.62658650634603 L 604.5424181696727 447.16098864395457 L 604.2752171008684 447.56179024716096 L 603.874415497662 447.9625918503674 L 603.6072144288578 448.36339345357385 L 603.0728122912492 448.6305945223781 L 602.6720106880427 448.89779559118233 L 602.1376085504342 449.1649966599866 L 601.6032064128257 449.1649966599866 L 601.0688042752171 449.2985971943888 L 600.5344021376086 449.1649966599866 L 600 449.1649966599866 L 599.4655978623914 448.89779559118233 L 599.0647962591851 448.76419505678024 L 598.6639946559786 448.36339345357385 L 598.2631930527722 448.09619238476955 L 597.995991983968 447.6953907815631 L 597.7287909151637 447.16098864395457 L 597.5951903807616 446.62658650634603 L 597.4615898463594 446.0921843687375 L 597.3279893119573 445.5577822311289 L 597.3279893119573 444.8897795591182 L 597.3279893119573 444.3553774215097 L 604.2752171008684 444.3553774215097 L 604.2752171008684 445.5577822311289 L 597.995991983968 445.5577822311289 L 598.6639946559786 445.02338009352036 L 598.7975951903808 445.5577822311289 L 598.9311957247829 446.35938543754173 L 599.1983967935872 447.0273881095525 L 599.5991983967936 447.42818971275886 L 600.1336005344021 447.82899131596525 L 600.8016032064129 447.9625918503674 L 601.0688042752171 447.9625918503674 L 601.4696058784235 447.9625918503674 L 602.0040080160321 447.82899131596525 L 602.5384101536406 447.42818971275886 L 603.0728122912492 446.89378757515027 L 603.3400133600535 446.35938543754173 L 603.4736138944556 445.4241816967268 L 603.4736138944556 445.02338009352036 L 603.4736138944556 444.08817635270543 L 603.3400133600535 443.2865731462926 L 603.0728122912492 442.6185704742819 L 602.8056112224449 442.3513694054776 L 602.2712090848363 441.9505678022712 L 601.7368069472278 441.6833667334669 L 600.9352037408149 441.54976619906483 L 600.4008016032064 441.54976619906483 L 600 441.6833667334669 L 599.5991983967936 441.9505678022712 L 599.1983967935872 442.21776887107546 L 599.0647962591851 442.48496993987976 L 598.7975951903808 442.88577154308615 L 597.3279893119573 442.88577154308615 L 597.5951903807616 442.3513694054776 L 597.8623914495658 441.8169672678691 L 598.1295925183701 441.4161656646627 L 598.5303941215765 441.01536406145624 L 599.0647962591851 440.74816299265194 L 599.7327989311957 440.4809619238477 L 600.2672010688043 440.34736138944555 L 600.9352037408149 440.34736138944555 Z" fill="none" stroke="#5da9e9" stroke-width="1.3360053440213762" stroke-linecap="round" stroke-linejoin="round" data-pcb-component-id="null" data-pcb-silkscreen-path-id="pcb_silkscreen_path_21" data-type="pcb_silkscreen_path" data-pcb-layer="bottom"/><path class="pcb-silkscreen pcb-silkscreen-bottom" d="M 594.3887775551102 440.4809619238477 L 595.8583834335337 440.4809619238477 L 595.8583834335337 449.0313961255845 L 594.3887775551102 449.0313961255845 L 594.3887775551102 447.82899131596525 L 594.2551770207081 448.09619238476955 L 593.9879759519038 448.36339345357385 L 593.7207748830995 448.6305945223781 L 593.4535738142953 448.89779559118233 L 593.0527722110888 449.0313961255845 L 592.7855711422845 449.1649966599866 L 592.3847695390782 449.1649966599866 L 591.9839679358718 449.2985971943888 L 591.7167668670675 449.2985971943888 L 591.4495657982632 449.1649966599866 L 590.9151636606546 449.0313961255845 L 590.5143620574482 448.76419505678024 L 590.2471609886439 448.6305945223781 L 589.9799599198398 448.36339345357385 L 589.7127588510355 447.82899131596525 L 589.5791583166333 447.56179024716096 L 589.4455577822312 447.82899131596525 L 589.0447561790247 448.2297929191717 L 588.6439545758183 448.6305945223781 L 588.2431529726118 448.89779559118233 L 587.7087508350033 449.1649966599866 L 587.1743486973949 449.2985971943888 L 586.7735470941884 449.2985971943888 L 586.372745490982 449.1649966599866 L 585.7047428189712 449.0313961255845 L 585.0367401469606 448.76419505678024 L 584.5023380093521 448.2297929191717 L 584.2351369405478 447.56179024716096 L 583.9679358717435 446.89378757515027 L 583.9679358717435 446.35938543754173 L 583.9679358717435 440.4809619238477 L 585.437541750167 440.4809619238477 L 585.437541750167 446.0921843687375 L 585.5711422845692 446.62658650634603 L 585.7047428189712 447.16098864395457 L 585.9719438877755 447.42818971275886 L 586.2391449565798 447.6953907815631 L 586.7735470941884 447.9625918503674 L 587.3079492317969 447.9625918503674 L 587.8423513694055 447.9625918503674 L 588.2431529726118 447.6953907815631 L 588.6439545758183 447.42818971275886 L 588.9111556446226 447.0273881095525 L 589.1783567134269 446.4929859719439 L 589.1783567134269 445.95858383433534 L 589.1783567134269 440.4809619238477 L 590.6479625918504 440.4809619238477 L 590.6479625918504 446.2257849031396 L 590.7815631262525 446.89378757515027 L 591.0487641950568 447.2945891783567 L 591.315965263861 447.6953907815631 L 591.7167668670675 447.82899131596525 L 592.1175684702739 447.9625918503674 L 592.3847695390782 447.9625918503674 L 592.9191716766867 447.9625918503674 L 593.4535738142953 447.6953907815631 L 593.8543754175016 447.42818971275886 L 594.1215764863059 446.89378757515027 L 594.3887775551102 446.4929859719439 L 594.3887775551102 445.8249832999332 L 594.3887775551102 440.4809619238477 Z" fill="none" stroke="#5da9e9" stroke-width="1.3360053440213762" stroke-linecap="round" stroke-linejoin="round" data-pcb-component-id="null" data-pcb-silkscreen-path-id="pcb_silkscreen_path_22" data-type="pcb_silkscreen_path" data-pcb-layer="bottom"/><path class="pcb-silkscreen pcb-silkscreen-bottom" d="M 578.623914495658 440.34736138944555 L 579.1583166332665 440.34736138944555 L 579.8263193052773 440.4809619238477 L 580.2271209084836 440.61456245824985 L 580.7615230460922 440.8817635270541 L 581.1623246492986 441.1489645958584 L 581.5631262525051 441.54976619906483 L 581.8303273213093 441.9505678022712 L 582.0975283901136 442.3513694054776 L 582.3647294589179 442.88577154308615 L 582.49832999332 443.4201736806947 L 582.6319305277221 444.08817635270543 L 582.6319305277221 444.7561790247161 L 582.6319305277221 445.4241816967268 L 582.49832999332 445.95858383433534 L 582.3647294589179 446.62658650634603 L 582.0975283901136 447.16098864395457 L 581.8303273213093 447.56179024716096 L 581.5631262525051 447.9625918503674 L 581.1623246492986 448.36339345357385 L 580.7615230460922 448.6305945223781 L 580.3607214428857 448.89779559118233 L 579.8263193052773 449.1649966599866 L 579.2919171676687 449.1649966599866 L 578.7575150300602 449.2985971943888 L 578.0895123580494 449.1649966599866 L 577.5551102204408 449.1649966599866 L 577.1543086172345 448.89779559118233 L 576.6199064796259 448.76419505678024 L 576.2191048764195 448.36339345357385 L 575.9519038076153 448.09619238476955 L 575.684702738811 447.6953907815631 L 575.4175016700067 447.16098864395457 L 575.1503006012024 446.62658650634603 L 575.0167000668002 446.0921843687375 L 574.8830995323981 445.5577822311289 L 574.8830995323981 444.8897795591182 L 574.8830995323981 444.3553774215097 L 581.8303273213093 444.3553774215097 L 581.8303273213093 445.5577822311289 L 575.684702738811 445.5577822311289 L 576.3527054108216 445.02338009352036 L 576.3527054108216 445.5577822311289 L 576.4863059452238 446.35938543754173 L 576.8871075484302 447.0273881095525 L 577.2879091516365 447.42818971275886 L 577.8223112892451 447.82899131596525 L 578.3567134268537 447.9625918503674 L 578.7575150300602 447.9625918503674 L 579.0247160988645 447.9625918503674 L 579.6927187708751 447.82899131596525 L 580.2271209084836 447.42818971275886 L 580.62792251169 446.89378757515027 L 580.8951235804943 446.35938543754173 L 581.1623246492986 445.4241816967268 L 581.1623246492986 445.02338009352036 L 581.1623246492986 444.08817635270543 L 581.0287241148965 443.2865731462926 L 580.62792251169 442.6185704742819 L 580.4943219772879 442.3513694054776 L 579.9599198396794 441.9505678022712 L 579.6927187708751 441.8169672678691 L 579.0247160988645 441.54976619906483 L 578.623914495658 441.54976619906483 L 578.0895123580494 441.54976619906483 L 577.5551102204408 441.6833667334669 L 577.1543086172345 441.9505678022712 L 576.8871075484302 442.21776887107546 L 576.6199064796259 442.48496993987976 L 576.4863059452238 442.88577154308615 L 575.0167000668002 442.88577154308615 L 575.1503006012024 442.3513694054776 L 575.4175016700067 441.8169672678691 L 575.8183032732131 441.4161656646627 L 576.2191048764195 441.01536406145624 L 576.7535070140281 440.74816299265194 L 577.2879091516365 440.4809619238477 L 577.9559118236473 440.34736138944555 L 578.623914495658 440.34736138944555 Z" fill="none" stroke="#5da9e9" stroke-width="1.3360053440213762" stroke-linecap="round" stroke-linejoin="round" data-pcb-component-id="null" data-pcb-silkscreen-path-id="pcb_silkscreen_path_23" data-type="pcb_silkscreen_path" data-pcb-layer="bottom"/><path class="pcb-silkscreen pcb-silkscreen-bottom" d="M 570.6078824315298 440.34736138944555 L 571.2758851035404 440.34736138944555 L 571.6766867067469 440.4809619238477 L 572.0774883099532 440.61456245824985 L 572.4782899131596 440.8817635270541 L 572.7454909819639 441.1489645958584 L 572.8790915163661 441.54976619906483 L 573.0126920507682 442.0841683366733 L 573.0126920507682 442.6185704742819 L 573.0126920507682 447.82899131596525 L 574.3486973947896 447.82899131596525 L 574.3486973947896 449.0313961255845 L 573.0126920507682 449.0313961255845 L 573.0126920507682 451.436205744823 L 571.5430861723447 451.436205744823 L 571.5430861723447 449.0313961255845 L 569.939879759519 449.0313961255845 L 569.939879759519 447.82899131596525 L 571.5430861723447 447.82899131596525 L 571.5430861723447 442.6185704742819 L 571.4094856379426 442.0841683366733 L 571.2758851035404 441.6833667334669 L 570.875083500334 441.54976619906483 L 570.6078824315298 441.54976619906483 L 570.3406813627255 441.4161656646627 L 569.939879759519 441.54976619906483 L 569.939879759519 440.34736138944555 L 570.0734802939212 440.34736138944555 L 570.3406813627255 440.34736138944555 L 570.6078824315298 440.34736138944555 Z" fill="none" stroke="#5da9e9" stroke-width="1.3360053440213762" stroke-linecap="round" stroke-linejoin="round" data-pcb-component-id="null" data-pcb-silkscreen-path-id="pcb_silkscreen_path_24" data-type="pcb_silkscreen_path" data-pcb-layer="bottom"/><path class="pcb-silkscreen pcb-silkscreen-bottom" d="M 566.8670674682699 440.4809619238477 L 568.3366733466934 440.4809619238477 L 568.3366733466934 449.0313961255845 L 566.8670674682699 449.0313961255845 L 566.8670674682699 447.56179024716096 L 566.7334669338677 447.9625918503674 L 566.3326653306613 448.6305945223781 L 565.7982631930528 449.0313961255845 L 565.2638610554443 449.1649966599866 L 564.8630594522378 449.2985971943888 L 564.5958583834336 449.2985971943888 L 564.3286573146293 449.1649966599866 L 564.3286573146293 447.82899131596525 L 564.5958583834336 447.82899131596525 L 564.8630594522378 447.82899131596525 L 565.2638610554443 447.82899131596525 L 565.7982631930528 447.6953907815631 L 566.1990647962592 447.42818971275886 L 566.5998663994656 447.16098864395457 L 566.7334669338677 446.62658650634603 L 566.8670674682699 446.0921843687375 L 566.8670674682699 445.8249832999332 L 566.8670674682699 440.4809619238477 Z" fill="none" stroke="#5da9e9" stroke-width="1.3360053440213762" stroke-linecap="round" stroke-linejoin="round" data-pcb-component-id="null" data-pcb-silkscreen-path-id="pcb_silkscreen_path_25" data-type="pcb_silkscreen_path" data-pcb-layer="bottom"/><path class="pcb-silkscreen pcb-silkscreen-bottom" d="M 559.5190380761524 440.34736138944555 L 560.0534402137608 440.34736138944555 L 560.5878423513694 440.4809619238477 L 561.1222444889779 440.61456245824985 L 561.6566466265865 440.8817635270541 L 562.057448229793 441.1489645958584 L 562.4582498329994 441.54976619906483 L 562.7254509018036 441.9505678022712 L 562.9926519706079 442.3513694054776 L 563.2598530394122 442.88577154308615 L 563.3934535738143 443.55377421509684 L 563.5270541082165 444.08817635270543 L 563.5270541082165 444.7561790247161 L 563.5270541082165 445.4241816967268 L 563.3934535738143 446.0921843687375 L 563.2598530394122 446.62658650634603 L 562.9926519706079 447.16098864395457 L 562.7254509018036 447.6953907815631 L 562.4582498329994 448.09619238476955 L 562.057448229793 448.36339345357385 L 561.6566466265865 448.76419505678024 L 561.1222444889779 448.89779559118233 L 560.5878423513694 449.1649966599866 L 560.0534402137608 449.1649966599866 L 559.5190380761524 449.2985971943888 L 558.9846359385438 449.1649966599866 L 558.4502338009352 449.1649966599866 L 557.9158316633267 448.89779559118233 L 557.3814295257181 448.76419505678024 L 556.9806279225118 448.36339345357385 L 556.5798263193053 448.09619238476955 L 556.312625250501 447.6953907815631 L 556.0454241816967 447.16098864395457 L 555.7782231128924 446.62658650634603 L 555.6446225784903 446.0921843687375 L 555.5110220440881 445.4241816967268 L 555.5110220440881 444.7561790247161 L 555.5110220440881 444.08817635270543 L 555.6446225784903 443.4201736806947 L 555.7782231128924 442.88577154308615 L 556.0454241816967 442.3513694054776 L 556.312625250501 441.9505678022712 L 556.5798263193053 441.54976619906483 L 556.9806279225118 441.1489645958584 L 557.3814295257181 440.8817635270541 L 557.9158316633267 440.61456245824985 L 558.4502338009352 440.4809619238477 L 558.9846359385438 440.34736138944555 L 559.5190380761524 440.34736138944555 Z" fill="none" stroke="#5da9e9" stroke-width="1.3360053440213762" stroke-linecap="round" stroke-linejoin="round" data-pcb-component-id="null" data-pcb-silkscreen-path-id="pcb_silkscreen_path_26" data-type="pcb_silkscreen_path" data-pcb-layer="bottom"/><path class="pcb-silkscreen pcb-silkscreen-bottom" d="M 559.5190380761524 441.54976619906483 L 559.1182364729459 441.54976619906483 L 558.4502338009352 441.8169672678691 L 557.9158316633267 442.21776887107546 L 557.5150300601202 442.75217100868406 L 557.2478289913159 443.4201736806947 L 556.9806279225118 444.2217768871075 L 556.9806279225118 444.7561790247161 L 556.9806279225118 445.29058116232466 L 557.2478289913159 446.0921843687375 L 557.5150300601202 446.89378757515027 L 557.9158316633267 447.42818971275886 L 558.4502338009352 447.82899131596525 L 559.1182364729459 447.9625918503674 L 559.5190380761524 447.9625918503674 L 559.9198396793587 447.9625918503674 L 560.5878423513694 447.6953907815631 L 561.1222444889779 447.42818971275886 L 561.5230460921844 446.89378757515027 L 561.9238476953908 446.0921843687375 L 562.057448229793 445.29058116232466 L 562.057448229793 444.7561790247161 L 562.057448229793 444.2217768871075 L 561.9238476953908 443.4201736806947 L 561.5230460921844 442.75217100868406 L 561.1222444889779 442.21776887107546 L 560.5878423513694 441.8169672678691 L 559.9198396793587 441.54976619906483 L 559.5190380761524 441.54976619906483 Z" fill="none" stroke="#5da9e9" stroke-width="1.3360053440213762" stroke-linecap="round" stroke-linejoin="round" data-pcb-component-id="null" data-pcb-silkscreen-path-id="pcb_silkscreen_path_27" data-type="pcb_silkscreen_path" data-pcb-layer="bottom"/><path class="pcb-silkscreen pcb-silkscreen-bottom" d="M 552.7054108216432 440.4809619238477 L 554.0414161656647 440.4809619238477 L 554.0414161656647 449.0313961255845 L 552.7054108216432 449.0313961255845 L 552.7054108216432 447.82899131596525 L 552.438209752839 448.09619238476955 L 551.9038076152304 448.6305945223781 L 551.2358049432198 449.0313961255845 L 550.4342017368069 449.1649966599866 L 549.8997995991984 449.2985971943888 L 549.2317969271877 449.1649966599866 L 548.1629926519706 448.76419505678024 L 547.3613894455577 447.9625918503674 L 546.9605878423514 446.7601870407482 L 546.9605878423514 446.0921843687375 L 546.9605878423514 440.4809619238477 L 548.4301937207749 440.4809619238477 L 548.4301937207749 445.8249832999332 L 548.5637942551771 446.7601870407482 L 548.9645958583834 447.42818971275886 L 549.498997995992 447.82899131596525 L 549.8997995991984 447.9625918503674 L 550.4342017368069 447.9625918503674 L 550.9686038744155 447.9625918503674 L 551.6366065464262 447.6953907815631 L 552.0374081496326 447.2945891783567 L 552.3046092184369 446.7601870407482 L 552.5718102872412 446.2257849031396 L 552.7054108216432 445.5577822311289 L 552.7054108216432 440.4809619238477 Z" fill="none" stroke="#5da9e9" stroke-width="1.3360053440213762" stroke-linecap="round" stroke-linejoin="round" data-pcb-component-id="null" data-pcb-silkscreen-path-id="pcb_silkscreen_path_28" data-type="pcb_silkscreen_path" data-pcb-layer="bottom"/><rect class="pcb-pad" fill="rgb(200, 52, 52)" x="304.4756179024716" y="249.2985971943888" width="33.4001336005344" height="33.4001336005344" data-type="pcb_smtpad" data-pcb-layer="top"/><rect class="pcb-pad" fill="rgb(200, 52, 52)" x="462.12424849699397" y="249.2985971943888" width="33.4001336005344" height="33.4001336005344" data-type="pcb_smtpad" data-pcb-layer="top"/><rect class="pcb-pad" fill="rgb(200, 52, 52)" x="371.9438877755511" y="193.18637274549098" width="16.03206412825651" height="12.024048096192386" data-type="pcb_smtpad" data-pcb-layer="top"/><rect class="pcb-pad" fill="rgb(200, 52, 52)" x="391.98396793587176" y="193.18637274549098" width="16.03206412825651" height="12.024048096192386" data-type="pcb_smtpad" data-pcb-layer="top"/><rect class="pcb-pad" fill="rgb(200, 52, 52)" x="412.0240480961924" y="193.18637274549098" width="16.03206412825651" height="12.024048096192386" data-type="pcb_smtpad" data-pcb-layer="top"/><rect class="pcb-pad" fill="rgb(200, 52, 52)" x="383.63393453573815" y="152.77221108884436" width="10.68804275217101" height="12.692050768203073" data-type="pcb_smtpad" data-pcb-layer="top"/><rect class="pcb-pad" fill="rgb(200, 52, 52)" x="405.67802271209086" y="152.77221108884436" width="10.68804275217101" height="12.692050768203073" data-type="pcb_smtpad" data-pcb-layer="top"/><path class="pcb-trace" stroke="rgb(200, 52, 52)" fill="none" d="M 383.03273213092854 372.8790915163661 L 383.03273213092854 360.4542418169673" stroke-width="2.004008016032064" stroke-linecap="round" stroke-linejoin="round" shape-rendering="crispEdges" data-type="pcb_trace" data-pcb-layer="top"/><path class="pcb-trace" stroke="rgb(200, 52, 52)" fill="none" d="M 383.03273213092854 360.4542418169673 L 393.1400666519119 350.3469072959839" stroke-width="2.004008016032064" stroke-linecap="round" stroke-linejoin="round" shape-rendering="crispEdges" data-type="pcb_trace" data-pcb-layer="top"/><path class="pcb-trace" stroke="rgb(200, 52, 52)" fill="none" d="M 393.1400666519119 350.3469072959839 L 394.6559786239145 348.8309953239813" stroke-width="2.004008016032064" stroke-linecap="round" stroke-linejoin="round" shape-rendering="crispEdges" data-type="pcb_trace" data-pcb-layer="top"/><path class="pcb-trace" stroke="rgb(200, 52, 52)" fill="none" d="M 394.6559786239145 348.8309953239813 L 394.6559786239145 348.8309953239813" stroke-width="2.004008016032064" stroke-linecap="round" stroke-linejoin="round" shape-rendering="crispEdges" data-type="pcb_trace" data-pcb-layer="top"/><path class="pcb-trace" stroke="rgb(200, 52, 52)" fill="none" d="M 400 172.4782899131596 L 400 172.4782899131596" stroke-width="2.004008016032064" stroke-linecap="round" stroke-linejoin="round" shape-rendering="crispEdges" data-type="pcb_trace" data-pcb-layer="top"/><path class="pcb-trace" stroke="rgb(200, 52, 52)" fill="none" d="M 400 172.4782899131596 L 400 170.1402805611222" stroke-width="2.004008016032064" stroke-linecap="round" stroke-linejoin="round" shape-rendering="crispEdges" data-type="pcb_trace" data-pcb-layer="top"/><path class="pcb-trace" stroke="rgb(200, 52, 52)" fill="none" d="M 400 170.1402805611222 L 411.02204408817636 159.11823647294588" stroke-width="2.004008016032064" stroke-linecap="round" stroke-linejoin="round" shape-rendering="crispEdges" data-type="pcb_trace" data-pcb-layer="top"/><path class="pcb-trace" stroke="rgb(200, 52, 52)" fill="none" d="M 388.97795591182364 159.11823647294588 L 388.97795591182364 188.17635270541084" stroke-width="2.004008016032064" stroke-linecap="round" stroke-linejoin="round" shape-rendering="crispEdges" data-type="pcb_trace" data-pcb-layer="top"/><path class="pcb-trace" stroke="rgb(200, 52, 52)" fill="none" d="M 388.97795591182364 188.17635270541084 L 400 199.19839679358716" stroke-width="2.004008016032064" stroke-linecap="round" stroke-linejoin="round" shape-rendering="crispEdges" data-type="pcb_trace" data-pcb-layer="top"/><path class="pcb-trace" stroke="rgb(200, 52, 52)" fill="none" d="M 416.96726786907146 372.8790915163661 L 416.96726786907146 327.8557114228457" stroke-width="2.004008016032064" stroke-linecap="round" stroke-linejoin="round" shape-rendering="crispEdges" data-type="pcb_trace" data-pcb-layer="top"/><path class="pcb-trace" stroke="rgb(200, 52, 52)" fill="none" d="M 416.96726786907146 327.8557114228457 L 478.8243152972612 265.998663994656" stroke-width="2.004008016032064" stroke-linecap="round" stroke-linejoin="round" shape-rendering="crispEdges" data-type="pcb_trace" data-pcb-layer="top"/><path class="pcb-trace" stroke="rgb(200, 52, 52)" fill="none" d="M 379.95991983967934 199.19839679358716 L 379.95991983967934 207.2144288577154" stroke-width="2.004008016032064" stroke-linecap="round" stroke-linejoin="round" shape-rendering="crispEdges" data-type="pcb_trace" data-pcb-layer="top"/><path class="pcb-trace" stroke="rgb(200, 52, 52)" fill="none" d="M 379.95991983967934 207.2144288577154 L 321.1756847027388 265.998663994656" stroke-width="2.004008016032064" stroke-linecap="round" stroke-linejoin="round" shape-rendering="crispEdges" data-type="pcb_trace" data-pcb-layer="top"/><path class="pcb-silkscreen pcb-silkscreen-top" d="M 321.1756847027388 292.71877087508346 L 321.1756847027388 239.27855711422845" fill="none" stroke="#f2eda1" stroke-width="1.3360053440213762" stroke-linecap="round" stroke-linejoin="round" data-pcb-component-id="pcb_component_0" data-pcb-silkscreen-path-id="pcb_silkscreen_path_0" data-type="pcb_silkscreen_path" data-pcb-layer="top"/><path class="pcb-silkscreen pcb-silkscreen-top" d="M 313.15965263861057 265.998663994656 L 329.1917167668671 265.998663994656" fill="none" stroke="#f2eda1" stroke-width="1.3360053440213762" stroke-linecap="round" stroke-linejoin="round" data-pcb-component-id="pcb_component_0" data-pcb-silkscreen-path-id="pcb_silkscreen_path_1" data-type="pcb_silkscreen_path" data-pcb-layer="top"/><text x="0" y="0" dx="0" dy="0" fill="#f2eda1" font-family="Arial, sans-serif" font-size="13.360053440213761" text-anchor="middle" dominant-baseline="central" transform="matrix(1,0,0,1,321.1756847027388,306.07882431529725)" class="pcb-silkscreen-text pcb-silkscreen-top" data-pcb-silkscreen-text-id="pcb_component_0" stroke="none" data-type="pcb_silkscreen_text" data-pcb-layer="top">+</text><text x="0" y="0" dx="0" dy="0" fill="#f2eda1" font-family="Arial, sans-serif" font-size="13.360053440213761" text-anchor="middle" dominant-baseline="central" transform="matrix(1,0,0,1,478.8243152972612,306.07882431529725)" class="pcb-silkscreen-text pcb-silkscreen-top" data-pcb-silkscreen-text-id="pcb_component_0" stroke="none" data-type="pcb_silkscreen_text" data-pcb-layer="top">-</text><path class="pcb-silkscreen pcb-silkscreen-top" d="M 366.5998663994656 219.23847695390782 L 433.4001336005344 219.23847695390782 L 433.4001336005344 179.1583166332665 L 366.5998663994656 179.1583166332665 L 366.5998663994656 219.23847695390782 Z" fill="none" stroke="#f2eda1" stroke-width="1.3360053440213762" stroke-linecap="round" stroke-linejoin="round" data-pcb-component-id="pcb_component_1" data-pcb-silkscreen-path-id="pcb_silkscreen_path_2" data-type="pcb_silkscreen_path" data-pcb-layer="top"/><path class="pcb-silkscreen pcb-silkscreen-top" d="M 411.02204408817636 147.42818971275884 L 380.9619238476954 147.42818971275884 L 380.9619238476954 170.80828323313293 L 411.02204408817636 170.80828323313293" fill="none" stroke="#f2eda1" stroke-width="1.3360053440213762" stroke-linecap="round" stroke-linejoin="round" data-pcb-component-id="pcb_component_2" data-pcb-silkscreen-path-id="pcb_silkscreen_path_3" data-type="pcb_silkscreen_path" data-pcb-layer="top"/><text x="0" y="0" dx="0" dy="0" fill="#f2eda1" font-family="Arial, sans-serif" font-size="5.344021376085505" text-anchor="middle" dominant-baseline="central" transform="matrix(1,0,0,1,400,140.74816299265197)" class="pcb-silkscreen-text pcb-silkscreen-top" data-pcb-silkscreen-text-id="pcb_component_2" stroke="none" data-type="pcb_silkscreen_text" data-pcb-layer="top">R1</text><path class="pcb-silkscreen pcb-silkscreen-top" d="M 447.0273881095524 372.8790915163661 L 440.74816299265194 349.36539746158985 L 423.51369405477624 332.1309285237141 L 400 325.8517034068136 L 376.48630594522376 332.1309285237141 L 359.25183700734806 349.36539746158985 L 352.9726118904476 372.8790915163661 L 359.25183700734806 396.39278557114227 L 376.48630594522376 413.62725450901803 L 400 419.9064796259185 L 423.51369405477624 413.62725450901803 L 440.74816299265194 396.39278557114227 L 447.0273881095524 372.8790915163661 Z" fill="none" stroke="#f2eda1" stroke-width="1.3360053440213762" stroke-linecap="round" stroke-linejoin="round" data-pcb-component-id="pcb_component_3" data-pcb-silkscreen-path-id="pcb_silkscreen_path_4" data-type="pcb_silkscreen_path" data-pcb-layer="top"/><path class="pcb-silkscreen pcb-silkscreen-top" d="M 433.80093520374083 404.80961923847696 L 433.80093520374083 340.94856379425516" fill="none" stroke="#f2eda1" stroke-width="1.3360053440213762" stroke-linecap="round" stroke-linejoin="round" data-pcb-component-id="pcb_component_3" data-pcb-silkscreen-path-id="pcb_silkscreen_path_5" data-type="pcb_silkscreen_path" data-pcb-layer="top"/><text x="0" y="0" dx="0" dy="0" fill="#f2eda1" font-family="Arial, sans-serif" font-size="10.68804275217101" text-anchor="middle" dominant-baseline="central" transform="matrix(1,0,0,1,383.03273213092854,399.59919839679355)" class="pcb-silkscreen-text pcb-silkscreen-top" data-pcb-silkscreen-text-id="pcb_component_3" stroke="none" data-type="pcb_silkscreen_text" data-pcb-layer="top">+</text><g data-type="pcb_plated_hole" data-pcb-layer="through"><circle class="pcb-hole-outer" fill="rgb(200, 52, 52)" cx="383.03273213092854" cy="372.8790915163661" r="12.024048096192386" data-type="pcb_plated_hole" data-pcb-layer="top"/><circle class="pcb-hole-inner" fill="#FF26E2" cx="383.03273213092854" cy="372.8790915163661" r="6.680026720106881" data-type="pcb_plated_hole_drill" data-pcb-layer="drill"/></g><g data-type="pcb_plated_hole" data-pcb-layer="through"><circle class="pcb-hole-outer" fill="rgb(200, 52, 52)" cx="416.96726786907146" cy="372.8790915163661" r="12.024048096192386" data-type="pcb_plated_hole" data-pcb-layer="top"/><circle class="pcb-hole-inner" fill="#FF26E2" cx="416.96726786907146" cy="372.8790915163661" r="6.680026720106881" data-type="pcb_plated_hole_drill" data-pcb-layer="drill"/></g><g data-type="pcb_via" data-pcb-layer="through"><circle class="pcb-hole-outer" fill="rgb(200, 52, 52)" cx="394.6559786239145" cy="348.8309953239813" r="2.004008016032064" data-type="pcb_via" data-pcb-layer="top"/><circle class="pcb-hole-inner" fill="#FF26E2" cx="394.6559786239145" cy="348.8309953239813" r="1.3360053440213762" data-type="pcb_via" data-pcb-layer="drill"/></g><g data-type="pcb_via" data-pcb-layer="through"><circle class="pcb-hole-outer" fill="rgb(200, 52, 52)" cx="400" cy="172.4782899131596" r="2.004008016032064" data-type="pcb_via" data-pcb-layer="top"/><circle class="pcb-hole-inner" fill="#FF26E2" cx="400" cy="172.4782899131596" r="1.3360053440213762" data-type="pcb_via" data-pcb-layer="drill"/></g><circle class="pcb-hole" cx="400" cy="546.559786239145" r="16.7000668002672" fill="#FF26E2" data-type="pcb_hole" data-pcb-layer="drill"/></svg>