<svg xmlns="http://www.w3.org/2000/svg" width="800" height="600" data-software-used-string="@tscircuit/core@0.0.1112"><style></style><rect class="boundary" x="0" y="0" fill="#000" width="800" height="600" data-type="pcb_background" data-pcb-layer="global"/><rect class="pcb-boundary" fill="none" stroke="#fff" stroke-width="0.3" x="64.17910447761199" y="14.925373134328424" width="671.641791044776" height="570.1492537313433" data-type="pcb_boundary" data-pcb-layer="global"/><path class="pcb-board" d="M 400 585.0746268656717 L 422.3880597014925 577.6119402985075 L 434.3283582089552 567.1641791044776 L 441.7910447761194 552.2388059701493 L 444.77611940298505 532.8358208955224 L 444.77611940298505 510.4477611940299 L 441.94029850746267 495.82089552238807 L 468.2089552238806 519.7014925373135 L 500.5970149253731 538.5074626865672 L 537.9104477611941 549.5522388059702 L 577.7611940298507 551.1940298507463 L 618.0597014925372 542.8358208955224 L 656.1194029850747 524.7761194029852 L 688.8059701492537 498.2089552238806 L 714.1791044776119 464.7761194029851 L 730.2985074626865 426.4179104477612 L 735.820895522388 385.3731343283582 L 730.2985074626865 343.43283582089555 L 714.1791044776119 301.9402985074627 L 688.8059701492537 261.64179104477614 L 656.1194029850747 222.98507462686572 L 618.0597014925372 186.11940298507466 L 577.7611940298507 150.5970149253732 L 537.9104477611941 116.41791044776124 L 500.5970149253731 83.58208955223887 L 468.2089552238806 52.38805970149258 L 447.76119402985074 35.82089552238813 L 429.85074626865674 23.8805970149254 L 414.92537313432837 17.91044776119412 L 400 14.925373134328424 L 385.07462686567163 17.91044776119412 L 370.14925373134326 23.8805970149254 L 352.23880597014926 35.82089552238813 L 331.7910447761194 52.38805970149258 L 299.4029850746269 83.58208955223887 L 262.089552238806 116.41791044776124 L 222.23880597014926 150.5970149253732 L 181.94029850746273 186.11940298507466 L 143.8805970149254 222.98507462686572 L 111.19402985074629 261.64179104477614 L 85.82089552238807 301.9402985074627 L 69.70149253731347 343.43283582089555 L 64.17910447761199 385.3731343283582 L 69.70149253731347 426.4179104477612 L 85.82089552238807 464.7761194029851 L 111.19402985074629 498.2089552238806 L 143.8805970149254 524.7761194029852 L 181.94029850746273 542.8358208955224 L 222.23880597014926 551.1940298507463 L 262.089552238806 549.5522388059702 L 299.4029850746269 538.5074626865672 L 331.7910447761194 519.7014925373135 L 358.05970149253733 495.82089552238807 L 355.22388059701495 510.4477611940299 L 355.22388059701495 532.8358208955224 L 358.2089552238806 552.2388059701493 L 365.6716417910448 567.1641791044776 L 377.6119402985075 577.6119402985075 Z" fill="none" stroke="rgba(255, 255, 255, 0.5)" stroke-width="1.4925373134328357" data-type="pcb_board" data-pcb-layer="board"/><path class="pcb-trace" stroke="rgb(77, 127, 196)" fill="none" d="M 549.2537313432836 402.9850746268657 L 549.2537313432836 402.9850746268657" stroke-width="2.2388059701492535" stroke-linecap="round" stroke-linejoin="round" shape-rendering="crispEdges" data-type="pcb_trace" data-pcb-layer="bottom"/><path class="pcb-trace" stroke="rgb(77, 127, 196)" fill="none" d="M 549.2537313432836 402.9850746268657 L 571.6281227413647 402.9850746268657" stroke-width="2.2388059701492535" stroke-linecap="round" stroke-linejoin="round" shape-rendering="crispEdges" data-type="pcb_trace" data-pcb-layer="bottom"/><path class="pcb-trace" stroke="rgb(77, 127, 196)" fill="none" d="M 571.6281227413647 402.9850746268657 L 571.6281227413647 402.9850746268657" stroke-width="2.2388059701492535" stroke-linecap="round" stroke-linejoin="round" shape-rendering="crispEdges" data-type="pcb_trace" data-pcb-layer="bottom"/><path class="pcb-trace" stroke="rgb(77, 127, 196)" fill="none" d="M 571.6281227413647 402.9850746268657 L 573.1343283582089 402.9850746268657" stroke-width="2.2388059701492535" stroke-linecap="round" stroke-linejoin="round" shape-rendering="crispEdges" data-type="pcb_trace" data-pcb-layer="bottom"/><path class="pcb-trace" stroke="rgb(77, 127, 196)" fill="none" d="M 573.1343283582089 402.9850746268657 L 573.1343283582089 402.9850746268657" stroke-width="2.2388059701492535" stroke-linecap="round" stroke-linejoin="round" shape-rendering="crispEdges" data-type="pcb_trace" data-pcb-layer="bottom"/><path class="pcb-trace" stroke="rgb(77, 127, 196)" fill="none" d="M 429.85074626865674 426.8656716417911 L 429.85074626865674 426.8656716417911" stroke-width="2.2388059701492535" stroke-linecap="round" stroke-linejoin="round" shape-rendering="crispEdges" data-type="pcb_trace" data-pcb-layer="bottom"/><path class="pcb-trace" stroke="rgb(77, 127, 196)" fill="none" d="M 429.85074626865674 426.8656716417911 L 461.84507797490244 426.8656716417911" stroke-width="2.2388059701492535" stroke-linecap="round" stroke-linejoin="round" shape-rendering="crispEdges" data-type="pcb_trace" data-pcb-layer="bottom"/><path class="pcb-trace" stroke="rgb(77, 127, 196)" fill="none" d="M 461.84507797490244 426.8656716417911 L 560.5812660689477 328.12948354774585" stroke-width="2.2388059701492535" stroke-linecap="round" stroke-linejoin="round" shape-rendering="crispEdges" data-type="pcb_trace" data-pcb-layer="bottom"/><path class="pcb-trace" stroke="rgb(77, 127, 196)" fill="none" d="M 560.5812660689477 328.12948354774585 L 562.7611940298507 329.6641791044776" stroke-width="2.2388059701492535" stroke-linecap="round" stroke-linejoin="round" shape-rendering="crispEdges" data-type="pcb_trace" data-pcb-layer="bottom"/><path class="pcb-trace" stroke="rgb(77, 127, 196)" fill="none" d="M 562.7611940298507 329.6641791044776 L 562.7611940298507 329.6641791044776" stroke-width="2.2388059701492535" stroke-linecap="round" stroke-linejoin="round" shape-rendering="crispEdges" data-type="pcb_trace" data-pcb-layer="bottom"/><path class="pcb-silkscreen pcb-silkscreen-bottom" d="M 478.05970149253733 108.50746268656724 L 489.55223880597015 136.71641791044783 L 478.5074626865671 136.71641791044783 L 472.98507462686564 121.04477611940305 L 467.46268656716416 136.71641791044783 L 456.86567164179104 136.71641791044783 L 468.35820895522386 108.50746268656724 L 478.05970149253733 108.50746268656724 Z" fill="none" stroke="#5da9e9" stroke-width="1.4925373134328357" stroke-linecap="round" stroke-linejoin="round" data-pcb-component-id="null" data-pcb-silkscreen-path-id="pcb_silkscreen_path_5" data-type="pcb_silkscreen_path" data-pcb-layer="bottom"/><path class="pcb-silkscreen pcb-silkscreen-bottom" d="M 444.6268656716418 108.50746268656724 L 454.92537313432837 108.50746268656724 L 454.92537313432837 136.71641791044783 L 444.6268656716418 136.71641791044783 L 444.6268656716418 108.50746268656724 Z" fill="none" stroke="#5da9e9" stroke-width="1.4925373134328357" stroke-linecap="round" stroke-linejoin="round" data-pcb-component-id="null" data-pcb-silkscreen-path-id="pcb_silkscreen_path_6" data-type="pcb_silkscreen_path" data-pcb-layer="bottom"/><path class="pcb-silkscreen pcb-silkscreen-bottom" d="M 415.97014925373134 136.71641791044783 L 415.97014925373134 130.29850746268662 L 428.05970149253733 116.7164179104478 L 415.82089552238807 116.7164179104478 L 415.82089552238807 108.50746268656724 L 441.7910447761194 108.50746268656724 L 441.7910447761194 115.07462686567169 L 429.7014925373134 128.5074626865672 L 441.04477611940297 128.5074626865672 L 441.04477611940297 136.71641791044783 L 415.97014925373134 136.71641791044783 Z" fill="none" stroke="#5da9e9" stroke-width="1.4925373134328357" stroke-linecap="round" stroke-linejoin="round" data-pcb-component-id="null" data-pcb-silkscreen-path-id="pcb_silkscreen_path_7" data-type="pcb_silkscreen_path" data-pcb-layer="bottom"/><path class="pcb-silkscreen pcb-silkscreen-bottom" d="M 414.92537313432837 122.68656716417917 L 414.6268656716418 125.67164179104483 L 413.8805970149254 128.6567164179105 L 412.53731343283584 131.19402985074632 L 410.5970149253731 133.2835820895523 L 408.35820895522386 135.0746268656717 L 405.82089552238807 136.41791044776124 L 402.8358208955224 137.31343283582095 L 399.55223880597015 137.6119402985075 L 397.0149253731343 137.31343283582095 L 394.4776119402985 136.71641791044783 L 392.9850746268657 136.1194029850747 L 392.9850746268657 126.7164179104478 L 394.7761194029851 127.6119402985075 L 396.7164179104478 128.20895522388065 L 398.05970149253733 128.20895522388065 L 400.5970149253731 127.91044776119406 L 402.53731343283584 126.7164179104478 L 403.8805970149254 124.92537313432842 L 404.4776119402985 122.68656716417917 L 403.8805970149254 120.29850746268662 L 402.6865671641791 118.50746268656724 L 400.5970149253731 117.31343283582095 L 398.05970149253733 117.01492537313439 L 396.7164179104478 117.01492537313439 L 394.7761194029851 117.6119402985075 L 392.9850746268657 118.6567164179105 L 392.9850746268657 109.25373134328362 L 395.5223880597015 108.20895522388068 L 398.05970149253733 107.7611940298508 L 399.7014925373134 107.7611940298508 L 402.8358208955224 107.91044776119409 L 405.82089552238807 108.8059701492538 L 408.35820895522386 110.00000000000006 L 410.5970149253731 111.79104477611943 L 412.3880597014925 113.88059701492543 L 413.7313432835821 116.41791044776124 L 414.6268656716418 119.40298507462694 L 414.92537313432837 122.68656716417917 Z" fill="none" stroke="#5da9e9" stroke-width="1.4925373134328357" stroke-linecap="round" stroke-linejoin="round" data-pcb-component-id="null" data-pcb-silkscreen-path-id="pcb_silkscreen_path_8" data-type="pcb_silkscreen_path" data-pcb-layer="bottom"/><path class="pcb-silkscreen pcb-silkscreen-bottom" d="M 375.22388059701495 137.6119402985075 L 372.089552238806 137.31343283582095 L 369.1044776119403 136.41791044776124 L 366.4179104477612 135.0746268656717 L 364.02985074626866 133.2835820895523 L 362.089552238806 131.04477611940305 L 360.74626865671644 128.5074626865672 L 359.85074626865674 125.67164179104483 L 359.55223880597015 122.68656716417917 L 359.85074626865674 119.5522388059702 L 360.74626865671644 116.7164179104478 L 362.089552238806 114.17910447761199 L 364.02985074626866 111.94029850746276 L 366.4179104477612 110.14925373134335 L 369.1044776119403 108.8059701492538 L 372.089552238806 107.91044776119409 L 375.22388059701495 107.7611940298508 L 378.5074626865672 107.91044776119409 L 381.4925373134328 108.8059701492538 L 384.17910447761193 110.14925373134335 L 386.56716417910445 111.94029850746276 L 388.5074626865672 114.17910447761199 L 389.85074626865674 116.7164179104478 L 390.74626865671644 119.5522388059702 L 391.04477611940297 122.68656716417917 L 390.74626865671644 125.67164179104483 L 389.85074626865674 128.5074626865672 L 388.5074626865672 131.04477611940305 L 386.56716417910445 133.2835820895523 L 384.17910447761193 135.0746268656717 L 381.4925373134328 136.41791044776124 L 378.5074626865672 137.31343283582095 L 375.22388059701495 137.6119402985075 Z" fill="none" stroke="#5da9e9" stroke-width="1.4925373134328357" stroke-linecap="round" stroke-linejoin="round" data-pcb-component-id="null" data-pcb-silkscreen-path-id="pcb_silkscreen_path_9" data-type="pcb_silkscreen_path" data-pcb-layer="bottom"/><path class="pcb-silkscreen pcb-silkscreen-bottom" d="M 375.22388059701495 128.20895522388065 L 377.46268656716416 127.7611940298508 L 379.25373134328356 126.56716417910454 L 380.44776119402985 124.77611940298513 L 380.8955223880597 122.68656716417917 L 380.44776119402985 120.44776119402991 L 379.25373134328356 118.6567164179105 L 377.46268656716416 117.46268656716424 L 375.22388059701495 117.01492537313439 L 373.13432835820896 117.46268656716424 L 371.34328358208955 118.6567164179105 L 370.14925373134326 120.44776119402991 L 369.7014925373134 122.68656716417917 L 370.14925373134326 124.77611940298513 L 371.34328358208955 126.56716417910454 L 373.13432835820896 127.7611940298508 L 375.22388059701495 128.20895522388065 Z" fill="none" stroke="#5da9e9" stroke-width="1.4925373134328357" stroke-linecap="round" stroke-linejoin="round" data-pcb-component-id="null" data-pcb-silkscreen-path-id="pcb_silkscreen_path_10" data-type="pcb_silkscreen_path" data-pcb-layer="bottom"/><path class="pcb-silkscreen pcb-silkscreen-bottom" d="M 347.3134328358209 123.73134328358213 L 347.3134328358209 108.35820895522394 L 357.76119402985074 108.35820895522394 L 357.76119402985074 136.71641791044783 L 347.3134328358209 136.71641791044783 L 347.3134328358209 133.43283582089558 L 345.07462686567163 135.67164179104483 L 342.089552238806 137.16417910447768 L 339.55223880597015 137.46268656716424 L 336.86567164179104 137.16417910447768 L 333.7313432835821 135.67164179104483 L 331.4925373134329 132.98507462686575 L 328.80597014925377 135.82089552238813 L 325.22388059701495 137.31343283582095 L 322.6865671641791 137.46268656716424 L 318.35820895522386 136.71641791044783 L 315.22388059701495 134.47761194029857 L 313.43283582089555 131.19402985074632 L 312.6865671641791 126.56716417910454 L 312.6865671641791 108.35820895522394 L 323.13432835820896 108.35820895522394 L 323.13432835820896 123.88059701492543 L 323.7313432835821 126.26865671641795 L 325.0746268656717 127.7611940298508 L 326.56716417910445 128.05970149253739 L 327.91044776119406 127.7611940298508 L 329.4029850746269 126.26865671641795 L 330 123.73134328358213 L 330 108.35820895522394 L 340.44776119402985 108.35820895522394 L 340.44776119402985 123.88059701492543 L 340.8955223880597 126.26865671641795 L 342.3880597014925 127.7611940298508 L 343.7313432835821 128.05970149253739 L 345.22388059701495 127.7611940298508 L 346.7164179104478 126.26865671641795 L 347.3134328358209 123.73134328358213 Z" fill="none" stroke="#5da9e9" stroke-width="1.4925373134328357" stroke-linecap="round" stroke-linejoin="round" data-pcb-component-id="null" data-pcb-silkscreen-path-id="pcb_silkscreen_path_11" data-type="pcb_silkscreen_path" data-pcb-layer="bottom"/><rect class="pcb-pad" fill="rgb(200, 52, 52)" x="293.2835820895522" y="208.20895522388065" width="37.31343283582089" height="37.31343283582089" data-type="pcb_smtpad" data-pcb-layer="top"/><rect class="pcb-pad" fill="rgb(200, 52, 52)" x="469.4029850746269" y="208.20895522388065" width="37.31343283582089" height="37.31343283582089" data-type="pcb_smtpad" data-pcb-layer="top"/><rect class="pcb-pad" fill="rgb(200, 52, 52)" x="547.7611940298507" y="414.17910447761193" width="17.91044776119403" height="13.432835820895521" data-type="pcb_smtpad" data-pcb-layer="top"/><rect class="pcb-pad" fill="rgb(200, 52, 52)" x="570.1492537313433" y="414.17910447761193" width="17.91044776119403" height="13.432835820895521" data-type="pcb_smtpad" data-pcb-layer="top"/><rect class="pcb-pad" fill="rgb(200, 52, 52)" x="592.5373134328358" y="414.17910447761193" width="17.91044776119403" height="13.432835820895521" data-type="pcb_smtpad" data-pcb-layer="top"/><rect class="pcb-pad" fill="rgb(200, 52, 52)" x="471.2686567164179" y="413.8059701492537" width="11.940298507462686" height="14.179104477611938" data-type="pcb_smtpad" data-pcb-layer="top"/><rect class="pcb-pad" fill="rgb(200, 52, 52)" x="495.8955223880597" y="413.8059701492537" width="11.940298507462686" height="14.179104477611938" data-type="pcb_smtpad" data-pcb-layer="top"/><path class="pcb-trace" stroke="rgb(200, 52, 52)" fill="none" d="M 381.04477611940297 450.74626865671644 L 409.8826117148305 421.908433061289" stroke-width="2.2388059701492535" stroke-linecap="round" stroke-linejoin="round" shape-rendering="crispEdges" data-type="pcb_trace" data-pcb-layer="top"/><path class="pcb-trace" stroke="rgb(200, 52, 52)" fill="none" d="M 409.8826117148305 421.908433061289 L 451.18793152587614 421.908433061289" stroke-width="2.2388059701492535" stroke-linecap="round" stroke-linejoin="round" shape-rendering="crispEdges" data-type="pcb_trace" data-pcb-layer="top"/><path class="pcb-trace" stroke="rgb(200, 52, 52)" fill="none" d="M 451.18793152587614 421.908433061289 L 459.9168383963399 430.63733993175276" stroke-width="2.2388059701492535" stroke-linecap="round" stroke-linejoin="round" shape-rendering="crispEdges" data-type="pcb_trace" data-pcb-layer="top"/><path class="pcb-trace" stroke="rgb(200, 52, 52)" fill="none" d="M 459.9168383963399 430.63733993175276 L 492.12385409809804 430.63733993175276" stroke-width="2.2388059701492535" stroke-linecap="round" stroke-linejoin="round" shape-rendering="crispEdges" data-type="pcb_trace" data-pcb-layer="top"/><path class="pcb-trace" stroke="rgb(200, 52, 52)" fill="none" d="M 492.12385409809804 430.63733993175276 L 492.12385409809804 430.63733993175276" stroke-width="2.2388059701492535" stroke-linecap="round" stroke-linejoin="round" shape-rendering="crispEdges" data-type="pcb_trace" data-pcb-layer="top"/><path class="pcb-trace" stroke="rgb(200, 52, 52)" fill="none" d="M 492.12385409809804 430.63733993175276 L 501.86567164179104 420.8955223880597" stroke-width="2.2388059701492535" stroke-linecap="round" stroke-linejoin="round" shape-rendering="crispEdges" data-type="pcb_trace" data-pcb-layer="top"/><path class="pcb-trace" stroke="rgb(200, 52, 52)" fill="none" d="M 477.23880597014926 420.8955223880597 L 495.14925373134326 402.9850746268657" stroke-width="2.2388059701492535" stroke-linecap="round" stroke-linejoin="round" shape-rendering="crispEdges" data-type="pcb_trace" data-pcb-layer="top"/><path class="pcb-trace" stroke="rgb(200, 52, 52)" fill="none" d="M 495.14925373134326 402.9850746268657 L 548.1762443662064 402.9850746268657" stroke-width="2.2388059701492535" stroke-linecap="round" stroke-linejoin="round" shape-rendering="crispEdges" data-type="pcb_trace" data-pcb-layer="top"/><path class="pcb-trace" stroke="rgb(200, 52, 52)" fill="none" d="M 548.1762443662064 402.9850746268657 L 549.2537313432836 402.9850746268657" stroke-width="2.2388059701492535" stroke-linecap="round" stroke-linejoin="round" shape-rendering="crispEdges" data-type="pcb_trace" data-pcb-layer="top"/><path class="pcb-trace" stroke="rgb(200, 52, 52)" fill="none" d="M 549.2537313432836 402.9850746268657 L 549.2537313432836 402.9850746268657" stroke-width="2.2388059701492535" stroke-linecap="round" stroke-linejoin="round" shape-rendering="crispEdges" data-type="pcb_trace" data-pcb-layer="top"/><path class="pcb-trace" stroke="rgb(200, 52, 52)" fill="none" d="M 573.1343283582089 402.9850746268657 L 573.1343283582089 402.9850746268657" stroke-width="2.2388059701492535" stroke-linecap="round" stroke-linejoin="round" shape-rendering="crispEdges" data-type="pcb_trace" data-pcb-layer="top"/><path class="pcb-trace" stroke="rgb(200, 52, 52)" fill="none" d="M 573.1343283582089 402.9850746268657 L 573.1343283582089 414.92537313432837" stroke-width="2.2388059701492535" stroke-linecap="round" stroke-linejoin="round" shape-rendering="crispEdges" data-type="pcb_trace" data-pcb-layer="top"/><path class="pcb-trace" stroke="rgb(200, 52, 52)" fill="none" d="M 573.1343283582089 414.92537313432837 L 579.1044776119403 420.8955223880597" stroke-width="2.2388059701492535" stroke-linecap="round" stroke-linejoin="round" shape-rendering="crispEdges" data-type="pcb_trace" data-pcb-layer="top"/><path class="pcb-trace" stroke="rgb(200, 52, 52)" fill="none" d="M 418.95522388059703 450.74626865671644 L 418.95522388059703 437.7611940298508" stroke-width="2.2388059701492535" stroke-linecap="round" stroke-linejoin="round" shape-rendering="crispEdges" data-type="pcb_trace" data-pcb-layer="top"/><path class="pcb-trace" stroke="rgb(200, 52, 52)" fill="none" d="M 418.95522388059703 437.7611940298508 L 428.2415242313858 428.47489367906195" stroke-width="2.2388059701492535" stroke-linecap="round" stroke-linejoin="round" shape-rendering="crispEdges" data-type="pcb_trace" data-pcb-layer="top"/><path class="pcb-trace" stroke="rgb(200, 52, 52)" fill="none" d="M 428.2415242313858 428.47489367906195 L 429.85074626865674 426.8656716417911" stroke-width="2.2388059701492535" stroke-linecap="round" stroke-linejoin="round" shape-rendering="crispEdges" data-type="pcb_trace" data-pcb-layer="top"/><path class="pcb-trace" stroke="rgb(200, 52, 52)" fill="none" d="M 429.85074626865674 426.8656716417911 L 429.85074626865674 426.8656716417911" stroke-width="2.2388059701492535" stroke-linecap="round" stroke-linejoin="round" shape-rendering="crispEdges" data-type="pcb_trace" data-pcb-layer="top"/><path class="pcb-trace" stroke="rgb(200, 52, 52)" fill="none" d="M 562.7611940298507 329.6641791044776 L 562.7611940298507 329.6641791044776" stroke-width="2.2388059701492535" stroke-linecap="round" stroke-linejoin="round" shape-rendering="crispEdges" data-type="pcb_trace" data-pcb-layer="top"/><path class="pcb-trace" stroke="rgb(200, 52, 52)" fill="none" d="M 562.7611940298507 329.6641791044776 L 562.7611940298507 301.5671641791045" stroke-width="2.2388059701492535" stroke-linecap="round" stroke-linejoin="round" shape-rendering="crispEdges" data-type="pcb_trace" data-pcb-layer="top"/><path class="pcb-trace" stroke="rgb(200, 52, 52)" fill="none" d="M 562.7611940298507 301.5671641791045 L 488.05970149253733 226.8656716417911" stroke-width="2.2388059701492535" stroke-linecap="round" stroke-linejoin="round" shape-rendering="crispEdges" data-type="pcb_trace" data-pcb-layer="top"/><path class="pcb-trace" stroke="rgb(200, 52, 52)" fill="none" d="M 556.7164179104477 420.8955223880597 L 556.7164179104477 403.40429995025966" stroke-width="2.2388059701492535" stroke-linecap="round" stroke-linejoin="round" shape-rendering="crispEdges" data-type="pcb_trace" data-pcb-layer="top"/><path class="pcb-trace" stroke="rgb(200, 52, 52)" fill="none" d="M 556.7164179104477 403.40429995025966 L 484.6554015422777 331.3432835820896" stroke-width="2.2388059701492535" stroke-linecap="round" stroke-linejoin="round" shape-rendering="crispEdges" data-type="pcb_trace" data-pcb-layer="top"/><path class="pcb-trace" stroke="rgb(200, 52, 52)" fill="none" d="M 484.6554015422777 331.3432835820896 L 416.4179104477612 331.3432835820896" stroke-width="2.2388059701492535" stroke-linecap="round" stroke-linejoin="round" shape-rendering="crispEdges" data-type="pcb_trace" data-pcb-layer="top"/><path class="pcb-trace" stroke="rgb(200, 52, 52)" fill="none" d="M 416.4179104477612 331.3432835820896 L 311.94029850746267 226.8656716417911" stroke-width="2.2388059701492535" stroke-linecap="round" stroke-linejoin="round" shape-rendering="crispEdges" data-type="pcb_trace" data-pcb-layer="top"/><path class="pcb-silkscreen pcb-silkscreen-top" d="M 311.94029850746267 256.71641791044783 L 311.94029850746267 197.01492537313436" fill="none" stroke="#f2eda1" stroke-width="1.4925373134328357" stroke-linecap="round" stroke-linejoin="round" data-pcb-component-id="pcb_component_0" data-pcb-silkscreen-path-id="pcb_silkscreen_path_0" data-type="pcb_silkscreen_path" data-pcb-layer="top"/><path class="pcb-silkscreen pcb-silkscreen-top" d="M 302.9850746268657 226.8656716417911 L 320.8955223880597 226.8656716417911" fill="none" stroke="#f2eda1" stroke-width="1.4925373134328357" stroke-linecap="round" stroke-linejoin="round" data-pcb-component-id="pcb_component_0" data-pcb-silkscreen-path-id="pcb_silkscreen_path_1" data-type="pcb_silkscreen_path" data-pcb-layer="top"/><text x="0" y="0" dx="0" dy="0" fill="#f2eda1" font-family="Arial, sans-serif" font-size="14.925373134328357" text-anchor="middle" dominant-baseline="central" transform="matrix(1,0,0,1,311.94029850746267,271.64179104477614)" class="pcb-silkscreen-text pcb-silkscreen-top" data-pcb-silkscreen-text-id="pcb_component_0" stroke="none" data-type="pcb_silkscreen_text" data-pcb-layer="top">+</text><text x="0" y="0" dx="0" dy="0" fill="#f2eda1" font-family="Arial, sans-serif" font-size="14.925373134328357" text-anchor="middle" dominant-baseline="central" transform="matrix(1,0,0,1,488.05970149253733,271.64179104477614)" class="pcb-silkscreen-text pcb-silkscreen-top" data-pcb-silkscreen-text-id="pcb_component_0" stroke="none" data-type="pcb_silkscreen_text" data-pcb-layer="top">-</text><path class="pcb-silkscreen pcb-silkscreen-top" d="M 541.7910447761194 443.2835820895523 L 616.4179104477612 443.2835820895523 L 616.4179104477612 398.5074626865672 L 541.7910447761194 398.5074626865672 L 541.7910447761194 443.2835820895523 Z" fill="none" stroke="#f2eda1" stroke-width="1.4925373134328357" stroke-linecap="round" stroke-linejoin="round" data-pcb-component-id="pcb_component_1" data-pcb-silkscreen-path-id="pcb_silkscreen_path_2" data-type="pcb_silkscreen_path" data-pcb-layer="top"/><path class="pcb-silkscreen pcb-silkscreen-top" d="M 501.86567164179104 407.83582089552243 L 468.2835820895522 407.83582089552243 L 468.2835820895522 433.95522388059703 L 501.86567164179104 433.95522388059703" fill="none" stroke="#f2eda1" stroke-width="1.4925373134328357" stroke-linecap="round" stroke-linejoin="round" data-pcb-component-id="pcb_component_2" data-pcb-silkscreen-path-id="pcb_silkscreen_path_3" data-type="pcb_silkscreen_path" data-pcb-layer="top"/><text x="0" y="0" dx="0" dy="0" fill="#f2eda1" font-family="Arial, sans-serif" font-size="5.970149253731343" text-anchor="middle" dominant-baseline="central" transform="matrix(1,0,0,1,489.55223880597015,400.3731343283582)" class="pcb-silkscreen-text pcb-silkscreen-top" data-pcb-silkscreen-text-id="pcb_component_2" stroke="none" data-type="pcb_silkscreen_text" data-pcb-layer="top">R1</text><path class="pcb-silkscreen pcb-silkscreen-top" d="M 362.6865671641791 473.134328358209 L 437.3134328358209 473.134328358209 L 437.3134328358209 428.3582089552239 L 362.6865671641791 428.3582089552239 L 362.6865671641791 473.134328358209 Z" fill="none" stroke="#f2eda1" stroke-width="1.4925373134328357" stroke-linecap="round" stroke-linejoin="round" data-pcb-component-id="pcb_component_3" data-pcb-silkscreen-path-id="pcb_silkscreen_path_4" data-type="pcb_silkscreen_path" data-pcb-layer="top"/><text x="0" y="0" dx="0" dy="0" fill="#f2eda1" font-family="Arial, sans-serif" font-size="11.940298507462686" text-anchor="middle" dominant-baseline="central" transform="matrix(1,0,0,1,381.04477611940297,483.5820895522388)" class="pcb-silkscreen-text pcb-silkscreen-top" data-pcb-silkscreen-text-id="pcb_component_3" stroke="none" data-type="pcb_silkscreen_text" data-pcb-layer="top">+</text><text x="0" y="0" dx="0" dy="0" fill="#f2eda1" font-family="Arial, sans-serif" font-size="11.940298507462686" text-anchor="middle" dominant-baseline="central" transform="matrix(1,0,0,1,400,417.91044776119406)" class="pcb-silkscreen-text pcb-silkscreen-top" data-pcb-silkscreen-text-id="pcb_component_3" stroke="none" data-type="pcb_silkscreen_text" data-pcb-layer="top">LED</text><g data-type="pcb_plated_hole" data-pcb-layer="through"><circle class="pcb-hole-outer" fill="rgb(200, 52, 52)" cx="381.04477611940297" cy="450.74626865671644" r="13.432835820895521" data-type="pcb_plated_hole" data-pcb-layer="top"/><circle class="pcb-hole-inner" fill="#FF26E2" cx="381.04477611940297" cy="450.74626865671644" r="7.462686567164178" data-type="pcb_plated_hole_drill" data-pcb-layer="drill"/></g><g data-type="pcb_plated_hole" data-pcb-layer="through"><circle class="pcb-hole-outer" fill="rgb(200, 52, 52)" cx="418.95522388059703" cy="450.74626865671644" r="13.432835820895521" data-type="pcb_plated_hole" data-pcb-layer="top"/><circle class="pcb-hole-inner" fill="#FF26E2" cx="418.95522388059703" cy="450.74626865671644" r="7.462686567164178" data-type="pcb_plated_hole_drill" data-pcb-layer="drill"/></g><g data-type="pcb_via" data-pcb-layer="through"><circle class="pcb-hole-outer" fill="rgb(200, 52, 52)" cx="549.2537313432836" cy="402.9850746268657" r="2.2388059701492535" data-type="pcb_via" data-pcb-layer="top"/><circle class="pcb-hole-inner" fill="#FF26E2" cx="549.2537313432836" cy="402.9850746268657" r="1.4925373134328357" data-type="pcb_via" data-pcb-layer="drill"/></g><g data-type="pcb_via" data-pcb-layer="through"><circle class="pcb-hole-outer" fill="rgb(200, 52, 52)" cx="573.1343283582089" cy="402.9850746268657" r="2.2388059701492535" data-type="pcb_via" data-pcb-layer="top"/><circle class="pcb-hole-inner" fill="#FF26E2" cx="573.1343283582089" cy="402.9850746268657" r="1.4925373134328357" data-type="pcb_via" data-pcb-layer="drill"/></g><g data-type="pcb_via" data-pcb-layer="through"><circle class="pcb-hole-outer" fill="rgb(200, 52, 52)" cx="429.85074626865674" cy="426.8656716417911" r="2.2388059701492535" data-type="pcb_via" data-pcb-layer="top"/><circle class="pcb-hole-inner" fill="#FF26E2" cx="429.85074626865674" cy="426.8656716417911" r="1.4925373134328357" data-type="pcb_via" data-pcb-layer="drill"/></g><g data-type="pcb_via" data-pcb-layer="through"><circle class="pcb-hole-outer" fill="rgb(200, 52, 52)" cx="562.7611940298507" cy="329.6641791044776" r="2.2388059701492535" data-type="pcb_via" data-pcb-layer="top"/><circle class="pcb-hole-inner" fill="#FF26E2" cx="562.7611940298507" cy="329.6641791044776" r="1.4925373134328357" data-type="pcb_via" data-pcb-layer="drill"/></g><circle class="pcb-hole" cx="400" cy="540.2985074626865" r="18.656716417910445" fill="#FF26E2" data-type="pcb_hole" data-pcb-layer="drill"/></svg>