<svg xmlns="http://www.w3.org/2000/svg" width="800" height="600" data-software-used-string="@tscircuit/core@0.0.1112"><style></style><rect class="boundary" x="0" y="0" fill="#000" width="800" height="600" data-type="pcb_background" data-pcb-layer="global"/><rect class="pcb-boundary" fill="none" stroke="#fff" stroke-width="0.3" x="70.73170731707313" y="14.634146341463406" width="658.5365853658536" height="570.7317073170732" data-type="pcb_boundary" data-pcb-layer="global"/><path class="pcb-board" d="M 400 585.3658536585366 L 421.9512195121951 578.0487804878048 L 433.6585365853658 567.8048780487804 L 440.9756097560976 553.1707317073171 L 443.9024390243902 534.1463414634146 L 443.9024390243902 512.1951219512196 L 441.1219512195122 497.8536585365854 L 466.8780487804878 521.2682926829268 L 498.6341463414634 539.7073170731708 L 535.219512195122 550.5365853658536 L 574.2926829268292 552.1463414634146 L 613.8048780487804 543.9512195121952 L 651.1219512195122 526.2439024390244 L 683.1707317073171 500.1951219512195 L 708.0487804878048 467.4146341463414 L 723.8536585365854 429.8048780487805 L 729.2682926829268 389.5609756097561 L 723.8536585365854 348.4390243902439 L 708.0487804878048 307.7560975609756 L 683.1707317073171 268.2439024390244 L 651.1219512195122 230.34146341463415 L 613.8048780487804 194.1951219512195 L 574.2926829268292 159.3658536585366 L 535.219512195122 125.85365853658536 L 498.6341463414634 93.65853658536585 L 466.8780487804878 63.07317073170728 L 441.1219512195122 34.39024390243901 L 426.3414634146342 21.95121951219511 L 417.5609756097561 17.5609756097561 L 408.780487804878 15.365853658536594 L 400 14.634146341463406 L 391.219512195122 15.365853658536594 L 382.4390243902439 17.5609756097561 L 373.6585365853658 21.95121951219511 L 358.8780487804878 34.39024390243901 L 333.1219512195122 63.07317073170728 L 301.3658536585366 93.65853658536585 L 264.780487804878 125.85365853658536 L 225.7073170731707 159.3658536585366 L 186.1951219512195 194.1951219512195 L 148.8780487804878 230.34146341463415 L 116.82926829268291 268.2439024390244 L 91.95121951219511 307.7560975609756 L 76.14634146341461 348.4390243902439 L 70.73170731707313 389.5609756097561 L 76.14634146341461 429.8048780487805 L 91.95121951219511 467.4146341463414 L 116.82926829268291 500.1951219512195 L 148.8780487804878 526.2439024390244 L 186.1951219512195 543.9512195121952 L 225.7073170731707 552.1463414634146 L 264.780487804878 550.5365853658536 L 301.3658536585366 539.7073170731708 L 333.1219512195122 521.2682926829268 L 358.8780487804878 497.8536585365854 L 356.0975609756098 512.1951219512196 L 356.0975609756098 534.1463414634146 L 359.0243902439024 553.1707317073171 L 366.3414634146342 567.8048780487804 L 378.0487804878049 578.0487804878048 Z" fill="none" stroke="rgba(255, 255, 255, 0.5)" stroke-width="1.4634146341463417" data-type="pcb_board" data-pcb-layer="board"/><path class="pcb-trace" stroke="rgb(77, 127, 196)" fill="none" d="M 546.3414634146341 406.82926829268297 L 546.3414634146341 406.82926829268297" stroke-width="2.1951219512195124" stroke-linecap="round" stroke-linejoin="round" shape-rendering="crispEdges" data-type="pcb_trace" data-pcb-layer="bottom"/><path class="pcb-trace" stroke="rgb(77, 127, 196)" fill="none" d="M 546.3414634146341 406.82926829268297 L 568.2792813220209 406.82926829268297" stroke-width="2.1951219512195124" stroke-linecap="round" stroke-linejoin="round" shape-rendering="crispEdges" data-type="pcb_trace" data-pcb-layer="bottom"/><path class="pcb-trace" stroke="rgb(77, 127, 196)" fill="none" d="M 568.2792813220209 406.82926829268297 L 568.2792813220209 406.82926829268297" stroke-width="2.1951219512195124" stroke-linecap="round" stroke-linejoin="round" shape-rendering="crispEdges" data-type="pcb_trace" data-pcb-layer="bottom"/><path class="pcb-trace" stroke="rgb(77, 127, 196)" fill="none" d="M 568.2792813220209 406.82926829268297 L 569.7560975609756 406.82926829268297" stroke-width="2.1951219512195124" stroke-linecap="round" stroke-linejoin="round" shape-rendering="crispEdges" data-type="pcb_trace" data-pcb-layer="bottom"/><path class="pcb-trace" stroke="rgb(77, 127, 196)" fill="none" d="M 569.7560975609756 406.82926829268297 L 569.7560975609756 406.82926829268297" stroke-width="2.1951219512195124" stroke-linecap="round" stroke-linejoin="round" shape-rendering="crispEdges" data-type="pcb_trace" data-pcb-layer="bottom"/><path class="pcb-trace" stroke="rgb(77, 127, 196)" fill="none" d="M 429.2682926829268 430.2439024390244 L 429.2682926829268 430.2439024390244" stroke-width="2.1951219512195124" stroke-linecap="round" stroke-linejoin="round" shape-rendering="crispEdges" data-type="pcb_trace" data-pcb-layer="bottom"/><path class="pcb-trace" stroke="rgb(77, 127, 196)" fill="none" d="M 429.2682926829268 430.2439024390244 L 460.6383447461239 430.2439024390244" stroke-width="2.1951219512195124" stroke-linecap="round" stroke-linejoin="round" shape-rendering="crispEdges" data-type="pcb_trace" data-pcb-layer="bottom"/><path class="pcb-trace" stroke="rgb(77, 127, 196)" fill="none" d="M 460.6383447461239 430.2439024390244 L 557.4479730724804 333.4342741126678" stroke-width="2.1951219512195124" stroke-linecap="round" stroke-linejoin="round" shape-rendering="crispEdges" data-type="pcb_trace" data-pcb-layer="bottom"/><path class="pcb-trace" stroke="rgb(77, 127, 196)" fill="none" d="M 557.4479730724804 333.4342741126678 L 559.5853658536586 334.9390243902439" stroke-width="2.1951219512195124" stroke-linecap="round" stroke-linejoin="round" shape-rendering="crispEdges" data-type="pcb_trace" data-pcb-layer="bottom"/><path class="pcb-trace" stroke="rgb(77, 127, 196)" fill="none" d="M 559.5853658536586 334.9390243902439 L 559.5853658536586 334.9390243902439" stroke-width="2.1951219512195124" stroke-linecap="round" stroke-linejoin="round" shape-rendering="crispEdges" data-type="pcb_trace" data-pcb-layer="bottom"/><path class="pcb-silkscreen pcb-silkscreen-bottom" d="M 335.9024390243902 272.4878048780488 L 400 272.4878048780488 L 400 336.5853658536585 L 335.9024390243902 336.5853658536585 L 335.9024390243902 272.4878048780488 Z" fill="none" stroke="#5da9e9" stroke-width="1.4634146341463417" stroke-linecap="round" stroke-linejoin="round" data-pcb-component-id="null" data-pcb-silkscreen-path-id="pcb_silkscreen_path_21" data-type="pcb_silkscreen_path" data-pcb-layer="bottom"/><path class="pcb-silkscreen pcb-silkscreen-bottom" d="M 368.2439024390244 304.8292682926829 L 432.1951219512195 304.8292682926829 L 432.1951219512195 368.780487804878 L 368.2439024390244 368.780487804878 L 368.2439024390244 304.8292682926829 Z" fill="none" stroke="#5da9e9" stroke-width="1.4634146341463417" stroke-linecap="round" stroke-linejoin="round" data-pcb-component-id="null" data-pcb-silkscreen-path-id="pcb_silkscreen_path_22" data-type="pcb_silkscreen_path" data-pcb-layer="bottom"/><path class="pcb-silkscreen pcb-silkscreen-bottom" d="M 400 336.5853658536585 L 463.9512195121951 336.5853658536585 L 463.9512195121951 400.5365853658536 L 400 400.5365853658536 L 400 336.5853658536585 Z" fill="none" stroke="#5da9e9" stroke-width="1.4634146341463417" stroke-linecap="round" stroke-linejoin="round" data-pcb-component-id="null" data-pcb-silkscreen-path-id="pcb_silkscreen_path_23" data-type="pcb_silkscreen_path" data-pcb-layer="bottom"/><path class="pcb-silkscreen pcb-silkscreen-bottom" d="M 368.2439024390244 304.8292682926829 L 400 336.5853658536585" fill="none" stroke="#5da9e9" stroke-width="1.4634146341463417" stroke-linecap="round" stroke-linejoin="round" data-pcb-component-id="null" data-pcb-silkscreen-path-id="pcb_silkscreen_path_24" data-type="pcb_silkscreen_path" data-pcb-layer="bottom"/><path class="pcb-silkscreen pcb-silkscreen-bottom" d="M 400 336.5853658536585 L 432.1951219512195 368.780487804878" fill="none" stroke="#5da9e9" stroke-width="1.4634146341463417" stroke-linecap="round" stroke-linejoin="round" data-pcb-component-id="null" data-pcb-silkscreen-path-id="pcb_silkscreen_path_25" data-type="pcb_silkscreen_path" data-pcb-layer="bottom"/><path class="pcb-silkscreen pcb-silkscreen-bottom" d="M 304.4390243902439 203.41463414634146 L 300.4878048780488 203.41463414634146 L 300.4878048780488 232.2439024390244 L 290.2439024390244 232.2439024390244 L 290.2439024390244 235.90243902439022 L 315.1219512195122 235.90243902439022 L 315.1219512195122 232.2439024390244 L 304.4390243902439 232.2439024390244 L 304.4390243902439 203.41463414634146 Z" fill="none" stroke="#5da9e9" stroke-width="1.4634146341463417" stroke-linecap="round" stroke-linejoin="round" data-pcb-component-id="null" data-pcb-silkscreen-path-id="pcb_silkscreen_path_26" data-type="pcb_silkscreen_path" data-pcb-layer="bottom"/><path class="pcb-silkscreen pcb-silkscreen-bottom" d="M 328.29268292682923 202.97560975609755 L 326.8292682926829 202.97560975609755 L 325.3658536585366 203.41463414634146 L 323.9024390243902 203.7073170731707 L 322.7317073170732 204.58536585365852 L 321.2682926829268 205.17073170731706 L 320.5365853658536 206.34146341463412 L 319.5121951219512 207.3658536585366 L 318.780487804878 208.53658536585365 L 318.3414634146342 210 L 318.0487804878049 211.46341463414632 L 317.609756097561 213.21951219512195 L 317.609756097561 215.1219512195122 L 317.609756097561 216.8780487804878 L 318.0487804878049 218.34146341463412 L 318.3414634146342 220.2439024390244 L 318.780487804878 221.7073170731707 L 319.5121951219512 222.73170731707316 L 320.5365853658536 223.90243902439022 L 321.2682926829268 224.9268292682927 L 322.4390243902439 225.8048780487805 L 323.9024390243902 226.390243902439 L 325.3658536585366 227.1219512195122 L 326.8292682926829 227.1219512195122 L 328.29268292682923 227.5609756097561 L 329.7560975609756 227.1219512195122 L 331.219512195122 227.1219512195122 L 332.6829268292683 226.390243902439 L 333.7073170731707 226.09756097560975 L 334.8780487804878 224.9268292682927 L 335.9024390243902 224.1951219512195 L 336.6341463414634 223.17073170731706 L 337.3658536585366 221.7073170731707 L 337.8048780487805 220.2439024390244 L 338.2439024390244 218.78048780487805 L 338.5365853658536 217.3170731707317 L 338.5365853658536 215.41463414634146 L 338.5365853658536 213.9512195121951 L 319.5121951219512 213.9512195121951 L 319.5121951219512 217.3170731707317 L 336.6341463414634 217.3170731707317 L 334.5853658536586 215.85365853658536 L 334.5853658536586 217.3170731707317 L 334.1463414634146 219.5121951219512 L 333.4146341463415 221.2682926829268 L 332.2439024390244 222.4390243902439 L 330.9268292682927 223.609756097561 L 329.0243902439024 223.90243902439022 L 328.29268292682923 223.90243902439022 L 327.2682926829268 223.90243902439022 L 325.8048780487805 223.609756097561 L 324.6341463414634 223.17073170731706 L 323.4634146341463 221.7073170731707 L 322.4390243902439 220.2439024390244 L 321.7073170731707 218.34146341463412 L 321.7073170731707 215.85365853658536 L 321.7073170731707 213.21951219512195 L 322.1463414634146 211.02439024390242 L 322.7317073170732 209.2682926829268 L 323.4634146341463 208.53658536585365 L 324.9268292682927 207.3658536585366 L 326.5365853658537 206.6341463414634 L 328.5853658536585 206.34146341463412 L 330.1951219512195 206.34146341463412 L 331.219512195122 206.6341463414634 L 332.2439024390244 207.3658536585366 L 332.9756097560976 208.09756097560972 L 333.7073170731707 208.8292682926829 L 334.5853658536586 210 L 338.2439024390244 210 L 337.8048780487805 208.53658536585365 L 337.0731707317073 207.0731707317073 L 336.3414634146342 205.90243902439022 L 334.8780487804878 204.8780487804878 L 333.7073170731707 204.14634146341461 L 331.9512195121951 203.41463414634146 L 330.4878048780488 202.97560975609755 L 328.29268292682923 202.97560975609755 Z" fill="none" stroke="#5da9e9" stroke-width="1.4634146341463417" stroke-linecap="round" stroke-linejoin="round" data-pcb-component-id="null" data-pcb-silkscreen-path-id="pcb_silkscreen_path_27" data-type="pcb_silkscreen_path" data-pcb-layer="bottom"/><path class="pcb-silkscreen pcb-silkscreen-bottom" d="M 346.5853658536585 203.41463414634146 L 342.9268292682927 203.41463414634146 L 342.9268292682927 235.90243902439022 L 346.5853658536585 235.90243902439022 L 346.5853658536585 203.41463414634146 Z" fill="none" stroke="#5da9e9" stroke-width="1.4634146341463417" stroke-linecap="round" stroke-linejoin="round" data-pcb-component-id="null" data-pcb-silkscreen-path-id="pcb_silkscreen_path_28" data-type="pcb_silkscreen_path" data-pcb-layer="bottom"/><path class="pcb-silkscreen pcb-silkscreen-bottom" d="M 361.9512195121951 202.97560975609755 L 360.0487804878049 202.97560975609755 L 358.5853658536585 203.41463414634146 L 357.1219512195122 203.7073170731707 L 356.0975609756098 204.58536585365852 L 354.9268292682927 205.17073170731706 L 353.9024390243902 206.34146341463412 L 352.7317073170732 207.3658536585366 L 352 208.53658536585365 L 351.7073170731707 210 L 351.2682926829268 211.46341463414632 L 350.9756097560976 213.21951219512195 L 350.9756097560976 215.1219512195122 L 350.9756097560976 216.8780487804878 L 351.2682926829268 218.34146341463412 L 351.7073170731707 220.2439024390244 L 352 221.7073170731707 L 352.7317073170732 222.73170731707316 L 353.9024390243902 223.90243902439022 L 354.6341463414634 224.9268292682927 L 356.0975609756098 225.8048780487805 L 357.1219512195122 226.390243902439 L 358.5853658536585 227.1219512195122 L 360.0487804878049 227.1219512195122 L 361.5121951219512 227.5609756097561 L 362.9756097560976 227.1219512195122 L 364.5853658536585 227.1219512195122 L 365.9024390243902 226.390243902439 L 367.0731707317073 226.09756097560975 L 368.2439024390244 224.9268292682927 L 369.2682926829268 224.1951219512195 L 370 223.17073170731706 L 370.7317073170732 221.7073170731707 L 371.0243902439024 220.2439024390244 L 371.4634146341463 218.78048780487805 L 371.7560975609756 217.3170731707317 L 371.7560975609756 215.41463414634146 L 371.7560975609756 213.9512195121951 L 352.7317073170732 213.9512195121951 L 352.7317073170732 217.3170731707317 L 370 217.3170731707317 L 368.2439024390244 215.85365853658536 L 367.8048780487805 217.3170731707317 L 367.3658536585366 219.5121951219512 L 366.6341463414634 221.2682926829268 L 365.609756097561 222.4390243902439 L 364.1463414634146 223.609756097561 L 362.2439024390244 223.90243902439022 L 361.5121951219512 223.90243902439022 L 360.4878048780488 223.90243902439022 L 359.0243902439024 223.609756097561 L 357.5609756097561 222.4390243902439 L 356.0975609756098 220.97560975609755 L 355.3658536585366 219.5121951219512 L 354.9268292682927 216.8780487804878 L 354.9268292682927 215.85365853658536 L 354.9268292682927 213.21951219512195 L 355.3658536585366 211.02439024390242 L 356.0975609756098 209.2682926829268 L 356.8292682926829 208.53658536585365 L 358.2926829268293 207.3658536585366 L 359.7560975609756 206.6341463414634 L 361.9512195121951 206.34146341463412 L 363.4146341463415 206.34146341463412 L 364.5853658536585 206.6341463414634 L 365.609756097561 207.3658536585366 L 366.6341463414634 208.09756097560972 L 367.0731707317073 208.8292682926829 L 367.8048780487805 210 L 371.7560975609756 210 L 371.0243902439024 208.53658536585365 L 370.2926829268293 207.0731707317073 L 369.7073170731707 205.90243902439022 L 368.5365853658537 204.8780487804878 L 367.0731707317073 204.14634146341461 L 365.1707317073171 203.41463414634146 L 363.7073170731707 202.97560975609755 L 361.9512195121951 202.97560975609755 Z" fill="none" stroke="#5da9e9" stroke-width="1.4634146341463417" stroke-linecap="round" stroke-linejoin="round" data-pcb-component-id="null" data-pcb-silkscreen-path-id="pcb_silkscreen_path_29" data-type="pcb_silkscreen_path" data-pcb-layer="bottom"/><path class="pcb-silkscreen pcb-silkscreen-bottom" d="M 379.8048780487805 203.41463414634146 L 375.8536585365854 203.41463414634146 L 375.8536585365854 226.8292682926829 L 379.8048780487805 226.8292682926829 L 379.8048780487805 223.609756097561 L 380.2439024390244 224.1951219512195 L 380.9756097560976 224.9268292682927 L 381.7073170731707 225.8048780487805 L 382.4390243902439 226.390243902439 L 383.4634146341463 226.8292682926829 L 384.1951219512195 227.1219512195122 L 385.3658536585366 227.1219512195122 L 386.390243902439 227.5609756097561 L 387.1219512195122 227.5609756097561 L 387.8536585365854 227.1219512195122 L 389.3170731707317 226.8292682926829 L 390.4878048780488 226.09756097560975 L 391.219512195122 225.8048780487805 L 391.9512195121951 224.9268292682927 L 392.6829268292683 223.609756097561 L 392.9756097560976 222.73170731707316 L 393.4146341463415 223.609756097561 L 394.4390243902439 224.6341463414634 L 395.609756097561 225.8048780487805 L 396.780487804878 226.390243902439 L 398.0975609756098 227.1219512195122 L 399.5609756097561 227.5609756097561 L 400.7317073170732 227.5609756097561 L 401.7560975609756 227.1219512195122 L 403.6585365853659 226.8292682926829 L 405.4146341463415 226.09756097560975 L 406.8780487804878 224.6341463414634 L 407.609756097561 222.73170731707316 L 408.4878048780488 220.97560975609755 L 408.4878048780488 219.5121951219512 L 408.4878048780488 203.41463414634146 L 404.390243902439 203.41463414634146 L 404.390243902439 218.78048780487805 L 404.0975609756098 220.2439024390244 L 403.6585365853659 221.7073170731707 L 402.9268292682927 222.4390243902439 L 402.1951219512195 223.17073170731706 L 400.7317073170732 223.90243902439022 L 399.2682926829268 223.90243902439022 L 397.8048780487805 223.90243902439022 L 396.780487804878 223.17073170731706 L 395.609756097561 222.4390243902439 L 394.8780487804878 221.2682926829268 L 394.1463414634146 219.8048780487805 L 394.1463414634146 218.34146341463412 L 394.1463414634146 203.41463414634146 L 390.0487804878049 203.41463414634146 L 390.0487804878049 219.0731707317073 L 389.7560975609756 220.97560975609755 L 389.0243902439024 222 L 388.2926829268293 223.17073170731706 L 387.1219512195122 223.609756097561 L 386.0975609756098 223.90243902439022 L 385.3658536585366 223.90243902439022 L 383.9024390243902 223.90243902439022 L 382.4390243902439 223.17073170731706 L 381.4146341463415 222.4390243902439 L 380.5365853658537 220.97560975609755 L 379.8048780487805 219.8048780487805 L 379.8048780487805 218.0487804878049 L 379.8048780487805 203.41463414634146 Z" fill="none" stroke="#5da9e9" stroke-width="1.4634146341463417" stroke-linecap="round" stroke-linejoin="round" data-pcb-component-id="null" data-pcb-silkscreen-path-id="pcb_silkscreen_path_30" data-type="pcb_silkscreen_path" data-pcb-layer="bottom"/><path class="pcb-silkscreen pcb-silkscreen-bottom" d="M 422.9756097560976 202.97560975609755 L 421.5121951219512 202.97560975609755 L 419.7560975609756 203.41463414634146 L 418.5853658536585 203.7073170731707 L 417.1219512195122 204.58536585365852 L 416.0975609756098 205.17073170731706 L 414.9268292682927 206.34146341463412 L 414.3414634146341 207.3658536585366 L 413.4634146341463 208.53658536585365 L 412.7317073170732 210 L 412.4390243902439 211.46341463414632 L 412 213.21951219512195 L 412 215.1219512195122 L 412 216.8780487804878 L 412.4390243902439 218.34146341463412 L 412.7317073170732 220.2439024390244 L 413.4634146341463 221.7073170731707 L 414.3414634146341 222.73170731707316 L 414.9268292682927 223.90243902439022 L 416.0975609756098 224.9268292682927 L 417.1219512195122 225.8048780487805 L 418.2926829268293 226.390243902439 L 419.7560975609756 227.1219512195122 L 421.219512195122 227.1219512195122 L 422.6829268292683 227.5609756097561 L 424.4390243902439 227.1219512195122 L 425.9024390243902 227.1219512195122 L 427.0731707317073 226.390243902439 L 428.5365853658537 226.09756097560975 L 429.7073170731707 224.9268292682927 L 430.2926829268293 224.1951219512195 L 431.0243902439024 223.17073170731706 L 431.7560975609756 221.7073170731707 L 432.4878048780488 220.2439024390244 L 432.9268292682927 218.78048780487805 L 433.219512195122 217.3170731707317 L 433.219512195122 215.41463414634146 L 433.219512195122 213.9512195121951 L 414.3414634146341 213.9512195121951 L 414.3414634146341 217.3170731707317 L 431.0243902439024 217.3170731707317 L 429.2682926829268 215.85365853658536 L 429.2682926829268 217.3170731707317 L 428.8292682926829 219.5121951219512 L 427.8048780487805 221.2682926829268 L 426.6341463414634 222.4390243902439 L 425.1707317073171 223.609756097561 L 423.7073170731707 223.90243902439022 L 422.6829268292683 223.90243902439022 L 421.9512195121951 223.90243902439022 L 420.0487804878049 223.609756097561 L 418.5853658536585 222.4390243902439 L 417.5609756097561 220.97560975609755 L 416.8292682926829 219.5121951219512 L 416.0975609756098 216.8780487804878 L 416.0975609756098 215.85365853658536 L 416.0975609756098 213.21951219512195 L 416.390243902439 211.02439024390242 L 417.5609756097561 209.2682926829268 L 418 208.53658536585365 L 419.4634146341463 207.3658536585366 L 420.0487804878049 207.0731707317073 L 421.9512195121951 206.34146341463412 L 422.9756097560976 206.34146341463412 L 424.4390243902439 206.34146341463412 L 425.9024390243902 206.6341463414634 L 427.0731707317073 207.3658536585366 L 427.8048780487805 208.09756097560972 L 428.5365853658537 208.8292682926829 L 428.8292682926829 210 L 432.9268292682927 210 L 432.4878048780488 208.53658536585365 L 431.7560975609756 207.0731707317073 L 430.7317073170732 205.90243902439022 L 429.7073170731707 204.8780487804878 L 428.0975609756098 204.14634146341461 L 426.6341463414634 203.41463414634146 L 424.8780487804878 202.97560975609755 L 422.9756097560976 202.97560975609755 Z" fill="none" stroke="#5da9e9" stroke-width="1.4634146341463417" stroke-linecap="round" stroke-linejoin="round" data-pcb-component-id="null" data-pcb-silkscreen-path-id="pcb_silkscreen_path_31" data-type="pcb_silkscreen_path" data-pcb-layer="bottom"/><path class="pcb-silkscreen pcb-silkscreen-bottom" d="M 444.9268292682927 202.97560975609755 L 443.1707317073171 202.97560975609755 L 442 203.41463414634146 L 440.9756097560976 203.7073170731707 L 439.8048780487805 204.58536585365852 L 439.0731707317073 205.17073170731706 L 438.780487804878 206.34146341463412 L 438.3414634146342 207.8048780487805 L 438.3414634146342 209.2682926829268 L 438.3414634146342 223.609756097561 L 434.6829268292683 223.609756097561 L 434.6829268292683 226.8292682926829 L 438.3414634146342 226.8292682926829 L 438.3414634146342 233.41463414634146 L 442.4390243902439 233.41463414634146 L 442.4390243902439 226.8292682926829 L 446.8292682926829 226.8292682926829 L 446.8292682926829 223.609756097561 L 442.4390243902439 223.609756097561 L 442.4390243902439 209.2682926829268 L 442.7317073170732 207.8048780487805 L 443.1707317073171 206.6341463414634 L 444.1951219512195 206.34146341463412 L 444.9268292682927 206.34146341463412 L 445.6585365853659 205.90243902439022 L 446.8292682926829 206.34146341463412 L 446.8292682926829 202.97560975609755 L 446.390243902439 202.97560975609755 L 445.6585365853659 202.97560975609755 L 444.9268292682927 202.97560975609755 Z" fill="none" stroke="#5da9e9" stroke-width="1.4634146341463417" stroke-linecap="round" stroke-linejoin="round" data-pcb-component-id="null" data-pcb-silkscreen-path-id="pcb_silkscreen_path_32" data-type="pcb_silkscreen_path" data-pcb-layer="bottom"/><path class="pcb-silkscreen pcb-silkscreen-bottom" d="M 455.1707317073171 203.41463414634146 L 451.219512195122 203.41463414634146 L 451.219512195122 226.8292682926829 L 455.1707317073171 226.8292682926829 L 455.1707317073171 222.73170731707316 L 455.609756097561 223.90243902439022 L 456.6341463414634 225.8048780487805 L 458.0975609756098 226.8292682926829 L 459.5609756097561 227.1219512195122 L 460.7317073170732 227.5609756097561 L 461.4634146341464 227.5609756097561 L 462.1951219512195 227.1219512195122 L 462.1951219512195 223.609756097561 L 461.4634146341464 223.609756097561 L 460.7317073170732 223.609756097561 L 459.5609756097561 223.609756097561 L 458.0975609756098 223.17073170731706 L 457.0731707317073 222.4390243902439 L 455.9024390243902 221.7073170731707 L 455.609756097561 220.2439024390244 L 455.1707317073171 218.78048780487805 L 455.1707317073171 218.0487804878049 L 455.1707317073171 203.41463414634146 Z" fill="none" stroke="#5da9e9" stroke-width="1.4634146341463417" stroke-linecap="round" stroke-linejoin="round" data-pcb-component-id="null" data-pcb-silkscreen-path-id="pcb_silkscreen_path_33" data-type="pcb_silkscreen_path" data-pcb-layer="bottom"/><path class="pcb-silkscreen pcb-silkscreen-bottom" d="M 475.3658536585366 202.97560975609755 L 473.9024390243902 202.97560975609755 L 472.4390243902439 203.41463414634146 L 470.9756097560976 203.7073170731707 L 469.5121951219512 204.58536585365852 L 468.4878048780488 205.17073170731706 L 467.3170731707317 206.34146341463412 L 466.5853658536585 207.3658536585366 L 465.8536585365854 208.53658536585365 L 465.1219512195122 210 L 464.6829268292683 211.7560975609756 L 464.390243902439 213.21951219512195 L 464.390243902439 215.1219512195122 L 464.390243902439 216.8780487804878 L 464.6829268292683 218.78048780487805 L 465.1219512195122 220.2439024390244 L 465.8536585365854 221.7073170731707 L 466.5853658536585 223.17073170731706 L 467.3170731707317 224.1951219512195 L 468.4878048780488 224.9268292682927 L 469.5121951219512 226.09756097560975 L 470.9756097560976 226.390243902439 L 472.4390243902439 227.1219512195122 L 473.9024390243902 227.1219512195122 L 475.3658536585366 227.5609756097561 L 476.8292682926829 227.1219512195122 L 478.2926829268293 227.1219512195122 L 479.7560975609756 226.390243902439 L 481.219512195122 226.09756097560975 L 482.2439024390244 224.9268292682927 L 483.4146341463415 224.1951219512195 L 484.1463414634146 223.17073170731706 L 484.8780487804878 221.7073170731707 L 485.609756097561 220.2439024390244 L 485.9024390243902 218.78048780487805 L 486.3414634146342 216.8780487804878 L 486.3414634146342 215.1219512195122 L 486.3414634146342 213.21951219512195 L 485.9024390243902 211.46341463414632 L 485.609756097561 210 L 484.8780487804878 208.53658536585365 L 484.1463414634146 207.3658536585366 L 483.4146341463415 206.34146341463412 L 482.2439024390244 205.17073170731706 L 481.219512195122 204.58536585365852 L 479.7560975609756 203.7073170731707 L 478.2926829268293 203.41463414634146 L 476.8292682926829 202.97560975609755 L 475.3658536585366 202.97560975609755 Z" fill="none" stroke="#5da9e9" stroke-width="1.4634146341463417" stroke-linecap="round" stroke-linejoin="round" data-pcb-component-id="null" data-pcb-silkscreen-path-id="pcb_silkscreen_path_34" data-type="pcb_silkscreen_path" data-pcb-layer="bottom"/><path class="pcb-silkscreen pcb-silkscreen-bottom" d="M 475.3658536585366 206.34146341463412 L 476.390243902439 206.34146341463412 L 478.2926829268293 207.0731707317073 L 479.7560975609756 208.09756097560972 L 480.780487804878 209.5609756097561 L 481.5121951219512 211.46341463414632 L 482.2439024390244 213.65853658536582 L 482.2439024390244 215.1219512195122 L 482.2439024390244 216.58536585365852 L 481.5121951219512 218.78048780487805 L 480.780487804878 220.97560975609755 L 479.7560975609756 222.4390243902439 L 478.2926829268293 223.609756097561 L 476.390243902439 223.90243902439022 L 475.3658536585366 223.90243902439022 L 474.1951219512195 223.90243902439022 L 472.4390243902439 223.17073170731706 L 470.9756097560976 222.4390243902439 L 469.8048780487805 220.97560975609755 L 468.780487804878 218.78048780487805 L 468.4878048780488 216.58536585365852 L 468.4878048780488 215.1219512195122 L 468.4878048780488 213.65853658536582 L 468.780487804878 211.46341463414632 L 469.8048780487805 209.5609756097561 L 470.9756097560976 208.09756097560972 L 472.4390243902439 207.0731707317073 L 474.1951219512195 206.34146341463412 L 475.3658536585366 206.34146341463412 Z" fill="none" stroke="#5da9e9" stroke-width="1.4634146341463417" stroke-linecap="round" stroke-linejoin="round" data-pcb-component-id="null" data-pcb-silkscreen-path-id="pcb_silkscreen_path_35" data-type="pcb_silkscreen_path" data-pcb-layer="bottom"/><path class="pcb-silkscreen pcb-silkscreen-bottom" d="M 493.9512195121951 203.41463414634146 L 490.4390243902439 203.41463414634146 L 490.4390243902439 226.8292682926829 L 493.9512195121951 226.8292682926829 L 493.9512195121951 223.609756097561 L 494.6829268292683 224.1951219512195 L 496.1463414634146 225.8048780487805 L 498.0487804878049 226.8292682926829 L 500.2439024390244 227.1219512195122 L 501.70731707317077 227.5609756097561 L 503.4634146341464 227.1219512195122 L 506.390243902439 226.09756097560975 L 508.7317073170732 223.90243902439022 L 509.7560975609756 220.53658536585365 L 509.7560975609756 218.78048780487805 L 509.7560975609756 203.41463414634146 L 505.6585365853658 203.41463414634146 L 505.6585365853658 218.0487804878049 L 505.3658536585366 220.53658536585365 L 504.1951219512195 222.4390243902439 L 502.7317073170732 223.609756097561 L 501.70731707317077 223.90243902439022 L 500.2439024390244 223.90243902439022 L 498.780487804878 223.90243902439022 L 496.8780487804878 223.17073170731706 L 495.8536585365854 222 L 495.1219512195122 220.53658536585365 L 494.390243902439 219.0731707317073 L 493.9512195121951 217.3170731707317 L 493.9512195121951 203.41463414634146 Z" fill="none" stroke="#5da9e9" stroke-width="1.4634146341463417" stroke-linecap="round" stroke-linejoin="round" data-pcb-component-id="null" data-pcb-silkscreen-path-id="pcb_silkscreen_path_36" data-type="pcb_silkscreen_path" data-pcb-layer="bottom"/><rect class="pcb-pad" fill="rgb(200, 52, 52)" x="295.36585365853654" y="215.85365853658536" width="36.58536585365854" height="36.58536585365854" data-type="pcb_smtpad" data-pcb-layer="top"/><rect class="pcb-pad" fill="rgb(200, 52, 52)" x="468.0487804878049" y="215.85365853658536" width="36.58536585365854" height="36.58536585365854" data-type="pcb_smtpad" data-pcb-layer="top"/><rect class="pcb-pad" fill="rgb(200, 52, 52)" x="544.8780487804878" y="417.8048780487805" width="17.5609756097561" height="13.170731707317074" data-type="pcb_smtpad" data-pcb-layer="top"/><rect class="pcb-pad" fill="rgb(200, 52, 52)" x="566.829268292683" y="417.8048780487805" width="17.5609756097561" height="13.170731707317074" data-type="pcb_smtpad" data-pcb-layer="top"/><rect class="pcb-pad" fill="rgb(200, 52, 52)" x="588.780487804878" y="417.8048780487805" width="17.5609756097561" height="13.170731707317074" data-type="pcb_smtpad" data-pcb-layer="top"/><rect class="pcb-pad" fill="rgb(200, 52, 52)" x="469.8780487804878" y="417.4390243902439" width="11.707317073170733" height="13.902439024390244" data-type="pcb_smtpad" data-pcb-layer="top"/><rect class="pcb-pad" fill="rgb(200, 52, 52)" x="494.0243902439024" y="417.4390243902439" width="11.707317073170733" height="13.902439024390244" data-type="pcb_smtpad" data-pcb-layer="top"/><path class="pcb-trace" stroke="rgb(200, 52, 52)" fill="none" d="M 381.4146341463415 453.6585365853658 L 409.6897802667362 425.3833904649711" stroke-width="2.1951219512195124" stroke-linecap="round" stroke-linejoin="round" shape-rendering="crispEdges" data-type="pcb_trace" data-pcb-layer="top"/><path class="pcb-trace" stroke="rgb(200, 52, 52)" fill="none" d="M 409.6897802667362 425.3833904649711 L 450.1891426180542 425.3833904649711" stroke-width="2.1951219512195124" stroke-linecap="round" stroke-linejoin="round" shape-rendering="crispEdges" data-type="pcb_trace" data-pcb-layer="top"/><path class="pcb-trace" stroke="rgb(200, 52, 52)" fill="none" d="M 450.1891426180542 425.3833904649711 L 458.74772935446015 433.94197720137703" stroke-width="2.1951219512195124" stroke-linecap="round" stroke-linejoin="round" shape-rendering="crispEdges" data-type="pcb_trace" data-pcb-layer="top"/><path class="pcb-trace" stroke="rgb(200, 52, 52)" fill="none" d="M 458.74772935446015 433.94197720137703 L 490.3263154815498 433.94197720137703" stroke-width="2.1951219512195124" stroke-linecap="round" stroke-linejoin="round" shape-rendering="crispEdges" data-type="pcb_trace" data-pcb-layer="top"/><path class="pcb-trace" stroke="rgb(200, 52, 52)" fill="none" d="M 490.3263154815498 433.94197720137703 L 490.3263154815498 433.94197720137703" stroke-width="2.1951219512195124" stroke-linecap="round" stroke-linejoin="round" shape-rendering="crispEdges" data-type="pcb_trace" data-pcb-layer="top"/><path class="pcb-trace" stroke="rgb(200, 52, 52)" fill="none" d="M 490.3263154815498 433.94197720137703 L 499.8780487804878 424.390243902439" stroke-width="2.1951219512195124" stroke-linecap="round" stroke-linejoin="round" shape-rendering="crispEdges" data-type="pcb_trace" data-pcb-layer="top"/><path class="pcb-trace" stroke="rgb(200, 52, 52)" fill="none" d="M 475.7317073170732 424.390243902439 L 493.29268292682923 406.82926829268297" stroke-width="2.1951219512195124" stroke-linecap="round" stroke-linejoin="round" shape-rendering="crispEdges" data-type="pcb_trace" data-pcb-layer="top"/><path class="pcb-trace" stroke="rgb(200, 52, 52)" fill="none" d="M 493.29268292682923 406.82926829268297 L 545.285000573695 406.82926829268297" stroke-width="2.1951219512195124" stroke-linecap="round" stroke-linejoin="round" shape-rendering="crispEdges" data-type="pcb_trace" data-pcb-layer="top"/><path class="pcb-trace" stroke="rgb(200, 52, 52)" fill="none" d="M 545.285000573695 406.82926829268297 L 546.3414634146341 406.82926829268297" stroke-width="2.1951219512195124" stroke-linecap="round" stroke-linejoin="round" shape-rendering="crispEdges" data-type="pcb_trace" data-pcb-layer="top"/><path class="pcb-trace" stroke="rgb(200, 52, 52)" fill="none" d="M 546.3414634146341 406.82926829268297 L 546.3414634146341 406.82926829268297" stroke-width="2.1951219512195124" stroke-linecap="round" stroke-linejoin="round" shape-rendering="crispEdges" data-type="pcb_trace" data-pcb-layer="top"/><path class="pcb-trace" stroke="rgb(200, 52, 52)" fill="none" d="M 569.7560975609756 406.82926829268297 L 569.7560975609756 406.82926829268297" stroke-width="2.1951219512195124" stroke-linecap="round" stroke-linejoin="round" shape-rendering="crispEdges" data-type="pcb_trace" data-pcb-layer="top"/><path class="pcb-trace" stroke="rgb(200, 52, 52)" fill="none" d="M 569.7560975609756 406.82926829268297 L 569.7560975609756 418.5365853658536" stroke-width="2.1951219512195124" stroke-linecap="round" stroke-linejoin="round" shape-rendering="crispEdges" data-type="pcb_trace" data-pcb-layer="top"/><path class="pcb-trace" stroke="rgb(200, 52, 52)" fill="none" d="M 569.7560975609756 418.5365853658536 L 575.609756097561 424.390243902439" stroke-width="2.1951219512195124" stroke-linecap="round" stroke-linejoin="round" shape-rendering="crispEdges" data-type="pcb_trace" data-pcb-layer="top"/><path class="pcb-trace" stroke="rgb(200, 52, 52)" fill="none" d="M 418.5853658536585 453.6585365853658 L 418.5853658536585 440.9268292682927" stroke-width="2.1951219512195124" stroke-linecap="round" stroke-linejoin="round" shape-rendering="crispEdges" data-type="pcb_trace" data-pcb-layer="top"/><path class="pcb-trace" stroke="rgb(200, 52, 52)" fill="none" d="M 418.5853658536585 440.9268292682927 L 427.6904701000417 431.8217250219095" stroke-width="2.1951219512195124" stroke-linecap="round" stroke-linejoin="round" shape-rendering="crispEdges" data-type="pcb_trace" data-pcb-layer="top"/><path class="pcb-trace" stroke="rgb(200, 52, 52)" fill="none" d="M 427.6904701000417 431.8217250219095 L 429.2682926829268 430.2439024390244" stroke-width="2.1951219512195124" stroke-linecap="round" stroke-linejoin="round" shape-rendering="crispEdges" data-type="pcb_trace" data-pcb-layer="top"/><path class="pcb-trace" stroke="rgb(200, 52, 52)" fill="none" d="M 429.2682926829268 430.2439024390244 L 429.2682926829268 430.2439024390244" stroke-width="2.1951219512195124" stroke-linecap="round" stroke-linejoin="round" shape-rendering="crispEdges" data-type="pcb_trace" data-pcb-layer="top"/><path class="pcb-trace" stroke="rgb(200, 52, 52)" fill="none" d="M 559.5853658536586 334.9390243902439 L 559.5853658536586 334.9390243902439" stroke-width="2.1951219512195124" stroke-linecap="round" stroke-linejoin="round" shape-rendering="crispEdges" data-type="pcb_trace" data-pcb-layer="top"/><path class="pcb-trace" stroke="rgb(200, 52, 52)" fill="none" d="M 559.5853658536586 334.9390243902439 L 559.5853658536586 307.390243902439" stroke-width="2.1951219512195124" stroke-linecap="round" stroke-linejoin="round" shape-rendering="crispEdges" data-type="pcb_trace" data-pcb-layer="top"/><path class="pcb-trace" stroke="rgb(200, 52, 52)" fill="none" d="M 559.5853658536586 307.390243902439 L 486.3414634146342 234.14634146341461" stroke-width="2.1951219512195124" stroke-linecap="round" stroke-linejoin="round" shape-rendering="crispEdges" data-type="pcb_trace" data-pcb-layer="top"/><path class="pcb-trace" stroke="rgb(200, 52, 52)" fill="none" d="M 553.6585365853658 424.390243902439 L 553.6585365853658 407.24031360976676" stroke-width="2.1951219512195124" stroke-linecap="round" stroke-linejoin="round" shape-rendering="crispEdges" data-type="pcb_trace" data-pcb-layer="top"/><path class="pcb-trace" stroke="rgb(200, 52, 52)" fill="none" d="M 553.6585365853658 407.24031360976676 L 483.00358882925764 336.5853658536585" stroke-width="2.1951219512195124" stroke-linecap="round" stroke-linejoin="round" shape-rendering="crispEdges" data-type="pcb_trace" data-pcb-layer="top"/><path class="pcb-trace" stroke="rgb(200, 52, 52)" fill="none" d="M 483.00358882925764 336.5853658536585 L 416.0975609756098 336.5853658536585" stroke-width="2.1951219512195124" stroke-linecap="round" stroke-linejoin="round" shape-rendering="crispEdges" data-type="pcb_trace" data-pcb-layer="top"/><path class="pcb-trace" stroke="rgb(200, 52, 52)" fill="none" d="M 416.0975609756098 336.5853658536585 L 313.6585365853658 234.14634146341461" stroke-width="2.1951219512195124" stroke-linecap="round" stroke-linejoin="round" shape-rendering="crispEdges" data-type="pcb_trace" data-pcb-layer="top"/><path class="pcb-silkscreen pcb-silkscreen-top" d="M 313.6585365853658 263.4146341463414 L 313.6585365853658 204.8780487804878" fill="none" stroke="#f2eda1" stroke-width="1.4634146341463417" stroke-linecap="round" stroke-linejoin="round" data-pcb-component-id="pcb_component_0" data-pcb-silkscreen-path-id="pcb_silkscreen_path_0" data-type="pcb_silkscreen_path" data-pcb-layer="top"/><path class="pcb-silkscreen pcb-silkscreen-top" d="M 304.8780487804878 234.14634146341461 L 322.4390243902439 234.14634146341461" fill="none" stroke="#f2eda1" stroke-width="1.4634146341463417" stroke-linecap="round" stroke-linejoin="round" data-pcb-component-id="pcb_component_0" data-pcb-silkscreen-path-id="pcb_silkscreen_path_1" data-type="pcb_silkscreen_path" data-pcb-layer="top"/><text x="0" y="0" dx="0" dy="0" fill="#f2eda1" font-family="Arial, sans-serif" font-size="14.634146341463415" text-anchor="middle" dominant-baseline="central" transform="matrix(1,0,0,1,313.6585365853658,278.0487804878049)" class="pcb-silkscreen-text pcb-silkscreen-top" data-pcb-silkscreen-text-id="pcb_component_0" stroke="none" data-type="pcb_silkscreen_text" data-pcb-layer="top">+</text><text x="0" y="0" dx="0" dy="0" fill="#f2eda1" font-family="Arial, sans-serif" font-size="14.634146341463415" text-anchor="middle" dominant-baseline="central" transform="matrix(1,0,0,1,486.3414634146342,278.0487804878049)" class="pcb-silkscreen-text pcb-silkscreen-top" data-pcb-silkscreen-text-id="pcb_component_0" stroke="none" data-type="pcb_silkscreen_text" data-pcb-layer="top">-</text><path class="pcb-silkscreen pcb-silkscreen-top" d="M 539.0243902439024 446.3414634146342 L 612.1951219512196 446.3414634146342 L 612.1951219512196 402.4390243902439 L 539.0243902439024 402.4390243902439 L 539.0243902439024 446.3414634146342 Z" fill="none" stroke="#f2eda1" stroke-width="1.4634146341463417" stroke-linecap="round" stroke-linejoin="round" data-pcb-component-id="pcb_component_1" data-pcb-silkscreen-path-id="pcb_silkscreen_path_2" data-type="pcb_silkscreen_path" data-pcb-layer="top"/><path class="pcb-silkscreen pcb-silkscreen-top" d="M 499.8780487804878 411.5853658536585 L 466.9512195121951 411.5853658536585 L 466.9512195121951 437.1951219512195 L 499.8780487804878 437.1951219512195" fill="none" stroke="#f2eda1" stroke-width="1.4634146341463417" stroke-linecap="round" stroke-linejoin="round" data-pcb-component-id="pcb_component_2" data-pcb-silkscreen-path-id="pcb_silkscreen_path_3" data-type="pcb_silkscreen_path" data-pcb-layer="top"/><text x="0" y="0" dx="0" dy="0" fill="#f2eda1" font-family="Arial, sans-serif" font-size="5.853658536585367" text-anchor="middle" dominant-baseline="central" transform="matrix(1,0,0,1,487.8048780487805,404.2682926829268)" class="pcb-silkscreen-text pcb-silkscreen-top" data-pcb-silkscreen-text-id="pcb_component_2" stroke="none" data-type="pcb_silkscreen_text" data-pcb-layer="top">R1</text><path class="pcb-silkscreen pcb-silkscreen-top" d="M 363.4146341463415 475.609756097561 L 436.5853658536585 475.609756097561 L 436.5853658536585 431.7073170731707 L 363.4146341463415 431.7073170731707 L 363.4146341463415 475.609756097561 Z" fill="none" stroke="#f2eda1" stroke-width="1.4634146341463417" stroke-linecap="round" stroke-linejoin="round" data-pcb-component-id="pcb_component_3" data-pcb-silkscreen-path-id="pcb_silkscreen_path_4" data-type="pcb_silkscreen_path" data-pcb-layer="top"/><text x="0" y="0" dx="0" dy="0" fill="#f2eda1" font-family="Arial, sans-serif" font-size="11.707317073170733" text-anchor="middle" dominant-baseline="central" transform="matrix(1,0,0,1,381.4146341463415,485.8536585365854)" class="pcb-silkscreen-text pcb-silkscreen-top" data-pcb-silkscreen-text-id="pcb_component_3" stroke="none" data-type="pcb_silkscreen_text" data-pcb-layer="top">+</text><text x="0" y="0" dx="0" dy="0" fill="#f2eda1" font-family="Arial, sans-serif" font-size="11.707317073170733" text-anchor="middle" dominant-baseline="central" transform="matrix(1,0,0,1,400,421.4634146341463)" class="pcb-silkscreen-text pcb-silkscreen-top" data-pcb-silkscreen-text-id="pcb_component_3" stroke="none" data-type="pcb_silkscreen_text" data-pcb-layer="top">LED</text><path class="pcb-silkscreen pcb-silkscreen-top" d="M 250 413.4146341463415 L 224.390243902439 413.4146341463415 L 224.390243902439 439.0243902439024 L 250 439.0243902439024 L 250 413.4146341463415 Z" fill="none" stroke="#f2eda1" stroke-width="1.4634146341463417" stroke-linecap="round" stroke-linejoin="round" data-pcb-component-id="null" data-pcb-silkscreen-path-id="pcb_silkscreen_path_5" data-type="pcb_silkscreen_path" data-pcb-layer="top"/><path class="pcb-silkscreen pcb-silkscreen-top" d="M 237.12195121951217 426.2926829268293 L 211.5121951219512 426.2926829268293 L 211.5121951219512 451.9024390243902 L 237.12195121951217 451.9024390243902 L 237.12195121951217 426.2926829268293 Z" fill="none" stroke="#f2eda1" stroke-width="1.4634146341463417" stroke-linecap="round" stroke-linejoin="round" data-pcb-component-id="null" data-pcb-silkscreen-path-id="pcb_silkscreen_path_6" data-type="pcb_silkscreen_path" data-pcb-layer="top"/><path class="pcb-silkscreen pcb-silkscreen-top" d="M 224.390243902439 439.0243902439024 L 198.78048780487805 439.0243902439024 L 198.78048780487805 464.6341463414634 L 224.390243902439 464.6341463414634 L 224.390243902439 439.0243902439024 Z" fill="none" stroke="#f2eda1" stroke-width="1.4634146341463417" stroke-linecap="round" stroke-linejoin="round" data-pcb-component-id="null" data-pcb-silkscreen-path-id="pcb_silkscreen_path_7" data-type="pcb_silkscreen_path" data-pcb-layer="top"/><path class="pcb-silkscreen pcb-silkscreen-top" d="M 237.12195121951217 426.2926829268293 L 224.390243902439 439.0243902439024" fill="none" stroke="#f2eda1" stroke-width="1.4634146341463417" stroke-linecap="round" stroke-linejoin="round" data-pcb-component-id="null" data-pcb-silkscreen-path-id="pcb_silkscreen_path_8" data-type="pcb_silkscreen_path" data-pcb-layer="top"/><path class="pcb-silkscreen pcb-silkscreen-top" d="M 224.390243902439 439.0243902439024 L 211.5121951219512 451.9024390243902" fill="none" stroke="#f2eda1" stroke-width="1.4634146341463417" stroke-linecap="round" stroke-linejoin="round" data-pcb-component-id="null" data-pcb-silkscreen-path-id="pcb_silkscreen_path_9" data-type="pcb_silkscreen_path" data-pcb-layer="top"/><path class="pcb-silkscreen pcb-silkscreen-top" d="M 262.5853658536585 388.6829268292683 L 264.1951219512195 388.6829268292683 L 264.1951219512195 400.2439024390244 L 268.29268292682923 400.2439024390244 L 268.29268292682923 401.7073170731707 L 258.3414634146342 401.7073170731707 L 258.3414634146342 400.2439024390244 L 262.5853658536585 400.2439024390244 L 262.5853658536585 388.6829268292683 Z" fill="none" stroke="#f2eda1" stroke-width="1.4634146341463417" stroke-linecap="round" stroke-linejoin="round" data-pcb-component-id="null" data-pcb-silkscreen-path-id="pcb_silkscreen_path_10" data-type="pcb_silkscreen_path" data-pcb-layer="top"/><path class="pcb-silkscreen pcb-silkscreen-top" d="M 253.07317073170734 388.5365853658536 L 253.65853658536585 388.5365853658536 L 254.24390243902437 388.6829268292683 L 254.8292682926829 388.8292682926829 L 255.2682926829268 389.1219512195122 L 255.85365853658536 389.4146341463415 L 256.1463414634146 389.8536585365854 L 256.5853658536585 390.2926829268293 L 256.8780487804878 390.7317073170732 L 257.0243902439024 391.3170731707317 L 257.17073170731703 391.9024390243902 L 257.3170731707317 392.6341463414634 L 257.3170731707317 393.3658536585366 L 257.3170731707317 394.0975609756098 L 257.17073170731703 394.6829268292683 L 257.0243902439024 395.4146341463414 L 256.8780487804878 396 L 256.5853658536585 396.4390243902439 L 256.1463414634146 396.8780487804878 L 255.85365853658536 397.3170731707317 L 255.41463414634148 397.609756097561 L 254.8292682926829 397.9024390243902 L 254.24390243902437 398.1951219512195 L 253.65853658536585 398.1951219512195 L 253.07317073170734 398.3414634146342 L 252.48780487804876 398.1951219512195 L 251.90243902439022 398.1951219512195 L 251.3170731707317 397.9024390243902 L 250.8780487804878 397.7560975609756 L 250.4390243902439 397.3170731707317 L 250 397.0243902439024 L 249.70731707317074 396.5853658536585 L 249.41463414634148 396 L 249.2682926829268 395.4146341463414 L 249.12195121951217 394.8292682926829 L 248.97560975609755 394.2439024390244 L 248.97560975609755 393.5121951219512 L 248.97560975609755 392.9268292682927 L 256.5853658536585 392.9268292682927 L 256.5853658536585 394.2439024390244 L 249.70731707317074 394.2439024390244 L 250.58536585365852 393.6585365853658 L 250.58536585365852 394.2439024390244 L 250.7317073170732 395.1219512195122 L 251.02439024390245 395.8536585365854 L 251.46341463414632 396.2926829268293 L 252.0487804878049 396.7317073170732 L 252.78048780487805 396.8780487804878 L 253.07317073170734 396.8780487804878 L 253.5121951219512 396.8780487804878 L 254.09756097560975 396.7317073170732 L 254.53658536585365 396.5853658536585 L 254.97560975609755 396 L 255.41463414634148 395.4146341463414 L 255.70731707317074 394.6829268292683 L 255.70731707317074 393.6585365853658 L 255.70731707317074 392.6341463414634 L 255.56097560975607 391.7560975609756 L 255.2682926829268 391.0243902439024 L 254.97560975609755 390.7317073170732 L 254.39024390243904 390.2926829268293 L 253.80487804878047 390 L 252.92682926829266 389.8536585365854 L 252.34146341463415 389.8536585365854 L 251.90243902439022 390 L 251.46341463414632 390.2926829268293 L 251.17073170731706 390.5853658536586 L 250.8780487804878 390.8780487804878 L 250.58536585365852 391.3170731707317 L 249.12195121951217 391.3170731707317 L 249.2682926829268 390.7317073170732 L 249.5609756097561 390.1463414634146 L 249.85365853658536 389.7073170731707 L 250.4390243902439 389.2682926829268 L 250.8780487804878 388.9756097560976 L 251.60975609756096 388.6829268292683 L 252.1951219512195 388.5365853658536 L 253.07317073170734 388.5365853658536 Z" fill="none" stroke="#f2eda1" stroke-width="1.4634146341463417" stroke-linecap="round" stroke-linejoin="round" data-pcb-component-id="null" data-pcb-silkscreen-path-id="pcb_silkscreen_path_11" data-type="pcb_silkscreen_path" data-pcb-layer="top"/><path class="pcb-silkscreen pcb-silkscreen-top" d="M 245.7560975609756 388.6829268292683 L 247.21951219512195 388.6829268292683 L 247.21951219512195 401.7073170731707 L 245.7560975609756 401.7073170731707 L 245.7560975609756 388.6829268292683 Z" fill="none" stroke="#f2eda1" stroke-width="1.4634146341463417" stroke-linecap="round" stroke-linejoin="round" data-pcb-component-id="null" data-pcb-silkscreen-path-id="pcb_silkscreen_path_12" data-type="pcb_silkscreen_path" data-pcb-layer="top"/><path class="pcb-silkscreen pcb-silkscreen-top" d="M 239.60975609756096 388.5365853658536 L 240.34146341463415 388.5365853658536 L 240.92682926829266 388.6829268292683 L 241.5121951219512 388.8292682926829 L 241.9512195121951 389.1219512195122 L 242.390243902439 389.4146341463415 L 242.8292682926829 389.8536585365854 L 243.2682926829268 390.2926829268293 L 243.5609756097561 390.7317073170732 L 243.70731707317074 391.3170731707317 L 243.85365853658536 391.9024390243902 L 244 392.6341463414634 L 244 393.3658536585366 L 244 394.0975609756098 L 243.85365853658536 394.6829268292683 L 243.70731707317074 395.4146341463414 L 243.5609756097561 396 L 243.2682926829268 396.4390243902439 L 242.8292682926829 396.8780487804878 L 242.53658536585365 397.3170731707317 L 241.9512195121951 397.609756097561 L 241.5121951219512 397.9024390243902 L 240.92682926829266 398.1951219512195 L 240.34146341463415 398.1951219512195 L 239.7560975609756 398.3414634146342 L 239.17073170731706 398.1951219512195 L 238.58536585365854 398.1951219512195 L 238 397.9024390243902 L 237.5609756097561 397.7560975609756 L 237.12195121951217 397.3170731707317 L 236.6829268292683 397.0243902439024 L 236.390243902439 396.5853658536585 L 236.09756097560975 396 L 235.9512195121951 395.4146341463414 L 235.80487804878047 394.8292682926829 L 235.65853658536585 394.2439024390244 L 235.65853658536585 393.5121951219512 L 235.65853658536585 392.9268292682927 L 243.2682926829268 392.9268292682927 L 243.2682926829268 394.2439024390244 L 236.390243902439 394.2439024390244 L 237.12195121951217 393.6585365853658 L 237.26829268292684 394.2439024390244 L 237.41463414634146 395.1219512195122 L 237.7073170731707 395.8536585365854 L 238.14634146341461 396.2926829268293 L 238.73170731707316 396.7317073170732 L 239.46341463414632 396.8780487804878 L 239.7560975609756 396.8780487804878 L 240.1951219512195 396.8780487804878 L 240.78048780487805 396.7317073170732 L 241.3658536585366 396.2926829268293 L 241.9512195121951 395.7073170731707 L 242.2439024390244 395.1219512195122 L 242.390243902439 394.0975609756098 L 242.390243902439 393.6585365853658 L 242.390243902439 392.6341463414634 L 242.2439024390244 391.7560975609756 L 241.9512195121951 391.0243902439024 L 241.65853658536585 390.7317073170732 L 241.0731707317073 390.2926829268293 L 240.48780487804876 390 L 239.60975609756096 389.8536585365854 L 239.02439024390245 389.8536585365854 L 238.58536585365854 390 L 238.14634146341461 390.2926829268293 L 237.7073170731707 390.5853658536586 L 237.5609756097561 390.8780487804878 L 237.26829268292684 391.3170731707317 L 235.65853658536585 391.3170731707317 L 235.9512195121951 390.7317073170732 L 236.2439024390244 390.1463414634146 L 236.53658536585365 389.7073170731707 L 236.97560975609755 389.2682926829268 L 237.5609756097561 388.9756097560976 L 238.29268292682926 388.6829268292683 L 238.8780487804878 388.5365853658536 L 239.60975609756096 388.5365853658536 Z" fill="none" stroke="#f2eda1" stroke-width="1.4634146341463417" stroke-linecap="round" stroke-linejoin="round" data-pcb-component-id="null" data-pcb-silkscreen-path-id="pcb_silkscreen_path_13" data-type="pcb_silkscreen_path" data-pcb-layer="top"/><path class="pcb-silkscreen pcb-silkscreen-top" d="M 232.4390243902439 388.6829268292683 L 234.04878048780486 388.6829268292683 L 234.04878048780486 398.0487804878049 L 232.4390243902439 398.0487804878049 L 232.4390243902439 396.7317073170732 L 232.29268292682926 397.0243902439024 L 232 397.3170731707317 L 231.7073170731707 397.609756097561 L 231.41463414634146 397.9024390243902 L 230.97560975609755 398.0487804878049 L 230.68292682926827 398.1951219512195 L 230.2439024390244 398.1951219512195 L 229.80487804878047 398.3414634146342 L 229.5121951219512 398.3414634146342 L 229.21951219512195 398.1951219512195 L 228.6341463414634 398.0487804878049 L 228.1951219512195 397.7560975609756 L 227.90243902439025 397.609756097561 L 227.609756097561 397.3170731707317 L 227.3170731707317 396.7317073170732 L 227.17073170731706 396.4390243902439 L 227.02439024390242 396.7317073170732 L 226.58536585365854 397.1707317073171 L 226.14634146341461 397.609756097561 L 225.7073170731707 397.9024390243902 L 225.1219512195122 398.1951219512195 L 224.53658536585365 398.3414634146342 L 224.09756097560975 398.3414634146342 L 223.65853658536582 398.1951219512195 L 222.9268292682927 398.0487804878049 L 222.1951219512195 397.7560975609756 L 221.609756097561 397.1707317073171 L 221.31707317073167 396.4390243902439 L 221.02439024390242 395.7073170731707 L 221.02439024390242 395.1219512195122 L 221.02439024390242 388.6829268292683 L 222.6341463414634 388.6829268292683 L 222.6341463414634 394.8292682926829 L 222.78048780487805 395.4146341463414 L 222.9268292682927 396 L 223.21951219512195 396.2926829268293 L 223.5121951219512 396.5853658536585 L 224.09756097560975 396.8780487804878 L 224.68292682926827 396.8780487804878 L 225.26829268292684 396.8780487804878 L 225.7073170731707 396.5853658536585 L 226.14634146341461 396.2926829268293 L 226.4390243902439 395.8536585365854 L 226.73170731707316 395.2682926829268 L 226.73170731707316 394.6829268292683 L 226.73170731707316 388.6829268292683 L 228.34146341463412 388.6829268292683 L 228.34146341463412 394.9756097560976 L 228.48780487804876 395.7073170731707 L 228.78048780487805 396.1463414634146 L 229.0731707317073 396.5853658536585 L 229.5121951219512 396.7317073170732 L 229.95121951219514 396.8780487804878 L 230.2439024390244 396.8780487804878 L 230.8292682926829 396.8780487804878 L 231.41463414634146 396.5853658536585 L 231.85365853658536 396.2926829268293 L 232.14634146341461 395.7073170731707 L 232.4390243902439 395.2682926829268 L 232.4390243902439 394.5365853658536 L 232.4390243902439 388.6829268292683 Z" fill="none" stroke="#f2eda1" stroke-width="1.4634146341463417" stroke-linecap="round" stroke-linejoin="round" data-pcb-component-id="null" data-pcb-silkscreen-path-id="pcb_silkscreen_path_14" data-type="pcb_silkscreen_path" data-pcb-layer="top"/><path class="pcb-silkscreen pcb-silkscreen-top" d="M 215.17073170731706 388.5365853658536 L 215.7560975609756 388.5365853658536 L 216.4878048780488 388.6829268292683 L 216.9268292682927 388.8292682926829 L 217.5121951219512 389.1219512195122 L 217.9512195121951 389.4146341463415 L 218.390243902439 389.8536585365854 L 218.68292682926827 390.2926829268293 L 218.97560975609755 390.7317073170732 L 219.26829268292684 391.3170731707317 L 219.41463414634146 391.9024390243902 L 219.5609756097561 392.6341463414634 L 219.5609756097561 393.3658536585366 L 219.5609756097561 394.0975609756098 L 219.41463414634146 394.6829268292683 L 219.26829268292684 395.4146341463414 L 218.97560975609755 396 L 218.68292682926827 396.4390243902439 L 218.390243902439 396.8780487804878 L 217.9512195121951 397.3170731707317 L 217.5121951219512 397.609756097561 L 217.0731707317073 397.9024390243902 L 216.4878048780488 398.1951219512195 L 215.90243902439025 398.1951219512195 L 215.3170731707317 398.3414634146342 L 214.58536585365854 398.1951219512195 L 213.99999999999997 398.1951219512195 L 213.5609756097561 397.9024390243902 L 212.97560975609755 397.7560975609756 L 212.53658536585365 397.3170731707317 L 212.2439024390244 397.0243902439024 L 211.9512195121951 396.5853658536585 L 211.65853658536585 396 L 211.36585365853657 395.4146341463414 L 211.21951219512195 394.8292682926829 L 211.0731707317073 394.2439024390244 L 211.0731707317073 393.5121951219512 L 211.0731707317073 392.9268292682927 L 218.68292682926827 392.9268292682927 L 218.68292682926827 394.2439024390244 L 211.9512195121951 394.2439024390244 L 212.68292682926827 393.6585365853658 L 212.68292682926827 394.2439024390244 L 212.82926829268294 395.1219512195122 L 213.2682926829268 395.8536585365854 L 213.7073170731707 396.2926829268293 L 214.29268292682926 396.7317073170732 L 214.8780487804878 396.8780487804878 L 215.3170731707317 396.8780487804878 L 215.60975609756096 396.8780487804878 L 216.34146341463412 396.7317073170732 L 216.9268292682927 396.2926829268293 L 217.36585365853657 395.7073170731707 L 217.65853658536582 395.1219512195122 L 217.9512195121951 394.0975609756098 L 217.9512195121951 393.6585365853658 L 217.9512195121951 392.6341463414634 L 217.8048780487805 391.7560975609756 L 217.36585365853657 391.0243902439024 L 217.21951219512195 390.7317073170732 L 216.6341463414634 390.2926829268293 L 216.34146341463412 390.1463414634146 L 215.60975609756096 389.8536585365854 L 215.17073170731706 389.8536585365854 L 214.58536585365854 389.8536585365854 L 213.99999999999997 390 L 213.5609756097561 390.2926829268293 L 213.2682926829268 390.5853658536586 L 212.97560975609755 390.8780487804878 L 212.82926829268294 391.3170731707317 L 211.21951219512195 391.3170731707317 L 211.36585365853657 390.7317073170732 L 211.65853658536585 390.1463414634146 L 212.09756097560975 389.7073170731707 L 212.53658536585365 389.2682926829268 L 213.1219512195122 388.9756097560976 L 213.7073170731707 388.6829268292683 L 214.4390243902439 388.5365853658536 L 215.17073170731706 388.5365853658536 Z" fill="none" stroke="#f2eda1" stroke-width="1.4634146341463417" stroke-linecap="round" stroke-linejoin="round" data-pcb-component-id="null" data-pcb-silkscreen-path-id="pcb_silkscreen_path_15" data-type="pcb_silkscreen_path" data-pcb-layer="top"/><path class="pcb-silkscreen pcb-silkscreen-top" d="M 206.390243902439 388.5365853658536 L 207.1219512195122 388.5365853658536 L 207.5609756097561 388.6829268292683 L 207.99999999999997 388.8292682926829 L 208.4390243902439 389.1219512195122 L 208.73170731707316 389.4146341463415 L 208.8780487804878 389.8536585365854 L 209.02439024390242 390.4390243902439 L 209.02439024390242 391.0243902439024 L 209.02439024390242 396.7317073170732 L 210.4878048780488 396.7317073170732 L 210.4878048780488 398.0487804878049 L 209.02439024390242 398.0487804878049 L 209.02439024390242 400.6829268292683 L 207.41463414634146 400.6829268292683 L 207.41463414634146 398.0487804878049 L 205.65853658536585 398.0487804878049 L 205.65853658536585 396.7317073170732 L 207.41463414634146 396.7317073170732 L 207.41463414634146 391.0243902439024 L 207.2682926829268 390.4390243902439 L 207.1219512195122 390 L 206.68292682926827 389.8536585365854 L 206.390243902439 389.8536585365854 L 206.09756097560975 389.7073170731707 L 205.65853658536585 389.8536585365854 L 205.65853658536585 388.5365853658536 L 205.8048780487805 388.5365853658536 L 206.09756097560975 388.5365853658536 L 206.390243902439 388.5365853658536 Z" fill="none" stroke="#f2eda1" stroke-width="1.4634146341463417" stroke-linecap="round" stroke-linejoin="round" data-pcb-component-id="null" data-pcb-silkscreen-path-id="pcb_silkscreen_path_16" data-type="pcb_silkscreen_path" data-pcb-layer="top"/><path class="pcb-silkscreen pcb-silkscreen-top" d="M 202.29268292682926 388.6829268292683 L 203.90243902439022 388.6829268292683 L 203.90243902439022 398.0487804878049 L 202.29268292682926 398.0487804878049 L 202.29268292682926 396.4390243902439 L 202.14634146341464 396.8780487804878 L 201.7073170731707 397.609756097561 L 201.1219512195122 398.0487804878049 L 200.53658536585365 398.1951219512195 L 200.09756097560975 398.3414634146342 L 199.8048780487805 398.3414634146342 L 199.5121951219512 398.1951219512195 L 199.5121951219512 396.7317073170732 L 199.8048780487805 396.7317073170732 L 200.09756097560975 396.7317073170732 L 200.53658536585365 396.7317073170732 L 201.1219512195122 396.5853658536585 L 201.56097560975607 396.2926829268293 L 202 396 L 202.14634146341464 395.4146341463414 L 202.29268292682926 394.8292682926829 L 202.29268292682926 394.5365853658536 L 202.29268292682926 388.6829268292683 Z" fill="none" stroke="#f2eda1" stroke-width="1.4634146341463417" stroke-linecap="round" stroke-linejoin="round" data-pcb-component-id="null" data-pcb-silkscreen-path-id="pcb_silkscreen_path_17" data-type="pcb_silkscreen_path" data-pcb-layer="top"/><path class="pcb-silkscreen pcb-silkscreen-top" d="M 194.24390243902437 388.5365853658536 L 194.8292682926829 388.5365853658536 L 195.41463414634146 388.6829268292683 L 196 388.8292682926829 L 196.58536585365852 389.1219512195122 L 197.02439024390242 389.4146341463415 L 197.46341463414635 389.8536585365854 L 197.7560975609756 390.2926829268293 L 198.04878048780486 390.7317073170732 L 198.34146341463415 391.3170731707317 L 198.4878048780488 392.0487804878049 L 198.6341463414634 392.6341463414634 L 198.6341463414634 393.3658536585366 L 198.6341463414634 394.0975609756098 L 198.4878048780488 394.8292682926829 L 198.34146341463415 395.4146341463414 L 198.04878048780486 396 L 197.7560975609756 396.5853658536585 L 197.46341463414635 397.0243902439024 L 197.02439024390242 397.3170731707317 L 196.58536585365852 397.7560975609756 L 196 397.9024390243902 L 195.41463414634146 398.1951219512195 L 194.8292682926829 398.1951219512195 L 194.24390243902437 398.3414634146342 L 193.65853658536585 398.1951219512195 L 193.0731707317073 398.1951219512195 L 192.48780487804876 397.9024390243902 L 191.90243902439022 397.7560975609756 L 191.46341463414635 397.3170731707317 L 191.02439024390245 397.0243902439024 L 190.73170731707316 396.5853658536585 L 190.4390243902439 396 L 190.14634146341461 395.4146341463414 L 190 394.8292682926829 L 189.85365853658536 394.0975609756098 L 189.85365853658536 393.3658536585366 L 189.85365853658536 392.6341463414634 L 190 391.9024390243902 L 190.14634146341461 391.3170731707317 L 190.4390243902439 390.7317073170732 L 190.73170731707316 390.2926829268293 L 191.02439024390245 389.8536585365854 L 191.46341463414635 389.4146341463415 L 191.90243902439022 389.1219512195122 L 192.48780487804876 388.8292682926829 L 193.0731707317073 388.6829268292683 L 193.65853658536585 388.5365853658536 L 194.24390243902437 388.5365853658536 Z" fill="none" stroke="#f2eda1" stroke-width="1.4634146341463417" stroke-linecap="round" stroke-linejoin="round" data-pcb-component-id="null" data-pcb-silkscreen-path-id="pcb_silkscreen_path_18" data-type="pcb_silkscreen_path" data-pcb-layer="top"/><path class="pcb-silkscreen pcb-silkscreen-top" d="M 194.24390243902437 389.8536585365854 L 193.8048780487805 389.8536585365854 L 193.0731707317073 390.1463414634146 L 192.48780487804876 390.5853658536586 L 192.04878048780486 391.1707317073171 L 191.7560975609756 391.9024390243902 L 191.46341463414635 392.780487804878 L 191.46341463414635 393.3658536585366 L 191.46341463414635 393.9512195121951 L 191.7560975609756 394.8292682926829 L 192.04878048780486 395.7073170731707 L 192.48780487804876 396.2926829268293 L 193.0731707317073 396.7317073170732 L 193.8048780487805 396.8780487804878 L 194.24390243902437 396.8780487804878 L 194.6829268292683 396.8780487804878 L 195.41463414634146 396.5853658536585 L 196 396.2926829268293 L 196.4390243902439 395.7073170731707 L 196.8780487804878 394.8292682926829 L 197.02439024390242 393.9512195121951 L 197.02439024390242 393.3658536585366 L 197.02439024390242 392.780487804878 L 196.8780487804878 391.9024390243902 L 196.4390243902439 391.1707317073171 L 196 390.5853658536586 L 195.41463414634146 390.1463414634146 L 194.6829268292683 389.8536585365854 L 194.24390243902437 389.8536585365854 Z" fill="none" stroke="#f2eda1" stroke-width="1.4634146341463417" stroke-linecap="round" stroke-linejoin="round" data-pcb-component-id="null" data-pcb-silkscreen-path-id="pcb_silkscreen_path_19" data-type="pcb_silkscreen_path" data-pcb-layer="top"/><path class="pcb-silkscreen pcb-silkscreen-top" d="M 186.78048780487805 388.6829268292683 L 188.24390243902437 388.6829268292683 L 188.24390243902437 398.0487804878049 L 186.78048780487805 398.0487804878049 L 186.78048780487805 396.7317073170732 L 186.48780487804876 397.0243902439024 L 185.90243902439025 397.609756097561 L 185.17073170731706 398.0487804878049 L 184.29268292682926 398.1951219512195 L 183.70731707317074 398.3414634146342 L 182.97560975609755 398.1951219512195 L 181.80487804878047 397.7560975609756 L 180.92682926829266 396.8780487804878 L 180.48780487804876 395.5609756097561 L 180.48780487804876 394.8292682926829 L 180.48780487804876 388.6829268292683 L 182.09756097560975 388.6829268292683 L 182.09756097560975 394.5365853658536 L 182.2439024390244 395.5609756097561 L 182.6829268292683 396.2926829268293 L 183.2682926829268 396.7317073170732 L 183.70731707317074 396.8780487804878 L 184.29268292682926 396.8780487804878 L 184.8780487804878 396.8780487804878 L 185.60975609756096 396.5853658536585 L 186.04878048780486 396.1463414634146 L 186.34146341463415 395.5609756097561 L 186.6341463414634 394.9756097560976 L 186.78048780487805 394.2439024390244 L 186.78048780487805 388.6829268292683 Z" fill="none" stroke="#f2eda1" stroke-width="1.4634146341463417" stroke-linecap="round" stroke-linejoin="round" data-pcb-component-id="null" data-pcb-silkscreen-path-id="pcb_silkscreen_path_20" data-type="pcb_silkscreen_path" data-pcb-layer="top"/><g data-type="pcb_plated_hole" data-pcb-layer="through"><circle class="pcb-hole-outer" fill="rgb(200, 52, 52)" cx="381.4146341463415" cy="453.6585365853658" r="13.170731707317074" data-type="pcb_plated_hole" data-pcb-layer="top"/><circle class="pcb-hole-inner" fill="#FF26E2" cx="381.4146341463415" cy="453.6585365853658" r="7.317073170731708" data-type="pcb_plated_hole_drill" data-pcb-layer="drill"/></g><g data-type="pcb_plated_hole" data-pcb-layer="through"><circle class="pcb-hole-outer" fill="rgb(200, 52, 52)" cx="418.5853658536585" cy="453.6585365853658" r="13.170731707317074" data-type="pcb_plated_hole" data-pcb-layer="top"/><circle class="pcb-hole-inner" fill="#FF26E2" cx="418.5853658536585" cy="453.6585365853658" r="7.317073170731708" data-type="pcb_plated_hole_drill" data-pcb-layer="drill"/></g><g data-type="pcb_via" data-pcb-layer="through"><circle class="pcb-hole-outer" fill="rgb(200, 52, 52)" cx="546.3414634146341" cy="406.82926829268297" r="2.1951219512195124" data-type="pcb_via" data-pcb-layer="top"/><circle class="pcb-hole-inner" fill="#FF26E2" cx="546.3414634146341" cy="406.82926829268297" r="1.4634146341463417" data-type="pcb_via" data-pcb-layer="drill"/></g><g data-type="pcb_via" data-pcb-layer="through"><circle class="pcb-hole-outer" fill="rgb(200, 52, 52)" cx="569.7560975609756" cy="406.82926829268297" r="2.1951219512195124" data-type="pcb_via" data-pcb-layer="top"/><circle class="pcb-hole-inner" fill="#FF26E2" cx="569.7560975609756" cy="406.82926829268297" r="1.4634146341463417" data-type="pcb_via" data-pcb-layer="drill"/></g><g data-type="pcb_via" data-pcb-layer="through"><circle class="pcb-hole-outer" fill="rgb(200, 52, 52)" cx="429.2682926829268" cy="430.2439024390244" r="2.1951219512195124" data-type="pcb_via" data-pcb-layer="top"/><circle class="pcb-hole-inner" fill="#FF26E2" cx="429.2682926829268" cy="430.2439024390244" r="1.4634146341463417" data-type="pcb_via" data-pcb-layer="drill"/></g><g data-type="pcb_via" data-pcb-layer="through"><circle class="pcb-hole-outer" fill="rgb(200, 52, 52)" cx="559.5853658536586" cy="334.9390243902439" r="2.1951219512195124" data-type="pcb_via" data-pcb-layer="top"/><circle class="pcb-hole-inner" fill="#FF26E2" cx="559.5853658536586" cy="334.9390243902439" r="1.4634146341463417" data-type="pcb_via" data-pcb-layer="drill"/></g><circle class="pcb-hole" cx="400" cy="541.4634146341464" r="18.29268292682927" fill="#FF26E2" data-type="pcb_hole" data-pcb-layer="drill"/></svg>