<svg xmlns="http://www.w3.org/2000/svg" width="800" height="600" data-software-used-string="@tscircuit/core@0.0.1112"><style></style><rect class="boundary" x="0" y="0" fill="#000" width="800" height="600" data-type="pcb_background" data-pcb-layer="global"/><rect class="pcb-boundary" fill="none" stroke="#fff" stroke-width="0.3" x="86.04651162790697" y="13.953488372093034" width="627.9069767441861" height="572.0930232558139" data-type="pcb_boundary" data-pcb-layer="global"/><path class="pcb-board" d="M 400 586.046511627907 L 420.93023255813955 579.0697674418604 L 432.09302325581393 569.3023255813954 L 439.06976744186045 555.3488372093024 L 441.8604651162791 537.2093023255813 L 441.8604651162791 516.2790697674419 L 439.2093023255814 502.6046511627907 L 463.7674418604651 524.9302325581396 L 494.04651162790697 542.5116279069767 L 528.9302325581396 552.8372093023256 L 566.1860465116279 554.3720930232558 L 603.8604651162791 546.5581395348838 L 639.4418604651163 529.6744186046512 L 670 504.8372093023256 L 693.7209302325582 473.5813953488372 L 708.7906976744187 437.72093023255815 L 713.953488372093 399.34883720930236 L 708.7906976744187 360.13953488372096 L 693.7209302325582 321.34883720930236 L 670 283.6744186046512 L 639.4418604651163 247.53488372093025 L 603.8604651162791 213.06976744186048 L 566.1860465116279 179.8604651162791 L 528.9302325581396 147.90697674418607 L 494.04651162790697 117.2093023255814 L 463.7674418604651 88.04651162790697 L 439.2093023255814 60.69767441860466 L 421.2093023255814 36.41860465116281 L 409.2093023255814 20.93023255813955 L 405.5813953488372 16.74418604651163 L 402.7906976744186 14.651162790697697 L 400 13.953488372093034 L 397.2093023255814 14.651162790697697 L 394.4186046511628 16.74418604651163 L 390.7906976744186 20.93023255813955 L 378.7906976744186 36.41860465116281 L 360.7906976744186 60.69767441860466 L 336.2325581395349 88.04651162790697 L 305.95348837209303 117.2093023255814 L 271.06976744186045 147.90697674418607 L 233.81395348837208 179.8604651162791 L 196.13953488372093 213.06976744186048 L 160.5581395348837 247.53488372093025 L 130 283.6744186046512 L 106.27906976744185 321.34883720930236 L 91.2093023255814 360.13953488372096 L 86.04651162790697 399.34883720930236 L 91.2093023255814 437.72093023255815 L 106.27906976744185 473.5813953488372 L 130 504.8372093023256 L 160.5581395348837 529.6744186046512 L 196.13953488372093 546.5581395348838 L 233.81395348837208 554.3720930232558 L 271.06976744186045 552.8372093023256 L 305.95348837209303 542.5116279069767 L 336.2325581395349 524.9302325581396 L 360.7906976744186 502.6046511627907 L 358.1395348837209 516.2790697674419 L 358.1395348837209 537.2093023255813 L 360.93023255813955 555.3488372093024 L 367.90697674418607 569.3023255813954 L 379.06976744186045 579.0697674418604 Z" fill="none" stroke="rgba(255, 255, 255, 0.5)" stroke-width="1.3953488372093024" data-type="pcb_board" data-pcb-layer="board"/><path class="pcb-trace" stroke="rgb(77, 127, 196)" fill="none" d="M 539.5348837209302 415.81395348837214 L 539.5348837209302 415.81395348837214" stroke-width="2.093023255813953" stroke-linecap="round" stroke-linejoin="round" shape-rendering="crispEdges" data-type="pcb_trace" data-pcb-layer="bottom"/><path class="pcb-trace" stroke="rgb(77, 127, 196)" fill="none" d="M 539.5348837209302 415.81395348837214 L 560.4523380047176 415.81395348837214" stroke-width="2.093023255813953" stroke-linecap="round" stroke-linejoin="round" shape-rendering="crispEdges" data-type="pcb_trace" data-pcb-layer="bottom"/><path class="pcb-trace" stroke="rgb(77, 127, 196)" fill="none" d="M 560.4523380047176 415.81395348837214 L 560.4523380047176 415.81395348837214" stroke-width="2.093023255813953" stroke-linecap="round" stroke-linejoin="round" shape-rendering="crispEdges" data-type="pcb_trace" data-pcb-layer="bottom"/><path class="pcb-trace" stroke="rgb(77, 127, 196)" fill="none" d="M 560.4523380047176 415.81395348837214 L 561.8604651162791 415.81395348837214" stroke-width="2.093023255813953" stroke-linecap="round" stroke-linejoin="round" shape-rendering="crispEdges" data-type="pcb_trace" data-pcb-layer="bottom"/><path class="pcb-trace" stroke="rgb(77, 127, 196)" fill="none" d="M 561.8604651162791 415.81395348837214 L 561.8604651162791 415.81395348837214" stroke-width="2.093023255813953" stroke-linecap="round" stroke-linejoin="round" shape-rendering="crispEdges" data-type="pcb_trace" data-pcb-layer="bottom"/><path class="pcb-trace" stroke="rgb(77, 127, 196)" fill="none" d="M 427.90697674418607 438.13953488372096 L 427.90697674418607 438.13953488372096" stroke-width="2.093023255813953" stroke-linecap="round" stroke-linejoin="round" shape-rendering="crispEdges" data-type="pcb_trace" data-pcb-layer="bottom"/><path class="pcb-trace" stroke="rgb(77, 127, 196)" fill="none" d="M 427.90697674418607 438.13953488372096 L 457.8179566183972 438.13953488372096" stroke-width="2.093023255813953" stroke-linecap="round" stroke-linejoin="round" shape-rendering="crispEdges" data-type="pcb_trace" data-pcb-layer="bottom"/><path class="pcb-trace" stroke="rgb(77, 127, 196)" fill="none" d="M 457.8179566183972 438.13953488372096 L 550.1248115342255 345.8326799678926" stroke-width="2.093023255813953" stroke-linecap="round" stroke-linejoin="round" shape-rendering="crispEdges" data-type="pcb_trace" data-pcb-layer="bottom"/><path class="pcb-trace" stroke="rgb(77, 127, 196)" fill="none" d="M 550.1248115342255 345.8326799678926 L 552.1627906976744 347.2674418604651" stroke-width="2.093023255813953" stroke-linecap="round" stroke-linejoin="round" shape-rendering="crispEdges" data-type="pcb_trace" data-pcb-layer="bottom"/><path class="pcb-trace" stroke="rgb(77, 127, 196)" fill="none" d="M 552.1627906976744 347.2674418604651 L 552.1627906976744 347.2674418604651" stroke-width="2.093023255813953" stroke-linecap="round" stroke-linejoin="round" shape-rendering="crispEdges" data-type="pcb_trace" data-pcb-layer="bottom"/><path class="pcb-silkscreen pcb-silkscreen-bottom" d="M 424.4186046511628 296.51162790697674 L 400 296.51162790697674 L 400 320.93023255813955 L 424.4186046511628 320.93023255813955 L 424.4186046511628 296.51162790697674 Z" fill="none" stroke="#5da9e9" stroke-width="1.3953488372093024" stroke-linecap="round" stroke-linejoin="round" data-pcb-component-id="null" data-pcb-silkscreen-path-id="pcb_silkscreen_path_5" data-type="pcb_silkscreen_path" data-pcb-layer="bottom"/><path class="pcb-silkscreen pcb-silkscreen-bottom" d="M 412.13953488372096 308.7906976744186 L 387.72093023255815 308.7906976744186 L 387.72093023255815 333.2093023255814 L 412.13953488372096 333.2093023255814 L 412.13953488372096 308.7906976744186 Z" fill="none" stroke="#5da9e9" stroke-width="1.3953488372093024" stroke-linecap="round" stroke-linejoin="round" data-pcb-component-id="null" data-pcb-silkscreen-path-id="pcb_silkscreen_path_6" data-type="pcb_silkscreen_path" data-pcb-layer="bottom"/><path class="pcb-silkscreen pcb-silkscreen-bottom" d="M 400 320.93023255813955 L 375.5813953488372 320.93023255813955 L 375.5813953488372 345.34883720930236 L 400 345.34883720930236 L 400 320.93023255813955 Z" fill="none" stroke="#5da9e9" stroke-width="1.3953488372093024" stroke-linecap="round" stroke-linejoin="round" data-pcb-component-id="null" data-pcb-silkscreen-path-id="pcb_silkscreen_path_7" data-type="pcb_silkscreen_path" data-pcb-layer="bottom"/><path class="pcb-silkscreen pcb-silkscreen-bottom" d="M 412.13953488372096 308.7906976744186 L 400 320.93023255813955" fill="none" stroke="#5da9e9" stroke-width="1.3953488372093024" stroke-linecap="round" stroke-linejoin="round" data-pcb-component-id="null" data-pcb-silkscreen-path-id="pcb_silkscreen_path_8" data-type="pcb_silkscreen_path" data-pcb-layer="bottom"/><path class="pcb-silkscreen pcb-silkscreen-bottom" d="M 400 320.93023255813955 L 387.72093023255815 333.2093023255814" fill="none" stroke="#5da9e9" stroke-width="1.3953488372093024" stroke-linecap="round" stroke-linejoin="round" data-pcb-component-id="null" data-pcb-silkscreen-path-id="pcb_silkscreen_path_9" data-type="pcb_silkscreen_path" data-pcb-layer="bottom"/><path class="pcb-silkscreen pcb-silkscreen-bottom" d="M 436.4186046511628 272.93023255813955 L 437.95348837209303 272.93023255813955 L 437.95348837209303 283.95348837209303 L 441.8604651162791 283.95348837209303 L 441.8604651162791 285.34883720930236 L 432.37209302325584 285.34883720930236 L 432.37209302325584 283.95348837209303 L 436.4186046511628 283.95348837209303 L 436.4186046511628 272.93023255813955 Z" fill="none" stroke="#5da9e9" stroke-width="1.3953488372093024" stroke-linecap="round" stroke-linejoin="round" data-pcb-component-id="null" data-pcb-silkscreen-path-id="pcb_silkscreen_path_10" data-type="pcb_silkscreen_path" data-pcb-layer="bottom"/><path class="pcb-silkscreen pcb-silkscreen-bottom" d="M 427.3488372093023 272.7906976744186 L 427.90697674418607 272.7906976744186 L 428.4651162790698 272.93023255813955 L 429.0232558139535 273.06976744186045 L 429.4418604651163 273.34883720930236 L 430 273.6279069767442 L 430.27906976744185 274.04651162790697 L 430.69767441860466 274.4651162790698 L 430.9767441860465 274.8837209302326 L 431.1162790697674 275.4418604651163 L 431.25581395348837 276 L 431.3953488372093 276.69767441860466 L 431.3953488372093 277.3953488372093 L 431.3953488372093 278.093023255814 L 431.25581395348837 278.6511627906977 L 431.1162790697674 279.34883720930236 L 430.9767441860465 279.90697674418607 L 430.69767441860466 280.3255813953489 L 430.27906976744185 280.74418604651163 L 430 281.16279069767444 L 429.5813953488372 281.4418604651163 L 429.0232558139535 281.72093023255815 L 428.4651162790698 282 L 427.90697674418607 282 L 427.3488372093023 282.13953488372096 L 426.7906976744186 282 L 426.2325581395349 282 L 425.6744186046512 281.72093023255815 L 425.25581395348837 281.58139534883725 L 424.83720930232556 281.16279069767444 L 424.4186046511628 280.8837209302326 L 424.13953488372096 280.4651162790698 L 423.86046511627904 279.90697674418607 L 423.72093023255815 279.34883720930236 L 423.5813953488372 278.79069767441865 L 423.4418604651163 278.2325581395349 L 423.4418604651163 277.5348837209302 L 423.4418604651163 276.9767441860465 L 430.69767441860466 276.9767441860465 L 430.69767441860466 278.2325581395349 L 424.13953488372096 278.2325581395349 L 424.9767441860465 277.6744186046512 L 424.9767441860465 278.2325581395349 L 425.1162790697674 279.06976744186045 L 425.3953488372093 279.7674418604651 L 425.8139534883721 280.1860465116279 L 426.3720930232558 280.60465116279073 L 427.06976744186045 280.74418604651163 L 427.3488372093023 280.74418604651163 L 427.7674418604651 280.74418604651163 L 428.3255813953488 280.60465116279073 L 428.74418604651163 280.4651162790698 L 429.16279069767444 279.90697674418607 L 429.5813953488372 279.34883720930236 L 429.8604651162791 278.6511627906977 L 429.8604651162791 277.6744186046512 L 429.8604651162791 276.69767441860466 L 429.72093023255815 275.8604651162791 L 429.4418604651163 275.16279069767444 L 429.16279069767444 274.8837209302326 L 428.6046511627907 274.4651162790698 L 428.04651162790697 274.1860465116279 L 427.2093023255814 274.04651162790697 L 426.6511627906977 274.04651162790697 L 426.2325581395349 274.1860465116279 L 425.8139534883721 274.4651162790698 L 425.5348837209302 274.74418604651163 L 425.25581395348837 275.0232558139535 L 424.9767441860465 275.4418604651163 L 423.5813953488372 275.4418604651163 L 423.72093023255815 274.8837209302326 L 424 274.3255813953489 L 424.27906976744185 273.90697674418607 L 424.83720930232556 273.48837209302326 L 425.25581395348837 273.2093023255814 L 425.95348837209303 272.93023255813955 L 426.51162790697674 272.7906976744186 L 427.3488372093023 272.7906976744186 Z" fill="none" stroke="#5da9e9" stroke-width="1.3953488372093024" stroke-linecap="round" stroke-linejoin="round" data-pcb-component-id="null" data-pcb-silkscreen-path-id="pcb_silkscreen_path_11" data-type="pcb_silkscreen_path" data-pcb-layer="bottom"/><path class="pcb-silkscreen pcb-silkscreen-bottom" d="M 420.37209302325584 272.93023255813955 L 421.7674418604651 272.93023255813955 L 421.7674418604651 285.34883720930236 L 420.37209302325584 285.34883720930236 L 420.37209302325584 272.93023255813955 Z" fill="none" stroke="#5da9e9" stroke-width="1.3953488372093024" stroke-linecap="round" stroke-linejoin="round" data-pcb-component-id="null" data-pcb-silkscreen-path-id="pcb_silkscreen_path_12" data-type="pcb_silkscreen_path" data-pcb-layer="bottom"/><path class="pcb-silkscreen pcb-silkscreen-bottom" d="M 414.51162790697674 272.7906976744186 L 415.2093023255814 272.7906976744186 L 415.7674418604651 272.93023255813955 L 416.3255813953488 273.06976744186045 L 416.74418604651163 273.34883720930236 L 417.16279069767444 273.6279069767442 L 417.5813953488372 274.04651162790697 L 418 274.4651162790698 L 418.27906976744185 274.8837209302326 L 418.4186046511628 275.4418604651163 L 418.5581395348837 276 L 418.69767441860466 276.69767441860466 L 418.69767441860466 277.3953488372093 L 418.69767441860466 278.093023255814 L 418.5581395348837 278.6511627906977 L 418.4186046511628 279.34883720930236 L 418.27906976744185 279.90697674418607 L 418 280.3255813953489 L 417.5813953488372 280.74418604651163 L 417.30232558139534 281.16279069767444 L 416.74418604651163 281.4418604651163 L 416.3255813953488 281.72093023255815 L 415.7674418604651 282 L 415.2093023255814 282 L 414.6511627906977 282.13953488372096 L 414.09302325581393 282 L 413.5348837209302 282 L 412.9767441860465 281.72093023255815 L 412.5581395348837 281.58139534883725 L 412.13953488372096 281.16279069767444 L 411.72093023255815 280.8837209302326 L 411.4418604651163 280.4651162790698 L 411.16279069767444 279.90697674418607 L 411.0232558139535 279.34883720930236 L 410.8837209302326 278.79069767441865 L 410.74418604651163 278.2325581395349 L 410.74418604651163 277.5348837209302 L 410.74418604651163 276.9767441860465 L 418 276.9767441860465 L 418 278.2325581395349 L 411.4418604651163 278.2325581395349 L 412.13953488372096 277.6744186046512 L 412.27906976744185 278.2325581395349 L 412.4186046511628 279.06976744186045 L 412.69767441860466 279.7674418604651 L 413.1162790697674 280.1860465116279 L 413.6744186046512 280.60465116279073 L 414.37209302325584 280.74418604651163 L 414.6511627906977 280.74418604651163 L 415.06976744186045 280.74418604651163 L 415.6279069767442 280.60465116279073 L 416.1860465116279 280.1860465116279 L 416.74418604651163 279.6279069767442 L 417.0232558139535 279.06976744186045 L 417.16279069767444 278.093023255814 L 417.16279069767444 277.6744186046512 L 417.16279069767444 276.69767441860466 L 417.0232558139535 275.8604651162791 L 416.74418604651163 275.16279069767444 L 416.4651162790698 274.8837209302326 L 415.90697674418607 274.4651162790698 L 415.3488372093023 274.1860465116279 L 414.51162790697674 274.04651162790697 L 413.95348837209303 274.04651162790697 L 413.5348837209302 274.1860465116279 L 413.1162790697674 274.4651162790698 L 412.69767441860466 274.74418604651163 L 412.5581395348837 275.0232558139535 L 412.27906976744185 275.4418604651163 L 410.74418604651163 275.4418604651163 L 411.0232558139535 274.8837209302326 L 411.30232558139534 274.3255813953489 L 411.5813953488372 273.90697674418607 L 412 273.48837209302326 L 412.5581395348837 273.2093023255814 L 413.25581395348837 272.93023255813955 L 413.8139534883721 272.7906976744186 L 414.51162790697674 272.7906976744186 Z" fill="none" stroke="#5da9e9" stroke-width="1.3953488372093024" stroke-linecap="round" stroke-linejoin="round" data-pcb-component-id="null" data-pcb-silkscreen-path-id="pcb_silkscreen_path_13" data-type="pcb_silkscreen_path" data-pcb-layer="bottom"/><path class="pcb-silkscreen pcb-silkscreen-bottom" d="M 407.6744186046512 272.93023255813955 L 409.2093023255814 272.93023255813955 L 409.2093023255814 281.8604651162791 L 407.6744186046512 281.8604651162791 L 407.6744186046512 280.60465116279073 L 407.5348837209302 280.8837209302326 L 407.25581395348837 281.16279069767444 L 406.9767441860465 281.4418604651163 L 406.69767441860466 281.72093023255815 L 406.27906976744185 281.8604651162791 L 406 282 L 405.5813953488372 282 L 405.16279069767444 282.13953488372096 L 404.8837209302326 282.13953488372096 L 404.6046511627907 282 L 404.04651162790697 281.8604651162791 L 403.6279069767442 281.58139534883725 L 403.3488372093023 281.4418604651163 L 403.06976744186045 281.16279069767444 L 402.7906976744186 280.60465116279073 L 402.6511627906977 280.3255813953489 L 402.51162790697674 280.60465116279073 L 402.09302325581393 281.0232558139535 L 401.6744186046512 281.4418604651163 L 401.25581395348837 281.72093023255815 L 400.69767441860466 282 L 400.13953488372096 282.13953488372096 L 399.72093023255815 282.13953488372096 L 399.30232558139534 282 L 398.6046511627907 281.8604651162791 L 397.90697674418607 281.58139534883725 L 397.3488372093023 281.0232558139535 L 397.06976744186045 280.3255813953489 L 396.7906976744186 279.6279069767442 L 396.7906976744186 279.06976744186045 L 396.7906976744186 272.93023255813955 L 398.3255813953488 272.93023255813955 L 398.3255813953488 278.79069767441865 L 398.4651162790698 279.34883720930236 L 398.6046511627907 279.90697674418607 L 398.8837209302326 280.1860465116279 L 399.16279069767444 280.4651162790698 L 399.72093023255815 280.74418604651163 L 400.27906976744185 280.74418604651163 L 400.83720930232556 280.74418604651163 L 401.25581395348837 280.4651162790698 L 401.6744186046512 280.1860465116279 L 401.95348837209303 279.7674418604651 L 402.2325581395349 279.2093023255814 L 402.2325581395349 278.6511627906977 L 402.2325581395349 272.93023255813955 L 403.7674418604651 272.93023255813955 L 403.7674418604651 278.93023255813955 L 403.90697674418607 279.6279069767442 L 404.1860465116279 280.04651162790697 L 404.4651162790698 280.4651162790698 L 404.8837209302326 280.60465116279073 L 405.30232558139534 280.74418604651163 L 405.5813953488372 280.74418604651163 L 406.13953488372096 280.74418604651163 L 406.69767441860466 280.4651162790698 L 407.1162790697674 280.1860465116279 L 407.3953488372093 279.6279069767442 L 407.6744186046512 279.2093023255814 L 407.6744186046512 278.51162790697674 L 407.6744186046512 272.93023255813955 Z" fill="none" stroke="#5da9e9" stroke-width="1.3953488372093024" stroke-linecap="round" stroke-linejoin="round" data-pcb-component-id="null" data-pcb-silkscreen-path-id="pcb_silkscreen_path_14" data-type="pcb_silkscreen_path" data-pcb-layer="bottom"/><path class="pcb-silkscreen pcb-silkscreen-bottom" d="M 391.2093023255814 272.7906976744186 L 391.7674418604651 272.7906976744186 L 392.4651162790698 272.93023255813955 L 392.8837209302326 273.06976744186045 L 393.4418604651163 273.34883720930236 L 393.86046511627904 273.6279069767442 L 394.27906976744185 274.04651162790697 L 394.5581395348837 274.4651162790698 L 394.83720930232556 274.8837209302326 L 395.1162790697674 275.4418604651163 L 395.25581395348837 276 L 395.3953488372093 276.69767441860466 L 395.3953488372093 277.3953488372093 L 395.3953488372093 278.093023255814 L 395.25581395348837 278.6511627906977 L 395.1162790697674 279.34883720930236 L 394.83720930232556 279.90697674418607 L 394.5581395348837 280.3255813953489 L 394.27906976744185 280.74418604651163 L 393.86046511627904 281.16279069767444 L 393.4418604651163 281.4418604651163 L 393.0232558139535 281.72093023255815 L 392.4651162790698 282 L 391.90697674418607 282 L 391.3488372093023 282.13953488372096 L 390.6511627906977 282 L 390.09302325581393 282 L 389.6744186046512 281.72093023255815 L 389.1162790697674 281.58139534883725 L 388.69767441860466 281.16279069767444 L 388.4186046511628 280.8837209302326 L 388.13953488372096 280.4651162790698 L 387.86046511627904 279.90697674418607 L 387.5813953488372 279.34883720930236 L 387.4418604651163 278.79069767441865 L 387.30232558139534 278.2325581395349 L 387.30232558139534 277.5348837209302 L 387.30232558139534 276.9767441860465 L 394.5581395348837 276.9767441860465 L 394.5581395348837 278.2325581395349 L 388.13953488372096 278.2325581395349 L 388.83720930232556 277.6744186046512 L 388.83720930232556 278.2325581395349 L 388.9767441860465 279.06976744186045 L 389.3953488372093 279.7674418604651 L 389.8139534883721 280.1860465116279 L 390.37209302325584 280.60465116279073 L 390.93023255813955 280.74418604651163 L 391.3488372093023 280.74418604651163 L 391.6279069767442 280.74418604651163 L 392.3255813953488 280.60465116279073 L 392.8837209302326 280.1860465116279 L 393.30232558139534 279.6279069767442 L 393.5813953488372 279.06976744186045 L 393.86046511627904 278.093023255814 L 393.86046511627904 277.6744186046512 L 393.86046511627904 276.69767441860466 L 393.72093023255815 275.8604651162791 L 393.30232558139534 275.16279069767444 L 393.16279069767444 274.8837209302326 L 392.6046511627907 274.4651162790698 L 392.3255813953488 274.3255813953489 L 391.6279069767442 274.04651162790697 L 391.2093023255814 274.04651162790697 L 390.6511627906977 274.04651162790697 L 390.09302325581393 274.1860465116279 L 389.6744186046512 274.4651162790698 L 389.3953488372093 274.74418604651163 L 389.1162790697674 275.0232558139535 L 388.9767441860465 275.4418604651163 L 387.4418604651163 275.4418604651163 L 387.5813953488372 274.8837209302326 L 387.86046511627904 274.3255813953489 L 388.27906976744185 273.90697674418607 L 388.69767441860466 273.48837209302326 L 389.25581395348837 273.2093023255814 L 389.8139534883721 272.93023255813955 L 390.51162790697674 272.7906976744186 L 391.2093023255814 272.7906976744186 Z" fill="none" stroke="#5da9e9" stroke-width="1.3953488372093024" stroke-linecap="round" stroke-linejoin="round" data-pcb-component-id="null" data-pcb-silkscreen-path-id="pcb_silkscreen_path_15" data-type="pcb_silkscreen_path" data-pcb-layer="bottom"/><path class="pcb-silkscreen pcb-silkscreen-bottom" d="M 382.83720930232556 272.7906976744186 L 383.5348837209302 272.7906976744186 L 383.95348837209303 272.93023255813955 L 384.3720930232558 273.06976744186045 L 384.7906976744186 273.34883720930236 L 385.06976744186045 273.6279069767442 L 385.2093023255814 274.04651162790697 L 385.3488372093023 274.60465116279073 L 385.3488372093023 275.16279069767444 L 385.3488372093023 280.60465116279073 L 386.74418604651163 280.60465116279073 L 386.74418604651163 281.8604651162791 L 385.3488372093023 281.8604651162791 L 385.3488372093023 284.37209302325584 L 383.8139534883721 284.37209302325584 L 383.8139534883721 281.8604651162791 L 382.13953488372096 281.8604651162791 L 382.13953488372096 280.60465116279073 L 383.8139534883721 280.60465116279073 L 383.8139534883721 275.16279069767444 L 383.6744186046512 274.60465116279073 L 383.5348837209302 274.1860465116279 L 383.1162790697674 274.04651162790697 L 382.83720930232556 274.04651162790697 L 382.5581395348837 273.90697674418607 L 382.13953488372096 274.04651162790697 L 382.13953488372096 272.7906976744186 L 382.27906976744185 272.7906976744186 L 382.5581395348837 272.7906976744186 L 382.83720930232556 272.7906976744186 Z" fill="none" stroke="#5da9e9" stroke-width="1.3953488372093024" stroke-linecap="round" stroke-linejoin="round" data-pcb-component-id="null" data-pcb-silkscreen-path-id="pcb_silkscreen_path_16" data-type="pcb_silkscreen_path" data-pcb-layer="bottom"/><path class="pcb-silkscreen pcb-silkscreen-bottom" d="M 378.93023255813955 272.93023255813955 L 380.4651162790698 272.93023255813955 L 380.4651162790698 281.8604651162791 L 378.93023255813955 281.8604651162791 L 378.93023255813955 280.3255813953489 L 378.7906976744186 280.74418604651163 L 378.37209302325584 281.4418604651163 L 377.8139534883721 281.8604651162791 L 377.25581395348837 282 L 376.83720930232556 282.13953488372096 L 376.5581395348837 282.13953488372096 L 376.27906976744185 282 L 376.27906976744185 280.60465116279073 L 376.5581395348837 280.60465116279073 L 376.83720930232556 280.60465116279073 L 377.25581395348837 280.60465116279073 L 377.8139534883721 280.4651162790698 L 378.2325581395349 280.1860465116279 L 378.6511627906977 279.90697674418607 L 378.7906976744186 279.34883720930236 L 378.93023255813955 278.79069767441865 L 378.93023255813955 278.51162790697674 L 378.93023255813955 272.93023255813955 Z" fill="none" stroke="#5da9e9" stroke-width="1.3953488372093024" stroke-linecap="round" stroke-linejoin="round" data-pcb-component-id="null" data-pcb-silkscreen-path-id="pcb_silkscreen_path_17" data-type="pcb_silkscreen_path" data-pcb-layer="bottom"/><path class="pcb-silkscreen pcb-silkscreen-bottom" d="M 371.25581395348837 272.7906976744186 L 371.8139534883721 272.7906976744186 L 372.37209302325584 272.93023255813955 L 372.93023255813955 273.06976744186045 L 373.48837209302326 273.34883720930236 L 373.90697674418607 273.6279069767442 L 374.3255813953488 274.04651162790697 L 374.6046511627907 274.4651162790698 L 374.8837209302326 274.8837209302326 L 375.16279069767444 275.4418604651163 L 375.30232558139534 276.13953488372096 L 375.4418604651163 276.69767441860466 L 375.4418604651163 277.3953488372093 L 375.4418604651163 278.093023255814 L 375.30232558139534 278.79069767441865 L 375.16279069767444 279.34883720930236 L 374.8837209302326 279.90697674418607 L 374.6046511627907 280.4651162790698 L 374.3255813953488 280.8837209302326 L 373.90697674418607 281.16279069767444 L 373.48837209302326 281.58139534883725 L 372.93023255813955 281.72093023255815 L 372.37209302325584 282 L 371.8139534883721 282 L 371.25581395348837 282.13953488372096 L 370.69767441860466 282 L 370.1395348837209 282 L 369.5813953488372 281.72093023255815 L 369.0232558139535 281.58139534883725 L 368.6046511627907 281.16279069767444 L 368.1860465116279 280.8837209302326 L 367.90697674418607 280.4651162790698 L 367.62790697674416 279.90697674418607 L 367.3488372093023 279.34883720930236 L 367.2093023255814 278.79069767441865 L 367.06976744186045 278.093023255814 L 367.06976744186045 277.3953488372093 L 367.06976744186045 276.69767441860466 L 367.2093023255814 276 L 367.3488372093023 275.4418604651163 L 367.62790697674416 274.8837209302326 L 367.90697674418607 274.4651162790698 L 368.1860465116279 274.04651162790697 L 368.6046511627907 273.6279069767442 L 369.0232558139535 273.34883720930236 L 369.5813953488372 273.06976744186045 L 370.1395348837209 272.93023255813955 L 370.69767441860466 272.7906976744186 L 371.25581395348837 272.7906976744186 Z" fill="none" stroke="#5da9e9" stroke-width="1.3953488372093024" stroke-linecap="round" stroke-linejoin="round" data-pcb-component-id="null" data-pcb-silkscreen-path-id="pcb_silkscreen_path_18" data-type="pcb_silkscreen_path" data-pcb-layer="bottom"/><path class="pcb-silkscreen pcb-silkscreen-bottom" d="M 371.25581395348837 274.04651162790697 L 370.83720930232556 274.04651162790697 L 370.1395348837209 274.3255813953489 L 369.5813953488372 274.74418604651163 L 369.16279069767444 275.3023255813954 L 368.8837209302326 276 L 368.6046511627907 276.8372093023256 L 368.6046511627907 277.3953488372093 L 368.6046511627907 277.95348837209303 L 368.8837209302326 278.79069767441865 L 369.16279069767444 279.6279069767442 L 369.5813953488372 280.1860465116279 L 370.1395348837209 280.60465116279073 L 370.83720930232556 280.74418604651163 L 371.25581395348837 280.74418604651163 L 371.6744186046512 280.74418604651163 L 372.37209302325584 280.4651162790698 L 372.93023255813955 280.1860465116279 L 373.3488372093023 279.6279069767442 L 373.7674418604651 278.79069767441865 L 373.90697674418607 277.95348837209303 L 373.90697674418607 277.3953488372093 L 373.90697674418607 276.8372093023256 L 373.7674418604651 276 L 373.3488372093023 275.3023255813954 L 372.93023255813955 274.74418604651163 L 372.37209302325584 274.3255813953489 L 371.6744186046512 274.04651162790697 L 371.25581395348837 274.04651162790697 Z" fill="none" stroke="#5da9e9" stroke-width="1.3953488372093024" stroke-linecap="round" stroke-linejoin="round" data-pcb-component-id="null" data-pcb-silkscreen-path-id="pcb_silkscreen_path_19" data-type="pcb_silkscreen_path" data-pcb-layer="bottom"/><path class="pcb-silkscreen pcb-silkscreen-bottom" d="M 364.13953488372096 272.93023255813955 L 365.5348837209302 272.93023255813955 L 365.5348837209302 281.8604651162791 L 364.13953488372096 281.8604651162791 L 364.13953488372096 280.60465116279073 L 363.8604651162791 280.8837209302326 L 363.30232558139534 281.4418604651163 L 362.6046511627907 281.8604651162791 L 361.7674418604651 282 L 361.2093023255814 282.13953488372096 L 360.51162790697674 282 L 359.3953488372093 281.58139534883725 L 358.5581395348837 280.74418604651163 L 358.1395348837209 279.48837209302326 L 358.1395348837209 278.79069767441865 L 358.1395348837209 272.93023255813955 L 359.6744186046512 272.93023255813955 L 359.6744186046512 278.51162790697674 L 359.8139534883721 279.48837209302326 L 360.2325581395349 280.1860465116279 L 360.7906976744186 280.60465116279073 L 361.2093023255814 280.74418604651163 L 361.7674418604651 280.74418604651163 L 362.3255813953488 280.74418604651163 L 363.0232558139535 280.4651162790698 L 363.4418604651163 280.04651162790697 L 363.72093023255815 279.48837209302326 L 364 278.93023255813955 L 364.13953488372096 278.2325581395349 L 364.13953488372096 272.93023255813955 Z" fill="none" stroke="#5da9e9" stroke-width="1.3953488372093024" stroke-linecap="round" stroke-linejoin="round" data-pcb-component-id="null" data-pcb-silkscreen-path-id="pcb_silkscreen_path_20" data-type="pcb_silkscreen_path" data-pcb-layer="bottom"/><rect class="pcb-pad" fill="rgb(200, 52, 52)" x="300.23255813953483" y="233.72093023255815" width="34.883720930232556" height="34.883720930232556" data-type="pcb_smtpad" data-pcb-layer="top"/><rect class="pcb-pad" fill="rgb(200, 52, 52)" x="464.8837209302326" y="233.72093023255815" width="34.883720930232556" height="34.883720930232556" data-type="pcb_smtpad" data-pcb-layer="top"/><rect class="pcb-pad" fill="rgb(200, 52, 52)" x="538.1395348837209" y="426.27906976744185" width="16.744186046511626" height="12.558139534883722" data-type="pcb_smtpad" data-pcb-layer="top"/><rect class="pcb-pad" fill="rgb(200, 52, 52)" x="559.0697674418604" y="426.27906976744185" width="16.744186046511626" height="12.558139534883722" data-type="pcb_smtpad" data-pcb-layer="top"/><rect class="pcb-pad" fill="rgb(200, 52, 52)" x="580" y="426.27906976744185" width="16.744186046511626" height="12.558139534883722" data-type="pcb_smtpad" data-pcb-layer="top"/><rect class="pcb-pad" fill="rgb(200, 52, 52)" x="466.6279069767442" y="425.93023255813955" width="11.162790697674419" height="13.25581395348837" data-type="pcb_smtpad" data-pcb-layer="top"/><rect class="pcb-pad" fill="rgb(200, 52, 52)" x="489.6511627906977" y="425.93023255813955" width="11.162790697674419" height="13.25581395348837" data-type="pcb_smtpad" data-pcb-layer="top"/><path class="pcb-trace" stroke="rgb(200, 52, 52)" fill="none" d="M 382.27906976744185 460.4651162790698 L 409.23909281246944 433.5050932340422" stroke-width="2.093023255813953" stroke-linecap="round" stroke-linejoin="round" shape-rendering="crispEdges" data-type="pcb_trace" data-pcb-layer="top"/><path class="pcb-trace" stroke="rgb(200, 52, 52)" fill="none" d="M 409.23909281246944 433.5050932340422 L 447.85476389163307 433.5050932340422" stroke-width="2.093023255813953" stroke-linecap="round" stroke-linejoin="round" shape-rendering="crispEdges" data-type="pcb_trace" data-pcb-layer="top"/><path class="pcb-trace" stroke="rgb(200, 52, 52)" fill="none" d="M 447.85476389163307 433.5050932340422 L 456.0152768263457 441.66560616875483" stroke-width="2.093023255813953" stroke-linecap="round" stroke-linejoin="round" shape-rendering="crispEdges" data-type="pcb_trace" data-pcb-layer="top"/><path class="pcb-trace" stroke="rgb(200, 52, 52)" fill="none" d="M 456.0152768263457 441.66560616875483 L 486.12509150566376 441.66560616875483" stroke-width="2.093023255813953" stroke-linecap="round" stroke-linejoin="round" shape-rendering="crispEdges" data-type="pcb_trace" data-pcb-layer="top"/><path class="pcb-trace" stroke="rgb(200, 52, 52)" fill="none" d="M 486.12509150566376 441.66560616875483 L 486.12509150566376 441.66560616875483" stroke-width="2.093023255813953" stroke-linecap="round" stroke-linejoin="round" shape-rendering="crispEdges" data-type="pcb_trace" data-pcb-layer="top"/><path class="pcb-trace" stroke="rgb(200, 52, 52)" fill="none" d="M 486.12509150566376 441.66560616875483 L 495.2325581395349 432.5581395348837" stroke-width="2.093023255813953" stroke-linecap="round" stroke-linejoin="round" shape-rendering="crispEdges" data-type="pcb_trace" data-pcb-layer="top"/><path class="pcb-trace" stroke="rgb(200, 52, 52)" fill="none" d="M 472.2093023255814 432.5581395348837 L 488.95348837209303 415.81395348837214" stroke-width="2.093023255813953" stroke-linecap="round" stroke-linejoin="round" shape-rendering="crispEdges" data-type="pcb_trace" data-pcb-layer="top"/><path class="pcb-trace" stroke="rgb(200, 52, 52)" fill="none" d="M 488.95348837209303 415.81395348837214 L 538.5275586865464 415.81395348837214" stroke-width="2.093023255813953" stroke-linecap="round" stroke-linejoin="round" shape-rendering="crispEdges" data-type="pcb_trace" data-pcb-layer="top"/><path class="pcb-trace" stroke="rgb(200, 52, 52)" fill="none" d="M 538.5275586865464 415.81395348837214 L 539.5348837209302 415.81395348837214" stroke-width="2.093023255813953" stroke-linecap="round" stroke-linejoin="round" shape-rendering="crispEdges" data-type="pcb_trace" data-pcb-layer="top"/><path class="pcb-trace" stroke="rgb(200, 52, 52)" fill="none" d="M 539.5348837209302 415.81395348837214 L 539.5348837209302 415.81395348837214" stroke-width="2.093023255813953" stroke-linecap="round" stroke-linejoin="round" shape-rendering="crispEdges" data-type="pcb_trace" data-pcb-layer="top"/><path class="pcb-trace" stroke="rgb(200, 52, 52)" fill="none" d="M 561.8604651162791 415.81395348837214 L 561.8604651162791 415.81395348837214" stroke-width="2.093023255813953" stroke-linecap="round" stroke-linejoin="round" shape-rendering="crispEdges" data-type="pcb_trace" data-pcb-layer="top"/><path class="pcb-trace" stroke="rgb(200, 52, 52)" fill="none" d="M 561.8604651162791 415.81395348837214 L 561.8604651162791 426.9767441860465" stroke-width="2.093023255813953" stroke-linecap="round" stroke-linejoin="round" shape-rendering="crispEdges" data-type="pcb_trace" data-pcb-layer="top"/><path class="pcb-trace" stroke="rgb(200, 52, 52)" fill="none" d="M 561.8604651162791 426.9767441860465 L 567.4418604651163 432.5581395348837" stroke-width="2.093023255813953" stroke-linecap="round" stroke-linejoin="round" shape-rendering="crispEdges" data-type="pcb_trace" data-pcb-layer="top"/><path class="pcb-trace" stroke="rgb(200, 52, 52)" fill="none" d="M 417.72093023255815 460.4651162790698 L 417.72093023255815 448.3255813953489" stroke-width="2.093023255813953" stroke-linecap="round" stroke-linejoin="round" shape-rendering="crispEdges" data-type="pcb_trace" data-pcb-layer="top"/><path class="pcb-trace" stroke="rgb(200, 52, 52)" fill="none" d="M 417.72093023255815 448.3255813953489 L 426.4025412581793 439.6439703697277" stroke-width="2.093023255813953" stroke-linecap="round" stroke-linejoin="round" shape-rendering="crispEdges" data-type="pcb_trace" data-pcb-layer="top"/><path class="pcb-trace" stroke="rgb(200, 52, 52)" fill="none" d="M 426.4025412581793 439.6439703697277 L 427.90697674418607 438.13953488372096" stroke-width="2.093023255813953" stroke-linecap="round" stroke-linejoin="round" shape-rendering="crispEdges" data-type="pcb_trace" data-pcb-layer="top"/><path class="pcb-trace" stroke="rgb(200, 52, 52)" fill="none" d="M 427.90697674418607 438.13953488372096 L 427.90697674418607 438.13953488372096" stroke-width="2.093023255813953" stroke-linecap="round" stroke-linejoin="round" shape-rendering="crispEdges" data-type="pcb_trace" data-pcb-layer="top"/><path class="pcb-trace" stroke="rgb(200, 52, 52)" fill="none" d="M 552.1627906976744 347.2674418604651 L 552.1627906976744 347.2674418604651" stroke-width="2.093023255813953" stroke-linecap="round" stroke-linejoin="round" shape-rendering="crispEdges" data-type="pcb_trace" data-pcb-layer="top"/><path class="pcb-trace" stroke="rgb(200, 52, 52)" fill="none" d="M 552.1627906976744 347.2674418604651 L 552.1627906976744 321" stroke-width="2.093023255813953" stroke-linecap="round" stroke-linejoin="round" shape-rendering="crispEdges" data-type="pcb_trace" data-pcb-layer="top"/><path class="pcb-trace" stroke="rgb(200, 52, 52)" fill="none" d="M 552.1627906976744 321 L 482.3255813953489 251.16279069767444" stroke-width="2.093023255813953" stroke-linecap="round" stroke-linejoin="round" shape-rendering="crispEdges" data-type="pcb_trace" data-pcb-layer="top"/><path class="pcb-trace" stroke="rgb(200, 52, 52)" fill="none" d="M 546.5116279069767 432.5581395348837 L 546.5116279069767 416.2058804186148" stroke-width="2.093023255813953" stroke-linecap="round" stroke-linejoin="round" shape-rendering="crispEdges" data-type="pcb_trace" data-pcb-layer="top"/><path class="pcb-trace" stroke="rgb(200, 52, 52)" fill="none" d="M 546.5116279069767 416.2058804186148 L 479.1429567906875 348.8372093023256" stroke-width="2.093023255813953" stroke-linecap="round" stroke-linejoin="round" shape-rendering="crispEdges" data-type="pcb_trace" data-pcb-layer="top"/><path class="pcb-trace" stroke="rgb(200, 52, 52)" fill="none" d="M 479.1429567906875 348.8372093023256 L 415.3488372093023 348.8372093023256" stroke-width="2.093023255813953" stroke-linecap="round" stroke-linejoin="round" shape-rendering="crispEdges" data-type="pcb_trace" data-pcb-layer="top"/><path class="pcb-trace" stroke="rgb(200, 52, 52)" fill="none" d="M 415.3488372093023 348.8372093023256 L 317.6744186046511 251.16279069767444" stroke-width="2.093023255813953" stroke-linecap="round" stroke-linejoin="round" shape-rendering="crispEdges" data-type="pcb_trace" data-pcb-layer="top"/><path class="pcb-silkscreen pcb-silkscreen-top" d="M 317.6744186046511 279.06976744186045 L 317.6744186046511 223.25581395348837" fill="none" stroke="#f2eda1" stroke-width="1.3953488372093024" stroke-linecap="round" stroke-linejoin="round" data-pcb-component-id="pcb_component_0" data-pcb-silkscreen-path-id="pcb_silkscreen_path_0" data-type="pcb_silkscreen_path" data-pcb-layer="top"/><path class="pcb-silkscreen pcb-silkscreen-top" d="M 309.30232558139534 251.16279069767444 L 326.04651162790697 251.16279069767444" fill="none" stroke="#f2eda1" stroke-width="1.3953488372093024" stroke-linecap="round" stroke-linejoin="round" data-pcb-component-id="pcb_component_0" data-pcb-silkscreen-path-id="pcb_silkscreen_path_1" data-type="pcb_silkscreen_path" data-pcb-layer="top"/><text x="0" y="0" dx="0" dy="0" fill="#f2eda1" font-family="Arial, sans-serif" font-size="13.953488372093023" text-anchor="middle" dominant-baseline="central" transform="matrix(1,0,0,1,317.6744186046511,293.0232558139535)" class="pcb-silkscreen-text pcb-silkscreen-top" data-pcb-silkscreen-text-id="pcb_component_0" stroke="none" data-type="pcb_silkscreen_text" data-pcb-layer="top">+</text><text x="0" y="0" dx="0" dy="0" fill="#f2eda1" font-family="Arial, sans-serif" font-size="13.953488372093023" text-anchor="middle" dominant-baseline="central" transform="matrix(1,0,0,1,482.3255813953489,293.0232558139535)" class="pcb-silkscreen-text pcb-silkscreen-top" data-pcb-silkscreen-text-id="pcb_component_0" stroke="none" data-type="pcb_silkscreen_text" data-pcb-layer="top">-</text><path class="pcb-silkscreen pcb-silkscreen-top" d="M 532.5581395348837 453.48837209302326 L 602.3255813953489 453.48837209302326 L 602.3255813953489 411.6279069767442 L 532.5581395348837 411.6279069767442 L 532.5581395348837 453.48837209302326 Z" fill="none" stroke="#f2eda1" stroke-width="1.3953488372093024" stroke-linecap="round" stroke-linejoin="round" data-pcb-component-id="pcb_component_1" data-pcb-silkscreen-path-id="pcb_silkscreen_path_2" data-type="pcb_silkscreen_path" data-pcb-layer="top"/><path class="pcb-silkscreen pcb-silkscreen-top" d="M 495.2325581395349 420.34883720930236 L 463.83720930232556 420.34883720930236 L 463.83720930232556 444.7674418604651 L 495.2325581395349 444.7674418604651" fill="none" stroke="#f2eda1" stroke-width="1.3953488372093024" stroke-linecap="round" stroke-linejoin="round" data-pcb-component-id="pcb_component_2" data-pcb-silkscreen-path-id="pcb_silkscreen_path_3" data-type="pcb_silkscreen_path" data-pcb-layer="top"/><text x="0" y="0" dx="0" dy="0" fill="#f2eda1" font-family="Arial, sans-serif" font-size="5.5813953488372094" text-anchor="middle" dominant-baseline="central" transform="matrix(1,0,0,1,483.72093023255815,413.37209302325584)" class="pcb-silkscreen-text pcb-silkscreen-top" data-pcb-silkscreen-text-id="pcb_component_2" stroke="none" data-type="pcb_silkscreen_text" data-pcb-layer="top">R1</text><path class="pcb-silkscreen pcb-silkscreen-top" d="M 365.1162790697674 481.3953488372093 L 434.8837209302326 481.3953488372093 L 434.8837209302326 439.5348837209302 L 365.1162790697674 439.5348837209302 L 365.1162790697674 481.3953488372093 Z" fill="none" stroke="#f2eda1" stroke-width="1.3953488372093024" stroke-linecap="round" stroke-linejoin="round" data-pcb-component-id="pcb_component_3" data-pcb-silkscreen-path-id="pcb_silkscreen_path_4" data-type="pcb_silkscreen_path" data-pcb-layer="top"/><text x="0" y="0" dx="0" dy="0" fill="#f2eda1" font-family="Arial, sans-serif" font-size="11.162790697674419" text-anchor="middle" dominant-baseline="central" transform="matrix(1,0,0,1,382.27906976744185,491.1627906976744)" class="pcb-silkscreen-text pcb-silkscreen-top" data-pcb-silkscreen-text-id="pcb_component_3" stroke="none" data-type="pcb_silkscreen_text" data-pcb-layer="top">+</text><text x="0" y="0" dx="0" dy="0" fill="#f2eda1" font-family="Arial, sans-serif" font-size="11.162790697674419" text-anchor="middle" dominant-baseline="central" transform="matrix(1,0,0,1,400,429.7674418604651)" class="pcb-silkscreen-text pcb-silkscreen-top" data-pcb-silkscreen-text-id="pcb_component_3" stroke="none" data-type="pcb_silkscreen_text" data-pcb-layer="top">LED</text><g data-type="pcb_plated_hole" data-pcb-layer="through"><circle class="pcb-hole-outer" fill="rgb(200, 52, 52)" cx="382.27906976744185" cy="460.4651162790698" r="12.558139534883722" data-type="pcb_plated_hole" data-pcb-layer="top"/><circle class="pcb-hole-inner" fill="#FF26E2" cx="382.27906976744185" cy="460.4651162790698" r="6.976744186046512" data-type="pcb_plated_hole_drill" data-pcb-layer="drill"/></g><g data-type="pcb_plated_hole" data-pcb-layer="through"><circle class="pcb-hole-outer" fill="rgb(200, 52, 52)" cx="417.72093023255815" cy="460.4651162790698" r="12.558139534883722" data-type="pcb_plated_hole" data-pcb-layer="top"/><circle class="pcb-hole-inner" fill="#FF26E2" cx="417.72093023255815" cy="460.4651162790698" r="6.976744186046512" data-type="pcb_plated_hole_drill" data-pcb-layer="drill"/></g><g data-type="pcb_via" data-pcb-layer="through"><circle class="pcb-hole-outer" fill="rgb(200, 52, 52)" cx="539.5348837209302" cy="415.81395348837214" r="2.093023255813953" data-type="pcb_via" data-pcb-layer="top"/><circle class="pcb-hole-inner" fill="#FF26E2" cx="539.5348837209302" cy="415.81395348837214" r="1.3953488372093024" data-type="pcb_via" data-pcb-layer="drill"/></g><g data-type="pcb_via" data-pcb-layer="through"><circle class="pcb-hole-outer" fill="rgb(200, 52, 52)" cx="561.8604651162791" cy="415.81395348837214" r="2.093023255813953" data-type="pcb_via" data-pcb-layer="top"/><circle class="pcb-hole-inner" fill="#FF26E2" cx="561.8604651162791" cy="415.81395348837214" r="1.3953488372093024" data-type="pcb_via" data-pcb-layer="drill"/></g><g data-type="pcb_via" data-pcb-layer="through"><circle class="pcb-hole-outer" fill="rgb(200, 52, 52)" cx="427.90697674418607" cy="438.13953488372096" r="2.093023255813953" data-type="pcb_via" data-pcb-layer="top"/><circle class="pcb-hole-inner" fill="#FF26E2" cx="427.90697674418607" cy="438.13953488372096" r="1.3953488372093024" data-type="pcb_via" data-pcb-layer="drill"/></g><g data-type="pcb_via" data-pcb-layer="through"><circle class="pcb-hole-outer" fill="rgb(200, 52, 52)" cx="552.1627906976744" cy="347.2674418604651" r="2.093023255813953" data-type="pcb_via" data-pcb-layer="top"/><circle class="pcb-hole-inner" fill="#FF26E2" cx="552.1627906976744" cy="347.2674418604651" r="1.3953488372093024" data-type="pcb_via" data-pcb-layer="drill"/></g><circle class="pcb-hole" cx="400" cy="544.1860465116279" r="17.441860465116278" fill="#FF26E2" data-type="pcb_hole" data-pcb-layer="drill"/></svg>