<svg xmlns="http://www.w3.org/2000/svg" width="800" height="600" data-software-used-string="@tscircuit/core@0.0.1112"><style></style><rect class="boundary" x="0" y="0" fill="#000" width="800" height="600" data-type="pcb_background" data-pcb-layer="global"/><rect class="pcb-boundary" fill="none" stroke="#fff" stroke-width="0.3" x="86.04651162790697" y="13.953488372093034" width="627.9069767441861" height="572.0930232558139" data-type="pcb_boundary" data-pcb-layer="global"/><path class="pcb-board" d="M 400 586.046511627907 L 420.93023255813955 579.0697674418604 L 432.09302325581393 569.3023255813954 L 439.06976744186045 555.3488372093024 L 441.8604651162791 537.2093023255813 L 441.8604651162791 516.2790697674419 L 439.2093023255814 502.6046511627907 L 463.7674418604651 524.9302325581396 L 494.04651162790697 542.5116279069767 L 528.9302325581396 552.8372093023256 L 566.1860465116279 554.3720930232558 L 603.8604651162791 546.5581395348838 L 639.4418604651163 529.6744186046512 L 670 504.8372093023256 L 693.7209302325582 473.5813953488372 L 708.7906976744187 437.72093023255815 L 713.953488372093 399.34883720930236 L 708.7906976744187 360.13953488372096 L 693.7209302325582 321.34883720930236 L 670 283.6744186046512 L 639.4418604651163 247.53488372093025 L 603.8604651162791 213.06976744186048 L 566.1860465116279 179.8604651162791 L 528.9302325581396 147.90697674418607 L 494.04651162790697 117.2093023255814 L 463.7674418604651 88.04651162790697 L 439.2093023255814 60.69767441860466 L 421.2093023255814 36.41860465116281 L 409.2093023255814 20.93023255813955 L 405.5813953488372 16.74418604651163 L 402.7906976744186 14.651162790697697 L 400 13.953488372093034 L 397.2093023255814 14.651162790697697 L 394.4186046511628 16.74418604651163 L 390.7906976744186 20.93023255813955 L 378.7906976744186 36.41860465116281 L 360.7906976744186 60.69767441860466 L 336.2325581395349 88.04651162790697 L 305.95348837209303 117.2093023255814 L 271.06976744186045 147.90697674418607 L 233.81395348837208 179.8604651162791 L 196.13953488372093 213.06976744186048 L 160.5581395348837 247.53488372093025 L 130 283.6744186046512 L 106.27906976744185 321.34883720930236 L 91.2093023255814 360.13953488372096 L 86.04651162790697 399.34883720930236 L 91.2093023255814 437.72093023255815 L 106.27906976744185 473.5813953488372 L 130 504.8372093023256 L 160.5581395348837 529.6744186046512 L 196.13953488372093 546.5581395348838 L 233.81395348837208 554.3720930232558 L 271.06976744186045 552.8372093023256 L 305.95348837209303 542.5116279069767 L 336.2325581395349 524.9302325581396 L 360.7906976744186 502.6046511627907 L 358.1395348837209 516.2790697674419 L 358.1395348837209 537.2093023255813 L 360.93023255813955 555.3488372093024 L 367.90697674418607 569.3023255813954 L 379.06976744186045 579.0697674418604 Z" fill="none" stroke="rgba(255, 255, 255, 0.5)" stroke-width="1.3953488372093024" data-type="pcb_board" data-pcb-layer="board"/><path class="pcb-trace" stroke="rgb(77, 127, 196)" fill="none" d="M 539.5348837209302 415.81395348837214 L 539.5348837209302 415.81395348837214" stroke-width="2.093023255813953" stroke-linecap="round" stroke-linejoin="round" shape-rendering="crispEdges" data-type="pcb_trace" data-pcb-layer="bottom"/><path class="pcb-trace" stroke="rgb(77, 127, 196)" fill="none" d="M 539.5348837209302 415.81395348837214 L 560.4523380047176 415.81395348837214" stroke-width="2.093023255813953" stroke-linecap="round" stroke-linejoin="round" shape-rendering="crispEdges" data-type="pcb_trace" data-pcb-layer="bottom"/><path class="pcb-trace" stroke="rgb(77, 127, 196)" fill="none" d="M 560.4523380047176 415.81395348837214 L 560.4523380047176 415.81395348837214" stroke-width="2.093023255813953" stroke-linecap="round" stroke-linejoin="round" shape-rendering="crispEdges" data-type="pcb_trace" data-pcb-layer="bottom"/><path class="pcb-trace" stroke="rgb(77, 127, 196)" fill="none" d="M 560.4523380047176 415.81395348837214 L 561.8604651162791 415.81395348837214" stroke-width="2.093023255813953" stroke-linecap="round" stroke-linejoin="round" shape-rendering="crispEdges" data-type="pcb_trace" data-pcb-layer="bottom"/><path class="pcb-trace" stroke="rgb(77, 127, 196)" fill="none" d="M 561.8604651162791 415.81395348837214 L 561.8604651162791 415.81395348837214" stroke-width="2.093023255813953" stroke-linecap="round" stroke-linejoin="round" shape-rendering="crispEdges" data-type="pcb_trace" data-pcb-layer="bottom"/><path class="pcb-trace" stroke="rgb(77, 127, 196)" fill="none" d="M 427.90697674418607 438.13953488372096 L 427.90697674418607 438.13953488372096" stroke-width="2.093023255813953" stroke-linecap="round" stroke-linejoin="round" shape-rendering="crispEdges" data-type="pcb_trace" data-pcb-layer="bottom"/><path class="pcb-trace" stroke="rgb(77, 127, 196)" fill="none" d="M 427.90697674418607 438.13953488372096 L 457.8179566183972 438.13953488372096" stroke-width="2.093023255813953" stroke-linecap="round" stroke-linejoin="round" shape-rendering="crispEdges" data-type="pcb_trace" data-pcb-layer="bottom"/><path class="pcb-trace" stroke="rgb(77, 127, 196)" fill="none" d="M 457.8179566183972 438.13953488372096 L 550.1248115342255 345.8326799678926" stroke-width="2.093023255813953" stroke-linecap="round" stroke-linejoin="round" shape-rendering="crispEdges" data-type="pcb_trace" data-pcb-layer="bottom"/><path class="pcb-trace" stroke="rgb(77, 127, 196)" fill="none" d="M 550.1248115342255 345.8326799678926 L 552.1627906976744 347.2674418604651" stroke-width="2.093023255813953" stroke-linecap="round" stroke-linejoin="round" shape-rendering="crispEdges" data-type="pcb_trace" data-pcb-layer="bottom"/><path class="pcb-trace" stroke="rgb(77, 127, 196)" fill="none" d="M 552.1627906976744 347.2674418604651 L 552.1627906976744 347.2674418604651" stroke-width="2.093023255813953" stroke-linecap="round" stroke-linejoin="round" shape-rendering="crispEdges" data-type="pcb_trace" data-pcb-layer="bottom"/><path class="pcb-silkscreen pcb-silkscreen-bottom" d="M 472.9767441860465 140.51162790697677 L 483.72093023255815 166.88372093023258 L 473.3953488372093 166.88372093023258 L 468.2325581395349 152.23255813953492 L 463.06976744186045 166.88372093023258 L 453.16279069767444 166.88372093023258 L 463.90697674418607 140.51162790697677 L 472.9767441860465 140.51162790697677 Z" fill="none" stroke="#5da9e9" stroke-width="1.3953488372093024" stroke-linecap="round" stroke-linejoin="round" data-pcb-component-id="null" data-pcb-silkscreen-path-id="pcb_silkscreen_path_5" data-type="pcb_silkscreen_path" data-pcb-layer="bottom"/><path class="pcb-silkscreen pcb-silkscreen-bottom" d="M 441.72093023255815 140.51162790697677 L 451.3488372093023 140.51162790697677 L 451.3488372093023 166.88372093023258 L 441.72093023255815 166.88372093023258 L 441.72093023255815 140.51162790697677 Z" fill="none" stroke="#5da9e9" stroke-width="1.3953488372093024" stroke-linecap="round" stroke-linejoin="round" data-pcb-component-id="null" data-pcb-silkscreen-path-id="pcb_silkscreen_path_6" data-type="pcb_silkscreen_path" data-pcb-layer="bottom"/><path class="pcb-silkscreen pcb-silkscreen-bottom" d="M 414.93023255813955 166.88372093023258 L 414.93023255813955 160.88372093023256 L 426.2325581395349 148.18604651162792 L 414.7906976744186 148.18604651162792 L 414.7906976744186 140.51162790697677 L 439.06976744186045 140.51162790697677 L 439.06976744186045 146.6511627906977 L 427.7674418604651 159.2093023255814 L 438.37209302325584 159.2093023255814 L 438.37209302325584 166.88372093023258 L 414.93023255813955 166.88372093023258 Z" fill="none" stroke="#5da9e9" stroke-width="1.3953488372093024" stroke-linecap="round" stroke-linejoin="round" data-pcb-component-id="null" data-pcb-silkscreen-path-id="pcb_silkscreen_path_7" data-type="pcb_silkscreen_path" data-pcb-layer="bottom"/><path class="pcb-silkscreen pcb-silkscreen-bottom" d="M 413.95348837209303 153.76744186046514 L 413.6744186046512 156.55813953488374 L 412.9767441860465 159.34883720930233 L 411.72093023255815 161.72093023255815 L 409.90697674418607 163.67441860465118 L 407.8139534883721 165.34883720930233 L 405.4418604651163 166.6046511627907 L 402.6511627906977 167.4418604651163 L 399.5813953488372 167.72093023255815 L 397.2093023255814 167.4418604651163 L 394.83720930232556 166.88372093023258 L 393.4418604651163 166.32558139534885 L 393.4418604651163 157.53488372093022 L 395.1162790697674 158.37209302325581 L 396.93023255813955 158.93023255813955 L 398.1860465116279 158.93023255813955 L 400.5581395348837 158.65116279069767 L 402.3720930232558 157.53488372093022 L 403.6279069767442 155.86046511627907 L 404.1860465116279 153.76744186046514 L 403.6279069767442 151.53488372093025 L 402.51162790697674 149.8604651162791 L 400.5581395348837 148.74418604651166 L 398.1860465116279 148.4651162790698 L 396.93023255813955 148.4651162790698 L 395.1162790697674 149.0232558139535 L 393.4418604651163 150.00000000000003 L 393.4418604651163 141.2093023255814 L 395.8139534883721 140.23255813953492 L 398.1860465116279 139.8139534883721 L 399.72093023255815 139.8139534883721 L 402.6511627906977 139.95348837209303 L 405.4418604651163 140.79069767441862 L 407.8139534883721 141.90697674418607 L 409.90697674418607 143.58139534883722 L 411.5813953488372 145.53488372093025 L 412.83720930232556 147.90697674418607 L 413.6744186046512 150.6976744186047 L 413.95348837209303 153.76744186046514 Z" fill="none" stroke="#5da9e9" stroke-width="1.3953488372093024" stroke-linecap="round" stroke-linejoin="round" data-pcb-component-id="null" data-pcb-silkscreen-path-id="pcb_silkscreen_path_8" data-type="pcb_silkscreen_path" data-pcb-layer="bottom"/><path class="pcb-silkscreen pcb-silkscreen-bottom" d="M 376.83720930232556 167.72093023255815 L 373.90697674418607 167.4418604651163 L 371.1162790697674 166.6046511627907 L 368.6046511627907 165.34883720930233 L 366.37209302325584 163.67441860465118 L 364.5581395348837 161.58139534883722 L 363.30232558139534 159.2093023255814 L 362.4651162790698 156.55813953488374 L 362.1860465116279 153.76744186046514 L 362.4651162790698 150.83720930232562 L 363.30232558139534 148.18604651162792 L 364.5581395348837 145.8139534883721 L 366.37209302325584 143.72093023255817 L 368.6046511627907 142.046511627907 L 371.1162790697674 140.79069767441862 L 373.90697674418607 139.95348837209303 L 376.83720930232556 139.8139534883721 L 379.90697674418607 139.95348837209303 L 382.69767441860466 140.79069767441862 L 385.2093023255814 142.046511627907 L 387.4418604651163 143.72093023255817 L 389.25581395348837 145.8139534883721 L 390.51162790697674 148.18604651162792 L 391.3488372093023 150.83720930232562 L 391.6279069767442 153.76744186046514 L 391.3488372093023 156.55813953488374 L 390.51162790697674 159.2093023255814 L 389.25581395348837 161.58139534883722 L 387.4418604651163 163.67441860465118 L 385.2093023255814 165.34883720930233 L 382.69767441860466 166.6046511627907 L 379.90697674418607 167.4418604651163 L 376.83720930232556 167.72093023255815 Z" fill="none" stroke="#5da9e9" stroke-width="1.3953488372093024" stroke-linecap="round" stroke-linejoin="round" data-pcb-component-id="null" data-pcb-silkscreen-path-id="pcb_silkscreen_path_9" data-type="pcb_silkscreen_path" data-pcb-layer="bottom"/><path class="pcb-silkscreen pcb-silkscreen-bottom" d="M 376.83720930232556 158.93023255813955 L 378.93023255813955 158.51162790697674 L 380.6046511627907 157.3953488372093 L 381.72093023255815 155.72093023255815 L 382.13953488372096 153.76744186046514 L 381.72093023255815 151.67441860465118 L 380.6046511627907 150.00000000000003 L 378.93023255813955 148.88372093023258 L 376.83720930232556 148.4651162790698 L 374.8837209302326 148.88372093023258 L 373.2093023255814 150.00000000000003 L 372.09302325581393 151.67441860465118 L 371.6744186046512 153.76744186046514 L 372.09302325581393 155.72093023255815 L 373.2093023255814 157.3953488372093 L 374.8837209302326 158.51162790697674 L 376.83720930232556 158.93023255813955 Z" fill="none" stroke="#5da9e9" stroke-width="1.3953488372093024" stroke-linecap="round" stroke-linejoin="round" data-pcb-component-id="null" data-pcb-silkscreen-path-id="pcb_silkscreen_path_10" data-type="pcb_silkscreen_path" data-pcb-layer="bottom"/><path class="pcb-silkscreen pcb-silkscreen-bottom" d="M 350.74418604651163 154.74418604651163 L 350.74418604651163 140.37209302325584 L 360.51162790697674 140.37209302325584 L 360.51162790697674 166.88372093023258 L 350.74418604651163 166.88372093023258 L 350.74418604651163 163.8139534883721 L 348.6511627906977 165.90697674418607 L 345.8604651162791 167.30232558139537 L 343.48837209302326 167.58139534883722 L 340.9767441860465 167.30232558139537 L 338.04651162790697 165.90697674418607 L 335.95348837209303 163.39534883720933 L 333.4418604651163 166.046511627907 L 330.09302325581393 167.4418604651163 L 327.72093023255815 167.58139534883722 L 323.6744186046512 166.88372093023258 L 320.74418604651163 164.79069767441862 L 319.06976744186045 161.72093023255815 L 318.37209302325584 157.3953488372093 L 318.37209302325584 140.37209302325584 L 328.1395348837209 140.37209302325584 L 328.1395348837209 154.88372093023256 L 328.69767441860466 157.11627906976744 L 329.95348837209303 158.51162790697674 L 331.34883720930236 158.79069767441862 L 332.6046511627907 158.51162790697674 L 334 157.11627906976744 L 334.5581395348837 154.74418604651163 L 334.5581395348837 140.37209302325584 L 344.3255813953488 140.37209302325584 L 344.3255813953488 154.88372093023256 L 344.74418604651163 157.11627906976744 L 346.13953488372096 158.51162790697674 L 347.3953488372093 158.79069767441862 L 348.7906976744186 158.51162790697674 L 350.1860465116279 157.11627906976744 L 350.74418604651163 154.74418604651163 Z" fill="none" stroke="#5da9e9" stroke-width="1.3953488372093024" stroke-linecap="round" stroke-linejoin="round" data-pcb-component-id="null" data-pcb-silkscreen-path-id="pcb_silkscreen_path_11" data-type="pcb_silkscreen_path" data-pcb-layer="bottom"/><rect class="pcb-pad" fill="rgb(200, 52, 52)" x="300.23255813953483" y="233.72093023255815" width="34.883720930232556" height="34.883720930232556" data-type="pcb_smtpad" data-pcb-layer="top"/><rect class="pcb-pad" fill="rgb(200, 52, 52)" x="464.8837209302326" y="233.72093023255815" width="34.883720930232556" height="34.883720930232556" data-type="pcb_smtpad" data-pcb-layer="top"/><rect class="pcb-pad" fill="rgb(200, 52, 52)" x="538.1395348837209" y="426.27906976744185" width="16.744186046511626" height="12.558139534883722" data-type="pcb_smtpad" data-pcb-layer="top"/><rect class="pcb-pad" fill="rgb(200, 52, 52)" x="559.0697674418604" y="426.27906976744185" width="16.744186046511626" height="12.558139534883722" data-type="pcb_smtpad" data-pcb-layer="top"/><rect class="pcb-pad" fill="rgb(200, 52, 52)" x="580" y="426.27906976744185" width="16.744186046511626" height="12.558139534883722" data-type="pcb_smtpad" data-pcb-layer="top"/><rect class="pcb-pad" fill="rgb(200, 52, 52)" x="466.6279069767442" y="425.93023255813955" width="11.162790697674419" height="13.25581395348837" data-type="pcb_smtpad" data-pcb-layer="top"/><rect class="pcb-pad" fill="rgb(200, 52, 52)" x="489.6511627906977" y="425.93023255813955" width="11.162790697674419" height="13.25581395348837" data-type="pcb_smtpad" data-pcb-layer="top"/><path class="pcb-trace" stroke="rgb(200, 52, 52)" fill="none" d="M 382.27906976744185 460.4651162790698 L 409.23909281246944 433.5050932340422" stroke-width="2.093023255813953" stroke-linecap="round" stroke-linejoin="round" shape-rendering="crispEdges" data-type="pcb_trace" data-pcb-layer="top"/><path class="pcb-trace" stroke="rgb(200, 52, 52)" fill="none" d="M 409.23909281246944 433.5050932340422 L 447.85476389163307 433.5050932340422" stroke-width="2.093023255813953" stroke-linecap="round" stroke-linejoin="round" shape-rendering="crispEdges" data-type="pcb_trace" data-pcb-layer="top"/><path class="pcb-trace" stroke="rgb(200, 52, 52)" fill="none" d="M 447.85476389163307 433.5050932340422 L 456.0152768263457 441.66560616875483" stroke-width="2.093023255813953" stroke-linecap="round" stroke-linejoin="round" shape-rendering="crispEdges" data-type="pcb_trace" data-pcb-layer="top"/><path class="pcb-trace" stroke="rgb(200, 52, 52)" fill="none" d="M 456.0152768263457 441.66560616875483 L 486.12509150566376 441.66560616875483" stroke-width="2.093023255813953" stroke-linecap="round" stroke-linejoin="round" shape-rendering="crispEdges" data-type="pcb_trace" data-pcb-layer="top"/><path class="pcb-trace" stroke="rgb(200, 52, 52)" fill="none" d="M 486.12509150566376 441.66560616875483 L 486.12509150566376 441.66560616875483" stroke-width="2.093023255813953" stroke-linecap="round" stroke-linejoin="round" shape-rendering="crispEdges" data-type="pcb_trace" data-pcb-layer="top"/><path class="pcb-trace" stroke="rgb(200, 52, 52)" fill="none" d="M 486.12509150566376 441.66560616875483 L 495.2325581395349 432.5581395348837" stroke-width="2.093023255813953" stroke-linecap="round" stroke-linejoin="round" shape-rendering="crispEdges" data-type="pcb_trace" data-pcb-layer="top"/><path class="pcb-trace" stroke="rgb(200, 52, 52)" fill="none" d="M 472.2093023255814 432.5581395348837 L 488.95348837209303 415.81395348837214" stroke-width="2.093023255813953" stroke-linecap="round" stroke-linejoin="round" shape-rendering="crispEdges" data-type="pcb_trace" data-pcb-layer="top"/><path class="pcb-trace" stroke="rgb(200, 52, 52)" fill="none" d="M 488.95348837209303 415.81395348837214 L 538.5275586865464 415.81395348837214" stroke-width="2.093023255813953" stroke-linecap="round" stroke-linejoin="round" shape-rendering="crispEdges" data-type="pcb_trace" data-pcb-layer="top"/><path class="pcb-trace" stroke="rgb(200, 52, 52)" fill="none" d="M 538.5275586865464 415.81395348837214 L 539.5348837209302 415.81395348837214" stroke-width="2.093023255813953" stroke-linecap="round" stroke-linejoin="round" shape-rendering="crispEdges" data-type="pcb_trace" data-pcb-layer="top"/><path class="pcb-trace" stroke="rgb(200, 52, 52)" fill="none" d="M 539.5348837209302 415.81395348837214 L 539.5348837209302 415.81395348837214" stroke-width="2.093023255813953" stroke-linecap="round" stroke-linejoin="round" shape-rendering="crispEdges" data-type="pcb_trace" data-pcb-layer="top"/><path class="pcb-trace" stroke="rgb(200, 52, 52)" fill="none" d="M 561.8604651162791 415.81395348837214 L 561.8604651162791 415.81395348837214" stroke-width="2.093023255813953" stroke-linecap="round" stroke-linejoin="round" shape-rendering="crispEdges" data-type="pcb_trace" data-pcb-layer="top"/><path class="pcb-trace" stroke="rgb(200, 52, 52)" fill="none" d="M 561.8604651162791 415.81395348837214 L 561.8604651162791 426.9767441860465" stroke-width="2.093023255813953" stroke-linecap="round" stroke-linejoin="round" shape-rendering="crispEdges" data-type="pcb_trace" data-pcb-layer="top"/><path class="pcb-trace" stroke="rgb(200, 52, 52)" fill="none" d="M 561.8604651162791 426.9767441860465 L 567.4418604651163 432.5581395348837" stroke-width="2.093023255813953" stroke-linecap="round" stroke-linejoin="round" shape-rendering="crispEdges" data-type="pcb_trace" data-pcb-layer="top"/><path class="pcb-trace" stroke="rgb(200, 52, 52)" fill="none" d="M 417.72093023255815 460.4651162790698 L 417.72093023255815 448.3255813953489" stroke-width="2.093023255813953" stroke-linecap="round" stroke-linejoin="round" shape-rendering="crispEdges" data-type="pcb_trace" data-pcb-layer="top"/><path class="pcb-trace" stroke="rgb(200, 52, 52)" fill="none" d="M 417.72093023255815 448.3255813953489 L 426.4025412581793 439.6439703697277" stroke-width="2.093023255813953" stroke-linecap="round" stroke-linejoin="round" shape-rendering="crispEdges" data-type="pcb_trace" data-pcb-layer="top"/><path class="pcb-trace" stroke="rgb(200, 52, 52)" fill="none" d="M 426.4025412581793 439.6439703697277 L 427.90697674418607 438.13953488372096" stroke-width="2.093023255813953" stroke-linecap="round" stroke-linejoin="round" shape-rendering="crispEdges" data-type="pcb_trace" data-pcb-layer="top"/><path class="pcb-trace" stroke="rgb(200, 52, 52)" fill="none" d="M 427.90697674418607 438.13953488372096 L 427.90697674418607 438.13953488372096" stroke-width="2.093023255813953" stroke-linecap="round" stroke-linejoin="round" shape-rendering="crispEdges" data-type="pcb_trace" data-pcb-layer="top"/><path class="pcb-trace" stroke="rgb(200, 52, 52)" fill="none" d="M 552.1627906976744 347.2674418604651 L 552.1627906976744 347.2674418604651" stroke-width="2.093023255813953" stroke-linecap="round" stroke-linejoin="round" shape-rendering="crispEdges" data-type="pcb_trace" data-pcb-layer="top"/><path class="pcb-trace" stroke="rgb(200, 52, 52)" fill="none" d="M 552.1627906976744 347.2674418604651 L 552.1627906976744 321" stroke-width="2.093023255813953" stroke-linecap="round" stroke-linejoin="round" shape-rendering="crispEdges" data-type="pcb_trace" data-pcb-layer="top"/><path class="pcb-trace" stroke="rgb(200, 52, 52)" fill="none" d="M 552.1627906976744 321 L 482.3255813953489 251.16279069767444" stroke-width="2.093023255813953" stroke-linecap="round" stroke-linejoin="round" shape-rendering="crispEdges" data-type="pcb_trace" data-pcb-layer="top"/><path class="pcb-trace" stroke="rgb(200, 52, 52)" fill="none" d="M 546.5116279069767 432.5581395348837 L 546.5116279069767 416.2058804186148" stroke-width="2.093023255813953" stroke-linecap="round" stroke-linejoin="round" shape-rendering="crispEdges" data-type="pcb_trace" data-pcb-layer="top"/><path class="pcb-trace" stroke="rgb(200, 52, 52)" fill="none" d="M 546.5116279069767 416.2058804186148 L 479.1429567906875 348.8372093023256" stroke-width="2.093023255813953" stroke-linecap="round" stroke-linejoin="round" shape-rendering="crispEdges" data-type="pcb_trace" data-pcb-layer="top"/><path class="pcb-trace" stroke="rgb(200, 52, 52)" fill="none" d="M 479.1429567906875 348.8372093023256 L 415.3488372093023 348.8372093023256" stroke-width="2.093023255813953" stroke-linecap="round" stroke-linejoin="round" shape-rendering="crispEdges" data-type="pcb_trace" data-pcb-layer="top"/><path class="pcb-trace" stroke="rgb(200, 52, 52)" fill="none" d="M 415.3488372093023 348.8372093023256 L 317.6744186046511 251.16279069767444" stroke-width="2.093023255813953" stroke-linecap="round" stroke-linejoin="round" shape-rendering="crispEdges" data-type="pcb_trace" data-pcb-layer="top"/><path class="pcb-silkscreen pcb-silkscreen-top" d="M 317.6744186046511 279.06976744186045 L 317.6744186046511 223.25581395348837" fill="none" stroke="#f2eda1" stroke-width="1.3953488372093024" stroke-linecap="round" stroke-linejoin="round" data-pcb-component-id="pcb_component_0" data-pcb-silkscreen-path-id="pcb_silkscreen_path_0" data-type="pcb_silkscreen_path" data-pcb-layer="top"/><path class="pcb-silkscreen pcb-silkscreen-top" d="M 309.30232558139534 251.16279069767444 L 326.04651162790697 251.16279069767444" fill="none" stroke="#f2eda1" stroke-width="1.3953488372093024" stroke-linecap="round" stroke-linejoin="round" data-pcb-component-id="pcb_component_0" data-pcb-silkscreen-path-id="pcb_silkscreen_path_1" data-type="pcb_silkscreen_path" data-pcb-layer="top"/><text x="0" y="0" dx="0" dy="0" fill="#f2eda1" font-family="Arial, sans-serif" font-size="13.953488372093023" text-anchor="middle" dominant-baseline="central" transform="matrix(1,0,0,1,317.6744186046511,293.0232558139535)" class="pcb-silkscreen-text pcb-silkscreen-top" data-pcb-silkscreen-text-id="pcb_component_0" stroke="none" data-type="pcb_silkscreen_text" data-pcb-layer="top">+</text><text x="0" y="0" dx="0" dy="0" fill="#f2eda1" font-family="Arial, sans-serif" font-size="13.953488372093023" text-anchor="middle" dominant-baseline="central" transform="matrix(1,0,0,1,482.3255813953489,293.0232558139535)" class="pcb-silkscreen-text pcb-silkscreen-top" data-pcb-silkscreen-text-id="pcb_component_0" stroke="none" data-type="pcb_silkscreen_text" data-pcb-layer="top">-</text><path class="pcb-silkscreen pcb-silkscreen-top" d="M 532.5581395348837 453.48837209302326 L 602.3255813953489 453.48837209302326 L 602.3255813953489 411.6279069767442 L 532.5581395348837 411.6279069767442 L 532.5581395348837 453.48837209302326 Z" fill="none" stroke="#f2eda1" stroke-width="1.3953488372093024" stroke-linecap="round" stroke-linejoin="round" data-pcb-component-id="pcb_component_1" data-pcb-silkscreen-path-id="pcb_silkscreen_path_2" data-type="pcb_silkscreen_path" data-pcb-layer="top"/><path class="pcb-silkscreen pcb-silkscreen-top" d="M 495.2325581395349 420.34883720930236 L 463.83720930232556 420.34883720930236 L 463.83720930232556 444.7674418604651 L 495.2325581395349 444.7674418604651" fill="none" stroke="#f2eda1" stroke-width="1.3953488372093024" stroke-linecap="round" stroke-linejoin="round" data-pcb-component-id="pcb_component_2" data-pcb-silkscreen-path-id="pcb_silkscreen_path_3" data-type="pcb_silkscreen_path" data-pcb-layer="top"/><text x="0" y="0" dx="0" dy="0" fill="#f2eda1" font-family="Arial, sans-serif" font-size="5.5813953488372094" text-anchor="middle" dominant-baseline="central" transform="matrix(1,0,0,1,483.72093023255815,413.37209302325584)" class="pcb-silkscreen-text pcb-silkscreen-top" data-pcb-silkscreen-text-id="pcb_component_2" stroke="none" data-type="pcb_silkscreen_text" data-pcb-layer="top">R1</text><path class="pcb-silkscreen pcb-silkscreen-top" d="M 365.1162790697674 481.3953488372093 L 434.8837209302326 481.3953488372093 L 434.8837209302326 439.5348837209302 L 365.1162790697674 439.5348837209302 L 365.1162790697674 481.3953488372093 Z" fill="none" stroke="#f2eda1" stroke-width="1.3953488372093024" stroke-linecap="round" stroke-linejoin="round" data-pcb-component-id="pcb_component_3" data-pcb-silkscreen-path-id="pcb_silkscreen_path_4" data-type="pcb_silkscreen_path" data-pcb-layer="top"/><text x="0" y="0" dx="0" dy="0" fill="#f2eda1" font-family="Arial, sans-serif" font-size="11.162790697674419" text-anchor="middle" dominant-baseline="central" transform="matrix(1,0,0,1,382.27906976744185,491.1627906976744)" class="pcb-silkscreen-text pcb-silkscreen-top" data-pcb-silkscreen-text-id="pcb_component_3" stroke="none" data-type="pcb_silkscreen_text" data-pcb-layer="top">+</text><text x="0" y="0" dx="0" dy="0" fill="#f2eda1" font-family="Arial, sans-serif" font-size="11.162790697674419" text-anchor="middle" dominant-baseline="central" transform="matrix(1,0,0,1,400,429.7674418604651)" class="pcb-silkscreen-text pcb-silkscreen-top" data-pcb-silkscreen-text-id="pcb_component_3" stroke="none" data-type="pcb_silkscreen_text" data-pcb-layer="top">LED</text><g data-type="pcb_plated_hole" data-pcb-layer="through"><circle class="pcb-hole-outer" fill="rgb(200, 52, 52)" cx="382.27906976744185" cy="460.4651162790698" r="12.558139534883722" data-type="pcb_plated_hole" data-pcb-layer="top"/><circle class="pcb-hole-inner" fill="#FF26E2" cx="382.27906976744185" cy="460.4651162790698" r="6.976744186046512" data-type="pcb_plated_hole_drill" data-pcb-layer="drill"/></g><g data-type="pcb_plated_hole" data-pcb-layer="through"><circle class="pcb-hole-outer" fill="rgb(200, 52, 52)" cx="417.72093023255815" cy="460.4651162790698" r="12.558139534883722" data-type="pcb_plated_hole" data-pcb-layer="top"/><circle class="pcb-hole-inner" fill="#FF26E2" cx="417.72093023255815" cy="460.4651162790698" r="6.976744186046512" data-type="pcb_plated_hole_drill" data-pcb-layer="drill"/></g><g data-type="pcb_via" data-pcb-layer="through"><circle class="pcb-hole-outer" fill="rgb(200, 52, 52)" cx="539.5348837209302" cy="415.81395348837214" r="2.093023255813953" data-type="pcb_via" data-pcb-layer="top"/><circle class="pcb-hole-inner" fill="#FF26E2" cx="539.5348837209302" cy="415.81395348837214" r="1.3953488372093024" data-type="pcb_via" data-pcb-layer="drill"/></g><g data-type="pcb_via" data-pcb-layer="through"><circle class="pcb-hole-outer" fill="rgb(200, 52, 52)" cx="561.8604651162791" cy="415.81395348837214" r="2.093023255813953" data-type="pcb_via" data-pcb-layer="top"/><circle class="pcb-hole-inner" fill="#FF26E2" cx="561.8604651162791" cy="415.81395348837214" r="1.3953488372093024" data-type="pcb_via" data-pcb-layer="drill"/></g><g data-type="pcb_via" data-pcb-layer="through"><circle class="pcb-hole-outer" fill="rgb(200, 52, 52)" cx="427.90697674418607" cy="438.13953488372096" r="2.093023255813953" data-type="pcb_via" data-pcb-layer="top"/><circle class="pcb-hole-inner" fill="#FF26E2" cx="427.90697674418607" cy="438.13953488372096" r="1.3953488372093024" data-type="pcb_via" data-pcb-layer="drill"/></g><g data-type="pcb_via" data-pcb-layer="through"><circle class="pcb-hole-outer" fill="rgb(200, 52, 52)" cx="552.1627906976744" cy="347.2674418604651" r="2.093023255813953" data-type="pcb_via" data-pcb-layer="top"/><circle class="pcb-hole-inner" fill="#FF26E2" cx="552.1627906976744" cy="347.2674418604651" r="1.3953488372093024" data-type="pcb_via" data-pcb-layer="drill"/></g><circle class="pcb-hole" cx="400" cy="544.1860465116279" r="17.441860465116278" fill="#FF26E2" data-type="pcb_hole" data-pcb-layer="drill"/></svg>