<svg xmlns="http://www.w3.org/2000/svg" width="600" height="466" viewBox="-24.5 -16.03 49 38.03"><rect fill="#111" x="-24.5" y="-16.03" width="49" height="38.03"/><path d="M 0 -5.88 L 0 -5.89 L 0 -5.92 L 0.01 -5.98 L 0.01 -6.05 L 0.03 -6.14 L 0.04 -6.26 L 0.07 -6.39 L 0.1 -6.54 L 0.15 -6.71 L 0.2 -6.9 L 0.27 -7.1 L 0.35 -7.31 L 0.44 -7.54 L 0.54 -7.79 L 0.66 -8.04 L 0.8 -8.3 L 0.95 -8.58 L 1.12 -8.86 L 1.31 -9.14 L 1.51 -9.43 L 1.74 -9.72 L 1.98 -10.02 L 2.24 -10.31 L 2.52 -10.6 L 2.81 -10.89 L 3.13 -11.18 L 3.46 -11.45 L 3.81 -11.72 L 4.18 -11.98 L 4.57 -12.23 L 4.97 -12.47 L 5.39 -12.7 L 5.83 -12.91 L 6.28 -13.11 L 6.74 -13.28 L 7.22 -13.45 L 7.71 -13.59 L 8.21 -13.71 L 8.72 -13.82 L 9.23 -13.9 L 9.76 -13.97 L 10.29 -14.01 L 10.83 -14.03 L 11.37 -14.02 L 11.91 -14 L 12.46 -13.95 L 13 -13.88 L 13.54 -13.78 L 14.08 -13.67 L 14.61 -13.53 L 15.14 -13.37 L 15.66 -13.19 L 16.17 -12.98 L 16.67 -12.76 L 17.15 -12.52 L 17.63 -12.25 L 18.08 -11.97 L 18.53 -11.67 L 18.95 -11.36 L 19.36 -11.03 L 19.74 -10.68 L 20.1 -10.31 L 20.45 -9.94 L 20.76 -9.55 L 21.06 -9.15 L 21.33 -8.74 L 21.57 -8.32 L 21.78 -7.89 L 21.97 -7.45 L 22.13 -7 L 22.26 -6.55 L 22.37 -6.1 L 22.44 -5.64 L 22.49 -5.17 L 22.5 -4.71 L 22.49 -4.24 L 22.44 -3.77 L 22.37 -3.3 L 22.26 -2.82 L 22.13 -2.35 L 21.97 -1.88 L 21.78 -1.42 L 21.57 -0.95 L 21.33 -0.49 L 21.06 -0.02 L 20.76 0.43 L 20.45 0.89 L 20.1 1.34 L 19.74 1.79 L 19.36 2.23 L 18.95 2.68 L 18.53 3.11 L 18.08 3.54 L 17.63 3.97 L 17.15 4.4 L 16.67 4.82 L 16.17 5.24 L 15.66 5.65 L 15.14 6.06 L 14.61 6.47 L 14.08 6.87 L 13.54 7.27 L 13 7.67 L 12.46 8.07 L 11.91 8.46 L 11.37 8.85 L 10.83 9.23 L 10.29 9.61 L 9.76 9.99 L 9.23 10.37 L 8.72 10.75 L 8.21 11.12 L 7.71 11.49 L 7.22 11.85 L 6.74 12.21 L 6.28 12.57 L 5.83 12.93 L 5.39 13.28 L 4.97 13.62 L 4.57 13.97 L 4.18 14.3 L 3.81 14.64 L 3.46 14.96 L 3.13 15.28 L 2.81 15.6 L 2.52 15.91 L 2.24 16.21 L 1.98 16.5 L 1.74 16.78 L 1.51 17.06 L 1.31 17.32 L 1.12 17.58 L 0.95 17.83 L 0.8 18.06 L 0.66 18.29 L 0.54 18.5 L 0.44 18.7 L 0.35 18.88 L 0.27 19.06 L 0.2 19.22 L 0.15 19.36 L 0.1 19.5 L 0.07 19.61 L 0.04 19.71 L 0.03 19.8 L 0.01 19.87 L 0.01 19.93 L 0 19.97 L 0 19.99 L 0 20 L 0 19.99 L 0 19.97 L -0.01 19.93 L -0.01 19.87 L -0.03 19.8 L -0.04 19.71 L -0.07 19.61 L -0.1 19.5 L -0.15 19.36 L -0.2 19.22 L -0.27 19.06 L -0.35 18.88 L -0.44 18.7 L -0.54 18.5 L -0.66 18.29 L -0.8 18.06 L -0.95 17.83 L -1.12 17.58 L -1.31 17.32 L -1.51 17.06 L -1.74 16.78 L -1.98 16.5 L -2.24 16.21 L -2.52 15.91 L -2.81 15.6 L -3.13 15.28 L -3.46 14.96 L -3.81 14.64 L -4.18 14.3 L -4.57 13.97 L -4.97 13.62 L -5.39 13.28 L -5.83 12.93 L -6.28 12.57 L -6.74 12.21 L -7.22 11.85 L -7.71 11.49 L -8.21 11.12 L -8.72 10.75 L -9.23 10.37 L -9.76 9.99 L -10.29 9.61 L -10.83 9.23 L -11.37 8.85 L -11.91 8.46 L -12.46 8.07 L -13 7.67 L -13.54 7.27 L -14.08 6.87 L -14.61 6.47 L -15.14 6.06 L -15.66 5.65 L -16.17 5.24 L -16.67 4.82 L -17.15 4.4 L -17.63 3.97 L -18.08 3.54 L -18.53 3.11 L -18.95 2.68 L -19.36 2.23 L -19.74 1.79 L -20.1 1.34 L -20.45 0.89 L -20.76 0.43 L -21.06 -0.02 L -21.33 -0.49 L -21.57 -0.95 L -21.78 -1.42 L -21.97 -1.88 L -22.13 -2.35 L -22.26 -2.82 L -22.37 -3.3 L -22.44 -3.77 L -22.49 -4.24 L -22.5 -4.71 L -22.49 -5.17 L -22.44 -5.64 L -22.37 -6.1 L -22.26 -6.55 L -22.13 -7 L -21.97 -7.45 L -21.78 -7.89 L -21.57 -8.32 L -21.33 -8.74 L -21.06 -9.15 L -20.76 -9.55 L -20.45 -9.94 L -20.1 -10.31 L -19.74 -10.68 L -19.36 -11.03 L -18.95 -11.36 L -18.53 -11.67 L -18.08 -11.97 L -17.63 -12.25 L -17.15 -12.52 L -16.67 -12.76 L -16.17 -12.98 L -15.66 -13.19 L -15.14 -13.37 L -14.61 -13.53 L -14.08 -13.67 L -13.54 -13.78 L -13 -13.88 L -12.46 -13.95 L -11.91 -14 L -11.37 -14.02 L -10.83 -14.03 L -10.29 -14.01 L -9.76 -13.97 L -9.23 -13.9 L -8.72 -13.82 L -8.21 -13.71 L -7.71 -13.59 L -7.22 -13.45 L -6.74 -13.28 L -6.28 -13.11 L -5.83 -12.91 L -5.39 -12.7 L -4.97 -12.47 L -4.57 -12.23 L -4.18 -11.98 L -3.81 -11.72 L -3.46 -11.45 L -3.13 -11.18 L -2.81 -10.89 L -2.52 -10.6 L -2.24 -10.31 L -1.98 -10.02 L -1.74 -9.72 L -1.51 -9.43 L -1.31 -9.14 L -1.12 -8.86 L -0.95 -8.58 L -0.8 -8.3 L -0.66 -8.04 L -0.54 -7.79 L -0.44 -7.54 L -0.35 -7.31 L -0.27 -7.1 L -0.2 -6.9 L -0.15 -6.71 L -0.1 -6.54 L -0.07 -6.39 L -0.04 -6.26 L -0.03 -6.14 L -0.01 -6.05 L -0.01 -5.98 L 0 -5.92 L 0 -5.89 Z" fill="none" stroke="white" stroke-width="0.3"/></svg>