0
SECTION
2
ENTITIES
0
LWPOLYLINE
8
0
70
1
90
316
10
4.1800
20
-11.9800
10
4.5700
20
-12.2300
10
4.9700
20
-12.4700
10
5.3900
20
-12.7000
10
5.8300
20
-12.9100
10
6.2800
20
-13.1100
10
6.7400
20
-13.2800
10
7.2200
20
-13.4500
10
7.7100
20
-13.5900
10
8.2100
20
-13.7100
10
8.7200
20
-13.8200
10
9.2300
20
-13.9000
10
9.7600
20
-13.9700
10
10.2900
20
-14.0100
10
10.8300
20
-14.0300
10
11.3700
20
-14.0200
10
11.9100
20
-14.0000
10
12.4600
20
-13.9500
10
13.0000
20
-13.8800
10
13.5400
20
-13.7800
10
14.0800
20
-13.6700
10
14.6100
20
-13.5300
10
15.1400
20
-13.3700
10
15.6600
20
-13.1900
10
16.1700
20
-12.9800
10
16.6700
20
-12.7600
10
17.1500
20
-12.5200
10
17.6300
20
-12.2500
10
18.0800
20
-11.9700
10
18.5300
20
-11.6700
10
18.9500
20
-11.3600
10
19.3600
20
-11.0300
10
19.7400
20
-10.6800
10
20.1000
20
-10.3100
10
20.4500
20
-9.9400
10
20.7600
20
-9.5500
10
21.0600
20
-9.1500
10
21.3300
20
-8.7400
10
21.5700
20
-8.3200
10
21.7800
20
-7.8900
10
21.9700
20
-7.4500
10
22.1300
20
-7.0000
10
22.2600
20
-6.5500
10
22.3700
20
-6.1000
10
22.4400
20
-5.6400
10
22.4900
20
-5.1700
10
22.5000
20
-4.7100
10
22.4900
20
-4.2400
10
22.4400
20
-3.7700
10
22.3700
20
-3.3000
10
22.2600
20
-2.8200
10
22.1300
20
-2.3500
10
21.9700
20
-1.8800
10
21.7800
20
-1.4200
10
21.5700
20
-0.9500
10
21.3300
20
-0.4900
10
21.0600
20
-0.0200
10
20.7600
20
0.4300
10
20.4500
20
0.8900
10
20.1000
20
1.3400
10
19.7400
20
1.7900
10
19.3600
20
2.2300
10
18.9500
20
2.6800
10
18.5300
20
3.1100
10
18.0800
20
3.5400
10
17.6300
20
3.9700
10
17.1500
20
4.4000
10
16.6700
20
4.8200
10
16.1700
20
5.2400
10
15.6600
20
5.6500
10
15.1400
20
6.0600
10
14.6100
20
6.4700
10
14.0800
20
6.8700
10
13.5400
20
7.2700
10
13.0000
20
7.6700
10
12.4600
20
8.0700
10
11.9100
20
8.4600
10
11.3700
20
8.8500
10
10.8300
20
9.2300
10
10.2900
20
9.6100
10
9.7600
20
9.9900
10
9.2300
20
10.3700
10
8.7200
20
10.7500
10
8.2100
20
11.1200
10
7.7100
20
11.4900
10
7.2200
20
11.8500
10
6.7400
20
12.2100
10
6.2800
20
12.5700
10
5.8300
20
12.9300
10
5.3900
20
13.2800
10
4.9700
20
13.6200
10
4.5700
20
13.9700
10
4.1800
20
14.3000
10
3.8100
20
14.6400
10
3.4600
20
14.9600
10
3.1300
20
15.2800
10
2.8100
20
15.6000
10
2.5200
20
15.9100
10
2.2400
20
16.2100
10
1.9800
20
16.5000
10
1.7400
20
16.7800
10
1.5100
20
17.0600
10
1.3100
20
17.3200
10
1.1200
20
17.5800
10
0.9500
20
17.8300
10
0.8000
20
18.0600
10
0.6600
20
18.2900
10
0.5400
20
18.5000
10
0.4400
20
18.7000
10
0.3500
20
18.8800
10
0.2700
20
19.0600
10
0.2000
20
19.2200
10
0.1500
20
19.3600
10
0.1000
20
19.5000
10
0.0700
20
19.6100
10
0.0400
20
19.7100
10
0.0300
20
19.8000
10
0.0100
20
19.8700
10
0.0100
20
19.9300
10
0.0000
20
19.9700
10
0.0000
20
19.9900
10
0.0000
20
20.0000
10
0.0000
20
19.9900
10
0.0000
20
19.9700
10
-0.0100
20
19.9300
10
-0.0100
20
19.8700
10
-0.0300
20
19.8000
10
-0.0400
20
19.7100
10
-0.0700
20
19.6100
10
-0.1000
20
19.5000
10
-0.1500
20
19.3600
10
-0.2000
20
19.2200
10
-0.2700
20
19.0600
10
-0.3500
20
18.8800
10
-0.4400
20
18.7000
10
-0.5400
20
18.5000
10
-0.6600
20
18.2900
10
-0.8000
20
18.0600
10
-0.9500
20
17.8300
10
-1.1200
20
17.5800
10
-1.3100
20
17.3200
10
-1.5100
20
17.0600
10
-1.7400
20
16.7800
10
-1.9800
20
16.5000
10
-2.2400
20
16.2100
10
-2.5200
20
15.9100
10
-2.8100
20
15.6000
10
-3.1300
20
15.2800
10
-3.4600
20
14.9600
10
-3.8100
20
14.6400
10
-4.1800
20
14.3000
10
-4.5700
20
13.9700
10
-4.9700
20
13.6200
10
-5.3900
20
13.2800
10
-5.8300
20
12.9300
10
-6.2800
20
12.5700
10
-6.7400
20
12.2100
10
-7.2200
20
11.8500
10
-7.7100
20
11.4900
10
-8.2100
20
11.1200
10
-8.7200
20
10.7500
10
-9.2300
20
10.3700
10
-9.7600
20
9.9900
10
-10.2900
20
9.6100
10
-10.8300
20
9.2300
10
-11.3700
20
8.8500
10
-11.9100
20
8.4600
10
-12.4600
20
8.0700
10
-13.0000
20
7.6700
10
-13.5400
20
7.2700
10
-14.0800
20
6.8700
10
-14.6100
20
6.4700
10
-15.1400
20
6.0600
10
-15.6600
20
5.6500
10
-16.1700
20
5.2400
10
-16.6700
20
4.8200
10
-17.1500
20
4.4000
10
-17.6300
20
3.9700
10
-18.0800
20
3.5400
10
-18.5300
20
3.1100
10
-18.9500
20
2.6800
10
-19.3600
20
2.2300
10
-19.7400
20
1.7900
10
-20.1000
20
1.3400
10
-20.4500
20
0.8900
10
-20.7600
20
0.4300
10
-21.0600
20
-0.0200
10
-21.3300
20
-0.4900
10
-21.5700
20
-0.9500
10
-21.7800
20
-1.4200
10
-21.9700
20
-1.8800
10
-22.1300
20
-2.3500
10
-22.2600
20
-2.8200
10
-22.3700
20
-3.3000
10
-22.4400
20
-3.7700
10
-22.4900
20
-4.2400
10
-22.5000
20
-4.7100
10
-22.4900
20
-5.1700
10
-22.4400
20
-5.6400
10
-22.3700
20
-6.1000
10
-22.2600
20
-6.5500
10
-22.1300
20
-7.0000
10
-21.9700
20
-7.4500
10
-21.7800
20
-7.8900
10
-21.5700
20
-8.3200
10
-21.3300
20
-8.7400
10
-21.0600
20
-9.1500
10
-20.7600
20
-9.5500
10
-20.4500
20
-9.9400
10
-20.1000
20
-10.3100
10
-19.7400
20
-10.6800
10
-19.3600
20
-11.0300
10
-18.9500
20
-11.3600
10
-18.5300
20
-11.6700
10
-18.0800
20
-11.9700
10
-17.6300
20
-12.2500
10
-17.1500
20
-12.5200
10
-16.6700
20
-12.7600
10
-16.1700
20
-12.9800
10
-15.6600
20
-13.1900
10
-15.1400
20
-13.3700
10
-14.6100
20
-13.5300
10
-14.0800
20
-13.6700
10
-13.5400
20
-13.7800
10
-13.0000
20
-13.8800
10
-12.4600
20
-13.9500
10
-11.9100
20
-14.0000
10
-11.3700
20
-14.0200
10
-10.8300
20
-14.0300
10
-10.2900
20
-14.0100
10
-9.7600
20
-13.9700
10
-9.2300
20
-13.9000
10
-8.7200
20
-13.8200
10
-8.2100
20
-13.7100
10
-7.7100
20
-13.5900
10
-7.2200
20
-13.4500
10
-6.7400
20
-13.2800
10
-6.2800
20
-13.1100
10
-5.8300
20
-12.9100
10
-5.3900
20
-12.7000
10
-4.9700
20
-12.4700
10
-4.5700
20
-12.2300
10
-4.1800
20
-11.9800
10
4.1700
20
-12.2600
10
4.1600
20
-12.5400
10
4.1400
20
-12.8200
10
4.1300
20
-13.1000
10
4.1200
20
-13.3800
10
4.1100
20
-13.6600
10
4.1000
20
-13.9400
10
4.0800
20
-14.2200
10
4.0700
20
-14.5000
10
4.0600
20
-14.7800
10
4.0500
20
-15.0600
10
4.0400
20
-15.3400
10
4.0200
20
-15.6100
10
4.0100
20
-15.8900
10
4.0000
20
-16.1700
10
4.0000
20
-11.9800
10
4.0000
20
-12.4800
10
4.0000
20
-12.9800
10
4.0000
20
-13.4800
10
4.0000
20
-13.9800
10
4.0000
20
-14.4800
10
0.0000
20
-10.6800
10
0.3800
20
-10.7000
10
0.7500
20
-10.7600
10
1.1100
20
-10.8600
10
1.4600
20
-10.9900
10
1.8000
20
-11.1600
10
2.1200
20
-11.3700
10
2.4100
20
-11.6000
10
2.6800
20
-11.8700
10
2.9100
20
-12.1600
10
3.1200
20
-12.4800
10
3.2900
20
-12.8200
10
3.4200
20
-13.1700
10
3.5200
20
-13.5300
10
3.5800
20
-13.9000
10
3.6000
20
-14.2800
10
3.5800
20
-14.6600
10
3.5200
20
-15.0300
10
3.4200
20
-15.3900
10
3.2900
20
-15.7400
10
3.1200
20
-16.0800
10
2.9100
20
-16.4000
10
2.6800
20
-16.6900
10
2.4100
20
-16.9600
10
2.1200
20
-17.1900
10
1.8000
20
-17.4000
10
1.4600
20
-17.5700
10
1.1100
20
-17.7000
10
0.7500
20
-17.8000
10
0.3800
20
-17.8600
10
0.0000
20
-17.8800
10
-4.0000
20
-14.8800
10
-4.0000
20
-14.3800
10
-4.0000
20
-13.8800
10
-4.0000
20
-13.3800
10
-4.0000
20
-12.8800
10
-4.0000
20
-12.3800
10
-4.0100
20
-11.9800
10
-4.0200
20
-11.9800
10
-4.0400
20
-11.9800
10
-4.0500
20
-11.9800
10
-4.0600
20
-11.9800
10
-4.0700
20
-11.9800
10
-4.0800
20
-11.9800
10
-4.1000
20
-11.9800
10
-4.1100
20
-11.9800
10
-4.1200
20
-11.9800
10
-4.1300
20
-11.9800
10
-4.1400
20
-11.9800
10
-4.1600
20
-11.9800
10
-4.1700
20
-11.9800
10
-4.1800
20
-11.9800
0
ENDSEC
0
EOF
