0
SECTION
2
ENTITIES
0
LWPOLYLINE
8
0
70
1
90
68
10
0.0000
20
-20.0000
10
2.0000
20
-19.5000
10
3.2000
20
-18.5000
10
3.8000
20
-16.8000
10
4.0000
20
-15.5000
10
4.0000
20
-14.0000
10
3.5000
20
-13.0200
10
3.6000
20
-13.4000
10
3.8000
20
-13.7000
10
4.1000
20
-14.0000
10
4.3000
20
-14.2500
10
4.5700
20
-14.6200
10
6.7400
20
-15.8800
10
9.2400
20
-16.6200
10
11.9100
20
-16.7300
10
14.6100
20
-16.1700
10
17.1600
20
-14.9600
10
19.3500
20
-13.1800
10
21.0500
20
-10.9400
10
22.1300
20
-8.3700
10
22.5000
20
-5.6200
10
22.1300
20
-2.8100
10
21.0500
20
-0.0300
10
19.3500
20
2.6700
10
17.1600
20
5.2600
10
14.6100
20
7.7300
10
11.9100
20
10.1100
10
9.2400
20
12.4000
10
6.7400
20
14.6000
10
4.5700
20
16.6900
10
2.8100
20
18.6500
10
1.8000
20
19.5000
10
1.2000
20
19.8000
10
0.6000
20
19.9500
10
0.0000
20
20.0000
10
-0.6000
20
19.9500
10
-1.2000
20
19.8000
10
-1.8000
20
19.5000
10
-2.8100
20
18.6500
10
-4.5700
20
16.6900
10
-6.7400
20
14.6000
10
-9.2400
20
12.4000
10
-11.9100
20
10.1100
10
-14.6100
20
7.7300
10
-17.1600
20
5.2600
10
-19.3500
20
2.6700
10
-21.0500
20
-0.0300
10
-22.1300
20
-2.8100
10
-22.5000
20
-5.6200
10
-22.1300
20
-8.3700
10
-21.0500
20
-10.9400
10
-19.3500
20
-13.1800
10
-17.1600
20
-14.9600
10
-14.6100
20
-16.1700
10
-11.9100
20
-16.7300
10
-9.2400
20
-16.6200
10
-6.7400
20
-15.8800
10
-4.5700
20
-14.6200
10
-4.3000
20
-14.2500
10
-4.1000
20
-14.0000
10
-3.8000
20
-13.7000
10
-3.6000
20
-13.4000
10
-3.5000
20
-13.0200
10
-4.0000
20
-14.0000
10
-4.0000
20
-15.5000
10
-3.8000
20
-16.8000
10
-3.2000
20
-18.5000
10
-2.0000
20
-19.5000
0
ENDSEC
0
EOF
