<svg xmlns="http://www.w3.org/2000/svg" width="800" height="600" data-software-used-string="@tscircuit/core@0.0.1112"><style></style><rect class="boundary" x="0" y="0" fill="#000" width="800" height="600" data-type="pcb_background" data-pcb-layer="global"/><rect class="pcb-boundary" fill="none" stroke="#fff" stroke-width="0.3" x="86.04651162790697" y="13.953488372093034" width="627.9069767441861" height="572.0930232558139" data-type="pcb_boundary" data-pcb-layer="global"/><path class="pcb-board" d="M 400 586.046511627907 L 420.93023255813955 579.0697674418604 L 432.09302325581393 569.3023255813954 L 439.06976744186045 555.3488372093024 L 441.8604651162791 537.2093023255813 L 441.8604651162791 516.2790697674419 L 439.2093023255814 502.6046511627907 L 463.7674418604651 524.9302325581396 L 494.04651162790697 542.5116279069767 L 528.9302325581396 552.8372093023256 L 566.1860465116279 554.3720930232558 L 603.8604651162791 546.5581395348838 L 639.4418604651163 529.6744186046512 L 670 504.8372093023256 L 693.7209302325582 473.5813953488372 L 708.7906976744187 437.72093023255815 L 713.953488372093 399.34883720930236 L 708.7906976744187 360.13953488372096 L 693.7209302325582 321.34883720930236 L 670 283.6744186046512 L 639.4418604651163 247.53488372093025 L 603.8604651162791 213.06976744186048 L 566.1860465116279 179.8604651162791 L 528.9302325581396 147.90697674418607 L 494.04651162790697 117.2093023255814 L 463.7674418604651 88.04651162790697 L 439.2093023255814 60.69767441860466 L 421.2093023255814 36.41860465116281 L 409.2093023255814 20.93023255813955 L 405.5813953488372 16.74418604651163 L 402.7906976744186 14.651162790697697 L 400 13.953488372093034 L 397.2093023255814 14.651162790697697 L 394.4186046511628 16.74418604651163 L 390.7906976744186 20.93023255813955 L 378.7906976744186 36.41860465116281 L 360.7906976744186 60.69767441860466 L 336.2325581395349 88.04651162790697 L 305.95348837209303 117.2093023255814 L 271.06976744186045 147.90697674418607 L 233.81395348837208 179.8604651162791 L 196.13953488372093 213.06976744186048 L 160.5581395348837 247.53488372093025 L 130 283.6744186046512 L 106.27906976744185 321.34883720930236 L 91.2093023255814 360.13953488372096 L 86.04651162790697 399.34883720930236 L 91.2093023255814 437.72093023255815 L 106.27906976744185 473.5813953488372 L 130 504.8372093023256 L 160.5581395348837 529.6744186046512 L 196.13953488372093 546.5581395348838 L 233.81395348837208 554.3720930232558 L 271.06976744186045 552.8372093023256 L 305.95348837209303 542.5116279069767 L 336.2325581395349 524.9302325581396 L 360.7906976744186 502.6046511627907 L 358.1395348837209 516.2790697674419 L 358.1395348837209 537.2093023255813 L 360.93023255813955 555.3488372093024 L 367.90697674418607 569.3023255813954 L 379.06976744186045 579.0697674418604 Z" fill="none" stroke="rgba(255, 255, 255, 0.5)" stroke-width="1.3953488372093024" data-type="pcb_board" data-pcb-layer="board"/><path class="pcb-trace" stroke="rgb(77, 127, 196)" fill="none" d="M 539.5348837209302 415.81395348837214 L 539.5348837209302 415.81395348837214" stroke-width="2.093023255813953" stroke-linecap="round" stroke-linejoin="round" shape-rendering="crispEdges" data-type="pcb_trace" data-pcb-layer="bottom"/><path class="pcb-trace" stroke="rgb(77, 127, 196)" fill="none" d="M 539.5348837209302 415.81395348837214 L 560.4523380047176 415.81395348837214" stroke-width="2.093023255813953" stroke-linecap="round" stroke-linejoin="round" shape-rendering="crispEdges" data-type="pcb_trace" data-pcb-layer="bottom"/><path class="pcb-trace" stroke="rgb(77, 127, 196)" fill="none" d="M 560.4523380047176 415.81395348837214 L 560.4523380047176 415.81395348837214" stroke-width="2.093023255813953" stroke-linecap="round" stroke-linejoin="round" shape-rendering="crispEdges" data-type="pcb_trace" data-pcb-layer="bottom"/><path class="pcb-trace" stroke="rgb(77, 127, 196)" fill="none" d="M 560.4523380047176 415.81395348837214 L 561.8604651162791 415.81395348837214" stroke-width="2.093023255813953" stroke-linecap="round" stroke-linejoin="round" shape-rendering="crispEdges" data-type="pcb_trace" data-pcb-layer="bottom"/><path class="pcb-trace" stroke="rgb(77, 127, 196)" fill="none" d="M 561.8604651162791 415.81395348837214 L 561.8604651162791 415.81395348837214" stroke-width="2.093023255813953" stroke-linecap="round" stroke-linejoin="round" shape-rendering="crispEdges" data-type="pcb_trace" data-pcb-layer="bottom"/><path class="pcb-trace" stroke="rgb(77, 127, 196)" fill="none" d="M 427.90697674418607 438.13953488372096 L 427.90697674418607 438.13953488372096" stroke-width="2.093023255813953" stroke-linecap="round" stroke-linejoin="round" shape-rendering="crispEdges" data-type="pcb_trace" data-pcb-layer="bottom"/><path class="pcb-trace" stroke="rgb(77, 127, 196)" fill="none" d="M 427.90697674418607 438.13953488372096 L 457.8179566183972 438.13953488372096" stroke-width="2.093023255813953" stroke-linecap="round" stroke-linejoin="round" shape-rendering="crispEdges" data-type="pcb_trace" data-pcb-layer="bottom"/><path class="pcb-trace" stroke="rgb(77, 127, 196)" fill="none" d="M 457.8179566183972 438.13953488372096 L 550.1248115342255 345.8326799678926" stroke-width="2.093023255813953" stroke-linecap="round" stroke-linejoin="round" shape-rendering="crispEdges" data-type="pcb_trace" data-pcb-layer="bottom"/><path class="pcb-trace" stroke="rgb(77, 127, 196)" fill="none" d="M 550.1248115342255 345.8326799678926 L 552.1627906976744 347.2674418604651" stroke-width="2.093023255813953" stroke-linecap="round" stroke-linejoin="round" shape-rendering="crispEdges" data-type="pcb_trace" data-pcb-layer="bottom"/><path class="pcb-trace" stroke="rgb(77, 127, 196)" fill="none" d="M 552.1627906976744 347.2674418604651 L 552.1627906976744 347.2674418604651" stroke-width="2.093023255813953" stroke-linecap="round" stroke-linejoin="round" shape-rendering="crispEdges" data-type="pcb_trace" data-pcb-layer="bottom"/><path class="pcb-silkscreen pcb-silkscreen-bottom" d="M 424.4186046511628 156.97674418604652 L 400 156.97674418604652 L 400 181.39534883720933 L 424.4186046511628 181.39534883720933 L 424.4186046511628 156.97674418604652 Z" fill="none" stroke="#5da9e9" stroke-width="1.3953488372093024" stroke-linecap="round" stroke-linejoin="round" data-pcb-component-id="null" data-pcb-silkscreen-path-id="pcb_silkscreen_path_5" data-type="pcb_silkscreen_path" data-pcb-layer="bottom"/><path class="pcb-silkscreen pcb-silkscreen-bottom" d="M 412.13953488372096 169.2558139534884 L 387.72093023255815 169.2558139534884 L 387.72093023255815 193.67441860465118 L 412.13953488372096 193.67441860465118 L 412.13953488372096 169.2558139534884 Z" fill="none" stroke="#5da9e9" stroke-width="1.3953488372093024" stroke-linecap="round" stroke-linejoin="round" data-pcb-component-id="null" data-pcb-silkscreen-path-id="pcb_silkscreen_path_6" data-type="pcb_silkscreen_path" data-pcb-layer="bottom"/><path class="pcb-silkscreen pcb-silkscreen-bottom" d="M 400 181.39534883720933 L 375.5813953488372 181.39534883720933 L 375.5813953488372 205.8139534883721 L 400 205.8139534883721 L 400 181.39534883720933 Z" fill="none" stroke="#5da9e9" stroke-width="1.3953488372093024" stroke-linecap="round" stroke-linejoin="round" data-pcb-component-id="null" data-pcb-silkscreen-path-id="pcb_silkscreen_path_7" data-type="pcb_silkscreen_path" data-pcb-layer="bottom"/><path class="pcb-silkscreen pcb-silkscreen-bottom" d="M 412.13953488372096 169.2558139534884 L 400 181.39534883720933" fill="none" stroke="#5da9e9" stroke-width="1.3953488372093024" stroke-linecap="round" stroke-linejoin="round" data-pcb-component-id="null" data-pcb-silkscreen-path-id="pcb_silkscreen_path_8" data-type="pcb_silkscreen_path" data-pcb-layer="bottom"/><path class="pcb-silkscreen pcb-silkscreen-bottom" d="M 400 181.39534883720933 L 387.72093023255815 193.67441860465118" fill="none" stroke="#5da9e9" stroke-width="1.3953488372093024" stroke-linecap="round" stroke-linejoin="round" data-pcb-component-id="null" data-pcb-silkscreen-path-id="pcb_silkscreen_path_9" data-type="pcb_silkscreen_path" data-pcb-layer="bottom"/><path class="pcb-silkscreen pcb-silkscreen-bottom" d="M 436.4186046511628 133.39534883720933 L 437.95348837209303 133.39534883720933 L 437.95348837209303 144.4186046511628 L 441.8604651162791 144.4186046511628 L 441.8604651162791 145.8139534883721 L 432.37209302325584 145.8139534883721 L 432.37209302325584 144.4186046511628 L 436.4186046511628 144.4186046511628 L 436.4186046511628 133.39534883720933 Z" fill="none" stroke="#5da9e9" stroke-width="1.3953488372093024" stroke-linecap="round" stroke-linejoin="round" data-pcb-component-id="null" data-pcb-silkscreen-path-id="pcb_silkscreen_path_10" data-type="pcb_silkscreen_path" data-pcb-layer="bottom"/><path class="pcb-silkscreen pcb-silkscreen-bottom" d="M 427.3488372093023 133.2558139534884 L 427.90697674418607 133.2558139534884 L 428.4651162790698 133.39534883720933 L 429.0232558139535 133.53488372093025 L 429.4418604651163 133.8139534883721 L 430 134.09302325581396 L 430.27906976744185 134.51162790697677 L 430.69767441860466 134.93023255813955 L 430.9767441860465 135.34883720930233 L 431.1162790697674 135.90697674418607 L 431.25581395348837 136.46511627906978 L 431.3953488372093 137.16279069767444 L 431.3953488372093 137.8604651162791 L 431.3953488372093 138.55813953488374 L 431.25581395348837 139.11627906976747 L 431.1162790697674 139.8139534883721 L 430.9767441860465 140.37209302325584 L 430.69767441860466 140.79069767441862 L 430.27906976744185 141.2093023255814 L 430 141.6279069767442 L 429.5813953488372 141.90697674418607 L 429.0232558139535 142.18604651162792 L 428.4651162790698 142.4651162790698 L 427.90697674418607 142.4651162790698 L 427.3488372093023 142.60465116279073 L 426.7906976744186 142.4651162790698 L 426.2325581395349 142.4651162790698 L 425.6744186046512 142.18604651162792 L 425.25581395348837 142.046511627907 L 424.83720930232556 141.6279069767442 L 424.4186046511628 141.34883720930236 L 424.13953488372096 140.93023255813955 L 423.86046511627904 140.37209302325584 L 423.72093023255815 139.8139534883721 L 423.5813953488372 139.2558139534884 L 423.4418604651163 138.69767441860466 L 423.4418604651163 138.00000000000003 L 423.4418604651163 137.4418604651163 L 430.69767441860466 137.4418604651163 L 430.69767441860466 138.69767441860466 L 424.13953488372096 138.69767441860466 L 424.9767441860465 138.13953488372096 L 424.9767441860465 138.69767441860466 L 425.1162790697674 139.53488372093025 L 425.3953488372093 140.23255813953492 L 425.8139534883721 140.6511627906977 L 426.3720930232558 141.06976744186048 L 427.06976744186045 141.2093023255814 L 427.3488372093023 141.2093023255814 L 427.7674418604651 141.2093023255814 L 428.3255813953488 141.06976744186048 L 428.74418604651163 140.93023255813955 L 429.16279069767444 140.37209302325584 L 429.5813953488372 139.8139534883721 L 429.8604651162791 139.11627906976747 L 429.8604651162791 138.13953488372096 L 429.8604651162791 137.16279069767444 L 429.72093023255815 136.32558139534885 L 429.4418604651163 135.6279069767442 L 429.16279069767444 135.34883720930233 L 428.6046511627907 134.93023255813955 L 428.04651162790697 134.6511627906977 L 427.2093023255814 134.51162790697677 L 426.6511627906977 134.51162790697677 L 426.2325581395349 134.6511627906977 L 425.8139534883721 134.93023255813955 L 425.5348837209302 135.2093023255814 L 425.25581395348837 135.4883720930233 L 424.9767441860465 135.90697674418607 L 423.5813953488372 135.90697674418607 L 423.72093023255815 135.34883720930233 L 424 134.79069767441862 L 424.27906976744185 134.37209302325584 L 424.83720930232556 133.95348837209303 L 425.25581395348837 133.67441860465118 L 425.95348837209303 133.39534883720933 L 426.51162790697674 133.2558139534884 L 427.3488372093023 133.2558139534884 Z" fill="none" stroke="#5da9e9" stroke-width="1.3953488372093024" stroke-linecap="round" stroke-linejoin="round" data-pcb-component-id="null" data-pcb-silkscreen-path-id="pcb_silkscreen_path_11" data-type="pcb_silkscreen_path" data-pcb-layer="bottom"/><path class="pcb-silkscreen pcb-silkscreen-bottom" d="M 420.37209302325584 133.39534883720933 L 421.7674418604651 133.39534883720933 L 421.7674418604651 145.8139534883721 L 420.37209302325584 145.8139534883721 L 420.37209302325584 133.39534883720933 Z" fill="none" stroke="#5da9e9" stroke-width="1.3953488372093024" stroke-linecap="round" stroke-linejoin="round" data-pcb-component-id="null" data-pcb-silkscreen-path-id="pcb_silkscreen_path_12" data-type="pcb_silkscreen_path" data-pcb-layer="bottom"/><path class="pcb-silkscreen pcb-silkscreen-bottom" d="M 414.51162790697674 133.2558139534884 L 415.2093023255814 133.2558139534884 L 415.7674418604651 133.39534883720933 L 416.3255813953488 133.53488372093025 L 416.74418604651163 133.8139534883721 L 417.16279069767444 134.09302325581396 L 417.5813953488372 134.51162790697677 L 418 134.93023255813955 L 418.27906976744185 135.34883720930233 L 418.4186046511628 135.90697674418607 L 418.5581395348837 136.46511627906978 L 418.69767441860466 137.16279069767444 L 418.69767441860466 137.8604651162791 L 418.69767441860466 138.55813953488374 L 418.5581395348837 139.11627906976747 L 418.4186046511628 139.8139534883721 L 418.27906976744185 140.37209302325584 L 418 140.79069767441862 L 417.5813953488372 141.2093023255814 L 417.30232558139534 141.6279069767442 L 416.74418604651163 141.90697674418607 L 416.3255813953488 142.18604651162792 L 415.7674418604651 142.4651162790698 L 415.2093023255814 142.4651162790698 L 414.6511627906977 142.60465116279073 L 414.09302325581393 142.4651162790698 L 413.5348837209302 142.4651162790698 L 412.9767441860465 142.18604651162792 L 412.5581395348837 142.046511627907 L 412.13953488372096 141.6279069767442 L 411.72093023255815 141.34883720930236 L 411.4418604651163 140.93023255813955 L 411.16279069767444 140.37209302325584 L 411.0232558139535 139.8139534883721 L 410.8837209302326 139.2558139534884 L 410.74418604651163 138.69767441860466 L 410.74418604651163 138.00000000000003 L 410.74418604651163 137.4418604651163 L 418 137.4418604651163 L 418 138.69767441860466 L 411.4418604651163 138.69767441860466 L 412.13953488372096 138.13953488372096 L 412.27906976744185 138.69767441860466 L 412.4186046511628 139.53488372093025 L 412.69767441860466 140.23255813953492 L 413.1162790697674 140.6511627906977 L 413.6744186046512 141.06976744186048 L 414.37209302325584 141.2093023255814 L 414.6511627906977 141.2093023255814 L 415.06976744186045 141.2093023255814 L 415.6279069767442 141.06976744186048 L 416.1860465116279 140.6511627906977 L 416.74418604651163 140.09302325581396 L 417.0232558139535 139.53488372093025 L 417.16279069767444 138.55813953488374 L 417.16279069767444 138.13953488372096 L 417.16279069767444 137.16279069767444 L 417.0232558139535 136.32558139534885 L 416.74418604651163 135.6279069767442 L 416.4651162790698 135.34883720930233 L 415.90697674418607 134.93023255813955 L 415.3488372093023 134.6511627906977 L 414.51162790697674 134.51162790697677 L 413.95348837209303 134.51162790697677 L 413.5348837209302 134.6511627906977 L 413.1162790697674 134.93023255813955 L 412.69767441860466 135.2093023255814 L 412.5581395348837 135.4883720930233 L 412.27906976744185 135.90697674418607 L 410.74418604651163 135.90697674418607 L 411.0232558139535 135.34883720930233 L 411.30232558139534 134.79069767441862 L 411.5813953488372 134.37209302325584 L 412 133.95348837209303 L 412.5581395348837 133.67441860465118 L 413.25581395348837 133.39534883720933 L 413.8139534883721 133.2558139534884 L 414.51162790697674 133.2558139534884 Z" fill="none" stroke="#5da9e9" stroke-width="1.3953488372093024" stroke-linecap="round" stroke-linejoin="round" data-pcb-component-id="null" data-pcb-silkscreen-path-id="pcb_silkscreen_path_13" data-type="pcb_silkscreen_path" data-pcb-layer="bottom"/><path class="pcb-silkscreen pcb-silkscreen-bottom" d="M 407.6744186046512 133.39534883720933 L 409.2093023255814 133.39534883720933 L 409.2093023255814 142.32558139534885 L 407.6744186046512 142.32558139534885 L 407.6744186046512 141.06976744186048 L 407.5348837209302 141.34883720930236 L 407.25581395348837 141.6279069767442 L 406.9767441860465 141.90697674418607 L 406.69767441860466 142.18604651162792 L 406.27906976744185 142.32558139534885 L 406 142.4651162790698 L 405.5813953488372 142.4651162790698 L 405.16279069767444 142.60465116279073 L 404.8837209302326 142.60465116279073 L 404.6046511627907 142.4651162790698 L 404.04651162790697 142.32558139534885 L 403.6279069767442 142.046511627907 L 403.3488372093023 141.90697674418607 L 403.06976744186045 141.6279069767442 L 402.7906976744186 141.06976744186048 L 402.6511627906977 140.79069767441862 L 402.51162790697674 141.06976744186048 L 402.09302325581393 141.4883720930233 L 401.6744186046512 141.90697674418607 L 401.25581395348837 142.18604651162792 L 400.69767441860466 142.4651162790698 L 400.13953488372096 142.60465116279073 L 399.72093023255815 142.60465116279073 L 399.30232558139534 142.4651162790698 L 398.6046511627907 142.32558139534885 L 397.90697674418607 142.046511627907 L 397.3488372093023 141.4883720930233 L 397.06976744186045 140.79069767441862 L 396.7906976744186 140.09302325581396 L 396.7906976744186 139.53488372093025 L 396.7906976744186 133.39534883720933 L 398.3255813953488 133.39534883720933 L 398.3255813953488 139.2558139534884 L 398.4651162790698 139.8139534883721 L 398.6046511627907 140.37209302325584 L 398.8837209302326 140.6511627906977 L 399.16279069767444 140.93023255813955 L 399.72093023255815 141.2093023255814 L 400.27906976744185 141.2093023255814 L 400.83720930232556 141.2093023255814 L 401.25581395348837 140.93023255813955 L 401.6744186046512 140.6511627906977 L 401.95348837209303 140.23255813953492 L 402.2325581395349 139.67441860465118 L 402.2325581395349 139.11627906976747 L 402.2325581395349 133.39534883720933 L 403.7674418604651 133.39534883720933 L 403.7674418604651 139.39534883720933 L 403.90697674418607 140.09302325581396 L 404.1860465116279 140.51162790697677 L 404.4651162790698 140.93023255813955 L 404.8837209302326 141.06976744186048 L 405.30232558139534 141.2093023255814 L 405.5813953488372 141.2093023255814 L 406.13953488372096 141.2093023255814 L 406.69767441860466 140.93023255813955 L 407.1162790697674 140.6511627906977 L 407.3953488372093 140.09302325581396 L 407.6744186046512 139.67441860465118 L 407.6744186046512 138.97674418604655 L 407.6744186046512 133.39534883720933 Z" fill="none" stroke="#5da9e9" stroke-width="1.3953488372093024" stroke-linecap="round" stroke-linejoin="round" data-pcb-component-id="null" data-pcb-silkscreen-path-id="pcb_silkscreen_path_14" data-type="pcb_silkscreen_path" data-pcb-layer="bottom"/><path class="pcb-silkscreen pcb-silkscreen-bottom" d="M 391.2093023255814 133.2558139534884 L 391.7674418604651 133.2558139534884 L 392.4651162790698 133.39534883720933 L 392.8837209302326 133.53488372093025 L 393.4418604651163 133.8139534883721 L 393.86046511627904 134.09302325581396 L 394.27906976744185 134.51162790697677 L 394.5581395348837 134.93023255813955 L 394.83720930232556 135.34883720930233 L 395.1162790697674 135.90697674418607 L 395.25581395348837 136.46511627906978 L 395.3953488372093 137.16279069767444 L 395.3953488372093 137.8604651162791 L 395.3953488372093 138.55813953488374 L 395.25581395348837 139.11627906976747 L 395.1162790697674 139.8139534883721 L 394.83720930232556 140.37209302325584 L 394.5581395348837 140.79069767441862 L 394.27906976744185 141.2093023255814 L 393.86046511627904 141.6279069767442 L 393.4418604651163 141.90697674418607 L 393.0232558139535 142.18604651162792 L 392.4651162790698 142.4651162790698 L 391.90697674418607 142.4651162790698 L 391.3488372093023 142.60465116279073 L 390.6511627906977 142.4651162790698 L 390.09302325581393 142.4651162790698 L 389.6744186046512 142.18604651162792 L 389.1162790697674 142.046511627907 L 388.69767441860466 141.6279069767442 L 388.4186046511628 141.34883720930236 L 388.13953488372096 140.93023255813955 L 387.86046511627904 140.37209302325584 L 387.5813953488372 139.8139534883721 L 387.4418604651163 139.2558139534884 L 387.30232558139534 138.69767441860466 L 387.30232558139534 138.00000000000003 L 387.30232558139534 137.4418604651163 L 394.5581395348837 137.4418604651163 L 394.5581395348837 138.69767441860466 L 388.13953488372096 138.69767441860466 L 388.83720930232556 138.13953488372096 L 388.83720930232556 138.69767441860466 L 388.9767441860465 139.53488372093025 L 389.3953488372093 140.23255813953492 L 389.8139534883721 140.6511627906977 L 390.37209302325584 141.06976744186048 L 390.93023255813955 141.2093023255814 L 391.3488372093023 141.2093023255814 L 391.6279069767442 141.2093023255814 L 392.3255813953488 141.06976744186048 L 392.8837209302326 140.6511627906977 L 393.30232558139534 140.09302325581396 L 393.5813953488372 139.53488372093025 L 393.86046511627904 138.55813953488374 L 393.86046511627904 138.13953488372096 L 393.86046511627904 137.16279069767444 L 393.72093023255815 136.32558139534885 L 393.30232558139534 135.6279069767442 L 393.16279069767444 135.34883720930233 L 392.6046511627907 134.93023255813955 L 392.3255813953488 134.79069767441862 L 391.6279069767442 134.51162790697677 L 391.2093023255814 134.51162790697677 L 390.6511627906977 134.51162790697677 L 390.09302325581393 134.6511627906977 L 389.6744186046512 134.93023255813955 L 389.3953488372093 135.2093023255814 L 389.1162790697674 135.4883720930233 L 388.9767441860465 135.90697674418607 L 387.4418604651163 135.90697674418607 L 387.5813953488372 135.34883720930233 L 387.86046511627904 134.79069767441862 L 388.27906976744185 134.37209302325584 L 388.69767441860466 133.95348837209303 L 389.25581395348837 133.67441860465118 L 389.8139534883721 133.39534883720933 L 390.51162790697674 133.2558139534884 L 391.2093023255814 133.2558139534884 Z" fill="none" stroke="#5da9e9" stroke-width="1.3953488372093024" stroke-linecap="round" stroke-linejoin="round" data-pcb-component-id="null" data-pcb-silkscreen-path-id="pcb_silkscreen_path_15" data-type="pcb_silkscreen_path" data-pcb-layer="bottom"/><path class="pcb-silkscreen pcb-silkscreen-bottom" d="M 382.83720930232556 133.2558139534884 L 383.5348837209302 133.2558139534884 L 383.95348837209303 133.39534883720933 L 384.3720930232558 133.53488372093025 L 384.7906976744186 133.8139534883721 L 385.06976744186045 134.09302325581396 L 385.2093023255814 134.51162790697677 L 385.3488372093023 135.06976744186048 L 385.3488372093023 135.6279069767442 L 385.3488372093023 141.06976744186048 L 386.74418604651163 141.06976744186048 L 386.74418604651163 142.32558139534885 L 385.3488372093023 142.32558139534885 L 385.3488372093023 144.83720930232562 L 383.8139534883721 144.83720930232562 L 383.8139534883721 142.32558139534885 L 382.13953488372096 142.32558139534885 L 382.13953488372096 141.06976744186048 L 383.8139534883721 141.06976744186048 L 383.8139534883721 135.6279069767442 L 383.6744186046512 135.06976744186048 L 383.5348837209302 134.6511627906977 L 383.1162790697674 134.51162790697677 L 382.83720930232556 134.51162790697677 L 382.5581395348837 134.37209302325584 L 382.13953488372096 134.51162790697677 L 382.13953488372096 133.2558139534884 L 382.27906976744185 133.2558139534884 L 382.5581395348837 133.2558139534884 L 382.83720930232556 133.2558139534884 Z" fill="none" stroke="#5da9e9" stroke-width="1.3953488372093024" stroke-linecap="round" stroke-linejoin="round" data-pcb-component-id="null" data-pcb-silkscreen-path-id="pcb_silkscreen_path_16" data-type="pcb_silkscreen_path" data-pcb-layer="bottom"/><path class="pcb-silkscreen pcb-silkscreen-bottom" d="M 378.93023255813955 133.39534883720933 L 380.4651162790698 133.39534883720933 L 380.4651162790698 142.32558139534885 L 378.93023255813955 142.32558139534885 L 378.93023255813955 140.79069767441862 L 378.7906976744186 141.2093023255814 L 378.37209302325584 141.90697674418607 L 377.8139534883721 142.32558139534885 L 377.25581395348837 142.4651162790698 L 376.83720930232556 142.60465116279073 L 376.5581395348837 142.60465116279073 L 376.27906976744185 142.4651162790698 L 376.27906976744185 141.06976744186048 L 376.5581395348837 141.06976744186048 L 376.83720930232556 141.06976744186048 L 377.25581395348837 141.06976744186048 L 377.8139534883721 140.93023255813955 L 378.2325581395349 140.6511627906977 L 378.6511627906977 140.37209302325584 L 378.7906976744186 139.8139534883721 L 378.93023255813955 139.2558139534884 L 378.93023255813955 138.97674418604655 L 378.93023255813955 133.39534883720933 Z" fill="none" stroke="#5da9e9" stroke-width="1.3953488372093024" stroke-linecap="round" stroke-linejoin="round" data-pcb-component-id="null" data-pcb-silkscreen-path-id="pcb_silkscreen_path_17" data-type="pcb_silkscreen_path" data-pcb-layer="bottom"/><path class="pcb-silkscreen pcb-silkscreen-bottom" d="M 371.25581395348837 133.2558139534884 L 371.8139534883721 133.2558139534884 L 372.37209302325584 133.39534883720933 L 372.93023255813955 133.53488372093025 L 373.48837209302326 133.8139534883721 L 373.90697674418607 134.09302325581396 L 374.3255813953488 134.51162790697677 L 374.6046511627907 134.93023255813955 L 374.8837209302326 135.34883720930233 L 375.16279069767444 135.90697674418607 L 375.30232558139534 136.6046511627907 L 375.4418604651163 137.16279069767444 L 375.4418604651163 137.8604651162791 L 375.4418604651163 138.55813953488374 L 375.30232558139534 139.2558139534884 L 375.16279069767444 139.8139534883721 L 374.8837209302326 140.37209302325584 L 374.6046511627907 140.93023255813955 L 374.3255813953488 141.34883720930236 L 373.90697674418607 141.6279069767442 L 373.48837209302326 142.046511627907 L 372.93023255813955 142.18604651162792 L 372.37209302325584 142.4651162790698 L 371.8139534883721 142.4651162790698 L 371.25581395348837 142.60465116279073 L 370.69767441860466 142.4651162790698 L 370.1395348837209 142.4651162790698 L 369.5813953488372 142.18604651162792 L 369.0232558139535 142.046511627907 L 368.6046511627907 141.6279069767442 L 368.1860465116279 141.34883720930236 L 367.90697674418607 140.93023255813955 L 367.62790697674416 140.37209302325584 L 367.3488372093023 139.8139534883721 L 367.2093023255814 139.2558139534884 L 367.06976744186045 138.55813953488374 L 367.06976744186045 137.8604651162791 L 367.06976744186045 137.16279069767444 L 367.2093023255814 136.46511627906978 L 367.3488372093023 135.90697674418607 L 367.62790697674416 135.34883720930233 L 367.90697674418607 134.93023255813955 L 368.1860465116279 134.51162790697677 L 368.6046511627907 134.09302325581396 L 369.0232558139535 133.8139534883721 L 369.5813953488372 133.53488372093025 L 370.1395348837209 133.39534883720933 L 370.69767441860466 133.2558139534884 L 371.25581395348837 133.2558139534884 Z" fill="none" stroke="#5da9e9" stroke-width="1.3953488372093024" stroke-linecap="round" stroke-linejoin="round" data-pcb-component-id="null" data-pcb-silkscreen-path-id="pcb_silkscreen_path_18" data-type="pcb_silkscreen_path" data-pcb-layer="bottom"/><path class="pcb-silkscreen pcb-silkscreen-bottom" d="M 371.25581395348837 134.51162790697677 L 370.83720930232556 134.51162790697677 L 370.1395348837209 134.79069767441862 L 369.5813953488372 135.2093023255814 L 369.16279069767444 135.76744186046514 L 368.8837209302326 136.46511627906978 L 368.6046511627907 137.30232558139537 L 368.6046511627907 137.8604651162791 L 368.6046511627907 138.4186046511628 L 368.8837209302326 139.2558139534884 L 369.16279069767444 140.09302325581396 L 369.5813953488372 140.6511627906977 L 370.1395348837209 141.06976744186048 L 370.83720930232556 141.2093023255814 L 371.25581395348837 141.2093023255814 L 371.6744186046512 141.2093023255814 L 372.37209302325584 140.93023255813955 L 372.93023255813955 140.6511627906977 L 373.3488372093023 140.09302325581396 L 373.7674418604651 139.2558139534884 L 373.90697674418607 138.4186046511628 L 373.90697674418607 137.8604651162791 L 373.90697674418607 137.30232558139537 L 373.7674418604651 136.46511627906978 L 373.3488372093023 135.76744186046514 L 372.93023255813955 135.2093023255814 L 372.37209302325584 134.79069767441862 L 371.6744186046512 134.51162790697677 L 371.25581395348837 134.51162790697677 Z" fill="none" stroke="#5da9e9" stroke-width="1.3953488372093024" stroke-linecap="round" stroke-linejoin="round" data-pcb-component-id="null" data-pcb-silkscreen-path-id="pcb_silkscreen_path_19" data-type="pcb_silkscreen_path" data-pcb-layer="bottom"/><path class="pcb-silkscreen pcb-silkscreen-bottom" d="M 364.13953488372096 133.39534883720933 L 365.5348837209302 133.39534883720933 L 365.5348837209302 142.32558139534885 L 364.13953488372096 142.32558139534885 L 364.13953488372096 141.06976744186048 L 363.8604651162791 141.34883720930236 L 363.30232558139534 141.90697674418607 L 362.6046511627907 142.32558139534885 L 361.7674418604651 142.4651162790698 L 361.2093023255814 142.60465116279073 L 360.51162790697674 142.4651162790698 L 359.3953488372093 142.046511627907 L 358.5581395348837 141.2093023255814 L 358.1395348837209 139.95348837209303 L 358.1395348837209 139.2558139534884 L 358.1395348837209 133.39534883720933 L 359.6744186046512 133.39534883720933 L 359.6744186046512 138.97674418604655 L 359.8139534883721 139.95348837209303 L 360.2325581395349 140.6511627906977 L 360.7906976744186 141.06976744186048 L 361.2093023255814 141.2093023255814 L 361.7674418604651 141.2093023255814 L 362.3255813953488 141.2093023255814 L 363.0232558139535 140.93023255813955 L 363.4418604651163 140.51162790697677 L 363.72093023255815 139.95348837209303 L 364 139.39534883720933 L 364.13953488372096 138.69767441860466 L 364.13953488372096 133.39534883720933 Z" fill="none" stroke="#5da9e9" stroke-width="1.3953488372093024" stroke-linecap="round" stroke-linejoin="round" data-pcb-component-id="null" data-pcb-silkscreen-path-id="pcb_silkscreen_path_20" data-type="pcb_silkscreen_path" data-pcb-layer="bottom"/><rect class="pcb-pad" fill="rgb(200, 52, 52)" x="300.23255813953483" y="233.72093023255815" width="34.883720930232556" height="34.883720930232556" data-type="pcb_smtpad" data-pcb-layer="top"/><rect class="pcb-pad" fill="rgb(200, 52, 52)" x="464.8837209302326" y="233.72093023255815" width="34.883720930232556" height="34.883720930232556" data-type="pcb_smtpad" data-pcb-layer="top"/><rect class="pcb-pad" fill="rgb(200, 52, 52)" x="538.1395348837209" y="426.27906976744185" width="16.744186046511626" height="12.558139534883722" data-type="pcb_smtpad" data-pcb-layer="top"/><rect class="pcb-pad" fill="rgb(200, 52, 52)" x="559.0697674418604" y="426.27906976744185" width="16.744186046511626" height="12.558139534883722" data-type="pcb_smtpad" data-pcb-layer="top"/><rect class="pcb-pad" fill="rgb(200, 52, 52)" x="580" y="426.27906976744185" width="16.744186046511626" height="12.558139534883722" data-type="pcb_smtpad" data-pcb-layer="top"/><rect class="pcb-pad" fill="rgb(200, 52, 52)" x="466.6279069767442" y="425.93023255813955" width="11.162790697674419" height="13.25581395348837" data-type="pcb_smtpad" data-pcb-layer="top"/><rect class="pcb-pad" fill="rgb(200, 52, 52)" x="489.6511627906977" y="425.93023255813955" width="11.162790697674419" height="13.25581395348837" data-type="pcb_smtpad" data-pcb-layer="top"/><path class="pcb-trace" stroke="rgb(200, 52, 52)" fill="none" d="M 382.27906976744185 460.4651162790698 L 409.23909281246944 433.5050932340422" stroke-width="2.093023255813953" stroke-linecap="round" stroke-linejoin="round" shape-rendering="crispEdges" data-type="pcb_trace" data-pcb-layer="top"/><path class="pcb-trace" stroke="rgb(200, 52, 52)" fill="none" d="M 409.23909281246944 433.5050932340422 L 447.85476389163307 433.5050932340422" stroke-width="2.093023255813953" stroke-linecap="round" stroke-linejoin="round" shape-rendering="crispEdges" data-type="pcb_trace" data-pcb-layer="top"/><path class="pcb-trace" stroke="rgb(200, 52, 52)" fill="none" d="M 447.85476389163307 433.5050932340422 L 456.0152768263457 441.66560616875483" stroke-width="2.093023255813953" stroke-linecap="round" stroke-linejoin="round" shape-rendering="crispEdges" data-type="pcb_trace" data-pcb-layer="top"/><path class="pcb-trace" stroke="rgb(200, 52, 52)" fill="none" d="M 456.0152768263457 441.66560616875483 L 486.12509150566376 441.66560616875483" stroke-width="2.093023255813953" stroke-linecap="round" stroke-linejoin="round" shape-rendering="crispEdges" data-type="pcb_trace" data-pcb-layer="top"/><path class="pcb-trace" stroke="rgb(200, 52, 52)" fill="none" d="M 486.12509150566376 441.66560616875483 L 486.12509150566376 441.66560616875483" stroke-width="2.093023255813953" stroke-linecap="round" stroke-linejoin="round" shape-rendering="crispEdges" data-type="pcb_trace" data-pcb-layer="top"/><path class="pcb-trace" stroke="rgb(200, 52, 52)" fill="none" d="M 486.12509150566376 441.66560616875483 L 495.2325581395349 432.5581395348837" stroke-width="2.093023255813953" stroke-linecap="round" stroke-linejoin="round" shape-rendering="crispEdges" data-type="pcb_trace" data-pcb-layer="top"/><path class="pcb-trace" stroke="rgb(200, 52, 52)" fill="none" d="M 472.2093023255814 432.5581395348837 L 488.95348837209303 415.81395348837214" stroke-width="2.093023255813953" stroke-linecap="round" stroke-linejoin="round" shape-rendering="crispEdges" data-type="pcb_trace" data-pcb-layer="top"/><path class="pcb-trace" stroke="rgb(200, 52, 52)" fill="none" d="M 488.95348837209303 415.81395348837214 L 538.5275586865464 415.81395348837214" stroke-width="2.093023255813953" stroke-linecap="round" stroke-linejoin="round" shape-rendering="crispEdges" data-type="pcb_trace" data-pcb-layer="top"/><path class="pcb-trace" stroke="rgb(200, 52, 52)" fill="none" d="M 538.5275586865464 415.81395348837214 L 539.5348837209302 415.81395348837214" stroke-width="2.093023255813953" stroke-linecap="round" stroke-linejoin="round" shape-rendering="crispEdges" data-type="pcb_trace" data-pcb-layer="top"/><path class="pcb-trace" stroke="rgb(200, 52, 52)" fill="none" d="M 539.5348837209302 415.81395348837214 L 539.5348837209302 415.81395348837214" stroke-width="2.093023255813953" stroke-linecap="round" stroke-linejoin="round" shape-rendering="crispEdges" data-type="pcb_trace" data-pcb-layer="top"/><path class="pcb-trace" stroke="rgb(200, 52, 52)" fill="none" d="M 561.8604651162791 415.81395348837214 L 561.8604651162791 415.81395348837214" stroke-width="2.093023255813953" stroke-linecap="round" stroke-linejoin="round" shape-rendering="crispEdges" data-type="pcb_trace" data-pcb-layer="top"/><path class="pcb-trace" stroke="rgb(200, 52, 52)" fill="none" d="M 561.8604651162791 415.81395348837214 L 561.8604651162791 426.9767441860465" stroke-width="2.093023255813953" stroke-linecap="round" stroke-linejoin="round" shape-rendering="crispEdges" data-type="pcb_trace" data-pcb-layer="top"/><path class="pcb-trace" stroke="rgb(200, 52, 52)" fill="none" d="M 561.8604651162791 426.9767441860465 L 567.4418604651163 432.5581395348837" stroke-width="2.093023255813953" stroke-linecap="round" stroke-linejoin="round" shape-rendering="crispEdges" data-type="pcb_trace" data-pcb-layer="top"/><path class="pcb-trace" stroke="rgb(200, 52, 52)" fill="none" d="M 417.72093023255815 460.4651162790698 L 417.72093023255815 448.3255813953489" stroke-width="2.093023255813953" stroke-linecap="round" stroke-linejoin="round" shape-rendering="crispEdges" data-type="pcb_trace" data-pcb-layer="top"/><path class="pcb-trace" stroke="rgb(200, 52, 52)" fill="none" d="M 417.72093023255815 448.3255813953489 L 426.4025412581793 439.6439703697277" stroke-width="2.093023255813953" stroke-linecap="round" stroke-linejoin="round" shape-rendering="crispEdges" data-type="pcb_trace" data-pcb-layer="top"/><path class="pcb-trace" stroke="rgb(200, 52, 52)" fill="none" d="M 426.4025412581793 439.6439703697277 L 427.90697674418607 438.13953488372096" stroke-width="2.093023255813953" stroke-linecap="round" stroke-linejoin="round" shape-rendering="crispEdges" data-type="pcb_trace" data-pcb-layer="top"/><path class="pcb-trace" stroke="rgb(200, 52, 52)" fill="none" d="M 427.90697674418607 438.13953488372096 L 427.90697674418607 438.13953488372096" stroke-width="2.093023255813953" stroke-linecap="round" stroke-linejoin="round" shape-rendering="crispEdges" data-type="pcb_trace" data-pcb-layer="top"/><path class="pcb-trace" stroke="rgb(200, 52, 52)" fill="none" d="M 552.1627906976744 347.2674418604651 L 552.1627906976744 347.2674418604651" stroke-width="2.093023255813953" stroke-linecap="round" stroke-linejoin="round" shape-rendering="crispEdges" data-type="pcb_trace" data-pcb-layer="top"/><path class="pcb-trace" stroke="rgb(200, 52, 52)" fill="none" d="M 552.1627906976744 347.2674418604651 L 552.1627906976744 321" stroke-width="2.093023255813953" stroke-linecap="round" stroke-linejoin="round" shape-rendering="crispEdges" data-type="pcb_trace" data-pcb-layer="top"/><path class="pcb-trace" stroke="rgb(200, 52, 52)" fill="none" d="M 552.1627906976744 321 L 482.3255813953489 251.16279069767444" stroke-width="2.093023255813953" stroke-linecap="round" stroke-linejoin="round" shape-rendering="crispEdges" data-type="pcb_trace" data-pcb-layer="top"/><path class="pcb-trace" stroke="rgb(200, 52, 52)" fill="none" d="M 546.5116279069767 432.5581395348837 L 546.5116279069767 416.2058804186148" stroke-width="2.093023255813953" stroke-linecap="round" stroke-linejoin="round" shape-rendering="crispEdges" data-type="pcb_trace" data-pcb-layer="top"/><path class="pcb-trace" stroke="rgb(200, 52, 52)" fill="none" d="M 546.5116279069767 416.2058804186148 L 479.1429567906875 348.8372093023256" stroke-width="2.093023255813953" stroke-linecap="round" stroke-linejoin="round" shape-rendering="crispEdges" data-type="pcb_trace" data-pcb-layer="top"/><path class="pcb-trace" stroke="rgb(200, 52, 52)" fill="none" d="M 479.1429567906875 348.8372093023256 L 415.3488372093023 348.8372093023256" stroke-width="2.093023255813953" stroke-linecap="round" stroke-linejoin="round" shape-rendering="crispEdges" data-type="pcb_trace" data-pcb-layer="top"/><path class="pcb-trace" stroke="rgb(200, 52, 52)" fill="none" d="M 415.3488372093023 348.8372093023256 L 317.6744186046511 251.16279069767444" stroke-width="2.093023255813953" stroke-linecap="round" stroke-linejoin="round" shape-rendering="crispEdges" data-type="pcb_trace" data-pcb-layer="top"/><path class="pcb-silkscreen pcb-silkscreen-top" d="M 317.6744186046511 279.06976744186045 L 317.6744186046511 223.25581395348837" fill="none" stroke="#f2eda1" stroke-width="1.3953488372093024" stroke-linecap="round" stroke-linejoin="round" data-pcb-component-id="pcb_component_0" data-pcb-silkscreen-path-id="pcb_silkscreen_path_0" data-type="pcb_silkscreen_path" data-pcb-layer="top"/><path class="pcb-silkscreen pcb-silkscreen-top" d="M 309.30232558139534 251.16279069767444 L 326.04651162790697 251.16279069767444" fill="none" stroke="#f2eda1" stroke-width="1.3953488372093024" stroke-linecap="round" stroke-linejoin="round" data-pcb-component-id="pcb_component_0" data-pcb-silkscreen-path-id="pcb_silkscreen_path_1" data-type="pcb_silkscreen_path" data-pcb-layer="top"/><text x="0" y="0" dx="0" dy="0" fill="#f2eda1" font-family="Arial, sans-serif" font-size="13.953488372093023" text-anchor="middle" dominant-baseline="central" transform="matrix(1,0,0,1,317.6744186046511,293.0232558139535)" class="pcb-silkscreen-text pcb-silkscreen-top" data-pcb-silkscreen-text-id="pcb_component_0" stroke="none" data-type="pcb_silkscreen_text" data-pcb-layer="top">+</text><text x="0" y="0" dx="0" dy="0" fill="#f2eda1" font-family="Arial, sans-serif" font-size="13.953488372093023" text-anchor="middle" dominant-baseline="central" transform="matrix(1,0,0,1,482.3255813953489,293.0232558139535)" class="pcb-silkscreen-text pcb-silkscreen-top" data-pcb-silkscreen-text-id="pcb_component_0" stroke="none" data-type="pcb_silkscreen_text" data-pcb-layer="top">-</text><path class="pcb-silkscreen pcb-silkscreen-top" d="M 532.5581395348837 453.48837209302326 L 602.3255813953489 453.48837209302326 L 602.3255813953489 411.6279069767442 L 532.5581395348837 411.6279069767442 L 532.5581395348837 453.48837209302326 Z" fill="none" stroke="#f2eda1" stroke-width="1.3953488372093024" stroke-linecap="round" stroke-linejoin="round" data-pcb-component-id="pcb_component_1" data-pcb-silkscreen-path-id="pcb_silkscreen_path_2" data-type="pcb_silkscreen_path" data-pcb-layer="top"/><path class="pcb-silkscreen pcb-silkscreen-top" d="M 495.2325581395349 420.34883720930236 L 463.83720930232556 420.34883720930236 L 463.83720930232556 444.7674418604651 L 495.2325581395349 444.7674418604651" fill="none" stroke="#f2eda1" stroke-width="1.3953488372093024" stroke-linecap="round" stroke-linejoin="round" data-pcb-component-id="pcb_component_2" data-pcb-silkscreen-path-id="pcb_silkscreen_path_3" data-type="pcb_silkscreen_path" data-pcb-layer="top"/><text x="0" y="0" dx="0" dy="0" fill="#f2eda1" font-family="Arial, sans-serif" font-size="5.5813953488372094" text-anchor="middle" dominant-baseline="central" transform="matrix(1,0,0,1,483.72093023255815,413.37209302325584)" class="pcb-silkscreen-text pcb-silkscreen-top" data-pcb-silkscreen-text-id="pcb_component_2" stroke="none" data-type="pcb_silkscreen_text" data-pcb-layer="top">R1</text><path class="pcb-silkscreen pcb-silkscreen-top" d="M 365.1162790697674 481.3953488372093 L 434.8837209302326 481.3953488372093 L 434.8837209302326 439.5348837209302 L 365.1162790697674 439.5348837209302 L 365.1162790697674 481.3953488372093 Z" fill="none" stroke="#f2eda1" stroke-width="1.3953488372093024" stroke-linecap="round" stroke-linejoin="round" data-pcb-component-id="pcb_component_3" data-pcb-silkscreen-path-id="pcb_silkscreen_path_4" data-type="pcb_silkscreen_path" data-pcb-layer="top"/><text x="0" y="0" dx="0" dy="0" fill="#f2eda1" font-family="Arial, sans-serif" font-size="11.162790697674419" text-anchor="middle" dominant-baseline="central" transform="matrix(1,0,0,1,382.27906976744185,491.1627906976744)" class="pcb-silkscreen-text pcb-silkscreen-top" data-pcb-silkscreen-text-id="pcb_component_3" stroke="none" data-type="pcb_silkscreen_text" data-pcb-layer="top">+</text><text x="0" y="0" dx="0" dy="0" fill="#f2eda1" font-family="Arial, sans-serif" font-size="11.162790697674419" text-anchor="middle" dominant-baseline="central" transform="matrix(1,0,0,1,400,429.7674418604651)" class="pcb-silkscreen-text pcb-silkscreen-top" data-pcb-silkscreen-text-id="pcb_component_3" stroke="none" data-type="pcb_silkscreen_text" data-pcb-layer="top">LED</text><g data-type="pcb_plated_hole" data-pcb-layer="through"><circle class="pcb-hole-outer" fill="rgb(200, 52, 52)" cx="382.27906976744185" cy="460.4651162790698" r="12.558139534883722" data-type="pcb_plated_hole" data-pcb-layer="top"/><circle class="pcb-hole-inner" fill="#FF26E2" cx="382.27906976744185" cy="460.4651162790698" r="6.976744186046512" data-type="pcb_plated_hole_drill" data-pcb-layer="drill"/></g><g data-type="pcb_plated_hole" data-pcb-layer="through"><circle class="pcb-hole-outer" fill="rgb(200, 52, 52)" cx="417.72093023255815" cy="460.4651162790698" r="12.558139534883722" data-type="pcb_plated_hole" data-pcb-layer="top"/><circle class="pcb-hole-inner" fill="#FF26E2" cx="417.72093023255815" cy="460.4651162790698" r="6.976744186046512" data-type="pcb_plated_hole_drill" data-pcb-layer="drill"/></g><g data-type="pcb_via" data-pcb-layer="through"><circle class="pcb-hole-outer" fill="rgb(200, 52, 52)" cx="539.5348837209302" cy="415.81395348837214" r="2.093023255813953" data-type="pcb_via" data-pcb-layer="top"/><circle class="pcb-hole-inner" fill="#FF26E2" cx="539.5348837209302" cy="415.81395348837214" r="1.3953488372093024" data-type="pcb_via" data-pcb-layer="drill"/></g><g data-type="pcb_via" data-pcb-layer="through"><circle class="pcb-hole-outer" fill="rgb(200, 52, 52)" cx="561.8604651162791" cy="415.81395348837214" r="2.093023255813953" data-type="pcb_via" data-pcb-layer="top"/><circle class="pcb-hole-inner" fill="#FF26E2" cx="561.8604651162791" cy="415.81395348837214" r="1.3953488372093024" data-type="pcb_via" data-pcb-layer="drill"/></g><g data-type="pcb_via" data-pcb-layer="through"><circle class="pcb-hole-outer" fill="rgb(200, 52, 52)" cx="427.90697674418607" cy="438.13953488372096" r="2.093023255813953" data-type="pcb_via" data-pcb-layer="top"/><circle class="pcb-hole-inner" fill="#FF26E2" cx="427.90697674418607" cy="438.13953488372096" r="1.3953488372093024" data-type="pcb_via" data-pcb-layer="drill"/></g><g data-type="pcb_via" data-pcb-layer="through"><circle class="pcb-hole-outer" fill="rgb(200, 52, 52)" cx="552.1627906976744" cy="347.2674418604651" r="2.093023255813953" data-type="pcb_via" data-pcb-layer="top"/><circle class="pcb-hole-inner" fill="#FF26E2" cx="552.1627906976744" cy="347.2674418604651" r="1.3953488372093024" data-type="pcb_via" data-pcb-layer="drill"/></g><circle class="pcb-hole" cx="400" cy="544.1860465116279" r="17.441860465116278" fill="#FF26E2" data-type="pcb_hole" data-pcb-layer="drill"/></svg>