<svg xmlns="http://www.w3.org/2000/svg" width="800" height="600" data-software-used-string="@tscircuit/core@0.0.1112"><style></style><rect class="boundary" x="0" y="0" fill="#000" width="800" height="600" data-type="pcb_background" data-pcb-layer="global"/><rect class="pcb-boundary" fill="none" stroke="#fff" stroke-width="0.3" x="99.39879759519039" y="13.360053440213733" width="601.2024048096191" height="573.2798931195725" data-type="pcb_boundary" data-pcb-layer="global"/><path class="pcb-board" d="M 400 586.6399465597863 L 420.04008016032066 579.9599198396793 L 430.72812291249164 570.6078824315298 L 437.4081496325985 557.2478289913159 L 440.0801603206413 539.8797595190381 L 440.0801603206413 519.8396793587174 L 437.54175016700066 506.74682698730794 L 461.0554442217769 528.1229124916499 L 490.0467601870407 544.9565798263193 L 523.4468937875752 554.8430193720775 L 559.1182364729459 556.312625250501 L 595.1903807615231 548.8309953239814 L 629.2585170340682 532.6653306613226 L 658.5170340681364 508.88443553774215 L 681.2291249164997 478.9579158316633 L 695.6579826319305 444.6225784903139 L 700.6012024048096 407.8824315297261 L 695.6579826319305 370.34068136272543 L 681.2291249164997 333.19973279893117 L 658.5170340681364 297.12758851035403 L 629.2585170340682 262.52505010020036 L 595.1903807615231 229.52571810287242 L 559.1182364729459 197.72879091516367 L 523.4468937875752 167.13426853707412 L 490.0467601870407 137.74215096860388 L 461.0554442217769 109.81963927855708 L 437.54175016700066 83.63393453573815 L 420.3072812291249 60.38744154976615 L 408.8176352705411 40.88176352705409 L 402.67201068804275 26.052104208416836 L 400.4008016032064 16.566466265865017 L 400 13.360053440213733 L 399.5991983967936 16.566466265865017 L 397.32798931195725 26.052104208416836 L 391.1823647294589 40.88176352705409 L 379.6927187708751 60.38744154976615 L 362.45824983299934 83.63393453573815 L 338.9445557782231 109.81963927855708 L 309.9532398129593 137.74215096860388 L 276.55310621242484 167.13426853707412 L 240.8817635270541 197.72879091516367 L 204.80961923847696 229.52571810287242 L 170.74148296593185 262.52505010020036 L 141.4829659318637 297.12758851035403 L 118.7708750835003 333.19973279893117 L 104.34201736806949 370.34068136272543 L 99.39879759519039 407.8824315297261 L 104.34201736806949 444.6225784903139 L 118.7708750835003 478.9579158316633 L 141.4829659318637 508.88443553774215 L 170.74148296593185 532.6653306613226 L 204.80961923847696 548.8309953239814 L 240.8817635270541 556.312625250501 L 276.55310621242484 554.8430193720775 L 309.9532398129593 544.9565798263193 L 338.9445557782231 528.1229124916499 L 362.45824983299934 506.74682698730794 L 359.9198396793587 519.8396793587174 L 359.9198396793587 539.8797595190381 L 362.5918503674015 557.2478289913159 L 369.27187708750836 570.6078824315298 L 379.95991983967934 579.9599198396793 Z" fill="none" stroke="rgba(255, 255, 255, 0.5)" stroke-width="1.3360053440213762" data-type="pcb_board" data-pcb-layer="board"/><path class="pcb-trace" stroke="rgb(77, 127, 196)" fill="none" d="M 394.6559786239145 295.39078156312627 L 394.6559786239145 295.39078156312627" stroke-width="2.004008016032064" stroke-linecap="round" stroke-linejoin="round" shape-rendering="crispEdges" data-type="pcb_trace" data-pcb-layer="bottom"/><path class="pcb-trace" stroke="rgb(77, 127, 196)" fill="none" d="M 394.6559786239145 295.39078156312627 L 394.6559786239145 179.61624712868306" stroke-width="2.004008016032064" stroke-linecap="round" stroke-linejoin="round" shape-rendering="crispEdges" data-type="pcb_trace" data-pcb-layer="bottom"/><path class="pcb-trace" stroke="rgb(77, 127, 196)" fill="none" d="M 394.6559786239145 179.61624712868306 L 399.8018101056016 174.47041564699595" stroke-width="2.004008016032064" stroke-linecap="round" stroke-linejoin="round" shape-rendering="crispEdges" data-type="pcb_trace" data-pcb-layer="bottom"/><path class="pcb-trace" stroke="rgb(77, 127, 196)" fill="none" d="M 399.8018101056016 174.47041564699595 L 400 172.4782899131596" stroke-width="2.004008016032064" stroke-linecap="round" stroke-linejoin="round" shape-rendering="crispEdges" data-type="pcb_trace" data-pcb-layer="bottom"/><path class="pcb-trace" stroke="rgb(77, 127, 196)" fill="none" d="M 400 172.4782899131596 L 400 172.4782899131596" stroke-width="2.004008016032064" stroke-linecap="round" stroke-linejoin="round" shape-rendering="crispEdges" data-type="pcb_trace" data-pcb-layer="bottom"/><path class="pcb-trace" stroke="rgb(77, 127, 196)" fill="none" d="M 323.44689378757516 399.59919839679355 L 330.7545456951788 399.59919839679355" stroke-width="2.004008016032064" stroke-linecap="round" stroke-linejoin="round" shape-rendering="crispEdges" data-type="pcb_trace" data-pcb-layer="bottom"/><path class="pcb-trace" stroke="rgb(77, 127, 196)" fill="none" d="M 330.7545456951788 399.59919839679355 L 404.9432197728791 325.4105243190933" stroke-width="2.004008016032064" stroke-linecap="round" stroke-linejoin="round" shape-rendering="crispEdges" data-type="pcb_trace" data-pcb-layer="bottom"/><path class="pcb-trace" stroke="rgb(77, 127, 196)" fill="none" d="M 404.9432197728791 325.4105243190933 L 404.9432197728791 318.73158080867614" stroke-width="2.004008016032064" stroke-linecap="round" stroke-linejoin="round" shape-rendering="crispEdges" data-type="pcb_trace" data-pcb-layer="bottom"/><path class="pcb-trace" stroke="rgb(77, 127, 196)" fill="none" d="M 404.9432197728791 318.73158080867614 L 404.9432197728791 318.73158080867614" stroke-width="2.004008016032064" stroke-linecap="round" stroke-linejoin="round" shape-rendering="crispEdges" data-type="pcb_trace" data-pcb-layer="bottom"/><path class="pcb-trace" stroke="rgb(77, 127, 196)" fill="none" d="M 416.96726786907146 319.43887775551104 L 404.9432197728791 319.43887775551104" stroke-width="2.004008016032064" stroke-linecap="round" stroke-linejoin="round" shape-rendering="crispEdges" data-type="pcb_trace" data-pcb-layer="bottom"/><path class="pcb-trace" stroke="rgb(77, 127, 196)" fill="none" d="M 404.9432197728791 319.43887775551104 L 404.9432197728791 319.43887775551104" stroke-width="2.004008016032064" stroke-linecap="round" stroke-linejoin="round" shape-rendering="crispEdges" data-type="pcb_trace" data-pcb-layer="bottom"/><path class="pcb-silkscreen pcb-silkscreen-bottom" d="M 169.8062792251169 467.3346693386774 L 159.5190380761523 492.5851703406814 L 169.4054776219105 492.5851703406814 L 174.34869739478955 478.55711422845695 L 179.29191716766866 492.5851703406814 L 188.77755511022042 492.5851703406814 L 178.49031396125585 467.3346693386774 L 169.8062792251169 467.3346693386774 Z" fill="none" stroke="#5da9e9" stroke-width="1.3360053440213762" stroke-linecap="round" stroke-linejoin="round" data-pcb-component-id="null" data-pcb-silkscreen-path-id="pcb_silkscreen_path_10" data-type="pcb_silkscreen_path" data-pcb-layer="bottom"/><path class="pcb-silkscreen pcb-silkscreen-bottom" d="M 199.73279893119573 467.3346693386774 L 190.51436205744824 467.3346693386774 L 190.51436205744824 492.5851703406814 L 199.73279893119573 492.5851703406814 L 199.73279893119573 467.3346693386774 Z" fill="none" stroke="#5da9e9" stroke-width="1.3360053440213762" stroke-linecap="round" stroke-linejoin="round" data-pcb-component-id="null" data-pcb-silkscreen-path-id="pcb_silkscreen_path_11" data-type="pcb_silkscreen_path" data-pcb-layer="bottom"/><path class="pcb-silkscreen pcb-silkscreen-bottom" d="M 225.38410153640615 492.5851703406814 L 225.38410153640615 486.84034736138943 L 214.562458249833 474.68269873079487 L 225.51770207080827 474.68269873079487 L 225.51770207080827 467.3346693386774 L 202.27120908483633 467.3346693386774 L 202.27120908483633 473.2130928523714 L 213.0928523714095 485.2371409485638 L 202.93921175684702 485.2371409485638 L 202.93921175684702 492.5851703406814 L 225.38410153640615 492.5851703406814 Z" fill="none" stroke="#5da9e9" stroke-width="1.3360053440213762" stroke-linecap="round" stroke-linejoin="round" data-pcb-component-id="null" data-pcb-silkscreen-path-id="pcb_silkscreen_path_12" data-type="pcb_silkscreen_path" data-pcb-layer="bottom"/><path class="pcb-silkscreen pcb-silkscreen-bottom" d="M 226.3193052772211 480.0267201068804 L 226.58650634602537 482.6987307949232 L 227.25450901803606 485.37074148296597 L 228.4569138276553 487.64195056780227 L 230.19372077488308 489.51235804943224 L 232.19772879091516 491.11556446225785 L 234.4689378757515 492.3179692718771 L 237.14094856379427 493.1195724782899 L 240.08016032064128 493.3867735470942 L 242.3513694054776 493.1195724782899 L 244.62257849031394 492.5851703406814 L 245.95858383433534 492.05076820307283 L 245.95858383433534 483.63393453573815 L 244.35537742150967 484.4355377421509 L 242.6185704742819 484.9699398797595 L 241.41616566466266 484.9699398797595 L 239.14495657982633 484.7027388109552 L 237.40814963259854 483.63393453573815 L 236.20574482297928 482.0307281229125 L 235.67134268537072 480.0267201068804 L 236.20574482297928 477.8891115564462 L 237.2745490981964 476.28590514362054 L 239.14495657982633 475.21710086840346 L 241.41616566466266 474.94989979959917 L 242.6185704742819 474.94989979959917 L 244.35537742150967 475.48430193720776 L 245.95858383433534 476.4195056780227 L 245.95858383433534 468.002672010688 L 243.687374749499 467.0674682698731 L 241.41616566466266 466.66666666666663 L 239.94655978623913 466.66666666666663 L 237.14094856379427 466.8002672010688 L 234.4689378757515 467.6018704074816 L 232.19772879091516 468.67067468269875 L 230.19372077488308 470.27388109552436 L 228.59051436205743 472.14428857715427 L 227.3881095524382 474.4154976619906 L 226.58650634602537 477.08750835003343 L 226.3193052772211 480.0267201068804 Z" fill="none" stroke="#5da9e9" stroke-width="1.3360053440213762" stroke-linecap="round" stroke-linejoin="round" data-pcb-component-id="null" data-pcb-silkscreen-path-id="pcb_silkscreen_path_13" data-type="pcb_silkscreen_path" data-pcb-layer="bottom"/><path class="pcb-silkscreen pcb-silkscreen-bottom" d="M 261.85704742818973 493.3867735470942 L 264.6626586506346 493.1195724782899 L 267.3346693386774 492.3179692718771 L 269.7394789579158 491.11556446225785 L 271.87708750835003 489.51235804943224 L 273.6138944555778 487.5083500334001 L 274.816299265197 485.2371409485638 L 275.6179024716099 482.6987307949232 L 275.88510354041415 480.0267201068804 L 275.6179024716099 477.2211088844356 L 274.816299265197 474.68269873079487 L 273.6138944555778 472.41148964595857 L 271.87708750835003 470.40748162992656 L 269.7394789579158 468.8042752171009 L 267.3346693386774 467.6018704074816 L 264.6626586506346 466.8002672010688 L 261.85704742818973 466.66666666666663 L 258.9178356713427 466.8002672010688 L 256.24582498329994 467.6018704074816 L 253.84101536406146 468.8042752171009 L 251.70340681362725 470.40748162992656 L 249.96659986639946 472.41148964595857 L 248.7641950567802 474.68269873079487 L 247.96259185036737 477.2211088844356 L 247.6953907815631 480.0267201068804 L 247.96259185036737 482.6987307949232 L 248.7641950567802 485.2371409485638 L 249.96659986639946 487.5083500334001 L 251.70340681362725 489.51235804943224 L 253.84101536406146 491.11556446225785 L 256.24582498329994 492.3179692718771 L 258.9178356713427 493.1195724782899 L 261.85704742818973 493.3867735470942 Z" fill="none" stroke="#5da9e9" stroke-width="1.3360053440213762" stroke-linecap="round" stroke-linejoin="round" data-pcb-component-id="null" data-pcb-silkscreen-path-id="pcb_silkscreen_path_14" data-type="pcb_silkscreen_path" data-pcb-layer="bottom"/><path class="pcb-silkscreen pcb-silkscreen-bottom" d="M 261.85704742818973 484.9699398797595 L 259.8530394121576 484.5691382765531 L 258.249832999332 483.500334001336 L 257.18102872411487 481.89712758851033 L 256.7802271209085 480.0267201068804 L 257.18102872411487 478.02271209084836 L 258.249832999332 476.4195056780227 L 259.8530394121576 475.3507014028056 L 261.85704742818973 474.94989979959917 L 263.72745490981964 475.3507014028056 L 265.33066132264526 476.4195056780227 L 266.3994655978624 478.02271209084836 L 266.8002672010688 480.0267201068804 L 266.3994655978624 481.89712758851033 L 265.33066132264526 483.500334001336 L 263.72745490981964 484.5691382765531 L 261.85704742818973 484.9699398797595 Z" fill="none" stroke="#5da9e9" stroke-width="1.3360053440213762" stroke-linecap="round" stroke-linejoin="round" data-pcb-component-id="null" data-pcb-silkscreen-path-id="pcb_silkscreen_path_15" data-type="pcb_silkscreen_path" data-pcb-layer="bottom"/><path class="pcb-silkscreen pcb-silkscreen-bottom" d="M 286.84034736138943 480.9619238476954 L 286.84034736138943 467.2010688042752 L 277.4883099532398 467.2010688042752 L 277.4883099532398 492.5851703406814 L 286.84034736138943 492.5851703406814 L 286.84034736138943 489.64595858383433 L 288.8443553774215 491.6499665998664 L 291.51636606546424 492.98597194388776 L 293.7875751503006 493.25317301269206 L 296.1923847695391 492.98597194388776 L 298.997995991984 491.6499665998664 L 301.002004008016 489.24515698062794 L 303.4068136272545 491.78356713426854 L 306.6132264529058 493.1195724782899 L 308.88443553774215 493.25317301269206 L 312.7588510354041 492.5851703406814 L 315.564462257849 490.5811623246493 L 317.1676686706747 487.64195056780227 L 317.8356713426854 483.500334001336 L 317.8356713426854 467.2010688042752 L 308.48363393453576 467.2010688042752 L 308.48363393453576 481.09552438209755 L 307.94923179692717 483.2331329325317 L 306.74682698730794 484.5691382765531 L 305.41082164328657 484.8363393453574 L 304.20841683366734 484.5691382765531 L 302.87241148964597 483.2331329325317 L 302.33800935203743 480.9619238476954 L 302.33800935203743 467.2010688042752 L 292.98597194388776 467.2010688042752 L 292.98597194388776 481.09552438209755 L 292.5851703406814 483.2331329325317 L 291.24916499665994 484.5691382765531 L 290.0467601870407 484.8363393453574 L 288.71075484301934 484.5691382765531 L 287.37474949899797 483.2331329325317 L 286.84034736138943 480.9619238476954 Z" fill="none" stroke="#5da9e9" stroke-width="1.3360053440213762" stroke-linecap="round" stroke-linejoin="round" data-pcb-component-id="null" data-pcb-silkscreen-path-id="pcb_silkscreen_path_16" data-type="pcb_silkscreen_path" data-pcb-layer="bottom"/><path class="pcb-silkscreen pcb-silkscreen-bottom" d="M 563.6606546426185 503.13961255845027 L 587.0407481629927 503.13961255845027 L 587.0407481629927 479.7595190380762 L 563.6606546426185 479.7595190380762 L 563.6606546426185 503.13961255845027 Z" fill="none" stroke="#5da9e9" stroke-width="1.3360053440213762" stroke-linecap="round" stroke-linejoin="round" data-pcb-component-id="null" data-pcb-silkscreen-path-id="pcb_silkscreen_path_17" data-type="pcb_silkscreen_path" data-pcb-layer="bottom"/><path class="pcb-silkscreen pcb-silkscreen-bottom" d="M 575.4175016700067 491.3827655310621 L 598.7975951903808 491.3827655310621 L 598.7975951903808 468.002672010688 L 575.4175016700067 468.002672010688 L 575.4175016700067 491.3827655310621 Z" fill="none" stroke="#5da9e9" stroke-width="1.3360053440213762" stroke-linecap="round" stroke-linejoin="round" data-pcb-component-id="null" data-pcb-silkscreen-path-id="pcb_silkscreen_path_18" data-type="pcb_silkscreen_path" data-pcb-layer="bottom"/><path class="pcb-silkscreen pcb-silkscreen-bottom" d="M 587.0407481629927 479.7595190380762 L 610.4208416833667 479.7595190380762 L 610.4208416833667 456.3794255177021 L 587.0407481629927 456.3794255177021 L 587.0407481629927 479.7595190380762 Z" fill="none" stroke="#5da9e9" stroke-width="1.3360053440213762" stroke-linecap="round" stroke-linejoin="round" data-pcb-component-id="null" data-pcb-silkscreen-path-id="pcb_silkscreen_path_19" data-type="pcb_silkscreen_path" data-pcb-layer="bottom"/><path class="pcb-silkscreen pcb-silkscreen-bottom" d="M 575.4175016700067 491.3827655310621 L 587.0407481629927 479.7595190380762" fill="none" stroke="#5da9e9" stroke-width="1.3360053440213762" stroke-linecap="round" stroke-linejoin="round" data-pcb-component-id="null" data-pcb-silkscreen-path-id="pcb_silkscreen_path_20" data-type="pcb_silkscreen_path" data-pcb-layer="bottom"/><path class="pcb-silkscreen pcb-silkscreen-bottom" d="M 587.0407481629927 479.7595190380762 L 598.7975951903808 468.002672010688" fill="none" stroke="#5da9e9" stroke-width="1.3360053440213762" stroke-linecap="round" stroke-linejoin="round" data-pcb-component-id="null" data-pcb-silkscreen-path-id="pcb_silkscreen_path_21" data-type="pcb_silkscreen_path" data-pcb-layer="bottom"/><rect class="pcb-pad" fill="rgb(200, 52, 52)" x="304.4756179024716" y="249.2985971943888" width="33.4001336005344" height="33.4001336005344" data-type="pcb_smtpad" data-pcb-layer="top"/><rect class="pcb-pad" fill="rgb(200, 52, 52)" x="462.12424849699397" y="249.2985971943888" width="33.4001336005344" height="33.4001336005344" data-type="pcb_smtpad" data-pcb-layer="top"/><rect class="pcb-pad" fill="rgb(200, 52, 52)" x="371.9438877755511" y="193.18637274549098" width="16.03206412825651" height="12.024048096192386" data-type="pcb_smtpad" data-pcb-layer="top"/><rect class="pcb-pad" fill="rgb(200, 52, 52)" x="391.98396793587176" y="193.18637274549098" width="16.03206412825651" height="12.024048096192386" data-type="pcb_smtpad" data-pcb-layer="top"/><rect class="pcb-pad" fill="rgb(200, 52, 52)" x="412.0240480961924" y="193.18637274549098" width="16.03206412825651" height="12.024048096192386" data-type="pcb_smtpad" data-pcb-layer="top"/><rect class="pcb-pad" fill="rgb(200, 52, 52)" x="383.63393453573815" y="152.77221108884436" width="10.68804275217101" height="12.692050768203073" data-type="pcb_smtpad" data-pcb-layer="top"/><rect class="pcb-pad" fill="rgb(200, 52, 52)" x="405.67802271209086" y="152.77221108884436" width="10.68804275217101" height="12.692050768203073" data-type="pcb_smtpad" data-pcb-layer="top"/><path class="pcb-trace" stroke="rgb(200, 52, 52)" fill="none" d="M 383.03273213092854 319.43887775551104 L 369.67267869071475 319.43887775551104" stroke-width="2.004008016032064" stroke-linecap="round" stroke-linejoin="round" shape-rendering="crispEdges" data-type="pcb_trace" data-pcb-layer="top"/><path class="pcb-trace" stroke="rgb(200, 52, 52)" fill="none" d="M 369.67267869071475 319.43887775551104 L 289.5123580494322 399.59919839679355" stroke-width="2.004008016032064" stroke-linecap="round" stroke-linejoin="round" shape-rendering="crispEdges" data-type="pcb_trace" data-pcb-layer="top"/><path class="pcb-trace" stroke="rgb(200, 52, 52)" fill="none" d="M 476.55310621242484 399.59919839679355 L 469.73128765764193 399.59919839679355" stroke-width="2.004008016032064" stroke-linecap="round" stroke-linejoin="round" shape-rendering="crispEdges" data-type="pcb_trace" data-pcb-layer="top"/><path class="pcb-trace" stroke="rgb(200, 52, 52)" fill="none" d="M 469.73128765764193 399.59919839679355 L 400.1204578771391 329.9883686162907" stroke-width="2.004008016032064" stroke-linecap="round" stroke-linejoin="round" shape-rendering="crispEdges" data-type="pcb_trace" data-pcb-layer="top"/><path class="pcb-trace" stroke="rgb(200, 52, 52)" fill="none" d="M 400.1204578771391 329.9883686162907 L 400.1204578771391 323.7952584586943" stroke-width="2.004008016032064" stroke-linecap="round" stroke-linejoin="round" shape-rendering="crispEdges" data-type="pcb_trace" data-pcb-layer="top"/><path class="pcb-trace" stroke="rgb(200, 52, 52)" fill="none" d="M 400.1204578771391 323.7952584586943 L 395.0567802271209 318.73158080867614" stroke-width="2.004008016032064" stroke-linecap="round" stroke-linejoin="round" shape-rendering="crispEdges" data-type="pcb_trace" data-pcb-layer="top"/><path class="pcb-trace" stroke="rgb(200, 52, 52)" fill="none" d="M 395.0567802271209 319.43887775551104 L 383.03273213092854 319.43887775551104" stroke-width="2.004008016032064" stroke-linecap="round" stroke-linejoin="round" shape-rendering="crispEdges" data-type="pcb_trace" data-pcb-layer="top"/><path class="pcb-trace" stroke="rgb(200, 52, 52)" fill="none" d="M 383.03273213092854 319.43887775551104 L 383.03273213092854 319.43887775551104" stroke-width="2.004008016032064" stroke-linecap="round" stroke-linejoin="round" shape-rendering="crispEdges" data-type="pcb_trace" data-pcb-layer="top"/><path class="pcb-trace" stroke="rgb(200, 52, 52)" fill="none" d="M 383.03273213092854 319.43887775551104 L 383.03273213092854 307.01402805611224" stroke-width="2.004008016032064" stroke-linecap="round" stroke-linejoin="round" shape-rendering="crispEdges" data-type="pcb_trace" data-pcb-layer="top"/><path class="pcb-trace" stroke="rgb(200, 52, 52)" fill="none" d="M 383.03273213092854 307.01402805611224 L 393.1400666519119 296.90669353512885" stroke-width="2.004008016032064" stroke-linecap="round" stroke-linejoin="round" shape-rendering="crispEdges" data-type="pcb_trace" data-pcb-layer="top"/><path class="pcb-trace" stroke="rgb(200, 52, 52)" fill="none" d="M 393.1400666519119 296.90669353512885 L 394.6559786239145 295.39078156312627" stroke-width="2.004008016032064" stroke-linecap="round" stroke-linejoin="round" shape-rendering="crispEdges" data-type="pcb_trace" data-pcb-layer="top"/><path class="pcb-trace" stroke="rgb(200, 52, 52)" fill="none" d="M 394.6559786239145 295.39078156312627 L 394.6559786239145 295.39078156312627" stroke-width="2.004008016032064" stroke-linecap="round" stroke-linejoin="round" shape-rendering="crispEdges" data-type="pcb_trace" data-pcb-layer="top"/><path class="pcb-trace" stroke="rgb(200, 52, 52)" fill="none" d="M 400 172.4782899131596 L 400 172.4782899131596" stroke-width="2.004008016032064" stroke-linecap="round" stroke-linejoin="round" shape-rendering="crispEdges" data-type="pcb_trace" data-pcb-layer="top"/><path class="pcb-trace" stroke="rgb(200, 52, 52)" fill="none" d="M 400 172.4782899131596 L 400 170.1402805611222" stroke-width="2.004008016032064" stroke-linecap="round" stroke-linejoin="round" shape-rendering="crispEdges" data-type="pcb_trace" data-pcb-layer="top"/><path class="pcb-trace" stroke="rgb(200, 52, 52)" fill="none" d="M 400 170.1402805611222 L 411.02204408817636 159.11823647294588" stroke-width="2.004008016032064" stroke-linecap="round" stroke-linejoin="round" shape-rendering="crispEdges" data-type="pcb_trace" data-pcb-layer="top"/><path class="pcb-trace" stroke="rgb(200, 52, 52)" fill="none" d="M 388.97795591182364 159.11823647294588 L 388.97795591182364 188.17635270541084" stroke-width="2.004008016032064" stroke-linecap="round" stroke-linejoin="round" shape-rendering="crispEdges" data-type="pcb_trace" data-pcb-layer="top"/><path class="pcb-trace" stroke="rgb(200, 52, 52)" fill="none" d="M 388.97795591182364 188.17635270541084 L 400 199.19839679358716" stroke-width="2.004008016032064" stroke-linecap="round" stroke-linejoin="round" shape-rendering="crispEdges" data-type="pcb_trace" data-pcb-layer="top"/><path class="pcb-trace" stroke="rgb(200, 52, 52)" fill="none" d="M 416.96726786907146 319.43887775551104 L 425.38410153640615 319.43887775551104" stroke-width="2.004008016032064" stroke-linecap="round" stroke-linejoin="round" shape-rendering="crispEdges" data-type="pcb_trace" data-pcb-layer="top"/><path class="pcb-trace" stroke="rgb(200, 52, 52)" fill="none" d="M 425.38410153640615 319.43887775551104 L 478.8243152972612 265.998663994656" stroke-width="2.004008016032064" stroke-linecap="round" stroke-linejoin="round" shape-rendering="crispEdges" data-type="pcb_trace" data-pcb-layer="top"/><path class="pcb-trace" stroke="rgb(200, 52, 52)" fill="none" d="M 510.4876419505678 399.59919839679355 L 509.15163660654645 399.59919839679355" stroke-width="2.004008016032064" stroke-linecap="round" stroke-linejoin="round" shape-rendering="crispEdges" data-type="pcb_trace" data-pcb-layer="top"/><path class="pcb-trace" stroke="rgb(200, 52, 52)" fill="none" d="M 509.15163660654645 399.59919839679355 L 428.9913159652639 319.43887775551104" stroke-width="2.004008016032064" stroke-linecap="round" stroke-linejoin="round" shape-rendering="crispEdges" data-type="pcb_trace" data-pcb-layer="top"/><path class="pcb-trace" stroke="rgb(200, 52, 52)" fill="none" d="M 379.95991983967934 199.19839679358716 L 379.95991983967934 207.2144288577154" stroke-width="2.004008016032064" stroke-linecap="round" stroke-linejoin="round" shape-rendering="crispEdges" data-type="pcb_trace" data-pcb-layer="top"/><path class="pcb-trace" stroke="rgb(200, 52, 52)" fill="none" d="M 379.95991983967934 207.2144288577154 L 321.1756847027388 265.998663994656" stroke-width="2.004008016032064" stroke-linecap="round" stroke-linejoin="round" shape-rendering="crispEdges" data-type="pcb_trace" data-pcb-layer="top"/><path class="pcb-silkscreen pcb-silkscreen-top" d="M 321.1756847027388 292.71877087508346 L 321.1756847027388 239.27855711422845" fill="none" stroke="#f2eda1" stroke-width="1.3360053440213762" stroke-linecap="round" stroke-linejoin="round" data-pcb-component-id="pcb_component_0" data-pcb-silkscreen-path-id="pcb_silkscreen_path_0" data-type="pcb_silkscreen_path" data-pcb-layer="top"/><path class="pcb-silkscreen pcb-silkscreen-top" d="M 313.15965263861057 265.998663994656 L 329.1917167668671 265.998663994656" fill="none" stroke="#f2eda1" stroke-width="1.3360053440213762" stroke-linecap="round" stroke-linejoin="round" data-pcb-component-id="pcb_component_0" data-pcb-silkscreen-path-id="pcb_silkscreen_path_1" data-type="pcb_silkscreen_path" data-pcb-layer="top"/><text x="0" y="0" dx="0" dy="0" fill="#f2eda1" font-family="Arial, sans-serif" font-size="13.360053440213761" text-anchor="middle" dominant-baseline="central" transform="matrix(1,0,0,1,321.1756847027388,306.07882431529725)" class="pcb-silkscreen-text pcb-silkscreen-top" data-pcb-silkscreen-text-id="pcb_component_0" stroke="none" data-type="pcb_silkscreen_text" data-pcb-layer="top">+</text><text x="0" y="0" dx="0" dy="0" fill="#f2eda1" font-family="Arial, sans-serif" font-size="13.360053440213761" text-anchor="middle" dominant-baseline="central" transform="matrix(1,0,0,1,478.8243152972612,306.07882431529725)" class="pcb-silkscreen-text pcb-silkscreen-top" data-pcb-silkscreen-text-id="pcb_component_0" stroke="none" data-type="pcb_silkscreen_text" data-pcb-layer="top">-</text><path class="pcb-silkscreen pcb-silkscreen-top" d="M 366.5998663994656 219.23847695390782 L 433.4001336005344 219.23847695390782 L 433.4001336005344 179.1583166332665 L 366.5998663994656 179.1583166332665 L 366.5998663994656 219.23847695390782 Z" fill="none" stroke="#f2eda1" stroke-width="1.3360053440213762" stroke-linecap="round" stroke-linejoin="round" data-pcb-component-id="pcb_component_1" data-pcb-silkscreen-path-id="pcb_silkscreen_path_2" data-type="pcb_silkscreen_path" data-pcb-layer="top"/><path class="pcb-silkscreen pcb-silkscreen-top" d="M 411.02204408817636 147.42818971275884 L 380.9619238476954 147.42818971275884 L 380.9619238476954 170.80828323313293 L 411.02204408817636 170.80828323313293" fill="none" stroke="#f2eda1" stroke-width="1.3360053440213762" stroke-linecap="round" stroke-linejoin="round" data-pcb-component-id="pcb_component_2" data-pcb-silkscreen-path-id="pcb_silkscreen_path_3" data-type="pcb_silkscreen_path" data-pcb-layer="top"/><text x="0" y="0" dx="0" dy="0" fill="#f2eda1" font-family="Arial, sans-serif" font-size="5.344021376085505" text-anchor="middle" dominant-baseline="central" transform="matrix(1,0,0,1,400,140.74816299265197)" class="pcb-silkscreen-text pcb-silkscreen-top" data-pcb-silkscreen-text-id="pcb_component_2" stroke="none" data-type="pcb_silkscreen_text" data-pcb-layer="top">R1</text><path class="pcb-silkscreen pcb-silkscreen-top" d="M 353.5070140280561 399.59919839679355 L 347.22778891115564 376.0855043420174 L 329.9933199732799 358.8510354041416 L 306.47962591850364 352.57181028724114 L 282.96593186372746 358.8510354041416 L 265.7314629258517 376.0855043420174 L 259.4522378089512 399.59919839679355 L 265.7314629258517 423.1128924515698 L 282.96593186372746 440.34736138944555 L 306.47962591850364 446.62658650634603 L 329.9933199732799 440.34736138944555 L 347.22778891115564 423.1128924515698 L 353.5070140280561 399.59919839679355 Z" fill="none" stroke="#f2eda1" stroke-width="1.3360053440213762" stroke-linecap="round" stroke-linejoin="round" data-pcb-component-id="pcb_component_3" data-pcb-silkscreen-path-id="pcb_silkscreen_path_4" data-type="pcb_silkscreen_path" data-pcb-layer="top"/><path class="pcb-silkscreen pcb-silkscreen-top" d="M 340.2805611222445 431.5297261189045 L 340.2805611222445 367.6686706746827" fill="none" stroke="#f2eda1" stroke-width="1.3360053440213762" stroke-linecap="round" stroke-linejoin="round" data-pcb-component-id="pcb_component_3" data-pcb-silkscreen-path-id="pcb_silkscreen_path_5" data-type="pcb_silkscreen_path" data-pcb-layer="top"/><text x="0" y="0" dx="0" dy="0" fill="#f2eda1" font-family="Arial, sans-serif" font-size="10.68804275217101" text-anchor="middle" dominant-baseline="central" transform="matrix(1,0,0,1,289.5123580494322,426.31930527722113)" class="pcb-silkscreen-text pcb-silkscreen-top" data-pcb-silkscreen-text-id="pcb_component_3" stroke="none" data-type="pcb_silkscreen_text" data-pcb-layer="top">+</text><path class="pcb-silkscreen pcb-silkscreen-top" d="M 540.5477621910488 399.59919839679355 L 534.2685370741483 376.0855043420174 L 517.0340681362726 358.8510354041416 L 493.52037408149636 352.57181028724114 L 470.0066800267201 358.8510354041416 L 452.77221108884436 376.0855043420174 L 446.4929859719439 399.59919839679355 L 452.77221108884436 423.1128924515698 L 470.0066800267201 440.34736138944555 L 493.52037408149636 446.62658650634603 L 517.0340681362726 440.34736138944555 L 534.2685370741483 423.1128924515698 L 540.5477621910488 399.59919839679355 Z" fill="none" stroke="#f2eda1" stroke-width="1.3360053440213762" stroke-linecap="round" stroke-linejoin="round" data-pcb-component-id="pcb_component_4" data-pcb-silkscreen-path-id="pcb_silkscreen_path_6" data-type="pcb_silkscreen_path" data-pcb-layer="top"/><path class="pcb-silkscreen pcb-silkscreen-top" d="M 527.3213092852371 431.5297261189045 L 527.3213092852371 367.6686706746827" fill="none" stroke="#f2eda1" stroke-width="1.3360053440213762" stroke-linecap="round" stroke-linejoin="round" data-pcb-component-id="pcb_component_4" data-pcb-silkscreen-path-id="pcb_silkscreen_path_7" data-type="pcb_silkscreen_path" data-pcb-layer="top"/><text x="0" y="0" dx="0" dy="0" fill="#f2eda1" font-family="Arial, sans-serif" font-size="10.68804275217101" text-anchor="middle" dominant-baseline="central" transform="matrix(1,0,0,1,476.55310621242484,426.31930527722113)" class="pcb-silkscreen-text pcb-silkscreen-top" data-pcb-silkscreen-text-id="pcb_component_4" stroke="none" data-type="pcb_silkscreen_text" data-pcb-layer="top">+</text><path class="pcb-silkscreen pcb-silkscreen-top" d="M 447.0273881095524 319.43887775551104 L 440.74816299265194 295.9251837007348 L 423.51369405477624 278.69071476285905 L 400 272.41148964595857 L 376.48630594522376 278.69071476285905 L 359.25183700734806 295.9251837007348 L 352.9726118904476 319.43887775551104 L 359.25183700734806 342.9525718102872 L 376.48630594522376 360.187040748163 L 400 366.46626586506346 L 423.51369405477624 360.187040748163 L 440.74816299265194 342.9525718102872 L 447.0273881095524 319.43887775551104 Z" fill="none" stroke="#f2eda1" stroke-width="1.3360053440213762" stroke-linecap="round" stroke-linejoin="round" data-pcb-component-id="pcb_component_5" data-pcb-silkscreen-path-id="pcb_silkscreen_path_8" data-type="pcb_silkscreen_path" data-pcb-layer="top"/><path class="pcb-silkscreen pcb-silkscreen-top" d="M 433.80093520374083 351.3694054776219 L 433.80093520374083 287.5083500334001" fill="none" stroke="#f2eda1" stroke-width="1.3360053440213762" stroke-linecap="round" stroke-linejoin="round" data-pcb-component-id="pcb_component_5" data-pcb-silkscreen-path-id="pcb_silkscreen_path_9" data-type="pcb_silkscreen_path" data-pcb-layer="top"/><text x="0" y="0" dx="0" dy="0" fill="#f2eda1" font-family="Arial, sans-serif" font-size="10.68804275217101" text-anchor="middle" dominant-baseline="central" transform="matrix(1,0,0,1,383.03273213092854,346.1589846359385)" class="pcb-silkscreen-text pcb-silkscreen-top" data-pcb-silkscreen-text-id="pcb_component_5" stroke="none" data-type="pcb_silkscreen_text" data-pcb-layer="top">+</text><g data-type="pcb_plated_hole" data-pcb-layer="through"><circle class="pcb-hole-outer" fill="rgb(200, 52, 52)" cx="289.5123580494322" cy="399.59919839679355" r="12.024048096192386" data-type="pcb_plated_hole" data-pcb-layer="top"/><circle class="pcb-hole-inner" fill="#FF26E2" cx="289.5123580494322" cy="399.59919839679355" r="6.680026720106881" data-type="pcb_plated_hole_drill" data-pcb-layer="drill"/></g><g data-type="pcb_plated_hole" data-pcb-layer="through"><circle class="pcb-hole-outer" fill="rgb(200, 52, 52)" cx="323.44689378757516" cy="399.59919839679355" r="12.024048096192386" data-type="pcb_plated_hole" data-pcb-layer="top"/><circle class="pcb-hole-inner" fill="#FF26E2" cx="323.44689378757516" cy="399.59919839679355" r="6.680026720106881" data-type="pcb_plated_hole_drill" data-pcb-layer="drill"/></g><g data-type="pcb_plated_hole" data-pcb-layer="through"><circle class="pcb-hole-outer" fill="rgb(200, 52, 52)" cx="476.55310621242484" cy="399.59919839679355" r="12.024048096192386" data-type="pcb_plated_hole" data-pcb-layer="top"/><circle class="pcb-hole-inner" fill="#FF26E2" cx="476.55310621242484" cy="399.59919839679355" r="6.680026720106881" data-type="pcb_plated_hole_drill" data-pcb-layer="drill"/></g><g data-type="pcb_plated_hole" data-pcb-layer="through"><circle class="pcb-hole-outer" fill="rgb(200, 52, 52)" cx="510.4876419505678" cy="399.59919839679355" r="12.024048096192386" data-type="pcb_plated_hole" data-pcb-layer="top"/><circle class="pcb-hole-inner" fill="#FF26E2" cx="510.4876419505678" cy="399.59919839679355" r="6.680026720106881" data-type="pcb_plated_hole_drill" data-pcb-layer="drill"/></g><g data-type="pcb_plated_hole" data-pcb-layer="through"><circle class="pcb-hole-outer" fill="rgb(200, 52, 52)" cx="383.03273213092854" cy="319.43887775551104" r="12.024048096192386" data-type="pcb_plated_hole" data-pcb-layer="top"/><circle class="pcb-hole-inner" fill="#FF26E2" cx="383.03273213092854" cy="319.43887775551104" r="6.680026720106881" data-type="pcb_plated_hole_drill" data-pcb-layer="drill"/></g><g data-type="pcb_plated_hole" data-pcb-layer="through"><circle class="pcb-hole-outer" fill="rgb(200, 52, 52)" cx="416.96726786907146" cy="319.43887775551104" r="12.024048096192386" data-type="pcb_plated_hole" data-pcb-layer="top"/><circle class="pcb-hole-inner" fill="#FF26E2" cx="416.96726786907146" cy="319.43887775551104" r="6.680026720106881" data-type="pcb_plated_hole_drill" data-pcb-layer="drill"/></g><g data-type="pcb_via" data-pcb-layer="through"><circle class="pcb-hole-outer" fill="rgb(200, 52, 52)" cx="394.6559786239145" cy="295.39078156312627" r="2.004008016032064" data-type="pcb_via" data-pcb-layer="top"/><circle class="pcb-hole-inner" fill="#FF26E2" cx="394.6559786239145" cy="295.39078156312627" r="1.3360053440213762" data-type="pcb_via" data-pcb-layer="drill"/></g><g data-type="pcb_via" data-pcb-layer="through"><circle class="pcb-hole-outer" fill="rgb(200, 52, 52)" cx="400" cy="172.4782899131596" r="2.004008016032064" data-type="pcb_via" data-pcb-layer="top"/><circle class="pcb-hole-inner" fill="#FF26E2" cx="400" cy="172.4782899131596" r="1.3360053440213762" data-type="pcb_via" data-pcb-layer="drill"/></g><circle class="pcb-hole" cx="400" cy="546.559786239145" r="16.7000668002672" fill="#FF26E2" data-type="pcb_hole" data-pcb-layer="drill"/></svg>