<svg xmlns="http://www.w3.org/2000/svg" width="800" height="600" data-software-used-string="@tscircuit/core@0.0.1112"><style></style><rect class="boundary" x="0" y="0" fill="#000" width="800" height="600" data-type="pcb_background" data-pcb-layer="global"/><rect class="pcb-boundary" fill="none" stroke="#fff" stroke-width="0.3" x="78.57142857142856" y="14.285714285714278" width="642.8571428571429" height="571.4285714285716" data-type="pcb_boundary" data-pcb-layer="global"/><path class="pcb-board" d="M 400 585.7142857142858 L 421.42857142857144 578.5714285714286 L 432.85714285714283 568.5714285714286 L 440 554.2857142857143 L 442.8571428571429 535.7142857142858 L 442.8571428571429 514.2857142857142 L 440.14285714285717 500.2857142857143 L 465.2857142857143 523.1428571428571 L 496.2857142857143 541.1428571428571 L 532 551.7142857142858 L 570.1428571428571 553.2857142857143 L 608.7142857142858 545.2857142857143 L 645.1428571428571 528 L 676.4285714285714 502.57142857142856 L 700.7142857142858 470.57142857142856 L 716.1428571428571 433.85714285714283 L 721.4285714285714 394.57142857142856 L 716.1428571428571 354.42857142857144 L 700.7142857142858 314.7142857142857 L 676.4285714285714 276.1428571428571 L 645.1428571428571 239.14285714285714 L 608.7142857142858 203.85714285714283 L 570.1428571428571 169.85714285714286 L 532 137.1428571428571 L 496.2857142857143 105.7142857142857 L 465.2857142857143 75.8571428571428 L 440.14285714285717 47.85714285714283 L 421.7142857142857 28.571428571428555 L 411.42857142857144 19.999999999999943 L 404.2857142857143 15.714285714285722 L 400 14.285714285714278 L 395.7142857142857 15.714285714285722 L 388.57142857142856 19.999999999999943 L 378.2857142857143 28.571428571428555 L 359.85714285714283 47.85714285714283 L 334.7142857142857 75.8571428571428 L 303.7142857142857 105.7142857142857 L 268 137.1428571428571 L 229.85714285714283 169.85714285714286 L 191.28571428571428 203.85714285714283 L 154.85714285714283 239.14285714285714 L 123.57142857142856 276.1428571428571 L 99.28571428571428 314.7142857142857 L 83.85714285714283 354.42857142857144 L 78.57142857142856 394.57142857142856 L 83.85714285714283 433.85714285714283 L 99.28571428571428 470.57142857142856 L 123.57142857142856 502.57142857142856 L 154.85714285714283 528 L 191.28571428571428 545.2857142857143 L 229.85714285714283 553.2857142857143 L 268 551.7142857142858 L 303.7142857142857 541.1428571428571 L 334.7142857142857 523.1428571428571 L 359.85714285714283 500.2857142857143 L 357.1428571428571 514.2857142857142 L 357.1428571428571 535.7142857142858 L 360 554.2857142857143 L 367.14285714285717 568.5714285714286 L 378.57142857142856 578.5714285714286 Z" fill="none" stroke="rgba(255, 255, 255, 0.5)" stroke-width="1.4285714285714288" data-type="pcb_board" data-pcb-layer="board"/><path class="pcb-trace" stroke="rgb(77, 127, 196)" fill="none" d="M 542.8571428571429 411.42857142857144 L 542.8571428571429 411.42857142857144" stroke-width="2.142857142857143" stroke-linecap="round" stroke-linejoin="round" shape-rendering="crispEdges" data-type="pcb_trace" data-pcb-layer="bottom"/><path class="pcb-trace" stroke="rgb(77, 127, 196)" fill="none" d="M 542.8571428571429 411.42857142857144 L 564.2726317667348 411.42857142857144" stroke-width="2.142857142857143" stroke-linecap="round" stroke-linejoin="round" shape-rendering="crispEdges" data-type="pcb_trace" data-pcb-layer="bottom"/><path class="pcb-trace" stroke="rgb(77, 127, 196)" fill="none" d="M 564.2726317667348 411.42857142857144 L 564.2726317667348 411.42857142857144" stroke-width="2.142857142857143" stroke-linecap="round" stroke-linejoin="round" shape-rendering="crispEdges" data-type="pcb_trace" data-pcb-layer="bottom"/><path class="pcb-trace" stroke="rgb(77, 127, 196)" fill="none" d="M 564.2726317667348 411.42857142857144 L 565.7142857142858 411.42857142857144" stroke-width="2.142857142857143" stroke-linecap="round" stroke-linejoin="round" shape-rendering="crispEdges" data-type="pcb_trace" data-pcb-layer="bottom"/><path class="pcb-trace" stroke="rgb(77, 127, 196)" fill="none" d="M 565.7142857142858 411.42857142857144 L 565.7142857142858 411.42857142857144" stroke-width="2.142857142857143" stroke-linecap="round" stroke-linejoin="round" shape-rendering="crispEdges" data-type="pcb_trace" data-pcb-layer="bottom"/><path class="pcb-trace" stroke="rgb(77, 127, 196)" fill="none" d="M 428.57142857142856 434.2857142857143 L 428.57142857142856 434.2857142857143" stroke-width="2.142857142857143" stroke-linecap="round" stroke-linejoin="round" shape-rendering="crispEdges" data-type="pcb_trace" data-pcb-layer="bottom"/><path class="pcb-trace" stroke="rgb(77, 127, 196)" fill="none" d="M 428.57142857142856 434.2857142857143 L 459.19457463312096 434.2857142857143" stroke-width="2.142857142857143" stroke-linecap="round" stroke-linejoin="round" shape-rendering="crispEdges" data-type="pcb_trace" data-pcb-layer="bottom"/><path class="pcb-trace" stroke="rgb(77, 127, 196)" fill="none" d="M 459.19457463312096 434.2857142857143 L 553.69921180885 339.78107710998523" stroke-width="2.142857142857143" stroke-linecap="round" stroke-linejoin="round" shape-rendering="crispEdges" data-type="pcb_trace" data-pcb-layer="bottom"/><path class="pcb-trace" stroke="rgb(77, 127, 196)" fill="none" d="M 553.69921180885 339.78107710998523 L 555.7857142857143 341.25" stroke-width="2.142857142857143" stroke-linecap="round" stroke-linejoin="round" shape-rendering="crispEdges" data-type="pcb_trace" data-pcb-layer="bottom"/><path class="pcb-trace" stroke="rgb(77, 127, 196)" fill="none" d="M 555.7857142857143 341.25 L 555.7857142857143 341.25" stroke-width="2.142857142857143" stroke-linecap="round" stroke-linejoin="round" shape-rendering="crispEdges" data-type="pcb_trace" data-pcb-layer="bottom"/><path class="pcb-silkscreen pcb-silkscreen-bottom" d="M 425 146.42857142857142 L 400 146.42857142857142 L 400 171.42857142857142 L 425 171.42857142857142 L 425 146.42857142857142 Z" fill="none" stroke="#5da9e9" stroke-width="1.4285714285714288" stroke-linecap="round" stroke-linejoin="round" data-pcb-component-id="null" data-pcb-silkscreen-path-id="pcb_silkscreen_path_5" data-type="pcb_silkscreen_path" data-pcb-layer="bottom"/><path class="pcb-silkscreen pcb-silkscreen-bottom" d="M 412.42857142857144 159 L 387.42857142857144 159 L 387.42857142857144 184 L 412.42857142857144 184 L 412.42857142857144 159 Z" fill="none" stroke="#5da9e9" stroke-width="1.4285714285714288" stroke-linecap="round" stroke-linejoin="round" data-pcb-component-id="null" data-pcb-silkscreen-path-id="pcb_silkscreen_path_6" data-type="pcb_silkscreen_path" data-pcb-layer="bottom"/><path class="pcb-silkscreen pcb-silkscreen-bottom" d="M 400 171.42857142857142 L 375 171.42857142857142 L 375 196.42857142857142 L 400 196.42857142857142 L 400 171.42857142857142 Z" fill="none" stroke="#5da9e9" stroke-width="1.4285714285714288" stroke-linecap="round" stroke-linejoin="round" data-pcb-component-id="null" data-pcb-silkscreen-path-id="pcb_silkscreen_path_7" data-type="pcb_silkscreen_path" data-pcb-layer="bottom"/><path class="pcb-silkscreen pcb-silkscreen-bottom" d="M 412.42857142857144 159 L 400 171.42857142857142" fill="none" stroke="#5da9e9" stroke-width="1.4285714285714288" stroke-linecap="round" stroke-linejoin="round" data-pcb-component-id="null" data-pcb-silkscreen-path-id="pcb_silkscreen_path_8" data-type="pcb_silkscreen_path" data-pcb-layer="bottom"/><path class="pcb-silkscreen pcb-silkscreen-bottom" d="M 400 171.42857142857142 L 387.42857142857144 184" fill="none" stroke="#5da9e9" stroke-width="1.4285714285714288" stroke-linecap="round" stroke-linejoin="round" data-pcb-component-id="null" data-pcb-silkscreen-path-id="pcb_silkscreen_path_9" data-type="pcb_silkscreen_path" data-pcb-layer="bottom"/><path class="pcb-silkscreen pcb-silkscreen-bottom" d="M 437.2857142857143 122.28571428571428 L 438.8571428571429 122.28571428571428 L 438.8571428571429 133.57142857142856 L 442.8571428571429 133.57142857142856 L 442.8571428571429 134.99999999999997 L 433.1428571428571 134.99999999999997 L 433.1428571428571 133.57142857142856 L 437.2857142857143 133.57142857142856 L 437.2857142857143 122.28571428571428 Z" fill="none" stroke="#5da9e9" stroke-width="1.4285714285714288" stroke-linecap="round" stroke-linejoin="round" data-pcb-component-id="null" data-pcb-silkscreen-path-id="pcb_silkscreen_path_10" data-type="pcb_silkscreen_path" data-pcb-layer="bottom"/><path class="pcb-silkscreen pcb-silkscreen-bottom" d="M 428 122.14285714285714 L 428.57142857142856 122.14285714285714 L 429.14285714285717 122.28571428571428 L 429.7142857142857 122.42857142857142 L 430.14285714285717 122.7142857142857 L 430.7142857142857 122.99999999999997 L 431 123.42857142857142 L 431.42857142857144 123.85714285714283 L 431.7142857142857 124.28571428571425 L 431.85714285714283 124.85714285714283 L 432 125.42857142857139 L 432.14285714285717 126.14285714285714 L 432.14285714285717 126.85714285714286 L 432.14285714285717 127.57142857142856 L 432 128.14285714285714 L 431.85714285714283 128.85714285714283 L 431.7142857142857 129.42857142857142 L 431.42857142857144 129.85714285714283 L 431 130.28571428571425 L 430.7142857142857 130.7142857142857 L 430.2857142857143 130.99999999999997 L 429.7142857142857 131.28571428571425 L 429.14285714285717 131.57142857142856 L 428.57142857142856 131.57142857142856 L 428 131.7142857142857 L 427.42857142857144 131.57142857142856 L 426.85714285714283 131.57142857142856 L 426.2857142857143 131.28571428571425 L 425.85714285714283 131.1428571428571 L 425.42857142857144 130.7142857142857 L 425 130.42857142857142 L 424.7142857142857 129.99999999999997 L 424.42857142857144 129.42857142857142 L 424.2857142857143 128.85714285714283 L 424.14285714285717 128.28571428571428 L 424 127.7142857142857 L 424 127 L 424 126.42857142857142 L 431.42857142857144 126.42857142857142 L 431.42857142857144 127.7142857142857 L 424.7142857142857 127.7142857142857 L 425.57142857142856 127.14285714285714 L 425.57142857142856 127.7142857142857 L 425.7142857142857 128.57142857142856 L 426 129.28571428571428 L 426.42857142857144 129.7142857142857 L 427 130.1428571428571 L 427.7142857142857 130.28571428571425 L 428 130.28571428571425 L 428.42857142857144 130.28571428571425 L 429 130.1428571428571 L 429.42857142857144 129.99999999999997 L 429.85714285714283 129.42857142857142 L 430.2857142857143 128.85714285714283 L 430.57142857142856 128.14285714285714 L 430.57142857142856 127.14285714285714 L 430.57142857142856 126.14285714285714 L 430.42857142857144 125.28571428571425 L 430.14285714285717 124.57142857142856 L 429.85714285714283 124.28571428571425 L 429.2857142857143 123.85714285714283 L 428.7142857142857 123.57142857142856 L 427.85714285714283 123.42857142857142 L 427.2857142857143 123.42857142857142 L 426.85714285714283 123.57142857142856 L 426.42857142857144 123.85714285714283 L 426.14285714285717 124.14285714285711 L 425.85714285714283 124.42857142857142 L 425.57142857142856 124.85714285714283 L 424.14285714285717 124.85714285714283 L 424.2857142857143 124.28571428571425 L 424.57142857142856 123.7142857142857 L 424.85714285714283 123.28571428571428 L 425.42857142857144 122.85714285714283 L 425.85714285714283 122.57142857142856 L 426.57142857142856 122.28571428571428 L 427.14285714285717 122.14285714285714 L 428 122.14285714285714 Z" fill="none" stroke="#5da9e9" stroke-width="1.4285714285714288" stroke-linecap="round" stroke-linejoin="round" data-pcb-component-id="null" data-pcb-silkscreen-path-id="pcb_silkscreen_path_11" data-type="pcb_silkscreen_path" data-pcb-layer="bottom"/><path class="pcb-silkscreen pcb-silkscreen-bottom" d="M 420.85714285714283 122.28571428571428 L 422.2857142857143 122.28571428571428 L 422.2857142857143 134.99999999999997 L 420.85714285714283 134.99999999999997 L 420.85714285714283 122.28571428571428 Z" fill="none" stroke="#5da9e9" stroke-width="1.4285714285714288" stroke-linecap="round" stroke-linejoin="round" data-pcb-component-id="null" data-pcb-silkscreen-path-id="pcb_silkscreen_path_12" data-type="pcb_silkscreen_path" data-pcb-layer="bottom"/><path class="pcb-silkscreen pcb-silkscreen-bottom" d="M 414.85714285714283 122.14285714285714 L 415.57142857142856 122.14285714285714 L 416.14285714285717 122.28571428571428 L 416.7142857142857 122.42857142857142 L 417.14285714285717 122.7142857142857 L 417.57142857142856 122.99999999999997 L 418 123.42857142857142 L 418.42857142857144 123.85714285714283 L 418.7142857142857 124.28571428571425 L 418.85714285714283 124.85714285714283 L 419 125.42857142857139 L 419.14285714285717 126.14285714285714 L 419.14285714285717 126.85714285714286 L 419.14285714285717 127.57142857142856 L 419 128.14285714285714 L 418.85714285714283 128.85714285714283 L 418.7142857142857 129.42857142857142 L 418.42857142857144 129.85714285714283 L 418 130.28571428571425 L 417.7142857142857 130.7142857142857 L 417.14285714285717 130.99999999999997 L 416.7142857142857 131.28571428571425 L 416.14285714285717 131.57142857142856 L 415.57142857142856 131.57142857142856 L 415 131.7142857142857 L 414.42857142857144 131.57142857142856 L 413.85714285714283 131.57142857142856 L 413.2857142857143 131.28571428571425 L 412.85714285714283 131.1428571428571 L 412.42857142857144 130.7142857142857 L 412 130.42857142857142 L 411.7142857142857 129.99999999999997 L 411.42857142857144 129.42857142857142 L 411.2857142857143 128.85714285714283 L 411.14285714285717 128.28571428571428 L 411 127.7142857142857 L 411 127 L 411 126.42857142857142 L 418.42857142857144 126.42857142857142 L 418.42857142857144 127.7142857142857 L 411.7142857142857 127.7142857142857 L 412.42857142857144 127.14285714285714 L 412.57142857142856 127.7142857142857 L 412.7142857142857 128.57142857142856 L 413 129.28571428571428 L 413.42857142857144 129.7142857142857 L 414 130.1428571428571 L 414.7142857142857 130.28571428571425 L 415 130.28571428571425 L 415.42857142857144 130.28571428571425 L 416 130.1428571428571 L 416.57142857142856 129.7142857142857 L 417.14285714285717 129.1428571428571 L 417.42857142857144 128.57142857142856 L 417.57142857142856 127.57142857142856 L 417.57142857142856 127.14285714285714 L 417.57142857142856 126.14285714285714 L 417.42857142857144 125.28571428571425 L 417.14285714285717 124.57142857142856 L 416.85714285714283 124.28571428571425 L 416.2857142857143 123.85714285714283 L 415.7142857142857 123.57142857142856 L 414.85714285714283 123.42857142857142 L 414.2857142857143 123.42857142857142 L 413.85714285714283 123.57142857142856 L 413.42857142857144 123.85714285714283 L 413 124.14285714285711 L 412.85714285714283 124.42857142857142 L 412.57142857142856 124.85714285714283 L 411 124.85714285714283 L 411.2857142857143 124.28571428571425 L 411.57142857142856 123.7142857142857 L 411.85714285714283 123.28571428571428 L 412.2857142857143 122.85714285714283 L 412.85714285714283 122.57142857142856 L 413.57142857142856 122.28571428571428 L 414.14285714285717 122.14285714285714 L 414.85714285714283 122.14285714285714 Z" fill="none" stroke="#5da9e9" stroke-width="1.4285714285714288" stroke-linecap="round" stroke-linejoin="round" data-pcb-component-id="null" data-pcb-silkscreen-path-id="pcb_silkscreen_path_13" data-type="pcb_silkscreen_path" data-pcb-layer="bottom"/><path class="pcb-silkscreen pcb-silkscreen-bottom" d="M 407.85714285714283 122.28571428571428 L 409.42857142857144 122.28571428571428 L 409.42857142857144 131.4285714285714 L 407.85714285714283 131.4285714285714 L 407.85714285714283 130.1428571428571 L 407.7142857142857 130.42857142857142 L 407.42857142857144 130.7142857142857 L 407.14285714285717 130.99999999999997 L 406.85714285714283 131.28571428571425 L 406.42857142857144 131.4285714285714 L 406.14285714285717 131.57142857142856 L 405.7142857142857 131.57142857142856 L 405.2857142857143 131.7142857142857 L 405 131.7142857142857 L 404.7142857142857 131.57142857142856 L 404.14285714285717 131.4285714285714 L 403.7142857142857 131.1428571428571 L 403.42857142857144 130.99999999999997 L 403.14285714285717 130.7142857142857 L 402.85714285714283 130.1428571428571 L 402.7142857142857 129.85714285714283 L 402.57142857142856 130.1428571428571 L 402.14285714285717 130.57142857142856 L 401.7142857142857 130.99999999999997 L 401.2857142857143 131.28571428571425 L 400.7142857142857 131.57142857142856 L 400.14285714285717 131.7142857142857 L 399.7142857142857 131.7142857142857 L 399.2857142857143 131.57142857142856 L 398.57142857142856 131.4285714285714 L 397.85714285714283 131.1428571428571 L 397.2857142857143 130.57142857142856 L 397 129.85714285714283 L 396.7142857142857 129.1428571428571 L 396.7142857142857 128.57142857142856 L 396.7142857142857 122.28571428571428 L 398.2857142857143 122.28571428571428 L 398.2857142857143 128.28571428571428 L 398.42857142857144 128.85714285714283 L 398.57142857142856 129.42857142857142 L 398.85714285714283 129.7142857142857 L 399.14285714285717 129.99999999999997 L 399.7142857142857 130.28571428571425 L 400.2857142857143 130.28571428571425 L 400.85714285714283 130.28571428571425 L 401.2857142857143 129.99999999999997 L 401.7142857142857 129.7142857142857 L 402 129.28571428571428 L 402.2857142857143 128.7142857142857 L 402.2857142857143 128.14285714285714 L 402.2857142857143 122.28571428571428 L 403.85714285714283 122.28571428571428 L 403.85714285714283 128.42857142857142 L 404 129.1428571428571 L 404.2857142857143 129.57142857142856 L 404.57142857142856 129.99999999999997 L 405 130.1428571428571 L 405.42857142857144 130.28571428571425 L 405.7142857142857 130.28571428571425 L 406.2857142857143 130.28571428571425 L 406.85714285714283 129.99999999999997 L 407.2857142857143 129.7142857142857 L 407.57142857142856 129.1428571428571 L 407.85714285714283 128.7142857142857 L 407.85714285714283 128 L 407.85714285714283 122.28571428571428 Z" fill="none" stroke="#5da9e9" stroke-width="1.4285714285714288" stroke-linecap="round" stroke-linejoin="round" data-pcb-component-id="null" data-pcb-silkscreen-path-id="pcb_silkscreen_path_14" data-type="pcb_silkscreen_path" data-pcb-layer="bottom"/><path class="pcb-silkscreen pcb-silkscreen-bottom" d="M 391 122.14285714285714 L 391.57142857142856 122.14285714285714 L 392.2857142857143 122.28571428571428 L 392.7142857142857 122.42857142857142 L 393.2857142857143 122.7142857142857 L 393.7142857142857 122.99999999999997 L 394.14285714285717 123.42857142857142 L 394.42857142857144 123.85714285714283 L 394.7142857142857 124.28571428571425 L 395 124.85714285714283 L 395.14285714285717 125.42857142857139 L 395.2857142857143 126.14285714285714 L 395.2857142857143 126.85714285714286 L 395.2857142857143 127.57142857142856 L 395.14285714285717 128.14285714285714 L 395 128.85714285714283 L 394.7142857142857 129.42857142857142 L 394.42857142857144 129.85714285714283 L 394.14285714285717 130.28571428571425 L 393.7142857142857 130.7142857142857 L 393.2857142857143 130.99999999999997 L 392.85714285714283 131.28571428571425 L 392.2857142857143 131.57142857142856 L 391.7142857142857 131.57142857142856 L 391.14285714285717 131.7142857142857 L 390.42857142857144 131.57142857142856 L 389.85714285714283 131.57142857142856 L 389.42857142857144 131.28571428571425 L 388.85714285714283 131.1428571428571 L 388.42857142857144 130.7142857142857 L 388.14285714285717 130.42857142857142 L 387.85714285714283 129.99999999999997 L 387.57142857142856 129.42857142857142 L 387.2857142857143 128.85714285714283 L 387.14285714285717 128.28571428571428 L 387 127.7142857142857 L 387 127 L 387 126.42857142857142 L 394.42857142857144 126.42857142857142 L 394.42857142857144 127.7142857142857 L 387.85714285714283 127.7142857142857 L 388.57142857142856 127.14285714285714 L 388.57142857142856 127.7142857142857 L 388.7142857142857 128.57142857142856 L 389.14285714285717 129.28571428571428 L 389.57142857142856 129.7142857142857 L 390.14285714285717 130.1428571428571 L 390.7142857142857 130.28571428571425 L 391.14285714285717 130.28571428571425 L 391.42857142857144 130.28571428571425 L 392.14285714285717 130.1428571428571 L 392.7142857142857 129.7142857142857 L 393.14285714285717 129.1428571428571 L 393.42857142857144 128.57142857142856 L 393.7142857142857 127.57142857142856 L 393.7142857142857 127.14285714285714 L 393.7142857142857 126.14285714285714 L 393.57142857142856 125.28571428571425 L 393.14285714285717 124.57142857142856 L 393 124.28571428571425 L 392.42857142857144 123.85714285714283 L 392.14285714285717 123.7142857142857 L 391.42857142857144 123.42857142857142 L 391 123.42857142857142 L 390.42857142857144 123.42857142857142 L 389.85714285714283 123.57142857142856 L 389.42857142857144 123.85714285714283 L 389.14285714285717 124.14285714285711 L 388.85714285714283 124.42857142857142 L 388.7142857142857 124.85714285714283 L 387.14285714285717 124.85714285714283 L 387.2857142857143 124.28571428571425 L 387.57142857142856 123.7142857142857 L 388 123.28571428571428 L 388.42857142857144 122.85714285714283 L 389 122.57142857142856 L 389.57142857142856 122.28571428571428 L 390.2857142857143 122.14285714285714 L 391 122.14285714285714 Z" fill="none" stroke="#5da9e9" stroke-width="1.4285714285714288" stroke-linecap="round" stroke-linejoin="round" data-pcb-component-id="null" data-pcb-silkscreen-path-id="pcb_silkscreen_path_15" data-type="pcb_silkscreen_path" data-pcb-layer="bottom"/><path class="pcb-silkscreen pcb-silkscreen-bottom" d="M 382.42857142857144 122.14285714285714 L 383.14285714285717 122.14285714285714 L 383.57142857142856 122.28571428571428 L 384 122.42857142857142 L 384.42857142857144 122.7142857142857 L 384.7142857142857 122.99999999999997 L 384.85714285714283 123.42857142857142 L 385 123.99999999999997 L 385 124.57142857142856 L 385 130.1428571428571 L 386.42857142857144 130.1428571428571 L 386.42857142857144 131.4285714285714 L 385 131.4285714285714 L 385 134 L 383.42857142857144 134 L 383.42857142857144 131.4285714285714 L 381.7142857142857 131.4285714285714 L 381.7142857142857 130.1428571428571 L 383.42857142857144 130.1428571428571 L 383.42857142857144 124.57142857142856 L 383.2857142857143 123.99999999999997 L 383.14285714285717 123.57142857142856 L 382.7142857142857 123.42857142857142 L 382.42857142857144 123.42857142857142 L 382.14285714285717 123.28571428571428 L 381.7142857142857 123.42857142857142 L 381.7142857142857 122.14285714285714 L 381.85714285714283 122.14285714285714 L 382.14285714285717 122.14285714285714 L 382.42857142857144 122.14285714285714 Z" fill="none" stroke="#5da9e9" stroke-width="1.4285714285714288" stroke-linecap="round" stroke-linejoin="round" data-pcb-component-id="null" data-pcb-silkscreen-path-id="pcb_silkscreen_path_16" data-type="pcb_silkscreen_path" data-pcb-layer="bottom"/><path class="pcb-silkscreen pcb-silkscreen-bottom" d="M 378.42857142857144 122.28571428571428 L 380 122.28571428571428 L 380 131.4285714285714 L 378.42857142857144 131.4285714285714 L 378.42857142857144 129.85714285714283 L 378.2857142857143 130.28571428571425 L 377.85714285714283 130.99999999999997 L 377.2857142857143 131.4285714285714 L 376.7142857142857 131.57142857142856 L 376.2857142857143 131.7142857142857 L 376 131.7142857142857 L 375.7142857142857 131.57142857142856 L 375.7142857142857 130.1428571428571 L 376 130.1428571428571 L 376.2857142857143 130.1428571428571 L 376.7142857142857 130.1428571428571 L 377.2857142857143 129.99999999999997 L 377.7142857142857 129.7142857142857 L 378.14285714285717 129.42857142857142 L 378.2857142857143 128.85714285714283 L 378.42857142857144 128.28571428571428 L 378.42857142857144 128 L 378.42857142857144 122.28571428571428 Z" fill="none" stroke="#5da9e9" stroke-width="1.4285714285714288" stroke-linecap="round" stroke-linejoin="round" data-pcb-component-id="null" data-pcb-silkscreen-path-id="pcb_silkscreen_path_17" data-type="pcb_silkscreen_path" data-pcb-layer="bottom"/><path class="pcb-silkscreen pcb-silkscreen-bottom" d="M 370.57142857142856 122.14285714285714 L 371.14285714285717 122.14285714285714 L 371.7142857142857 122.28571428571428 L 372.2857142857143 122.42857142857142 L 372.85714285714283 122.7142857142857 L 373.2857142857143 122.99999999999997 L 373.7142857142857 123.42857142857142 L 374 123.85714285714283 L 374.2857142857143 124.28571428571425 L 374.57142857142856 124.85714285714283 L 374.7142857142857 125.57142857142856 L 374.85714285714283 126.14285714285714 L 374.85714285714283 126.85714285714286 L 374.85714285714283 127.57142857142856 L 374.7142857142857 128.28571428571428 L 374.57142857142856 128.85714285714283 L 374.2857142857143 129.42857142857142 L 374 129.99999999999997 L 373.7142857142857 130.42857142857142 L 373.2857142857143 130.7142857142857 L 372.85714285714283 131.1428571428571 L 372.2857142857143 131.28571428571425 L 371.7142857142857 131.57142857142856 L 371.14285714285717 131.57142857142856 L 370.57142857142856 131.7142857142857 L 370 131.57142857142856 L 369.42857142857144 131.57142857142856 L 368.85714285714283 131.28571428571425 L 368.2857142857143 131.1428571428571 L 367.85714285714283 130.7142857142857 L 367.42857142857144 130.42857142857142 L 367.14285714285717 129.99999999999997 L 366.8571428571429 129.42857142857142 L 366.57142857142856 128.85714285714283 L 366.42857142857144 128.28571428571428 L 366.2857142857143 127.57142857142856 L 366.2857142857143 126.85714285714286 L 366.2857142857143 126.14285714285714 L 366.42857142857144 125.42857142857139 L 366.57142857142856 124.85714285714283 L 366.8571428571429 124.28571428571425 L 367.14285714285717 123.85714285714283 L 367.42857142857144 123.42857142857142 L 367.85714285714283 122.99999999999997 L 368.2857142857143 122.7142857142857 L 368.85714285714283 122.42857142857142 L 369.42857142857144 122.28571428571428 L 370 122.14285714285714 L 370.57142857142856 122.14285714285714 Z" fill="none" stroke="#5da9e9" stroke-width="1.4285714285714288" stroke-linecap="round" stroke-linejoin="round" data-pcb-component-id="null" data-pcb-silkscreen-path-id="pcb_silkscreen_path_18" data-type="pcb_silkscreen_path" data-pcb-layer="bottom"/><path class="pcb-silkscreen pcb-silkscreen-bottom" d="M 370.57142857142856 123.42857142857142 L 370.14285714285717 123.42857142857142 L 369.42857142857144 123.7142857142857 L 368.85714285714283 124.14285714285711 L 368.42857142857144 124.7142857142857 L 368.14285714285717 125.42857142857139 L 367.85714285714283 126.28571428571428 L 367.85714285714283 126.85714285714286 L 367.85714285714283 127.42857142857142 L 368.14285714285717 128.28571428571428 L 368.42857142857144 129.1428571428571 L 368.85714285714283 129.7142857142857 L 369.42857142857144 130.1428571428571 L 370.14285714285717 130.28571428571425 L 370.57142857142856 130.28571428571425 L 371 130.28571428571425 L 371.7142857142857 129.99999999999997 L 372.2857142857143 129.7142857142857 L 372.7142857142857 129.1428571428571 L 373.14285714285717 128.28571428571428 L 373.2857142857143 127.42857142857142 L 373.2857142857143 126.85714285714286 L 373.2857142857143 126.28571428571428 L 373.14285714285717 125.42857142857139 L 372.7142857142857 124.7142857142857 L 372.2857142857143 124.14285714285711 L 371.7142857142857 123.7142857142857 L 371 123.42857142857142 L 370.57142857142856 123.42857142857142 Z" fill="none" stroke="#5da9e9" stroke-width="1.4285714285714288" stroke-linecap="round" stroke-linejoin="round" data-pcb-component-id="null" data-pcb-silkscreen-path-id="pcb_silkscreen_path_19" data-type="pcb_silkscreen_path" data-pcb-layer="bottom"/><path class="pcb-silkscreen pcb-silkscreen-bottom" d="M 363.2857142857143 122.28571428571428 L 364.7142857142857 122.28571428571428 L 364.7142857142857 131.4285714285714 L 363.2857142857143 131.4285714285714 L 363.2857142857143 130.1428571428571 L 363 130.42857142857142 L 362.42857142857144 130.99999999999997 L 361.7142857142857 131.4285714285714 L 360.85714285714283 131.57142857142856 L 360.2857142857143 131.7142857142857 L 359.57142857142856 131.57142857142856 L 358.42857142857144 131.1428571428571 L 357.57142857142856 130.28571428571425 L 357.1428571428571 128.99999999999997 L 357.1428571428571 128.28571428571428 L 357.1428571428571 122.28571428571428 L 358.7142857142857 122.28571428571428 L 358.7142857142857 128 L 358.85714285714283 128.99999999999997 L 359.2857142857143 129.7142857142857 L 359.85714285714283 130.1428571428571 L 360.2857142857143 130.28571428571425 L 360.85714285714283 130.28571428571425 L 361.42857142857144 130.28571428571425 L 362.1428571428571 129.99999999999997 L 362.57142857142856 129.57142857142856 L 362.85714285714283 128.99999999999997 L 363.1428571428571 128.42857142857142 L 363.2857142857143 127.7142857142857 L 363.2857142857143 122.28571428571428 Z" fill="none" stroke="#5da9e9" stroke-width="1.4285714285714288" stroke-linecap="round" stroke-linejoin="round" data-pcb-component-id="null" data-pcb-silkscreen-path-id="pcb_silkscreen_path_20" data-type="pcb_silkscreen_path" data-pcb-layer="bottom"/><rect class="pcb-pad" fill="rgb(200, 52, 52)" x="297.8571428571429" y="224.99999999999997" width="35.714285714285715" height="35.714285714285715" data-type="pcb_smtpad" data-pcb-layer="top"/><rect class="pcb-pad" fill="rgb(200, 52, 52)" x="466.42857142857144" y="224.99999999999997" width="35.714285714285715" height="35.714285714285715" data-type="pcb_smtpad" data-pcb-layer="top"/><rect class="pcb-pad" fill="rgb(200, 52, 52)" x="541.4285714285714" y="422.1428571428571" width="17.142857142857142" height="12.857142857142858" data-type="pcb_smtpad" data-pcb-layer="top"/><rect class="pcb-pad" fill="rgb(200, 52, 52)" x="562.8571428571429" y="422.1428571428571" width="17.142857142857142" height="12.857142857142858" data-type="pcb_smtpad" data-pcb-layer="top"/><rect class="pcb-pad" fill="rgb(200, 52, 52)" x="584.2857142857143" y="422.1428571428571" width="17.142857142857142" height="12.857142857142858" data-type="pcb_smtpad" data-pcb-layer="top"/><rect class="pcb-pad" fill="rgb(200, 52, 52)" x="468.2142857142857" y="421.7857142857143" width="11.42857142857143" height="13.571428571428571" data-type="pcb_smtpad" data-pcb-layer="top"/><rect class="pcb-pad" fill="rgb(200, 52, 52)" x="491.7857142857143" y="421.7857142857143" width="11.42857142857143" height="13.571428571428571" data-type="pcb_smtpad" data-pcb-layer="top"/><path class="pcb-trace" stroke="rgb(200, 52, 52)" fill="none" d="M 381.85714285714283 457.1428571428571 L 409.45907121276633 429.54092878723367" stroke-width="2.142857142857143" stroke-linecap="round" stroke-linejoin="round" shape-rendering="crispEdges" data-type="pcb_trace" data-pcb-layer="top"/><path class="pcb-trace" stroke="rgb(200, 52, 52)" fill="none" d="M 409.45907121276633 429.54092878723367 L 448.99416303191003 429.54092878723367" stroke-width="2.142857142857143" stroke-linecap="round" stroke-linejoin="round" shape-rendering="crispEdges" data-type="pcb_trace" data-pcb-layer="top"/><path class="pcb-trace" stroke="rgb(200, 52, 52)" fill="none" d="M 448.99416303191003 429.54092878723367 L 457.34897389363965 437.8957396489633" stroke-width="2.142857142857143" stroke-linecap="round" stroke-linejoin="round" shape-rendering="crispEdges" data-type="pcb_trace" data-pcb-layer="top"/><path class="pcb-trace" stroke="rgb(200, 52, 52)" fill="none" d="M 457.34897389363965 437.8957396489633 L 488.17568892246527 437.8957396489633" stroke-width="2.142857142857143" stroke-linecap="round" stroke-linejoin="round" shape-rendering="crispEdges" data-type="pcb_trace" data-pcb-layer="top"/><path class="pcb-trace" stroke="rgb(200, 52, 52)" fill="none" d="M 488.17568892246527 437.8957396489633 L 488.17568892246527 437.8957396489633" stroke-width="2.142857142857143" stroke-linecap="round" stroke-linejoin="round" shape-rendering="crispEdges" data-type="pcb_trace" data-pcb-layer="top"/><path class="pcb-trace" stroke="rgb(200, 52, 52)" fill="none" d="M 488.17568892246527 437.8957396489633 L 497.5 428.57142857142856" stroke-width="2.142857142857143" stroke-linecap="round" stroke-linejoin="round" shape-rendering="crispEdges" data-type="pcb_trace" data-pcb-layer="top"/><path class="pcb-trace" stroke="rgb(200, 52, 52)" fill="none" d="M 473.92857142857144 428.57142857142856 L 491.07142857142856 411.42857142857144" stroke-width="2.142857142857143" stroke-linecap="round" stroke-linejoin="round" shape-rendering="crispEdges" data-type="pcb_trace" data-pcb-layer="top"/><path class="pcb-trace" stroke="rgb(200, 52, 52)" fill="none" d="M 491.07142857142856 411.42857142857144 L 541.825833893369 411.42857142857144" stroke-width="2.142857142857143" stroke-linecap="round" stroke-linejoin="round" shape-rendering="crispEdges" data-type="pcb_trace" data-pcb-layer="top"/><path class="pcb-trace" stroke="rgb(200, 52, 52)" fill="none" d="M 541.825833893369 411.42857142857144 L 542.8571428571429 411.42857142857144" stroke-width="2.142857142857143" stroke-linecap="round" stroke-linejoin="round" shape-rendering="crispEdges" data-type="pcb_trace" data-pcb-layer="top"/><path class="pcb-trace" stroke="rgb(200, 52, 52)" fill="none" d="M 542.8571428571429 411.42857142857144 L 542.8571428571429 411.42857142857144" stroke-width="2.142857142857143" stroke-linecap="round" stroke-linejoin="round" shape-rendering="crispEdges" data-type="pcb_trace" data-pcb-layer="top"/><path class="pcb-trace" stroke="rgb(200, 52, 52)" fill="none" d="M 565.7142857142858 411.42857142857144 L 565.7142857142858 411.42857142857144" stroke-width="2.142857142857143" stroke-linecap="round" stroke-linejoin="round" shape-rendering="crispEdges" data-type="pcb_trace" data-pcb-layer="top"/><path class="pcb-trace" stroke="rgb(200, 52, 52)" fill="none" d="M 565.7142857142858 411.42857142857144 L 565.7142857142858 422.85714285714283" stroke-width="2.142857142857143" stroke-linecap="round" stroke-linejoin="round" shape-rendering="crispEdges" data-type="pcb_trace" data-pcb-layer="top"/><path class="pcb-trace" stroke="rgb(200, 52, 52)" fill="none" d="M 565.7142857142858 422.85714285714283 L 571.4285714285714 428.57142857142856" stroke-width="2.142857142857143" stroke-linecap="round" stroke-linejoin="round" shape-rendering="crispEdges" data-type="pcb_trace" data-pcb-layer="top"/><path class="pcb-trace" stroke="rgb(200, 52, 52)" fill="none" d="M 418.14285714285717 457.1428571428571 L 418.14285714285717 444.7142857142857" stroke-width="2.142857142857143" stroke-linecap="round" stroke-linejoin="round" shape-rendering="crispEdges" data-type="pcb_trace" data-pcb-layer="top"/><path class="pcb-trace" stroke="rgb(200, 52, 52)" fill="none" d="M 418.14285714285717 444.7142857142857 L 427.0311731928979 435.825969664245" stroke-width="2.142857142857143" stroke-linecap="round" stroke-linejoin="round" shape-rendering="crispEdges" data-type="pcb_trace" data-pcb-layer="top"/><path class="pcb-trace" stroke="rgb(200, 52, 52)" fill="none" d="M 427.0311731928979 435.825969664245 L 428.57142857142856 434.2857142857143" stroke-width="2.142857142857143" stroke-linecap="round" stroke-linejoin="round" shape-rendering="crispEdges" data-type="pcb_trace" data-pcb-layer="top"/><path class="pcb-trace" stroke="rgb(200, 52, 52)" fill="none" d="M 428.57142857142856 434.2857142857143 L 428.57142857142856 434.2857142857143" stroke-width="2.142857142857143" stroke-linecap="round" stroke-linejoin="round" shape-rendering="crispEdges" data-type="pcb_trace" data-pcb-layer="top"/><path class="pcb-trace" stroke="rgb(200, 52, 52)" fill="none" d="M 555.7857142857143 341.25 L 555.7857142857143 341.25" stroke-width="2.142857142857143" stroke-linecap="round" stroke-linejoin="round" shape-rendering="crispEdges" data-type="pcb_trace" data-pcb-layer="top"/><path class="pcb-trace" stroke="rgb(200, 52, 52)" fill="none" d="M 555.7857142857143 341.25 L 555.7857142857143 314.35714285714283" stroke-width="2.142857142857143" stroke-linecap="round" stroke-linejoin="round" shape-rendering="crispEdges" data-type="pcb_trace" data-pcb-layer="top"/><path class="pcb-trace" stroke="rgb(200, 52, 52)" fill="none" d="M 555.7857142857143 314.35714285714283 L 484.2857142857143 242.85714285714283" stroke-width="2.142857142857143" stroke-linecap="round" stroke-linejoin="round" shape-rendering="crispEdges" data-type="pcb_trace" data-pcb-layer="top"/><path class="pcb-trace" stroke="rgb(200, 52, 52)" fill="none" d="M 550 428.57142857142856 L 550 411.8298299523914" stroke-width="2.142857142857143" stroke-linecap="round" stroke-linejoin="round" shape-rendering="crispEdges" data-type="pcb_trace" data-pcb-layer="top"/><path class="pcb-trace" stroke="rgb(200, 52, 52)" fill="none" d="M 550 411.8298299523914 L 481.0273129047515 342.85714285714283" stroke-width="2.142857142857143" stroke-linecap="round" stroke-linejoin="round" shape-rendering="crispEdges" data-type="pcb_trace" data-pcb-layer="top"/><path class="pcb-trace" stroke="rgb(200, 52, 52)" fill="none" d="M 481.0273129047515 342.85714285714283 L 415.7142857142857 342.85714285714283" stroke-width="2.142857142857143" stroke-linecap="round" stroke-linejoin="round" shape-rendering="crispEdges" data-type="pcb_trace" data-pcb-layer="top"/><path class="pcb-trace" stroke="rgb(200, 52, 52)" fill="none" d="M 415.7142857142857 342.85714285714283 L 315.7142857142857 242.85714285714283" stroke-width="2.142857142857143" stroke-linecap="round" stroke-linejoin="round" shape-rendering="crispEdges" data-type="pcb_trace" data-pcb-layer="top"/><path class="pcb-silkscreen pcb-silkscreen-top" d="M 315.7142857142857 271.42857142857144 L 315.7142857142857 214.28571428571428" fill="none" stroke="#f2eda1" stroke-width="1.4285714285714288" stroke-linecap="round" stroke-linejoin="round" data-pcb-component-id="pcb_component_0" data-pcb-silkscreen-path-id="pcb_silkscreen_path_0" data-type="pcb_silkscreen_path" data-pcb-layer="top"/><path class="pcb-silkscreen pcb-silkscreen-top" d="M 307.1428571428571 242.85714285714283 L 324.2857142857143 242.85714285714283" fill="none" stroke="#f2eda1" stroke-width="1.4285714285714288" stroke-linecap="round" stroke-linejoin="round" data-pcb-component-id="pcb_component_0" data-pcb-silkscreen-path-id="pcb_silkscreen_path_1" data-type="pcb_silkscreen_path" data-pcb-layer="top"/><text x="0" y="0" dx="0" dy="0" fill="#f2eda1" font-family="Arial, sans-serif" font-size="14.285714285714286" text-anchor="middle" dominant-baseline="central" transform="matrix(1,0,0,1,315.7142857142857,285.7142857142857)" class="pcb-silkscreen-text pcb-silkscreen-top" data-pcb-silkscreen-text-id="pcb_component_0" stroke="none" data-type="pcb_silkscreen_text" data-pcb-layer="top">+</text><text x="0" y="0" dx="0" dy="0" fill="#f2eda1" font-family="Arial, sans-serif" font-size="14.285714285714286" text-anchor="middle" dominant-baseline="central" transform="matrix(1,0,0,1,484.2857142857143,285.7142857142857)" class="pcb-silkscreen-text pcb-silkscreen-top" data-pcb-silkscreen-text-id="pcb_component_0" stroke="none" data-type="pcb_silkscreen_text" data-pcb-layer="top">-</text><path class="pcb-silkscreen pcb-silkscreen-top" d="M 535.7142857142858 450 L 607.1428571428571 450 L 607.1428571428571 407.1428571428571 L 535.7142857142858 407.1428571428571 L 535.7142857142858 450 Z" fill="none" stroke="#f2eda1" stroke-width="1.4285714285714288" stroke-linecap="round" stroke-linejoin="round" data-pcb-component-id="pcb_component_1" data-pcb-silkscreen-path-id="pcb_silkscreen_path_2" data-type="pcb_silkscreen_path" data-pcb-layer="top"/><path class="pcb-silkscreen pcb-silkscreen-top" d="M 497.5 416.07142857142856 L 465.3571428571429 416.07142857142856 L 465.3571428571429 441.07142857142856 L 497.5 441.07142857142856" fill="none" stroke="#f2eda1" stroke-width="1.4285714285714288" stroke-linecap="round" stroke-linejoin="round" data-pcb-component-id="pcb_component_2" data-pcb-silkscreen-path-id="pcb_silkscreen_path_3" data-type="pcb_silkscreen_path" data-pcb-layer="top"/><text x="0" y="0" dx="0" dy="0" fill="#f2eda1" font-family="Arial, sans-serif" font-size="5.714285714285715" text-anchor="middle" dominant-baseline="central" transform="matrix(1,0,0,1,485.7142857142857,408.92857142857144)" class="pcb-silkscreen-text pcb-silkscreen-top" data-pcb-silkscreen-text-id="pcb_component_2" stroke="none" data-type="pcb_silkscreen_text" data-pcb-layer="top">R1</text><path class="pcb-silkscreen pcb-silkscreen-top" d="M 364.2857142857143 478.57142857142856 L 435.7142857142857 478.57142857142856 L 435.7142857142857 435.7142857142857 L 364.2857142857143 435.7142857142857 L 364.2857142857143 478.57142857142856 Z" fill="none" stroke="#f2eda1" stroke-width="1.4285714285714288" stroke-linecap="round" stroke-linejoin="round" data-pcb-component-id="pcb_component_3" data-pcb-silkscreen-path-id="pcb_silkscreen_path_4" data-type="pcb_silkscreen_path" data-pcb-layer="top"/><text x="0" y="0" dx="0" dy="0" fill="#f2eda1" font-family="Arial, sans-serif" font-size="11.42857142857143" text-anchor="middle" dominant-baseline="central" transform="matrix(1,0,0,1,381.85714285714283,488.57142857142856)" class="pcb-silkscreen-text pcb-silkscreen-top" data-pcb-silkscreen-text-id="pcb_component_3" stroke="none" data-type="pcb_silkscreen_text" data-pcb-layer="top">+</text><text x="0" y="0" dx="0" dy="0" fill="#f2eda1" font-family="Arial, sans-serif" font-size="11.42857142857143" text-anchor="middle" dominant-baseline="central" transform="matrix(1,0,0,1,400,425.7142857142857)" class="pcb-silkscreen-text pcb-silkscreen-top" data-pcb-silkscreen-text-id="pcb_component_3" stroke="none" data-type="pcb_silkscreen_text" data-pcb-layer="top">LED</text><g data-type="pcb_plated_hole" data-pcb-layer="through"><circle class="pcb-hole-outer" fill="rgb(200, 52, 52)" cx="381.85714285714283" cy="457.1428571428571" r="12.857142857142858" data-type="pcb_plated_hole" data-pcb-layer="top"/><circle class="pcb-hole-inner" fill="#FF26E2" cx="381.85714285714283" cy="457.1428571428571" r="7.142857142857143" data-type="pcb_plated_hole_drill" data-pcb-layer="drill"/></g><g data-type="pcb_plated_hole" data-pcb-layer="through"><circle class="pcb-hole-outer" fill="rgb(200, 52, 52)" cx="418.14285714285717" cy="457.1428571428571" r="12.857142857142858" data-type="pcb_plated_hole" data-pcb-layer="top"/><circle class="pcb-hole-inner" fill="#FF26E2" cx="418.14285714285717" cy="457.1428571428571" r="7.142857142857143" data-type="pcb_plated_hole_drill" data-pcb-layer="drill"/></g><g data-type="pcb_via" data-pcb-layer="through"><circle class="pcb-hole-outer" fill="rgb(200, 52, 52)" cx="542.8571428571429" cy="411.42857142857144" r="2.142857142857143" data-type="pcb_via" data-pcb-layer="top"/><circle class="pcb-hole-inner" fill="#FF26E2" cx="542.8571428571429" cy="411.42857142857144" r="1.4285714285714288" data-type="pcb_via" data-pcb-layer="drill"/></g><g data-type="pcb_via" data-pcb-layer="through"><circle class="pcb-hole-outer" fill="rgb(200, 52, 52)" cx="565.7142857142858" cy="411.42857142857144" r="2.142857142857143" data-type="pcb_via" data-pcb-layer="top"/><circle class="pcb-hole-inner" fill="#FF26E2" cx="565.7142857142858" cy="411.42857142857144" r="1.4285714285714288" data-type="pcb_via" data-pcb-layer="drill"/></g><g data-type="pcb_via" data-pcb-layer="through"><circle class="pcb-hole-outer" fill="rgb(200, 52, 52)" cx="428.57142857142856" cy="434.2857142857143" r="2.142857142857143" data-type="pcb_via" data-pcb-layer="top"/><circle class="pcb-hole-inner" fill="#FF26E2" cx="428.57142857142856" cy="434.2857142857143" r="1.4285714285714288" data-type="pcb_via" data-pcb-layer="drill"/></g><g data-type="pcb_via" data-pcb-layer="through"><circle class="pcb-hole-outer" fill="rgb(200, 52, 52)" cx="555.7857142857143" cy="341.25" r="2.142857142857143" data-type="pcb_via" data-pcb-layer="top"/><circle class="pcb-hole-inner" fill="#FF26E2" cx="555.7857142857143" cy="341.25" r="1.4285714285714288" data-type="pcb_via" data-pcb-layer="drill"/></g><circle class="pcb-hole" cx="400" cy="542.8571428571429" r="17.857142857142858" fill="#FF26E2" data-type="pcb_hole" data-pcb-layer="drill"/></svg>