<svg xmlns="http://www.w3.org/2000/svg" width="800" height="600" data-software-used-string="@tscircuit/core@0.0.1112"><style></style><rect class="boundary" x="0" y="0" fill="#000" width="800" height="600" data-type="pcb_background" data-pcb-layer="global"/><rect class="pcb-boundary" fill="none" stroke="#fff" stroke-width="0.3" x="78.57142857142856" y="14.285714285714278" width="642.8571428571429" height="571.4285714285716" data-type="pcb_boundary" data-pcb-layer="global"/><path class="pcb-board" d="M 400 585.7142857142858 L 421.42857142857144 578.5714285714286 L 432.85714285714283 568.5714285714286 L 440 554.2857142857143 L 442.8571428571429 535.7142857142858 L 442.8571428571429 514.2857142857142 L 440.14285714285717 500.2857142857143 L 465.2857142857143 523.1428571428571 L 496.2857142857143 541.1428571428571 L 532 551.7142857142858 L 570.1428571428571 553.2857142857143 L 608.7142857142858 545.2857142857143 L 645.1428571428571 528 L 676.4285714285714 502.57142857142856 L 700.7142857142858 470.57142857142856 L 716.1428571428571 433.85714285714283 L 721.4285714285714 394.57142857142856 L 716.1428571428571 354.42857142857144 L 700.7142857142858 314.7142857142857 L 676.4285714285714 276.1428571428571 L 645.1428571428571 239.14285714285714 L 608.7142857142858 203.85714285714283 L 570.1428571428571 169.85714285714286 L 532 137.1428571428571 L 496.2857142857143 105.7142857142857 L 465.2857142857143 75.8571428571428 L 440.14285714285717 47.85714285714283 L 421.7142857142857 28.571428571428555 L 411.42857142857144 19.999999999999943 L 404.2857142857143 15.714285714285722 L 400 14.285714285714278 L 395.7142857142857 15.714285714285722 L 388.57142857142856 19.999999999999943 L 378.2857142857143 28.571428571428555 L 359.85714285714283 47.85714285714283 L 334.7142857142857 75.8571428571428 L 303.7142857142857 105.7142857142857 L 268 137.1428571428571 L 229.85714285714283 169.85714285714286 L 191.28571428571428 203.85714285714283 L 154.85714285714283 239.14285714285714 L 123.57142857142856 276.1428571428571 L 99.28571428571428 314.7142857142857 L 83.85714285714283 354.42857142857144 L 78.57142857142856 394.57142857142856 L 83.85714285714283 433.85714285714283 L 99.28571428571428 470.57142857142856 L 123.57142857142856 502.57142857142856 L 154.85714285714283 528 L 191.28571428571428 545.2857142857143 L 229.85714285714283 553.2857142857143 L 268 551.7142857142858 L 303.7142857142857 541.1428571428571 L 334.7142857142857 523.1428571428571 L 359.85714285714283 500.2857142857143 L 357.1428571428571 514.2857142857142 L 357.1428571428571 535.7142857142858 L 360 554.2857142857143 L 367.14285714285717 568.5714285714286 L 378.57142857142856 578.5714285714286 Z" fill="none" stroke="rgba(255, 255, 255, 0.5)" stroke-width="1.4285714285714288" data-type="pcb_board" data-pcb-layer="board"/><path class="pcb-trace" stroke="rgb(77, 127, 196)" fill="none" d="M 542.8571428571429 411.42857142857144 L 542.8571428571429 411.42857142857144" stroke-width="2.142857142857143" stroke-linecap="round" stroke-linejoin="round" shape-rendering="crispEdges" data-type="pcb_trace" data-pcb-layer="bottom"/><path class="pcb-trace" stroke="rgb(77, 127, 196)" fill="none" d="M 542.8571428571429 411.42857142857144 L 564.2726317667348 411.42857142857144" stroke-width="2.142857142857143" stroke-linecap="round" stroke-linejoin="round" shape-rendering="crispEdges" data-type="pcb_trace" data-pcb-layer="bottom"/><path class="pcb-trace" stroke="rgb(77, 127, 196)" fill="none" d="M 564.2726317667348 411.42857142857144 L 564.2726317667348 411.42857142857144" stroke-width="2.142857142857143" stroke-linecap="round" stroke-linejoin="round" shape-rendering="crispEdges" data-type="pcb_trace" data-pcb-layer="bottom"/><path class="pcb-trace" stroke="rgb(77, 127, 196)" fill="none" d="M 564.2726317667348 411.42857142857144 L 565.7142857142858 411.42857142857144" stroke-width="2.142857142857143" stroke-linecap="round" stroke-linejoin="round" shape-rendering="crispEdges" data-type="pcb_trace" data-pcb-layer="bottom"/><path class="pcb-trace" stroke="rgb(77, 127, 196)" fill="none" d="M 565.7142857142858 411.42857142857144 L 565.7142857142858 411.42857142857144" stroke-width="2.142857142857143" stroke-linecap="round" stroke-linejoin="round" shape-rendering="crispEdges" data-type="pcb_trace" data-pcb-layer="bottom"/><path class="pcb-trace" stroke="rgb(77, 127, 196)" fill="none" d="M 428.57142857142856 434.2857142857143 L 428.57142857142856 434.2857142857143" stroke-width="2.142857142857143" stroke-linecap="round" stroke-linejoin="round" shape-rendering="crispEdges" data-type="pcb_trace" data-pcb-layer="bottom"/><path class="pcb-trace" stroke="rgb(77, 127, 196)" fill="none" d="M 428.57142857142856 434.2857142857143 L 459.19457463312096 434.2857142857143" stroke-width="2.142857142857143" stroke-linecap="round" stroke-linejoin="round" shape-rendering="crispEdges" data-type="pcb_trace" data-pcb-layer="bottom"/><path class="pcb-trace" stroke="rgb(77, 127, 196)" fill="none" d="M 459.19457463312096 434.2857142857143 L 553.69921180885 339.78107710998523" stroke-width="2.142857142857143" stroke-linecap="round" stroke-linejoin="round" shape-rendering="crispEdges" data-type="pcb_trace" data-pcb-layer="bottom"/><path class="pcb-trace" stroke="rgb(77, 127, 196)" fill="none" d="M 553.69921180885 339.78107710998523 L 555.7857142857143 341.25" stroke-width="2.142857142857143" stroke-linecap="round" stroke-linejoin="round" shape-rendering="crispEdges" data-type="pcb_trace" data-pcb-layer="bottom"/><path class="pcb-trace" stroke="rgb(77, 127, 196)" fill="none" d="M 555.7857142857143 341.25 L 555.7857142857143 341.25" stroke-width="2.142857142857143" stroke-linecap="round" stroke-linejoin="round" shape-rendering="crispEdges" data-type="pcb_trace" data-pcb-layer="bottom"/><path class="pcb-silkscreen pcb-silkscreen-bottom" d="M 474.7142857142857 129.57142857142856 L 485.7142857142857 156.57142857142856 L 475.1428571428571 156.57142857142856 L 469.8571428571429 141.57142857142856 L 464.57142857142856 156.57142857142856 L 454.42857142857144 156.57142857142856 L 465.42857142857144 129.57142857142856 L 474.7142857142857 129.57142857142856 Z" fill="none" stroke="#5da9e9" stroke-width="1.4285714285714288" stroke-linecap="round" stroke-linejoin="round" data-pcb-component-id="null" data-pcb-silkscreen-path-id="pcb_silkscreen_path_5" data-type="pcb_silkscreen_path" data-pcb-layer="bottom"/><path class="pcb-silkscreen pcb-silkscreen-bottom" d="M 442.7142857142857 129.57142857142856 L 452.57142857142856 129.57142857142856 L 452.57142857142856 156.57142857142856 L 442.7142857142857 156.57142857142856 L 442.7142857142857 129.57142857142856 Z" fill="none" stroke="#5da9e9" stroke-width="1.4285714285714288" stroke-linecap="round" stroke-linejoin="round" data-pcb-component-id="null" data-pcb-silkscreen-path-id="pcb_silkscreen_path_6" data-type="pcb_silkscreen_path" data-pcb-layer="bottom"/><path class="pcb-silkscreen pcb-silkscreen-bottom" d="M 415.2857142857143 156.57142857142856 L 415.2857142857143 150.42857142857142 L 426.85714285714283 137.4285714285714 L 415.14285714285717 137.4285714285714 L 415.14285714285717 129.57142857142856 L 440 129.57142857142856 L 440 135.85714285714283 L 428.42857142857144 148.7142857142857 L 439.2857142857143 148.7142857142857 L 439.2857142857143 156.57142857142856 L 415.2857142857143 156.57142857142856 Z" fill="none" stroke="#5da9e9" stroke-width="1.4285714285714288" stroke-linecap="round" stroke-linejoin="round" data-pcb-component-id="null" data-pcb-silkscreen-path-id="pcb_silkscreen_path_7" data-type="pcb_silkscreen_path" data-pcb-layer="bottom"/><path class="pcb-silkscreen pcb-silkscreen-bottom" d="M 414.2857142857143 143.1428571428571 L 414 146 L 413.2857142857143 148.85714285714283 L 412 151.28571428571428 L 410.14285714285717 153.28571428571428 L 408 154.99999999999997 L 405.57142857142856 156.28571428571425 L 402.7142857142857 157.14285714285714 L 399.57142857142856 157.42857142857142 L 397.14285714285717 157.14285714285714 L 394.7142857142857 156.57142857142856 L 393.2857142857143 155.99999999999997 L 393.2857142857143 146.99999999999997 L 395 147.85714285714283 L 396.85714285714283 148.42857142857142 L 398.14285714285717 148.42857142857142 L 400.57142857142856 148.1428571428571 L 402.42857142857144 146.99999999999997 L 403.7142857142857 145.28571428571428 L 404.2857142857143 143.1428571428571 L 403.7142857142857 140.85714285714283 L 402.57142857142856 139.14285714285714 L 400.57142857142856 137.99999999999997 L 398.14285714285717 137.7142857142857 L 396.85714285714283 137.7142857142857 L 395 138.28571428571428 L 393.2857142857143 139.28571428571428 L 393.2857142857143 130.28571428571425 L 395.7142857142857 129.28571428571428 L 398.14285714285717 128.85714285714283 L 399.7142857142857 128.85714285714283 L 402.7142857142857 128.99999999999997 L 405.57142857142856 129.85714285714283 L 408 130.99999999999997 L 410.14285714285717 132.7142857142857 L 411.85714285714283 134.7142857142857 L 413.14285714285717 137.1428571428571 L 414 140 L 414.2857142857143 143.1428571428571 Z" fill="none" stroke="#5da9e9" stroke-width="1.4285714285714288" stroke-linecap="round" stroke-linejoin="round" data-pcb-component-id="null" data-pcb-silkscreen-path-id="pcb_silkscreen_path_8" data-type="pcb_silkscreen_path" data-pcb-layer="bottom"/><path class="pcb-silkscreen pcb-silkscreen-bottom" d="M 376.2857142857143 157.42857142857142 L 373.2857142857143 157.14285714285714 L 370.42857142857144 156.28571428571425 L 367.85714285714283 154.99999999999997 L 365.57142857142856 153.28571428571428 L 363.7142857142857 151.14285714285714 L 362.42857142857144 148.7142857142857 L 361.57142857142856 146 L 361.2857142857143 143.1428571428571 L 361.57142857142856 140.14285714285714 L 362.42857142857144 137.4285714285714 L 363.7142857142857 134.99999999999997 L 365.57142857142856 132.85714285714286 L 367.85714285714283 131.1428571428571 L 370.42857142857144 129.85714285714283 L 373.2857142857143 128.99999999999997 L 376.2857142857143 128.85714285714283 L 379.42857142857144 128.99999999999997 L 382.2857142857143 129.85714285714283 L 384.85714285714283 131.1428571428571 L 387.14285714285717 132.85714285714286 L 389 134.99999999999997 L 390.2857142857143 137.4285714285714 L 391.14285714285717 140.14285714285714 L 391.42857142857144 143.1428571428571 L 391.14285714285717 146 L 390.2857142857143 148.7142857142857 L 389 151.14285714285714 L 387.14285714285717 153.28571428571428 L 384.85714285714283 154.99999999999997 L 382.2857142857143 156.28571428571425 L 379.42857142857144 157.14285714285714 L 376.2857142857143 157.42857142857142 Z" fill="none" stroke="#5da9e9" stroke-width="1.4285714285714288" stroke-linecap="round" stroke-linejoin="round" data-pcb-component-id="null" data-pcb-silkscreen-path-id="pcb_silkscreen_path_9" data-type="pcb_silkscreen_path" data-pcb-layer="bottom"/><path class="pcb-silkscreen pcb-silkscreen-bottom" d="M 376.2857142857143 148.42857142857142 L 378.42857142857144 147.99999999999997 L 380.14285714285717 146.85714285714283 L 381.2857142857143 145.14285714285714 L 381.7142857142857 143.1428571428571 L 381.2857142857143 140.99999999999997 L 380.14285714285717 139.28571428571428 L 378.42857142857144 138.1428571428571 L 376.2857142857143 137.7142857142857 L 374.2857142857143 138.1428571428571 L 372.57142857142856 139.28571428571428 L 371.42857142857144 140.99999999999997 L 371 143.1428571428571 L 371.42857142857144 145.14285714285714 L 372.57142857142856 146.85714285714283 L 374.2857142857143 147.99999999999997 L 376.2857142857143 148.42857142857142 Z" fill="none" stroke="#5da9e9" stroke-width="1.4285714285714288" stroke-linecap="round" stroke-linejoin="round" data-pcb-component-id="null" data-pcb-silkscreen-path-id="pcb_silkscreen_path_10" data-type="pcb_silkscreen_path" data-pcb-layer="bottom"/><path class="pcb-silkscreen pcb-silkscreen-bottom" d="M 349.57142857142856 144.1428571428571 L 349.57142857142856 129.42857142857142 L 359.57142857142856 129.42857142857142 L 359.57142857142856 156.57142857142856 L 349.57142857142856 156.57142857142856 L 349.57142857142856 153.42857142857142 L 347.42857142857144 155.57142857142856 L 344.57142857142856 157 L 342.1428571428571 157.28571428571428 L 339.57142857142856 157 L 336.57142857142856 155.57142857142856 L 334.42857142857144 153 L 331.8571428571429 155.7142857142857 L 328.42857142857144 157.14285714285714 L 326 157.28571428571428 L 321.8571428571429 156.57142857142856 L 318.8571428571429 154.42857142857142 L 317.1428571428571 151.28571428571428 L 316.42857142857144 146.85714285714283 L 316.42857142857144 129.42857142857142 L 326.42857142857144 129.42857142857142 L 326.42857142857144 144.28571428571428 L 327 146.57142857142856 L 328.2857142857143 147.99999999999997 L 329.7142857142857 148.28571428571428 L 331 147.99999999999997 L 332.42857142857144 146.57142857142856 L 333 144.1428571428571 L 333 129.42857142857142 L 343 129.42857142857142 L 343 144.28571428571428 L 343.42857142857144 146.57142857142856 L 344.85714285714283 147.99999999999997 L 346.1428571428571 148.28571428571428 L 347.57142857142856 147.99999999999997 L 349 146.57142857142856 L 349.57142857142856 144.1428571428571 Z" fill="none" stroke="#5da9e9" stroke-width="1.4285714285714288" stroke-linecap="round" stroke-linejoin="round" data-pcb-component-id="null" data-pcb-silkscreen-path-id="pcb_silkscreen_path_11" data-type="pcb_silkscreen_path" data-pcb-layer="bottom"/><rect class="pcb-pad" fill="rgb(200, 52, 52)" x="297.8571428571429" y="224.99999999999997" width="35.714285714285715" height="35.714285714285715" data-type="pcb_smtpad" data-pcb-layer="top"/><rect class="pcb-pad" fill="rgb(200, 52, 52)" x="466.42857142857144" y="224.99999999999997" width="35.714285714285715" height="35.714285714285715" data-type="pcb_smtpad" data-pcb-layer="top"/><rect class="pcb-pad" fill="rgb(200, 52, 52)" x="541.4285714285714" y="422.1428571428571" width="17.142857142857142" height="12.857142857142858" data-type="pcb_smtpad" data-pcb-layer="top"/><rect class="pcb-pad" fill="rgb(200, 52, 52)" x="562.8571428571429" y="422.1428571428571" width="17.142857142857142" height="12.857142857142858" data-type="pcb_smtpad" data-pcb-layer="top"/><rect class="pcb-pad" fill="rgb(200, 52, 52)" x="584.2857142857143" y="422.1428571428571" width="17.142857142857142" height="12.857142857142858" data-type="pcb_smtpad" data-pcb-layer="top"/><rect class="pcb-pad" fill="rgb(200, 52, 52)" x="468.2142857142857" y="421.7857142857143" width="11.42857142857143" height="13.571428571428571" data-type="pcb_smtpad" data-pcb-layer="top"/><rect class="pcb-pad" fill="rgb(200, 52, 52)" x="491.7857142857143" y="421.7857142857143" width="11.42857142857143" height="13.571428571428571" data-type="pcb_smtpad" data-pcb-layer="top"/><path class="pcb-trace" stroke="rgb(200, 52, 52)" fill="none" d="M 381.85714285714283 457.1428571428571 L 409.45907121276633 429.54092878723367" stroke-width="2.142857142857143" stroke-linecap="round" stroke-linejoin="round" shape-rendering="crispEdges" data-type="pcb_trace" data-pcb-layer="top"/><path class="pcb-trace" stroke="rgb(200, 52, 52)" fill="none" d="M 409.45907121276633 429.54092878723367 L 448.99416303191003 429.54092878723367" stroke-width="2.142857142857143" stroke-linecap="round" stroke-linejoin="round" shape-rendering="crispEdges" data-type="pcb_trace" data-pcb-layer="top"/><path class="pcb-trace" stroke="rgb(200, 52, 52)" fill="none" d="M 448.99416303191003 429.54092878723367 L 457.34897389363965 437.8957396489633" stroke-width="2.142857142857143" stroke-linecap="round" stroke-linejoin="round" shape-rendering="crispEdges" data-type="pcb_trace" data-pcb-layer="top"/><path class="pcb-trace" stroke="rgb(200, 52, 52)" fill="none" d="M 457.34897389363965 437.8957396489633 L 488.17568892246527 437.8957396489633" stroke-width="2.142857142857143" stroke-linecap="round" stroke-linejoin="round" shape-rendering="crispEdges" data-type="pcb_trace" data-pcb-layer="top"/><path class="pcb-trace" stroke="rgb(200, 52, 52)" fill="none" d="M 488.17568892246527 437.8957396489633 L 488.17568892246527 437.8957396489633" stroke-width="2.142857142857143" stroke-linecap="round" stroke-linejoin="round" shape-rendering="crispEdges" data-type="pcb_trace" data-pcb-layer="top"/><path class="pcb-trace" stroke="rgb(200, 52, 52)" fill="none" d="M 488.17568892246527 437.8957396489633 L 497.5 428.57142857142856" stroke-width="2.142857142857143" stroke-linecap="round" stroke-linejoin="round" shape-rendering="crispEdges" data-type="pcb_trace" data-pcb-layer="top"/><path class="pcb-trace" stroke="rgb(200, 52, 52)" fill="none" d="M 473.92857142857144 428.57142857142856 L 491.07142857142856 411.42857142857144" stroke-width="2.142857142857143" stroke-linecap="round" stroke-linejoin="round" shape-rendering="crispEdges" data-type="pcb_trace" data-pcb-layer="top"/><path class="pcb-trace" stroke="rgb(200, 52, 52)" fill="none" d="M 491.07142857142856 411.42857142857144 L 541.825833893369 411.42857142857144" stroke-width="2.142857142857143" stroke-linecap="round" stroke-linejoin="round" shape-rendering="crispEdges" data-type="pcb_trace" data-pcb-layer="top"/><path class="pcb-trace" stroke="rgb(200, 52, 52)" fill="none" d="M 541.825833893369 411.42857142857144 L 542.8571428571429 411.42857142857144" stroke-width="2.142857142857143" stroke-linecap="round" stroke-linejoin="round" shape-rendering="crispEdges" data-type="pcb_trace" data-pcb-layer="top"/><path class="pcb-trace" stroke="rgb(200, 52, 52)" fill="none" d="M 542.8571428571429 411.42857142857144 L 542.8571428571429 411.42857142857144" stroke-width="2.142857142857143" stroke-linecap="round" stroke-linejoin="round" shape-rendering="crispEdges" data-type="pcb_trace" data-pcb-layer="top"/><path class="pcb-trace" stroke="rgb(200, 52, 52)" fill="none" d="M 565.7142857142858 411.42857142857144 L 565.7142857142858 411.42857142857144" stroke-width="2.142857142857143" stroke-linecap="round" stroke-linejoin="round" shape-rendering="crispEdges" data-type="pcb_trace" data-pcb-layer="top"/><path class="pcb-trace" stroke="rgb(200, 52, 52)" fill="none" d="M 565.7142857142858 411.42857142857144 L 565.7142857142858 422.85714285714283" stroke-width="2.142857142857143" stroke-linecap="round" stroke-linejoin="round" shape-rendering="crispEdges" data-type="pcb_trace" data-pcb-layer="top"/><path class="pcb-trace" stroke="rgb(200, 52, 52)" fill="none" d="M 565.7142857142858 422.85714285714283 L 571.4285714285714 428.57142857142856" stroke-width="2.142857142857143" stroke-linecap="round" stroke-linejoin="round" shape-rendering="crispEdges" data-type="pcb_trace" data-pcb-layer="top"/><path class="pcb-trace" stroke="rgb(200, 52, 52)" fill="none" d="M 418.14285714285717 457.1428571428571 L 418.14285714285717 444.7142857142857" stroke-width="2.142857142857143" stroke-linecap="round" stroke-linejoin="round" shape-rendering="crispEdges" data-type="pcb_trace" data-pcb-layer="top"/><path class="pcb-trace" stroke="rgb(200, 52, 52)" fill="none" d="M 418.14285714285717 444.7142857142857 L 427.0311731928979 435.825969664245" stroke-width="2.142857142857143" stroke-linecap="round" stroke-linejoin="round" shape-rendering="crispEdges" data-type="pcb_trace" data-pcb-layer="top"/><path class="pcb-trace" stroke="rgb(200, 52, 52)" fill="none" d="M 427.0311731928979 435.825969664245 L 428.57142857142856 434.2857142857143" stroke-width="2.142857142857143" stroke-linecap="round" stroke-linejoin="round" shape-rendering="crispEdges" data-type="pcb_trace" data-pcb-layer="top"/><path class="pcb-trace" stroke="rgb(200, 52, 52)" fill="none" d="M 428.57142857142856 434.2857142857143 L 428.57142857142856 434.2857142857143" stroke-width="2.142857142857143" stroke-linecap="round" stroke-linejoin="round" shape-rendering="crispEdges" data-type="pcb_trace" data-pcb-layer="top"/><path class="pcb-trace" stroke="rgb(200, 52, 52)" fill="none" d="M 555.7857142857143 341.25 L 555.7857142857143 341.25" stroke-width="2.142857142857143" stroke-linecap="round" stroke-linejoin="round" shape-rendering="crispEdges" data-type="pcb_trace" data-pcb-layer="top"/><path class="pcb-trace" stroke="rgb(200, 52, 52)" fill="none" d="M 555.7857142857143 341.25 L 555.7857142857143 314.35714285714283" stroke-width="2.142857142857143" stroke-linecap="round" stroke-linejoin="round" shape-rendering="crispEdges" data-type="pcb_trace" data-pcb-layer="top"/><path class="pcb-trace" stroke="rgb(200, 52, 52)" fill="none" d="M 555.7857142857143 314.35714285714283 L 484.2857142857143 242.85714285714283" stroke-width="2.142857142857143" stroke-linecap="round" stroke-linejoin="round" shape-rendering="crispEdges" data-type="pcb_trace" data-pcb-layer="top"/><path class="pcb-trace" stroke="rgb(200, 52, 52)" fill="none" d="M 550 428.57142857142856 L 550 411.8298299523914" stroke-width="2.142857142857143" stroke-linecap="round" stroke-linejoin="round" shape-rendering="crispEdges" data-type="pcb_trace" data-pcb-layer="top"/><path class="pcb-trace" stroke="rgb(200, 52, 52)" fill="none" d="M 550 411.8298299523914 L 481.0273129047515 342.85714285714283" stroke-width="2.142857142857143" stroke-linecap="round" stroke-linejoin="round" shape-rendering="crispEdges" data-type="pcb_trace" data-pcb-layer="top"/><path class="pcb-trace" stroke="rgb(200, 52, 52)" fill="none" d="M 481.0273129047515 342.85714285714283 L 415.7142857142857 342.85714285714283" stroke-width="2.142857142857143" stroke-linecap="round" stroke-linejoin="round" shape-rendering="crispEdges" data-type="pcb_trace" data-pcb-layer="top"/><path class="pcb-trace" stroke="rgb(200, 52, 52)" fill="none" d="M 415.7142857142857 342.85714285714283 L 315.7142857142857 242.85714285714283" stroke-width="2.142857142857143" stroke-linecap="round" stroke-linejoin="round" shape-rendering="crispEdges" data-type="pcb_trace" data-pcb-layer="top"/><path class="pcb-silkscreen pcb-silkscreen-top" d="M 315.7142857142857 271.42857142857144 L 315.7142857142857 214.28571428571428" fill="none" stroke="#f2eda1" stroke-width="1.4285714285714288" stroke-linecap="round" stroke-linejoin="round" data-pcb-component-id="pcb_component_0" data-pcb-silkscreen-path-id="pcb_silkscreen_path_0" data-type="pcb_silkscreen_path" data-pcb-layer="top"/><path class="pcb-silkscreen pcb-silkscreen-top" d="M 307.1428571428571 242.85714285714283 L 324.2857142857143 242.85714285714283" fill="none" stroke="#f2eda1" stroke-width="1.4285714285714288" stroke-linecap="round" stroke-linejoin="round" data-pcb-component-id="pcb_component_0" data-pcb-silkscreen-path-id="pcb_silkscreen_path_1" data-type="pcb_silkscreen_path" data-pcb-layer="top"/><text x="0" y="0" dx="0" dy="0" fill="#f2eda1" font-family="Arial, sans-serif" font-size="14.285714285714286" text-anchor="middle" dominant-baseline="central" transform="matrix(1,0,0,1,315.7142857142857,285.7142857142857)" class="pcb-silkscreen-text pcb-silkscreen-top" data-pcb-silkscreen-text-id="pcb_component_0" stroke="none" data-type="pcb_silkscreen_text" data-pcb-layer="top">+</text><text x="0" y="0" dx="0" dy="0" fill="#f2eda1" font-family="Arial, sans-serif" font-size="14.285714285714286" text-anchor="middle" dominant-baseline="central" transform="matrix(1,0,0,1,484.2857142857143,285.7142857142857)" class="pcb-silkscreen-text pcb-silkscreen-top" data-pcb-silkscreen-text-id="pcb_component_0" stroke="none" data-type="pcb_silkscreen_text" data-pcb-layer="top">-</text><path class="pcb-silkscreen pcb-silkscreen-top" d="M 535.7142857142858 450 L 607.1428571428571 450 L 607.1428571428571 407.1428571428571 L 535.7142857142858 407.1428571428571 L 535.7142857142858 450 Z" fill="none" stroke="#f2eda1" stroke-width="1.4285714285714288" stroke-linecap="round" stroke-linejoin="round" data-pcb-component-id="pcb_component_1" data-pcb-silkscreen-path-id="pcb_silkscreen_path_2" data-type="pcb_silkscreen_path" data-pcb-layer="top"/><path class="pcb-silkscreen pcb-silkscreen-top" d="M 497.5 416.07142857142856 L 465.3571428571429 416.07142857142856 L 465.3571428571429 441.07142857142856 L 497.5 441.07142857142856" fill="none" stroke="#f2eda1" stroke-width="1.4285714285714288" stroke-linecap="round" stroke-linejoin="round" data-pcb-component-id="pcb_component_2" data-pcb-silkscreen-path-id="pcb_silkscreen_path_3" data-type="pcb_silkscreen_path" data-pcb-layer="top"/><text x="0" y="0" dx="0" dy="0" fill="#f2eda1" font-family="Arial, sans-serif" font-size="5.714285714285715" text-anchor="middle" dominant-baseline="central" transform="matrix(1,0,0,1,485.7142857142857,408.92857142857144)" class="pcb-silkscreen-text pcb-silkscreen-top" data-pcb-silkscreen-text-id="pcb_component_2" stroke="none" data-type="pcb_silkscreen_text" data-pcb-layer="top">R1</text><path class="pcb-silkscreen pcb-silkscreen-top" d="M 364.2857142857143 478.57142857142856 L 435.7142857142857 478.57142857142856 L 435.7142857142857 435.7142857142857 L 364.2857142857143 435.7142857142857 L 364.2857142857143 478.57142857142856 Z" fill="none" stroke="#f2eda1" stroke-width="1.4285714285714288" stroke-linecap="round" stroke-linejoin="round" data-pcb-component-id="pcb_component_3" data-pcb-silkscreen-path-id="pcb_silkscreen_path_4" data-type="pcb_silkscreen_path" data-pcb-layer="top"/><text x="0" y="0" dx="0" dy="0" fill="#f2eda1" font-family="Arial, sans-serif" font-size="11.42857142857143" text-anchor="middle" dominant-baseline="central" transform="matrix(1,0,0,1,381.85714285714283,488.57142857142856)" class="pcb-silkscreen-text pcb-silkscreen-top" data-pcb-silkscreen-text-id="pcb_component_3" stroke="none" data-type="pcb_silkscreen_text" data-pcb-layer="top">+</text><text x="0" y="0" dx="0" dy="0" fill="#f2eda1" font-family="Arial, sans-serif" font-size="11.42857142857143" text-anchor="middle" dominant-baseline="central" transform="matrix(1,0,0,1,400,425.7142857142857)" class="pcb-silkscreen-text pcb-silkscreen-top" data-pcb-silkscreen-text-id="pcb_component_3" stroke="none" data-type="pcb_silkscreen_text" data-pcb-layer="top">LED</text><g data-type="pcb_plated_hole" data-pcb-layer="through"><circle class="pcb-hole-outer" fill="rgb(200, 52, 52)" cx="381.85714285714283" cy="457.1428571428571" r="12.857142857142858" data-type="pcb_plated_hole" data-pcb-layer="top"/><circle class="pcb-hole-inner" fill="#FF26E2" cx="381.85714285714283" cy="457.1428571428571" r="7.142857142857143" data-type="pcb_plated_hole_drill" data-pcb-layer="drill"/></g><g data-type="pcb_plated_hole" data-pcb-layer="through"><circle class="pcb-hole-outer" fill="rgb(200, 52, 52)" cx="418.14285714285717" cy="457.1428571428571" r="12.857142857142858" data-type="pcb_plated_hole" data-pcb-layer="top"/><circle class="pcb-hole-inner" fill="#FF26E2" cx="418.14285714285717" cy="457.1428571428571" r="7.142857142857143" data-type="pcb_plated_hole_drill" data-pcb-layer="drill"/></g><g data-type="pcb_via" data-pcb-layer="through"><circle class="pcb-hole-outer" fill="rgb(200, 52, 52)" cx="542.8571428571429" cy="411.42857142857144" r="2.142857142857143" data-type="pcb_via" data-pcb-layer="top"/><circle class="pcb-hole-inner" fill="#FF26E2" cx="542.8571428571429" cy="411.42857142857144" r="1.4285714285714288" data-type="pcb_via" data-pcb-layer="drill"/></g><g data-type="pcb_via" data-pcb-layer="through"><circle class="pcb-hole-outer" fill="rgb(200, 52, 52)" cx="565.7142857142858" cy="411.42857142857144" r="2.142857142857143" data-type="pcb_via" data-pcb-layer="top"/><circle class="pcb-hole-inner" fill="#FF26E2" cx="565.7142857142858" cy="411.42857142857144" r="1.4285714285714288" data-type="pcb_via" data-pcb-layer="drill"/></g><g data-type="pcb_via" data-pcb-layer="through"><circle class="pcb-hole-outer" fill="rgb(200, 52, 52)" cx="428.57142857142856" cy="434.2857142857143" r="2.142857142857143" data-type="pcb_via" data-pcb-layer="top"/><circle class="pcb-hole-inner" fill="#FF26E2" cx="428.57142857142856" cy="434.2857142857143" r="1.4285714285714288" data-type="pcb_via" data-pcb-layer="drill"/></g><g data-type="pcb_via" data-pcb-layer="through"><circle class="pcb-hole-outer" fill="rgb(200, 52, 52)" cx="555.7857142857143" cy="341.25" r="2.142857142857143" data-type="pcb_via" data-pcb-layer="top"/><circle class="pcb-hole-inner" fill="#FF26E2" cx="555.7857142857143" cy="341.25" r="1.4285714285714288" data-type="pcb_via" data-pcb-layer="drill"/></g><circle class="pcb-hole" cx="400" cy="542.8571428571429" r="17.857142857142858" fill="#FF26E2" data-type="pcb_hole" data-pcb-layer="drill"/></svg>