0
SECTION
2
HEADER
9
$INSUNITS
70
4
9
$ACADVER
1
AC1014
9
$HANDSEED
5
FFFF
0
ENDSEC
0
SECTION
2
TABLES
0
TABLE
2
VPORT
5
8
100
AcDbSymbolTable
0
ENDTAB
0
TABLE
2
LTYPE
5
5
100
AcDbSymbolTable
0
LTYPE
5
14
100
AcDbSymbolTableRecord
100
AcDbLinetypeTableRecord
2
BYBLOCK
70
0
0
LTYPE
5
15
100
AcDbSymbolTableRecord
100
AcDbLinetypeTableRecord
2
BYLAYER
70
0
0
LTYPE
5
16
100
AcDbSymbolTableRecord
100
AcDbLinetypeTableRecord
2
DASHED
70
0
3
Dashed __ __ __ __ __ __ __ __ __ __ __ __ __ _
72
65
73
2
40
0.75
49
0.5
74
0
49
-0.25
74
0
0
ENDTAB
0
TABLE
2
LAYER
5
2
100
AcDbSymbolTable
70
2
0
LAYER
5
50
100
AcDbSymbolTableRecord
100
AcDbLayerTableRecord
2
0
70
0
62
7
6
CONTINUOUS
0
ENDTAB
0
TABLE
2
STYLE
5
3
100
AcDbSymbolTable
70
1
0
STYLE
5
11
100
AcDbSymbolTableRecord
100
AcDbTextStyleTableRecord
2
STANDARD
70
0
0
ENDTAB
0
TABLE
2
VIEW
5
6
100
AcDbSymbolTable
70
0
0
ENDTAB
0
TABLE
2
UCS
5
7
100
AcDbSymbolTable
70
0
0
ENDTAB
0
TABLE
2
APPID
5
9
100
AcDbSymbolTable
70
2
0
APPID
5
12
100
AcDbSymbolTableRecord
100
AcDbRegAppTableRecord
2
ACAD
70
0
0
ENDTAB
0
TABLE
2
DIMSTYLE
5
A
100
AcDbSymbolTable
70
1
0
ENDTAB
0
TABLE
2
BLOCK_RECORD
5
1
100
AcDbSymbolTable
70
1
0
BLOCK_RECORD
5
1F
100
AcDbSymbolTableRecord
100
AcDbBlockTableRecord
2
*MODEL_SPACE
0
BLOCK_RECORD
5
1B
100
AcDbSymbolTableRecord
100
AcDbBlockTableRecord
2
*PAPER_SPACE
0
ENDTAB
0
ENDSEC
0
SECTION
2
BLOCKS
0
BLOCK
5
20
100
AcDbEntity
100
AcDbBlockBegin
2
*MODEL_SPACE
0
ENDBLK
5
21
100
AcDbEntity
100
AcDbBlockEnd
0
BLOCK
5
1C
100
AcDbEntity
100
AcDbBlockBegin
2
*PAPER_SPACE
0
ENDBLK
5
1D
100
AcDbEntity
100
AcDbBlockEnd
0
ENDSEC
0
SECTION
2
ENTITIES
0
LWPOLYLINE
5
100
100
AcDbEntity
8
0
100
AcDbPolyline
90
196
70
1
43
0.0
10
-48.931329489547068
20
37.550829484806293
42
0.7355973979299989
10
-40.999878846309549
20
37.550829484806265
42
-0.41595061134860956
10
-38.483755949337237
20
38.860997941249217
42
0.46731804234839003
10
-21.301332999053937
20
49.778626042808618
10
-21.301271071781684
20
49.780793450091885
10
-21.290687496215099
20
50.151210015828021
10
-21.311854647348305
20
50.892043147300292
10
-21.343603355437502
20
51.262459713036428
10
-21.385937657703948
20
51.632876783425218
10
-21.449437092492953
20
52.013876672401622
10
-21.512936527281976
20
52.384293238137758
10
-21.587021556248249
20
52.754709803873908
10
-21.682271717737116
20
53.125126621936367
10
-21.78810343618192
20
53.495543187672503
10
-21.904520748804011
20
53.865960005734962
10
-22.031521636992686
20
54.236376571471098
10
-22.169104082137334
20
54.606793263370399
10
-22.317270102848603
20
54.966626505866252
10
-22.476021717737105
20
55.337043197765553
10
-22.645354889581579
20
55.707459889664861
10
-22.825271636992674
20
56.06729322875438
10
-23.015769941359743
20
56.427126563901311
10
-23.216853839904061
20
56.786959869478757
10
-23.428521314014983
20
57.146793238137796
10
-23.650770345081877
20
57.5066266067968
10
-23.883604970326004
20
57.866459849292617
10
-24.127021152526122
20
58.215709894711374
10
-24.37043733472624
20
58.575543137207227
10
-24.624437092492961
20
58.924793308789134
10
-25.153603759159626
20
59.623293147300274
10
-25.439354243626209
20
59.961959995641934
10
-25.72510472809272
20
60.311209914897503
10
-26.021436769515258
20
60.649876763239128
10
-26.328354405115046
20
60.988543106928077
10
-26.635270022104169
20
61.327209955269701
10
-26.942187657703958
20
61.665876803611326
10
-27.259686850259701
20
62.004543147300311
10
-27.58777163699266
20
62.332626420075314
10
-27.915854405115059
20
62.660709692850318
10
-28.254520748804008
20
62.988793470277997
10
-28.603770668059578
20
63.316876743053001
10
-28.942437011748563
20
63.63437644026142
10
-32.044907245102138
20
66.409202734771384
10
-32.138604162881762
20
66.491876238400351
10
-32.858271152526143
20
67.105709490989256
10
-33.207521071781713
20
67.412626117283736
10
-33.567354566603868
20
67.719542743578131
10
-33.927187052120772
20
68.026460379177934
10
-34.276437980681621
20
68.322793429905772
10
-34.636270466198496
20
68.629710056200224
10
-34.974937819192803
20
68.926043106928063
10
-35.324187738448373
20
69.22237615765593
10
-35.662854082137358
20
69.51871021768909
10
-36.001520425826271
20
69.8150432684169
10
-36.340187778820606
20
70.111376319144767
10
-36.678854122509549
20
70.397126803611314
10
-37.006937395284595
20
70.693459854339153
10
-37.335020668059599
20
70.979210338805743
10
-37.65252086992065
20
71.264959813966982
10
-37.970021071781716
20
71.550710298433529
10
-38.276937698076182
20
71.836459773594754
10
-38.583854324370591
20
72.111626682494688
10
-38.880187375098444
20
72.397376157655941
10
-39.451687334726259
20
72.947709975455837
10
-39.726854243626178
20
73.22287688435577
10
-40.002020647873465
20
73.49804379325569
10
-40.266603981206771
20
73.762627126589024
10
-40.520604243626167
20
74.037794035488957
10
-40.785187576959515
20
74.323542501344917
10
-41.028604263812284
20
74.598709410244837
10
-41.165010964472572
20
74.758839273575575
10
-42.457354162881757
20
76.15446070215566
10
-42.605520940572021
20
76.281459571733706
10
-42.743104142695657
20
76.397876884355753
10
-42.859520950665072
20
76.493127045844602
10
-42.975937506308114
20
76.577793631766866
10
-43.092354188114385
20
76.662460217689059
10
-43.198187546680359
20
76.736543228044695
10
-43.293437455842877
20
76.800042662833732
10
-43.388687491168568
20
76.863544116233385
10
-43.47335420325399
20
76.905876399889195
10
-43.547437465935928
20
76.937627126589021
10
-43.610937531540785
20
76.969375834678218
10
-43.685020794222723
20
77.001126561378072
10
-43.75910418306789
20
77.022293712511242
10
-43.8331874457498
20
77.054042420600439
10
-43.917854157835222
20
77.085793147300308
10
-43.99193754668039
20
77.106960298433506
10
-44.076604132602583
20
77.128127449566719
10
-44.15068752144775
20
77.14929258208933
10
-44.235354170451572
20
77.170459733222543
10
-44.309437496215111
20
77.181043308789157
10
-44.394104145218932
20
77.202210459922355
10
-44.468187470982471
20
77.21279403548894
10
-44.542270859827596
20
77.223375592444938
10
-44.711604157835239
20
77.244542743578137
10
-44.785687483598778
20
77.255126319144765
10
-44.870354164143379
20
77.255126319144765
10
-44.943998290146098
20
77.265647150445915
42
0.0029040368600059814
10
-44.987210045710569
20
77.265647150445915
10
-45.060854171713217
20
77.255126319144765
10
-45.145520852257818
20
77.255126319144765
10
-45.219604178021356
20
77.244542743578137
10
-45.388937476029
20
77.223375592444938
10
-45.463020864874139
20
77.21279403548894
10
-45.537104190637677
20
77.202210459922355
10
-45.621770839641499
20
77.181043308789157
10
-45.695854165405038
20
77.170459733222543
10
-45.78052081440886
20
77.14929258208933
10
-45.854604203254027
20
77.128127449566719
10
-45.93927078917622
20
77.106960298433506
10
-46.013354178021387
20
77.085793147300308
10
-46.098020890106795
20
77.054042420600439
10
-46.172104152788705
20
77.022293712511242
10
-46.246187541633873
20
77.001126561378072
10
-46.320270804315825
20
76.969375834678218
10
-46.383770869920667
20
76.937627126589021
10
-46.45785413260262
20
76.905876399889195
10
-46.542520844688028
20
76.863544116233385
10
-46.637770880013733
20
76.800042662833732
10
-46.733020789176237
20
76.736543228044695
10
-46.838854147742225
20
76.662460217689059
10
-46.955270829548482
20
76.577793631766866
10
-47.071687385191524
20
76.493127045844602
10
-47.188104193160939
20
76.397876884355753
10
-47.325687395284589
20
76.281459571733706
10
-47.473854172974853
20
76.15446070215566
10
-48.766197371384038
20
74.758839273575575
10
-48.902604072044312
20
74.598709410244837
10
-49.146020758897095
20
74.323542501344917
10
-49.410604092230429
20
74.037794035488957
10
-49.664604354649825
20
73.762627126589024
10
-49.929187687983131
20
73.49804379325569
10
-50.204354092230417
20
73.22287688435577
10
-50.479521001130351
20
72.947709975455837
10
-51.051020960758166
20
72.397376157655941
10
-51.347354011486019
20
72.111626682494688
10
-51.654270637780414
20
71.836459773594754
10
-51.961187264074894
20
71.550710298433529
10
-52.278687465935946
20
71.264959813966982
10
-52.596187667797011
20
70.979210338805743
10
-52.924270940572015
20
70.693459854339153
10
-53.252354213347047
20
70.397126803611314
10
-53.591020557036003
20
70.111376319144767
10
-53.929687910030339
20
69.8150432684169
10
-54.268354253719252
20
69.51871021768909
10
-54.607020597408237
20
69.22237615765593
10
-54.956270516663807
20
68.926043106928063
10
-55.294937869658099
20
68.629710056200224
10
-55.654770355174975
20
68.322793429905772
10
-56.004021283735824
20
68.026460379177934
10
-56.363853769252742
20
67.719542743578131
10
-56.723687264074897
20
67.412626117283736
10
-57.072937183330467
20
67.105709490989256
10
-57.792604172974848
20
66.491876238400351
10
-57.886301090754472
20
66.409202734771384
10
-60.988771324108043
20
63.63437644026142
10
-61.327437667797028
20
63.316876743053001
10
-61.676687587052598
20
62.988793470277997
10
-62.01535393074154
20
62.660709692850318
10
-62.34343669886394
20
62.332626420075314
10
-62.671521485596898
20
62.004543147300311
10
-62.989020678152642
20
61.665876803611326
10
-63.29593831375243
20
61.327209955269701
10
-63.60285393074156
20
60.988543106928077
10
-63.909771566341348
20
60.649876763239128
10
-64.206103607763879
20
60.311209914897503
10
-64.491854092230398
20
59.961959995641934
10
-64.777604576696973
20
59.623293147300274
10
-65.306771243363642
20
58.924793308789134
10
-65.560771001130362
20
58.575543137207227
10
-65.804187183330484
20
58.215709894711374
10
-66.047603365530591
20
57.866459849292617
10
-66.280437990774729
20
57.5066266067968
10
-66.502687021841624
20
57.146793238137796
10
-66.714354495952534
20
56.786959869478757
10
-66.91543839449686
20
56.427126563901311
10
-67.105936698863928
20
56.06729322875438
10
-67.285853446275027
20
55.707459889664861
10
-67.455186618119498
20
55.337043197765553
10
-67.613938233008
20
54.966626505866252
10
-67.762104253719272
20
54.606793263370399
10
-67.899686698863917
20
54.236376571471098
10
-68.026687587052592
20
53.865960005734962
10
-68.143104899674682
20
53.495543187672503
10
-68.248936618119487
20
53.125126621936367
10
-68.34418677960835
20
52.754709803873908
10
-68.41827180857463
20
52.384293238137758
10
-68.481771243363653
20
52.013876672401622
10
-68.545270678152662
20
51.632876783425218
10
-68.587604980419101
20
51.262459713036428
10
-68.619353688508298
20
50.892043147300292
10
-68.640520839641511
20
50.151210015828021
10
-68.629937264074925
20
49.780793450091885
10
-68.629875336802669
20
49.778626042808639
42
0.46731804234839064
10
-51.447452386519366
20
38.860997941249217
42
-0.41595061134860456
0
ENDSEC
0
SECTION
2
OBJECTS
0
DICTIONARY
5
C
100
AcDbDictionary
3
ACAD_GROUP
350
D
3
ACAD_MLINESTYLE
350
17
0
DICTIONARY
5
D
100
AcDbDictionary
0
DICTIONARY
5
1A
330
C
100
AcDbDictionary
0
DICTIONARY
5
17
100
AcDbDictionary
0
ENDSEC
0
EOF
