<svg xmlns="http://www.w3.org/2000/svg" width="800" height="600" data-software-used-string="@tscircuit/core@0.0.1112"><style></style><rect class="boundary" x="0" y="0" fill="#000" width="800" height="600" data-type="pcb_background" data-pcb-layer="global"/><rect class="pcb-boundary" fill="none" stroke="#fff" stroke-width="0.3" x="70.73170731707313" y="14.634146341463406" width="658.5365853658536" height="570.7317073170732" data-type="pcb_boundary" data-pcb-layer="global"/><path class="pcb-board" d="M 400 585.3658536585366 L 421.9512195121951 578.0487804878048 L 433.6585365853658 567.8048780487804 L 440.9756097560976 553.1707317073171 L 443.9024390243902 534.1463414634146 L 443.9024390243902 512.1951219512196 L 441.1219512195122 497.8536585365854 L 466.8780487804878 521.2682926829268 L 498.6341463414634 539.7073170731708 L 535.219512195122 550.5365853658536 L 574.2926829268292 552.1463414634146 L 613.8048780487804 543.9512195121952 L 651.1219512195122 526.2439024390244 L 683.1707317073171 500.1951219512195 L 708.0487804878048 467.4146341463414 L 723.8536585365854 429.8048780487805 L 729.2682926829268 389.5609756097561 L 723.8536585365854 348.4390243902439 L 708.0487804878048 307.7560975609756 L 683.1707317073171 268.2439024390244 L 651.1219512195122 230.34146341463415 L 613.8048780487804 194.1951219512195 L 574.2926829268292 159.3658536585366 L 535.219512195122 125.85365853658536 L 498.6341463414634 93.65853658536585 L 466.8780487804878 63.07317073170728 L 441.1219512195122 34.39024390243901 L 426.3414634146342 21.95121951219511 L 417.5609756097561 17.5609756097561 L 408.780487804878 15.365853658536594 L 400 14.634146341463406 L 391.219512195122 15.365853658536594 L 382.4390243902439 17.5609756097561 L 373.6585365853658 21.95121951219511 L 358.8780487804878 34.39024390243901 L 333.1219512195122 63.07317073170728 L 301.3658536585366 93.65853658536585 L 264.780487804878 125.85365853658536 L 225.7073170731707 159.3658536585366 L 186.1951219512195 194.1951219512195 L 148.8780487804878 230.34146341463415 L 116.82926829268291 268.2439024390244 L 91.95121951219511 307.7560975609756 L 76.14634146341461 348.4390243902439 L 70.73170731707313 389.5609756097561 L 76.14634146341461 429.8048780487805 L 91.95121951219511 467.4146341463414 L 116.82926829268291 500.1951219512195 L 148.8780487804878 526.2439024390244 L 186.1951219512195 543.9512195121952 L 225.7073170731707 552.1463414634146 L 264.780487804878 550.5365853658536 L 301.3658536585366 539.7073170731708 L 333.1219512195122 521.2682926829268 L 358.8780487804878 497.8536585365854 L 356.0975609756098 512.1951219512196 L 356.0975609756098 534.1463414634146 L 359.0243902439024 553.1707317073171 L 366.3414634146342 567.8048780487804 L 378.0487804878049 578.0487804878048 Z" fill="none" stroke="rgba(255, 255, 255, 0.5)" stroke-width="1.4634146341463417" data-type="pcb_board" data-pcb-layer="board"/><path class="pcb-trace" stroke="rgb(77, 127, 196)" fill="none" d="M 546.3414634146341 406.82926829268297 L 546.3414634146341 406.82926829268297" stroke-width="2.1951219512195124" stroke-linecap="round" stroke-linejoin="round" shape-rendering="crispEdges" data-type="pcb_trace" data-pcb-layer="bottom"/><path class="pcb-trace" stroke="rgb(77, 127, 196)" fill="none" d="M 546.3414634146341 406.82926829268297 L 568.2792813220209 406.82926829268297" stroke-width="2.1951219512195124" stroke-linecap="round" stroke-linejoin="round" shape-rendering="crispEdges" data-type="pcb_trace" data-pcb-layer="bottom"/><path class="pcb-trace" stroke="rgb(77, 127, 196)" fill="none" d="M 568.2792813220209 406.82926829268297 L 568.2792813220209 406.82926829268297" stroke-width="2.1951219512195124" stroke-linecap="round" stroke-linejoin="round" shape-rendering="crispEdges" data-type="pcb_trace" data-pcb-layer="bottom"/><path class="pcb-trace" stroke="rgb(77, 127, 196)" fill="none" d="M 568.2792813220209 406.82926829268297 L 569.7560975609756 406.82926829268297" stroke-width="2.1951219512195124" stroke-linecap="round" stroke-linejoin="round" shape-rendering="crispEdges" data-type="pcb_trace" data-pcb-layer="bottom"/><path class="pcb-trace" stroke="rgb(77, 127, 196)" fill="none" d="M 569.7560975609756 406.82926829268297 L 569.7560975609756 406.82926829268297" stroke-width="2.1951219512195124" stroke-linecap="round" stroke-linejoin="round" shape-rendering="crispEdges" data-type="pcb_trace" data-pcb-layer="bottom"/><path class="pcb-trace" stroke="rgb(77, 127, 196)" fill="none" d="M 429.2682926829268 430.2439024390244 L 429.2682926829268 430.2439024390244" stroke-width="2.1951219512195124" stroke-linecap="round" stroke-linejoin="round" shape-rendering="crispEdges" data-type="pcb_trace" data-pcb-layer="bottom"/><path class="pcb-trace" stroke="rgb(77, 127, 196)" fill="none" d="M 429.2682926829268 430.2439024390244 L 460.6383447461239 430.2439024390244" stroke-width="2.1951219512195124" stroke-linecap="round" stroke-linejoin="round" shape-rendering="crispEdges" data-type="pcb_trace" data-pcb-layer="bottom"/><path class="pcb-trace" stroke="rgb(77, 127, 196)" fill="none" d="M 460.6383447461239 430.2439024390244 L 557.4479730724804 333.4342741126678" stroke-width="2.1951219512195124" stroke-linecap="round" stroke-linejoin="round" shape-rendering="crispEdges" data-type="pcb_trace" data-pcb-layer="bottom"/><path class="pcb-trace" stroke="rgb(77, 127, 196)" fill="none" d="M 557.4479730724804 333.4342741126678 L 559.5853658536586 334.9390243902439" stroke-width="2.1951219512195124" stroke-linecap="round" stroke-linejoin="round" shape-rendering="crispEdges" data-type="pcb_trace" data-pcb-layer="bottom"/><path class="pcb-trace" stroke="rgb(77, 127, 196)" fill="none" d="M 559.5853658536586 334.9390243902439 L 559.5853658536586 334.9390243902439" stroke-width="2.1951219512195124" stroke-linecap="round" stroke-linejoin="round" shape-rendering="crispEdges" data-type="pcb_trace" data-pcb-layer="bottom"/><path class="pcb-silkscreen pcb-silkscreen-bottom" d="M 353.9024390243902 290.4878048780488 L 400 290.4878048780488 L 400 336.5853658536585 L 353.9024390243902 336.5853658536585 L 353.9024390243902 290.4878048780488 Z" fill="none" stroke="#5da9e9" stroke-width="1.4634146341463417" stroke-linecap="round" stroke-linejoin="round" data-pcb-component-id="null" data-pcb-silkscreen-path-id="pcb_silkscreen_path_21" data-type="pcb_silkscreen_path" data-pcb-layer="bottom"/><path class="pcb-silkscreen pcb-silkscreen-bottom" d="M 377.1707317073171 313.7560975609756 L 423.1219512195122 313.7560975609756 L 423.1219512195122 359.7073170731707 L 377.1707317073171 359.7073170731707 L 377.1707317073171 313.7560975609756 Z" fill="none" stroke="#5da9e9" stroke-width="1.4634146341463417" stroke-linecap="round" stroke-linejoin="round" data-pcb-component-id="null" data-pcb-silkscreen-path-id="pcb_silkscreen_path_22" data-type="pcb_silkscreen_path" data-pcb-layer="bottom"/><path class="pcb-silkscreen pcb-silkscreen-bottom" d="M 400 336.5853658536585 L 446.0975609756098 336.5853658536585 L 446.0975609756098 382.6829268292683 L 400 382.6829268292683 L 400 336.5853658536585 Z" fill="none" stroke="#5da9e9" stroke-width="1.4634146341463417" stroke-linecap="round" stroke-linejoin="round" data-pcb-component-id="null" data-pcb-silkscreen-path-id="pcb_silkscreen_path_23" data-type="pcb_silkscreen_path" data-pcb-layer="bottom"/><path class="pcb-silkscreen pcb-silkscreen-bottom" d="M 377.1707317073171 313.7560975609756 L 400 336.5853658536585" fill="none" stroke="#5da9e9" stroke-width="1.4634146341463417" stroke-linecap="round" stroke-linejoin="round" data-pcb-component-id="null" data-pcb-silkscreen-path-id="pcb_silkscreen_path_24" data-type="pcb_silkscreen_path" data-pcb-layer="bottom"/><path class="pcb-silkscreen pcb-silkscreen-bottom" d="M 400 336.5853658536585 L 423.1219512195122 359.7073170731707" fill="none" stroke="#5da9e9" stroke-width="1.4634146341463417" stroke-linecap="round" stroke-linejoin="round" data-pcb-component-id="null" data-pcb-silkscreen-path-id="pcb_silkscreen_path_25" data-type="pcb_silkscreen_path" data-pcb-layer="bottom"/><path class="pcb-silkscreen pcb-silkscreen-bottom" d="M 331.219512195122 207.9512195121951 L 328.29268292682923 207.9512195121951 L 328.29268292682923 228.73170731707316 L 320.9756097560976 228.73170731707316 L 320.9756097560976 231.3658536585366 L 338.8292682926829 231.3658536585366 L 338.8292682926829 228.73170731707316 L 331.219512195122 228.73170731707316 L 331.219512195122 207.9512195121951 Z" fill="none" stroke="#5da9e9" stroke-width="1.4634146341463417" stroke-linecap="round" stroke-linejoin="round" data-pcb-component-id="null" data-pcb-silkscreen-path-id="pcb_silkscreen_path_26" data-type="pcb_silkscreen_path" data-pcb-layer="bottom"/><path class="pcb-silkscreen pcb-silkscreen-bottom" d="M 348.3414634146342 207.65853658536582 L 347.3170731707317 207.65853658536582 L 346.2926829268293 207.9512195121951 L 345.2682926829268 208.09756097560972 L 344.390243902439 208.8292682926829 L 343.3658536585366 209.1219512195122 L 342.780487804878 210 L 342.0487804878049 210.7317073170732 L 341.4634146341463 211.60975609756096 L 341.1707317073171 212.6341463414634 L 341.0243902439024 213.65853658536582 L 340.7317073170732 214.97560975609755 L 340.7317073170732 216.29268292682926 L 340.7317073170732 217.609756097561 L 341.0243902439024 218.6341463414634 L 341.1707317073171 220.09756097560975 L 341.4634146341463 221.1219512195122 L 342.0487804878049 221.85365853658536 L 342.780487804878 222.73170731707316 L 343.3658536585366 223.46341463414632 L 344.0975609756098 224.04878048780486 L 345.2682926829268 224.4878048780488 L 346.2926829268293 224.9268292682927 L 347.3170731707317 224.9268292682927 L 348.3414634146342 225.3658536585366 L 349.3658536585366 224.9268292682927 L 350.5365853658537 224.9268292682927 L 351.5609756097561 224.4878048780488 L 352.2926829268293 224.1951219512195 L 353.1707317073171 223.46341463414632 L 353.9024390243902 222.8780487804878 L 354.3414634146341 222.14634146341461 L 354.9268292682927 221.1219512195122 L 355.219512195122 220.09756097560975 L 355.5121951219512 218.9268292682927 L 355.8048780487805 217.90243902439022 L 355.8048780487805 216.58536585365852 L 355.8048780487805 215.5609756097561 L 342.0487804878049 215.5609756097561 L 342.0487804878049 217.90243902439022 L 354.3414634146341 217.90243902439022 L 352.8780487804878 216.8780487804878 L 352.8780487804878 217.90243902439022 L 352.5853658536585 219.5121951219512 L 352 220.8292682926829 L 351.2682926829268 221.5609756097561 L 350.2439024390244 222.4390243902439 L 348.9268292682927 222.73170731707316 L 348.3414634146342 222.73170731707316 L 347.609756097561 222.73170731707316 L 346.5853658536585 222.4390243902439 L 345.7073170731707 222.14634146341461 L 344.8292682926829 221.1219512195122 L 344.0975609756098 220.09756097560975 L 343.6585365853658 218.6341463414634 L 343.6585365853658 216.8780487804878 L 343.6585365853658 214.97560975609755 L 343.9512195121951 213.3658536585366 L 344.390243902439 212.1951219512195 L 344.8292682926829 211.60975609756096 L 346 210.7317073170732 L 347.1707317073171 210.29268292682926 L 348.6341463414634 210 L 349.8048780487805 210 L 350.5365853658537 210.29268292682926 L 351.2682926829268 210.7317073170732 L 351.7073170731707 211.3170731707317 L 352.2926829268293 211.7560975609756 L 352.8780487804878 212.6341463414634 L 355.5121951219512 212.6341463414634 L 355.219512195122 211.60975609756096 L 354.6341463414634 210.58536585365852 L 354.1951219512195 209.7073170731707 L 353.1707317073171 208.97560975609755 L 352.2926829268293 208.390243902439 L 350.9756097560976 207.9512195121951 L 349.9512195121951 207.65853658536582 L 348.3414634146342 207.65853658536582 Z" fill="none" stroke="#5da9e9" stroke-width="1.4634146341463417" stroke-linecap="round" stroke-linejoin="round" data-pcb-component-id="null" data-pcb-silkscreen-path-id="pcb_silkscreen_path_27" data-type="pcb_silkscreen_path" data-pcb-layer="bottom"/><path class="pcb-silkscreen pcb-silkscreen-bottom" d="M 361.5121951219512 207.9512195121951 L 358.8780487804878 207.9512195121951 L 358.8780487804878 231.3658536585366 L 361.5121951219512 231.3658536585366 L 361.5121951219512 207.9512195121951 Z" fill="none" stroke="#5da9e9" stroke-width="1.4634146341463417" stroke-linecap="round" stroke-linejoin="round" data-pcb-component-id="null" data-pcb-silkscreen-path-id="pcb_silkscreen_path_28" data-type="pcb_silkscreen_path" data-pcb-layer="bottom"/><path class="pcb-silkscreen pcb-silkscreen-bottom" d="M 372.6341463414634 207.65853658536582 L 371.1707317073171 207.65853658536582 L 370.1463414634146 207.9512195121951 L 369.1219512195122 208.09756097560972 L 368.390243902439 208.8292682926829 L 367.5121951219512 209.1219512195122 L 366.780487804878 210 L 365.9024390243902 210.7317073170732 L 365.4634146341463 211.60975609756096 L 365.1707317073171 212.6341463414634 L 364.8780487804878 213.65853658536582 L 364.7317073170732 214.97560975609755 L 364.7317073170732 216.29268292682926 L 364.7317073170732 217.609756097561 L 364.8780487804878 218.6341463414634 L 365.1707317073171 220.09756097560975 L 365.4634146341463 221.1219512195122 L 365.9024390243902 221.85365853658536 L 366.780487804878 222.73170731707316 L 367.3658536585366 223.46341463414632 L 368.390243902439 224.04878048780486 L 369.1219512195122 224.4878048780488 L 370.1463414634146 224.9268292682927 L 371.1707317073171 224.9268292682927 L 372.3414634146342 225.3658536585366 L 373.3658536585366 224.9268292682927 L 374.5365853658537 224.9268292682927 L 375.4146341463415 224.4878048780488 L 376.2926829268293 224.1951219512195 L 377.1707317073171 223.46341463414632 L 377.9024390243902 222.8780487804878 L 378.3414634146341 222.14634146341461 L 378.9268292682927 221.1219512195122 L 379.0731707317073 220.09756097560975 L 379.5121951219512 218.9268292682927 L 379.6585365853659 217.90243902439022 L 379.6585365853659 216.58536585365852 L 379.6585365853659 215.5609756097561 L 365.9024390243902 215.5609756097561 L 365.9024390243902 217.90243902439022 L 378.3414634146341 217.90243902439022 L 377.1707317073171 216.8780487804878 L 376.8780487804878 217.90243902439022 L 376.4390243902439 219.5121951219512 L 376 220.8292682926829 L 375.2682926829268 221.5609756097561 L 374.2439024390244 222.4390243902439 L 372.780487804878 222.73170731707316 L 372.3414634146342 222.73170731707316 L 371.609756097561 222.73170731707316 L 370.4390243902439 222.4390243902439 L 369.4146341463415 221.5609756097561 L 368.390243902439 220.53658536585365 L 367.8048780487805 219.5121951219512 L 367.5121951219512 217.609756097561 L 367.5121951219512 216.8780487804878 L 367.5121951219512 214.97560975609755 L 367.8048780487805 213.3658536585366 L 368.390243902439 212.1951219512195 L 368.9756097560976 211.60975609756096 L 370 210.7317073170732 L 371.0243902439024 210.29268292682926 L 372.6341463414634 210 L 373.6585365853658 210 L 374.5365853658537 210.29268292682926 L 375.2682926829268 210.7317073170732 L 376 211.3170731707317 L 376.2926829268293 211.7560975609756 L 376.8780487804878 212.6341463414634 L 379.6585365853659 212.6341463414634 L 379.0731707317073 211.60975609756096 L 378.6341463414634 210.58536585365852 L 378.1951219512195 209.7073170731707 L 377.3170731707317 208.97560975609755 L 376.2926829268293 208.390243902439 L 374.9756097560976 207.9512195121951 L 373.8048780487805 207.65853658536582 L 372.6341463414634 207.65853658536582 Z" fill="none" stroke="#5da9e9" stroke-width="1.4634146341463417" stroke-linecap="round" stroke-linejoin="round" data-pcb-component-id="null" data-pcb-silkscreen-path-id="pcb_silkscreen_path_29" data-type="pcb_silkscreen_path" data-pcb-layer="bottom"/><path class="pcb-silkscreen pcb-silkscreen-bottom" d="M 385.5121951219512 207.9512195121951 L 382.5853658536585 207.9512195121951 L 382.5853658536585 224.78048780487805 L 385.5121951219512 224.78048780487805 L 385.5121951219512 222.4390243902439 L 385.8048780487805 222.8780487804878 L 386.2439024390244 223.46341463414632 L 386.8292682926829 224.04878048780486 L 387.4146341463415 224.4878048780488 L 388.1463414634146 224.78048780487805 L 388.5853658536585 224.9268292682927 L 389.4634146341463 224.9268292682927 L 390.1951219512195 225.3658536585366 L 390.780487804878 225.3658536585366 L 391.219512195122 224.9268292682927 L 392.2439024390244 224.78048780487805 L 393.1219512195122 224.1951219512195 L 393.7073170731707 224.04878048780486 L 394.1463414634146 223.46341463414632 L 394.7317073170732 222.4390243902439 L 394.8780487804878 221.85365853658536 L 395.3170731707317 222.4390243902439 L 396.0487804878049 223.17073170731706 L 396.780487804878 224.04878048780486 L 397.6585365853659 224.4878048780488 L 398.6829268292683 224.9268292682927 L 399.7073170731707 225.3658536585366 L 400.5853658536585 225.3658536585366 L 401.3170731707317 224.9268292682927 L 402.6341463414634 224.78048780487805 L 403.9512195121951 224.1951219512195 L 404.9756097560976 223.17073170731706 L 405.4146341463415 221.85365853658536 L 406.1463414634146 220.53658536585365 L 406.1463414634146 219.5121951219512 L 406.1463414634146 207.9512195121951 L 403.219512195122 207.9512195121951 L 403.219512195122 218.9268292682927 L 402.9268292682927 220.09756097560975 L 402.6341463414634 221.1219512195122 L 402.0487804878049 221.5609756097561 L 401.609756097561 222.14634146341461 L 400.5853658536585 222.73170731707316 L 399.4146341463415 222.73170731707316 L 398.390243902439 222.73170731707316 L 397.6585365853659 222.14634146341461 L 396.780487804878 221.5609756097561 L 396.3414634146341 220.8292682926829 L 395.7560975609756 219.65853658536582 L 395.7560975609756 218.6341463414634 L 395.7560975609756 207.9512195121951 L 392.8292682926829 207.9512195121951 L 392.8292682926829 219.21951219512195 L 392.6829268292683 220.53658536585365 L 392.0975609756098 221.2682926829268 L 391.5121951219512 222.14634146341461 L 390.780487804878 222.4390243902439 L 390.0487804878049 222.73170731707316 L 389.4634146341463 222.73170731707316 L 388.4390243902439 222.73170731707316 L 387.4146341463415 222.14634146341461 L 386.6829268292683 221.5609756097561 L 385.9512195121951 220.53658536585365 L 385.5121951219512 219.65853658536582 L 385.5121951219512 218.48780487804876 L 385.5121951219512 207.9512195121951 Z" fill="none" stroke="#5da9e9" stroke-width="1.4634146341463417" stroke-linecap="round" stroke-linejoin="round" data-pcb-component-id="null" data-pcb-silkscreen-path-id="pcb_silkscreen_path_30" data-type="pcb_silkscreen_path" data-pcb-layer="bottom"/><path class="pcb-silkscreen pcb-silkscreen-bottom" d="M 416.5365853658537 207.65853658536582 L 415.5121951219512 207.65853658536582 L 414.1951219512195 207.9512195121951 L 413.3170731707317 208.09756097560972 L 412.2926829268293 208.8292682926829 L 411.5609756097561 209.1219512195122 L 410.6829268292683 210 L 410.390243902439 210.7317073170732 L 409.6585365853659 211.60975609756096 L 409.219512195122 212.6341463414634 L 408.9268292682927 213.65853658536582 L 408.6341463414634 214.97560975609755 L 408.6341463414634 216.29268292682926 L 408.6341463414634 217.609756097561 L 408.9268292682927 218.6341463414634 L 409.219512195122 220.09756097560975 L 409.6585365853659 221.1219512195122 L 410.390243902439 221.85365853658536 L 410.6829268292683 222.73170731707316 L 411.5609756097561 223.46341463414632 L 412.2926829268293 224.04878048780486 L 413.1707317073171 224.4878048780488 L 414.1951219512195 224.9268292682927 L 415.219512195122 224.9268292682927 L 416.390243902439 225.3658536585366 L 417.5609756097561 224.9268292682927 L 418.5853658536585 224.9268292682927 L 419.4634146341463 224.4878048780488 L 420.4878048780488 224.1951219512195 L 421.3658536585366 223.46341463414632 L 421.8048780487805 222.8780487804878 L 422.390243902439 222.14634146341461 L 422.8292682926829 221.1219512195122 L 423.4146341463415 220.09756097560975 L 423.7073170731707 218.9268292682927 L 423.8536585365854 217.90243902439022 L 423.8536585365854 216.58536585365852 L 423.8536585365854 215.5609756097561 L 410.390243902439 215.5609756097561 L 410.390243902439 217.90243902439022 L 422.390243902439 217.90243902439022 L 421.0731707317073 216.8780487804878 L 421.0731707317073 217.90243902439022 L 420.780487804878 219.5121951219512 L 420.0487804878049 220.8292682926829 L 419.1707317073171 221.5609756097561 L 418.1463414634146 222.4390243902439 L 417.1219512195122 222.73170731707316 L 416.390243902439 222.73170731707316 L 415.8048780487805 222.73170731707316 L 414.4878048780488 222.4390243902439 L 413.3170731707317 221.5609756097561 L 412.5853658536585 220.53658536585365 L 412.1463414634146 219.5121951219512 L 411.5609756097561 217.609756097561 L 411.5609756097561 216.8780487804878 L 411.5609756097561 214.97560975609755 L 411.8536585365854 213.3658536585366 L 412.5853658536585 212.1951219512195 L 413.0243902439024 211.60975609756096 L 414.0487804878049 210.7317073170732 L 414.4878048780488 210.58536585365852 L 415.8048780487805 210 L 416.5365853658537 210 L 417.5609756097561 210 L 418.5853658536585 210.29268292682926 L 419.4634146341463 210.7317073170732 L 420.0487804878049 211.3170731707317 L 420.4878048780488 211.7560975609756 L 420.780487804878 212.6341463414634 L 423.7073170731707 212.6341463414634 L 423.4146341463415 211.60975609756096 L 422.8292682926829 210.58536585365852 L 422.0975609756098 209.7073170731707 L 421.3658536585366 208.97560975609755 L 420.1951219512195 208.390243902439 L 419.1707317073171 207.9512195121951 L 417.8536585365854 207.65853658536582 L 416.5365853658537 207.65853658536582 Z" fill="none" stroke="#5da9e9" stroke-width="1.4634146341463417" stroke-linecap="round" stroke-linejoin="round" data-pcb-component-id="null" data-pcb-silkscreen-path-id="pcb_silkscreen_path_31" data-type="pcb_silkscreen_path" data-pcb-layer="bottom"/><path class="pcb-silkscreen pcb-silkscreen-bottom" d="M 432.3414634146342 207.65853658536582 L 431.0243902439024 207.65853658536582 L 430.2926829268293 207.9512195121951 L 429.5609756097561 208.09756097560972 L 428.6829268292683 208.8292682926829 L 428.0975609756098 209.1219512195122 L 427.9512195121951 210 L 427.6585365853658 211.02439024390242 L 427.6585365853658 212.1951219512195 L 427.6585365853658 222.4390243902439 L 425.0243902439024 222.4390243902439 L 425.0243902439024 224.78048780487805 L 427.6585365853658 224.78048780487805 L 427.6585365853658 229.46341463414632 L 430.5853658536585 229.46341463414632 L 430.5853658536585 224.78048780487805 L 433.6585365853658 224.78048780487805 L 433.6585365853658 222.4390243902439 L 430.5853658536585 222.4390243902439 L 430.5853658536585 212.1951219512195 L 430.7317073170732 211.02439024390242 L 431.0243902439024 210.29268292682926 L 431.7560975609756 210 L 432.3414634146342 210 L 432.9268292682927 209.7073170731707 L 433.6585365853658 210 L 433.6585365853658 207.65853658536582 L 433.3658536585366 207.65853658536582 L 432.9268292682927 207.65853658536582 L 432.3414634146342 207.65853658536582 Z" fill="none" stroke="#5da9e9" stroke-width="1.4634146341463417" stroke-linecap="round" stroke-linejoin="round" data-pcb-component-id="null" data-pcb-silkscreen-path-id="pcb_silkscreen_path_32" data-type="pcb_silkscreen_path" data-pcb-layer="bottom"/><path class="pcb-silkscreen pcb-silkscreen-bottom" d="M 439.6585365853658 207.9512195121951 L 436.8780487804878 207.9512195121951 L 436.8780487804878 224.78048780487805 L 439.6585365853658 224.78048780487805 L 439.6585365853658 221.85365853658536 L 440.0975609756098 222.73170731707316 L 440.8292682926829 224.04878048780486 L 441.8536585365854 224.78048780487805 L 442.8780487804878 224.9268292682927 L 443.7560975609756 225.3658536585366 L 444.1951219512195 225.3658536585366 L 444.780487804878 224.9268292682927 L 444.780487804878 222.4390243902439 L 444.1951219512195 222.4390243902439 L 443.7560975609756 222.4390243902439 L 442.8780487804878 222.4390243902439 L 441.8536585365854 222.14634146341461 L 441.1219512195122 221.5609756097561 L 440.2439024390244 221.1219512195122 L 440.0975609756098 220.09756097560975 L 439.6585365853658 218.9268292682927 L 439.6585365853658 218.48780487804876 L 439.6585365853658 207.9512195121951 Z" fill="none" stroke="#5da9e9" stroke-width="1.4634146341463417" stroke-linecap="round" stroke-linejoin="round" data-pcb-component-id="null" data-pcb-silkscreen-path-id="pcb_silkscreen_path_33" data-type="pcb_silkscreen_path" data-pcb-layer="bottom"/><path class="pcb-silkscreen pcb-silkscreen-bottom" d="M 454.2926829268293 207.65853658536582 L 453.2682926829268 207.65853658536582 L 452.0975609756098 207.9512195121951 L 451.0731707317073 208.09756097560972 L 450.0487804878049 208.8292682926829 L 449.3170731707317 209.1219512195122 L 448.4390243902439 210 L 448 210.7317073170732 L 447.4146341463415 211.60975609756096 L 446.8292682926829 212.6341463414634 L 446.5365853658537 213.9512195121951 L 446.390243902439 214.97560975609755 L 446.390243902439 216.29268292682926 L 446.390243902439 217.609756097561 L 446.5365853658537 218.9268292682927 L 446.8292682926829 220.09756097560975 L 447.4146341463415 221.1219512195122 L 448 222.14634146341461 L 448.4390243902439 222.8780487804878 L 449.3170731707317 223.46341463414632 L 450.0487804878049 224.1951219512195 L 451.0731707317073 224.4878048780488 L 452.0975609756098 224.9268292682927 L 453.2682926829268 224.9268292682927 L 454.2926829268293 225.3658536585366 L 455.3170731707317 224.9268292682927 L 456.3414634146342 224.9268292682927 L 457.3658536585366 224.4878048780488 L 458.5365853658537 224.1951219512195 L 459.2682926829268 223.46341463414632 L 460 222.8780487804878 L 460.5853658536585 222.14634146341461 L 461.1707317073171 221.1219512195122 L 461.609756097561 220.09756097560975 L 461.9024390243903 218.9268292682927 L 462.1951219512195 217.609756097561 L 462.1951219512195 216.29268292682926 L 462.1951219512195 214.97560975609755 L 461.9024390243903 213.65853658536582 L 461.609756097561 212.6341463414634 L 461.1707317073171 211.60975609756096 L 460.5853658536585 210.7317073170732 L 460 210 L 459.2682926829268 209.1219512195122 L 458.5365853658537 208.8292682926829 L 457.3658536585366 208.09756097560972 L 456.3414634146342 207.9512195121951 L 455.3170731707317 207.65853658536582 L 454.2926829268293 207.65853658536582 Z" fill="none" stroke="#5da9e9" stroke-width="1.4634146341463417" stroke-linecap="round" stroke-linejoin="round" data-pcb-component-id="null" data-pcb-silkscreen-path-id="pcb_silkscreen_path_34" data-type="pcb_silkscreen_path" data-pcb-layer="bottom"/><path class="pcb-silkscreen pcb-silkscreen-bottom" d="M 454.2926829268293 210 L 455.0243902439024 210 L 456.3414634146342 210.58536585365852 L 457.3658536585366 211.3170731707317 L 458.0975609756098 212.34146341463412 L 458.6829268292683 213.65853658536582 L 459.2682926829268 215.2682926829268 L 459.2682926829268 216.29268292682926 L 459.2682926829268 217.46341463414632 L 458.6829268292683 218.9268292682927 L 458.0975609756098 220.53658536585365 L 457.3658536585366 221.5609756097561 L 456.3414634146342 222.4390243902439 L 455.0243902439024 222.73170731707316 L 454.2926829268293 222.73170731707316 L 453.4146341463415 222.73170731707316 L 452.0975609756098 222.14634146341461 L 451.0731707317073 221.5609756097561 L 450.1951219512195 220.53658536585365 L 449.4634146341463 218.9268292682927 L 449.3170731707317 217.46341463414632 L 449.3170731707317 216.29268292682926 L 449.3170731707317 215.2682926829268 L 449.4634146341463 213.65853658536582 L 450.1951219512195 212.34146341463412 L 451.0731707317073 211.3170731707317 L 452.0975609756098 210.58536585365852 L 453.4146341463415 210 L 454.2926829268293 210 Z" fill="none" stroke="#5da9e9" stroke-width="1.4634146341463417" stroke-linecap="round" stroke-linejoin="round" data-pcb-component-id="null" data-pcb-silkscreen-path-id="pcb_silkscreen_path_35" data-type="pcb_silkscreen_path" data-pcb-layer="bottom"/><path class="pcb-silkscreen pcb-silkscreen-bottom" d="M 467.609756097561 207.9512195121951 L 465.1219512195122 207.9512195121951 L 465.1219512195122 224.78048780487805 L 467.609756097561 224.78048780487805 L 467.609756097561 222.4390243902439 L 468.1951219512195 222.8780487804878 L 469.219512195122 224.04878048780486 L 470.5365853658537 224.78048780487805 L 472.1463414634146 224.9268292682927 L 473.1707317073171 225.3658536585366 L 474.4878048780488 224.9268292682927 L 476.5365853658537 224.1951219512195 L 478.2926829268293 222.73170731707316 L 479.0243902439024 220.2439024390244 L 479.0243902439024 218.9268292682927 L 479.0243902439024 207.9512195121951 L 476.0975609756098 207.9512195121951 L 476.0975609756098 218.48780487804876 L 475.8048780487805 220.2439024390244 L 475.0731707317073 221.5609756097561 L 473.9024390243902 222.4390243902439 L 473.1707317073171 222.73170731707316 L 472.1463414634146 222.73170731707316 L 471.1219512195122 222.73170731707316 L 469.8048780487805 222.14634146341461 L 469.0731707317073 221.2682926829268 L 468.4878048780488 220.2439024390244 L 467.9024390243902 219.21951219512195 L 467.609756097561 217.90243902439022 L 467.609756097561 207.9512195121951 Z" fill="none" stroke="#5da9e9" stroke-width="1.4634146341463417" stroke-linecap="round" stroke-linejoin="round" data-pcb-component-id="null" data-pcb-silkscreen-path-id="pcb_silkscreen_path_36" data-type="pcb_silkscreen_path" data-pcb-layer="bottom"/><rect class="pcb-pad" fill="rgb(200, 52, 52)" x="295.36585365853654" y="215.85365853658536" width="36.58536585365854" height="36.58536585365854" data-type="pcb_smtpad" data-pcb-layer="top"/><rect class="pcb-pad" fill="rgb(200, 52, 52)" x="468.0487804878049" y="215.85365853658536" width="36.58536585365854" height="36.58536585365854" data-type="pcb_smtpad" data-pcb-layer="top"/><rect class="pcb-pad" fill="rgb(200, 52, 52)" x="544.8780487804878" y="417.8048780487805" width="17.5609756097561" height="13.170731707317074" data-type="pcb_smtpad" data-pcb-layer="top"/><rect class="pcb-pad" fill="rgb(200, 52, 52)" x="566.829268292683" y="417.8048780487805" width="17.5609756097561" height="13.170731707317074" data-type="pcb_smtpad" data-pcb-layer="top"/><rect class="pcb-pad" fill="rgb(200, 52, 52)" x="588.780487804878" y="417.8048780487805" width="17.5609756097561" height="13.170731707317074" data-type="pcb_smtpad" data-pcb-layer="top"/><rect class="pcb-pad" fill="rgb(200, 52, 52)" x="469.8780487804878" y="417.4390243902439" width="11.707317073170733" height="13.902439024390244" data-type="pcb_smtpad" data-pcb-layer="top"/><rect class="pcb-pad" fill="rgb(200, 52, 52)" x="494.0243902439024" y="417.4390243902439" width="11.707317073170733" height="13.902439024390244" data-type="pcb_smtpad" data-pcb-layer="top"/><path class="pcb-trace" stroke="rgb(200, 52, 52)" fill="none" d="M 381.4146341463415 453.6585365853658 L 409.6897802667362 425.3833904649711" stroke-width="2.1951219512195124" stroke-linecap="round" stroke-linejoin="round" shape-rendering="crispEdges" data-type="pcb_trace" data-pcb-layer="top"/><path class="pcb-trace" stroke="rgb(200, 52, 52)" fill="none" d="M 409.6897802667362 425.3833904649711 L 450.1891426180542 425.3833904649711" stroke-width="2.1951219512195124" stroke-linecap="round" stroke-linejoin="round" shape-rendering="crispEdges" data-type="pcb_trace" data-pcb-layer="top"/><path class="pcb-trace" stroke="rgb(200, 52, 52)" fill="none" d="M 450.1891426180542 425.3833904649711 L 458.74772935446015 433.94197720137703" stroke-width="2.1951219512195124" stroke-linecap="round" stroke-linejoin="round" shape-rendering="crispEdges" data-type="pcb_trace" data-pcb-layer="top"/><path class="pcb-trace" stroke="rgb(200, 52, 52)" fill="none" d="M 458.74772935446015 433.94197720137703 L 490.3263154815498 433.94197720137703" stroke-width="2.1951219512195124" stroke-linecap="round" stroke-linejoin="round" shape-rendering="crispEdges" data-type="pcb_trace" data-pcb-layer="top"/><path class="pcb-trace" stroke="rgb(200, 52, 52)" fill="none" d="M 490.3263154815498 433.94197720137703 L 490.3263154815498 433.94197720137703" stroke-width="2.1951219512195124" stroke-linecap="round" stroke-linejoin="round" shape-rendering="crispEdges" data-type="pcb_trace" data-pcb-layer="top"/><path class="pcb-trace" stroke="rgb(200, 52, 52)" fill="none" d="M 490.3263154815498 433.94197720137703 L 499.8780487804878 424.390243902439" stroke-width="2.1951219512195124" stroke-linecap="round" stroke-linejoin="round" shape-rendering="crispEdges" data-type="pcb_trace" data-pcb-layer="top"/><path class="pcb-trace" stroke="rgb(200, 52, 52)" fill="none" d="M 475.7317073170732 424.390243902439 L 493.29268292682923 406.82926829268297" stroke-width="2.1951219512195124" stroke-linecap="round" stroke-linejoin="round" shape-rendering="crispEdges" data-type="pcb_trace" data-pcb-layer="top"/><path class="pcb-trace" stroke="rgb(200, 52, 52)" fill="none" d="M 493.29268292682923 406.82926829268297 L 545.285000573695 406.82926829268297" stroke-width="2.1951219512195124" stroke-linecap="round" stroke-linejoin="round" shape-rendering="crispEdges" data-type="pcb_trace" data-pcb-layer="top"/><path class="pcb-trace" stroke="rgb(200, 52, 52)" fill="none" d="M 545.285000573695 406.82926829268297 L 546.3414634146341 406.82926829268297" stroke-width="2.1951219512195124" stroke-linecap="round" stroke-linejoin="round" shape-rendering="crispEdges" data-type="pcb_trace" data-pcb-layer="top"/><path class="pcb-trace" stroke="rgb(200, 52, 52)" fill="none" d="M 546.3414634146341 406.82926829268297 L 546.3414634146341 406.82926829268297" stroke-width="2.1951219512195124" stroke-linecap="round" stroke-linejoin="round" shape-rendering="crispEdges" data-type="pcb_trace" data-pcb-layer="top"/><path class="pcb-trace" stroke="rgb(200, 52, 52)" fill="none" d="M 569.7560975609756 406.82926829268297 L 569.7560975609756 406.82926829268297" stroke-width="2.1951219512195124" stroke-linecap="round" stroke-linejoin="round" shape-rendering="crispEdges" data-type="pcb_trace" data-pcb-layer="top"/><path class="pcb-trace" stroke="rgb(200, 52, 52)" fill="none" d="M 569.7560975609756 406.82926829268297 L 569.7560975609756 418.5365853658536" stroke-width="2.1951219512195124" stroke-linecap="round" stroke-linejoin="round" shape-rendering="crispEdges" data-type="pcb_trace" data-pcb-layer="top"/><path class="pcb-trace" stroke="rgb(200, 52, 52)" fill="none" d="M 569.7560975609756 418.5365853658536 L 575.609756097561 424.390243902439" stroke-width="2.1951219512195124" stroke-linecap="round" stroke-linejoin="round" shape-rendering="crispEdges" data-type="pcb_trace" data-pcb-layer="top"/><path class="pcb-trace" stroke="rgb(200, 52, 52)" fill="none" d="M 418.5853658536585 453.6585365853658 L 418.5853658536585 440.9268292682927" stroke-width="2.1951219512195124" stroke-linecap="round" stroke-linejoin="round" shape-rendering="crispEdges" data-type="pcb_trace" data-pcb-layer="top"/><path class="pcb-trace" stroke="rgb(200, 52, 52)" fill="none" d="M 418.5853658536585 440.9268292682927 L 427.6904701000417 431.8217250219095" stroke-width="2.1951219512195124" stroke-linecap="round" stroke-linejoin="round" shape-rendering="crispEdges" data-type="pcb_trace" data-pcb-layer="top"/><path class="pcb-trace" stroke="rgb(200, 52, 52)" fill="none" d="M 427.6904701000417 431.8217250219095 L 429.2682926829268 430.2439024390244" stroke-width="2.1951219512195124" stroke-linecap="round" stroke-linejoin="round" shape-rendering="crispEdges" data-type="pcb_trace" data-pcb-layer="top"/><path class="pcb-trace" stroke="rgb(200, 52, 52)" fill="none" d="M 429.2682926829268 430.2439024390244 L 429.2682926829268 430.2439024390244" stroke-width="2.1951219512195124" stroke-linecap="round" stroke-linejoin="round" shape-rendering="crispEdges" data-type="pcb_trace" data-pcb-layer="top"/><path class="pcb-trace" stroke="rgb(200, 52, 52)" fill="none" d="M 559.5853658536586 334.9390243902439 L 559.5853658536586 334.9390243902439" stroke-width="2.1951219512195124" stroke-linecap="round" stroke-linejoin="round" shape-rendering="crispEdges" data-type="pcb_trace" data-pcb-layer="top"/><path class="pcb-trace" stroke="rgb(200, 52, 52)" fill="none" d="M 559.5853658536586 334.9390243902439 L 559.5853658536586 307.390243902439" stroke-width="2.1951219512195124" stroke-linecap="round" stroke-linejoin="round" shape-rendering="crispEdges" data-type="pcb_trace" data-pcb-layer="top"/><path class="pcb-trace" stroke="rgb(200, 52, 52)" fill="none" d="M 559.5853658536586 307.390243902439 L 486.3414634146342 234.14634146341461" stroke-width="2.1951219512195124" stroke-linecap="round" stroke-linejoin="round" shape-rendering="crispEdges" data-type="pcb_trace" data-pcb-layer="top"/><path class="pcb-trace" stroke="rgb(200, 52, 52)" fill="none" d="M 553.6585365853658 424.390243902439 L 553.6585365853658 407.24031360976676" stroke-width="2.1951219512195124" stroke-linecap="round" stroke-linejoin="round" shape-rendering="crispEdges" data-type="pcb_trace" data-pcb-layer="top"/><path class="pcb-trace" stroke="rgb(200, 52, 52)" fill="none" d="M 553.6585365853658 407.24031360976676 L 483.00358882925764 336.5853658536585" stroke-width="2.1951219512195124" stroke-linecap="round" stroke-linejoin="round" shape-rendering="crispEdges" data-type="pcb_trace" data-pcb-layer="top"/><path class="pcb-trace" stroke="rgb(200, 52, 52)" fill="none" d="M 483.00358882925764 336.5853658536585 L 416.0975609756098 336.5853658536585" stroke-width="2.1951219512195124" stroke-linecap="round" stroke-linejoin="round" shape-rendering="crispEdges" data-type="pcb_trace" data-pcb-layer="top"/><path class="pcb-trace" stroke="rgb(200, 52, 52)" fill="none" d="M 416.0975609756098 336.5853658536585 L 313.6585365853658 234.14634146341461" stroke-width="2.1951219512195124" stroke-linecap="round" stroke-linejoin="round" shape-rendering="crispEdges" data-type="pcb_trace" data-pcb-layer="top"/><path class="pcb-silkscreen pcb-silkscreen-top" d="M 313.6585365853658 263.4146341463414 L 313.6585365853658 204.8780487804878" fill="none" stroke="#f2eda1" stroke-width="1.4634146341463417" stroke-linecap="round" stroke-linejoin="round" data-pcb-component-id="pcb_component_0" data-pcb-silkscreen-path-id="pcb_silkscreen_path_0" data-type="pcb_silkscreen_path" data-pcb-layer="top"/><path class="pcb-silkscreen pcb-silkscreen-top" d="M 304.8780487804878 234.14634146341461 L 322.4390243902439 234.14634146341461" fill="none" stroke="#f2eda1" stroke-width="1.4634146341463417" stroke-linecap="round" stroke-linejoin="round" data-pcb-component-id="pcb_component_0" data-pcb-silkscreen-path-id="pcb_silkscreen_path_1" data-type="pcb_silkscreen_path" data-pcb-layer="top"/><text x="0" y="0" dx="0" dy="0" fill="#f2eda1" font-family="Arial, sans-serif" font-size="14.634146341463415" text-anchor="middle" dominant-baseline="central" transform="matrix(1,0,0,1,313.6585365853658,278.0487804878049)" class="pcb-silkscreen-text pcb-silkscreen-top" data-pcb-silkscreen-text-id="pcb_component_0" stroke="none" data-type="pcb_silkscreen_text" data-pcb-layer="top">+</text><text x="0" y="0" dx="0" dy="0" fill="#f2eda1" font-family="Arial, sans-serif" font-size="14.634146341463415" text-anchor="middle" dominant-baseline="central" transform="matrix(1,0,0,1,486.3414634146342,278.0487804878049)" class="pcb-silkscreen-text pcb-silkscreen-top" data-pcb-silkscreen-text-id="pcb_component_0" stroke="none" data-type="pcb_silkscreen_text" data-pcb-layer="top">-</text><path class="pcb-silkscreen pcb-silkscreen-top" d="M 539.0243902439024 446.3414634146342 L 612.1951219512196 446.3414634146342 L 612.1951219512196 402.4390243902439 L 539.0243902439024 402.4390243902439 L 539.0243902439024 446.3414634146342 Z" fill="none" stroke="#f2eda1" stroke-width="1.4634146341463417" stroke-linecap="round" stroke-linejoin="round" data-pcb-component-id="pcb_component_1" data-pcb-silkscreen-path-id="pcb_silkscreen_path_2" data-type="pcb_silkscreen_path" data-pcb-layer="top"/><path class="pcb-silkscreen pcb-silkscreen-top" d="M 499.8780487804878 411.5853658536585 L 466.9512195121951 411.5853658536585 L 466.9512195121951 437.1951219512195 L 499.8780487804878 437.1951219512195" fill="none" stroke="#f2eda1" stroke-width="1.4634146341463417" stroke-linecap="round" stroke-linejoin="round" data-pcb-component-id="pcb_component_2" data-pcb-silkscreen-path-id="pcb_silkscreen_path_3" data-type="pcb_silkscreen_path" data-pcb-layer="top"/><text x="0" y="0" dx="0" dy="0" fill="#f2eda1" font-family="Arial, sans-serif" font-size="5.853658536585367" text-anchor="middle" dominant-baseline="central" transform="matrix(1,0,0,1,487.8048780487805,404.2682926829268)" class="pcb-silkscreen-text pcb-silkscreen-top" data-pcb-silkscreen-text-id="pcb_component_2" stroke="none" data-type="pcb_silkscreen_text" data-pcb-layer="top">R1</text><path class="pcb-silkscreen pcb-silkscreen-top" d="M 363.4146341463415 475.609756097561 L 436.5853658536585 475.609756097561 L 436.5853658536585 431.7073170731707 L 363.4146341463415 431.7073170731707 L 363.4146341463415 475.609756097561 Z" fill="none" stroke="#f2eda1" stroke-width="1.4634146341463417" stroke-linecap="round" stroke-linejoin="round" data-pcb-component-id="pcb_component_3" data-pcb-silkscreen-path-id="pcb_silkscreen_path_4" data-type="pcb_silkscreen_path" data-pcb-layer="top"/><text x="0" y="0" dx="0" dy="0" fill="#f2eda1" font-family="Arial, sans-serif" font-size="11.707317073170733" text-anchor="middle" dominant-baseline="central" transform="matrix(1,0,0,1,381.4146341463415,485.8536585365854)" class="pcb-silkscreen-text pcb-silkscreen-top" data-pcb-silkscreen-text-id="pcb_component_3" stroke="none" data-type="pcb_silkscreen_text" data-pcb-layer="top">+</text><text x="0" y="0" dx="0" dy="0" fill="#f2eda1" font-family="Arial, sans-serif" font-size="11.707317073170733" text-anchor="middle" dominant-baseline="central" transform="matrix(1,0,0,1,400,421.4634146341463)" class="pcb-silkscreen-text pcb-silkscreen-top" data-pcb-silkscreen-text-id="pcb_component_3" stroke="none" data-type="pcb_silkscreen_text" data-pcb-layer="top">LED</text><path class="pcb-silkscreen pcb-silkscreen-top" d="M 228.04878048780486 384.1463414634146 L 253.65853658536585 384.1463414634146 L 253.65853658536585 409.7560975609756 L 228.04878048780486 409.7560975609756 L 228.04878048780486 384.1463414634146 Z" fill="none" stroke="#f2eda1" stroke-width="1.4634146341463417" stroke-linecap="round" stroke-linejoin="round" data-pcb-component-id="null" data-pcb-silkscreen-path-id="pcb_silkscreen_path_5" data-type="pcb_silkscreen_path" data-pcb-layer="top"/><path class="pcb-silkscreen pcb-silkscreen-top" d="M 240.9268292682927 397.0243902439024 L 266.5365853658536 397.0243902439024 L 266.5365853658536 422.6341463414634 L 240.9268292682927 422.6341463414634 L 240.9268292682927 397.0243902439024 Z" fill="none" stroke="#f2eda1" stroke-width="1.4634146341463417" stroke-linecap="round" stroke-linejoin="round" data-pcb-component-id="null" data-pcb-silkscreen-path-id="pcb_silkscreen_path_6" data-type="pcb_silkscreen_path" data-pcb-layer="top"/><path class="pcb-silkscreen pcb-silkscreen-top" d="M 253.65853658536585 409.7560975609756 L 279.2682926829268 409.7560975609756 L 279.2682926829268 435.3658536585366 L 253.65853658536585 435.3658536585366 L 253.65853658536585 409.7560975609756 Z" fill="none" stroke="#f2eda1" stroke-width="1.4634146341463417" stroke-linecap="round" stroke-linejoin="round" data-pcb-component-id="null" data-pcb-silkscreen-path-id="pcb_silkscreen_path_7" data-type="pcb_silkscreen_path" data-pcb-layer="top"/><path class="pcb-silkscreen pcb-silkscreen-top" d="M 240.9268292682927 397.0243902439024 L 253.65853658536585 409.7560975609756" fill="none" stroke="#f2eda1" stroke-width="1.4634146341463417" stroke-linecap="round" stroke-linejoin="round" data-pcb-component-id="null" data-pcb-silkscreen-path-id="pcb_silkscreen_path_8" data-type="pcb_silkscreen_path" data-pcb-layer="top"/><path class="pcb-silkscreen pcb-silkscreen-top" d="M 253.65853658536585 409.7560975609756 L 266.5365853658536 422.6341463414634" fill="none" stroke="#f2eda1" stroke-width="1.4634146341463417" stroke-linecap="round" stroke-linejoin="round" data-pcb-component-id="null" data-pcb-silkscreen-path-id="pcb_silkscreen_path_9" data-type="pcb_silkscreen_path" data-pcb-layer="top"/><path class="pcb-silkscreen pcb-silkscreen-top" d="M 215.46341463414635 359.4146341463415 L 213.85365853658536 359.4146341463415 L 213.85365853658536 370.9756097560976 L 209.7560975609756 370.9756097560976 L 209.7560975609756 372.4390243902439 L 219.7073170731707 372.4390243902439 L 219.7073170731707 370.9756097560976 L 215.46341463414635 370.9756097560976 L 215.46341463414635 359.4146341463415 Z" fill="none" stroke="#f2eda1" stroke-width="1.4634146341463417" stroke-linecap="round" stroke-linejoin="round" data-pcb-component-id="null" data-pcb-silkscreen-path-id="pcb_silkscreen_path_10" data-type="pcb_silkscreen_path" data-pcb-layer="top"/><path class="pcb-silkscreen pcb-silkscreen-top" d="M 224.97560975609755 359.2682926829268 L 224.390243902439 359.2682926829268 L 223.8048780487805 359.4146341463415 L 223.21951219512195 359.5609756097561 L 222.78048780487805 359.8536585365854 L 222.1951219512195 360.1463414634146 L 221.90243902439025 360.5853658536585 L 221.46341463414635 361.0243902439024 L 221.17073170731706 361.4634146341463 L 221.02439024390242 362.0487804878049 L 220.8780487804878 362.6341463414634 L 220.73170731707316 363.3658536585366 L 220.73170731707316 364.0975609756098 L 220.73170731707316 364.8292682926829 L 220.8780487804878 365.4146341463415 L 221.02439024390242 366.1463414634146 L 221.17073170731706 366.7317073170732 L 221.46341463414635 367.1707317073171 L 221.90243902439025 367.609756097561 L 222.1951219512195 368.0487804878049 L 222.6341463414634 368.3414634146341 L 223.21951219512195 368.6341463414634 L 223.8048780487805 368.9268292682927 L 224.390243902439 368.9268292682927 L 224.97560975609755 369.0731707317073 L 225.5609756097561 368.9268292682927 L 226.14634146341464 368.9268292682927 L 226.73170731707316 368.6341463414634 L 227.17073170731706 368.4878048780488 L 227.609756097561 368.0487804878049 L 228.04878048780486 367.7560975609756 L 228.34146341463412 367.3170731707317 L 228.6341463414634 366.7317073170732 L 228.78048780487805 366.1463414634146 L 228.9268292682927 365.5609756097561 L 229.0731707317073 364.9756097560976 L 229.0731707317073 364.2439024390244 L 229.0731707317073 363.6585365853658 L 221.46341463414635 363.6585365853658 L 221.46341463414635 364.9756097560976 L 228.34146341463412 364.9756097560976 L 227.46341463414635 364.390243902439 L 227.46341463414635 364.9756097560976 L 227.3170731707317 365.8536585365854 L 227.02439024390242 366.5853658536585 L 226.58536585365854 367.0243902439024 L 225.99999999999997 367.4634146341464 L 225.26829268292684 367.609756097561 L 224.97560975609755 367.609756097561 L 224.53658536585365 367.609756097561 L 223.95121951219514 367.4634146341464 L 223.5121951219512 367.3170731707317 L 223.0731707317073 366.7317073170732 L 222.6341463414634 366.1463414634146 L 222.34146341463412 365.4146341463415 L 222.34146341463412 364.390243902439 L 222.34146341463412 363.3658536585366 L 222.4878048780488 362.4878048780488 L 222.78048780487805 361.7560975609756 L 223.0731707317073 361.4634146341463 L 223.65853658536582 361.0243902439024 L 224.2439024390244 360.7317073170732 L 225.1219512195122 360.5853658536585 L 225.7073170731707 360.5853658536585 L 226.14634146341464 360.7317073170732 L 226.58536585365854 361.0243902439024 L 226.8780487804878 361.3170731707317 L 227.17073170731706 361.609756097561 L 227.46341463414635 362.0487804878049 L 228.9268292682927 362.0487804878049 L 228.78048780487805 361.4634146341463 L 228.48780487804876 360.8780487804878 L 228.1951219512195 360.4390243902439 L 227.609756097561 360 L 227.17073170731706 359.7073170731707 L 226.4390243902439 359.4146341463415 L 225.85365853658536 359.2682926829268 L 224.97560975609755 359.2682926829268 Z" fill="none" stroke="#f2eda1" stroke-width="1.4634146341463417" stroke-linecap="round" stroke-linejoin="round" data-pcb-component-id="null" data-pcb-silkscreen-path-id="pcb_silkscreen_path_11" data-type="pcb_silkscreen_path" data-pcb-layer="top"/><path class="pcb-silkscreen pcb-silkscreen-top" d="M 232.29268292682926 359.4146341463415 L 230.8292682926829 359.4146341463415 L 230.8292682926829 372.4390243902439 L 232.29268292682926 372.4390243902439 L 232.29268292682926 359.4146341463415 Z" fill="none" stroke="#f2eda1" stroke-width="1.4634146341463417" stroke-linecap="round" stroke-linejoin="round" data-pcb-component-id="null" data-pcb-silkscreen-path-id="pcb_silkscreen_path_12" data-type="pcb_silkscreen_path" data-pcb-layer="top"/><path class="pcb-silkscreen pcb-silkscreen-top" d="M 238.4390243902439 359.2682926829268 L 237.7073170731707 359.2682926829268 L 237.1219512195122 359.4146341463415 L 236.53658536585365 359.5609756097561 L 236.09756097560975 359.8536585365854 L 235.65853658536585 360.1463414634146 L 235.21951219512195 360.5853658536585 L 234.78048780487805 361.0243902439024 L 234.48780487804876 361.4634146341463 L 234.34146341463415 362.0487804878049 L 234.1951219512195 362.6341463414634 L 234.04878048780486 363.3658536585366 L 234.04878048780486 364.0975609756098 L 234.04878048780486 364.8292682926829 L 234.1951219512195 365.4146341463415 L 234.34146341463415 366.1463414634146 L 234.48780487804876 366.7317073170732 L 234.78048780487805 367.1707317073171 L 235.21951219512195 367.609756097561 L 235.5121951219512 368.0487804878049 L 236.09756097560975 368.3414634146341 L 236.53658536585365 368.6341463414634 L 237.1219512195122 368.9268292682927 L 237.7073170731707 368.9268292682927 L 238.29268292682926 369.0731707317073 L 238.8780487804878 368.9268292682927 L 239.46341463414632 368.9268292682927 L 240.04878048780486 368.6341463414634 L 240.48780487804876 368.4878048780488 L 240.9268292682927 368.0487804878049 L 241.3658536585366 367.7560975609756 L 241.65853658536585 367.3170731707317 L 241.9512195121951 366.7317073170732 L 242.09756097560975 366.1463414634146 L 242.2439024390244 365.5609756097561 L 242.390243902439 364.9756097560976 L 242.390243902439 364.2439024390244 L 242.390243902439 363.6585365853658 L 234.78048780487805 363.6585365853658 L 234.78048780487805 364.9756097560976 L 241.65853658536585 364.9756097560976 L 240.9268292682927 364.390243902439 L 240.78048780487802 364.9756097560976 L 240.6341463414634 365.8536585365854 L 240.34146341463415 366.5853658536585 L 239.90243902439025 367.0243902439024 L 239.3170731707317 367.4634146341464 L 238.58536585365854 367.609756097561 L 238.29268292682926 367.609756097561 L 237.85365853658536 367.609756097561 L 237.2682926829268 367.4634146341464 L 236.6829268292683 367.0243902439024 L 236.09756097560975 366.4390243902439 L 235.80487804878047 365.8536585365854 L 235.65853658536585 364.8292682926829 L 235.65853658536585 364.390243902439 L 235.65853658536585 363.3658536585366 L 235.80487804878047 362.4878048780488 L 236.09756097560975 361.7560975609756 L 236.390243902439 361.4634146341463 L 236.97560975609755 361.0243902439024 L 237.5609756097561 360.7317073170732 L 238.4390243902439 360.5853658536585 L 239.02439024390245 360.5853658536585 L 239.46341463414632 360.7317073170732 L 239.90243902439025 361.0243902439024 L 240.34146341463415 361.3170731707317 L 240.48780487804876 361.609756097561 L 240.78048780487802 362.0487804878049 L 242.390243902439 362.0487804878049 L 242.09756097560975 361.4634146341463 L 241.80487804878047 360.8780487804878 L 241.5121951219512 360.4390243902439 L 241.0731707317073 360 L 240.48780487804876 359.7073170731707 L 239.7560975609756 359.4146341463415 L 239.17073170731706 359.2682926829268 L 238.4390243902439 359.2682926829268 Z" fill="none" stroke="#f2eda1" stroke-width="1.4634146341463417" stroke-linecap="round" stroke-linejoin="round" data-pcb-component-id="null" data-pcb-silkscreen-path-id="pcb_silkscreen_path_13" data-type="pcb_silkscreen_path" data-pcb-layer="top"/><path class="pcb-silkscreen pcb-silkscreen-top" d="M 245.60975609756096 359.4146341463415 L 244 359.4146341463415 L 244 368.780487804878 L 245.60975609756096 368.780487804878 L 245.60975609756096 367.4634146341464 L 245.7560975609756 367.7560975609756 L 246.0487804878049 368.0487804878049 L 246.34146341463415 368.3414634146341 L 246.6341463414634 368.6341463414634 L 247.07317073170734 368.780487804878 L 247.3658536585366 368.9268292682927 L 247.80487804878047 368.9268292682927 L 248.2439024390244 369.0731707317073 L 248.53658536585365 369.0731707317073 L 248.8292682926829 368.9268292682927 L 249.41463414634148 368.780487804878 L 249.85365853658536 368.4878048780488 L 250.14634146341461 368.3414634146341 L 250.4390243902439 368.0487804878049 L 250.7317073170732 367.4634146341464 L 250.8780487804878 367.1707317073171 L 251.02439024390245 367.4634146341464 L 251.46341463414632 367.9024390243902 L 251.90243902439025 368.3414634146341 L 252.34146341463415 368.6341463414634 L 252.92682926829266 368.9268292682927 L 253.5121951219512 369.0731707317073 L 253.9512195121951 369.0731707317073 L 254.39024390243904 368.9268292682927 L 255.1219512195122 368.780487804878 L 255.85365853658536 368.4878048780488 L 256.4390243902439 367.9024390243902 L 256.7317073170732 367.1707317073171 L 257.0243902439024 366.4390243902439 L 257.0243902439024 365.8536585365854 L 257.0243902439024 359.4146341463415 L 255.41463414634146 359.4146341463415 L 255.41463414634146 365.5609756097561 L 255.2682926829268 366.1463414634146 L 255.1219512195122 366.7317073170732 L 254.8292682926829 367.0243902439024 L 254.53658536585365 367.3170731707317 L 253.9512195121951 367.609756097561 L 253.3658536585366 367.609756097561 L 252.78048780487805 367.609756097561 L 252.34146341463415 367.3170731707317 L 251.90243902439025 367.0243902439024 L 251.60975609756096 366.5853658536585 L 251.3170731707317 366 L 251.3170731707317 365.4146341463415 L 251.3170731707317 359.4146341463415 L 249.70731707317074 359.4146341463415 L 249.70731707317074 365.7073170731707 L 249.5609756097561 366.4390243902439 L 249.2682926829268 366.8780487804878 L 248.97560975609755 367.3170731707317 L 248.53658536585365 367.4634146341464 L 248.09756097560975 367.609756097561 L 247.80487804878047 367.609756097561 L 247.21951219512195 367.609756097561 L 246.6341463414634 367.3170731707317 L 246.1951219512195 367.0243902439024 L 245.90243902439025 366.4390243902439 L 245.60975609756096 366 L 245.60975609756096 365.2682926829268 L 245.60975609756096 359.4146341463415 Z" fill="none" stroke="#f2eda1" stroke-width="1.4634146341463417" stroke-linecap="round" stroke-linejoin="round" data-pcb-component-id="null" data-pcb-silkscreen-path-id="pcb_silkscreen_path_14" data-type="pcb_silkscreen_path" data-pcb-layer="top"/><path class="pcb-silkscreen pcb-silkscreen-top" d="M 262.8780487804878 359.2682926829268 L 262.29268292682923 359.2682926829268 L 261.56097560975604 359.4146341463415 L 261.1219512195122 359.5609756097561 L 260.5365853658536 359.8536585365854 L 260.0975609756098 360.1463414634146 L 259.6585365853658 360.5853658536585 L 259.3658536585366 361.0243902439024 L 259.0731707317073 361.4634146341463 L 258.780487804878 362.0487804878049 L 258.6341463414634 362.6341463414634 L 258.4878048780488 363.3658536585366 L 258.4878048780488 364.0975609756098 L 258.4878048780488 364.8292682926829 L 258.6341463414634 365.4146341463415 L 258.780487804878 366.1463414634146 L 259.0731707317073 366.7317073170732 L 259.3658536585366 367.1707317073171 L 259.6585365853658 367.609756097561 L 260.0975609756098 368.0487804878049 L 260.5365853658536 368.3414634146341 L 260.9756097560976 368.6341463414634 L 261.56097560975604 368.9268292682927 L 262.1463414634146 368.9268292682927 L 262.7317073170732 369.0731707317073 L 263.4634146341464 368.9268292682927 L 264.0487804878049 368.9268292682927 L 264.4878048780488 368.6341463414634 L 265.0731707317073 368.4878048780488 L 265.5121951219512 368.0487804878049 L 265.8048780487805 367.7560975609756 L 266.0975609756098 367.3170731707317 L 266.390243902439 366.7317073170732 L 266.6829268292683 366.1463414634146 L 266.82926829268297 365.5609756097561 L 266.9756097560976 364.9756097560976 L 266.9756097560976 364.2439024390244 L 266.9756097560976 363.6585365853658 L 259.3658536585366 363.6585365853658 L 259.3658536585366 364.9756097560976 L 266.0975609756098 364.9756097560976 L 265.3658536585366 364.390243902439 L 265.3658536585366 364.9756097560976 L 265.2195121951219 365.8536585365854 L 264.780487804878 366.5853658536585 L 264.3414634146342 367.0243902439024 L 263.7560975609756 367.4634146341464 L 263.17073170731703 367.609756097561 L 262.7317073170732 367.609756097561 L 262.4390243902439 367.609756097561 L 261.70731707317077 367.4634146341464 L 261.1219512195122 367.0243902439024 L 260.6829268292683 366.4390243902439 L 260.390243902439 365.8536585365854 L 260.0975609756098 364.8292682926829 L 260.0975609756098 364.390243902439 L 260.0975609756098 363.3658536585366 L 260.2439024390244 362.4878048780488 L 260.6829268292683 361.7560975609756 L 260.8292682926829 361.4634146341463 L 261.4146341463414 361.0243902439024 L 261.70731707317077 360.8780487804878 L 262.4390243902439 360.5853658536585 L 262.8780487804878 360.5853658536585 L 263.4634146341464 360.5853658536585 L 264.0487804878049 360.7317073170732 L 264.4878048780488 361.0243902439024 L 264.780487804878 361.3170731707317 L 265.0731707317073 361.609756097561 L 265.2195121951219 362.0487804878049 L 266.82926829268297 362.0487804878049 L 266.6829268292683 361.4634146341463 L 266.390243902439 360.8780487804878 L 265.9512195121951 360.4390243902439 L 265.5121951219512 360 L 264.92682926829264 359.7073170731707 L 264.3414634146342 359.4146341463415 L 263.609756097561 359.2682926829268 L 262.8780487804878 359.2682926829268 Z" fill="none" stroke="#f2eda1" stroke-width="1.4634146341463417" stroke-linecap="round" stroke-linejoin="round" data-pcb-component-id="null" data-pcb-silkscreen-path-id="pcb_silkscreen_path_15" data-type="pcb_silkscreen_path" data-pcb-layer="top"/><path class="pcb-silkscreen pcb-silkscreen-top" d="M 271.6585365853658 359.2682926829268 L 270.92682926829264 359.2682926829268 L 270.4878048780488 359.4146341463415 L 270.0487804878049 359.5609756097561 L 269.609756097561 359.8536585365854 L 269.3170731707317 360.1463414634146 L 269.1707317073171 360.5853658536585 L 269.0243902439024 361.1707317073171 L 269.0243902439024 361.7560975609756 L 269.0243902439024 367.4634146341464 L 267.56097560975604 367.4634146341464 L 267.56097560975604 368.780487804878 L 269.0243902439024 368.780487804878 L 269.0243902439024 371.4146341463414 L 270.6341463414634 371.4146341463414 L 270.6341463414634 368.780487804878 L 272.390243902439 368.780487804878 L 272.390243902439 367.4634146341464 L 270.6341463414634 367.4634146341464 L 270.6341463414634 361.7560975609756 L 270.780487804878 361.1707317073171 L 270.92682926829264 360.7317073170732 L 271.3658536585366 360.5853658536585 L 271.6585365853658 360.5853658536585 L 271.9512195121951 360.4390243902439 L 272.390243902439 360.5853658536585 L 272.390243902439 359.2682926829268 L 272.2439024390244 359.2682926829268 L 271.9512195121951 359.2682926829268 L 271.6585365853658 359.2682926829268 Z" fill="none" stroke="#f2eda1" stroke-width="1.4634146341463417" stroke-linecap="round" stroke-linejoin="round" data-pcb-component-id="null" data-pcb-silkscreen-path-id="pcb_silkscreen_path_16" data-type="pcb_silkscreen_path" data-pcb-layer="top"/><path class="pcb-silkscreen pcb-silkscreen-top" d="M 275.7560975609756 359.4146341463415 L 274.1463414634146 359.4146341463415 L 274.1463414634146 368.780487804878 L 275.7560975609756 368.780487804878 L 275.7560975609756 367.1707317073171 L 275.9024390243902 367.609756097561 L 276.3414634146342 368.3414634146341 L 276.9268292682927 368.780487804878 L 277.5121951219512 368.9268292682927 L 277.9512195121951 369.0731707317073 L 278.2439024390244 369.0731707317073 L 278.5365853658536 368.9268292682927 L 278.5365853658536 367.4634146341464 L 278.2439024390244 367.4634146341464 L 277.9512195121951 367.4634146341464 L 277.5121951219512 367.4634146341464 L 276.9268292682927 367.3170731707317 L 276.4878048780488 367.0243902439024 L 276.04878048780483 366.7317073170732 L 275.9024390243902 366.1463414634146 L 275.7560975609756 365.5609756097561 L 275.7560975609756 365.2682926829268 L 275.7560975609756 359.4146341463415 Z" fill="none" stroke="#f2eda1" stroke-width="1.4634146341463417" stroke-linecap="round" stroke-linejoin="round" data-pcb-component-id="null" data-pcb-silkscreen-path-id="pcb_silkscreen_path_17" data-type="pcb_silkscreen_path" data-pcb-layer="top"/><path class="pcb-silkscreen pcb-silkscreen-top" d="M 283.8048780487805 359.2682926829268 L 283.2195121951219 359.2682926829268 L 282.6341463414634 359.4146341463415 L 282.04878048780483 359.5609756097561 L 281.4634146341464 359.8536585365854 L 281.0243902439024 360.1463414634146 L 280.5853658536585 360.5853658536585 L 280.2926829268293 361.0243902439024 L 280 361.4634146341463 L 279.7073170731707 362.0487804878049 L 279.5609756097561 362.780487804878 L 279.4146341463414 363.3658536585366 L 279.4146341463414 364.0975609756098 L 279.4146341463414 364.8292682926829 L 279.5609756097561 365.5609756097561 L 279.7073170731707 366.1463414634146 L 280 366.7317073170732 L 280.2926829268293 367.3170731707317 L 280.5853658536585 367.7560975609756 L 281.0243902439024 368.0487804878049 L 281.4634146341464 368.4878048780488 L 282.04878048780483 368.6341463414634 L 282.6341463414634 368.9268292682927 L 283.2195121951219 368.9268292682927 L 283.8048780487805 369.0731707317073 L 284.390243902439 368.9268292682927 L 284.9756097560976 368.9268292682927 L 285.5609756097561 368.6341463414634 L 286.1463414634146 368.4878048780488 L 286.5853658536585 368.0487804878049 L 287.0243902439024 367.7560975609756 L 287.3170731707317 367.3170731707317 L 287.609756097561 366.7317073170732 L 287.9024390243902 366.1463414634146 L 288.04878048780483 365.5609756097561 L 288.1951219512195 364.8292682926829 L 288.1951219512195 364.0975609756098 L 288.1951219512195 363.3658536585366 L 288.04878048780483 362.6341463414634 L 287.9024390243902 362.0487804878049 L 287.609756097561 361.4634146341463 L 287.3170731707317 361.0243902439024 L 287.0243902439024 360.5853658536585 L 286.5853658536585 360.1463414634146 L 286.1463414634146 359.8536585365854 L 285.5609756097561 359.5609756097561 L 284.9756097560976 359.4146341463415 L 284.390243902439 359.2682926829268 L 283.8048780487805 359.2682926829268 Z" fill="none" stroke="#f2eda1" stroke-width="1.4634146341463417" stroke-linecap="round" stroke-linejoin="round" data-pcb-component-id="null" data-pcb-silkscreen-path-id="pcb_silkscreen_path_18" data-type="pcb_silkscreen_path" data-pcb-layer="top"/><path class="pcb-silkscreen pcb-silkscreen-top" d="M 283.8048780487805 360.5853658536585 L 284.2439024390244 360.5853658536585 L 284.9756097560976 360.8780487804878 L 285.5609756097561 361.3170731707317 L 286 361.9024390243902 L 286.2926829268293 362.6341463414634 L 286.5853658536585 363.5121951219512 L 286.5853658536585 364.0975609756098 L 286.5853658536585 364.6829268292683 L 286.2926829268293 365.5609756097561 L 286 366.4390243902439 L 285.5609756097561 367.0243902439024 L 284.9756097560976 367.4634146341464 L 284.2439024390244 367.609756097561 L 283.8048780487805 367.609756097561 L 283.3658536585366 367.609756097561 L 282.6341463414634 367.3170731707317 L 282.04878048780483 367.0243902439024 L 281.609756097561 366.4390243902439 L 281.17073170731703 365.5609756097561 L 281.0243902439024 364.6829268292683 L 281.0243902439024 364.0975609756098 L 281.0243902439024 363.5121951219512 L 281.17073170731703 362.6341463414634 L 281.609756097561 361.9024390243902 L 282.04878048780483 361.3170731707317 L 282.6341463414634 360.8780487804878 L 283.3658536585366 360.5853658536585 L 283.8048780487805 360.5853658536585 Z" fill="none" stroke="#f2eda1" stroke-width="1.4634146341463417" stroke-linecap="round" stroke-linejoin="round" data-pcb-component-id="null" data-pcb-silkscreen-path-id="pcb_silkscreen_path_19" data-type="pcb_silkscreen_path" data-pcb-layer="top"/><path class="pcb-silkscreen pcb-silkscreen-top" d="M 291.2682926829268 359.4146341463415 L 289.8048780487805 359.4146341463415 L 289.8048780487805 368.780487804878 L 291.2682926829268 368.780487804878 L 291.2682926829268 367.4634146341464 L 291.5609756097561 367.7560975609756 L 292.1463414634146 368.3414634146341 L 292.8780487804878 368.780487804878 L 293.7560975609756 368.9268292682927 L 294.3414634146341 369.0731707317073 L 295.0731707317073 368.9268292682927 L 296.2439024390244 368.4878048780488 L 297.1219512195122 367.609756097561 L 297.5609756097561 366.2926829268293 L 297.5609756097561 365.5609756097561 L 297.5609756097561 359.4146341463415 L 295.9512195121951 359.4146341463415 L 295.9512195121951 365.2682926829268 L 295.8048780487805 366.2926829268293 L 295.3658536585366 367.0243902439024 L 294.780487804878 367.4634146341464 L 294.3414634146341 367.609756097561 L 293.7560975609756 367.609756097561 L 293.1707317073171 367.609756097561 L 292.4390243902439 367.3170731707317 L 292 366.8780487804878 L 291.7073170731707 366.2926829268293 L 291.4146341463414 365.7073170731707 L 291.2682926829268 364.9756097560976 L 291.2682926829268 359.4146341463415 Z" fill="none" stroke="#f2eda1" stroke-width="1.4634146341463417" stroke-linecap="round" stroke-linejoin="round" data-pcb-component-id="null" data-pcb-silkscreen-path-id="pcb_silkscreen_path_20" data-type="pcb_silkscreen_path" data-pcb-layer="top"/><g data-type="pcb_plated_hole" data-pcb-layer="through"><circle class="pcb-hole-outer" fill="rgb(200, 52, 52)" cx="381.4146341463415" cy="453.6585365853658" r="13.170731707317074" data-type="pcb_plated_hole" data-pcb-layer="top"/><circle class="pcb-hole-inner" fill="#FF26E2" cx="381.4146341463415" cy="453.6585365853658" r="7.317073170731708" data-type="pcb_plated_hole_drill" data-pcb-layer="drill"/></g><g data-type="pcb_plated_hole" data-pcb-layer="through"><circle class="pcb-hole-outer" fill="rgb(200, 52, 52)" cx="418.5853658536585" cy="453.6585365853658" r="13.170731707317074" data-type="pcb_plated_hole" data-pcb-layer="top"/><circle class="pcb-hole-inner" fill="#FF26E2" cx="418.5853658536585" cy="453.6585365853658" r="7.317073170731708" data-type="pcb_plated_hole_drill" data-pcb-layer="drill"/></g><g data-type="pcb_via" data-pcb-layer="through"><circle class="pcb-hole-outer" fill="rgb(200, 52, 52)" cx="546.3414634146341" cy="406.82926829268297" r="2.1951219512195124" data-type="pcb_via" data-pcb-layer="top"/><circle class="pcb-hole-inner" fill="#FF26E2" cx="546.3414634146341" cy="406.82926829268297" r="1.4634146341463417" data-type="pcb_via" data-pcb-layer="drill"/></g><g data-type="pcb_via" data-pcb-layer="through"><circle class="pcb-hole-outer" fill="rgb(200, 52, 52)" cx="569.7560975609756" cy="406.82926829268297" r="2.1951219512195124" data-type="pcb_via" data-pcb-layer="top"/><circle class="pcb-hole-inner" fill="#FF26E2" cx="569.7560975609756" cy="406.82926829268297" r="1.4634146341463417" data-type="pcb_via" data-pcb-layer="drill"/></g><g data-type="pcb_via" data-pcb-layer="through"><circle class="pcb-hole-outer" fill="rgb(200, 52, 52)" cx="429.2682926829268" cy="430.2439024390244" r="2.1951219512195124" data-type="pcb_via" data-pcb-layer="top"/><circle class="pcb-hole-inner" fill="#FF26E2" cx="429.2682926829268" cy="430.2439024390244" r="1.4634146341463417" data-type="pcb_via" data-pcb-layer="drill"/></g><g data-type="pcb_via" data-pcb-layer="through"><circle class="pcb-hole-outer" fill="rgb(200, 52, 52)" cx="559.5853658536586" cy="334.9390243902439" r="2.1951219512195124" data-type="pcb_via" data-pcb-layer="top"/><circle class="pcb-hole-inner" fill="#FF26E2" cx="559.5853658536586" cy="334.9390243902439" r="1.4634146341463417" data-type="pcb_via" data-pcb-layer="drill"/></g><circle class="pcb-hole" cx="400" cy="541.4634146341464" r="18.29268292682927" fill="#FF26E2" data-type="pcb_hole" data-pcb-layer="drill"/></svg>