<svg xmlns="http://www.w3.org/2000/svg" width="800" height="600" data-software-used-string="@tscircuit/core@0.0.1112"><style></style><rect class="boundary" x="0" y="0" fill="#000" width="800" height="600" data-type="pcb_background" data-pcb-layer="global"/><rect class="pcb-boundary" fill="none" stroke="#fff" stroke-width="0.3" x="99.39879759519039" y="13.360053440213733" width="601.2024048096191" height="573.2798931195725" data-type="pcb_boundary" data-pcb-layer="global"/><path class="pcb-board" d="M 400 586.6399465597863 L 420.04008016032066 579.9599198396793 L 430.72812291249164 570.6078824315298 L 437.4081496325985 557.2478289913159 L 440.0801603206413 539.8797595190381 L 440.0801603206413 519.8396793587174 L 437.54175016700066 506.74682698730794 L 461.0554442217769 528.1229124916499 L 490.0467601870407 544.9565798263193 L 523.4468937875752 554.8430193720775 L 559.1182364729459 556.312625250501 L 595.1903807615231 548.8309953239814 L 629.2585170340682 532.6653306613226 L 658.5170340681364 508.88443553774215 L 681.2291249164997 478.9579158316633 L 695.6579826319305 444.6225784903139 L 700.6012024048096 407.8824315297261 L 695.6579826319305 370.34068136272543 L 681.2291249164997 333.19973279893117 L 658.5170340681364 297.12758851035403 L 629.2585170340682 262.52505010020036 L 595.1903807615231 229.52571810287242 L 559.1182364729459 197.72879091516367 L 523.4468937875752 167.13426853707412 L 490.0467601870407 137.74215096860388 L 461.0554442217769 109.81963927855708 L 437.54175016700066 83.63393453573815 L 420.3072812291249 60.38744154976615 L 408.8176352705411 40.88176352705409 L 402.67201068804275 26.052104208416836 L 400.4008016032064 16.566466265865017 L 400 13.360053440213733 L 399.5991983967936 16.566466265865017 L 397.32798931195725 26.052104208416836 L 391.1823647294589 40.88176352705409 L 379.6927187708751 60.38744154976615 L 362.45824983299934 83.63393453573815 L 338.9445557782231 109.81963927855708 L 309.9532398129593 137.74215096860388 L 276.55310621242484 167.13426853707412 L 240.8817635270541 197.72879091516367 L 204.80961923847696 229.52571810287242 L 170.74148296593185 262.52505010020036 L 141.4829659318637 297.12758851035403 L 118.7708750835003 333.19973279893117 L 104.34201736806949 370.34068136272543 L 99.39879759519039 407.8824315297261 L 104.34201736806949 444.6225784903139 L 118.7708750835003 478.9579158316633 L 141.4829659318637 508.88443553774215 L 170.74148296593185 532.6653306613226 L 204.80961923847696 548.8309953239814 L 240.8817635270541 556.312625250501 L 276.55310621242484 554.8430193720775 L 309.9532398129593 544.9565798263193 L 338.9445557782231 528.1229124916499 L 362.45824983299934 506.74682698730794 L 359.9198396793587 519.8396793587174 L 359.9198396793587 539.8797595190381 L 362.5918503674015 557.2478289913159 L 369.27187708750836 570.6078824315298 L 379.95991983967934 579.9599198396793 Z" fill="none" stroke="rgba(255, 255, 255, 0.5)" stroke-width="1.3360053440213762" data-type="pcb_board" data-pcb-layer="board"/><path class="pcb-trace" stroke="rgb(77, 127, 196)" fill="none" d="M 394.6559786239145 348.8309953239813 L 394.6559786239145 348.8309953239813" stroke-width="2.004008016032064" stroke-linecap="round" stroke-linejoin="round" shape-rendering="crispEdges" data-type="pcb_trace" data-pcb-layer="bottom"/><path class="pcb-trace" stroke="rgb(77, 127, 196)" fill="none" d="M 394.6559786239145 348.8309953239813 L 394.6559786239145 179.5741665121084" stroke-width="2.004008016032064" stroke-linecap="round" stroke-linejoin="round" shape-rendering="crispEdges" data-type="pcb_trace" data-pcb-layer="bottom"/><path class="pcb-trace" stroke="rgb(77, 127, 196)" fill="none" d="M 394.6559786239145 179.5741665121084 L 399.7720808934246 174.45806424259834" stroke-width="2.004008016032064" stroke-linecap="round" stroke-linejoin="round" shape-rendering="crispEdges" data-type="pcb_trace" data-pcb-layer="bottom"/><path class="pcb-trace" stroke="rgb(77, 127, 196)" fill="none" d="M 399.7720808934246 174.45806424259834 L 400 172.4782899131596" stroke-width="2.004008016032064" stroke-linecap="round" stroke-linejoin="round" shape-rendering="crispEdges" data-type="pcb_trace" data-pcb-layer="bottom"/><path class="pcb-trace" stroke="rgb(77, 127, 196)" fill="none" d="M 400 172.4782899131596 L 400 172.4782899131596" stroke-width="2.004008016032064" stroke-linecap="round" stroke-linejoin="round" shape-rendering="crispEdges" data-type="pcb_trace" data-pcb-layer="bottom"/><path class="pcb-silkscreen pcb-silkscreen-bottom" d="M 309.55243820975284 467.3346693386774 L 319.83967935871743 492.5851703406814 L 309.9532398129593 492.5851703406814 L 305.0100200400801 478.55711422845695 L 300.0668002672011 492.5851703406814 L 290.5811623246493 492.5851703406814 L 300.8684034736139 467.3346693386774 L 309.55243820975284 467.3346693386774 Z" fill="none" stroke="#5da9e9" stroke-width="1.3360053440213762" stroke-linecap="round" stroke-linejoin="round" data-pcb-component-id="null" data-pcb-silkscreen-path-id="pcb_silkscreen_path_6" data-type="pcb_silkscreen_path" data-pcb-layer="bottom"/><path class="pcb-silkscreen pcb-silkscreen-bottom" d="M 279.62591850367403 467.3346693386774 L 288.8443553774215 467.3346693386774 L 288.8443553774215 492.5851703406814 L 279.62591850367403 492.5851703406814 L 279.62591850367403 467.3346693386774 Z" fill="none" stroke="#5da9e9" stroke-width="1.3360053440213762" stroke-linecap="round" stroke-linejoin="round" data-pcb-component-id="null" data-pcb-silkscreen-path-id="pcb_silkscreen_path_7" data-type="pcb_silkscreen_path" data-pcb-layer="bottom"/><path class="pcb-silkscreen pcb-silkscreen-bottom" d="M 253.97461589846358 492.5851703406814 L 253.97461589846358 486.84034736138943 L 264.7962591850367 474.68269873079487 L 253.84101536406146 474.68269873079487 L 253.84101536406146 467.3346693386774 L 277.08750835003343 467.3346693386774 L 277.08750835003343 473.2130928523714 L 266.26586506346024 485.2371409485638 L 276.4195056780227 485.2371409485638 L 276.4195056780227 492.5851703406814 L 253.97461589846358 492.5851703406814 Z" fill="none" stroke="#5da9e9" stroke-width="1.3360053440213762" stroke-linecap="round" stroke-linejoin="round" data-pcb-component-id="null" data-pcb-silkscreen-path-id="pcb_silkscreen_path_8" data-type="pcb_silkscreen_path" data-pcb-layer="bottom"/><path class="pcb-silkscreen pcb-silkscreen-bottom" d="M 253.03941215764863 480.0267201068804 L 252.77221108884436 482.6987307949232 L 252.10420841683367 485.37074148296597 L 250.90180360721442 487.64195056780227 L 249.16499665998666 489.51235804943224 L 247.16098864395457 491.11556446225785 L 244.88977955911824 492.3179692718771 L 242.21776887107546 493.1195724782899 L 239.27855711422845 493.3867735470942 L 237.00734802939212 493.1195724782899 L 234.7361389445558 492.5851703406814 L 233.4001336005344 492.05076820307283 L 233.4001336005344 483.63393453573815 L 235.00334001336006 484.4355377421509 L 236.74014696058782 484.9699398797595 L 237.94255177020707 484.9699398797595 L 240.2137608550434 484.7027388109552 L 241.9505678022712 483.63393453573815 L 243.15297261189045 482.0307281229125 L 243.687374749499 480.0267201068804 L 243.15297261189045 477.8891115564462 L 242.08416833667334 476.28590514362054 L 240.2137608550434 475.21710086840346 L 237.94255177020707 474.94989979959917 L 236.74014696058782 474.94989979959917 L 235.00334001336006 475.48430193720776 L 233.4001336005344 476.4195056780227 L 233.4001336005344 468.002672010688 L 235.67134268537072 467.0674682698731 L 237.94255177020707 466.66666666666663 L 239.4121576486306 466.66666666666663 L 242.21776887107546 466.8002672010688 L 244.88977955911824 467.6018704074816 L 247.16098864395457 468.67067468269875 L 249.16499665998666 470.27388109552436 L 250.7682030728123 472.14428857715427 L 251.97060788243152 474.4154976619906 L 252.77221108884436 477.08750835003343 L 253.03941215764863 480.0267201068804 Z" fill="none" stroke="#5da9e9" stroke-width="1.3360053440213762" stroke-linecap="round" stroke-linejoin="round" data-pcb-component-id="null" data-pcb-silkscreen-path-id="pcb_silkscreen_path_9" data-type="pcb_silkscreen_path" data-pcb-layer="bottom"/><path class="pcb-silkscreen pcb-silkscreen-bottom" d="M 217.50167000668003 493.3867735470942 L 214.6960587842351 493.1195724782899 L 212.0240480961924 492.3179692718771 L 209.6192384769539 491.11556446225785 L 207.4816299265197 489.51235804943224 L 205.7448229792919 487.5083500334001 L 204.5424181696727 485.2371409485638 L 203.74081496325985 482.6987307949232 L 203.47361389445555 480.0267201068804 L 203.74081496325985 477.2211088844356 L 204.5424181696727 474.68269873079487 L 205.7448229792919 472.41148964595857 L 207.4816299265197 470.40748162992656 L 209.6192384769539 468.8042752171009 L 212.0240480961924 467.6018704074816 L 214.6960587842351 466.8002672010688 L 217.50167000668003 466.66666666666663 L 220.44088176352705 466.8002672010688 L 223.1128924515698 467.6018704074816 L 225.51770207080827 468.8042752171009 L 227.65531062124248 470.40748162992656 L 229.39211756847027 472.41148964595857 L 230.59452237808952 474.68269873079487 L 231.39612558450236 477.2211088844356 L 231.66332665330663 480.0267201068804 L 231.39612558450236 482.6987307949232 L 230.59452237808952 485.2371409485638 L 229.39211756847027 487.5083500334001 L 227.65531062124248 489.51235804943224 L 225.51770207080827 491.11556446225785 L 223.1128924515698 492.3179692718771 L 220.44088176352705 493.1195724782899 L 217.50167000668003 493.3867735470942 Z" fill="none" stroke="#5da9e9" stroke-width="1.3360053440213762" stroke-linecap="round" stroke-linejoin="round" data-pcb-component-id="null" data-pcb-silkscreen-path-id="pcb_silkscreen_path_10" data-type="pcb_silkscreen_path" data-pcb-layer="bottom"/><path class="pcb-silkscreen pcb-silkscreen-bottom" d="M 217.50167000668003 484.9699398797595 L 219.5056780227121 484.5691382765531 L 221.10888443553773 483.500334001336 L 222.17768871075484 481.89712758851033 L 222.57849031396125 480.0267201068804 L 222.17768871075484 478.02271209084836 L 221.10888443553773 476.4195056780227 L 219.5056780227121 475.3507014028056 L 217.50167000668003 474.94989979959917 L 215.6312625250501 475.3507014028056 L 214.02805611222445 476.4195056780227 L 212.95925183700734 478.02271209084836 L 212.55845023380093 480.0267201068804 L 212.95925183700734 481.89712758851033 L 214.02805611222445 483.500334001336 L 215.6312625250501 484.5691382765531 L 217.50167000668003 484.9699398797595 Z" fill="none" stroke="#5da9e9" stroke-width="1.3360053440213762" stroke-linecap="round" stroke-linejoin="round" data-pcb-component-id="null" data-pcb-silkscreen-path-id="pcb_silkscreen_path_11" data-type="pcb_silkscreen_path" data-pcb-layer="bottom"/><path class="pcb-silkscreen pcb-silkscreen-bottom" d="M 192.5183700734803 480.9619238476954 L 192.5183700734803 467.2010688042752 L 201.8704074816299 467.2010688042752 L 201.8704074816299 492.5851703406814 L 192.5183700734803 492.5851703406814 L 192.5183700734803 489.64595858383433 L 190.51436205744824 491.6499665998664 L 187.8423513694055 492.98597194388776 L 185.57114228456913 493.25317301269206 L 183.16633266533066 492.98597194388776 L 180.36072144288576 491.6499665998664 L 178.3567134268537 489.24515698062794 L 175.95190380761522 491.78356713426854 L 172.74549098196394 493.1195724782899 L 170.47428189712758 493.25317301269206 L 166.5998663994656 492.5851703406814 L 163.79425517702072 490.5811623246493 L 162.19104876419505 487.64195056780227 L 161.52304609218433 483.500334001336 L 161.52304609218433 467.2010688042752 L 170.87508350033403 467.2010688042752 L 170.87508350033403 481.09552438209755 L 171.40948563794257 483.2331329325317 L 172.6118904475618 484.5691382765531 L 173.94789579158314 484.8363393453574 L 175.15030060120242 484.5691382765531 L 176.48630594522376 483.2331329325317 L 177.0207080828323 480.9619238476954 L 177.0207080828323 467.2010688042752 L 186.37274549098197 467.2010688042752 L 186.37274549098197 481.09552438209755 L 186.77354709418836 483.2331329325317 L 188.10955243820976 484.5691382765531 L 189.31195724782899 484.8363393453574 L 190.64796259185036 484.5691382765531 L 191.98396793587173 483.2331329325317 L 192.5183700734803 480.9619238476954 Z" fill="none" stroke="#5da9e9" stroke-width="1.3360053440213762" stroke-linecap="round" stroke-linejoin="round" data-pcb-component-id="null" data-pcb-silkscreen-path-id="pcb_silkscreen_path_12" data-type="pcb_silkscreen_path" data-pcb-layer="bottom"/><path class="pcb-silkscreen pcb-silkscreen-bottom" d="M 610.4208416833667 456.3794255177021 L 587.0407481629927 456.3794255177021 L 587.0407481629927 479.7595190380762 L 610.4208416833667 479.7595190380762 L 610.4208416833667 456.3794255177021 Z" fill="none" stroke="#5da9e9" stroke-width="1.3360053440213762" stroke-linecap="round" stroke-linejoin="round" data-pcb-component-id="null" data-pcb-silkscreen-path-id="pcb_silkscreen_path_13" data-type="pcb_silkscreen_path" data-pcb-layer="bottom"/><path class="pcb-silkscreen pcb-silkscreen-bottom" d="M 598.6639946559786 468.13627254509015 L 575.2839011356045 468.13627254509015 L 575.2839011356045 491.51636606546424 L 598.6639946559786 491.51636606546424 L 598.6639946559786 468.13627254509015 Z" fill="none" stroke="#5da9e9" stroke-width="1.3360053440213762" stroke-linecap="round" stroke-linejoin="round" data-pcb-component-id="null" data-pcb-silkscreen-path-id="pcb_silkscreen_path_14" data-type="pcb_silkscreen_path" data-pcb-layer="bottom"/><path class="pcb-silkscreen pcb-silkscreen-bottom" d="M 587.0407481629927 479.7595190380762 L 563.6606546426185 479.7595190380762 L 563.6606546426185 503.13961255845027 L 587.0407481629927 503.13961255845027 L 587.0407481629927 479.7595190380762 Z" fill="none" stroke="#5da9e9" stroke-width="1.3360053440213762" stroke-linecap="round" stroke-linejoin="round" data-pcb-component-id="null" data-pcb-silkscreen-path-id="pcb_silkscreen_path_15" data-type="pcb_silkscreen_path" data-pcb-layer="bottom"/><path class="pcb-silkscreen pcb-silkscreen-bottom" d="M 598.6639946559786 468.13627254509015 L 587.0407481629927 479.7595190380762" fill="none" stroke="#5da9e9" stroke-width="1.3360053440213762" stroke-linecap="round" stroke-linejoin="round" data-pcb-component-id="null" data-pcb-silkscreen-path-id="pcb_silkscreen_path_16" data-type="pcb_silkscreen_path" data-pcb-layer="bottom"/><path class="pcb-silkscreen pcb-silkscreen-bottom" d="M 587.0407481629927 479.7595190380762 L 575.2839011356045 491.51636606546424" fill="none" stroke="#5da9e9" stroke-width="1.3360053440213762" stroke-linecap="round" stroke-linejoin="round" data-pcb-component-id="null" data-pcb-silkscreen-path-id="pcb_silkscreen_path_17" data-type="pcb_silkscreen_path" data-pcb-layer="bottom"/><text x="0" y="0" dx="0" dy="0" fill="#5da9e9" font-family="Arial, sans-serif" font-size="13.360053440213761" text-anchor="middle" dominant-baseline="central" transform="matrix(-1,0,0,1,587.0407481629927,446.35938543754173)" class="pcb-silkscreen-text pcb-silkscreen-bottom" data-pcb-silkscreen-text-id="null" stroke="none" data-type="pcb_silkscreen_text" data-pcb-layer="bottom">Telemetron</text><rect class="pcb-pad" fill="rgb(200, 52, 52)" x="304.4756179024716" y="249.2985971943888" width="33.4001336005344" height="33.4001336005344" data-type="pcb_smtpad" data-pcb-layer="top"/><rect class="pcb-pad" fill="rgb(200, 52, 52)" x="462.12424849699397" y="249.2985971943888" width="33.4001336005344" height="33.4001336005344" data-type="pcb_smtpad" data-pcb-layer="top"/><rect class="pcb-pad" fill="rgb(200, 52, 52)" x="371.9438877755511" y="193.18637274549098" width="16.03206412825651" height="12.024048096192386" data-type="pcb_smtpad" data-pcb-layer="top"/><rect class="pcb-pad" fill="rgb(200, 52, 52)" x="391.98396793587176" y="193.18637274549098" width="16.03206412825651" height="12.024048096192386" data-type="pcb_smtpad" data-pcb-layer="top"/><rect class="pcb-pad" fill="rgb(200, 52, 52)" x="412.0240480961924" y="193.18637274549098" width="16.03206412825651" height="12.024048096192386" data-type="pcb_smtpad" data-pcb-layer="top"/><rect class="pcb-pad" fill="rgb(200, 52, 52)" x="383.63393453573815" y="152.77221108884436" width="10.68804275217101" height="12.692050768203073" data-type="pcb_smtpad" data-pcb-layer="top"/><rect class="pcb-pad" fill="rgb(200, 52, 52)" x="405.67802271209086" y="152.77221108884436" width="10.68804275217101" height="12.692050768203073" data-type="pcb_smtpad" data-pcb-layer="top"/><path class="pcb-trace" stroke="rgb(200, 52, 52)" fill="none" d="M 383.03273213092854 372.8790915163661 L 383.03273213092854 360.4542418169673" stroke-width="2.004008016032064" stroke-linecap="round" stroke-linejoin="round" shape-rendering="crispEdges" data-type="pcb_trace" data-pcb-layer="top"/><path class="pcb-trace" stroke="rgb(200, 52, 52)" fill="none" d="M 383.03273213092854 360.4542418169673 L 393.1400666519119 350.3469072959839" stroke-width="2.004008016032064" stroke-linecap="round" stroke-linejoin="round" shape-rendering="crispEdges" data-type="pcb_trace" data-pcb-layer="top"/><path class="pcb-trace" stroke="rgb(200, 52, 52)" fill="none" d="M 393.1400666519119 350.3469072959839 L 394.6559786239145 348.8309953239813" stroke-width="2.004008016032064" stroke-linecap="round" stroke-linejoin="round" shape-rendering="crispEdges" data-type="pcb_trace" data-pcb-layer="top"/><path class="pcb-trace" stroke="rgb(200, 52, 52)" fill="none" d="M 394.6559786239145 348.8309953239813 L 394.6559786239145 348.8309953239813" stroke-width="2.004008016032064" stroke-linecap="round" stroke-linejoin="round" shape-rendering="crispEdges" data-type="pcb_trace" data-pcb-layer="top"/><path class="pcb-trace" stroke="rgb(200, 52, 52)" fill="none" d="M 400 172.4782899131596 L 400 172.4782899131596" stroke-width="2.004008016032064" stroke-linecap="round" stroke-linejoin="round" shape-rendering="crispEdges" data-type="pcb_trace" data-pcb-layer="top"/><path class="pcb-trace" stroke="rgb(200, 52, 52)" fill="none" d="M 400 172.4782899131596 L 400 170.1402805611222" stroke-width="2.004008016032064" stroke-linecap="round" stroke-linejoin="round" shape-rendering="crispEdges" data-type="pcb_trace" data-pcb-layer="top"/><path class="pcb-trace" stroke="rgb(200, 52, 52)" fill="none" d="M 400 170.1402805611222 L 411.02204408817636 159.11823647294588" stroke-width="2.004008016032064" stroke-linecap="round" stroke-linejoin="round" shape-rendering="crispEdges" data-type="pcb_trace" data-pcb-layer="top"/><path class="pcb-trace" stroke="rgb(200, 52, 52)" fill="none" d="M 388.97795591182364 159.11823647294588 L 388.97795591182364 188.17635270541084" stroke-width="2.004008016032064" stroke-linecap="round" stroke-linejoin="round" shape-rendering="crispEdges" data-type="pcb_trace" data-pcb-layer="top"/><path class="pcb-trace" stroke="rgb(200, 52, 52)" fill="none" d="M 388.97795591182364 188.17635270541084 L 400 199.19839679358716" stroke-width="2.004008016032064" stroke-linecap="round" stroke-linejoin="round" shape-rendering="crispEdges" data-type="pcb_trace" data-pcb-layer="top"/><path class="pcb-trace" stroke="rgb(200, 52, 52)" fill="none" d="M 416.96726786907146 372.8790915163661 L 416.96726786907146 327.8557114228457" stroke-width="2.004008016032064" stroke-linecap="round" stroke-linejoin="round" shape-rendering="crispEdges" data-type="pcb_trace" data-pcb-layer="top"/><path class="pcb-trace" stroke="rgb(200, 52, 52)" fill="none" d="M 416.96726786907146 327.8557114228457 L 478.8243152972612 265.998663994656" stroke-width="2.004008016032064" stroke-linecap="round" stroke-linejoin="round" shape-rendering="crispEdges" data-type="pcb_trace" data-pcb-layer="top"/><path class="pcb-trace" stroke="rgb(200, 52, 52)" fill="none" d="M 379.95991983967934 199.19839679358716 L 379.95991983967934 207.2144288577154" stroke-width="2.004008016032064" stroke-linecap="round" stroke-linejoin="round" shape-rendering="crispEdges" data-type="pcb_trace" data-pcb-layer="top"/><path class="pcb-trace" stroke="rgb(200, 52, 52)" fill="none" d="M 379.95991983967934 207.2144288577154 L 321.1756847027388 265.998663994656" stroke-width="2.004008016032064" stroke-linecap="round" stroke-linejoin="round" shape-rendering="crispEdges" data-type="pcb_trace" data-pcb-layer="top"/><path class="pcb-silkscreen pcb-silkscreen-top" d="M 321.1756847027388 292.71877087508346 L 321.1756847027388 239.27855711422845" fill="none" stroke="#f2eda1" stroke-width="1.3360053440213762" stroke-linecap="round" stroke-linejoin="round" data-pcb-component-id="pcb_component_0" data-pcb-silkscreen-path-id="pcb_silkscreen_path_0" data-type="pcb_silkscreen_path" data-pcb-layer="top"/><path class="pcb-silkscreen pcb-silkscreen-top" d="M 313.15965263861057 265.998663994656 L 329.1917167668671 265.998663994656" fill="none" stroke="#f2eda1" stroke-width="1.3360053440213762" stroke-linecap="round" stroke-linejoin="round" data-pcb-component-id="pcb_component_0" data-pcb-silkscreen-path-id="pcb_silkscreen_path_1" data-type="pcb_silkscreen_path" data-pcb-layer="top"/><text x="0" y="0" dx="0" dy="0" fill="#f2eda1" font-family="Arial, sans-serif" font-size="13.360053440213761" text-anchor="middle" dominant-baseline="central" transform="matrix(1,0,0,1,321.1756847027388,306.07882431529725)" class="pcb-silkscreen-text pcb-silkscreen-top" data-pcb-silkscreen-text-id="pcb_component_0" stroke="none" data-type="pcb_silkscreen_text" data-pcb-layer="top">+</text><text x="0" y="0" dx="0" dy="0" fill="#f2eda1" font-family="Arial, sans-serif" font-size="13.360053440213761" text-anchor="middle" dominant-baseline="central" transform="matrix(1,0,0,1,478.8243152972612,306.07882431529725)" class="pcb-silkscreen-text pcb-silkscreen-top" data-pcb-silkscreen-text-id="pcb_component_0" stroke="none" data-type="pcb_silkscreen_text" data-pcb-layer="top">-</text><path class="pcb-silkscreen pcb-silkscreen-top" d="M 366.5998663994656 219.23847695390782 L 433.4001336005344 219.23847695390782 L 433.4001336005344 179.1583166332665 L 366.5998663994656 179.1583166332665 L 366.5998663994656 219.23847695390782 Z" fill="none" stroke="#f2eda1" stroke-width="1.3360053440213762" stroke-linecap="round" stroke-linejoin="round" data-pcb-component-id="pcb_component_1" data-pcb-silkscreen-path-id="pcb_silkscreen_path_2" data-type="pcb_silkscreen_path" data-pcb-layer="top"/><path class="pcb-silkscreen pcb-silkscreen-top" d="M 411.02204408817636 147.42818971275884 L 380.9619238476954 147.42818971275884 L 380.9619238476954 170.80828323313293 L 411.02204408817636 170.80828323313293" fill="none" stroke="#f2eda1" stroke-width="1.3360053440213762" stroke-linecap="round" stroke-linejoin="round" data-pcb-component-id="pcb_component_2" data-pcb-silkscreen-path-id="pcb_silkscreen_path_3" data-type="pcb_silkscreen_path" data-pcb-layer="top"/><text x="0" y="0" dx="0" dy="0" fill="#f2eda1" font-family="Arial, sans-serif" font-size="5.344021376085505" text-anchor="middle" dominant-baseline="central" transform="matrix(1,0,0,1,400,140.74816299265197)" class="pcb-silkscreen-text pcb-silkscreen-top" data-pcb-silkscreen-text-id="pcb_component_2" stroke="none" data-type="pcb_silkscreen_text" data-pcb-layer="top">R1</text><path class="pcb-silkscreen pcb-silkscreen-top" d="M 447.0273881095524 372.8790915163661 L 440.74816299265194 349.36539746158985 L 423.51369405477624 332.1309285237141 L 400 325.8517034068136 L 376.48630594522376 332.1309285237141 L 359.25183700734806 349.36539746158985 L 352.9726118904476 372.8790915163661 L 359.25183700734806 396.39278557114227 L 376.48630594522376 413.62725450901803 L 400 419.9064796259185 L 423.51369405477624 413.62725450901803 L 440.74816299265194 396.39278557114227 L 447.0273881095524 372.8790915163661 Z" fill="none" stroke="#f2eda1" stroke-width="1.3360053440213762" stroke-linecap="round" stroke-linejoin="round" data-pcb-component-id="pcb_component_3" data-pcb-silkscreen-path-id="pcb_silkscreen_path_4" data-type="pcb_silkscreen_path" data-pcb-layer="top"/><path class="pcb-silkscreen pcb-silkscreen-top" d="M 433.80093520374083 404.80961923847696 L 433.80093520374083 340.94856379425516" fill="none" stroke="#f2eda1" stroke-width="1.3360053440213762" stroke-linecap="round" stroke-linejoin="round" data-pcb-component-id="pcb_component_3" data-pcb-silkscreen-path-id="pcb_silkscreen_path_5" data-type="pcb_silkscreen_path" data-pcb-layer="top"/><text x="0" y="0" dx="0" dy="0" fill="#f2eda1" font-family="Arial, sans-serif" font-size="10.68804275217101" text-anchor="middle" dominant-baseline="central" transform="matrix(1,0,0,1,383.03273213092854,399.59919839679355)" class="pcb-silkscreen-text pcb-silkscreen-top" data-pcb-silkscreen-text-id="pcb_component_3" stroke="none" data-type="pcb_silkscreen_text" data-pcb-layer="top">+</text><g data-type="pcb_plated_hole" data-pcb-layer="through"><circle class="pcb-hole-outer" fill="rgb(200, 52, 52)" cx="383.03273213092854" cy="372.8790915163661" r="12.024048096192386" data-type="pcb_plated_hole" data-pcb-layer="top"/><circle class="pcb-hole-inner" fill="#FF26E2" cx="383.03273213092854" cy="372.8790915163661" r="6.680026720106881" data-type="pcb_plated_hole_drill" data-pcb-layer="drill"/></g><g data-type="pcb_plated_hole" data-pcb-layer="through"><circle class="pcb-hole-outer" fill="rgb(200, 52, 52)" cx="416.96726786907146" cy="372.8790915163661" r="12.024048096192386" data-type="pcb_plated_hole" data-pcb-layer="top"/><circle class="pcb-hole-inner" fill="#FF26E2" cx="416.96726786907146" cy="372.8790915163661" r="6.680026720106881" data-type="pcb_plated_hole_drill" data-pcb-layer="drill"/></g><g data-type="pcb_via" data-pcb-layer="through"><circle class="pcb-hole-outer" fill="rgb(200, 52, 52)" cx="394.6559786239145" cy="348.8309953239813" r="2.004008016032064" data-type="pcb_via" data-pcb-layer="top"/><circle class="pcb-hole-inner" fill="#FF26E2" cx="394.6559786239145" cy="348.8309953239813" r="1.3360053440213762" data-type="pcb_via" data-pcb-layer="drill"/></g><g data-type="pcb_via" data-pcb-layer="through"><circle class="pcb-hole-outer" fill="rgb(200, 52, 52)" cx="400" cy="172.4782899131596" r="2.004008016032064" data-type="pcb_via" data-pcb-layer="top"/><circle class="pcb-hole-inner" fill="#FF26E2" cx="400" cy="172.4782899131596" r="1.3360053440213762" data-type="pcb_via" data-pcb-layer="drill"/></g><circle class="pcb-hole" cx="400" cy="546.559786239145" r="16.7000668002672" fill="#FF26E2" data-type="pcb_hole" data-pcb-layer="drill"/></svg>