<svg xmlns="http://www.w3.org/2000/svg" width="800" height="600" data-software-used-string="@tscircuit/core@0.0.1112"><style></style><rect class="boundary" x="0" y="0" fill="#000" width="800" height="600" data-type="pcb_background" data-pcb-layer="global"/><rect class="pcb-boundary" fill="none" stroke="#fff" stroke-width="0.3" x="86.04651162790697" y="13.953488372093034" width="627.9069767441861" height="572.0930232558139" data-type="pcb_boundary" data-pcb-layer="global"/><path class="pcb-board" d="M 400 586.046511627907 L 420.93023255813955 579.0697674418604 L 432.09302325581393 569.3023255813954 L 439.06976744186045 555.3488372093024 L 441.8604651162791 537.2093023255813 L 441.8604651162791 516.2790697674419 L 439.2093023255814 502.6046511627907 L 463.7674418604651 524.9302325581396 L 494.04651162790697 542.5116279069767 L 528.9302325581396 552.8372093023256 L 566.1860465116279 554.3720930232558 L 603.8604651162791 546.5581395348838 L 639.4418604651163 529.6744186046512 L 670 504.8372093023256 L 693.7209302325582 473.5813953488372 L 708.7906976744187 437.72093023255815 L 713.953488372093 399.34883720930236 L 708.7906976744187 360.13953488372096 L 693.7209302325582 321.34883720930236 L 670 283.6744186046512 L 639.4418604651163 247.53488372093025 L 603.8604651162791 213.06976744186048 L 566.1860465116279 179.8604651162791 L 528.9302325581396 147.90697674418607 L 494.04651162790697 117.2093023255814 L 463.7674418604651 88.04651162790697 L 439.2093023255814 60.69767441860466 L 421.2093023255814 36.41860465116281 L 409.2093023255814 20.93023255813955 L 405.5813953488372 16.74418604651163 L 402.7906976744186 14.651162790697697 L 400 13.953488372093034 L 397.2093023255814 14.651162790697697 L 394.4186046511628 16.74418604651163 L 390.7906976744186 20.93023255813955 L 378.7906976744186 36.41860465116281 L 360.7906976744186 60.69767441860466 L 336.2325581395349 88.04651162790697 L 305.95348837209303 117.2093023255814 L 271.06976744186045 147.90697674418607 L 233.81395348837208 179.8604651162791 L 196.13953488372093 213.06976744186048 L 160.5581395348837 247.53488372093025 L 130 283.6744186046512 L 106.27906976744185 321.34883720930236 L 91.2093023255814 360.13953488372096 L 86.04651162790697 399.34883720930236 L 91.2093023255814 437.72093023255815 L 106.27906976744185 473.5813953488372 L 130 504.8372093023256 L 160.5581395348837 529.6744186046512 L 196.13953488372093 546.5581395348838 L 233.81395348837208 554.3720930232558 L 271.06976744186045 552.8372093023256 L 305.95348837209303 542.5116279069767 L 336.2325581395349 524.9302325581396 L 360.7906976744186 502.6046511627907 L 358.1395348837209 516.2790697674419 L 358.1395348837209 537.2093023255813 L 360.93023255813955 555.3488372093024 L 367.90697674418607 569.3023255813954 L 379.06976744186045 579.0697674418604 Z" fill="none" stroke="rgba(255, 255, 255, 0.5)" stroke-width="1.3953488372093024" data-type="pcb_board" data-pcb-layer="board"/><path class="pcb-silkscreen pcb-silkscreen-bottom" d="M 472.9767441860465 419.58139534883725 L 483.72093023255815 445.95348837209303 L 473.3953488372093 445.95348837209303 L 468.2325581395349 431.3023255813954 L 463.06976744186045 445.95348837209303 L 453.16279069767444 445.95348837209303 L 463.90697674418607 419.58139534883725 L 472.9767441860465 419.58139534883725 Z" fill="none" stroke="#5da9e9" stroke-width="1.3953488372093024" stroke-linecap="round" stroke-linejoin="round" data-pcb-component-id="null" data-pcb-silkscreen-path-id="pcb_silkscreen_path_5" data-type="pcb_silkscreen_path" data-pcb-layer="bottom"/><path class="pcb-silkscreen pcb-silkscreen-bottom" d="M 441.72093023255815 419.58139534883725 L 451.3488372093023 419.58139534883725 L 451.3488372093023 445.95348837209303 L 441.72093023255815 445.95348837209303 L 441.72093023255815 419.58139534883725 Z" fill="none" stroke="#5da9e9" stroke-width="1.3953488372093024" stroke-linecap="round" stroke-linejoin="round" data-pcb-component-id="null" data-pcb-silkscreen-path-id="pcb_silkscreen_path_6" data-type="pcb_silkscreen_path" data-pcb-layer="bottom"/><path class="pcb-silkscreen pcb-silkscreen-bottom" d="M 414.93023255813955 445.95348837209303 L 414.93023255813955 439.95348837209303 L 426.2325581395349 427.25581395348837 L 414.7906976744186 427.25581395348837 L 414.7906976744186 419.58139534883725 L 439.06976744186045 419.58139534883725 L 439.06976744186045 425.72093023255815 L 427.7674418604651 438.2790697674419 L 438.37209302325584 438.2790697674419 L 438.37209302325584 445.95348837209303 L 414.93023255813955 445.95348837209303 Z" fill="none" stroke="#5da9e9" stroke-width="1.3953488372093024" stroke-linecap="round" stroke-linejoin="round" data-pcb-component-id="null" data-pcb-silkscreen-path-id="pcb_silkscreen_path_7" data-type="pcb_silkscreen_path" data-pcb-layer="bottom"/><path class="pcb-silkscreen pcb-silkscreen-bottom" d="M 413.95348837209303 432.8372093023256 L 413.6744186046512 435.6279069767442 L 412.9767441860465 438.4186046511628 L 411.72093023255815 440.79069767441865 L 409.90697674418607 442.74418604651163 L 407.8139534883721 444.4186046511628 L 405.4418604651163 445.6744186046512 L 402.6511627906977 446.51162790697674 L 399.5813953488372 446.7906976744186 L 397.2093023255814 446.51162790697674 L 394.83720930232556 445.95348837209303 L 393.4418604651163 445.3953488372093 L 393.4418604651163 436.6046511627907 L 395.1162790697674 437.4418604651163 L 396.93023255813955 438 L 398.1860465116279 438 L 400.5581395348837 437.72093023255815 L 402.3720930232558 436.6046511627907 L 403.6279069767442 434.93023255813955 L 404.1860465116279 432.8372093023256 L 403.6279069767442 430.60465116279073 L 402.51162790697674 428.93023255813955 L 400.5581395348837 427.81395348837214 L 398.1860465116279 427.5348837209302 L 396.93023255813955 427.5348837209302 L 395.1162790697674 428.09302325581393 L 393.4418604651163 429.06976744186045 L 393.4418604651163 420.2790697674419 L 395.8139534883721 419.3023255813954 L 398.1860465116279 418.8837209302326 L 399.72093023255815 418.8837209302326 L 402.6511627906977 419.0232558139535 L 405.4418604651163 419.8604651162791 L 407.8139534883721 420.9767441860465 L 409.90697674418607 422.6511627906977 L 411.5813953488372 424.6046511627907 L 412.83720930232556 426.9767441860465 L 413.6744186046512 429.7674418604651 L 413.95348837209303 432.8372093023256 Z" fill="none" stroke="#5da9e9" stroke-width="1.3953488372093024" stroke-linecap="round" stroke-linejoin="round" data-pcb-component-id="null" data-pcb-silkscreen-path-id="pcb_silkscreen_path_8" data-type="pcb_silkscreen_path" data-pcb-layer="bottom"/><path class="pcb-silkscreen pcb-silkscreen-bottom" d="M 376.83720930232556 446.7906976744186 L 373.90697674418607 446.51162790697674 L 371.1162790697674 445.6744186046512 L 368.6046511627907 444.4186046511628 L 366.37209302325584 442.74418604651163 L 364.5581395348837 440.6511627906977 L 363.30232558139534 438.2790697674419 L 362.4651162790698 435.6279069767442 L 362.1860465116279 432.8372093023256 L 362.4651162790698 429.90697674418607 L 363.30232558139534 427.25581395348837 L 364.5581395348837 424.8837209302326 L 366.37209302325584 422.79069767441865 L 368.6046511627907 421.1162790697675 L 371.1162790697674 419.8604651162791 L 373.90697674418607 419.0232558139535 L 376.83720930232556 418.8837209302326 L 379.90697674418607 419.0232558139535 L 382.69767441860466 419.8604651162791 L 385.2093023255814 421.1162790697675 L 387.4418604651163 422.79069767441865 L 389.25581395348837 424.8837209302326 L 390.51162790697674 427.25581395348837 L 391.3488372093023 429.90697674418607 L 391.6279069767442 432.8372093023256 L 391.3488372093023 435.6279069767442 L 390.51162790697674 438.2790697674419 L 389.25581395348837 440.6511627906977 L 387.4418604651163 442.74418604651163 L 385.2093023255814 444.4186046511628 L 382.69767441860466 445.6744186046512 L 379.90697674418607 446.51162790697674 L 376.83720930232556 446.7906976744186 Z" fill="none" stroke="#5da9e9" stroke-width="1.3953488372093024" stroke-linecap="round" stroke-linejoin="round" data-pcb-component-id="null" data-pcb-silkscreen-path-id="pcb_silkscreen_path_9" data-type="pcb_silkscreen_path" data-pcb-layer="bottom"/><path class="pcb-silkscreen pcb-silkscreen-bottom" d="M 376.83720930232556 438 L 378.93023255813955 437.5813953488372 L 380.6046511627907 436.4651162790698 L 381.72093023255815 434.79069767441865 L 382.13953488372096 432.8372093023256 L 381.72093023255815 430.74418604651163 L 380.6046511627907 429.06976744186045 L 378.93023255813955 427.95348837209303 L 376.83720930232556 427.5348837209302 L 374.8837209302326 427.95348837209303 L 373.2093023255814 429.06976744186045 L 372.09302325581393 430.74418604651163 L 371.6744186046512 432.8372093023256 L 372.09302325581393 434.79069767441865 L 373.2093023255814 436.4651162790698 L 374.8837209302326 437.5813953488372 L 376.83720930232556 438 Z" fill="none" stroke="#5da9e9" stroke-width="1.3953488372093024" stroke-linecap="round" stroke-linejoin="round" data-pcb-component-id="null" data-pcb-silkscreen-path-id="pcb_silkscreen_path_10" data-type="pcb_silkscreen_path" data-pcb-layer="bottom"/><path class="pcb-silkscreen pcb-silkscreen-bottom" d="M 350.74418604651163 433.81395348837214 L 350.74418604651163 419.4418604651163 L 360.51162790697674 419.4418604651163 L 360.51162790697674 445.95348837209303 L 350.74418604651163 445.95348837209303 L 350.74418604651163 442.8837209302326 L 348.6511627906977 444.9767441860465 L 345.8604651162791 446.37209302325584 L 343.48837209302326 446.6511627906977 L 340.9767441860465 446.37209302325584 L 338.04651162790697 444.9767441860465 L 335.95348837209303 442.4651162790698 L 333.4418604651163 445.1162790697675 L 330.09302325581393 446.51162790697674 L 327.72093023255815 446.6511627906977 L 323.6744186046512 445.95348837209303 L 320.74418604651163 443.8604651162791 L 319.06976744186045 440.79069767441865 L 318.37209302325584 436.4651162790698 L 318.37209302325584 419.4418604651163 L 328.1395348837209 419.4418604651163 L 328.1395348837209 433.95348837209303 L 328.69767441860466 436.1860465116279 L 329.95348837209303 437.5813953488372 L 331.34883720930236 437.8604651162791 L 332.6046511627907 437.5813953488372 L 334 436.1860465116279 L 334.5581395348837 433.81395348837214 L 334.5581395348837 419.4418604651163 L 344.3255813953488 419.4418604651163 L 344.3255813953488 433.95348837209303 L 344.74418604651163 436.1860465116279 L 346.13953488372096 437.5813953488372 L 347.3953488372093 437.8604651162791 L 348.7906976744186 437.5813953488372 L 350.1860465116279 436.1860465116279 L 350.74418604651163 433.81395348837214 Z" fill="none" stroke="#5da9e9" stroke-width="1.3953488372093024" stroke-linecap="round" stroke-linejoin="round" data-pcb-component-id="null" data-pcb-silkscreen-path-id="pcb_silkscreen_path_11" data-type="pcb_silkscreen_path" data-pcb-layer="bottom"/><rect class="pcb-pad" fill="rgb(200, 52, 52)" x="300.23255813953483" y="233.72093023255815" width="34.883720930232556" height="34.883720930232556" data-type="pcb_smtpad" data-pcb-layer="top"/><rect class="pcb-pad" fill="rgb(200, 52, 52)" x="464.8837209302326" y="233.72093023255815" width="34.883720930232556" height="34.883720930232556" data-type="pcb_smtpad" data-pcb-layer="top"/><rect class="pcb-pad" fill="rgb(200, 52, 52)" x="231.1627906976744" y="426.27906976744185" width="16.744186046511626" height="12.558139534883722" data-type="pcb_smtpad" data-pcb-layer="top"/><rect class="pcb-pad" fill="rgb(200, 52, 52)" x="252.09302325581396" y="426.27906976744185" width="16.744186046511626" height="12.558139534883722" data-type="pcb_smtpad" data-pcb-layer="top"/><rect class="pcb-pad" fill="rgb(200, 52, 52)" x="273.02325581395354" y="426.27906976744185" width="16.744186046511626" height="12.558139534883722" data-type="pcb_smtpad" data-pcb-layer="top"/><rect class="pcb-pad" fill="rgb(200, 52, 52)" x="285.2325581395349" y="384.06976744186045" width="11.162790697674419" height="13.25581395348837" data-type="pcb_smtpad" data-pcb-layer="top"/><rect class="pcb-pad" fill="rgb(200, 52, 52)" x="308.2558139534884" y="384.06976744186045" width="11.162790697674419" height="13.25581395348837" data-type="pcb_smtpad" data-pcb-layer="top"/><path class="pcb-trace" stroke="rgb(200, 52, 52)" fill="none" d="M 382.27906976744185 390.69767441860466 L 313.8372093023256 390.69767441860466" stroke-width="2.093023255813953" stroke-linecap="round" stroke-linejoin="round" shape-rendering="crispEdges" data-type="pcb_trace" data-pcb-layer="top"/><path class="pcb-trace" stroke="rgb(200, 52, 52)" fill="none" d="M 313.8372093023256 390.69767441860466 L 313.8372093023256 390.69767441860466" stroke-width="2.093023255813953" stroke-linecap="round" stroke-linejoin="round" shape-rendering="crispEdges" data-type="pcb_trace" data-pcb-layer="top"/><path class="pcb-trace" stroke="rgb(200, 52, 52)" fill="none" d="M 290.8139534883721 390.69767441860466 L 290.8139534883721 402.2093023255814" stroke-width="2.093023255813953" stroke-linecap="round" stroke-linejoin="round" shape-rendering="crispEdges" data-type="pcb_trace" data-pcb-layer="top"/><path class="pcb-trace" stroke="rgb(200, 52, 52)" fill="none" d="M 290.8139534883721 402.2093023255814 L 260.4651162790698 432.5581395348837" stroke-width="2.093023255813953" stroke-linecap="round" stroke-linejoin="round" shape-rendering="crispEdges" data-type="pcb_trace" data-pcb-layer="top"/><path class="pcb-trace" stroke="rgb(200, 52, 52)" fill="none" d="M 417.72093023255815 390.69767441860466 L 417.72093023255815 315.76744186046517" stroke-width="2.093023255813953" stroke-linecap="round" stroke-linejoin="round" shape-rendering="crispEdges" data-type="pcb_trace" data-pcb-layer="top"/><path class="pcb-trace" stroke="rgb(200, 52, 52)" fill="none" d="M 417.72093023255815 315.76744186046517 L 482.3255813953489 251.16279069767444" stroke-width="2.093023255813953" stroke-linecap="round" stroke-linejoin="round" shape-rendering="crispEdges" data-type="pcb_trace" data-pcb-layer="top"/><path class="pcb-trace" stroke="rgb(200, 52, 52)" fill="none" d="M 239.53488372093022 432.5581395348837 L 239.53488372093022 329.30232558139534" stroke-width="2.093023255813953" stroke-linecap="round" stroke-linejoin="round" shape-rendering="crispEdges" data-type="pcb_trace" data-pcb-layer="top"/><path class="pcb-trace" stroke="rgb(200, 52, 52)" fill="none" d="M 239.53488372093022 329.30232558139534 L 317.6744186046511 251.16279069767444" stroke-width="2.093023255813953" stroke-linecap="round" stroke-linejoin="round" shape-rendering="crispEdges" data-type="pcb_trace" data-pcb-layer="top"/><path class="pcb-silkscreen pcb-silkscreen-top" d="M 317.6744186046511 279.06976744186045 L 317.6744186046511 223.25581395348837" fill="none" stroke="#f2eda1" stroke-width="1.3953488372093024" stroke-linecap="round" stroke-linejoin="round" data-pcb-component-id="pcb_component_0" data-pcb-silkscreen-path-id="pcb_silkscreen_path_0" data-type="pcb_silkscreen_path" data-pcb-layer="top"/><path class="pcb-silkscreen pcb-silkscreen-top" d="M 309.30232558139534 251.16279069767444 L 326.04651162790697 251.16279069767444" fill="none" stroke="#f2eda1" stroke-width="1.3953488372093024" stroke-linecap="round" stroke-linejoin="round" data-pcb-component-id="pcb_component_0" data-pcb-silkscreen-path-id="pcb_silkscreen_path_1" data-type="pcb_silkscreen_path" data-pcb-layer="top"/><text x="0" y="0" dx="0" dy="0" fill="#f2eda1" font-family="Arial, sans-serif" font-size="13.953488372093023" text-anchor="middle" dominant-baseline="central" transform="matrix(1,0,0,1,317.6744186046511,293.0232558139535)" class="pcb-silkscreen-text pcb-silkscreen-top" data-pcb-silkscreen-text-id="pcb_component_0" stroke="none" data-type="pcb_silkscreen_text" data-pcb-layer="top">+</text><text x="0" y="0" dx="0" dy="0" fill="#f2eda1" font-family="Arial, sans-serif" font-size="13.953488372093023" text-anchor="middle" dominant-baseline="central" transform="matrix(1,0,0,1,482.3255813953489,293.0232558139535)" class="pcb-silkscreen-text pcb-silkscreen-top" data-pcb-silkscreen-text-id="pcb_component_0" stroke="none" data-type="pcb_silkscreen_text" data-pcb-layer="top">-</text><path class="pcb-silkscreen pcb-silkscreen-top" d="M 225.58139534883722 453.48837209302326 L 295.34883720930236 453.48837209302326 L 295.34883720930236 411.6279069767442 L 225.58139534883722 411.6279069767442 L 225.58139534883722 453.48837209302326 Z" fill="none" stroke="#f2eda1" stroke-width="1.3953488372093024" stroke-linecap="round" stroke-linejoin="round" data-pcb-component-id="pcb_component_1" data-pcb-silkscreen-path-id="pcb_silkscreen_path_2" data-type="pcb_silkscreen_path" data-pcb-layer="top"/><path class="pcb-silkscreen pcb-silkscreen-top" d="M 313.8372093023256 378.48837209302326 L 282.4418604651163 378.48837209302326 L 282.4418604651163 402.90697674418607 L 313.8372093023256 402.90697674418607" fill="none" stroke="#f2eda1" stroke-width="1.3953488372093024" stroke-linecap="round" stroke-linejoin="round" data-pcb-component-id="pcb_component_2" data-pcb-silkscreen-path-id="pcb_silkscreen_path_3" data-type="pcb_silkscreen_path" data-pcb-layer="top"/><text x="0" y="0" dx="0" dy="0" fill="#f2eda1" font-family="Arial, sans-serif" font-size="5.5813953488372094" text-anchor="middle" dominant-baseline="central" transform="matrix(1,0,0,1,302.3255813953488,371.51162790697674)" class="pcb-silkscreen-text pcb-silkscreen-top" data-pcb-silkscreen-text-id="pcb_component_2" stroke="none" data-type="pcb_silkscreen_text" data-pcb-layer="top">R1</text><path class="pcb-silkscreen pcb-silkscreen-top" d="M 365.1162790697674 411.6279069767442 L 434.8837209302326 411.6279069767442 L 434.8837209302326 369.7674418604651 L 365.1162790697674 369.7674418604651 L 365.1162790697674 411.6279069767442 Z" fill="none" stroke="#f2eda1" stroke-width="1.3953488372093024" stroke-linecap="round" stroke-linejoin="round" data-pcb-component-id="pcb_component_3" data-pcb-silkscreen-path-id="pcb_silkscreen_path_4" data-type="pcb_silkscreen_path" data-pcb-layer="top"/><text x="0" y="0" dx="0" dy="0" fill="#f2eda1" font-family="Arial, sans-serif" font-size="11.162790697674419" text-anchor="middle" dominant-baseline="central" transform="matrix(1,0,0,1,382.27906976744185,421.3953488372093)" class="pcb-silkscreen-text pcb-silkscreen-top" data-pcb-silkscreen-text-id="pcb_component_3" stroke="none" data-type="pcb_silkscreen_text" data-pcb-layer="top">+</text><text x="0" y="0" dx="0" dy="0" fill="#f2eda1" font-family="Arial, sans-serif" font-size="11.162790697674419" text-anchor="middle" dominant-baseline="central" transform="matrix(1,0,0,1,400,360)" class="pcb-silkscreen-text pcb-silkscreen-top" data-pcb-silkscreen-text-id="pcb_component_3" stroke="none" data-type="pcb_silkscreen_text" data-pcb-layer="top">LED</text><g data-type="pcb_plated_hole" data-pcb-layer="through"><circle class="pcb-hole-outer" fill="rgb(200, 52, 52)" cx="382.27906976744185" cy="390.69767441860466" r="12.558139534883722" data-type="pcb_plated_hole" data-pcb-layer="top"/><circle class="pcb-hole-inner" fill="#FF26E2" cx="382.27906976744185" cy="390.69767441860466" r="6.976744186046512" data-type="pcb_plated_hole_drill" data-pcb-layer="drill"/></g><g data-type="pcb_plated_hole" data-pcb-layer="through"><circle class="pcb-hole-outer" fill="rgb(200, 52, 52)" cx="417.72093023255815" cy="390.69767441860466" r="12.558139534883722" data-type="pcb_plated_hole" data-pcb-layer="top"/><circle class="pcb-hole-inner" fill="#FF26E2" cx="417.72093023255815" cy="390.69767441860466" r="6.976744186046512" data-type="pcb_plated_hole_drill" data-pcb-layer="drill"/></g><circle class="pcb-hole" cx="400" cy="544.1860465116279" r="17.441860465116278" fill="#FF26E2" data-type="pcb_hole" data-pcb-layer="drill"/></svg>