<svg xmlns="http://www.w3.org/2000/svg" width="800" height="600" data-software-used-string="@tscircuit/core@0.0.1112"><style></style><rect class="boundary" x="0" y="0" fill="#000" width="800" height="600" data-type="pcb_background" data-pcb-layer="global"/><rect class="pcb-boundary" fill="none" stroke="#fff" stroke-width="0.3" x="70.73170731707313" y="14.634146341463406" width="658.5365853658536" height="570.7317073170732" data-type="pcb_boundary" data-pcb-layer="global"/><path class="pcb-board" d="M 400 585.3658536585366 L 421.9512195121951 578.0487804878048 L 433.6585365853658 567.8048780487804 L 440.9756097560976 553.1707317073171 L 443.9024390243902 534.1463414634146 L 443.9024390243902 512.1951219512196 L 441.1219512195122 497.8536585365854 L 466.8780487804878 521.2682926829268 L 498.6341463414634 539.7073170731708 L 535.219512195122 550.5365853658536 L 574.2926829268292 552.1463414634146 L 613.8048780487804 543.9512195121952 L 651.1219512195122 526.2439024390244 L 683.1707317073171 500.1951219512195 L 708.0487804878048 467.4146341463414 L 723.8536585365854 429.8048780487805 L 729.2682926829268 389.5609756097561 L 723.8536585365854 348.4390243902439 L 708.0487804878048 307.7560975609756 L 683.1707317073171 268.2439024390244 L 651.1219512195122 230.34146341463415 L 613.8048780487804 194.1951219512195 L 574.2926829268292 159.3658536585366 L 535.219512195122 125.85365853658536 L 498.6341463414634 93.65853658536585 L 466.8780487804878 63.07317073170728 L 441.1219512195122 34.39024390243901 L 426.3414634146342 21.95121951219511 L 417.5609756097561 17.5609756097561 L 408.780487804878 15.365853658536594 L 400 14.634146341463406 L 391.219512195122 15.365853658536594 L 382.4390243902439 17.5609756097561 L 373.6585365853658 21.95121951219511 L 358.8780487804878 34.39024390243901 L 333.1219512195122 63.07317073170728 L 301.3658536585366 93.65853658536585 L 264.780487804878 125.85365853658536 L 225.7073170731707 159.3658536585366 L 186.1951219512195 194.1951219512195 L 148.8780487804878 230.34146341463415 L 116.82926829268291 268.2439024390244 L 91.95121951219511 307.7560975609756 L 76.14634146341461 348.4390243902439 L 70.73170731707313 389.5609756097561 L 76.14634146341461 429.8048780487805 L 91.95121951219511 467.4146341463414 L 116.82926829268291 500.1951219512195 L 148.8780487804878 526.2439024390244 L 186.1951219512195 543.9512195121952 L 225.7073170731707 552.1463414634146 L 264.780487804878 550.5365853658536 L 301.3658536585366 539.7073170731708 L 333.1219512195122 521.2682926829268 L 358.8780487804878 497.8536585365854 L 356.0975609756098 512.1951219512196 L 356.0975609756098 534.1463414634146 L 359.0243902439024 553.1707317073171 L 366.3414634146342 567.8048780487804 L 378.0487804878049 578.0487804878048 Z" fill="none" stroke="rgba(255, 255, 255, 0.5)" stroke-width="1.4634146341463417" data-type="pcb_board" data-pcb-layer="board"/><path class="pcb-trace" stroke="rgb(77, 127, 196)" fill="none" d="M 546.3414634146341 406.82926829268297 L 546.3414634146341 406.82926829268297" stroke-width="2.1951219512195124" stroke-linecap="round" stroke-linejoin="round" shape-rendering="crispEdges" data-type="pcb_trace" data-pcb-layer="bottom"/><path class="pcb-trace" stroke="rgb(77, 127, 196)" fill="none" d="M 546.3414634146341 406.82926829268297 L 568.2792813220209 406.82926829268297" stroke-width="2.1951219512195124" stroke-linecap="round" stroke-linejoin="round" shape-rendering="crispEdges" data-type="pcb_trace" data-pcb-layer="bottom"/><path class="pcb-trace" stroke="rgb(77, 127, 196)" fill="none" d="M 568.2792813220209 406.82926829268297 L 568.2792813220209 406.82926829268297" stroke-width="2.1951219512195124" stroke-linecap="round" stroke-linejoin="round" shape-rendering="crispEdges" data-type="pcb_trace" data-pcb-layer="bottom"/><path class="pcb-trace" stroke="rgb(77, 127, 196)" fill="none" d="M 568.2792813220209 406.82926829268297 L 569.7560975609756 406.82926829268297" stroke-width="2.1951219512195124" stroke-linecap="round" stroke-linejoin="round" shape-rendering="crispEdges" data-type="pcb_trace" data-pcb-layer="bottom"/><path class="pcb-trace" stroke="rgb(77, 127, 196)" fill="none" d="M 569.7560975609756 406.82926829268297 L 569.7560975609756 406.82926829268297" stroke-width="2.1951219512195124" stroke-linecap="round" stroke-linejoin="round" shape-rendering="crispEdges" data-type="pcb_trace" data-pcb-layer="bottom"/><path class="pcb-trace" stroke="rgb(77, 127, 196)" fill="none" d="M 429.2682926829268 430.2439024390244 L 429.2682926829268 430.2439024390244" stroke-width="2.1951219512195124" stroke-linecap="round" stroke-linejoin="round" shape-rendering="crispEdges" data-type="pcb_trace" data-pcb-layer="bottom"/><path class="pcb-trace" stroke="rgb(77, 127, 196)" fill="none" d="M 429.2682926829268 430.2439024390244 L 460.6383447461239 430.2439024390244" stroke-width="2.1951219512195124" stroke-linecap="round" stroke-linejoin="round" shape-rendering="crispEdges" data-type="pcb_trace" data-pcb-layer="bottom"/><path class="pcb-trace" stroke="rgb(77, 127, 196)" fill="none" d="M 460.6383447461239 430.2439024390244 L 557.4479730724804 333.4342741126678" stroke-width="2.1951219512195124" stroke-linecap="round" stroke-linejoin="round" shape-rendering="crispEdges" data-type="pcb_trace" data-pcb-layer="bottom"/><path class="pcb-trace" stroke="rgb(77, 127, 196)" fill="none" d="M 557.4479730724804 333.4342741126678 L 559.5853658536586 334.9390243902439" stroke-width="2.1951219512195124" stroke-linecap="round" stroke-linejoin="round" shape-rendering="crispEdges" data-type="pcb_trace" data-pcb-layer="bottom"/><path class="pcb-trace" stroke="rgb(77, 127, 196)" fill="none" d="M 559.5853658536586 334.9390243902439 L 559.5853658536586 334.9390243902439" stroke-width="2.1951219512195124" stroke-linecap="round" stroke-linejoin="round" shape-rendering="crispEdges" data-type="pcb_trace" data-pcb-layer="bottom"/><path class="pcb-silkscreen pcb-silkscreen-bottom" d="M 425.609756097561 135.36585365853657 L 400 135.36585365853657 L 400 160.97560975609755 L 425.609756097561 160.97560975609755 L 425.609756097561 135.36585365853657 Z" fill="none" stroke="#5da9e9" stroke-width="1.4634146341463417" stroke-linecap="round" stroke-linejoin="round" data-pcb-component-id="null" data-pcb-silkscreen-path-id="pcb_silkscreen_path_5" data-type="pcb_silkscreen_path" data-pcb-layer="bottom"/><path class="pcb-silkscreen pcb-silkscreen-bottom" d="M 412.7317073170732 148.2439024390244 L 387.1219512195122 148.2439024390244 L 387.1219512195122 173.85365853658536 L 412.7317073170732 173.85365853658536 L 412.7317073170732 148.2439024390244 Z" fill="none" stroke="#5da9e9" stroke-width="1.4634146341463417" stroke-linecap="round" stroke-linejoin="round" data-pcb-component-id="null" data-pcb-silkscreen-path-id="pcb_silkscreen_path_6" data-type="pcb_silkscreen_path" data-pcb-layer="bottom"/><path class="pcb-silkscreen pcb-silkscreen-bottom" d="M 400 160.97560975609755 L 374.390243902439 160.97560975609755 L 374.390243902439 186.58536585365852 L 400 186.58536585365852 L 400 160.97560975609755 Z" fill="none" stroke="#5da9e9" stroke-width="1.4634146341463417" stroke-linecap="round" stroke-linejoin="round" data-pcb-component-id="null" data-pcb-silkscreen-path-id="pcb_silkscreen_path_7" data-type="pcb_silkscreen_path" data-pcb-layer="bottom"/><path class="pcb-silkscreen pcb-silkscreen-bottom" d="M 412.7317073170732 148.2439024390244 L 400 160.97560975609755" fill="none" stroke="#5da9e9" stroke-width="1.4634146341463417" stroke-linecap="round" stroke-linejoin="round" data-pcb-component-id="null" data-pcb-silkscreen-path-id="pcb_silkscreen_path_8" data-type="pcb_silkscreen_path" data-pcb-layer="bottom"/><path class="pcb-silkscreen pcb-silkscreen-bottom" d="M 400 160.97560975609755 L 387.1219512195122 173.85365853658536" fill="none" stroke="#5da9e9" stroke-width="1.4634146341463417" stroke-linecap="round" stroke-linejoin="round" data-pcb-component-id="null" data-pcb-silkscreen-path-id="pcb_silkscreen_path_9" data-type="pcb_silkscreen_path" data-pcb-layer="bottom"/><path class="pcb-silkscreen pcb-silkscreen-bottom" d="M 438.1951219512195 110.6341463414634 L 439.8048780487805 110.6341463414634 L 439.8048780487805 122.1951219512195 L 443.9024390243902 122.1951219512195 L 443.9024390243902 123.65853658536582 L 433.9512195121951 123.65853658536582 L 433.9512195121951 122.1951219512195 L 438.1951219512195 122.1951219512195 L 438.1951219512195 110.6341463414634 Z" fill="none" stroke="#5da9e9" stroke-width="1.4634146341463417" stroke-linecap="round" stroke-linejoin="round" data-pcb-component-id="null" data-pcb-silkscreen-path-id="pcb_silkscreen_path_10" data-type="pcb_silkscreen_path" data-pcb-layer="bottom"/><path class="pcb-silkscreen pcb-silkscreen-bottom" d="M 428.6829268292683 110.48780487804879 L 429.2682926829268 110.48780487804879 L 429.8536585365854 110.6341463414634 L 430.4390243902439 110.78048780487805 L 430.8780487804878 111.07317073170731 L 431.4634146341463 111.36585365853657 L 431.7560975609756 111.8048780487805 L 432.1951219512195 112.24390243902437 L 432.4878048780488 112.68292682926827 L 432.6341463414634 113.26829268292681 L 432.7804878048781 113.85365853658536 L 432.9268292682927 114.58536585365852 L 432.9268292682927 115.3170731707317 L 432.9268292682927 116.04878048780486 L 432.7804878048781 116.6341463414634 L 432.6341463414634 117.36585365853657 L 432.4878048780488 117.95121951219511 L 432.1951219512195 118.39024390243901 L 431.7560975609756 118.82926829268291 L 431.4634146341463 119.26829268292681 L 431.0243902439024 119.5609756097561 L 430.4390243902439 119.85365853658536 L 429.8536585365854 120.14634146341464 L 429.2682926829268 120.14634146341464 L 428.6829268292683 120.29268292682926 L 428.0975609756098 120.14634146341464 L 427.5121951219512 120.14634146341464 L 426.9268292682927 119.85365853658536 L 426.4878048780488 119.70731707317071 L 426.0487804878049 119.26829268292681 L 425.609756097561 118.97560975609755 L 425.3170731707317 118.53658536585365 L 425.0243902439024 117.95121951219511 L 424.8780487804878 117.36585365853657 L 424.7317073170732 116.78048780487805 L 424.5853658536585 116.1951219512195 L 424.5853658536585 115.46341463414635 L 424.5853658536585 114.8780487804878 L 432.1951219512195 114.8780487804878 L 432.1951219512195 116.1951219512195 L 425.3170731707317 116.1951219512195 L 426.1951219512195 115.60975609756096 L 426.1951219512195 116.1951219512195 L 426.3414634146342 117.07317073170731 L 426.6341463414634 117.8048780487805 L 427.0731707317073 118.24390243902437 L 427.6585365853658 118.68292682926827 L 428.390243902439 118.82926829268291 L 428.6829268292683 118.82926829268291 L 429.1219512195122 118.82926829268291 L 429.7073170731707 118.68292682926827 L 430.1463414634146 118.53658536585365 L 430.5853658536585 117.95121951219511 L 431.0243902439024 117.36585365853657 L 431.3170731707317 116.6341463414634 L 431.3170731707317 115.60975609756096 L 431.3170731707317 114.58536585365852 L 431.1707317073171 113.70731707317071 L 430.8780487804878 112.97560975609755 L 430.5853658536585 112.68292682926827 L 430 112.24390243902437 L 429.4146341463415 111.95121951219511 L 428.5365853658537 111.8048780487805 L 427.9512195121951 111.8048780487805 L 427.5121951219512 111.95121951219511 L 427.0731707317073 112.24390243902437 L 426.780487804878 112.53658536585365 L 426.4878048780488 112.82926829268294 L 426.1951219512195 113.26829268292681 L 424.7317073170732 113.26829268292681 L 424.8780487804878 112.68292682926827 L 425.1707317073171 112.09756097560975 L 425.4634146341463 111.65853658536585 L 426.0487804878049 111.21951219512192 L 426.4878048780488 110.92682926829266 L 427.219512195122 110.6341463414634 L 427.8048780487805 110.48780487804879 L 428.6829268292683 110.48780487804879 Z" fill="none" stroke="#5da9e9" stroke-width="1.4634146341463417" stroke-linecap="round" stroke-linejoin="round" data-pcb-component-id="null" data-pcb-silkscreen-path-id="pcb_silkscreen_path_11" data-type="pcb_silkscreen_path" data-pcb-layer="bottom"/><path class="pcb-silkscreen pcb-silkscreen-bottom" d="M 421.3658536585366 110.6341463414634 L 422.8292682926829 110.6341463414634 L 422.8292682926829 123.65853658536582 L 421.3658536585366 123.65853658536582 L 421.3658536585366 110.6341463414634 Z" fill="none" stroke="#5da9e9" stroke-width="1.4634146341463417" stroke-linecap="round" stroke-linejoin="round" data-pcb-component-id="null" data-pcb-silkscreen-path-id="pcb_silkscreen_path_12" data-type="pcb_silkscreen_path" data-pcb-layer="bottom"/><path class="pcb-silkscreen pcb-silkscreen-bottom" d="M 415.219512195122 110.48780487804879 L 415.9512195121951 110.48780487804879 L 416.5365853658537 110.6341463414634 L 417.1219512195122 110.78048780487805 L 417.5609756097561 111.07317073170731 L 418 111.36585365853657 L 418.4390243902439 111.8048780487805 L 418.8780487804878 112.24390243902437 L 419.1707317073171 112.68292682926827 L 419.3170731707317 113.26829268292681 L 419.4634146341463 113.85365853658536 L 419.609756097561 114.58536585365852 L 419.609756097561 115.3170731707317 L 419.609756097561 116.04878048780486 L 419.4634146341463 116.6341463414634 L 419.3170731707317 117.36585365853657 L 419.1707317073171 117.95121951219511 L 418.8780487804878 118.39024390243901 L 418.4390243902439 118.82926829268291 L 418.1463414634146 119.26829268292681 L 417.5609756097561 119.5609756097561 L 417.1219512195122 119.85365853658536 L 416.5365853658537 120.14634146341464 L 415.9512195121951 120.14634146341464 L 415.3658536585366 120.29268292682926 L 414.780487804878 120.14634146341464 L 414.1951219512195 120.14634146341464 L 413.609756097561 119.85365853658536 L 413.1707317073171 119.70731707317071 L 412.7317073170732 119.26829268292681 L 412.2926829268293 118.97560975609755 L 412 118.53658536585365 L 411.7073170731707 117.95121951219511 L 411.5609756097561 117.36585365853657 L 411.4146341463415 116.78048780487805 L 411.2682926829268 116.1951219512195 L 411.2682926829268 115.46341463414635 L 411.2682926829268 114.8780487804878 L 418.8780487804878 114.8780487804878 L 418.8780487804878 116.1951219512195 L 412 116.1951219512195 L 412.7317073170732 115.60975609756096 L 412.8780487804878 116.1951219512195 L 413.0243902439024 117.07317073170731 L 413.3170731707317 117.8048780487805 L 413.7560975609756 118.24390243902437 L 414.3414634146341 118.68292682926827 L 415.0731707317073 118.82926829268291 L 415.3658536585366 118.82926829268291 L 415.8048780487805 118.82926829268291 L 416.390243902439 118.68292682926827 L 416.9756097560976 118.24390243902437 L 417.5609756097561 117.65853658536582 L 417.8536585365854 117.07317073170731 L 418 116.04878048780486 L 418 115.60975609756096 L 418 114.58536585365852 L 417.8536585365854 113.70731707317071 L 417.5609756097561 112.97560975609755 L 417.2682926829268 112.68292682926827 L 416.6829268292683 112.24390243902437 L 416.0975609756098 111.95121951219511 L 415.219512195122 111.8048780487805 L 414.6341463414634 111.8048780487805 L 414.1951219512195 111.95121951219511 L 413.7560975609756 112.24390243902437 L 413.3170731707317 112.53658536585365 L 413.1707317073171 112.82926829268294 L 412.8780487804878 113.26829268292681 L 411.2682926829268 113.26829268292681 L 411.5609756097561 112.68292682926827 L 411.8536585365854 112.09756097560975 L 412.1463414634146 111.65853658536585 L 412.5853658536585 111.21951219512192 L 413.1707317073171 110.92682926829266 L 413.9024390243902 110.6341463414634 L 414.4878048780488 110.48780487804879 L 415.219512195122 110.48780487804879 Z" fill="none" stroke="#5da9e9" stroke-width="1.4634146341463417" stroke-linecap="round" stroke-linejoin="round" data-pcb-component-id="null" data-pcb-silkscreen-path-id="pcb_silkscreen_path_13" data-type="pcb_silkscreen_path" data-pcb-layer="bottom"/><path class="pcb-silkscreen pcb-silkscreen-bottom" d="M 408.0487804878049 110.6341463414634 L 409.6585365853659 110.6341463414634 L 409.6585365853659 119.99999999999997 L 408.0487804878049 119.99999999999997 L 408.0487804878049 118.68292682926827 L 407.9024390243902 118.97560975609755 L 407.609756097561 119.26829268292681 L 407.3170731707317 119.5609756097561 L 407.0243902439024 119.85365853658536 L 406.5853658536585 119.99999999999997 L 406.2926829268293 120.14634146341464 L 405.8536585365854 120.14634146341464 L 405.4146341463415 120.29268292682926 L 405.1219512195122 120.29268292682926 L 404.8292682926829 120.14634146341464 L 404.2439024390244 119.99999999999997 L 403.8048780487805 119.70731707317071 L 403.5121951219512 119.5609756097561 L 403.219512195122 119.26829268292681 L 402.9268292682927 118.68292682926827 L 402.780487804878 118.39024390243901 L 402.6341463414634 118.68292682926827 L 402.1951219512195 119.1219512195122 L 401.7560975609756 119.5609756097561 L 401.3170731707317 119.85365853658536 L 400.7317073170732 120.14634146341464 L 400.1463414634146 120.29268292682926 L 399.7073170731707 120.29268292682926 L 399.2682926829268 120.14634146341464 L 398.5365853658537 119.99999999999997 L 397.8048780487805 119.70731707317071 L 397.219512195122 119.1219512195122 L 396.9268292682927 118.39024390243901 L 396.6341463414634 117.65853658536582 L 396.6341463414634 117.07317073170731 L 396.6341463414634 110.6341463414634 L 398.2439024390244 110.6341463414634 L 398.2439024390244 116.78048780487805 L 398.390243902439 117.36585365853657 L 398.5365853658537 117.95121951219511 L 398.8292682926829 118.24390243902437 L 399.1219512195122 118.53658536585365 L 399.7073170731707 118.82926829268291 L 400.2926829268293 118.82926829268291 L 400.8780487804878 118.82926829268291 L 401.3170731707317 118.53658536585365 L 401.7560975609756 118.24390243902437 L 402.0487804878049 117.8048780487805 L 402.3414634146341 117.21951219512195 L 402.3414634146341 116.6341463414634 L 402.3414634146341 110.6341463414634 L 403.9512195121951 110.6341463414634 L 403.9512195121951 116.92682926829266 L 404.0975609756098 117.65853658536582 L 404.390243902439 118.09756097560975 L 404.6829268292683 118.53658536585365 L 405.1219512195122 118.68292682926827 L 405.5609756097561 118.82926829268291 L 405.8536585365854 118.82926829268291 L 406.4390243902439 118.82926829268291 L 407.0243902439024 118.53658536585365 L 407.4634146341463 118.24390243902437 L 407.7560975609756 117.65853658536582 L 408.0487804878049 117.21951219512195 L 408.0487804878049 116.48780487804879 L 408.0487804878049 110.6341463414634 Z" fill="none" stroke="#5da9e9" stroke-width="1.4634146341463417" stroke-linecap="round" stroke-linejoin="round" data-pcb-component-id="null" data-pcb-silkscreen-path-id="pcb_silkscreen_path_14" data-type="pcb_silkscreen_path" data-pcb-layer="bottom"/><path class="pcb-silkscreen pcb-silkscreen-bottom" d="M 390.780487804878 110.48780487804879 L 391.3658536585366 110.48780487804879 L 392.0975609756098 110.6341463414634 L 392.5365853658537 110.78048780487805 L 393.1219512195122 111.07317073170731 L 393.5609756097561 111.36585365853657 L 394 111.8048780487805 L 394.2926829268293 112.24390243902437 L 394.5853658536585 112.68292682926827 L 394.8780487804878 113.26829268292681 L 395.0243902439024 113.85365853658536 L 395.1707317073171 114.58536585365852 L 395.1707317073171 115.3170731707317 L 395.1707317073171 116.04878048780486 L 395.0243902439024 116.6341463414634 L 394.8780487804878 117.36585365853657 L 394.5853658536585 117.95121951219511 L 394.2926829268293 118.39024390243901 L 394 118.82926829268291 L 393.5609756097561 119.26829268292681 L 393.1219512195122 119.5609756097561 L 392.6829268292683 119.85365853658536 L 392.0975609756098 120.14634146341464 L 391.5121951219512 120.14634146341464 L 390.9268292682927 120.29268292682926 L 390.1951219512195 120.14634146341464 L 389.609756097561 120.14634146341464 L 389.1707317073171 119.85365853658536 L 388.5853658536585 119.70731707317071 L 388.1463414634146 119.26829268292681 L 387.8536585365854 118.97560975609755 L 387.5609756097561 118.53658536585365 L 387.2682926829268 117.95121951219511 L 386.9756097560976 117.36585365853657 L 386.8292682926829 116.78048780487805 L 386.6829268292683 116.1951219512195 L 386.6829268292683 115.46341463414635 L 386.6829268292683 114.8780487804878 L 394.2926829268293 114.8780487804878 L 394.2926829268293 116.1951219512195 L 387.5609756097561 116.1951219512195 L 388.2926829268293 115.60975609756096 L 388.2926829268293 116.1951219512195 L 388.4390243902439 117.07317073170731 L 388.8780487804878 117.8048780487805 L 389.3170731707317 118.24390243902437 L 389.9024390243902 118.68292682926827 L 390.4878048780488 118.82926829268291 L 390.9268292682927 118.82926829268291 L 391.219512195122 118.82926829268291 L 391.9512195121951 118.68292682926827 L 392.5365853658537 118.24390243902437 L 392.9756097560976 117.65853658536582 L 393.2682926829268 117.07317073170731 L 393.5609756097561 116.04878048780486 L 393.5609756097561 115.60975609756096 L 393.5609756097561 114.58536585365852 L 393.4146341463415 113.70731707317071 L 392.9756097560976 112.97560975609755 L 392.8292682926829 112.68292682926827 L 392.2439024390244 112.24390243902437 L 391.9512195121951 112.09756097560975 L 391.219512195122 111.8048780487805 L 390.780487804878 111.8048780487805 L 390.1951219512195 111.8048780487805 L 389.609756097561 111.95121951219511 L 389.1707317073171 112.24390243902437 L 388.8780487804878 112.53658536585365 L 388.5853658536585 112.82926829268294 L 388.4390243902439 113.26829268292681 L 386.8292682926829 113.26829268292681 L 386.9756097560976 112.68292682926827 L 387.2682926829268 112.09756097560975 L 387.7073170731707 111.65853658536585 L 388.1463414634146 111.21951219512192 L 388.7317073170732 110.92682926829266 L 389.3170731707317 110.6341463414634 L 390.0487804878049 110.48780487804879 L 390.780487804878 110.48780487804879 Z" fill="none" stroke="#5da9e9" stroke-width="1.4634146341463417" stroke-linecap="round" stroke-linejoin="round" data-pcb-component-id="null" data-pcb-silkscreen-path-id="pcb_silkscreen_path_15" data-type="pcb_silkscreen_path" data-pcb-layer="bottom"/><path class="pcb-silkscreen pcb-silkscreen-bottom" d="M 382 110.48780487804879 L 382.7317073170732 110.48780487804879 L 383.1707317073171 110.6341463414634 L 383.609756097561 110.78048780487805 L 384.0487804878049 111.07317073170731 L 384.3414634146341 111.36585365853657 L 384.4878048780488 111.8048780487805 L 384.6341463414634 112.39024390243901 L 384.6341463414634 112.97560975609755 L 384.6341463414634 118.68292682926827 L 386.0975609756098 118.68292682926827 L 386.0975609756098 119.99999999999997 L 384.6341463414634 119.99999999999997 L 384.6341463414634 122.6341463414634 L 383.0243902439024 122.6341463414634 L 383.0243902439024 119.99999999999997 L 381.2682926829268 119.99999999999997 L 381.2682926829268 118.68292682926827 L 383.0243902439024 118.68292682926827 L 383.0243902439024 112.97560975609755 L 382.8780487804878 112.39024390243901 L 382.7317073170732 111.95121951219511 L 382.2926829268293 111.8048780487805 L 382 111.8048780487805 L 381.7073170731707 111.65853658536585 L 381.2682926829268 111.8048780487805 L 381.2682926829268 110.48780487804879 L 381.4146341463415 110.48780487804879 L 381.7073170731707 110.48780487804879 L 382 110.48780487804879 Z" fill="none" stroke="#5da9e9" stroke-width="1.4634146341463417" stroke-linecap="round" stroke-linejoin="round" data-pcb-component-id="null" data-pcb-silkscreen-path-id="pcb_silkscreen_path_16" data-type="pcb_silkscreen_path" data-pcb-layer="bottom"/><path class="pcb-silkscreen pcb-silkscreen-bottom" d="M 377.9024390243902 110.6341463414634 L 379.5121951219512 110.6341463414634 L 379.5121951219512 119.99999999999997 L 377.9024390243902 119.99999999999997 L 377.9024390243902 118.39024390243901 L 377.7560975609756 118.82926829268291 L 377.3170731707317 119.5609756097561 L 376.7317073170732 119.99999999999997 L 376.1463414634146 120.14634146341464 L 375.7073170731707 120.29268292682926 L 375.4146341463415 120.29268292682926 L 375.1219512195122 120.14634146341464 L 375.1219512195122 118.68292682926827 L 375.4146341463415 118.68292682926827 L 375.7073170731707 118.68292682926827 L 376.1463414634146 118.68292682926827 L 376.7317073170732 118.53658536585365 L 377.1707317073171 118.24390243902437 L 377.609756097561 117.95121951219511 L 377.7560975609756 117.36585365853657 L 377.9024390243902 116.78048780487805 L 377.9024390243902 116.48780487804879 L 377.9024390243902 110.6341463414634 Z" fill="none" stroke="#5da9e9" stroke-width="1.4634146341463417" stroke-linecap="round" stroke-linejoin="round" data-pcb-component-id="null" data-pcb-silkscreen-path-id="pcb_silkscreen_path_17" data-type="pcb_silkscreen_path" data-pcb-layer="bottom"/><path class="pcb-silkscreen pcb-silkscreen-bottom" d="M 369.8536585365854 110.48780487804879 L 370.4390243902439 110.48780487804879 L 371.0243902439024 110.6341463414634 L 371.609756097561 110.78048780487805 L 372.1951219512195 111.07317073170731 L 372.6341463414634 111.36585365853657 L 373.0731707317073 111.8048780487805 L 373.3658536585366 112.24390243902437 L 373.6585365853658 112.68292682926827 L 373.9512195121951 113.26829268292681 L 374.0975609756098 113.99999999999997 L 374.2439024390244 114.58536585365852 L 374.2439024390244 115.3170731707317 L 374.2439024390244 116.04878048780486 L 374.0975609756098 116.78048780487805 L 373.9512195121951 117.36585365853657 L 373.6585365853658 117.95121951219511 L 373.3658536585366 118.53658536585365 L 373.0731707317073 118.97560975609755 L 372.6341463414634 119.26829268292681 L 372.1951219512195 119.70731707317071 L 371.609756097561 119.85365853658536 L 371.0243902439024 120.14634146341464 L 370.4390243902439 120.14634146341464 L 369.8536585365854 120.29268292682926 L 369.2682926829268 120.14634146341464 L 368.6829268292683 120.14634146341464 L 368.0975609756098 119.85365853658536 L 367.5121951219512 119.70731707317071 L 367.0731707317073 119.26829268292681 L 366.6341463414634 118.97560975609755 L 366.3414634146342 118.53658536585365 L 366.0487804878049 117.95121951219511 L 365.7560975609756 117.36585365853657 L 365.609756097561 116.78048780487805 L 365.4634146341463 116.04878048780486 L 365.4634146341463 115.3170731707317 L 365.4634146341463 114.58536585365852 L 365.609756097561 113.85365853658536 L 365.7560975609756 113.26829268292681 L 366.0487804878049 112.68292682926827 L 366.3414634146342 112.24390243902437 L 366.6341463414634 111.8048780487805 L 367.0731707317073 111.36585365853657 L 367.5121951219512 111.07317073170731 L 368.0975609756098 110.78048780487805 L 368.6829268292683 110.6341463414634 L 369.2682926829268 110.48780487804879 L 369.8536585365854 110.48780487804879 Z" fill="none" stroke="#5da9e9" stroke-width="1.4634146341463417" stroke-linecap="round" stroke-linejoin="round" data-pcb-component-id="null" data-pcb-silkscreen-path-id="pcb_silkscreen_path_18" data-type="pcb_silkscreen_path" data-pcb-layer="bottom"/><path class="pcb-silkscreen pcb-silkscreen-bottom" d="M 369.8536585365854 111.8048780487805 L 369.4146341463415 111.8048780487805 L 368.6829268292683 112.09756097560975 L 368.0975609756098 112.53658536585365 L 367.6585365853658 113.1219512195122 L 367.3658536585366 113.85365853658536 L 367.0731707317073 114.73170731707316 L 367.0731707317073 115.3170731707317 L 367.0731707317073 115.90243902439022 L 367.3658536585366 116.78048780487805 L 367.6585365853658 117.65853658536582 L 368.0975609756098 118.24390243902437 L 368.6829268292683 118.68292682926827 L 369.4146341463415 118.82926829268291 L 369.8536585365854 118.82926829268291 L 370.2926829268293 118.82926829268291 L 371.0243902439024 118.53658536585365 L 371.609756097561 118.24390243902437 L 372.0487804878049 117.65853658536582 L 372.4878048780488 116.78048780487805 L 372.6341463414634 115.90243902439022 L 372.6341463414634 115.3170731707317 L 372.6341463414634 114.73170731707316 L 372.4878048780488 113.85365853658536 L 372.0487804878049 113.1219512195122 L 371.609756097561 112.53658536585365 L 371.0243902439024 112.09756097560975 L 370.2926829268293 111.8048780487805 L 369.8536585365854 111.8048780487805 Z" fill="none" stroke="#5da9e9" stroke-width="1.4634146341463417" stroke-linecap="round" stroke-linejoin="round" data-pcb-component-id="null" data-pcb-silkscreen-path-id="pcb_silkscreen_path_19" data-type="pcb_silkscreen_path" data-pcb-layer="bottom"/><path class="pcb-silkscreen pcb-silkscreen-bottom" d="M 362.390243902439 110.6341463414634 L 363.8536585365854 110.6341463414634 L 363.8536585365854 119.99999999999997 L 362.390243902439 119.99999999999997 L 362.390243902439 118.68292682926827 L 362.0975609756098 118.97560975609755 L 361.5121951219512 119.5609756097561 L 360.780487804878 119.99999999999997 L 359.9024390243902 120.14634146341464 L 359.3170731707317 120.29268292682926 L 358.5853658536585 120.14634146341464 L 357.4146341463415 119.70731707317071 L 356.5365853658536 118.82926829268291 L 356.0975609756098 117.51219512195121 L 356.0975609756098 116.78048780487805 L 356.0975609756098 110.6341463414634 L 357.7073170731707 110.6341463414634 L 357.7073170731707 116.48780487804879 L 357.8536585365854 117.51219512195121 L 358.2926829268293 118.24390243902437 L 358.8780487804878 118.68292682926827 L 359.3170731707317 118.82926829268291 L 359.9024390243902 118.82926829268291 L 360.4878048780488 118.82926829268291 L 361.219512195122 118.53658536585365 L 361.6585365853658 118.09756097560975 L 361.9512195121951 117.51219512195121 L 362.2439024390244 116.92682926829266 L 362.390243902439 116.1951219512195 L 362.390243902439 110.6341463414634 Z" fill="none" stroke="#5da9e9" stroke-width="1.4634146341463417" stroke-linecap="round" stroke-linejoin="round" data-pcb-component-id="null" data-pcb-silkscreen-path-id="pcb_silkscreen_path_20" data-type="pcb_silkscreen_path" data-pcb-layer="bottom"/><rect class="pcb-pad" fill="rgb(200, 52, 52)" x="295.36585365853654" y="215.85365853658536" width="36.58536585365854" height="36.58536585365854" data-type="pcb_smtpad" data-pcb-layer="top"/><rect class="pcb-pad" fill="rgb(200, 52, 52)" x="468.0487804878049" y="215.85365853658536" width="36.58536585365854" height="36.58536585365854" data-type="pcb_smtpad" data-pcb-layer="top"/><rect class="pcb-pad" fill="rgb(200, 52, 52)" x="544.8780487804878" y="417.8048780487805" width="17.5609756097561" height="13.170731707317074" data-type="pcb_smtpad" data-pcb-layer="top"/><rect class="pcb-pad" fill="rgb(200, 52, 52)" x="566.829268292683" y="417.8048780487805" width="17.5609756097561" height="13.170731707317074" data-type="pcb_smtpad" data-pcb-layer="top"/><rect class="pcb-pad" fill="rgb(200, 52, 52)" x="588.780487804878" y="417.8048780487805" width="17.5609756097561" height="13.170731707317074" data-type="pcb_smtpad" data-pcb-layer="top"/><rect class="pcb-pad" fill="rgb(200, 52, 52)" x="469.8780487804878" y="417.4390243902439" width="11.707317073170733" height="13.902439024390244" data-type="pcb_smtpad" data-pcb-layer="top"/><rect class="pcb-pad" fill="rgb(200, 52, 52)" x="494.0243902439024" y="417.4390243902439" width="11.707317073170733" height="13.902439024390244" data-type="pcb_smtpad" data-pcb-layer="top"/><path class="pcb-trace" stroke="rgb(200, 52, 52)" fill="none" d="M 381.4146341463415 453.6585365853658 L 409.6897802667362 425.3833904649711" stroke-width="2.1951219512195124" stroke-linecap="round" stroke-linejoin="round" shape-rendering="crispEdges" data-type="pcb_trace" data-pcb-layer="top"/><path class="pcb-trace" stroke="rgb(200, 52, 52)" fill="none" d="M 409.6897802667362 425.3833904649711 L 450.1891426180542 425.3833904649711" stroke-width="2.1951219512195124" stroke-linecap="round" stroke-linejoin="round" shape-rendering="crispEdges" data-type="pcb_trace" data-pcb-layer="top"/><path class="pcb-trace" stroke="rgb(200, 52, 52)" fill="none" d="M 450.1891426180542 425.3833904649711 L 458.74772935446015 433.94197720137703" stroke-width="2.1951219512195124" stroke-linecap="round" stroke-linejoin="round" shape-rendering="crispEdges" data-type="pcb_trace" data-pcb-layer="top"/><path class="pcb-trace" stroke="rgb(200, 52, 52)" fill="none" d="M 458.74772935446015 433.94197720137703 L 490.3263154815498 433.94197720137703" stroke-width="2.1951219512195124" stroke-linecap="round" stroke-linejoin="round" shape-rendering="crispEdges" data-type="pcb_trace" data-pcb-layer="top"/><path class="pcb-trace" stroke="rgb(200, 52, 52)" fill="none" d="M 490.3263154815498 433.94197720137703 L 490.3263154815498 433.94197720137703" stroke-width="2.1951219512195124" stroke-linecap="round" stroke-linejoin="round" shape-rendering="crispEdges" data-type="pcb_trace" data-pcb-layer="top"/><path class="pcb-trace" stroke="rgb(200, 52, 52)" fill="none" d="M 490.3263154815498 433.94197720137703 L 499.8780487804878 424.390243902439" stroke-width="2.1951219512195124" stroke-linecap="round" stroke-linejoin="round" shape-rendering="crispEdges" data-type="pcb_trace" data-pcb-layer="top"/><path class="pcb-trace" stroke="rgb(200, 52, 52)" fill="none" d="M 475.7317073170732 424.390243902439 L 493.29268292682923 406.82926829268297" stroke-width="2.1951219512195124" stroke-linecap="round" stroke-linejoin="round" shape-rendering="crispEdges" data-type="pcb_trace" data-pcb-layer="top"/><path class="pcb-trace" stroke="rgb(200, 52, 52)" fill="none" d="M 493.29268292682923 406.82926829268297 L 545.285000573695 406.82926829268297" stroke-width="2.1951219512195124" stroke-linecap="round" stroke-linejoin="round" shape-rendering="crispEdges" data-type="pcb_trace" data-pcb-layer="top"/><path class="pcb-trace" stroke="rgb(200, 52, 52)" fill="none" d="M 545.285000573695 406.82926829268297 L 546.3414634146341 406.82926829268297" stroke-width="2.1951219512195124" stroke-linecap="round" stroke-linejoin="round" shape-rendering="crispEdges" data-type="pcb_trace" data-pcb-layer="top"/><path class="pcb-trace" stroke="rgb(200, 52, 52)" fill="none" d="M 546.3414634146341 406.82926829268297 L 546.3414634146341 406.82926829268297" stroke-width="2.1951219512195124" stroke-linecap="round" stroke-linejoin="round" shape-rendering="crispEdges" data-type="pcb_trace" data-pcb-layer="top"/><path class="pcb-trace" stroke="rgb(200, 52, 52)" fill="none" d="M 569.7560975609756 406.82926829268297 L 569.7560975609756 406.82926829268297" stroke-width="2.1951219512195124" stroke-linecap="round" stroke-linejoin="round" shape-rendering="crispEdges" data-type="pcb_trace" data-pcb-layer="top"/><path class="pcb-trace" stroke="rgb(200, 52, 52)" fill="none" d="M 569.7560975609756 406.82926829268297 L 569.7560975609756 418.5365853658536" stroke-width="2.1951219512195124" stroke-linecap="round" stroke-linejoin="round" shape-rendering="crispEdges" data-type="pcb_trace" data-pcb-layer="top"/><path class="pcb-trace" stroke="rgb(200, 52, 52)" fill="none" d="M 569.7560975609756 418.5365853658536 L 575.609756097561 424.390243902439" stroke-width="2.1951219512195124" stroke-linecap="round" stroke-linejoin="round" shape-rendering="crispEdges" data-type="pcb_trace" data-pcb-layer="top"/><path class="pcb-trace" stroke="rgb(200, 52, 52)" fill="none" d="M 418.5853658536585 453.6585365853658 L 418.5853658536585 440.9268292682927" stroke-width="2.1951219512195124" stroke-linecap="round" stroke-linejoin="round" shape-rendering="crispEdges" data-type="pcb_trace" data-pcb-layer="top"/><path class="pcb-trace" stroke="rgb(200, 52, 52)" fill="none" d="M 418.5853658536585 440.9268292682927 L 427.6904701000417 431.8217250219095" stroke-width="2.1951219512195124" stroke-linecap="round" stroke-linejoin="round" shape-rendering="crispEdges" data-type="pcb_trace" data-pcb-layer="top"/><path class="pcb-trace" stroke="rgb(200, 52, 52)" fill="none" d="M 427.6904701000417 431.8217250219095 L 429.2682926829268 430.2439024390244" stroke-width="2.1951219512195124" stroke-linecap="round" stroke-linejoin="round" shape-rendering="crispEdges" data-type="pcb_trace" data-pcb-layer="top"/><path class="pcb-trace" stroke="rgb(200, 52, 52)" fill="none" d="M 429.2682926829268 430.2439024390244 L 429.2682926829268 430.2439024390244" stroke-width="2.1951219512195124" stroke-linecap="round" stroke-linejoin="round" shape-rendering="crispEdges" data-type="pcb_trace" data-pcb-layer="top"/><path class="pcb-trace" stroke="rgb(200, 52, 52)" fill="none" d="M 559.5853658536586 334.9390243902439 L 559.5853658536586 334.9390243902439" stroke-width="2.1951219512195124" stroke-linecap="round" stroke-linejoin="round" shape-rendering="crispEdges" data-type="pcb_trace" data-pcb-layer="top"/><path class="pcb-trace" stroke="rgb(200, 52, 52)" fill="none" d="M 559.5853658536586 334.9390243902439 L 559.5853658536586 307.390243902439" stroke-width="2.1951219512195124" stroke-linecap="round" stroke-linejoin="round" shape-rendering="crispEdges" data-type="pcb_trace" data-pcb-layer="top"/><path class="pcb-trace" stroke="rgb(200, 52, 52)" fill="none" d="M 559.5853658536586 307.390243902439 L 486.3414634146342 234.14634146341461" stroke-width="2.1951219512195124" stroke-linecap="round" stroke-linejoin="round" shape-rendering="crispEdges" data-type="pcb_trace" data-pcb-layer="top"/><path class="pcb-trace" stroke="rgb(200, 52, 52)" fill="none" d="M 553.6585365853658 424.390243902439 L 553.6585365853658 407.24031360976676" stroke-width="2.1951219512195124" stroke-linecap="round" stroke-linejoin="round" shape-rendering="crispEdges" data-type="pcb_trace" data-pcb-layer="top"/><path class="pcb-trace" stroke="rgb(200, 52, 52)" fill="none" d="M 553.6585365853658 407.24031360976676 L 483.00358882925764 336.5853658536585" stroke-width="2.1951219512195124" stroke-linecap="round" stroke-linejoin="round" shape-rendering="crispEdges" data-type="pcb_trace" data-pcb-layer="top"/><path class="pcb-trace" stroke="rgb(200, 52, 52)" fill="none" d="M 483.00358882925764 336.5853658536585 L 416.0975609756098 336.5853658536585" stroke-width="2.1951219512195124" stroke-linecap="round" stroke-linejoin="round" shape-rendering="crispEdges" data-type="pcb_trace" data-pcb-layer="top"/><path class="pcb-trace" stroke="rgb(200, 52, 52)" fill="none" d="M 416.0975609756098 336.5853658536585 L 313.6585365853658 234.14634146341461" stroke-width="2.1951219512195124" stroke-linecap="round" stroke-linejoin="round" shape-rendering="crispEdges" data-type="pcb_trace" data-pcb-layer="top"/><path class="pcb-silkscreen pcb-silkscreen-top" d="M 313.6585365853658 263.4146341463414 L 313.6585365853658 204.8780487804878" fill="none" stroke="#f2eda1" stroke-width="1.4634146341463417" stroke-linecap="round" stroke-linejoin="round" data-pcb-component-id="pcb_component_0" data-pcb-silkscreen-path-id="pcb_silkscreen_path_0" data-type="pcb_silkscreen_path" data-pcb-layer="top"/><path class="pcb-silkscreen pcb-silkscreen-top" d="M 304.8780487804878 234.14634146341461 L 322.4390243902439 234.14634146341461" fill="none" stroke="#f2eda1" stroke-width="1.4634146341463417" stroke-linecap="round" stroke-linejoin="round" data-pcb-component-id="pcb_component_0" data-pcb-silkscreen-path-id="pcb_silkscreen_path_1" data-type="pcb_silkscreen_path" data-pcb-layer="top"/><text x="0" y="0" dx="0" dy="0" fill="#f2eda1" font-family="Arial, sans-serif" font-size="14.634146341463415" text-anchor="middle" dominant-baseline="central" transform="matrix(1,0,0,1,313.6585365853658,278.0487804878049)" class="pcb-silkscreen-text pcb-silkscreen-top" data-pcb-silkscreen-text-id="pcb_component_0" stroke="none" data-type="pcb_silkscreen_text" data-pcb-layer="top">+</text><text x="0" y="0" dx="0" dy="0" fill="#f2eda1" font-family="Arial, sans-serif" font-size="14.634146341463415" text-anchor="middle" dominant-baseline="central" transform="matrix(1,0,0,1,486.3414634146342,278.0487804878049)" class="pcb-silkscreen-text pcb-silkscreen-top" data-pcb-silkscreen-text-id="pcb_component_0" stroke="none" data-type="pcb_silkscreen_text" data-pcb-layer="top">-</text><path class="pcb-silkscreen pcb-silkscreen-top" d="M 539.0243902439024 446.3414634146342 L 612.1951219512196 446.3414634146342 L 612.1951219512196 402.4390243902439 L 539.0243902439024 402.4390243902439 L 539.0243902439024 446.3414634146342 Z" fill="none" stroke="#f2eda1" stroke-width="1.4634146341463417" stroke-linecap="round" stroke-linejoin="round" data-pcb-component-id="pcb_component_1" data-pcb-silkscreen-path-id="pcb_silkscreen_path_2" data-type="pcb_silkscreen_path" data-pcb-layer="top"/><path class="pcb-silkscreen pcb-silkscreen-top" d="M 499.8780487804878 411.5853658536585 L 466.9512195121951 411.5853658536585 L 466.9512195121951 437.1951219512195 L 499.8780487804878 437.1951219512195" fill="none" stroke="#f2eda1" stroke-width="1.4634146341463417" stroke-linecap="round" stroke-linejoin="round" data-pcb-component-id="pcb_component_2" data-pcb-silkscreen-path-id="pcb_silkscreen_path_3" data-type="pcb_silkscreen_path" data-pcb-layer="top"/><text x="0" y="0" dx="0" dy="0" fill="#f2eda1" font-family="Arial, sans-serif" font-size="5.853658536585367" text-anchor="middle" dominant-baseline="central" transform="matrix(1,0,0,1,487.8048780487805,404.2682926829268)" class="pcb-silkscreen-text pcb-silkscreen-top" data-pcb-silkscreen-text-id="pcb_component_2" stroke="none" data-type="pcb_silkscreen_text" data-pcb-layer="top">R1</text><path class="pcb-silkscreen pcb-silkscreen-top" d="M 363.4146341463415 475.609756097561 L 436.5853658536585 475.609756097561 L 436.5853658536585 431.7073170731707 L 363.4146341463415 431.7073170731707 L 363.4146341463415 475.609756097561 Z" fill="none" stroke="#f2eda1" stroke-width="1.4634146341463417" stroke-linecap="round" stroke-linejoin="round" data-pcb-component-id="pcb_component_3" data-pcb-silkscreen-path-id="pcb_silkscreen_path_4" data-type="pcb_silkscreen_path" data-pcb-layer="top"/><text x="0" y="0" dx="0" dy="0" fill="#f2eda1" font-family="Arial, sans-serif" font-size="11.707317073170733" text-anchor="middle" dominant-baseline="central" transform="matrix(1,0,0,1,381.4146341463415,485.8536585365854)" class="pcb-silkscreen-text pcb-silkscreen-top" data-pcb-silkscreen-text-id="pcb_component_3" stroke="none" data-type="pcb_silkscreen_text" data-pcb-layer="top">+</text><text x="0" y="0" dx="0" dy="0" fill="#f2eda1" font-family="Arial, sans-serif" font-size="11.707317073170733" text-anchor="middle" dominant-baseline="central" transform="matrix(1,0,0,1,400,421.4634146341463)" class="pcb-silkscreen-text pcb-silkscreen-top" data-pcb-silkscreen-text-id="pcb_component_3" stroke="none" data-type="pcb_silkscreen_text" data-pcb-layer="top">LED</text><g data-type="pcb_plated_hole" data-pcb-layer="through"><circle class="pcb-hole-outer" fill="rgb(200, 52, 52)" cx="381.4146341463415" cy="453.6585365853658" r="13.170731707317074" data-type="pcb_plated_hole" data-pcb-layer="top"/><circle class="pcb-hole-inner" fill="#FF26E2" cx="381.4146341463415" cy="453.6585365853658" r="7.317073170731708" data-type="pcb_plated_hole_drill" data-pcb-layer="drill"/></g><g data-type="pcb_plated_hole" data-pcb-layer="through"><circle class="pcb-hole-outer" fill="rgb(200, 52, 52)" cx="418.5853658536585" cy="453.6585365853658" r="13.170731707317074" data-type="pcb_plated_hole" data-pcb-layer="top"/><circle class="pcb-hole-inner" fill="#FF26E2" cx="418.5853658536585" cy="453.6585365853658" r="7.317073170731708" data-type="pcb_plated_hole_drill" data-pcb-layer="drill"/></g><g data-type="pcb_via" data-pcb-layer="through"><circle class="pcb-hole-outer" fill="rgb(200, 52, 52)" cx="546.3414634146341" cy="406.82926829268297" r="2.1951219512195124" data-type="pcb_via" data-pcb-layer="top"/><circle class="pcb-hole-inner" fill="#FF26E2" cx="546.3414634146341" cy="406.82926829268297" r="1.4634146341463417" data-type="pcb_via" data-pcb-layer="drill"/></g><g data-type="pcb_via" data-pcb-layer="through"><circle class="pcb-hole-outer" fill="rgb(200, 52, 52)" cx="569.7560975609756" cy="406.82926829268297" r="2.1951219512195124" data-type="pcb_via" data-pcb-layer="top"/><circle class="pcb-hole-inner" fill="#FF26E2" cx="569.7560975609756" cy="406.82926829268297" r="1.4634146341463417" data-type="pcb_via" data-pcb-layer="drill"/></g><g data-type="pcb_via" data-pcb-layer="through"><circle class="pcb-hole-outer" fill="rgb(200, 52, 52)" cx="429.2682926829268" cy="430.2439024390244" r="2.1951219512195124" data-type="pcb_via" data-pcb-layer="top"/><circle class="pcb-hole-inner" fill="#FF26E2" cx="429.2682926829268" cy="430.2439024390244" r="1.4634146341463417" data-type="pcb_via" data-pcb-layer="drill"/></g><g data-type="pcb_via" data-pcb-layer="through"><circle class="pcb-hole-outer" fill="rgb(200, 52, 52)" cx="559.5853658536586" cy="334.9390243902439" r="2.1951219512195124" data-type="pcb_via" data-pcb-layer="top"/><circle class="pcb-hole-inner" fill="#FF26E2" cx="559.5853658536586" cy="334.9390243902439" r="1.4634146341463417" data-type="pcb_via" data-pcb-layer="drill"/></g><circle class="pcb-hole" cx="400" cy="541.4634146341464" r="18.29268292682927" fill="#FF26E2" data-type="pcb_hole" data-pcb-layer="drill"/></svg>