<svg xmlns="http://www.w3.org/2000/svg" width="800" height="600" data-software-used-string="@tscircuit/core@0.0.1112"><style></style><rect class="boundary" x="0" y="0" fill="#000" width="800" height="600" data-type="pcb_background" data-pcb-layer="global"/><rect class="pcb-boundary" fill="none" stroke="#fff" stroke-width="0.3" x="86.04651162790697" y="13.953488372093034" width="627.9069767441861" height="572.0930232558139" data-type="pcb_boundary" data-pcb-layer="global"/><path class="pcb-board" d="M 400 586.046511627907 L 420.93023255813955 579.0697674418604 L 432.09302325581393 569.3023255813954 L 439.06976744186045 555.3488372093024 L 441.8604651162791 537.2093023255813 L 441.8604651162791 516.2790697674419 L 439.2093023255814 502.6046511627907 L 463.7674418604651 524.9302325581396 L 494.04651162790697 542.5116279069767 L 528.9302325581396 552.8372093023256 L 566.1860465116279 554.3720930232558 L 603.8604651162791 546.5581395348838 L 639.4418604651163 529.6744186046512 L 670 504.8372093023256 L 693.7209302325582 473.5813953488372 L 708.7906976744187 437.72093023255815 L 713.953488372093 399.34883720930236 L 708.7906976744187 360.13953488372096 L 693.7209302325582 321.34883720930236 L 670 283.6744186046512 L 639.4418604651163 247.53488372093025 L 603.8604651162791 213.06976744186048 L 566.1860465116279 179.8604651162791 L 528.9302325581396 147.90697674418607 L 494.04651162790697 117.2093023255814 L 463.7674418604651 88.04651162790697 L 439.2093023255814 60.69767441860466 L 421.2093023255814 36.41860465116281 L 409.2093023255814 20.93023255813955 L 405.5813953488372 16.74418604651163 L 402.7906976744186 14.651162790697697 L 400 13.953488372093034 L 397.2093023255814 14.651162790697697 L 394.4186046511628 16.74418604651163 L 390.7906976744186 20.93023255813955 L 378.7906976744186 36.41860465116281 L 360.7906976744186 60.69767441860466 L 336.2325581395349 88.04651162790697 L 305.95348837209303 117.2093023255814 L 271.06976744186045 147.90697674418607 L 233.81395348837208 179.8604651162791 L 196.13953488372093 213.06976744186048 L 160.5581395348837 247.53488372093025 L 130 283.6744186046512 L 106.27906976744185 321.34883720930236 L 91.2093023255814 360.13953488372096 L 86.04651162790697 399.34883720930236 L 91.2093023255814 437.72093023255815 L 106.27906976744185 473.5813953488372 L 130 504.8372093023256 L 160.5581395348837 529.6744186046512 L 196.13953488372093 546.5581395348838 L 233.81395348837208 554.3720930232558 L 271.06976744186045 552.8372093023256 L 305.95348837209303 542.5116279069767 L 336.2325581395349 524.9302325581396 L 360.7906976744186 502.6046511627907 L 358.1395348837209 516.2790697674419 L 358.1395348837209 537.2093023255813 L 360.93023255813955 555.3488372093024 L 367.90697674418607 569.3023255813954 L 379.06976744186045 579.0697674418604 Z" fill="none" stroke="rgba(255, 255, 255, 0.5)" stroke-width="1.3953488372093024" data-type="pcb_board" data-pcb-layer="board"/><path class="pcb-trace" stroke="rgb(77, 127, 196)" fill="none" d="M 539.5348837209302 415.81395348837214 L 539.5348837209302 415.81395348837214" stroke-width="2.093023255813953" stroke-linecap="round" stroke-linejoin="round" shape-rendering="crispEdges" data-type="pcb_trace" data-pcb-layer="bottom"/><path class="pcb-trace" stroke="rgb(77, 127, 196)" fill="none" d="M 539.5348837209302 415.81395348837214 L 560.4523380047176 415.81395348837214" stroke-width="2.093023255813953" stroke-linecap="round" stroke-linejoin="round" shape-rendering="crispEdges" data-type="pcb_trace" data-pcb-layer="bottom"/><path class="pcb-trace" stroke="rgb(77, 127, 196)" fill="none" d="M 560.4523380047176 415.81395348837214 L 560.4523380047176 415.81395348837214" stroke-width="2.093023255813953" stroke-linecap="round" stroke-linejoin="round" shape-rendering="crispEdges" data-type="pcb_trace" data-pcb-layer="bottom"/><path class="pcb-trace" stroke="rgb(77, 127, 196)" fill="none" d="M 560.4523380047176 415.81395348837214 L 561.8604651162791 415.81395348837214" stroke-width="2.093023255813953" stroke-linecap="round" stroke-linejoin="round" shape-rendering="crispEdges" data-type="pcb_trace" data-pcb-layer="bottom"/><path class="pcb-trace" stroke="rgb(77, 127, 196)" fill="none" d="M 561.8604651162791 415.81395348837214 L 561.8604651162791 415.81395348837214" stroke-width="2.093023255813953" stroke-linecap="round" stroke-linejoin="round" shape-rendering="crispEdges" data-type="pcb_trace" data-pcb-layer="bottom"/><path class="pcb-trace" stroke="rgb(77, 127, 196)" fill="none" d="M 427.90697674418607 438.13953488372096 L 427.90697674418607 438.13953488372096" stroke-width="2.093023255813953" stroke-linecap="round" stroke-linejoin="round" shape-rendering="crispEdges" data-type="pcb_trace" data-pcb-layer="bottom"/><path class="pcb-trace" stroke="rgb(77, 127, 196)" fill="none" d="M 427.90697674418607 438.13953488372096 L 457.8179566183972 438.13953488372096" stroke-width="2.093023255813953" stroke-linecap="round" stroke-linejoin="round" shape-rendering="crispEdges" data-type="pcb_trace" data-pcb-layer="bottom"/><path class="pcb-trace" stroke="rgb(77, 127, 196)" fill="none" d="M 457.8179566183972 438.13953488372096 L 550.1248115342255 345.8326799678926" stroke-width="2.093023255813953" stroke-linecap="round" stroke-linejoin="round" shape-rendering="crispEdges" data-type="pcb_trace" data-pcb-layer="bottom"/><path class="pcb-trace" stroke="rgb(77, 127, 196)" fill="none" d="M 550.1248115342255 345.8326799678926 L 552.1627906976744 347.2674418604651" stroke-width="2.093023255813953" stroke-linecap="round" stroke-linejoin="round" shape-rendering="crispEdges" data-type="pcb_trace" data-pcb-layer="bottom"/><path class="pcb-trace" stroke="rgb(77, 127, 196)" fill="none" d="M 552.1627906976744 347.2674418604651 L 552.1627906976744 347.2674418604651" stroke-width="2.093023255813953" stroke-linecap="round" stroke-linejoin="round" shape-rendering="crispEdges" data-type="pcb_trace" data-pcb-layer="bottom"/><path class="pcb-silkscreen pcb-silkscreen-bottom" d="M 472.9767441860465 280.04651162790697 L 483.72093023255815 306.4186046511628 L 473.3953488372093 306.4186046511628 L 468.2325581395349 291.7674418604651 L 463.06976744186045 306.4186046511628 L 453.16279069767444 306.4186046511628 L 463.90697674418607 280.04651162790697 L 472.9767441860465 280.04651162790697 Z" fill="none" stroke="#5da9e9" stroke-width="1.3953488372093024" stroke-linecap="round" stroke-linejoin="round" data-pcb-component-id="null" data-pcb-silkscreen-path-id="pcb_silkscreen_path_5" data-type="pcb_silkscreen_path" data-pcb-layer="bottom"/><path class="pcb-silkscreen pcb-silkscreen-bottom" d="M 441.72093023255815 280.04651162790697 L 451.3488372093023 280.04651162790697 L 451.3488372093023 306.4186046511628 L 441.72093023255815 306.4186046511628 L 441.72093023255815 280.04651162790697 Z" fill="none" stroke="#5da9e9" stroke-width="1.3953488372093024" stroke-linecap="round" stroke-linejoin="round" data-pcb-component-id="null" data-pcb-silkscreen-path-id="pcb_silkscreen_path_6" data-type="pcb_silkscreen_path" data-pcb-layer="bottom"/><path class="pcb-silkscreen pcb-silkscreen-bottom" d="M 414.93023255813955 306.4186046511628 L 414.93023255813955 300.4186046511628 L 426.2325581395349 287.72093023255815 L 414.7906976744186 287.72093023255815 L 414.7906976744186 280.04651162790697 L 439.06976744186045 280.04651162790697 L 439.06976744186045 286.1860465116279 L 427.7674418604651 298.74418604651163 L 438.37209302325584 298.74418604651163 L 438.37209302325584 306.4186046511628 L 414.93023255813955 306.4186046511628 Z" fill="none" stroke="#5da9e9" stroke-width="1.3953488372093024" stroke-linecap="round" stroke-linejoin="round" data-pcb-component-id="null" data-pcb-silkscreen-path-id="pcb_silkscreen_path_7" data-type="pcb_silkscreen_path" data-pcb-layer="bottom"/><path class="pcb-silkscreen pcb-silkscreen-bottom" d="M 413.95348837209303 293.3023255813954 L 413.6744186046512 296.093023255814 L 412.9767441860465 298.8837209302326 L 411.72093023255815 301.25581395348837 L 409.90697674418607 303.2093023255814 L 407.8139534883721 304.8837209302326 L 405.4418604651163 306.13953488372096 L 402.6511627906977 306.9767441860465 L 399.5813953488372 307.25581395348837 L 397.2093023255814 306.9767441860465 L 394.83720930232556 306.4186046511628 L 393.4418604651163 305.8604651162791 L 393.4418604651163 297.0697674418605 L 395.1162790697674 297.90697674418607 L 396.93023255813955 298.4651162790698 L 398.1860465116279 298.4651162790698 L 400.5581395348837 298.1860465116279 L 402.3720930232558 297.0697674418605 L 403.6279069767442 295.3953488372093 L 404.1860465116279 293.3023255813954 L 403.6279069767442 291.06976744186045 L 402.51162790697674 289.3953488372093 L 400.5581395348837 288.27906976744185 L 398.1860465116279 288 L 396.93023255813955 288 L 395.1162790697674 288.5581395348837 L 393.4418604651163 289.5348837209302 L 393.4418604651163 280.74418604651163 L 395.8139534883721 279.7674418604651 L 398.1860465116279 279.34883720930236 L 399.72093023255815 279.34883720930236 L 402.6511627906977 279.48837209302326 L 405.4418604651163 280.3255813953489 L 407.8139534883721 281.4418604651163 L 409.90697674418607 283.1162790697675 L 411.5813953488372 285.0697674418605 L 412.83720930232556 287.4418604651163 L 413.6744186046512 290.2325581395349 L 413.95348837209303 293.3023255813954 Z" fill="none" stroke="#5da9e9" stroke-width="1.3953488372093024" stroke-linecap="round" stroke-linejoin="round" data-pcb-component-id="null" data-pcb-silkscreen-path-id="pcb_silkscreen_path_8" data-type="pcb_silkscreen_path" data-pcb-layer="bottom"/><path class="pcb-silkscreen pcb-silkscreen-bottom" d="M 376.83720930232556 307.25581395348837 L 373.90697674418607 306.9767441860465 L 371.1162790697674 306.13953488372096 L 368.6046511627907 304.8837209302326 L 366.37209302325584 303.2093023255814 L 364.5581395348837 301.1162790697675 L 363.30232558139534 298.74418604651163 L 362.4651162790698 296.093023255814 L 362.1860465116279 293.3023255813954 L 362.4651162790698 290.37209302325584 L 363.30232558139534 287.72093023255815 L 364.5581395348837 285.34883720930236 L 366.37209302325584 283.25581395348837 L 368.6046511627907 281.58139534883725 L 371.1162790697674 280.3255813953489 L 373.90697674418607 279.48837209302326 L 376.83720930232556 279.34883720930236 L 379.90697674418607 279.48837209302326 L 382.69767441860466 280.3255813953489 L 385.2093023255814 281.58139534883725 L 387.4418604651163 283.25581395348837 L 389.25581395348837 285.34883720930236 L 390.51162790697674 287.72093023255815 L 391.3488372093023 290.37209302325584 L 391.6279069767442 293.3023255813954 L 391.3488372093023 296.093023255814 L 390.51162790697674 298.74418604651163 L 389.25581395348837 301.1162790697675 L 387.4418604651163 303.2093023255814 L 385.2093023255814 304.8837209302326 L 382.69767441860466 306.13953488372096 L 379.90697674418607 306.9767441860465 L 376.83720930232556 307.25581395348837 Z" fill="none" stroke="#5da9e9" stroke-width="1.3953488372093024" stroke-linecap="round" stroke-linejoin="round" data-pcb-component-id="null" data-pcb-silkscreen-path-id="pcb_silkscreen_path_9" data-type="pcb_silkscreen_path" data-pcb-layer="bottom"/><path class="pcb-silkscreen pcb-silkscreen-bottom" d="M 376.83720930232556 298.4651162790698 L 378.93023255813955 298.04651162790697 L 380.6046511627907 296.93023255813955 L 381.72093023255815 295.25581395348837 L 382.13953488372096 293.3023255813954 L 381.72093023255815 291.2093023255814 L 380.6046511627907 289.5348837209302 L 378.93023255813955 288.4186046511628 L 376.83720930232556 288 L 374.8837209302326 288.4186046511628 L 373.2093023255814 289.5348837209302 L 372.09302325581393 291.2093023255814 L 371.6744186046512 293.3023255813954 L 372.09302325581393 295.25581395348837 L 373.2093023255814 296.93023255813955 L 374.8837209302326 298.04651162790697 L 376.83720930232556 298.4651162790698 Z" fill="none" stroke="#5da9e9" stroke-width="1.3953488372093024" stroke-linecap="round" stroke-linejoin="round" data-pcb-component-id="null" data-pcb-silkscreen-path-id="pcb_silkscreen_path_10" data-type="pcb_silkscreen_path" data-pcb-layer="bottom"/><path class="pcb-silkscreen pcb-silkscreen-bottom" d="M 350.74418604651163 294.27906976744185 L 350.74418604651163 279.90697674418607 L 360.51162790697674 279.90697674418607 L 360.51162790697674 306.4186046511628 L 350.74418604651163 306.4186046511628 L 350.74418604651163 303.34883720930236 L 348.6511627906977 305.4418604651163 L 345.8604651162791 306.8372093023256 L 343.48837209302326 307.1162790697675 L 340.9767441860465 306.8372093023256 L 338.04651162790697 305.4418604651163 L 335.95348837209303 302.93023255813955 L 333.4418604651163 305.58139534883725 L 330.09302325581393 306.9767441860465 L 327.72093023255815 307.1162790697675 L 323.6744186046512 306.4186046511628 L 320.74418604651163 304.3255813953489 L 319.06976744186045 301.25581395348837 L 318.37209302325584 296.93023255813955 L 318.37209302325584 279.90697674418607 L 328.1395348837209 279.90697674418607 L 328.1395348837209 294.4186046511628 L 328.69767441860466 296.6511627906977 L 329.95348837209303 298.04651162790697 L 331.34883720930236 298.3255813953489 L 332.6046511627907 298.04651162790697 L 334 296.6511627906977 L 334.5581395348837 294.27906976744185 L 334.5581395348837 279.90697674418607 L 344.3255813953488 279.90697674418607 L 344.3255813953488 294.4186046511628 L 344.74418604651163 296.6511627906977 L 346.13953488372096 298.04651162790697 L 347.3953488372093 298.3255813953489 L 348.7906976744186 298.04651162790697 L 350.1860465116279 296.6511627906977 L 350.74418604651163 294.27906976744185 Z" fill="none" stroke="#5da9e9" stroke-width="1.3953488372093024" stroke-linecap="round" stroke-linejoin="round" data-pcb-component-id="null" data-pcb-silkscreen-path-id="pcb_silkscreen_path_11" data-type="pcb_silkscreen_path" data-pcb-layer="bottom"/><rect class="pcb-pad" fill="rgb(200, 52, 52)" x="300.23255813953483" y="233.72093023255815" width="34.883720930232556" height="34.883720930232556" data-type="pcb_smtpad" data-pcb-layer="top"/><rect class="pcb-pad" fill="rgb(200, 52, 52)" x="464.8837209302326" y="233.72093023255815" width="34.883720930232556" height="34.883720930232556" data-type="pcb_smtpad" data-pcb-layer="top"/><rect class="pcb-pad" fill="rgb(200, 52, 52)" x="538.1395348837209" y="426.27906976744185" width="16.744186046511626" height="12.558139534883722" data-type="pcb_smtpad" data-pcb-layer="top"/><rect class="pcb-pad" fill="rgb(200, 52, 52)" x="559.0697674418604" y="426.27906976744185" width="16.744186046511626" height="12.558139534883722" data-type="pcb_smtpad" data-pcb-layer="top"/><rect class="pcb-pad" fill="rgb(200, 52, 52)" x="580" y="426.27906976744185" width="16.744186046511626" height="12.558139534883722" data-type="pcb_smtpad" data-pcb-layer="top"/><rect class="pcb-pad" fill="rgb(200, 52, 52)" x="466.6279069767442" y="425.93023255813955" width="11.162790697674419" height="13.25581395348837" data-type="pcb_smtpad" data-pcb-layer="top"/><rect class="pcb-pad" fill="rgb(200, 52, 52)" x="489.6511627906977" y="425.93023255813955" width="11.162790697674419" height="13.25581395348837" data-type="pcb_smtpad" data-pcb-layer="top"/><path class="pcb-trace" stroke="rgb(200, 52, 52)" fill="none" d="M 382.27906976744185 460.4651162790698 L 409.23909281246944 433.5050932340422" stroke-width="2.093023255813953" stroke-linecap="round" stroke-linejoin="round" shape-rendering="crispEdges" data-type="pcb_trace" data-pcb-layer="top"/><path class="pcb-trace" stroke="rgb(200, 52, 52)" fill="none" d="M 409.23909281246944 433.5050932340422 L 447.85476389163307 433.5050932340422" stroke-width="2.093023255813953" stroke-linecap="round" stroke-linejoin="round" shape-rendering="crispEdges" data-type="pcb_trace" data-pcb-layer="top"/><path class="pcb-trace" stroke="rgb(200, 52, 52)" fill="none" d="M 447.85476389163307 433.5050932340422 L 456.0152768263457 441.66560616875483" stroke-width="2.093023255813953" stroke-linecap="round" stroke-linejoin="round" shape-rendering="crispEdges" data-type="pcb_trace" data-pcb-layer="top"/><path class="pcb-trace" stroke="rgb(200, 52, 52)" fill="none" d="M 456.0152768263457 441.66560616875483 L 486.12509150566376 441.66560616875483" stroke-width="2.093023255813953" stroke-linecap="round" stroke-linejoin="round" shape-rendering="crispEdges" data-type="pcb_trace" data-pcb-layer="top"/><path class="pcb-trace" stroke="rgb(200, 52, 52)" fill="none" d="M 486.12509150566376 441.66560616875483 L 486.12509150566376 441.66560616875483" stroke-width="2.093023255813953" stroke-linecap="round" stroke-linejoin="round" shape-rendering="crispEdges" data-type="pcb_trace" data-pcb-layer="top"/><path class="pcb-trace" stroke="rgb(200, 52, 52)" fill="none" d="M 486.12509150566376 441.66560616875483 L 495.2325581395349 432.5581395348837" stroke-width="2.093023255813953" stroke-linecap="round" stroke-linejoin="round" shape-rendering="crispEdges" data-type="pcb_trace" data-pcb-layer="top"/><path class="pcb-trace" stroke="rgb(200, 52, 52)" fill="none" d="M 472.2093023255814 432.5581395348837 L 488.95348837209303 415.81395348837214" stroke-width="2.093023255813953" stroke-linecap="round" stroke-linejoin="round" shape-rendering="crispEdges" data-type="pcb_trace" data-pcb-layer="top"/><path class="pcb-trace" stroke="rgb(200, 52, 52)" fill="none" d="M 488.95348837209303 415.81395348837214 L 538.5275586865464 415.81395348837214" stroke-width="2.093023255813953" stroke-linecap="round" stroke-linejoin="round" shape-rendering="crispEdges" data-type="pcb_trace" data-pcb-layer="top"/><path class="pcb-trace" stroke="rgb(200, 52, 52)" fill="none" d="M 538.5275586865464 415.81395348837214 L 539.5348837209302 415.81395348837214" stroke-width="2.093023255813953" stroke-linecap="round" stroke-linejoin="round" shape-rendering="crispEdges" data-type="pcb_trace" data-pcb-layer="top"/><path class="pcb-trace" stroke="rgb(200, 52, 52)" fill="none" d="M 539.5348837209302 415.81395348837214 L 539.5348837209302 415.81395348837214" stroke-width="2.093023255813953" stroke-linecap="round" stroke-linejoin="round" shape-rendering="crispEdges" data-type="pcb_trace" data-pcb-layer="top"/><path class="pcb-trace" stroke="rgb(200, 52, 52)" fill="none" d="M 561.8604651162791 415.81395348837214 L 561.8604651162791 415.81395348837214" stroke-width="2.093023255813953" stroke-linecap="round" stroke-linejoin="round" shape-rendering="crispEdges" data-type="pcb_trace" data-pcb-layer="top"/><path class="pcb-trace" stroke="rgb(200, 52, 52)" fill="none" d="M 561.8604651162791 415.81395348837214 L 561.8604651162791 426.9767441860465" stroke-width="2.093023255813953" stroke-linecap="round" stroke-linejoin="round" shape-rendering="crispEdges" data-type="pcb_trace" data-pcb-layer="top"/><path class="pcb-trace" stroke="rgb(200, 52, 52)" fill="none" d="M 561.8604651162791 426.9767441860465 L 567.4418604651163 432.5581395348837" stroke-width="2.093023255813953" stroke-linecap="round" stroke-linejoin="round" shape-rendering="crispEdges" data-type="pcb_trace" data-pcb-layer="top"/><path class="pcb-trace" stroke="rgb(200, 52, 52)" fill="none" d="M 417.72093023255815 460.4651162790698 L 417.72093023255815 448.3255813953489" stroke-width="2.093023255813953" stroke-linecap="round" stroke-linejoin="round" shape-rendering="crispEdges" data-type="pcb_trace" data-pcb-layer="top"/><path class="pcb-trace" stroke="rgb(200, 52, 52)" fill="none" d="M 417.72093023255815 448.3255813953489 L 426.4025412581793 439.6439703697277" stroke-width="2.093023255813953" stroke-linecap="round" stroke-linejoin="round" shape-rendering="crispEdges" data-type="pcb_trace" data-pcb-layer="top"/><path class="pcb-trace" stroke="rgb(200, 52, 52)" fill="none" d="M 426.4025412581793 439.6439703697277 L 427.90697674418607 438.13953488372096" stroke-width="2.093023255813953" stroke-linecap="round" stroke-linejoin="round" shape-rendering="crispEdges" data-type="pcb_trace" data-pcb-layer="top"/><path class="pcb-trace" stroke="rgb(200, 52, 52)" fill="none" d="M 427.90697674418607 438.13953488372096 L 427.90697674418607 438.13953488372096" stroke-width="2.093023255813953" stroke-linecap="round" stroke-linejoin="round" shape-rendering="crispEdges" data-type="pcb_trace" data-pcb-layer="top"/><path class="pcb-trace" stroke="rgb(200, 52, 52)" fill="none" d="M 552.1627906976744 347.2674418604651 L 552.1627906976744 347.2674418604651" stroke-width="2.093023255813953" stroke-linecap="round" stroke-linejoin="round" shape-rendering="crispEdges" data-type="pcb_trace" data-pcb-layer="top"/><path class="pcb-trace" stroke="rgb(200, 52, 52)" fill="none" d="M 552.1627906976744 347.2674418604651 L 552.1627906976744 321" stroke-width="2.093023255813953" stroke-linecap="round" stroke-linejoin="round" shape-rendering="crispEdges" data-type="pcb_trace" data-pcb-layer="top"/><path class="pcb-trace" stroke="rgb(200, 52, 52)" fill="none" d="M 552.1627906976744 321 L 482.3255813953489 251.16279069767444" stroke-width="2.093023255813953" stroke-linecap="round" stroke-linejoin="round" shape-rendering="crispEdges" data-type="pcb_trace" data-pcb-layer="top"/><path class="pcb-trace" stroke="rgb(200, 52, 52)" fill="none" d="M 546.5116279069767 432.5581395348837 L 546.5116279069767 416.2058804186148" stroke-width="2.093023255813953" stroke-linecap="round" stroke-linejoin="round" shape-rendering="crispEdges" data-type="pcb_trace" data-pcb-layer="top"/><path class="pcb-trace" stroke="rgb(200, 52, 52)" fill="none" d="M 546.5116279069767 416.2058804186148 L 479.1429567906875 348.8372093023256" stroke-width="2.093023255813953" stroke-linecap="round" stroke-linejoin="round" shape-rendering="crispEdges" data-type="pcb_trace" data-pcb-layer="top"/><path class="pcb-trace" stroke="rgb(200, 52, 52)" fill="none" d="M 479.1429567906875 348.8372093023256 L 415.3488372093023 348.8372093023256" stroke-width="2.093023255813953" stroke-linecap="round" stroke-linejoin="round" shape-rendering="crispEdges" data-type="pcb_trace" data-pcb-layer="top"/><path class="pcb-trace" stroke="rgb(200, 52, 52)" fill="none" d="M 415.3488372093023 348.8372093023256 L 317.6744186046511 251.16279069767444" stroke-width="2.093023255813953" stroke-linecap="round" stroke-linejoin="round" shape-rendering="crispEdges" data-type="pcb_trace" data-pcb-layer="top"/><path class="pcb-silkscreen pcb-silkscreen-top" d="M 317.6744186046511 279.06976744186045 L 317.6744186046511 223.25581395348837" fill="none" stroke="#f2eda1" stroke-width="1.3953488372093024" stroke-linecap="round" stroke-linejoin="round" data-pcb-component-id="pcb_component_0" data-pcb-silkscreen-path-id="pcb_silkscreen_path_0" data-type="pcb_silkscreen_path" data-pcb-layer="top"/><path class="pcb-silkscreen pcb-silkscreen-top" d="M 309.30232558139534 251.16279069767444 L 326.04651162790697 251.16279069767444" fill="none" stroke="#f2eda1" stroke-width="1.3953488372093024" stroke-linecap="round" stroke-linejoin="round" data-pcb-component-id="pcb_component_0" data-pcb-silkscreen-path-id="pcb_silkscreen_path_1" data-type="pcb_silkscreen_path" data-pcb-layer="top"/><text x="0" y="0" dx="0" dy="0" fill="#f2eda1" font-family="Arial, sans-serif" font-size="13.953488372093023" text-anchor="middle" dominant-baseline="central" transform="matrix(1,0,0,1,317.6744186046511,293.0232558139535)" class="pcb-silkscreen-text pcb-silkscreen-top" data-pcb-silkscreen-text-id="pcb_component_0" stroke="none" data-type="pcb_silkscreen_text" data-pcb-layer="top">+</text><text x="0" y="0" dx="0" dy="0" fill="#f2eda1" font-family="Arial, sans-serif" font-size="13.953488372093023" text-anchor="middle" dominant-baseline="central" transform="matrix(1,0,0,1,482.3255813953489,293.0232558139535)" class="pcb-silkscreen-text pcb-silkscreen-top" data-pcb-silkscreen-text-id="pcb_component_0" stroke="none" data-type="pcb_silkscreen_text" data-pcb-layer="top">-</text><path class="pcb-silkscreen pcb-silkscreen-top" d="M 532.5581395348837 453.48837209302326 L 602.3255813953489 453.48837209302326 L 602.3255813953489 411.6279069767442 L 532.5581395348837 411.6279069767442 L 532.5581395348837 453.48837209302326 Z" fill="none" stroke="#f2eda1" stroke-width="1.3953488372093024" stroke-linecap="round" stroke-linejoin="round" data-pcb-component-id="pcb_component_1" data-pcb-silkscreen-path-id="pcb_silkscreen_path_2" data-type="pcb_silkscreen_path" data-pcb-layer="top"/><path class="pcb-silkscreen pcb-silkscreen-top" d="M 495.2325581395349 420.34883720930236 L 463.83720930232556 420.34883720930236 L 463.83720930232556 444.7674418604651 L 495.2325581395349 444.7674418604651" fill="none" stroke="#f2eda1" stroke-width="1.3953488372093024" stroke-linecap="round" stroke-linejoin="round" data-pcb-component-id="pcb_component_2" data-pcb-silkscreen-path-id="pcb_silkscreen_path_3" data-type="pcb_silkscreen_path" data-pcb-layer="top"/><text x="0" y="0" dx="0" dy="0" fill="#f2eda1" font-family="Arial, sans-serif" font-size="5.5813953488372094" text-anchor="middle" dominant-baseline="central" transform="matrix(1,0,0,1,483.72093023255815,413.37209302325584)" class="pcb-silkscreen-text pcb-silkscreen-top" data-pcb-silkscreen-text-id="pcb_component_2" stroke="none" data-type="pcb_silkscreen_text" data-pcb-layer="top">R1</text><path class="pcb-silkscreen pcb-silkscreen-top" d="M 365.1162790697674 481.3953488372093 L 434.8837209302326 481.3953488372093 L 434.8837209302326 439.5348837209302 L 365.1162790697674 439.5348837209302 L 365.1162790697674 481.3953488372093 Z" fill="none" stroke="#f2eda1" stroke-width="1.3953488372093024" stroke-linecap="round" stroke-linejoin="round" data-pcb-component-id="pcb_component_3" data-pcb-silkscreen-path-id="pcb_silkscreen_path_4" data-type="pcb_silkscreen_path" data-pcb-layer="top"/><text x="0" y="0" dx="0" dy="0" fill="#f2eda1" font-family="Arial, sans-serif" font-size="11.162790697674419" text-anchor="middle" dominant-baseline="central" transform="matrix(1,0,0,1,382.27906976744185,491.1627906976744)" class="pcb-silkscreen-text pcb-silkscreen-top" data-pcb-silkscreen-text-id="pcb_component_3" stroke="none" data-type="pcb_silkscreen_text" data-pcb-layer="top">+</text><text x="0" y="0" dx="0" dy="0" fill="#f2eda1" font-family="Arial, sans-serif" font-size="11.162790697674419" text-anchor="middle" dominant-baseline="central" transform="matrix(1,0,0,1,400,429.7674418604651)" class="pcb-silkscreen-text pcb-silkscreen-top" data-pcb-silkscreen-text-id="pcb_component_3" stroke="none" data-type="pcb_silkscreen_text" data-pcb-layer="top">LED</text><g data-type="pcb_plated_hole" data-pcb-layer="through"><circle class="pcb-hole-outer" fill="rgb(200, 52, 52)" cx="382.27906976744185" cy="460.4651162790698" r="12.558139534883722" data-type="pcb_plated_hole" data-pcb-layer="top"/><circle class="pcb-hole-inner" fill="#FF26E2" cx="382.27906976744185" cy="460.4651162790698" r="6.976744186046512" data-type="pcb_plated_hole_drill" data-pcb-layer="drill"/></g><g data-type="pcb_plated_hole" data-pcb-layer="through"><circle class="pcb-hole-outer" fill="rgb(200, 52, 52)" cx="417.72093023255815" cy="460.4651162790698" r="12.558139534883722" data-type="pcb_plated_hole" data-pcb-layer="top"/><circle class="pcb-hole-inner" fill="#FF26E2" cx="417.72093023255815" cy="460.4651162790698" r="6.976744186046512" data-type="pcb_plated_hole_drill" data-pcb-layer="drill"/></g><g data-type="pcb_via" data-pcb-layer="through"><circle class="pcb-hole-outer" fill="rgb(200, 52, 52)" cx="539.5348837209302" cy="415.81395348837214" r="2.093023255813953" data-type="pcb_via" data-pcb-layer="top"/><circle class="pcb-hole-inner" fill="#FF26E2" cx="539.5348837209302" cy="415.81395348837214" r="1.3953488372093024" data-type="pcb_via" data-pcb-layer="drill"/></g><g data-type="pcb_via" data-pcb-layer="through"><circle class="pcb-hole-outer" fill="rgb(200, 52, 52)" cx="561.8604651162791" cy="415.81395348837214" r="2.093023255813953" data-type="pcb_via" data-pcb-layer="top"/><circle class="pcb-hole-inner" fill="#FF26E2" cx="561.8604651162791" cy="415.81395348837214" r="1.3953488372093024" data-type="pcb_via" data-pcb-layer="drill"/></g><g data-type="pcb_via" data-pcb-layer="through"><circle class="pcb-hole-outer" fill="rgb(200, 52, 52)" cx="427.90697674418607" cy="438.13953488372096" r="2.093023255813953" data-type="pcb_via" data-pcb-layer="top"/><circle class="pcb-hole-inner" fill="#FF26E2" cx="427.90697674418607" cy="438.13953488372096" r="1.3953488372093024" data-type="pcb_via" data-pcb-layer="drill"/></g><g data-type="pcb_via" data-pcb-layer="through"><circle class="pcb-hole-outer" fill="rgb(200, 52, 52)" cx="552.1627906976744" cy="347.2674418604651" r="2.093023255813953" data-type="pcb_via" data-pcb-layer="top"/><circle class="pcb-hole-inner" fill="#FF26E2" cx="552.1627906976744" cy="347.2674418604651" r="1.3953488372093024" data-type="pcb_via" data-pcb-layer="drill"/></g><circle class="pcb-hole" cx="400" cy="544.1860465116279" r="17.441860465116278" fill="#FF26E2" data-type="pcb_hole" data-pcb-layer="drill"/></svg>