<svg xmlns="http://www.w3.org/2000/svg" width="800" height="600" data-software-used-string="@tscircuit/core@0.0.1112"><style></style><rect class="boundary" x="0" y="0" fill="#000" width="800" height="600" data-type="pcb_background" data-pcb-layer="global"/><rect class="pcb-boundary" fill="none" stroke="#fff" stroke-width="0.3" x="86.04651162790697" y="13.953488372093034" width="627.9069767441861" height="572.0930232558139" data-type="pcb_boundary" data-pcb-layer="global"/><path class="pcb-board" d="M 400 586.046511627907 L 420.93023255813955 579.0697674418604 L 432.09302325581393 569.3023255813954 L 439.06976744186045 555.3488372093024 L 441.8604651162791 537.2093023255813 L 441.8604651162791 516.2790697674419 L 439.2093023255814 502.6046511627907 L 463.7674418604651 524.9302325581396 L 494.04651162790697 542.5116279069767 L 528.9302325581396 552.8372093023256 L 566.1860465116279 554.3720930232558 L 603.8604651162791 546.5581395348838 L 639.4418604651163 529.6744186046512 L 670 504.8372093023256 L 693.7209302325582 473.5813953488372 L 708.7906976744187 437.72093023255815 L 713.953488372093 399.34883720930236 L 708.7906976744187 360.13953488372096 L 693.7209302325582 321.34883720930236 L 670 283.6744186046512 L 639.4418604651163 247.53488372093025 L 603.8604651162791 213.06976744186048 L 566.1860465116279 179.8604651162791 L 528.9302325581396 147.90697674418607 L 494.04651162790697 117.2093023255814 L 463.7674418604651 88.04651162790697 L 439.2093023255814 60.69767441860466 L 421.2093023255814 36.41860465116281 L 409.2093023255814 20.93023255813955 L 405.5813953488372 16.74418604651163 L 402.7906976744186 14.651162790697697 L 400 13.953488372093034 L 397.2093023255814 14.651162790697697 L 394.4186046511628 16.74418604651163 L 390.7906976744186 20.93023255813955 L 378.7906976744186 36.41860465116281 L 360.7906976744186 60.69767441860466 L 336.2325581395349 88.04651162790697 L 305.95348837209303 117.2093023255814 L 271.06976744186045 147.90697674418607 L 233.81395348837208 179.8604651162791 L 196.13953488372093 213.06976744186048 L 160.5581395348837 247.53488372093025 L 130 283.6744186046512 L 106.27906976744185 321.34883720930236 L 91.2093023255814 360.13953488372096 L 86.04651162790697 399.34883720930236 L 91.2093023255814 437.72093023255815 L 106.27906976744185 473.5813953488372 L 130 504.8372093023256 L 160.5581395348837 529.6744186046512 L 196.13953488372093 546.5581395348838 L 233.81395348837208 554.3720930232558 L 271.06976744186045 552.8372093023256 L 305.95348837209303 542.5116279069767 L 336.2325581395349 524.9302325581396 L 360.7906976744186 502.6046511627907 L 358.1395348837209 516.2790697674419 L 358.1395348837209 537.2093023255813 L 360.93023255813955 555.3488372093024 L 367.90697674418607 569.3023255813954 L 379.06976744186045 579.0697674418604 Z" fill="none" stroke="rgba(255, 255, 255, 0.5)" stroke-width="1.3953488372093024" data-type="pcb_board" data-pcb-layer="board"/><path class="pcb-silkscreen pcb-silkscreen-bottom" d="M 424.4186046511628 408.13953488372096 L 400 408.13953488372096 L 400 432.5581395348837 L 424.4186046511628 432.5581395348837 L 424.4186046511628 408.13953488372096 Z" fill="none" stroke="#5da9e9" stroke-width="1.3953488372093024" stroke-linecap="round" stroke-linejoin="round" data-pcb-component-id="null" data-pcb-silkscreen-path-id="pcb_silkscreen_path_5" data-type="pcb_silkscreen_path" data-pcb-layer="bottom"/><path class="pcb-silkscreen pcb-silkscreen-bottom" d="M 412.13953488372096 420.4186046511628 L 387.72093023255815 420.4186046511628 L 387.72093023255815 444.8372093023256 L 412.13953488372096 444.8372093023256 L 412.13953488372096 420.4186046511628 Z" fill="none" stroke="#5da9e9" stroke-width="1.3953488372093024" stroke-linecap="round" stroke-linejoin="round" data-pcb-component-id="null" data-pcb-silkscreen-path-id="pcb_silkscreen_path_6" data-type="pcb_silkscreen_path" data-pcb-layer="bottom"/><path class="pcb-silkscreen pcb-silkscreen-bottom" d="M 400 432.5581395348837 L 375.5813953488372 432.5581395348837 L 375.5813953488372 456.9767441860465 L 400 456.9767441860465 L 400 432.5581395348837 Z" fill="none" stroke="#5da9e9" stroke-width="1.3953488372093024" stroke-linecap="round" stroke-linejoin="round" data-pcb-component-id="null" data-pcb-silkscreen-path-id="pcb_silkscreen_path_7" data-type="pcb_silkscreen_path" data-pcb-layer="bottom"/><path class="pcb-silkscreen pcb-silkscreen-bottom" d="M 412.13953488372096 420.4186046511628 L 400 432.5581395348837" fill="none" stroke="#5da9e9" stroke-width="1.3953488372093024" stroke-linecap="round" stroke-linejoin="round" data-pcb-component-id="null" data-pcb-silkscreen-path-id="pcb_silkscreen_path_8" data-type="pcb_silkscreen_path" data-pcb-layer="bottom"/><path class="pcb-silkscreen pcb-silkscreen-bottom" d="M 400 432.5581395348837 L 387.72093023255815 444.8372093023256" fill="none" stroke="#5da9e9" stroke-width="1.3953488372093024" stroke-linecap="round" stroke-linejoin="round" data-pcb-component-id="null" data-pcb-silkscreen-path-id="pcb_silkscreen_path_9" data-type="pcb_silkscreen_path" data-pcb-layer="bottom"/><path class="pcb-silkscreen pcb-silkscreen-bottom" d="M 436.4186046511628 391.5348837209302 L 437.95348837209303 391.5348837209302 L 437.95348837209303 402.5581395348837 L 441.8604651162791 402.5581395348837 L 441.8604651162791 403.95348837209303 L 432.37209302325584 403.95348837209303 L 432.37209302325584 402.5581395348837 L 436.4186046511628 402.5581395348837 L 436.4186046511628 391.5348837209302 Z" fill="none" stroke="#5da9e9" stroke-width="1.3953488372093024" stroke-linecap="round" stroke-linejoin="round" data-pcb-component-id="null" data-pcb-silkscreen-path-id="pcb_silkscreen_path_10" data-type="pcb_silkscreen_path" data-pcb-layer="bottom"/><path class="pcb-silkscreen pcb-silkscreen-bottom" d="M 427.3488372093023 391.3953488372093 L 427.90697674418607 391.3953488372093 L 428.4651162790698 391.5348837209302 L 429.0232558139535 391.6744186046512 L 429.4418604651163 391.95348837209303 L 430 392.2325581395349 L 430.27906976744185 392.6511627906977 L 430.69767441860466 393.06976744186045 L 430.9767441860465 393.48837209302326 L 431.1162790697674 394.04651162790697 L 431.25581395348837 394.60465116279073 L 431.3953488372093 395.3023255813954 L 431.3953488372093 396 L 431.3953488372093 396.69767441860466 L 431.25581395348837 397.25581395348837 L 431.1162790697674 397.95348837209303 L 430.9767441860465 398.51162790697674 L 430.69767441860466 398.93023255813955 L 430.27906976744185 399.34883720930236 L 430 399.76744186046517 L 429.5813953488372 400.04651162790697 L 429.0232558139535 400.3255813953489 L 428.4651162790698 400.60465116279073 L 427.90697674418607 400.60465116279073 L 427.3488372093023 400.74418604651163 L 426.7906976744186 400.60465116279073 L 426.2325581395349 400.60465116279073 L 425.6744186046512 400.3255813953489 L 425.25581395348837 400.1860465116279 L 424.83720930232556 399.76744186046517 L 424.4186046511628 399.48837209302326 L 424.13953488372096 399.06976744186045 L 423.86046511627904 398.51162790697674 L 423.72093023255815 397.95348837209303 L 423.5813953488372 397.3953488372093 L 423.4418604651163 396.8372093023256 L 423.4418604651163 396.13953488372096 L 423.4418604651163 395.5813953488372 L 430.69767441860466 395.5813953488372 L 430.69767441860466 396.8372093023256 L 424.13953488372096 396.8372093023256 L 424.9767441860465 396.2790697674419 L 424.9767441860465 396.8372093023256 L 425.1162790697674 397.6744186046512 L 425.3953488372093 398.37209302325584 L 425.8139534883721 398.79069767441865 L 426.3720930232558 399.2093023255814 L 427.06976744186045 399.34883720930236 L 427.3488372093023 399.34883720930236 L 427.7674418604651 399.34883720930236 L 428.3255813953488 399.2093023255814 L 428.74418604651163 399.06976744186045 L 429.16279069767444 398.51162790697674 L 429.5813953488372 397.95348837209303 L 429.8604651162791 397.25581395348837 L 429.8604651162791 396.2790697674419 L 429.8604651162791 395.3023255813954 L 429.72093023255815 394.4651162790698 L 429.4418604651163 393.7674418604651 L 429.16279069767444 393.48837209302326 L 428.6046511627907 393.06976744186045 L 428.04651162790697 392.79069767441865 L 427.2093023255814 392.6511627906977 L 426.6511627906977 392.6511627906977 L 426.2325581395349 392.79069767441865 L 425.8139534883721 393.06976744186045 L 425.5348837209302 393.34883720930236 L 425.25581395348837 393.6279069767442 L 424.9767441860465 394.04651162790697 L 423.5813953488372 394.04651162790697 L 423.72093023255815 393.48837209302326 L 424 392.93023255813955 L 424.27906976744185 392.51162790697674 L 424.83720930232556 392.09302325581393 L 425.25581395348837 391.81395348837214 L 425.95348837209303 391.5348837209302 L 426.51162790697674 391.3953488372093 L 427.3488372093023 391.3953488372093 Z" fill="none" stroke="#5da9e9" stroke-width="1.3953488372093024" stroke-linecap="round" stroke-linejoin="round" data-pcb-component-id="null" data-pcb-silkscreen-path-id="pcb_silkscreen_path_11" data-type="pcb_silkscreen_path" data-pcb-layer="bottom"/><path class="pcb-silkscreen pcb-silkscreen-bottom" d="M 420.37209302325584 391.5348837209302 L 421.7674418604651 391.5348837209302 L 421.7674418604651 403.95348837209303 L 420.37209302325584 403.95348837209303 L 420.37209302325584 391.5348837209302 Z" fill="none" stroke="#5da9e9" stroke-width="1.3953488372093024" stroke-linecap="round" stroke-linejoin="round" data-pcb-component-id="null" data-pcb-silkscreen-path-id="pcb_silkscreen_path_12" data-type="pcb_silkscreen_path" data-pcb-layer="bottom"/><path class="pcb-silkscreen pcb-silkscreen-bottom" d="M 414.51162790697674 391.3953488372093 L 415.2093023255814 391.3953488372093 L 415.7674418604651 391.5348837209302 L 416.3255813953488 391.6744186046512 L 416.74418604651163 391.95348837209303 L 417.16279069767444 392.2325581395349 L 417.5813953488372 392.6511627906977 L 418 393.06976744186045 L 418.27906976744185 393.48837209302326 L 418.4186046511628 394.04651162790697 L 418.5581395348837 394.60465116279073 L 418.69767441860466 395.3023255813954 L 418.69767441860466 396 L 418.69767441860466 396.69767441860466 L 418.5581395348837 397.25581395348837 L 418.4186046511628 397.95348837209303 L 418.27906976744185 398.51162790697674 L 418 398.93023255813955 L 417.5813953488372 399.34883720930236 L 417.30232558139534 399.76744186046517 L 416.74418604651163 400.04651162790697 L 416.3255813953488 400.3255813953489 L 415.7674418604651 400.60465116279073 L 415.2093023255814 400.60465116279073 L 414.6511627906977 400.74418604651163 L 414.09302325581393 400.60465116279073 L 413.5348837209302 400.60465116279073 L 412.9767441860465 400.3255813953489 L 412.5581395348837 400.1860465116279 L 412.13953488372096 399.76744186046517 L 411.72093023255815 399.48837209302326 L 411.4418604651163 399.06976744186045 L 411.16279069767444 398.51162790697674 L 411.0232558139535 397.95348837209303 L 410.8837209302326 397.3953488372093 L 410.74418604651163 396.8372093023256 L 410.74418604651163 396.13953488372096 L 410.74418604651163 395.5813953488372 L 418 395.5813953488372 L 418 396.8372093023256 L 411.4418604651163 396.8372093023256 L 412.13953488372096 396.2790697674419 L 412.27906976744185 396.8372093023256 L 412.4186046511628 397.6744186046512 L 412.69767441860466 398.37209302325584 L 413.1162790697674 398.79069767441865 L 413.6744186046512 399.2093023255814 L 414.37209302325584 399.34883720930236 L 414.6511627906977 399.34883720930236 L 415.06976744186045 399.34883720930236 L 415.6279069767442 399.2093023255814 L 416.1860465116279 398.79069767441865 L 416.74418604651163 398.2325581395349 L 417.0232558139535 397.6744186046512 L 417.16279069767444 396.69767441860466 L 417.16279069767444 396.2790697674419 L 417.16279069767444 395.3023255813954 L 417.0232558139535 394.4651162790698 L 416.74418604651163 393.7674418604651 L 416.4651162790698 393.48837209302326 L 415.90697674418607 393.06976744186045 L 415.3488372093023 392.79069767441865 L 414.51162790697674 392.6511627906977 L 413.95348837209303 392.6511627906977 L 413.5348837209302 392.79069767441865 L 413.1162790697674 393.06976744186045 L 412.69767441860466 393.34883720930236 L 412.5581395348837 393.6279069767442 L 412.27906976744185 394.04651162790697 L 410.74418604651163 394.04651162790697 L 411.0232558139535 393.48837209302326 L 411.30232558139534 392.93023255813955 L 411.5813953488372 392.51162790697674 L 412 392.09302325581393 L 412.5581395348837 391.81395348837214 L 413.25581395348837 391.5348837209302 L 413.8139534883721 391.3953488372093 L 414.51162790697674 391.3953488372093 Z" fill="none" stroke="#5da9e9" stroke-width="1.3953488372093024" stroke-linecap="round" stroke-linejoin="round" data-pcb-component-id="null" data-pcb-silkscreen-path-id="pcb_silkscreen_path_13" data-type="pcb_silkscreen_path" data-pcb-layer="bottom"/><path class="pcb-silkscreen pcb-silkscreen-bottom" d="M 407.6744186046512 391.5348837209302 L 409.2093023255814 391.5348837209302 L 409.2093023255814 400.4651162790698 L 407.6744186046512 400.4651162790698 L 407.6744186046512 399.2093023255814 L 407.5348837209302 399.48837209302326 L 407.25581395348837 399.76744186046517 L 406.9767441860465 400.04651162790697 L 406.69767441860466 400.3255813953489 L 406.27906976744185 400.4651162790698 L 406 400.60465116279073 L 405.5813953488372 400.60465116279073 L 405.16279069767444 400.74418604651163 L 404.8837209302326 400.74418604651163 L 404.6046511627907 400.60465116279073 L 404.04651162790697 400.4651162790698 L 403.6279069767442 400.1860465116279 L 403.3488372093023 400.04651162790697 L 403.06976744186045 399.76744186046517 L 402.7906976744186 399.2093023255814 L 402.6511627906977 398.93023255813955 L 402.51162790697674 399.2093023255814 L 402.09302325581393 399.6279069767442 L 401.6744186046512 400.04651162790697 L 401.25581395348837 400.3255813953489 L 400.69767441860466 400.60465116279073 L 400.13953488372096 400.74418604651163 L 399.72093023255815 400.74418604651163 L 399.30232558139534 400.60465116279073 L 398.6046511627907 400.4651162790698 L 397.90697674418607 400.1860465116279 L 397.3488372093023 399.6279069767442 L 397.06976744186045 398.93023255813955 L 396.7906976744186 398.2325581395349 L 396.7906976744186 397.6744186046512 L 396.7906976744186 391.5348837209302 L 398.3255813953488 391.5348837209302 L 398.3255813953488 397.3953488372093 L 398.4651162790698 397.95348837209303 L 398.6046511627907 398.51162790697674 L 398.8837209302326 398.79069767441865 L 399.16279069767444 399.06976744186045 L 399.72093023255815 399.34883720930236 L 400.27906976744185 399.34883720930236 L 400.83720930232556 399.34883720930236 L 401.25581395348837 399.06976744186045 L 401.6744186046512 398.79069767441865 L 401.95348837209303 398.37209302325584 L 402.2325581395349 397.81395348837214 L 402.2325581395349 397.25581395348837 L 402.2325581395349 391.5348837209302 L 403.7674418604651 391.5348837209302 L 403.7674418604651 397.5348837209302 L 403.90697674418607 398.2325581395349 L 404.1860465116279 398.6511627906977 L 404.4651162790698 399.06976744186045 L 404.8837209302326 399.2093023255814 L 405.30232558139534 399.34883720930236 L 405.5813953488372 399.34883720930236 L 406.13953488372096 399.34883720930236 L 406.69767441860466 399.06976744186045 L 407.1162790697674 398.79069767441865 L 407.3953488372093 398.2325581395349 L 407.6744186046512 397.81395348837214 L 407.6744186046512 397.1162790697675 L 407.6744186046512 391.5348837209302 Z" fill="none" stroke="#5da9e9" stroke-width="1.3953488372093024" stroke-linecap="round" stroke-linejoin="round" data-pcb-component-id="null" data-pcb-silkscreen-path-id="pcb_silkscreen_path_14" data-type="pcb_silkscreen_path" data-pcb-layer="bottom"/><path class="pcb-silkscreen pcb-silkscreen-bottom" d="M 391.2093023255814 391.3953488372093 L 391.7674418604651 391.3953488372093 L 392.4651162790698 391.5348837209302 L 392.8837209302326 391.6744186046512 L 393.4418604651163 391.95348837209303 L 393.86046511627904 392.2325581395349 L 394.27906976744185 392.6511627906977 L 394.5581395348837 393.06976744186045 L 394.83720930232556 393.48837209302326 L 395.1162790697674 394.04651162790697 L 395.25581395348837 394.60465116279073 L 395.3953488372093 395.3023255813954 L 395.3953488372093 396 L 395.3953488372093 396.69767441860466 L 395.25581395348837 397.25581395348837 L 395.1162790697674 397.95348837209303 L 394.83720930232556 398.51162790697674 L 394.5581395348837 398.93023255813955 L 394.27906976744185 399.34883720930236 L 393.86046511627904 399.76744186046517 L 393.4418604651163 400.04651162790697 L 393.0232558139535 400.3255813953489 L 392.4651162790698 400.60465116279073 L 391.90697674418607 400.60465116279073 L 391.3488372093023 400.74418604651163 L 390.6511627906977 400.60465116279073 L 390.09302325581393 400.60465116279073 L 389.6744186046512 400.3255813953489 L 389.1162790697674 400.1860465116279 L 388.69767441860466 399.76744186046517 L 388.4186046511628 399.48837209302326 L 388.13953488372096 399.06976744186045 L 387.86046511627904 398.51162790697674 L 387.5813953488372 397.95348837209303 L 387.4418604651163 397.3953488372093 L 387.30232558139534 396.8372093023256 L 387.30232558139534 396.13953488372096 L 387.30232558139534 395.5813953488372 L 394.5581395348837 395.5813953488372 L 394.5581395348837 396.8372093023256 L 388.13953488372096 396.8372093023256 L 388.83720930232556 396.2790697674419 L 388.83720930232556 396.8372093023256 L 388.9767441860465 397.6744186046512 L 389.3953488372093 398.37209302325584 L 389.8139534883721 398.79069767441865 L 390.37209302325584 399.2093023255814 L 390.93023255813955 399.34883720930236 L 391.3488372093023 399.34883720930236 L 391.6279069767442 399.34883720930236 L 392.3255813953488 399.2093023255814 L 392.8837209302326 398.79069767441865 L 393.30232558139534 398.2325581395349 L 393.5813953488372 397.6744186046512 L 393.86046511627904 396.69767441860466 L 393.86046511627904 396.2790697674419 L 393.86046511627904 395.3023255813954 L 393.72093023255815 394.4651162790698 L 393.30232558139534 393.7674418604651 L 393.16279069767444 393.48837209302326 L 392.6046511627907 393.06976744186045 L 392.3255813953488 392.93023255813955 L 391.6279069767442 392.6511627906977 L 391.2093023255814 392.6511627906977 L 390.6511627906977 392.6511627906977 L 390.09302325581393 392.79069767441865 L 389.6744186046512 393.06976744186045 L 389.3953488372093 393.34883720930236 L 389.1162790697674 393.6279069767442 L 388.9767441860465 394.04651162790697 L 387.4418604651163 394.04651162790697 L 387.5813953488372 393.48837209302326 L 387.86046511627904 392.93023255813955 L 388.27906976744185 392.51162790697674 L 388.69767441860466 392.09302325581393 L 389.25581395348837 391.81395348837214 L 389.8139534883721 391.5348837209302 L 390.51162790697674 391.3953488372093 L 391.2093023255814 391.3953488372093 Z" fill="none" stroke="#5da9e9" stroke-width="1.3953488372093024" stroke-linecap="round" stroke-linejoin="round" data-pcb-component-id="null" data-pcb-silkscreen-path-id="pcb_silkscreen_path_15" data-type="pcb_silkscreen_path" data-pcb-layer="bottom"/><path class="pcb-silkscreen pcb-silkscreen-bottom" d="M 382.83720930232556 391.3953488372093 L 383.5348837209302 391.3953488372093 L 383.95348837209303 391.5348837209302 L 384.3720930232558 391.6744186046512 L 384.7906976744186 391.95348837209303 L 385.06976744186045 392.2325581395349 L 385.2093023255814 392.6511627906977 L 385.3488372093023 393.2093023255814 L 385.3488372093023 393.7674418604651 L 385.3488372093023 399.2093023255814 L 386.74418604651163 399.2093023255814 L 386.74418604651163 400.4651162790698 L 385.3488372093023 400.4651162790698 L 385.3488372093023 402.9767441860465 L 383.8139534883721 402.9767441860465 L 383.8139534883721 400.4651162790698 L 382.13953488372096 400.4651162790698 L 382.13953488372096 399.2093023255814 L 383.8139534883721 399.2093023255814 L 383.8139534883721 393.7674418604651 L 383.6744186046512 393.2093023255814 L 383.5348837209302 392.79069767441865 L 383.1162790697674 392.6511627906977 L 382.83720930232556 392.6511627906977 L 382.5581395348837 392.51162790697674 L 382.13953488372096 392.6511627906977 L 382.13953488372096 391.3953488372093 L 382.27906976744185 391.3953488372093 L 382.5581395348837 391.3953488372093 L 382.83720930232556 391.3953488372093 Z" fill="none" stroke="#5da9e9" stroke-width="1.3953488372093024" stroke-linecap="round" stroke-linejoin="round" data-pcb-component-id="null" data-pcb-silkscreen-path-id="pcb_silkscreen_path_16" data-type="pcb_silkscreen_path" data-pcb-layer="bottom"/><path class="pcb-silkscreen pcb-silkscreen-bottom" d="M 378.93023255813955 391.5348837209302 L 380.4651162790698 391.5348837209302 L 380.4651162790698 400.4651162790698 L 378.93023255813955 400.4651162790698 L 378.93023255813955 398.93023255813955 L 378.7906976744186 399.34883720930236 L 378.37209302325584 400.04651162790697 L 377.8139534883721 400.4651162790698 L 377.25581395348837 400.60465116279073 L 376.83720930232556 400.74418604651163 L 376.5581395348837 400.74418604651163 L 376.27906976744185 400.60465116279073 L 376.27906976744185 399.2093023255814 L 376.5581395348837 399.2093023255814 L 376.83720930232556 399.2093023255814 L 377.25581395348837 399.2093023255814 L 377.8139534883721 399.06976744186045 L 378.2325581395349 398.79069767441865 L 378.6511627906977 398.51162790697674 L 378.7906976744186 397.95348837209303 L 378.93023255813955 397.3953488372093 L 378.93023255813955 397.1162790697675 L 378.93023255813955 391.5348837209302 Z" fill="none" stroke="#5da9e9" stroke-width="1.3953488372093024" stroke-linecap="round" stroke-linejoin="round" data-pcb-component-id="null" data-pcb-silkscreen-path-id="pcb_silkscreen_path_17" data-type="pcb_silkscreen_path" data-pcb-layer="bottom"/><path class="pcb-silkscreen pcb-silkscreen-bottom" d="M 371.25581395348837 391.3953488372093 L 371.8139534883721 391.3953488372093 L 372.37209302325584 391.5348837209302 L 372.93023255813955 391.6744186046512 L 373.48837209302326 391.95348837209303 L 373.90697674418607 392.2325581395349 L 374.3255813953488 392.6511627906977 L 374.6046511627907 393.06976744186045 L 374.8837209302326 393.48837209302326 L 375.16279069767444 394.04651162790697 L 375.30232558139534 394.74418604651163 L 375.4418604651163 395.3023255813954 L 375.4418604651163 396 L 375.4418604651163 396.69767441860466 L 375.30232558139534 397.3953488372093 L 375.16279069767444 397.95348837209303 L 374.8837209302326 398.51162790697674 L 374.6046511627907 399.06976744186045 L 374.3255813953488 399.48837209302326 L 373.90697674418607 399.76744186046517 L 373.48837209302326 400.1860465116279 L 372.93023255813955 400.3255813953489 L 372.37209302325584 400.60465116279073 L 371.8139534883721 400.60465116279073 L 371.25581395348837 400.74418604651163 L 370.69767441860466 400.60465116279073 L 370.1395348837209 400.60465116279073 L 369.5813953488372 400.3255813953489 L 369.0232558139535 400.1860465116279 L 368.6046511627907 399.76744186046517 L 368.1860465116279 399.48837209302326 L 367.90697674418607 399.06976744186045 L 367.62790697674416 398.51162790697674 L 367.3488372093023 397.95348837209303 L 367.2093023255814 397.3953488372093 L 367.06976744186045 396.69767441860466 L 367.06976744186045 396 L 367.06976744186045 395.3023255813954 L 367.2093023255814 394.60465116279073 L 367.3488372093023 394.04651162790697 L 367.62790697674416 393.48837209302326 L 367.90697674418607 393.06976744186045 L 368.1860465116279 392.6511627906977 L 368.6046511627907 392.2325581395349 L 369.0232558139535 391.95348837209303 L 369.5813953488372 391.6744186046512 L 370.1395348837209 391.5348837209302 L 370.69767441860466 391.3953488372093 L 371.25581395348837 391.3953488372093 Z" fill="none" stroke="#5da9e9" stroke-width="1.3953488372093024" stroke-linecap="round" stroke-linejoin="round" data-pcb-component-id="null" data-pcb-silkscreen-path-id="pcb_silkscreen_path_18" data-type="pcb_silkscreen_path" data-pcb-layer="bottom"/><path class="pcb-silkscreen pcb-silkscreen-bottom" d="M 371.25581395348837 392.6511627906977 L 370.83720930232556 392.6511627906977 L 370.1395348837209 392.93023255813955 L 369.5813953488372 393.34883720930236 L 369.16279069767444 393.90697674418607 L 368.8837209302326 394.60465116279073 L 368.6046511627907 395.4418604651163 L 368.6046511627907 396 L 368.6046511627907 396.5581395348837 L 368.8837209302326 397.3953488372093 L 369.16279069767444 398.2325581395349 L 369.5813953488372 398.79069767441865 L 370.1395348837209 399.2093023255814 L 370.83720930232556 399.34883720930236 L 371.25581395348837 399.34883720930236 L 371.6744186046512 399.34883720930236 L 372.37209302325584 399.06976744186045 L 372.93023255813955 398.79069767441865 L 373.3488372093023 398.2325581395349 L 373.7674418604651 397.3953488372093 L 373.90697674418607 396.5581395348837 L 373.90697674418607 396 L 373.90697674418607 395.4418604651163 L 373.7674418604651 394.60465116279073 L 373.3488372093023 393.90697674418607 L 372.93023255813955 393.34883720930236 L 372.37209302325584 392.93023255813955 L 371.6744186046512 392.6511627906977 L 371.25581395348837 392.6511627906977 Z" fill="none" stroke="#5da9e9" stroke-width="1.3953488372093024" stroke-linecap="round" stroke-linejoin="round" data-pcb-component-id="null" data-pcb-silkscreen-path-id="pcb_silkscreen_path_19" data-type="pcb_silkscreen_path" data-pcb-layer="bottom"/><path class="pcb-silkscreen pcb-silkscreen-bottom" d="M 364.13953488372096 391.5348837209302 L 365.5348837209302 391.5348837209302 L 365.5348837209302 400.4651162790698 L 364.13953488372096 400.4651162790698 L 364.13953488372096 399.2093023255814 L 363.8604651162791 399.48837209302326 L 363.30232558139534 400.04651162790697 L 362.6046511627907 400.4651162790698 L 361.7674418604651 400.60465116279073 L 361.2093023255814 400.74418604651163 L 360.51162790697674 400.60465116279073 L 359.3953488372093 400.1860465116279 L 358.5581395348837 399.34883720930236 L 358.1395348837209 398.093023255814 L 358.1395348837209 397.3953488372093 L 358.1395348837209 391.5348837209302 L 359.6744186046512 391.5348837209302 L 359.6744186046512 397.1162790697675 L 359.8139534883721 398.093023255814 L 360.2325581395349 398.79069767441865 L 360.7906976744186 399.2093023255814 L 361.2093023255814 399.34883720930236 L 361.7674418604651 399.34883720930236 L 362.3255813953488 399.34883720930236 L 363.0232558139535 399.06976744186045 L 363.4418604651163 398.6511627906977 L 363.72093023255815 398.093023255814 L 364 397.5348837209302 L 364.13953488372096 396.8372093023256 L 364.13953488372096 391.5348837209302 Z" fill="none" stroke="#5da9e9" stroke-width="1.3953488372093024" stroke-linecap="round" stroke-linejoin="round" data-pcb-component-id="null" data-pcb-silkscreen-path-id="pcb_silkscreen_path_20" data-type="pcb_silkscreen_path" data-pcb-layer="bottom"/><rect class="pcb-pad" fill="rgb(200, 52, 52)" x="300.23255813953483" y="233.72093023255815" width="34.883720930232556" height="34.883720930232556" data-type="pcb_smtpad" data-pcb-layer="top"/><rect class="pcb-pad" fill="rgb(200, 52, 52)" x="464.8837209302326" y="233.72093023255815" width="34.883720930232556" height="34.883720930232556" data-type="pcb_smtpad" data-pcb-layer="top"/><rect class="pcb-pad" fill="rgb(200, 52, 52)" x="231.1627906976744" y="426.27906976744185" width="16.744186046511626" height="12.558139534883722" data-type="pcb_smtpad" data-pcb-layer="top"/><rect class="pcb-pad" fill="rgb(200, 52, 52)" x="252.09302325581396" y="426.27906976744185" width="16.744186046511626" height="12.558139534883722" data-type="pcb_smtpad" data-pcb-layer="top"/><rect class="pcb-pad" fill="rgb(200, 52, 52)" x="273.02325581395354" y="426.27906976744185" width="16.744186046511626" height="12.558139534883722" data-type="pcb_smtpad" data-pcb-layer="top"/><rect class="pcb-pad" fill="rgb(200, 52, 52)" x="285.2325581395349" y="384.06976744186045" width="11.162790697674419" height="13.25581395348837" data-type="pcb_smtpad" data-pcb-layer="top"/><rect class="pcb-pad" fill="rgb(200, 52, 52)" x="308.2558139534884" y="384.06976744186045" width="11.162790697674419" height="13.25581395348837" data-type="pcb_smtpad" data-pcb-layer="top"/><path class="pcb-trace" stroke="rgb(200, 52, 52)" fill="none" d="M 382.27906976744185 390.69767441860466 L 313.8372093023256 390.69767441860466" stroke-width="2.093023255813953" stroke-linecap="round" stroke-linejoin="round" shape-rendering="crispEdges" data-type="pcb_trace" data-pcb-layer="top"/><path class="pcb-trace" stroke="rgb(200, 52, 52)" fill="none" d="M 313.8372093023256 390.69767441860466 L 313.8372093023256 390.69767441860466" stroke-width="2.093023255813953" stroke-linecap="round" stroke-linejoin="round" shape-rendering="crispEdges" data-type="pcb_trace" data-pcb-layer="top"/><path class="pcb-trace" stroke="rgb(200, 52, 52)" fill="none" d="M 290.8139534883721 390.69767441860466 L 290.8139534883721 402.2093023255814" stroke-width="2.093023255813953" stroke-linecap="round" stroke-linejoin="round" shape-rendering="crispEdges" data-type="pcb_trace" data-pcb-layer="top"/><path class="pcb-trace" stroke="rgb(200, 52, 52)" fill="none" d="M 290.8139534883721 402.2093023255814 L 260.4651162790698 432.5581395348837" stroke-width="2.093023255813953" stroke-linecap="round" stroke-linejoin="round" shape-rendering="crispEdges" data-type="pcb_trace" data-pcb-layer="top"/><path class="pcb-trace" stroke="rgb(200, 52, 52)" fill="none" d="M 417.72093023255815 390.69767441860466 L 417.72093023255815 315.76744186046517" stroke-width="2.093023255813953" stroke-linecap="round" stroke-linejoin="round" shape-rendering="crispEdges" data-type="pcb_trace" data-pcb-layer="top"/><path class="pcb-trace" stroke="rgb(200, 52, 52)" fill="none" d="M 417.72093023255815 315.76744186046517 L 482.3255813953489 251.16279069767444" stroke-width="2.093023255813953" stroke-linecap="round" stroke-linejoin="round" shape-rendering="crispEdges" data-type="pcb_trace" data-pcb-layer="top"/><path class="pcb-trace" stroke="rgb(200, 52, 52)" fill="none" d="M 239.53488372093022 432.5581395348837 L 239.53488372093022 329.30232558139534" stroke-width="2.093023255813953" stroke-linecap="round" stroke-linejoin="round" shape-rendering="crispEdges" data-type="pcb_trace" data-pcb-layer="top"/><path class="pcb-trace" stroke="rgb(200, 52, 52)" fill="none" d="M 239.53488372093022 329.30232558139534 L 317.6744186046511 251.16279069767444" stroke-width="2.093023255813953" stroke-linecap="round" stroke-linejoin="round" shape-rendering="crispEdges" data-type="pcb_trace" data-pcb-layer="top"/><path class="pcb-silkscreen pcb-silkscreen-top" d="M 317.6744186046511 279.06976744186045 L 317.6744186046511 223.25581395348837" fill="none" stroke="#f2eda1" stroke-width="1.3953488372093024" stroke-linecap="round" stroke-linejoin="round" data-pcb-component-id="pcb_component_0" data-pcb-silkscreen-path-id="pcb_silkscreen_path_0" data-type="pcb_silkscreen_path" data-pcb-layer="top"/><path class="pcb-silkscreen pcb-silkscreen-top" d="M 309.30232558139534 251.16279069767444 L 326.04651162790697 251.16279069767444" fill="none" stroke="#f2eda1" stroke-width="1.3953488372093024" stroke-linecap="round" stroke-linejoin="round" data-pcb-component-id="pcb_component_0" data-pcb-silkscreen-path-id="pcb_silkscreen_path_1" data-type="pcb_silkscreen_path" data-pcb-layer="top"/><text x="0" y="0" dx="0" dy="0" fill="#f2eda1" font-family="Arial, sans-serif" font-size="13.953488372093023" text-anchor="middle" dominant-baseline="central" transform="matrix(1,0,0,1,317.6744186046511,293.0232558139535)" class="pcb-silkscreen-text pcb-silkscreen-top" data-pcb-silkscreen-text-id="pcb_component_0" stroke="none" data-type="pcb_silkscreen_text" data-pcb-layer="top">+</text><text x="0" y="0" dx="0" dy="0" fill="#f2eda1" font-family="Arial, sans-serif" font-size="13.953488372093023" text-anchor="middle" dominant-baseline="central" transform="matrix(1,0,0,1,482.3255813953489,293.0232558139535)" class="pcb-silkscreen-text pcb-silkscreen-top" data-pcb-silkscreen-text-id="pcb_component_0" stroke="none" data-type="pcb_silkscreen_text" data-pcb-layer="top">-</text><path class="pcb-silkscreen pcb-silkscreen-top" d="M 225.58139534883722 453.48837209302326 L 295.34883720930236 453.48837209302326 L 295.34883720930236 411.6279069767442 L 225.58139534883722 411.6279069767442 L 225.58139534883722 453.48837209302326 Z" fill="none" stroke="#f2eda1" stroke-width="1.3953488372093024" stroke-linecap="round" stroke-linejoin="round" data-pcb-component-id="pcb_component_1" data-pcb-silkscreen-path-id="pcb_silkscreen_path_2" data-type="pcb_silkscreen_path" data-pcb-layer="top"/><path class="pcb-silkscreen pcb-silkscreen-top" d="M 313.8372093023256 378.48837209302326 L 282.4418604651163 378.48837209302326 L 282.4418604651163 402.90697674418607 L 313.8372093023256 402.90697674418607" fill="none" stroke="#f2eda1" stroke-width="1.3953488372093024" stroke-linecap="round" stroke-linejoin="round" data-pcb-component-id="pcb_component_2" data-pcb-silkscreen-path-id="pcb_silkscreen_path_3" data-type="pcb_silkscreen_path" data-pcb-layer="top"/><text x="0" y="0" dx="0" dy="0" fill="#f2eda1" font-family="Arial, sans-serif" font-size="5.5813953488372094" text-anchor="middle" dominant-baseline="central" transform="matrix(1,0,0,1,302.3255813953488,371.51162790697674)" class="pcb-silkscreen-text pcb-silkscreen-top" data-pcb-silkscreen-text-id="pcb_component_2" stroke="none" data-type="pcb_silkscreen_text" data-pcb-layer="top">R1</text><path class="pcb-silkscreen pcb-silkscreen-top" d="M 365.1162790697674 411.6279069767442 L 434.8837209302326 411.6279069767442 L 434.8837209302326 369.7674418604651 L 365.1162790697674 369.7674418604651 L 365.1162790697674 411.6279069767442 Z" fill="none" stroke="#f2eda1" stroke-width="1.3953488372093024" stroke-linecap="round" stroke-linejoin="round" data-pcb-component-id="pcb_component_3" data-pcb-silkscreen-path-id="pcb_silkscreen_path_4" data-type="pcb_silkscreen_path" data-pcb-layer="top"/><text x="0" y="0" dx="0" dy="0" fill="#f2eda1" font-family="Arial, sans-serif" font-size="11.162790697674419" text-anchor="middle" dominant-baseline="central" transform="matrix(1,0,0,1,382.27906976744185,421.3953488372093)" class="pcb-silkscreen-text pcb-silkscreen-top" data-pcb-silkscreen-text-id="pcb_component_3" stroke="none" data-type="pcb_silkscreen_text" data-pcb-layer="top">+</text><text x="0" y="0" dx="0" dy="0" fill="#f2eda1" font-family="Arial, sans-serif" font-size="11.162790697674419" text-anchor="middle" dominant-baseline="central" transform="matrix(1,0,0,1,400,360)" class="pcb-silkscreen-text pcb-silkscreen-top" data-pcb-silkscreen-text-id="pcb_component_3" stroke="none" data-type="pcb_silkscreen_text" data-pcb-layer="top">LED</text><g data-type="pcb_plated_hole" data-pcb-layer="through"><circle class="pcb-hole-outer" fill="rgb(200, 52, 52)" cx="382.27906976744185" cy="390.69767441860466" r="12.558139534883722" data-type="pcb_plated_hole" data-pcb-layer="top"/><circle class="pcb-hole-inner" fill="#FF26E2" cx="382.27906976744185" cy="390.69767441860466" r="6.976744186046512" data-type="pcb_plated_hole_drill" data-pcb-layer="drill"/></g><g data-type="pcb_plated_hole" data-pcb-layer="through"><circle class="pcb-hole-outer" fill="rgb(200, 52, 52)" cx="417.72093023255815" cy="390.69767441860466" r="12.558139534883722" data-type="pcb_plated_hole" data-pcb-layer="top"/><circle class="pcb-hole-inner" fill="#FF26E2" cx="417.72093023255815" cy="390.69767441860466" r="6.976744186046512" data-type="pcb_plated_hole_drill" data-pcb-layer="drill"/></g><circle class="pcb-hole" cx="400" cy="544.1860465116279" r="17.441860465116278" fill="#FF26E2" data-type="pcb_hole" data-pcb-layer="drill"/></svg>