0
SECTION
2
ENTITIES
0
LWPOLYLINE
8
0
70
1
90
496
10
0.0000
20
-20.0000
10
0.2600
20
-19.9900
10
0.5200
20
-19.9600
10
0.7900
20
-19.9100
10
1.0500
20
-19.8400
10
1.3100
20
-19.7700
10
1.5600
20
-19.6800
10
1.7900
20
-19.5900
10
2.0000
20
-19.5000
10
2.1900
20
-19.4000
10
2.3700
20
-19.3000
10
2.5300
20
-19.1900
10
2.6900
20
-19.0700
10
2.8300
20
-18.9500
10
2.9600
20
-18.8100
10
3.0800
20
-18.6600
10
3.2000
20
-18.5000
10
3.3100
20
-18.3200
10
3.4000
20
-18.1100
10
3.4900
20
-17.9000
10
3.5600
20
-17.6700
10
3.6300
20
-17.4400
10
3.6900
20
-17.2100
10
3.7500
20
-17.0000
10
3.8000
20
-16.8000
10
3.8500
20
-16.6100
10
3.8800
20
-16.4200
10
3.9100
20
-16.2400
10
3.9300
20
-16.0600
10
3.9500
20
-15.9000
10
3.9700
20
-15.7500
10
3.9800
20
-15.6100
10
4.0000
20
-15.5000
10
4.0100
20
-15.4100
10
4.0200
20
-15.3500
10
4.0300
20
-15.3100
10
4.0300
20
-15.2800
10
4.0300
20
-15.2600
10
4.0400
20
-15.2400
10
4.0400
20
-15.2300
10
4.0500
20
-15.2000
10
4.0600
20
-15.1700
10
4.0700
20
-15.1400
10
4.0800
20
-15.1200
10
4.0900
20
-15.0900
10
4.1100
20
-15.0700
10
4.1200
20
-15.0400
10
4.1300
20
-15.0200
10
4.1500
20
-15.0000
10
4.1700
20
-14.9800
10
4.1800
20
-14.9600
10
4.2000
20
-14.9400
10
4.2100
20
-14.9300
10
4.2300
20
-14.9100
10
4.2500
20
-14.8900
10
4.2800
20
-14.8700
10
4.3000
20
-14.8500
10
4.3200
20
-14.8100
10
4.3100
20
-14.7600
10
4.3100
20
-14.7000
10
4.3100
20
-14.6500
10
4.3200
20
-14.6000
10
4.3700
20
-14.5700
10
4.4400
20
-14.5800
10
4.5700
20
-14.6200
10
4.7500
20
-14.7100
10
4.9700
20
-14.8400
10
5.2300
20
-15.0100
10
5.5200
20
-15.1900
10
5.8200
20
-15.3800
10
6.1300
20
-15.5700
10
6.4400
20
-15.7400
10
6.7400
20
-15.8800
10
7.0400
20
-16.0000
10
7.3400
20
-16.1200
10
7.6500
20
-16.2200
10
7.9600
20
-16.3200
10
8.2800
20
-16.4100
10
8.6000
20
-16.4900
10
8.9200
20
-16.5600
10
9.2400
20
-16.6200
10
9.5700
20
-16.6700
10
9.8900
20
-16.7100
10
10.2300
20
-16.7400
10
10.5600
20
-16.7600
10
10.9000
20
-16.7700
10
11.2400
20
-16.7600
10
11.5700
20
-16.7500
10
11.9100
20
-16.7300
10
12.2500
20
-16.7000
10
12.5900
20
-16.6500
10
12.9300
20
-16.6000
10
13.2700
20
-16.5300
10
13.6100
20
-16.4600
10
13.9400
20
-16.3700
10
14.2800
20
-16.2800
10
14.6100
20
-16.1700
10
14.9400
20
-16.0500
10
15.2700
20
-15.9300
10
15.5900
20
-15.7900
10
15.9200
20
-15.6400
10
16.2400
20
-15.4800
10
16.5500
20
-15.3200
10
16.8600
20
-15.1400
10
17.1600
20
-14.9600
10
17.4500
20
-14.7700
10
17.7400
20
-14.5700
10
18.0300
20
-14.3500
10
18.3100
20
-14.1300
10
18.5800
20
-13.9100
10
18.8500
20
-13.6700
10
19.1000
20
-13.4300
10
19.3500
20
-13.1800
10
19.5900
20
-12.9200
10
19.8200
20
-12.6600
10
20.0500
20
-12.3900
10
20.2700
20
-12.1100
10
20.4800
20
-11.8200
10
20.6800
20
-11.5300
10
20.8700
20
-11.2400
10
21.0500
20
-10.9400
10
21.2200
20
-10.6400
10
21.3800
20
-10.3200
10
21.5300
20
-10.0100
10
21.6700
20
-9.6900
10
21.8000
20
-9.3600
10
21.9200
20
-9.0300
10
22.0300
20
-8.7000
10
22.1300
20
-8.3700
10
22.2200
20
-8.0400
10
22.2900
20
-7.7000
10
22.3500
20
-7.3500
10
22.4100
20
-7.0100
10
22.4500
20
-6.6600
10
22.4800
20
-6.3200
10
22.4900
20
-5.9700
10
22.5000
20
-5.6200
10
22.4900
20
-5.2700
10
22.4800
20
-4.9200
10
22.4500
20
-4.5700
10
22.4100
20
-4.2200
10
22.3500
20
-3.8600
10
22.2900
20
-3.5100
10
22.2200
20
-3.1600
10
22.1300
20
-2.8100
10
22.0300
20
-2.4600
10
21.9200
20
-2.1100
10
21.8000
20
-1.7600
10
21.6700
20
-1.4100
10
21.5300
20
-1.0700
10
21.3800
20
-0.7200
10
21.2200
20
-0.3700
10
21.0500
20
-0.0300
10
20.8700
20
0.3100
10
20.6800
20
0.6500
10
20.4800
20
0.9900
10
20.2700
20
1.3300
10
20.0500
20
1.6700
10
19.8200
20
2.0000
10
19.5900
20
2.3400
10
19.3500
20
2.6700
10
19.1000
20
3.0000
10
18.8500
20
3.3300
10
18.5800
20
3.6500
10
18.3100
20
3.9800
10
18.0300
20
4.3000
10
17.7400
20
4.6200
10
17.4500
20
4.9400
10
17.1600
20
5.2600
10
16.8600
20
5.5800
10
16.5500
20
5.8900
10
16.2400
20
6.2000
10
15.9200
20
6.5100
10
15.5900
20
6.8200
10
15.2700
20
7.1200
10
14.9400
20
7.4300
10
14.6100
20
7.7300
10
14.2800
20
8.0300
10
13.9400
20
8.3300
10
13.6100
20
8.6300
10
13.2700
20
8.9300
10
12.9300
20
9.2300
10
12.5900
20
9.5200
10
12.2500
20
9.8200
10
11.9100
20
10.1100
10
11.5700
20
10.4000
10
11.2400
20
10.6900
10
10.9000
20
10.9800
10
10.5600
20
11.2700
10
10.2300
20
11.5500
10
9.8900
20
11.8400
10
9.5700
20
12.1200
10
9.2400
20
12.4000
10
8.9200
20
12.6800
10
8.6000
20
12.9600
10
8.2800
20
13.2400
10
7.9600
20
13.5100
10
7.6500
20
13.7900
10
7.3400
20
14.0600
10
7.0400
20
14.3300
10
6.7400
20
14.6000
10
6.4500
20
14.8700
10
6.1600
20
15.1300
10
5.8800
20
15.4000
10
5.6100
20
15.6600
10
5.3400
20
15.9200
10
5.0800
20
16.1800
10
4.8200
20
16.4400
10
4.5700
20
16.6900
10
4.3300
20
16.9500
10
4.0800
20
17.2200
10
3.8500
20
17.4800
10
3.6200
20
17.7500
10
3.4000
20
18.0000
10
3.1900
20
18.2400
10
2.9900
20
18.4600
10
2.8100
20
18.6500
10
2.6500
20
18.8100
10
2.5000
20
18.9500
10
2.3600
20
19.0700
10
2.2300
20
19.1800
10
2.1200
20
19.2700
10
2.0100
20
19.3500
10
1.9000
20
19.4300
10
1.8000
20
19.5000
10
1.7100
20
19.5600
10
1.6200
20
19.6200
10
1.5400
20
19.6600
10
1.4700
20
19.6900
10
1.4100
20
19.7200
10
1.3400
20
19.7500
10
1.2700
20
19.7700
10
1.2000
20
19.8000
10
1.1300
20
19.8300
10
1.0500
20
19.8500
10
0.9700
20
19.8700
10
0.9000
20
19.8900
10
0.8300
20
19.9100
10
0.7500
20
19.9200
10
0.6700
20
19.9400
10
0.6000
20
19.9500
10
0.5300
20
19.9600
10
0.4500
20
19.9700
10
0.3800
20
19.9800
10
0.3000
20
19.9900
10
0.2200
20
19.9900
10
0.1500
20
20.0000
10
0.0700
20
20.0000
10
0.0000
20
20.0000
10
-0.0700
20
20.0000
10
-0.1500
20
20.0000
10
-0.2200
20
19.9900
10
-0.3000
20
19.9900
10
-0.3700
20
19.9800
10
-0.4500
20
19.9700
10
-0.5300
20
19.9600
10
-0.6000
20
19.9500
10
-0.6700
20
19.9400
10
-0.7500
20
19.9200
10
-0.8200
20
19.9100
10
-0.9000
20
19.8900
10
-0.9700
20
19.8700
10
-1.0500
20
19.8500
10
-1.1200
20
19.8300
10
-1.2000
20
19.8000
10
-1.2700
20
19.7700
10
-1.3400
20
19.7500
10
-1.4100
20
19.7200
10
-1.4700
20
19.6900
10
-1.5400
20
19.6600
10
-1.6200
20
19.6200
10
-1.7100
20
19.5600
10
-1.8000
20
19.5000
10
-1.9000
20
19.4300
10
-2.0100
20
19.3500
10
-2.1200
20
19.2700
10
-2.2300
20
19.1800
10
-2.3600
20
19.0700
10
-2.5000
20
18.9500
10
-2.6500
20
18.8100
10
-2.8100
20
18.6500
10
-2.9900
20
18.4600
10
-3.1900
20
18.2400
10
-3.4000
20
18.0000
10
-3.6200
20
17.7500
10
-3.8500
20
17.4800
10
-4.0800
20
17.2200
10
-4.3300
20
16.9500
10
-4.5700
20
16.6900
10
-4.8200
20
16.4400
10
-5.0800
20
16.1800
10
-5.3400
20
15.9200
10
-5.6100
20
15.6600
10
-5.8800
20
15.4000
10
-6.1600
20
15.1300
10
-6.4500
20
14.8700
10
-6.7400
20
14.6000
10
-7.0400
20
14.3300
10
-7.3400
20
14.0600
10
-7.6500
20
13.7900
10
-7.9600
20
13.5100
10
-8.2800
20
13.2400
10
-8.6000
20
12.9600
10
-8.9200
20
12.6800
10
-9.2400
20
12.4000
10
-9.5700
20
12.1200
10
-9.8900
20
11.8400
10
-10.2300
20
11.5500
10
-10.5600
20
11.2700
10
-10.9000
20
10.9800
10
-11.2400
20
10.6900
10
-11.5700
20
10.4000
10
-11.9100
20
10.1100
10
-12.2500
20
9.8200
10
-12.5900
20
9.5200
10
-12.9300
20
9.2300
10
-13.2700
20
8.9300
10
-13.6100
20
8.6300
10
-13.9400
20
8.3300
10
-14.2800
20
8.0300
10
-14.6100
20
7.7300
10
-14.9400
20
7.4300
10
-15.2700
20
7.1200
10
-15.5900
20
6.8200
10
-15.9200
20
6.5100
10
-16.2400
20
6.2000
10
-16.5500
20
5.8900
10
-16.8600
20
5.5800
10
-17.1600
20
5.2600
10
-17.4500
20
4.9400
10
-17.7400
20
4.6200
10
-18.0300
20
4.3000
10
-18.3100
20
3.9800
10
-18.5800
20
3.6500
10
-18.8500
20
3.3300
10
-19.1000
20
3.0000
10
-19.3500
20
2.6700
10
-19.5900
20
2.3400
10
-19.8200
20
2.0000
10
-20.0500
20
1.6700
10
-20.2700
20
1.3300
10
-20.4800
20
0.9900
10
-20.6800
20
0.6500
10
-20.8700
20
0.3100
10
-21.0500
20
-0.0300
10
-21.2200
20
-0.3700
10
-21.3800
20
-0.7200
10
-21.5300
20
-1.0700
10
-21.6700
20
-1.4100
10
-21.8000
20
-1.7600
10
-21.9200
20
-2.1100
10
-22.0300
20
-2.4600
10
-22.1300
20
-2.8100
10
-22.2200
20
-3.1600
10
-22.2900
20
-3.5100
10
-22.3500
20
-3.8600
10
-22.4100
20
-4.2200
10
-22.4500
20
-4.5700
10
-22.4800
20
-4.9200
10
-22.4900
20
-5.2700
10
-22.5000
20
-5.6200
10
-22.4900
20
-5.9700
10
-22.4800
20
-6.3200
10
-22.4500
20
-6.6600
10
-22.4100
20
-7.0100
10
-22.3500
20
-7.3500
10
-22.2900
20
-7.7000
10
-22.2200
20
-8.0400
10
-22.1300
20
-8.3700
10
-22.0300
20
-8.7000
10
-21.9200
20
-9.0300
10
-21.8000
20
-9.3600
10
-21.6700
20
-9.6900
10
-21.5300
20
-10.0100
10
-21.3800
20
-10.3200
10
-21.2200
20
-10.6400
10
-21.0500
20
-10.9400
10
-20.8700
20
-11.2400
10
-20.6800
20
-11.5300
10
-20.4800
20
-11.8200
10
-20.2700
20
-12.1100
10
-20.0500
20
-12.3900
10
-19.8200
20
-12.6600
10
-19.5900
20
-12.9200
10
-19.3500
20
-13.1800
10
-19.1000
20
-13.4300
10
-18.8500
20
-13.6700
10
-18.5800
20
-13.9100
10
-18.3100
20
-14.1300
10
-18.0300
20
-14.3500
10
-17.7400
20
-14.5700
10
-17.4500
20
-14.7700
10
-17.1600
20
-14.9600
10
-16.8600
20
-15.1400
10
-16.5500
20
-15.3200
10
-16.2400
20
-15.4800
10
-15.9200
20
-15.6400
10
-15.5900
20
-15.7900
10
-15.2700
20
-15.9300
10
-14.9400
20
-16.0500
10
-14.6100
20
-16.1700
10
-14.2800
20
-16.2800
10
-13.9400
20
-16.3700
10
-13.6100
20
-16.4600
10
-13.2700
20
-16.5300
10
-12.9300
20
-16.6000
10
-12.5900
20
-16.6500
10
-12.2500
20
-16.7000
10
-11.9100
20
-16.7300
10
-11.5700
20
-16.7500
10
-11.2400
20
-16.7600
10
-10.9000
20
-16.7700
10
-10.5600
20
-16.7600
10
-10.2300
20
-16.7400
10
-9.8900
20
-16.7100
10
-9.5700
20
-16.6700
10
-9.2400
20
-16.6200
10
-8.9200
20
-16.5600
10
-8.6000
20
-16.4900
10
-8.2800
20
-16.4100
10
-7.9600
20
-16.3200
10
-7.6500
20
-16.2200
10
-7.3400
20
-16.1200
10
-7.0400
20
-16.0000
10
-6.7400
20
-15.8800
10
-6.4400
20
-15.7400
10
-6.1300
20
-15.5700
10
-5.8200
20
-15.3800
10
-5.5200
20
-15.1900
10
-5.2300
20
-15.0100
10
-4.9700
20
-14.8400
10
-4.7500
20
-14.7100
10
-4.5700
20
-14.6200
10
-4.4400
20
-14.5800
10
-4.3700
20
-14.5700
10
-4.3200
20
-14.6000
10
-4.3100
20
-14.6500
10
-4.3100
20
-14.7000
10
-4.3100
20
-14.7600
10
-4.3200
20
-14.8100
10
-4.3000
20
-14.8500
10
-4.2800
20
-14.8700
10
-4.2500
20
-14.8900
10
-4.2300
20
-14.9100
10
-4.2100
20
-14.9300
10
-4.2000
20
-14.9400
10
-4.1800
20
-14.9600
10
-4.1700
20
-14.9800
10
-4.1500
20
-15.0000
10
-4.1300
20
-15.0200
10
-4.1200
20
-15.0400
10
-4.1100
20
-15.0700
10
-4.0900
20
-15.0900
10
-4.0800
20
-15.1200
10
-4.0700
20
-15.1400
10
-4.0600
20
-15.1700
10
-4.0500
20
-15.2000
10
-4.0400
20
-15.2300
10
-4.0400
20
-15.2400
10
-4.0300
20
-15.2600
10
-4.0300
20
-15.2800
10
-4.0300
20
-15.3100
10
-4.0200
20
-15.3500
10
-4.0100
20
-15.4100
10
-4.0000
20
-15.5000
10
-3.9800
20
-15.6100
10
-3.9700
20
-15.7500
10
-3.9500
20
-15.9000
10
-3.9300
20
-16.0600
10
-3.9100
20
-16.2400
10
-3.8800
20
-16.4200
10
-3.8500
20
-16.6100
10
-3.8000
20
-16.8000
10
-3.7500
20
-17.0000
10
-3.6900
20
-17.2100
10
-3.6300
20
-17.4400
10
-3.5600
20
-17.6700
10
-3.4900
20
-17.9000
10
-3.4000
20
-18.1100
10
-3.3100
20
-18.3200
10
-3.2000
20
-18.5000
10
-3.0800
20
-18.6600
10
-2.9600
20
-18.8100
10
-2.8300
20
-18.9500
10
-2.6900
20
-19.0700
10
-2.5300
20
-19.1900
10
-2.3700
20
-19.3000
10
-2.1900
20
-19.4000
10
-2.0000
20
-19.5000
10
-1.7900
20
-19.5900
10
-1.5600
20
-19.6800
10
-1.3100
20
-19.7700
10
-1.0500
20
-19.8400
10
-0.7900
20
-19.9100
10
-0.5200
20
-19.9600
10
-0.2600
20
-19.9900
0
ENDSEC
0
EOF
