<?xml version="1.0" standalone="no"?>
<!DOCTYPE svg PUBLIC "-//W3C//DTD SVG 20010904//EN"
 "http://www.w3.org/TR/2001/REC-SVG-20010904/DTD/svg10.dtd">
<svg version="1.0" xmlns="http://www.w3.org/2000/svg"
 width="600.000000pt" height="600.000000pt" viewBox="0 0 600.000000 600.000000"
 preserveAspectRatio="xMidYMid meet">
<metadata>
Created by potrace 1.16, written by Peter Selinger 2001-2019
</metadata>
<g transform="translate(0.000000,600.000000) scale(0.100000,-0.100000)"
fill="#000000" stroke="none">
<path d="M1783 4578 c-25 -12 -22 -7 -71 -143 -41 -118 -45 -179 -15 -247 20
-45 1219 -1650 1251 -1675 29 -23 86 -16 114 15 65 69 1226 1632 1241 1670 9
23 17 61 17 85 0 46 -64 252 -87 279 -21 23 -59 31 -87 16 -13 -7 -269 -204
-570 -438 -368 -286 -556 -426 -574 -428 -23 -2 -93 48 -418 300 -656 511
-729 566 -755 572 -13 3 -34 0 -46 -6z"/>
<path d="M3663 2062 c-156 -56 -229 -169 -221 -341 3 -71 9 -95 33 -139 130
-239 493 -236 612 6 25 51 28 68 28 157 0 89 -3 106 -26 150 -62 116 -159 176
-294 182 -59 3 -93 -1 -132 -15z m166 -142 c139 -40 159 -275 29 -341 -83 -42
-186 -11 -223 67 -38 80 -28 167 26 229 43 49 101 64 168 45z"/>
<path d="M1030 2063 c0 -3 57 -144 126 -312 69 -168 128 -312 131 -318 4 -9
32 -13 93 -13 l87 0 126 308 c69 169 127 314 129 322 2 12 -12 15 -81 15 l-84
0 -81 -202 c-45 -112 -85 -201 -90 -200 -4 2 -43 88 -85 192 -42 105 -80 196
-84 203 -9 13 -187 18 -187 5z"/>
<path d="M1840 1745 l0 -325 85 0 85 0 0 325 0 325 -85 0 -85 0 0 -325z"/>
<path d="M2154 2057 c-3 -8 -4 -41 -2 -73 l3 -59 143 -3 c78 -1 142 -5 142 -7
0 -2 -67 -90 -150 -196 l-150 -191 0 -54 0 -54 268 2 267 3 0 65 0 65 -153 3
c-127 2 -153 5 -149 16 3 8 69 96 147 195 l141 181 -3 57 -3 58 -248 3 c-203
2 -248 0 -253 -11z"/>
<path d="M3014 2060 c-102 -21 -195 -96 -237 -189 -32 -71 -30 -189 5 -262 32
-69 88 -128 153 -159 65 -32 189 -39 268 -16 60 17 142 73 142 97 0 7 -21 34
-47 58 l-48 43 -33 -25 c-67 -51 -155 -55 -223 -10 -68 44 -85 186 -30 258 57
75 170 87 245 27 l40 -32 52 48 c33 31 50 54 47 63 -8 21 -80 69 -129 86 -54
18 -152 25 -205 13z"/>
<path d="M4250 1745 l0 -325 80 0 80 0 0 160 c0 88 3 160 8 160 4 0 39 -58 77
-128 68 -124 71 -127 106 -130 43 -4 46 0 133 156 31 56 61 102 67 102 5 0 9
-66 9 -160 l0 -160 80 0 80 0 -2 323 -3 322 -71 3 -71 3 -104 -185 c-57 -102
-108 -184 -114 -183 -5 2 -55 84 -111 183 l-101 179 -71 3 -72 3 0 -326z"/>
</g>
</svg>
