%TF.GenerationSoftware,tscircuit,circuit-json-to-gerber,0.0.47*%
%TF.CreationDate,2026-03-14T05:51:03.023Z*%
%TF.SameCoordinates,Original*%
%TF.FileFunction,Profile,NP*%
%FSLAX46Y46*%
%MOMM*%
G04 Gerber Fmt 4.6, Leading zero omitted, Abs format (unit mm)*
G04 Created by tscircuit (builder) date 2026-03-14T05:51:03.023Z*
G01*
%LPD*%
G75*
%ADD10C,0.050000*%
D10*
X000000000Y-07030000D02*
X000030000Y-07340000D01*
X000200000Y-08240000D01*
X000660000Y-09600000D01*
X001520000Y-11280000D01*
X002810000Y-13020000D01*
X004570000Y-14620000D01*
X006740000Y-15880000D01*
X009240000Y-16620000D01*
X011910000Y-16730000D01*
X014610000Y-16170000D01*
X017160000Y-14960000D01*
X019350000Y-13180000D01*
X021050000Y-10940000D01*
X022130000Y-08370000D01*
X022500000Y-05620000D01*
X022130000Y-02810000D01*
X021050000Y-00030000D01*
X019350000Y002670000D01*
X017160000Y005260000D01*
X014610000Y007730000D01*
X011910000Y010110000D01*
X009240000Y012400000D01*
X006740000Y014600000D01*
X004570000Y016690000D01*
X002810000Y018650000D01*
X001520000Y020390000D01*
X000660000Y021850000D01*
X000200000Y022960000D01*
X000030000Y023670000D01*
X000000000Y023910000D01*
X-00030000Y023670000D01*
X-00200000Y022960000D01*
X-00660000Y021850000D01*
X-01520000Y020390000D01*
X-02810000Y018650000D01*
X-04570000Y016690000D01*
X-06740000Y014600000D01*
X-09240000Y012400000D01*
X-11910000Y010110000D01*
X-14610000Y007730000D01*
X-17160000Y005260000D01*
X-19350000Y002670000D01*
X-21050000Y-00030000D01*
X-22130000Y-02810000D01*
X-22500000Y-05620000D01*
X-22130000Y-08370000D01*
X-21050000Y-10940000D01*
X-19350000Y-13180000D01*
X-17160000Y-14960000D01*
X-14610000Y-16170000D01*
X-11910000Y-16730000D01*
X-09240000Y-16620000D01*
X-06740000Y-15880000D01*
X-04570000Y-14620000D01*
X-02810000Y-13020000D01*
X-01520000Y-11280000D01*
X-00660000Y-09600000D01*
X-00200000Y-08240000D01*
X-00030000Y-07340000D01*
X000000000Y-07030000D01*
M02*