%TF.GenerationSoftware,tscircuit,circuit-json-to-gerber,0.0.47*%
%TF.CreationDate,2026-03-14T05:51:03.023Z*%
%TF.SameCoordinates,Original*%
%TF.FileFunction,Legend,Bot*%
%TF.FilePolarity,Positive*%
%FSLAX46Y46*%
%MOMM*%
G04 Gerber Fmt 4.6, Leading zero omitted, Abs format (unit mm)*
G04 Created by tscircuit (builder) date 2026-03-14T05:51:03.023Z*
G01*
%LPD*%
G75*
G04 APERTURE MACROS START*
%AMHORZPILL*
0 Horizontal pill (stadium) shape macro*
0 Parameters:*
0 $1 = Total width*
0 $2 = Total height*
0 $3 = Circle diameter (equal to height)*
0 $4 = Circle center offset
0 21 = Center Line(Exposure, Width, Height, Center X, Center Y, Rotation)*
0 1 = Circle(Exposure, Diameter, Center X, Center Y, Rotation)*
21,1,$1,$2,0.0,0.0,0.0*
1,1,$3,0.0-$4,0.0*
1,1,$3,$4,0.0*%
%AMVERTPILL*
0 Vertical pill (stadium) shape macro*
0 Parameters:*
0 $1 = Total width*
0 $2 = Total height*
0 $3 = Circle diameter (equal to width)*
0 $4 = Circle center offset
0 21 = Center Line(Exposure, Width, Height, Center X, Center Y, Rotation)*
21,1,$1,$2,0.0,0.0,0.0*
1,1,$3,0.0,0.0-$4*
1,1,$3,0.0,$4*%
%AMRoundRect*
0 Rectangle with rounded corners*
0 $1 Corner radius*
0 $2 $3 $4 $5 $6 $7 $8 $9 X,Y Position of each corner*
0 Polygon box body*
4,1,4,$2,$3,$4,$5,$6,$7,$8,$9,$2,$3,0*
0 Circles for rounded corners*
1,1,$1+$1,$2,$3*
1,1,$1+$1,$4,$5*
1,1,$1+$1,$6,$7*
1,1,$1+$1,$8,$9*
0 Rectangles between the rounded corners*
20,1,$1+$1,$2,$3,$4,$5,0*
20,1,$1+$1,$4,$5,$6,$7,0*
20,1,$1+$1,$6,$7,$8,$9,0*
20,1,$1+$1,$8,$9,$2,$3,0*%
G04 APERTURE MACROS END*
G04 aperture START LIST*
%ADD10C,0.150000*%
%ADD11C,2.500000*%
%ADD12C,0.100000*%
%ADD13C,0.125000*%
%ADD14C,0.050000*%
%ADD15C,1.800000*%
%ADD16C,0.300000*%
%TD*%
G04 aperture END LIST*
D12*
X001680000Y009190000D02*
X001200000Y009590000D01*
X001150000Y010270000D01*
X001570000Y010760000D01*
X002200000Y010830000D01*
X002720000Y010460000D01*
X002820000Y009780000D01*
X002480000Y009280000D01*
X001820000Y009150000D01*
X002390000Y009920000D01*
X002090000Y010450000D01*
X001580000Y010150000D01*
X001780000Y009570000D01*
D12*
X-05000000Y009180000D02*
X-04840000Y009570000D01*
X-04530000Y010350000D01*
X-04350000Y010780000D01*
X-03870000Y010760000D01*
X-03650000Y010240000D01*
X-03390000Y009580000D01*
X-03240000Y009210000D01*
X-03720000Y009320000D01*
X-03960000Y009920000D01*
X-04130000Y010140000D01*
X-04420000Y009450000D01*
X-04710000Y009170000D01*
D12*
X-02940000Y009990000D02*
X-02940000Y010320000D01*
X-02940000Y010660000D01*
X-02770000Y010820000D01*
X-02510000Y010740000D01*
X-02510000Y010410000D01*
X-02510000Y010070000D01*
X-02510000Y009740000D01*
X-02510000Y009410000D01*
X-02600000Y009170000D01*
X-02940000Y009170000D01*
X-02940000Y009490000D01*
X-02940000Y009820000D01*
D12*
X-02150000Y009200000D02*
X-01850000Y009540000D01*
X-01460000Y009620000D01*
X-01920000Y010210000D01*
X-02180000Y010740000D01*
X-01630000Y010810000D01*
X-01010000Y010800000D01*
X-00940000Y010470000D01*
X-01590000Y010430000D01*
X-01250000Y009970000D01*
X-00860000Y009460000D01*
X-01210000Y009170000D01*
X-02020000Y009170000D01*
D12*
X000040000Y009190000D02*
X-00440000Y009480000D01*
X-00620000Y010000000D01*
X-00430000Y010530000D01*
X000030000Y010800000D01*
X000620000Y010740000D01*
X000730000Y010370000D01*
X000240000Y010450000D01*
X-00160000Y010130000D01*
X000010000Y009610000D01*
X000540000Y009650000D01*
X000860000Y009410000D01*
X000320000Y009180000D01*
D12*
X003170000Y009990000D02*
X003170000Y010810000D01*
X003580000Y010390000D01*
X003840000Y010420000D01*
X004280000Y010480000D01*
X004590000Y010370000D01*
X004990000Y010820000D01*
X005000000Y010000000D01*
X004990000Y009180000D01*
X004400000Y009560000D01*
X004020000Y010020000D01*
X003560000Y009220000D01*
X003170000Y009580000D01*
D12*
X006000000Y009000000D02*
X007500000Y009000000D01*
X007500000Y010500000D01*
X006000000Y010500000D01*
X006000000Y009000000D01*
D12*
X006500000Y009500000D02*
X008000000Y009500000D01*
X008000000Y011000000D01*
X006500000Y011000000D01*
X006500000Y009500000D01*
D12*
X007000000Y010000000D02*
X008500000Y010000000D01*
X008500000Y011500000D01*
X007000000Y011500000D01*
X007000000Y010000000D01*
M02*